<svg id="Shapes" xmlns="http://www.w3.org/2000/svg" viewBox="0 0 50 50.02">
  <title>binary-classification</title>
  <path d="M13.07,31.84l5.25-5.26H15.69V19H10.45v7.62H7.82Z"/>
  <path d="M6.59,6.59V0H0V6.59Z" fill="#4d79c7"/>
  <g>
    <path d="M13.94,46.72a3.3,3.3,0,1,1,3.3,3.3A3.3,3.3,0,0,1,13.94,46.72Z" fill="#4d79c7"/>
    <path d="M5.61,46.72A3.3,3.3,0,1,1,8.9,50,3.3,3.3,0,0,1,5.61,46.72Z" fill="#4d79c7"/>
    <path d="M12.2,37.88a3.3,3.3,0,1,1-3.3-3.3A3.3,3.3,0,0,1,12.2,37.88Z" fill="#4d79c7"/>
    <path d="M20.53,37.88a3.3,3.3,0,1,1-3.29-3.3A3.29,3.29,0,0,1,20.53,37.88Z" fill="#4d79c7"/>
  </g>
  <g>
    <path d="M16.37,3.3A3.3,3.3,0,1,1,13.07,0,3.3,3.3,0,0,1,16.37,3.3Z" fill="#4d79c7"/>
    <path d="M9.78,15.43h6.59V8.84H9.78Z" fill="#4d79c7"/>
  </g>
  <g>
    <path d="M21.14,12.14a3.3,3.3,0,1,1,3.29,3.29A3.29,3.29,0,0,1,21.14,12.14Z" fill="#4d79c7"/>
    <path d="M21.14,6.59h6.59V0H21.14Z" fill="#4d79c7"/>
  </g>
  <path d="M35.82,8.84a3.3,3.3,0,1,1-3.3,3.3A3.29,3.29,0,0,1,35.82,8.84Z" fill="#4d79c7"/>
  <path d="M50,15.43V8.84H43.41v6.59Z" fill="#4d79c7"/>
  <path d="M46.7,6.59A3.3,3.3,0,1,1,50,3.3,3.3,3.3,0,0,1,46.7,6.59Z" fill="#4d79c7"/>
  <g>
    <g>
      <path d="M43.75,50v-6.6H37.16V50Z" fill="#4d79c7"/>
      <path d="M34.48,50v-6.6H27.89V50Z" fill="#4d79c7"/>
      <path d="M43.75,41.68V35.09H37.16v6.59Z" fill="#4d79c7"/>
      <path d="M34.48,41.68V35.09H27.89v6.59Z" fill="#4d79c7"/>
    </g>
    <path d="M35.81,31.84l5.26-5.26H38.44V19H33.2v7.62H30.57Z"/>
  </g>
</svg>
