<svg xmlns="http://www.w3.org/2000/svg" viewBox="0 0 361.14 187.93"><title>linear-regression</title><g id="Shapes"><rect width="361.14" height="187.93" fill="#fff"/><g><polyline fill="none" stroke="#000" stroke-miterlimit="10" points="351.83 146.54 97.21 146.54 97.21 6.92"/><polygon points="350.74 142.8 357.21 146.54 350.74 150.28 350.74 142.8"/><polygon points="100.95 8.02 97.21 1.54 93.47 8.02 100.95 8.02"/></g><polyline fill="none" stroke="#1e1e1e" stroke-linecap="round" stroke-miterlimit="10" points="144.03 71.71 144.03 32.11 205.18 32.11"/><line x1="97.74" x2="237.21" y1="101.94" y2="11.54" fill="none" stroke="#0072c6" stroke-linecap="round" stroke-miterlimit="10" stroke-width="2"/><circle cx="212.41" cy="17.42" r="2.5" fill="#50e6ff"/><circle cx="217.92" cy="12.42" r="2.5" fill="#50e6ff"/><circle cx="136.22" cy="67.71" r="2.5" fill="#50e6ff"/><circle cx="123.9" cy="65.21" r="2.5" fill="#50e6ff"/><circle cx="119.4" cy="78.67" r="2.5" fill="#50e6ff"/><circle cx="106.75" cy="85.93" r="2.5" fill="#50e6ff"/><circle cx="104.25" cy="70.21" r="2.5" fill="#50e6ff"/><circle cx="106.75" cy="57.54" r="2.5" fill="#50e6ff"/><circle cx="116.9" cy="55.04" r="2.5" fill="#50e6ff"/><circle cx="114.4" cy="41.51" r="2.5" fill="#50e6ff"/><circle cx="146.4" cy="78.51" r="2.5" fill="#50e6ff"/><circle cx="151.4" cy="85.93" r="2.5" fill="#50e6ff"/><circle cx="136.4" cy="88.51" r="2.5" fill="#50e6ff"/><circle cx="144.03" cy="98.51" r="2.5" fill="#50e6ff"/><circle cx="128.8" cy="109.15" r="2.5" fill="#50e6ff"/><circle cx="179.54" cy="76.17" r="2.5" fill="#50e6ff"/><circle cx="126.4" cy="118.51" r="2.5" fill="#50e6ff"/><circle cx="109.25" cy="117.41" r="2.5" fill="#50e6ff"/><circle cx="116.4" cy="108.51" r="2.5" fill="#50e6ff"/><circle cx="116.4" cy="98.51" r="2.5" fill="#50e6ff"/><circle cx="128.8" cy="92.52" r="2.5" fill="#50e6ff"/><circle cx="162.47" cy="92.52" r="2.5" fill="#50e6ff"/><circle cx="192.68" cy="72.54" r="2.5" fill="#50e6ff"/><circle cx="166.4" cy="78.51" r="2.5" fill="#50e6ff"/><circle cx="173.9" cy="67.71" r="2.5" fill="#50e6ff"/><circle cx="195.18" cy="47.54" r="2.5" fill="#50e6ff"/><circle cx="215.18" cy="31.51" r="2.5" fill="#50e6ff"/><circle cx="207.68" cy="42.54" r="2.5" fill="#50e6ff"/><circle cx="224.71" cy="49.41" r="2.5" fill="#50e6ff"/><circle cx="224.71" cy="36.54" r="2.5" fill="#50e6ff"/><circle cx="232.21" cy="23.44" r="2.5" fill="#50e6ff"/><circle cx="247.69" cy="34.04" r="2.5" fill="#50e6ff"/><circle cx="234.71" cy="38.73" r="2.5" fill="#50e6ff"/><circle cx="253.2" cy="21.54" r="2.5" fill="#50e6ff"/><circle cx="247.84" cy="14.13" r="2.5" fill="#50e6ff"/><circle cx="240.91" cy="19.92" r="2.5" fill="#50e6ff"/><circle cx="123.8" cy="42.54" r="2.5" fill="#50e6ff"/><circle cx="123.8" cy="32.54" r="2.5" fill="#50e6ff"/><circle cx="159.97" cy="67.71" r="2.5" fill="#50e6ff"/><circle cx="207.41" cy="22.42" r="2.5" fill="#50e6ff"/><circle cx="202.68" cy="14.92" r="2.5" fill="#50e6ff"/><circle cx="195.18" cy="24.92" r="2.5" fill="#50e6ff"/><circle cx="155.18" cy="14.92" r="2.5" fill="#50e6ff"/><circle cx="106.75" cy="106.01" r="2.5" fill="#50e6ff"/><circle cx="163.9" cy="16.63" r="2.5" fill="#50e6ff"/><circle cx="155.18" cy="26.87" r="2.5" fill="#50e6ff"/><circle cx="151.4" cy="41.51" r="2.5" fill="#50e6ff"/><circle cx="156.4" cy="48.23" r="2.5" fill="#50e6ff"/><circle cx="150.31" cy="58.51" r="2.5" fill="#50e6ff"/><circle cx="166.4" cy="48.23" r="2.5" fill="#50e6ff"/><circle cx="167.48" cy="38.73" r="2.5" fill="#50e6ff"/><circle cx="179.54" cy="38.73" r="2.5" fill="#50e6ff"/><circle cx="145.21" cy="21.54" r="2.5" fill="#50e6ff"/><circle cx="104.25" cy="47.54" r="2.5" fill="#50e6ff"/><circle cx="192.68" cy="14.13" r="2.5" fill="#50e6ff"/></g><g id="Text"><g><path fill="#1e1e1e" d="M55.33,11.9H53.12v-4H49.06v4H46.85V2.1h2.21V6h4.06V2.1h2.21Z"/><path fill="#1e1e1e" d="M60.7,12.07a3.72,3.72,0,0,1-2.75-1,3.54,3.54,0,0,1-1-2.66,3.58,3.58,0,0,1,1-2.72,4,4,0,0,1,2.81-1,3.73,3.73,0,0,1,2.74,1,3.51,3.51,0,0,1,1,2.6,3.69,3.69,0,0,1-1,2.75A3.79,3.79,0,0,1,60.7,12.07Zm0-5.69a1.46,1.46,0,0,0-1.19.53,2.34,2.34,0,0,0-.42,1.49c0,1.35.54,2,1.63,2s1.55-.69,1.55-2.07S61.8,6.38,60.75,6.38Z"/><path fill="#1e1e1e" d="M72.57,11.9H70.42V10.83h0a2.42,2.42,0,0,1-2.14,1.24q-2.43,0-2.43-2.94V4.9H68v4c0,1,.4,1.49,1.18,1.49a1.16,1.16,0,0,0,.93-.41,1.65,1.65,0,0,0,.35-1.1v-4h2.15Z"/><path fill="#1e1e1e" d="M73.93,11.72V10a5,5,0,0,0,1.07.48,3.62,3.62,0,0,0,1,.15,2.22,2.22,0,0,0,.9-.15.52.52,0,0,0,.33-.48.43.43,0,0,0-.15-.34,1.12,1.12,0,0,0-.38-.24,5.19,5.19,0,0,0-.52-.19c-.19,0-.37-.12-.54-.18a5.59,5.59,0,0,1-.73-.34,2.1,2.1,0,0,1-.54-.42A1.84,1.84,0,0,1,74,7.7,2.31,2.31,0,0,1,73.93,7a1.92,1.92,0,0,1,.26-1,2.16,2.16,0,0,1,.68-.7,3,3,0,0,1,1-.39A4.8,4.8,0,0,1,77,4.73a6.16,6.16,0,0,1,1,.07,7.51,7.51,0,0,1,.94.21V6.68A3.4,3.4,0,0,0,78,6.32a3.69,3.69,0,0,0-.92-.12,1.75,1.75,0,0,0-.4,0,1.17,1.17,0,0,0-.33.11.67.67,0,0,0-.22.18.41.41,0,0,0-.09.26.49.49,0,0,0,.13.33,1,1,0,0,0,.32.23,2.53,2.53,0,0,0,.44.18l.48.16a5.72,5.72,0,0,1,.78.33,2.67,2.67,0,0,1,.6.42,1.47,1.47,0,0,1,.38.56,1.94,1.94,0,0,1,.14.76A2,2,0,0,1,79,10.83a2.22,2.22,0,0,1-.72.71,3.37,3.37,0,0,1-1,.41,6.08,6.08,0,0,1-1.22.12A6.45,6.45,0,0,1,73.93,11.72Z"/><path fill="#1e1e1e" d="M86.84,9H82.27c.07,1,.72,1.52,1.92,1.52a3.7,3.7,0,0,0,2-.55v1.56a5.24,5.24,0,0,1-2.52.52,3.53,3.53,0,0,1-2.63-.94,3.52,3.52,0,0,1-.94-2.62,3.76,3.76,0,0,1,1-2.76,3.39,3.39,0,0,1,2.49-1A3.05,3.05,0,0,1,86,5.64a3.51,3.51,0,0,1,.84,2.47Zm-2-1.33c0-1-.41-1.5-1.22-1.5a1.14,1.14,0,0,0-.9.43,1.9,1.9,0,0,0-.46,1.07Z"/><path fill="#1e1e1e" d="M58.05,23.52V26.9H55.84V17.1H59.3q3.71,0,3.7,3.12a3,3,0,0,1-1.06,2.39,4.21,4.21,0,0,1-2.84.91Zm0-4.73v3.06h.86c1.18,0,1.77-.52,1.77-1.55s-.59-1.51-1.77-1.51Z"/><path fill="#1e1e1e" d="M68.79,21.85a1.88,1.88,0,0,0-.91-.21,1.32,1.32,0,0,0-1.1.51,2.31,2.31,0,0,0-.39,1.41V26.9H64.23v-7h2.16v1.3h0a1.87,1.87,0,0,1,1.85-1.42,1.48,1.48,0,0,1,.53.08Z"/><path fill="#1e1e1e" d="M70.94,18.79a1.23,1.23,0,0,1-.89-.32,1.06,1.06,0,0,1-.35-.8,1,1,0,0,1,.35-.79,1.45,1.45,0,0,1,1.79,0,1,1,0,0,1,.35.79,1.05,1.05,0,0,1-.35.81A1.28,1.28,0,0,1,70.94,18.79ZM72,26.9H69.85v-7H72Z"/><path fill="#1e1e1e" d="M79.13,26.65a4.28,4.28,0,0,1-2.11.42,3.55,3.55,0,0,1-2.61-1,3.39,3.39,0,0,1-1-2.52,3.73,3.73,0,0,1,1.07-2.81,4,4,0,0,1,2.86-1,3.61,3.61,0,0,1,1.79.33v1.83a2.44,2.44,0,0,0-1.51-.51,2,2,0,0,0-1.47.55,2,2,0,0,0-.54,1.5,2,2,0,0,0,.52,1.46,1.91,1.91,0,0,0,1.43.53,2.81,2.81,0,0,0,1.57-.51Z"/><path fill="#1e1e1e" d="M86.84,24H82.27c.07,1,.72,1.52,1.92,1.52a3.7,3.7,0,0,0,2-.55v1.56a5.24,5.24,0,0,1-2.52.52,3.26,3.26,0,0,1-3.57-3.56,3.76,3.76,0,0,1,1-2.76,3.39,3.39,0,0,1,2.49-1,3.05,3.05,0,0,1,2.37.91,3.51,3.51,0,0,1,.84,2.47Zm-2-1.33c0-1-.41-1.5-1.22-1.5a1.14,1.14,0,0,0-.9.43,1.9,1.9,0,0,0-.46,1.07Z"/></g><g><path fill="#1e1e1e" d="M326.82,166.9H324.6v-4h-4.06v4h-2.2v-9.8h2.2V161h4.06V157.1h2.22Z"/><path fill="#1e1e1e" d="M332.18,167.07a3.75,3.75,0,0,1-2.75-1,4.06,4.06,0,0,1,0-5.38,3.94,3.94,0,0,1,2.81-1,3.77,3.77,0,0,1,2.74,1,3.51,3.51,0,0,1,1,2.6,3.66,3.66,0,0,1-1,2.75A3.77,3.77,0,0,1,332.18,167.07Zm.06-5.69a1.44,1.44,0,0,0-1.19.53,2.34,2.34,0,0,0-.42,1.49c0,1.35.54,2,1.62,2s1.56-.69,1.56-2.07S333.28,161.38,332.24,161.38Z"/><path fill="#1e1e1e" d="M344.06,166.9h-2.15v-1.07h0a2.44,2.44,0,0,1-2.14,1.24q-2.43,0-2.43-2.94V159.9h2.15v4c0,1,.39,1.49,1.18,1.49a1.18,1.18,0,0,0,.93-.41,1.65,1.65,0,0,0,.35-1.1v-4h2.15Z"/><path fill="#1e1e1e" d="M345.42,166.72V165a5,5,0,0,0,1.06.48,3.73,3.73,0,0,0,1,.15,2.23,2.23,0,0,0,.91-.15.52.52,0,0,0,.33-.48.43.43,0,0,0-.15-.34,1.08,1.08,0,0,0-.39-.24,5,5,0,0,0-.51-.19c-.19,0-.37-.12-.54-.18a5.76,5.76,0,0,1-.74-.34,2,2,0,0,1-.53-.42,1.84,1.84,0,0,1-.33-.56,2.31,2.31,0,0,1-.11-.74,1.92,1.92,0,0,1,.26-1,2.07,2.07,0,0,1,.68-.7,3,3,0,0,1,1-.39,4.74,4.74,0,0,1,1.14-.13,6.16,6.16,0,0,1,.95.07,7.93,7.93,0,0,1,.94.21v1.67a3.4,3.4,0,0,0-.88-.36,3.69,3.69,0,0,0-.92-.12,1.75,1.75,0,0,0-.4,0,1.07,1.07,0,0,0-.33.11.71.71,0,0,0-.23.18.47.47,0,0,0-.08.26.48.48,0,0,0,.12.33,1,1,0,0,0,.33.23,2.53,2.53,0,0,0,.44.18l.48.16a5.72,5.72,0,0,1,.78.33,2.67,2.67,0,0,1,.6.42,1.59,1.59,0,0,1,.38.56,2,2,0,0,1,.13.76,2,2,0,0,1-.27,1.07,2.13,2.13,0,0,1-.72.71,3.17,3.17,0,0,1-1,.41,6,6,0,0,1-1.21.12A6.45,6.45,0,0,1,345.42,166.72Z"/><path fill="#1e1e1e" d="M358.33,164h-4.57c.07,1,.71,1.52,1.92,1.52a3.7,3.7,0,0,0,2-.55v1.56a5.3,5.3,0,0,1-2.52.52,3.26,3.26,0,0,1-3.57-3.56,3.76,3.76,0,0,1,1-2.76,3.39,3.39,0,0,1,2.49-1,3.05,3.05,0,0,1,2.37.91,3.51,3.51,0,0,1,.84,2.47Zm-2-1.33c0-1-.4-1.5-1.21-1.5a1.14,1.14,0,0,0-.9.43,1.84,1.84,0,0,0-.46,1.07Z"/><path fill="#1e1e1e" d="M317.88,181.53v-2.19a4.36,4.36,0,0,0,1.3.75,4.26,4.26,0,0,0,1.4.25,3.13,3.13,0,0,0,.73-.08,1.66,1.66,0,0,0,.52-.21.92.92,0,0,0,.31-.31.77.77,0,0,0,.11-.4.85.85,0,0,0-.17-.51,1.63,1.63,0,0,0-.45-.41,3.8,3.8,0,0,0-.67-.37l-.84-.37a4.22,4.22,0,0,1-1.71-1.17,2.52,2.52,0,0,1-.57-1.66,2.74,2.74,0,0,1,.31-1.32,2.59,2.59,0,0,1,.84-.9,3.61,3.61,0,0,1,1.23-.53,6.3,6.3,0,0,1,1.47-.17,9.11,9.11,0,0,1,1.36.1,5.11,5.11,0,0,1,1.09.28v2a3.45,3.45,0,0,0-.54-.3,5.29,5.29,0,0,0-.6-.21,4.13,4.13,0,0,0-.61-.13,3.86,3.86,0,0,0-.58,0,2.9,2.9,0,0,0-.68.07,2.09,2.09,0,0,0-.52.2,1.1,1.1,0,0,0-.33.31.84.84,0,0,0-.11.41.74.74,0,0,0,.13.44,1.3,1.3,0,0,0,.37.37,3.42,3.42,0,0,0,.58.34c.23.12.48.23.77.35a9.52,9.52,0,0,1,1.06.52,4,4,0,0,1,.8.63,2.55,2.55,0,0,1,.51.79,2.82,2.82,0,0,1,.18,1.05,2.75,2.75,0,0,1-.31,1.37,2.48,2.48,0,0,1-.85.91,3.54,3.54,0,0,1-1.24.49,7.17,7.17,0,0,1-1.49.15,8.31,8.31,0,0,1-1.53-.13A5.12,5.12,0,0,1,317.88,181.53Z"/><path fill="#1e1e1e" d="M327.06,173.79a1.23,1.23,0,0,1-.89-.32,1.06,1.06,0,0,1-.35-.8,1,1,0,0,1,.35-.79,1.45,1.45,0,0,1,1.79,0,1,1,0,0,1,.35.79,1.05,1.05,0,0,1-.35.81A1.28,1.28,0,0,1,327.06,173.79Zm1.07,8.11H326v-7h2.16Z"/><path fill="#1e1e1e" d="M335.49,181.9h-6.28V181l3.52-4.52h-3.17V174.9h5.91V176l-3.33,4.34h3.35Z"/><path fill="#1e1e1e" d="M342.94,179h-4.56c.07,1,.71,1.52,1.92,1.52a3.7,3.7,0,0,0,2-.55v1.56a5.3,5.3,0,0,1-2.52.52,3.26,3.26,0,0,1-3.57-3.56,3.76,3.76,0,0,1,1-2.76,3.37,3.37,0,0,1,2.49-1,3.05,3.05,0,0,1,2.37.91,3.5,3.5,0,0,1,.83,2.47Zm-2-1.33c0-1-.4-1.5-1.21-1.5a1.14,1.14,0,0,0-.9.43,1.91,1.91,0,0,0-.47,1.07Z"/></g><path fill="#1e1e1e" d="M82.37,92.27v3.52A2.41,2.41,0,0,1,84.14,95a2.18,2.18,0,0,1,1.24.38,2.53,2.53,0,0,1,.9,1.1,3.84,3.84,0,0,1,.33,1.64,4.37,4.37,0,0,1-.41,1.9,3.12,3.12,0,0,1-1.12,1.3,2.85,2.85,0,0,1-1.59.45,2.27,2.27,0,0,1-1.72-.7l-1.06.69h-.23V93.59a2.86,2.86,0,0,0,0-.68.47.47,0,0,0-.21-.28,1.12,1.12,0,0,0-.5-.11v-.25Zm0,4.13v2.84a7.76,7.76,0,0,0,0,1.11,1.12,1.12,0,0,0,.32.65.93.93,0,0,0,.67.25.92.92,0,0,0,.59-.2,1.48,1.48,0,0,0,.42-.78,9,9,0,0,0,.17-2.12,3.86,3.86,0,0,0-.37-2,.85.85,0,0,0-.72-.4A1.52,1.52,0,0,0,82.37,96.4Z"/><g><path fill="#1e1e1e" d="M6.72,60.13h-1a8.74,8.74,0,0,1-2.12-6A9.08,9.08,0,0,1,5.72,48.1h1a9.21,9.21,0,0,0-2.14,6A9.05,9.05,0,0,0,6.72,60.13Z"/><path fill="#1e1e1e" d="M11.82,57.9H10.7V49.43a2.28,2.28,0,0,1-.38.3c-.17.11-.35.22-.56.33s-.43.21-.66.31a4.76,4.76,0,0,1-.67.22V49.46a5.68,5.68,0,0,0,.78-.28,6.81,6.81,0,0,0,.82-.39q.39-.21.75-.45a7.15,7.15,0,0,0,.62-.46h.42Z"/><path fill="#1e1e1e" d="M21.39,53a9.51,9.51,0,0,1-.22,2.18,5.1,5.1,0,0,1-.64,1.6,2.8,2.8,0,0,1-1,1,2.75,2.75,0,0,1-1.39.34,2.67,2.67,0,0,1-1.31-.32,2.77,2.77,0,0,1-1-1,4.89,4.89,0,0,1-.6-1.53A9.2,9.2,0,0,1,15,53.2a10.9,10.9,0,0,1,.21-2.27,5.47,5.47,0,0,1,.63-1.65,2.86,2.86,0,0,1,1-1,3,3,0,0,1,1.42-.34Q21.39,47.93,21.39,53Zm-1.15.11q0-4.18-2-4.19t-2.1,4.26q0,4,2.06,4C19.57,57.12,20.24,55.77,20.24,53.07Z"/><path fill="#1e1e1e" d="M28.94,53a10.1,10.1,0,0,1-.22,2.18,5.1,5.1,0,0,1-.65,1.6,2.75,2.75,0,0,1-2.42,1.33,2.56,2.56,0,0,1-2.29-1.27,4.66,4.66,0,0,1-.6-1.53,9.16,9.16,0,0,1-.21-2.07,10.22,10.22,0,0,1,.22-2.27,5,5,0,0,1,.63-1.65,2.79,2.79,0,0,1,1-1,2.94,2.94,0,0,1,1.41-.34Q28.94,47.93,28.94,53Zm-1.15.11q0-4.18-2-4.19t-2.1,4.26q0,4,2.06,4T27.79,53.07Z"/><path fill="#1e1e1e" d="M31.67,56.34l-1.09,3.37h-.8l.8-3.37Z"/><path fill="#1e1e1e" d="M39.52,53a9.51,9.51,0,0,1-.22,2.18,5.1,5.1,0,0,1-.64,1.6,2.88,2.88,0,0,1-1,1,2.75,2.75,0,0,1-1.39.34,2.67,2.67,0,0,1-1.31-.32,2.77,2.77,0,0,1-1-1,4.89,4.89,0,0,1-.6-1.53,9.2,9.2,0,0,1-.2-2.07,10.9,10.9,0,0,1,.21-2.27A5.22,5.22,0,0,1,34,49.28a2.86,2.86,0,0,1,1-1,3,3,0,0,1,1.42-.34Q39.52,47.93,39.52,53Zm-1.15.11q0-4.18-2-4.19t-2.1,4.26q0,4,2.06,4T38.37,53.07Z"/><path fill="#1e1e1e" d="M47.07,53a9.47,9.47,0,0,1-.23,2.18,4.87,4.87,0,0,1-.64,1.6,2.75,2.75,0,0,1-2.42,1.33,2.56,2.56,0,0,1-2.29-1.27,4.45,4.45,0,0,1-.6-1.53,9.16,9.16,0,0,1-.21-2.07,10.22,10.22,0,0,1,.22-2.27,5,5,0,0,1,.63-1.65,2.79,2.79,0,0,1,1-1A2.94,2.94,0,0,1,44,47.93Q47.07,47.93,47.07,53Zm-1.15.11q0-4.18-2-4.19t-2.1,4.26q0,4,2.06,4T45.92,53.07Z"/><path fill="#1e1e1e" d="M54.61,53a9.51,9.51,0,0,1-.22,2.18,5.1,5.1,0,0,1-.64,1.6,2.86,2.86,0,0,1-1,1,2.78,2.78,0,0,1-1.39.34A2.56,2.56,0,0,1,49,56.8a4.66,4.66,0,0,1-.61-1.53,9.82,9.82,0,0,1-.2-2.07,10.9,10.9,0,0,1,.21-2.27,5.22,5.22,0,0,1,.64-1.65,2.76,2.76,0,0,1,1-1,3,3,0,0,1,1.42-.34C53.59,47.93,54.61,49.61,54.61,53Zm-1.14.11c0-2.79-.67-4.19-2-4.19s-2.1,1.42-2.1,4.26q0,4,2,4T53.47,53.07Z"/><path fill="#1e1e1e" d="M63.08,58.07a3.21,3.21,0,0,1-2.47-1,3.62,3.62,0,0,1-.93-2.6,3.79,3.79,0,0,1,1-2.75,3.48,3.48,0,0,1,2.61-1,3.13,3.13,0,0,1,2.44,1,4.38,4.38,0,0,1-.07,5.36A3.31,3.31,0,0,1,63.08,58.07Zm.09-6.39a2.14,2.14,0,0,0-1.71.74,3,3,0,0,0-.63,2,2.85,2.85,0,0,0,.63,2,2.17,2.17,0,0,0,1.71.72,2,2,0,0,0,1.67-.7,3.06,3.06,0,0,0,.58-2,3.13,3.13,0,0,0-.58-2A2.06,2.06,0,0,0,63.17,51.68Z"/><path fill="#1e1e1e" d="M71.82,48.52a1.54,1.54,0,0,0-.75-.18c-.78,0-1.17.49-1.17,1.48V50.9h1.64v1H69.9v6H68.78v-6H67.59v-1h1.19V49.77A2.36,2.36,0,0,1,69.42,48,2.13,2.13,0,0,1,71,47.39a2.23,2.23,0,0,1,.81.12Z"/><path fill="#1e1e1e" d="M79.65,57.85v1.48h-.71V57.9a4.19,4.19,0,0,1-2.36-.59V56.12a3,3,0,0,0,1.08.59,3.9,3.9,0,0,0,1.28.23v-3.5a5.37,5.37,0,0,1-2-1.33A2.54,2.54,0,0,1,77.23,49a2.83,2.83,0,0,1,1.71-.87V46.85h.71v1.21a3.72,3.72,0,0,1,1.86.38V49.6A3.19,3.19,0,0,0,79.65,49v3.61a6,6,0,0,1,1.95,1.31,2.18,2.18,0,0,1,.52,1.44A2.24,2.24,0,0,1,81.47,57,3.23,3.23,0,0,1,79.65,57.85Zm-.71-5.61V49.06a1.51,1.51,0,0,0-.91.51,1.41,1.41,0,0,0-.33,1,1.6,1.6,0,0,0,.27,1A2.91,2.91,0,0,0,78.94,52.24Zm.71,1.56v3.09c.88-.19,1.32-.67,1.32-1.42S80.53,54.28,79.65,53.8Z"/><path fill="#1e1e1e" d="M84.15,60.13h-1a9,9,0,0,0,2.14-6,9.22,9.22,0,0,0-2.15-6h1a9,9,0,0,1,2.13,6.06A8.7,8.7,0,0,1,84.15,60.13Z"/></g><g><path fill="#1e1e1e" d="M162.11,169.13h-1a8.69,8.69,0,0,1-2.12-6,9,9,0,0,1,2.12-6.06h1a9.22,9.22,0,0,0-2.15,6.05A9.05,9.05,0,0,0,162.11,169.13Z"/><path fill="#1e1e1e" d="M167.21,166.9h-1.12v-8.47a1.93,1.93,0,0,1-.38.3,5.54,5.54,0,0,1-.56.33l-.65.31a4.87,4.87,0,0,1-.68.22v-1.13a6.31,6.31,0,0,0,.79-.28,7.48,7.48,0,0,0,.81-.39,6.76,6.76,0,0,0,.75-.45,5.88,5.88,0,0,0,.62-.46h.42Z"/><path fill="#1e1e1e" d="M176.78,162a9.51,9.51,0,0,1-.22,2.18,5.1,5.1,0,0,1-.64,1.6,2.86,2.86,0,0,1-1,1,2.78,2.78,0,0,1-1.39.34,2.56,2.56,0,0,1-2.29-1.27,4.66,4.66,0,0,1-.61-1.53,9.82,9.82,0,0,1-.2-2.07,10.9,10.9,0,0,1,.21-2.27,5.22,5.22,0,0,1,.64-1.65,2.76,2.76,0,0,1,1-1,3,3,0,0,1,1.42-.34C175.76,156.93,176.78,158.61,176.78,162Zm-1.14.11c0-2.79-.67-4.19-2-4.19s-2.1,1.42-2.1,4.26q0,4,2,4T175.64,162.07Z"/><path fill="#1e1e1e" d="M184.33,162a9.51,9.51,0,0,1-.22,2.18,5.1,5.1,0,0,1-.64,1.6,2.8,2.8,0,0,1-1,1,2.75,2.75,0,0,1-1.39.34,2.67,2.67,0,0,1-1.31-.32,2.77,2.77,0,0,1-1-.95,4.89,4.89,0,0,1-.6-1.53,9.2,9.2,0,0,1-.2-2.07,10.9,10.9,0,0,1,.21-2.27,5.22,5.22,0,0,1,.63-1.65,2.86,2.86,0,0,1,1-1,3,3,0,0,1,1.42-.34Q184.33,156.93,184.33,162Zm-1.15.11q0-4.19-2-4.19t-2.1,4.26q0,4,2.06,4C182.51,166.12,183.18,164.77,183.18,162.07Z"/><path fill="#1e1e1e" d="M191.88,162a10.1,10.1,0,0,1-.22,2.18,5.1,5.1,0,0,1-.65,1.6,2.75,2.75,0,0,1-2.42,1.33,2.56,2.56,0,0,1-2.29-1.27,4.66,4.66,0,0,1-.6-1.53,9.16,9.16,0,0,1-.21-2.07,10.22,10.22,0,0,1,.22-2.27,5,5,0,0,1,.63-1.65,2.79,2.79,0,0,1,1-1,2.94,2.94,0,0,1,1.41-.34Q191.88,156.93,191.88,162Zm-1.15.11q0-4.19-2-4.19t-2.1,4.26q0,4,2.06,4T190.73,162.07Z"/><path fill="#1e1e1e" d="M193.16,166.65v-1.2a3.33,3.33,0,0,0,2,.67c1,0,1.48-.33,1.48-1a.9.9,0,0,0-.13-.48,1.37,1.37,0,0,0-.34-.34,2.7,2.7,0,0,0-.51-.27l-.62-.25a8.07,8.07,0,0,1-.82-.38,2.22,2.22,0,0,1-.59-.42,1.48,1.48,0,0,1-.35-.54,1.86,1.86,0,0,1-.12-.7,1.66,1.66,0,0,1,.22-.87,2,2,0,0,1,.6-.64,2.68,2.68,0,0,1,.86-.38,3.66,3.66,0,0,1,1-.13,4,4,0,0,1,1.62.31v1.14a3.12,3.12,0,0,0-1.77-.51,2,2,0,0,0-.57.07,1.63,1.63,0,0,0-.44.2,1,1,0,0,0-.28.31,1,1,0,0,0-.1.41,1,1,0,0,0,.1.45,1,1,0,0,0,.29.33,2.31,2.31,0,0,0,.47.26l.62.25a8.42,8.42,0,0,1,.84.37,3.35,3.35,0,0,1,.62.42,1.53,1.53,0,0,1,.4.55,1.64,1.64,0,0,1,.14.73,1.72,1.72,0,0,1-.22.9,2,2,0,0,1-.62.64,2.68,2.68,0,0,1-.88.37,4.42,4.42,0,0,1-1,.13A4,4,0,0,1,193.16,166.65Z"/><path fill="#1e1e1e" d="M206.29,167.07a3.23,3.23,0,0,1-2.48-1,3.62,3.62,0,0,1-.93-2.6,3.75,3.75,0,0,1,1-2.75,3.46,3.46,0,0,1,2.6-1,3.16,3.16,0,0,1,2.45,1,3.83,3.83,0,0,1,.87,2.67,3.79,3.79,0,0,1-.94,2.69A3.33,3.33,0,0,1,206.29,167.07Zm.08-6.39a2.14,2.14,0,0,0-1.71.74,3,3,0,0,0-.63,2,2.81,2.81,0,0,0,.64,2,2.15,2.15,0,0,0,1.7.72,2,2,0,0,0,1.67-.7,3.06,3.06,0,0,0,.59-2,3.13,3.13,0,0,0-.59-2A2.06,2.06,0,0,0,206.37,160.68Z"/><path fill="#1e1e1e" d="M215,157.52a1.47,1.47,0,0,0-.74-.18c-.78,0-1.18.49-1.18,1.48v1.08h1.64v1H213.1v6H212v-6h-1.2v-1H212v-1.13a2.35,2.35,0,0,1,.63-1.74,2.16,2.16,0,0,1,1.59-.64,2.23,2.23,0,0,1,.81.12Z"/><path fill="#1e1e1e" d="M219.36,166.65v-1.2a3.31,3.31,0,0,0,2,.67c1,0,1.48-.33,1.48-1a.82.82,0,0,0-.13-.48,1.1,1.1,0,0,0-.34-.34,2.61,2.61,0,0,0-.5-.27l-.63-.25c-.31-.13-.58-.25-.82-.38a2.17,2.17,0,0,1-.58-.42,1.51,1.51,0,0,1-.36-.54,1.86,1.86,0,0,1-.12-.7,1.66,1.66,0,0,1,.23-.87,2,2,0,0,1,.6-.64,2.68,2.68,0,0,1,.86-.38,3.64,3.64,0,0,1,1-.13,4,4,0,0,1,1.63.31v1.14a3.17,3.17,0,0,0-1.78-.51,2,2,0,0,0-.57.07,1.56,1.56,0,0,0-.43.2.91.91,0,0,0-.28.31.83.83,0,0,0-.1.41.88.88,0,0,0,.1.45.83.83,0,0,0,.29.33,2.22,2.22,0,0,0,.46.26l.63.25a8.19,8.19,0,0,1,.83.37,3.13,3.13,0,0,1,.63.42,1.66,1.66,0,0,1,.4.55,1.79,1.79,0,0,1,.14.73,1.72,1.72,0,0,1-.23.9,2,2,0,0,1-.61.64,2.78,2.78,0,0,1-.88.37,4.51,4.51,0,0,1-1.05.13A3.94,3.94,0,0,1,219.36,166.65Z"/><path fill="#1e1e1e" d="M231.7,170.12h-1.12V165.7h0a2.52,2.52,0,0,1-2.39,1.37,2.66,2.66,0,0,1-2.12-.94,3.85,3.85,0,0,1-.8-2.56,4.2,4.2,0,0,1,.88-2.79,2.89,2.89,0,0,1,2.35-1,2.22,2.22,0,0,1,2.08,1.13h0v-1h1.12Zm-1.12-6.37v-1a2,2,0,0,0-.57-1.45,1.86,1.86,0,0,0-1.43-.6,1.93,1.93,0,0,0-1.6.75,3.35,3.35,0,0,0-.59,2.11,2.86,2.86,0,0,0,.57,1.89,1.81,1.81,0,0,0,1.46.69,2,2,0,0,0,1.57-.67A2.51,2.51,0,0,0,230.58,163.75Z"/><path fill="#1e1e1e" d="M241.26,157.52a1.53,1.53,0,0,0-.74-.18c-.79,0-1.18.49-1.18,1.48v1.08H241v1h-1.64v6h-1.11v-6H237v-1h1.2v-1.13a2.35,2.35,0,0,1,.63-1.74,2.13,2.13,0,0,1,1.59-.64,2.23,2.23,0,0,1,.81.12Z"/><path fill="#1e1e1e" d="M245.43,166.83a2.1,2.1,0,0,1-1.05.22c-1.22,0-1.83-.68-1.83-2.05v-4.14h-1.21v-1h1.21v-1.71l1.12-.36v2.07h1.76v1h-1.76v3.94a1.65,1.65,0,0,0,.24,1,1,1,0,0,0,.79.3,1.2,1.2,0,0,0,.73-.23Z"/><path fill="#1e1e1e" d="M247,169.13h-1a9.05,9.05,0,0,0,2.13-6,9.22,9.22,0,0,0-2.15-6.05h1a9,9,0,0,1,2.13,6.06A8.7,8.7,0,0,1,247,169.13Z"/></g><path fill="#1e1e1e" d="M178.86,22,180,24.13a5.43,5.43,0,0,0,.9,1.39.77.77,0,0,0,.51.17v.25h-3.56v-.25a1,1,0,0,0,.51-.11.22.22,0,0,0,.1-.2,1.52,1.52,0,0,0-.21-.6l-.56-1-.47.69a5.26,5.26,0,0,0-.36.56.56.56,0,0,0-.06.23.45.45,0,0,0,.07.27.34.34,0,0,0,.18.15,1,1,0,0,0,.41.05v.25h-2.5v-.25a1.51,1.51,0,0,0,.85-.25,5.37,5.37,0,0,0,1.12-1.35l.53-.77-1.1-2a5.19,5.19,0,0,0-.81-1.23,1,1,0,0,0-.59-.25v-.25h3.54v.25h-.19l-.35.12a.2.2,0,0,0-.06.16.52.52,0,0,0,0,.21s.08.16.19.37l.5.93.26-.37a2.39,2.39,0,0,0,.54-1.05.3.3,0,0,0-.11-.24.8.8,0,0,0-.43-.14v-.25h2.26v.25a1.48,1.48,0,0,0-.78.26,3.21,3.21,0,0,0-.81.94Z"/><path fill="#1e1e1e" d="M134.9,52.17l-2.06-4.73a5.79,5.79,0,0,0-.69-1.32,1.18,1.18,0,0,0-.53-.35v-.25H135v.25a.85.85,0,0,0-.47.13.35.35,0,0,0-.13.28,3.19,3.19,0,0,0,.34,1l1.09,2.5.75-1.93a5.11,5.11,0,0,0,.4-1.44.51.51,0,0,0-.17-.4.94.94,0,0,0-.59-.17v-.25h2.14v.25a.83.83,0,0,0-.51.25,6,6,0,0,0-.67,1.42l-1.82,4.73a9.8,9.8,0,0,1-1,2.19,1.47,1.47,0,0,1-1.18.57,1.29,1.29,0,0,1-.92-.32,1,1,0,0,1-.35-.78.92.92,0,0,1,.24-.66.79.79,0,0,1,.6-.26.71.71,0,0,1,.55.22,1,1,0,0,1,.22.68.59.59,0,0,0,.06.33.18.18,0,0,0,.15.08.51.51,0,0,0,.35-.2,4.13,4.13,0,0,0,.65-1.31Z"/><g><g><path fill="#1e1e1e" d="M188,62.48l-1.75-4.69-1.71,4.69h-.36l-1.7-4.63a5.23,5.23,0,0,0-.65-1.38,1,1,0,0,0-.52-.32V55.9h3.23v.25a.85.85,0,0,0-.46.1.28.28,0,0,0-.12.22,3.16,3.16,0,0,0,.22.7l.94,2.49.9-2.49L186,57a1.85,1.85,0,0,0-.36-.65.89.89,0,0,0-.47-.2V55.9h3.27v.25a.94.94,0,0,0-.48.11.3.3,0,0,0-.11.24,2.81,2.81,0,0,0,.2.67l.9,2.49.82-2.3a2.37,2.37,0,0,0,.18-.67.53.53,0,0,0-.13-.39.84.84,0,0,0-.5-.15V55.9h1.89v.25a.81.81,0,0,0-.5.23,3.41,3.41,0,0,0-.48,1l-1.79,5.08Z"/><path fill="#1e1e1e" d="M195.11,56.11h7.48V57h-7.48Zm0,2.24h7.48v.89h-7.48Z"/><path fill="#1e1e1e" d="M209.72,62.55l-2.07-4.74A5.88,5.88,0,0,0,207,56.5a1.12,1.12,0,0,0-.53-.35V55.9h3.39v.25a.85.85,0,0,0-.47.13.35.35,0,0,0-.13.28,3.19,3.19,0,0,0,.34,1l1.09,2.5.75-1.93a4.78,4.78,0,0,0,.4-1.44.51.51,0,0,0-.17-.4.94.94,0,0,0-.59-.17V55.9h2.14v.25a.83.83,0,0,0-.51.25,5.78,5.78,0,0,0-.66,1.41l-1.83,4.74a9.8,9.8,0,0,1-1,2.19,1.45,1.45,0,0,1-1.18.57,1.29,1.29,0,0,1-.92-.32,1,1,0,0,1-.35-.78.92.92,0,0,1,.24-.66.79.79,0,0,1,.6-.26.71.71,0,0,1,.55.22,1,1,0,0,1,.22.68.59.59,0,0,0,.06.33.18.18,0,0,0,.16.08.5.5,0,0,0,.34-.2,4.1,4.1,0,0,0,.65-1.32Z"/></g><line x1="208.23" x2="218.83" y1="72.9" y2="62.29" fill="none" stroke="#000"/><path fill="#1e1e1e" d="M220.67,72.75l1.11,2.11a5.58,5.58,0,0,0,.91,1.39.84.84,0,0,0,.51.17v.25h-3.56v-.25a1.15,1.15,0,0,0,.51-.11.23.23,0,0,0,.1-.2,1.5,1.5,0,0,0-.22-.61l-.55-1-.47.69a6.37,6.37,0,0,0-.37.56.68.68,0,0,0,0,.23.44.44,0,0,0,.07.26.37.37,0,0,0,.17.16,1.31,1.31,0,0,0,.42,0v.25h-2.51v-.25a1.42,1.42,0,0,0,.85-.26,5.23,5.23,0,0,0,1.13-1.34l.53-.78-1.1-2a5,5,0,0,0-.81-1.22,1.07,1.07,0,0,0-.6-.25v-.25h3.55v.25h-.19l-.35.12a.18.18,0,0,0-.06.16.88.88,0,0,0,0,.21l.2.37.49.93.26-.37a2.35,2.35,0,0,0,.55-1.06.31.31,0,0,0-.12-.24.87.87,0,0,0-.43-.13v-.25h2.27v.25a1.47,1.47,0,0,0-.78.25,3.69,3.69,0,0,0-.82.94Z"/></g></g></svg>