<svg xmlns="http://www.w3.org/2000/svg" viewBox="0 0 323.76 389.83">
  <title>model2</title>
  <g id="Shapes">
    <rect width="323.76" height="389.83" fill="#fff"/>
    <g>
      <rect y="19.83" width="323.76" height="234.94" fill="#fff"/>
      <rect y="19.83" width="323.76" height="234.94" fill="#0072c6" opacity="0.3"/>
    </g>
    <g>
      <path d="M63.13,124.83v-41a10,10,0,0,1,10-10h31.18" fill="none" stroke="#000" stroke-miterlimit="10"/>
      <polygon points="103.22 77.57 109.69 73.83 103.22 70.09 103.22 77.57"/>
    </g>
    <g>
      <path d="M111.41,213.11h-40a10,10,0,0,1-10-10v-32.9" fill="none" stroke="#000" stroke-miterlimit="10"/>
      <polygon points="65.15 171.31 61.41 164.83 57.67 171.31 65.15 171.31"/>
    </g>
    <g>
      <path d="M263.63,124.83v-41a10,10,0,0,0-10-10H221.45" fill="none" stroke="#000" stroke-miterlimit="10"/>
      <polygon points="222.54 70.09 216.07 73.83 222.54 77.57 222.54 70.09"/>
    </g>
    <g>
      <path d="M210.1,213.11h45.25a10,10,0,0,0,10-10v-32.9" fill="none" stroke="#000" stroke-miterlimit="10"/>
      <polygon points="269.09 171.31 265.35 164.83 261.61 171.31 269.09 171.31"/>
    </g>
    <rect x="108.64" y="194.83" width="105" height="40" fill="#ebebeb"/>
    <rect x="110.1" y="54.83" width="105" height="40" fill="#ebebeb"/>
    <g>
      <rect x="60.1" y="309.83" width="204.69" height="80" fill="#fff"/>
      <rect x="60.1" y="309.83" width="204.69" height="80" fill="#0072c6" opacity="0.3"/>
    </g>
    <rect x="109.95" y="334.83" width="105" height="40" fill="#ebebeb"/>
    <rect x="10.1" y="124.83" width="105" height="40" fill="#ebebeb"/>
    <rect x="205.1" y="124.83" width="105" height="40" fill="#ebebeb"/>
    <g>
      <line x1="162.45" y1="244.9" x2="162.45" y2="319.45" fill="none" stroke="#000" stroke-miterlimit="10"/>
      <polygon points="158.71 318.35 162.45 324.83 166.19 318.35 158.71 318.35"/>
    </g>
    <g>
      <rect x="57.41" y="178.12" width="7.7" height="14.19" fill="#fff"/>
      <rect x="57.41" y="178.12" width="7.7" height="14.19" fill="#0072c6" opacity="0.3"/>
    </g>
    <g>
      <rect x="261.41" y="178.12" width="7.7" height="14.19" fill="#fff"/>
      <rect x="261.41" y="178.12" width="7.7" height="14.19" fill="#0072c6" opacity="0.3"/>
    </g>
  </g>
  <g id="Text">
    <g>
      <path d="M5.48,9.28l-.64.64L.91,6.64,4.84,3.35,5.48,4,2.29,6.62Z"/>
      <path d="M12.39,5.92a7.2,7.2,0,0,1-.08,1,4,4,0,0,1-.28.94,3,3,0,0,1-.48.79,3,3,0,0,1-.74.6,3.6,3.6,0,0,1-1,.39,5.78,5.78,0,0,1-1.31.14H6.86V2.17h2a3.57,3.57,0,0,1,2.68.92A4,4,0,0,1,12.39,5.92ZM11.29,6a5.49,5.49,0,0,0-.15-1.38,2.13,2.13,0,0,0-.46-.9,1.78,1.78,0,0,0-.78-.5,3.31,3.31,0,0,0-1.1-.16H7.9V8.93h.78Q11.29,8.93,11.29,6Z"/>
      <path d="M17.35,9.83l0-.79a3.24,3.24,0,0,1-1,.68,2.65,2.65,0,0,1-1,.21,2.77,2.77,0,0,1-.87-.12,1.68,1.68,0,0,1-.58-.36,1.31,1.31,0,0,1-.34-.53,1.76,1.76,0,0,1-.11-.66,1.66,1.66,0,0,1,.66-1.39A3.22,3.22,0,0,1,16,6.37h1.21V5.86A1.11,1.11,0,0,0,16.9,5a1.43,1.43,0,0,0-1-.31,4.6,4.6,0,0,0-1,.11,6.07,6.07,0,0,0-1,.32V4.22a3.62,3.62,0,0,1,.43-.14,4.05,4.05,0,0,1,.5-.12,4.85,4.85,0,0,1,.55-.09,5.63,5.63,0,0,1,.58,0,3.5,3.5,0,0,1,1,.12,2,2,0,0,1,.73.36,1.58,1.58,0,0,1,.45.6,2,2,0,0,1,.16.85V9.83Zm-.12-2.68H15.94a2.54,2.54,0,0,0-.66.08,1.34,1.34,0,0,0-.45.21.94.94,0,0,0-.26.34,1,1,0,0,0-.08.44.88.88,0,0,0,0,.33.65.65,0,0,0,.17.27A.77.77,0,0,0,15,9a1.27,1.27,0,0,0,.46.07,2,2,0,0,0,.81-.21,3.77,3.77,0,0,0,.95-.68Z"/>
      <path d="M24.84,9.75a4.16,4.16,0,0,1-.72.12,6.06,6.06,0,0,1-.75,0,2.38,2.38,0,0,1-1.65-.5,2,2,0,0,1-.55-1.54V4.8H19.53V4h1.64V2.33l1-.26V4h2.65V4.8H22.19v3a1.26,1.26,0,0,0,.34,1,1.42,1.42,0,0,0,1,.31,4.59,4.59,0,0,0,.62,0c.22,0,.45-.08.7-.14Z"/>
      <path d="M30.27,9.83l0-.79a3.24,3.24,0,0,1-1,.68,2.65,2.65,0,0,1-1,.21,2.7,2.7,0,0,1-.86-.12,1.64,1.64,0,0,1-.59-.36,1.31,1.31,0,0,1-.34-.53,2,2,0,0,1-.11-.66A1.66,1.66,0,0,1,27,6.87a3.22,3.22,0,0,1,2-.5h1.22V5.86A1.08,1.08,0,0,0,29.82,5a1.43,1.43,0,0,0-1-.31,4.6,4.6,0,0,0-1,.11,6.39,6.39,0,0,0-1,.32V4.22l.43-.14a4.05,4.05,0,0,1,.5-.12,4.68,4.68,0,0,1,.56-.09,5.49,5.49,0,0,1,.58,0,3.6,3.6,0,0,1,1,.12,2,2,0,0,1,.72.36,1.49,1.49,0,0,1,.45.6,2,2,0,0,1,.16.85V9.83Zm-.11-2.68h-1.3a2.46,2.46,0,0,0-.65.08,1.31,1.31,0,0,0-.46.21,1.06,1.06,0,0,0-.26.34,1.23,1.23,0,0,0-.08.44,1.14,1.14,0,0,0,.05.33.77.77,0,0,0,.17.27.74.74,0,0,0,.31.19,1.18,1.18,0,0,0,.45.07,2,2,0,0,0,.81-.21,4,4,0,0,0,1-.68Z"/>
      <path d="M38.29,2.17l-2.6,7.66H34.28L31.74,2.17h1.17l1.66,5.16L35,8.84l.48-1.51,1.65-5.16Z"/>
      <path d="M40.93,4.79H39.19V4H42V9h1.75v.85H39V9h1.93Zm.36-3.31a.81.81,0,0,1,.57.23A.9.9,0,0,1,42,2a.83.83,0,0,1,0,.62.79.79,0,0,1-.74.49A.83.83,0,0,1,41,3a.74.74,0,0,1-.25-.17.65.65,0,0,1-.17-.26.83.83,0,0,1,0-.62A.78.78,0,0,1,41,1.54.83.83,0,0,1,41.29,1.48Z"/>
      <path d="M50.17,6.58v.36c0,.1,0,.19,0,.28H46a1.8,1.8,0,0,0,.5,1.38A2,2,0,0,0,48,9.08a4.43,4.43,0,0,0,.52,0L49,9l.46-.08.4-.1v.84a6.76,6.76,0,0,1-.94.19,7.64,7.64,0,0,1-1.08.07,3.59,3.59,0,0,1-1.3-.2,2.3,2.3,0,0,1-.9-.6,2.35,2.35,0,0,1-.51-1A4.56,4.56,0,0,1,45,6.9a3.83,3.83,0,0,1,.18-1.18,3,3,0,0,1,.52-1,2.47,2.47,0,0,1,.84-.66,2.44,2.44,0,0,1,1.13-.25A3,3,0,0,1,48.71,4a2.2,2.2,0,0,1,.8.55,2.36,2.36,0,0,1,.49.86A3.41,3.41,0,0,1,50.17,6.58Zm-1.06-.15A2.1,2.1,0,0,0,49,5.71a1.43,1.43,0,0,0-.29-.56,1.44,1.44,0,0,0-.48-.36,1.65,1.65,0,0,0-.68-.13,1.48,1.48,0,0,0-.61.12,1.35,1.35,0,0,0-.48.37,1.79,1.79,0,0,0-.32.56,2.71,2.71,0,0,0-.15.72Z"/>
      <path d="M57.34,4l-.85,5.88H55.25L54.4,7.37l-.17-.6L54,7.4l-.82,2.43H52L51.17,4h1l.49,4,.1.89L53,8.05l.85-2.64h.73L55.52,8l.27.78L55.88,8l.45-4Z"/>
      <path d="M62.67,1.55l-4,9.54h-1l4-9.54Z"/>
      <path d="M63.71,4l.64-.65,3.93,3.29L64.35,9.92l-.64-.64,3.2-2.63Z"/>
    </g>
    <g>
      <path d="M130,109.28l-.64.64-3.94-3.28,3.94-3.29.64.65-3.2,2.62Z"/>
      <path d="M133.28,103.05h-1.77v-.88h4.58v.88h-1.76v5.89h1.76v.89h-4.58v-.89h1.77Z"/>
      <path d="M142.89,105.92a6,6,0,0,1-.08,1,4.47,4.47,0,0,1-.27.94,3.37,3.37,0,0,1-.49.79,2.89,2.89,0,0,1-.73.6,3.66,3.66,0,0,1-1,.39,5.72,5.72,0,0,1-1.31.14h-1.64v-7.66h2a3.56,3.56,0,0,1,2.67.92A4,4,0,0,1,142.89,105.92Zm-1.09.07a5.49,5.49,0,0,0-.15-1.38,2.26,2.26,0,0,0-.47-.9,1.67,1.67,0,0,0-.78-.5,3.31,3.31,0,0,0-1.1-.16h-.89v5.88h.78Q141.8,108.93,141.8,106Z"/>
      <path d="M147.85,109.83l0-.79a3.28,3.28,0,0,1-1,.68,2.65,2.65,0,0,1-1,.21,2.7,2.7,0,0,1-.86-.12,1.64,1.64,0,0,1-.59-.36,1.42,1.42,0,0,1-.34-.53,2,2,0,0,1-.11-.66,1.66,1.66,0,0,1,.66-1.39,3.22,3.22,0,0,1,2-.5h1.22v-.51a1.08,1.08,0,0,0-.34-.84,1.43,1.43,0,0,0-1-.31,4.67,4.67,0,0,0-1,.11,6.39,6.39,0,0,0-1,.32v-.92l.43-.14a3.81,3.81,0,0,1,.51-.12,4.51,4.51,0,0,1,.55-.09,5.49,5.49,0,0,1,.58,0,3.6,3.6,0,0,1,1,.12,2,2,0,0,1,.72.36,1.61,1.61,0,0,1,.46.6,2.22,2.22,0,0,1,.15.85v4.06Zm-.11-2.68h-1.3a2.46,2.46,0,0,0-.65.08,1.18,1.18,0,0,0-.45.21.84.84,0,0,0-.26.34,1,1,0,0,0-.09.44,1.14,1.14,0,0,0,0,.33.77.77,0,0,0,.17.27.74.74,0,0,0,.31.19,1.18,1.18,0,0,0,.45.07,2,2,0,0,0,.81-.21,4,4,0,0,0,1-.68Z"/>
      <path d="M155.34,109.75a4.21,4.21,0,0,1-.71.12,6.28,6.28,0,0,1-.75,0,2.42,2.42,0,0,1-1.66-.5,2,2,0,0,1-.54-1.54V104.8H150V104h1.65v-1.62l1-.26V104h2.64v.85H152.7v3a1.23,1.23,0,0,0,.34.95,1.38,1.38,0,0,0,1,.31,4.45,4.45,0,0,0,.61,0,6.19,6.19,0,0,0,.7-.14Z"/>
      <path d="M160.77,109.83l0-.79a3.28,3.28,0,0,1-1,.68,2.61,2.61,0,0,1-1,.21,2.75,2.75,0,0,1-.86-.12,1.73,1.73,0,0,1-.59-.36,1.55,1.55,0,0,1-.34-.53,2,2,0,0,1-.11-.66,1.66,1.66,0,0,1,.66-1.39,3.22,3.22,0,0,1,1.95-.5h1.22v-.51a1.11,1.11,0,0,0-.33-.84,1.47,1.47,0,0,0-1-.31,4.6,4.6,0,0,0-1,.11,5.78,5.78,0,0,0-1,.32v-.92a6.1,6.1,0,0,1,.93-.26,4.51,4.51,0,0,1,.55-.09,5.49,5.49,0,0,1,.58,0,3.5,3.5,0,0,1,1,.12,1.87,1.87,0,0,1,.72.36,1.61,1.61,0,0,1,.46.6,2.22,2.22,0,0,1,.16.85v4.06Zm-.11-2.68h-1.29a2.48,2.48,0,0,0-.66.08,1.34,1.34,0,0,0-.45.21.84.84,0,0,0-.26.34,1,1,0,0,0-.09.44.88.88,0,0,0,.06.33.65.65,0,0,0,.17.27.7.7,0,0,0,.3.19,1.27,1.27,0,0,0,.46.07,1.94,1.94,0,0,0,.8-.21,3.63,3.63,0,0,0,1-.68Z"/>
      <path d="M168.79,102.17l-2.6,7.66h-1.41l-2.54-7.66h1.18l1.65,5.16.47,1.51.48-1.51,1.66-5.16Z"/>
      <path d="M171.43,104.79h-1.74V104h2.78v5h1.75v.85H169.5V109h1.93Zm.36-3.31a.83.83,0,0,1,.32.06.78.78,0,0,1,.42.43.72.72,0,0,1,0,.62.65.65,0,0,1-.17.26.74.74,0,0,1-.25.17.83.83,0,0,1-.32.06.81.81,0,0,1-.74-1.11.9.9,0,0,1,.17-.26.81.81,0,0,1,.57-.23Z"/>
      <path d="M180.68,106.58c0,.14,0,.26,0,.36a2.46,2.46,0,0,1,0,.28h-4.13a1.8,1.8,0,0,0,.51,1.38,2,2,0,0,0,1.45.48,4.35,4.35,0,0,0,.51,0l.5,0,.46-.08.41-.1v.84a7.08,7.08,0,0,1-.94.19,7.68,7.68,0,0,1-1.09.07,3.63,3.63,0,0,1-1.3-.2,2.26,2.26,0,0,1-.89-.6,2.36,2.36,0,0,1-.52-.95,4.57,4.57,0,0,1-.16-1.28,4.16,4.16,0,0,1,.17-1.18,3,3,0,0,1,.53-1,2.29,2.29,0,0,1,.84-.66,2.44,2.44,0,0,1,1.13-.25,3.07,3.07,0,0,1,1.09.19,2.38,2.38,0,0,1,.8.55,2.51,2.51,0,0,1,.49.86A3.69,3.69,0,0,1,180.68,106.58Zm-1.06-.15a2.38,2.38,0,0,0-.08-.72,1.57,1.57,0,0,0-.29-.56,1.39,1.39,0,0,0-.49-.36,1.62,1.62,0,0,0-.68-.13,1.51,1.51,0,0,0-.61.12,1.4,1.4,0,0,0-.47.37,1.8,1.8,0,0,0-.33.56,2.71,2.71,0,0,0-.15.72Z"/>
      <path d="M187.85,104l-.86,5.88h-1.24l-.85-2.46-.17-.6-.19.63-.81,2.43h-1.21l-.84-5.88h1l.49,4,.11.89.25-.78.86-2.64h.73L186,108l.26.78.09-.83.46-4Z"/>
      <path d="M193.17,101.55l-4,9.54h-1l4-9.54Z"/>
      <path d="M194.22,104l.63-.65,3.94,3.29-3.94,3.28-.63-.64,3.19-2.63Z"/>
    </g>
    <g>
      <path d="M20.48,189.28l-.64.64-3.93-3.28,3.93-3.29.64.65-3.19,2.62Z"/>
      <path d="M23.81,183.05H22.05v-.88h4.58v.88H24.87v5.89h1.76v.89H22.05v-.89h1.76Z"/>
      <path d="M33.43,183.06H31.16v6.77H30.1v-6.77H27.84v-.89h5.59Z"/>
      <path d="M34,184h.93l0,1.08a3.8,3.8,0,0,1,1-.91,2.07,2.07,0,0,1,1-.28,1.68,1.68,0,0,1,1.39.59,2.7,2.7,0,0,1,.44,1.76h-1a1.93,1.93,0,0,0-.23-1.12.82.82,0,0,0-.71-.35,1.23,1.23,0,0,0-.42.07A1.66,1.66,0,0,0,36,185a3.26,3.26,0,0,0-.47.41c-.16.17-.34.37-.53.61v3.78H34Z"/>
      <path d="M43.82,189.83l0-.79a3.24,3.24,0,0,1-1,.68,2.65,2.65,0,0,1-1,.21,2.7,2.7,0,0,1-.86-.12,1.64,1.64,0,0,1-.59-.36,1.31,1.31,0,0,1-.34-.53,2,2,0,0,1-.11-.66,1.66,1.66,0,0,1,.66-1.39,3.22,3.22,0,0,1,2-.5h1.22v-.51a1.08,1.08,0,0,0-.34-.84,1.43,1.43,0,0,0-1-.31,4.6,4.6,0,0,0-1,.11,6.39,6.39,0,0,0-1,.32v-.92l.43-.14a4.05,4.05,0,0,1,.5-.12,4.68,4.68,0,0,1,.56-.09,5.49,5.49,0,0,1,.58,0,3.6,3.6,0,0,1,1,.12,2,2,0,0,1,.72.36,1.49,1.49,0,0,1,.45.6,2,2,0,0,1,.16.85v4.06Zm-.11-2.68h-1.3a2.46,2.46,0,0,0-.65.08,1.31,1.31,0,0,0-.46.21,1.06,1.06,0,0,0-.26.34,1.23,1.23,0,0,0-.08.44,1.14,1.14,0,0,0,0,.33.77.77,0,0,0,.17.27.74.74,0,0,0,.31.19,1.18,1.18,0,0,0,.45.07,2,2,0,0,0,.81-.21,4,4,0,0,0,1-.68Z"/>
      <path d="M46.6,184h.91l0,1a3.47,3.47,0,0,1,.5-.51,3.12,3.12,0,0,1,.47-.33,1.66,1.66,0,0,1,.47-.17,2.73,2.73,0,0,1,.5,0,1.71,1.71,0,0,1,1.37.54,2.38,2.38,0,0,1,.47,1.61v3.84h-1v-3.76a1.66,1.66,0,0,0-.26-1,.92.92,0,0,0-.77-.33,1.13,1.13,0,0,0-.36.06,1.09,1.09,0,0,0-.37.19,2.65,2.65,0,0,0-.42.37c-.15.16-.32.35-.51.59v3.9h-1Z"/>
      <path d="M57.57,188.22a1.42,1.42,0,0,1-.4,1,1.94,1.94,0,0,1-.42.32,2.31,2.31,0,0,1-.51.22,2.68,2.68,0,0,1-.56.13,3.6,3.6,0,0,1-.56,0,9.36,9.36,0,0,1-1.1-.05,6.48,6.48,0,0,1-1-.17v-.94a7.48,7.48,0,0,0,1,.23,7,7,0,0,0,1,.07,2.16,2.16,0,0,0,1.08-.2.6.6,0,0,0,.35-.56.88.88,0,0,0,0-.29.75.75,0,0,0-.21-.24,2.18,2.18,0,0,0-.45-.24c-.2-.08-.48-.17-.84-.28a6.38,6.38,0,0,1-.74-.26,2.58,2.58,0,0,1-.58-.36,1.79,1.79,0,0,1-.39-.48,1.45,1.45,0,0,1-.14-.65,1.47,1.47,0,0,1,.12-.54,1.31,1.31,0,0,1,.39-.54,2.09,2.09,0,0,1,.74-.42,3.57,3.57,0,0,1,1.17-.17,8.76,8.76,0,0,1,1.65.17v.91a6.55,6.55,0,0,0-.91-.17,5.6,5.6,0,0,0-.75-.06,2.9,2.9,0,0,0-.64.06,1.36,1.36,0,0,0-.42.16.58.58,0,0,0-.23.24.6.6,0,0,0-.07.3.64.64,0,0,0,.06.28.67.67,0,0,0,.23.25,2.13,2.13,0,0,0,.46.24,7.83,7.83,0,0,0,.78.26,6.19,6.19,0,0,1,.88.32,2.42,2.42,0,0,1,.58.37,1.2,1.2,0,0,1,.32.47A1.5,1.5,0,0,1,57.57,188.22Z"/>
      <path d="M64.46,182.5a7.15,7.15,0,0,0-1.39-.17c-.91,0-1.37.48-1.37,1.44v1h2.57v.85H61.7v4.18h-1v-4.18H58.77v-.85h1.89v-1c0-1.57.82-2.35,2.45-2.35a7.65,7.65,0,0,1,1.35.14Z"/>
      <path d="M71,186.84a3.87,3.87,0,0,1-.19,1.26,3,3,0,0,1-.56,1,2.54,2.54,0,0,1-.88.63,3,3,0,0,1-1.19.22,3.08,3.08,0,0,1-1.13-.19,2.12,2.12,0,0,1-.85-.58,2.53,2.53,0,0,1-.53-.94,4,4,0,0,1-.19-1.3,4.15,4.15,0,0,1,.19-1.25,2.81,2.81,0,0,1,.56-1,2.48,2.48,0,0,1,.89-.63,2.92,2.92,0,0,1,1.18-.23,3.08,3.08,0,0,1,1.13.2,2.2,2.2,0,0,1,.85.57,2.55,2.55,0,0,1,.54.94A4.28,4.28,0,0,1,71,186.84Zm-1,0a3.33,3.33,0,0,0-.12-.95,2,2,0,0,0-.34-.68,1.31,1.31,0,0,0-.55-.41,1.64,1.64,0,0,0-.71-.14,1.61,1.61,0,0,0-.78.18,1.51,1.51,0,0,0-.53.47,2.13,2.13,0,0,0-.31.7,3.7,3.7,0,0,0-.1.83,3.38,3.38,0,0,0,.12,1,2,2,0,0,0,.35.69,1.55,1.55,0,0,0,.54.41,1.8,1.8,0,0,0,.71.13,1.55,1.55,0,0,0,.78-.18,1.44,1.44,0,0,0,.54-.47,1.93,1.93,0,0,0,.3-.7A3.2,3.2,0,0,0,69.93,186.89Z"/>
      <path d="M72.61,184h.93l0,1.08a3.8,3.8,0,0,1,1-.91,2.07,2.07,0,0,1,1-.28,1.68,1.68,0,0,1,1.39.59,2.7,2.7,0,0,1,.44,1.76h-1a1.86,1.86,0,0,0-.22-1.12.82.82,0,0,0-.71-.35,1.23,1.23,0,0,0-.42.07,1.66,1.66,0,0,0-.42.24,2.81,2.81,0,0,0-.47.41c-.16.17-.34.37-.53.61v3.78h-1Z"/>
      <path d="M83.27,189.83V185.6a3,3,0,0,0,0-.45.83.83,0,0,0-.06-.27.37.37,0,0,0-.11-.15.33.33,0,0,0-.17,0,.36.36,0,0,0-.22.07,1,1,0,0,0-.21.23,2.44,2.44,0,0,0-.25.42c-.1.17-.2.39-.33.64v3.78H81v-4.11c0-.22,0-.39,0-.53a1.61,1.61,0,0,0-.07-.31.3.3,0,0,0-.11-.15.31.31,0,0,0-.17,0,.36.36,0,0,0-.2.06,1,1,0,0,0-.21.21,3.31,3.31,0,0,0-.25.42c-.1.17-.21.4-.34.67v3.78h-.93V184h.78l0,1.12a3.69,3.69,0,0,1,.3-.57,1.51,1.51,0,0,1,.29-.38,1,1,0,0,1,.71-.28.85.85,0,0,1,.72.31,1.51,1.51,0,0,1,.25,1c.09-.2.19-.38.28-.54a1.79,1.79,0,0,1,.29-.4.88.88,0,0,1,.34-.24,1,1,0,0,1,.43-.09q1.11,0,1.11,1.71v4.28Z"/>
      <path d="M90.82,186.58c0,.14,0,.26,0,.36s0,.19,0,.28H86.66a1.8,1.8,0,0,0,.51,1.38,2,2,0,0,0,1.45.48,4.52,4.52,0,0,0,.52,0l.5-.05.46-.08.4-.1v.84a6.76,6.76,0,0,1-.94.19,7.64,7.64,0,0,1-1.08.07,3.68,3.68,0,0,1-1.31-.2,2.26,2.26,0,0,1-.89-.6,2.35,2.35,0,0,1-.51-.95,4.22,4.22,0,0,1-.17-1.28,3.83,3.83,0,0,1,.18-1.18,3,3,0,0,1,.52-1,2.47,2.47,0,0,1,.84-.66,2.44,2.44,0,0,1,1.13-.25,3.07,3.07,0,0,1,1.09.19,2.28,2.28,0,0,1,.8.55,2.36,2.36,0,0,1,.49.86A3.69,3.69,0,0,1,90.82,186.58Zm-1.06-.15a2.1,2.1,0,0,0-.08-.72,1.57,1.57,0,0,0-.29-.56,1.39,1.39,0,0,0-.49-.36,1.59,1.59,0,0,0-.68-.13,1.54,1.54,0,0,0-.61.12,1.4,1.4,0,0,0-.47.37,1.79,1.79,0,0,0-.32.56,2.71,2.71,0,0,0-.16.72Z"/>
      <path d="M92.54,184h.93l0,1.08a3.8,3.8,0,0,1,1-.91,2.07,2.07,0,0,1,1-.28,1.69,1.69,0,0,1,1.39.59,2.65,2.65,0,0,1,.43,1.76h-1a1.86,1.86,0,0,0-.22-1.12.82.82,0,0,0-.71-.35,1.23,1.23,0,0,0-.42.07,1.5,1.5,0,0,0-.42.24,2.81,2.81,0,0,0-.47.41c-.16.17-.34.37-.53.61v3.78h-1Z"/>
      <path d="M102.56,181.55l-4,9.54h-1l4-9.54Z"/>
      <path d="M103.6,184l.63-.65,3.94,3.29-3.94,3.28-.63-.64,3.19-2.63Z"/>
    </g>
    <g>
      <path d="M61.51,269.78l-.64.64-3.93-3.28,3.93-3.29.64.65-3.19,2.62Z"/>
      <path d="M68,268.25a2.06,2.06,0,0,1-.22,1,2,2,0,0,1-.63.68,2.84,2.84,0,0,1-1,.41,5.36,5.36,0,0,1-1.24.13c-.2,0-.4,0-.6,0a4.93,4.93,0,0,1-.58-.06l-.53-.08a4.13,4.13,0,0,1-.44-.1v-1a5.17,5.17,0,0,0,1,.26,7.8,7.8,0,0,0,1.25.09,4.33,4.33,0,0,0,.86-.07,2,2,0,0,0,.58-.24.92.92,0,0,0,.33-.38,1.36,1.36,0,0,0,.1-.51.83.83,0,0,0-.18-.53,1.76,1.76,0,0,0-.45-.39,5.45,5.45,0,0,0-.64-.32l-.74-.29c-.25-.1-.49-.21-.73-.33a3,3,0,0,1-.64-.42,2.14,2.14,0,0,1-.46-.58,1.67,1.67,0,0,1-.17-.78,1.88,1.88,0,0,1,.67-1.45,2.77,2.77,0,0,1,.89-.47,4.1,4.1,0,0,1,1.29-.18h.42l.46.05.46.08.42.08v.94a7.77,7.77,0,0,0-.91-.19,5.27,5.27,0,0,0-.87-.07,2.3,2.3,0,0,0-1.32.3.93.93,0,0,0-.42.8.86.86,0,0,0,.17.53,1.82,1.82,0,0,0,.46.4,3.82,3.82,0,0,0,.64.32l.73.3c.25.1.5.21.74.33a2.87,2.87,0,0,1,.64.43,1.93,1.93,0,0,1,.45.58A1.67,1.67,0,0,1,68,268.25Z"/>
      <path d="M73.1,270.33l0-.79a3.28,3.28,0,0,1-1,.68,2.65,2.65,0,0,1-1,.21,2.75,2.75,0,0,1-.86-.12,1.73,1.73,0,0,1-.59-.36,1.42,1.42,0,0,1-.34-.53,2,2,0,0,1-.11-.66,1.66,1.66,0,0,1,.66-1.39,3.22,3.22,0,0,1,2-.5H73v-.51a1.11,1.11,0,0,0-.33-.84,1.47,1.47,0,0,0-1-.31,4.69,4.69,0,0,0-1,.11,6,6,0,0,0-1,.32v-.92a3.11,3.11,0,0,1,.43-.14,3.33,3.33,0,0,1,.5-.12,4.51,4.51,0,0,1,.55-.09,5.49,5.49,0,0,1,.58,0,3.6,3.6,0,0,1,1,.12,2,2,0,0,1,.72.36,1.61,1.61,0,0,1,.46.6,2.22,2.22,0,0,1,.15.85v4.06ZM73,267.65h-1.3a2.46,2.46,0,0,0-.65.08,1.18,1.18,0,0,0-.45.21.84.84,0,0,0-.26.34,1,1,0,0,0-.09.44,1.14,1.14,0,0,0,.05.33,1,1,0,0,0,.17.27.74.74,0,0,0,.31.19,1.24,1.24,0,0,0,.46.07,1.94,1.94,0,0,0,.8-.21,4,4,0,0,0,1-.68Z"/>
      <path d="M75,264.45h1.16l1.44,3.89.31,1,.32-1,1.43-3.86h1.12l-2.31,5.88H77.31Z"/>
      <path d="M86.72,267.08c0,.14,0,.26,0,.36a2.46,2.46,0,0,1,0,.28H82.56a1.84,1.84,0,0,0,.5,1.38,2.06,2.06,0,0,0,1.46.48,4.35,4.35,0,0,0,.51,0l.5-.05.46-.08.41-.1v.84a7.08,7.08,0,0,1-.94.19,7.68,7.68,0,0,1-1.09.07,3.63,3.63,0,0,1-1.3-.2,2.28,2.28,0,0,1-1.41-1.55,4.56,4.56,0,0,1-.17-1.28,3.83,3.83,0,0,1,.18-1.18,3.23,3.23,0,0,1,.52-1,2.54,2.54,0,0,1,2-.91,3.07,3.07,0,0,1,1.09.19,2.38,2.38,0,0,1,.8.55,2.51,2.51,0,0,1,.49.86A3.69,3.69,0,0,1,86.72,267.08Zm-1.07-.15a2.1,2.1,0,0,0-.07-.72,1.57,1.57,0,0,0-.29-.56,1.48,1.48,0,0,0-.49-.36,1.62,1.62,0,0,0-.68-.13,1.51,1.51,0,0,0-.61.12,1.4,1.4,0,0,0-.47.37,1.8,1.8,0,0,0-.33.56,2.71,2.71,0,0,0-.15.72Z"/>
      <path d="M98.72,270.33l0-.79a3.28,3.28,0,0,1-1,.68,2.61,2.61,0,0,1-1,.21,2.75,2.75,0,0,1-.86-.12,1.73,1.73,0,0,1-.59-.36,1.42,1.42,0,0,1-.34-.53,2,2,0,0,1-.11-.66,1.66,1.66,0,0,1,.66-1.39,3.22,3.22,0,0,1,2-.5h1.22v-.51a1.11,1.11,0,0,0-.33-.84,1.47,1.47,0,0,0-1-.31,4.69,4.69,0,0,0-1,.11,6,6,0,0,0-1,.32v-.92a3.11,3.11,0,0,1,.43-.14,3.33,3.33,0,0,1,.5-.12,4.51,4.51,0,0,1,.55-.09,5.49,5.49,0,0,1,.58,0,3.6,3.6,0,0,1,1,.12,2,2,0,0,1,.72.36,1.61,1.61,0,0,1,.46.6,2.22,2.22,0,0,1,.16.85v4.06Zm-.11-2.68h-1.3a2.46,2.46,0,0,0-.65.08,1.18,1.18,0,0,0-.45.21.84.84,0,0,0-.26.34,1,1,0,0,0-.09.44,1.14,1.14,0,0,0,0,.33,1,1,0,0,0,.17.27.74.74,0,0,0,.31.19,1.24,1.24,0,0,0,.46.07,1.94,1.94,0,0,0,.8-.21,4,4,0,0,0,1-.68Z"/>
      <path d="M101.38,264.45h.91l0,.95a3.47,3.47,0,0,1,.5-.51,3.12,3.12,0,0,1,.47-.33,1.78,1.78,0,0,1,.47-.17,2.73,2.73,0,0,1,.5-.05,1.72,1.72,0,0,1,1.38.54,2.38,2.38,0,0,1,.46,1.61v3.84h-1v-3.76a1.6,1.6,0,0,0-.26-1,.9.9,0,0,0-.76-.33,1.15,1.15,0,0,0-.37.06,1.19,1.19,0,0,0-.37.19,2.65,2.65,0,0,0-.42.37c-.15.16-.32.35-.51.59v3.9h-1Z"/>
      <path d="M107.56,267.51a3.91,3.91,0,0,1,.21-1.33,2.85,2.85,0,0,1,.58-1,2.6,2.6,0,0,1,.91-.61,3.4,3.4,0,0,1,1.18-.2,5.25,5.25,0,0,1,.56,0,3.12,3.12,0,0,1,.53.11v-2.47h1v8.28h-.92l0-1.11a3.23,3.23,0,0,1-.93.92,2.13,2.13,0,0,1-1.08.29,1.76,1.76,0,0,1-1.52-.8,3,3,0,0,1-.39-.92A5.52,5.52,0,0,1,107.56,267.51Zm1-.06a3.17,3.17,0,0,0,.31,1.59,1,1,0,0,0,.89.52,1.33,1.33,0,0,0,.82-.34,5.4,5.4,0,0,0,.9-1v-2.73a2.3,2.3,0,0,0-.56-.18,3.05,3.05,0,0,0-.6-.06,1.63,1.63,0,0,0-1.3.54A2.55,2.55,0,0,0,108.61,267.45Z"/>
      <path d="M125.89,270.33h-4.4v-7.66h1.06v6.77h3.34Z"/>
      <path d="M132.32,267.34a3.87,3.87,0,0,1-.2,1.26,2.77,2.77,0,0,1-.55,1,2.48,2.48,0,0,1-.89.63,2.92,2.92,0,0,1-1.18.22,3.08,3.08,0,0,1-1.13-.19,2.12,2.12,0,0,1-.85-.58,2.55,2.55,0,0,1-.54-.94,4.3,4.3,0,0,1-.18-1.3,3.86,3.86,0,0,1,.19-1.25,2.81,2.81,0,0,1,.56-1,2.54,2.54,0,0,1,.88-.63,3,3,0,0,1,1.19-.23,3.08,3.08,0,0,1,1.13.2,2.28,2.28,0,0,1,.85.57,2.53,2.53,0,0,1,.53.94A4,4,0,0,1,132.32,267.34Zm-1,.05a3.33,3.33,0,0,0-.12-.95,1.81,1.81,0,0,0-.34-.68,1.34,1.34,0,0,0-.54-.41,1.64,1.64,0,0,0-.71-.14,1.55,1.55,0,0,0-.78.18,1.64,1.64,0,0,0-.54.47,1.93,1.93,0,0,0-.3.7,3.2,3.2,0,0,0-.1.83,3.38,3.38,0,0,0,.12.95,2.12,2.12,0,0,0,.34.69,1.55,1.55,0,0,0,.54.41,1.81,1.81,0,0,0,.72.13,1.61,1.61,0,0,0,.78-.18,1.41,1.41,0,0,0,.53-.47,2.13,2.13,0,0,0,.31-.7A3.7,3.7,0,0,0,131.27,267.39Z"/>
      <path d="M137.4,270.33l0-.79a3.24,3.24,0,0,1-1,.68,2.65,2.65,0,0,1-1,.21,2.7,2.7,0,0,1-.86-.12,1.64,1.64,0,0,1-.59-.36,1.31,1.31,0,0,1-.34-.53,2,2,0,0,1-.11-.66,1.66,1.66,0,0,1,.66-1.39,3.22,3.22,0,0,1,1.95-.5h1.22v-.51a1.08,1.08,0,0,0-.34-.84,1.43,1.43,0,0,0-1-.31,4.6,4.6,0,0,0-1,.11,6.39,6.39,0,0,0-1,.32v-.92l.43-.14a4.05,4.05,0,0,1,.5-.12,4.68,4.68,0,0,1,.56-.09,5.49,5.49,0,0,1,.58,0,3.6,3.6,0,0,1,1,.12,2,2,0,0,1,.72.36,1.49,1.49,0,0,1,.45.6,2,2,0,0,1,.16.85v4.06Zm-.11-2.68H136a2.46,2.46,0,0,0-.65.08,1.31,1.31,0,0,0-.46.21,1.06,1.06,0,0,0-.26.34,1.23,1.23,0,0,0-.08.44,1.14,1.14,0,0,0,.05.33.77.77,0,0,0,.17.27.74.74,0,0,0,.31.19,1.18,1.18,0,0,0,.45.07,2,2,0,0,0,.81-.21,4,4,0,0,0,1-.68Z"/>
      <path d="M139.78,267.51a3.91,3.91,0,0,1,.21-1.33,2.7,2.7,0,0,1,.58-1,2.6,2.6,0,0,1,.91-.61,3.4,3.4,0,0,1,1.18-.2,4.93,4.93,0,0,1,.55,0,3.45,3.45,0,0,1,.54.11v-2.47h1v8.28h-.91l0-1.11a3.23,3.23,0,0,1-.93.92,2.13,2.13,0,0,1-1.08.29,1.73,1.73,0,0,1-1.52-.8,3,3,0,0,1-.39-.92A5.52,5.52,0,0,1,139.78,267.51Zm1.05-.06a3.17,3.17,0,0,0,.31,1.59,1,1,0,0,0,.89.52,1.31,1.31,0,0,0,.81-.34,5.08,5.08,0,0,0,.91-1v-2.73a2.3,2.3,0,0,0-.56-.18,3.05,3.05,0,0,0-.6-.06,1.62,1.62,0,0,0-1.3.54A2.55,2.55,0,0,0,140.83,267.45Z"/>
      <path d="M150.78,262.05l-4,9.54h-1l4-9.54Z"/>
      <path d="M151.71,264.5l.63-.65,3.94,3.29-3.94,3.28-.63-.64,3.19-2.63Z"/>
    </g>
    <g>
      <path d="M175.48,299.28l-.64.64-3.93-3.28,3.93-3.29.64.65-3.19,2.62Z"/>
      <path d="M178.69,293.05h-1.76v-.88h4.58v.88h-1.76v5.89h1.76v.89h-4.58v-.89h1.76Z"/>
      <path d="M188.19,293.06h-2.27v6.77h-1.06v-6.77H182.6v-.89h5.59Z"/>
      <path d="M188.62,294h.93l0,1.08a3.8,3.8,0,0,1,1-.91,2.07,2.07,0,0,1,1-.28,1.68,1.68,0,0,1,1.39.59,2.7,2.7,0,0,1,.44,1.76h-1a1.93,1.93,0,0,0-.23-1.12.82.82,0,0,0-.71-.35,1.14,1.14,0,0,0-.41.07,1.55,1.55,0,0,0-.43.24,3.26,3.26,0,0,0-.47.41c-.16.17-.34.37-.53.61v3.78h-1Z"/>
      <path d="M198.34,299.83l0-.79a3.24,3.24,0,0,1-1,.68,2.65,2.65,0,0,1-1,.21,2.7,2.7,0,0,1-.86-.12,1.64,1.64,0,0,1-.59-.36,1.31,1.31,0,0,1-.34-.53,2,2,0,0,1-.11-.66,1.66,1.66,0,0,1,.66-1.39,3.22,3.22,0,0,1,1.95-.5h1.22v-.51a1.08,1.08,0,0,0-.34-.84,1.43,1.43,0,0,0-1-.31,4.6,4.6,0,0,0-1,.11,6.39,6.39,0,0,0-1,.32v-.92l.43-.14a4.05,4.05,0,0,1,.5-.12,4.68,4.68,0,0,1,.56-.09,5.49,5.49,0,0,1,.58,0,3.6,3.6,0,0,1,1,.12,2,2,0,0,1,.72.36,1.49,1.49,0,0,1,.45.6,2,2,0,0,1,.16.85v4.06Zm-.11-2.68h-1.3a2.46,2.46,0,0,0-.65.08,1.31,1.31,0,0,0-.46.21,1.06,1.06,0,0,0-.26.34,1.23,1.23,0,0,0-.08.44,1.14,1.14,0,0,0,.05.33.77.77,0,0,0,.17.27.74.74,0,0,0,.31.19,1.18,1.18,0,0,0,.45.07,2,2,0,0,0,.81-.21,4,4,0,0,0,1-.68Z"/>
      <path d="M201,294h.91l0,.95a3.47,3.47,0,0,1,.5-.51,3.12,3.12,0,0,1,.47-.33,1.66,1.66,0,0,1,.47-.17,2.73,2.73,0,0,1,.5-.05,1.71,1.71,0,0,1,1.37.54,2.38,2.38,0,0,1,.47,1.61v3.84h-1v-3.76a1.66,1.66,0,0,0-.26-1,.92.92,0,0,0-.77-.33,1.13,1.13,0,0,0-.36.06,1.09,1.09,0,0,0-.37.19,2.65,2.65,0,0,0-.42.37c-.15.16-.32.35-.51.59v3.9h-1Z"/>
      <path d="M211.85,298.22a1.42,1.42,0,0,1-.4,1,1.94,1.94,0,0,1-.42.32,2.31,2.31,0,0,1-.51.22,2.68,2.68,0,0,1-.56.13,3.6,3.6,0,0,1-.56,0,9.36,9.36,0,0,1-1.1-.05,6.48,6.48,0,0,1-1-.17v-.94a7.48,7.48,0,0,0,1,.23,7,7,0,0,0,1,.07,2.16,2.16,0,0,0,1.08-.2.6.6,0,0,0,.35-.56.88.88,0,0,0,0-.29.75.75,0,0,0-.21-.24,2.18,2.18,0,0,0-.45-.24c-.2-.08-.48-.17-.84-.28a6.38,6.38,0,0,1-.74-.26,2.58,2.58,0,0,1-.58-.36,1.79,1.79,0,0,1-.39-.48,1.45,1.45,0,0,1-.14-.65,1.47,1.47,0,0,1,.12-.54,1.31,1.31,0,0,1,.39-.54,2.09,2.09,0,0,1,.74-.42,3.57,3.57,0,0,1,1.17-.17,8.76,8.76,0,0,1,1.65.17v.91a6.55,6.55,0,0,0-.91-.17,5.6,5.6,0,0,0-.75-.06,2.9,2.9,0,0,0-.64.06,1.36,1.36,0,0,0-.42.16.58.58,0,0,0-.23.24.6.6,0,0,0-.07.3.64.64,0,0,0,.06.28.67.67,0,0,0,.23.25,2.13,2.13,0,0,0,.46.24,7.83,7.83,0,0,0,.78.26,6.19,6.19,0,0,1,.88.32,2.42,2.42,0,0,1,.58.37,1.2,1.2,0,0,1,.32.47A1.72,1.72,0,0,1,211.85,298.22Z"/>
      <path d="M218.62,292.5a7.15,7.15,0,0,0-1.39-.17c-.91,0-1.37.48-1.37,1.44v1h2.57v.85h-2.57v4.18h-1v-4.18h-1.89v-.85h1.89v-1c0-1.57.82-2.35,2.45-2.35a7.74,7.74,0,0,1,1.35.14Z"/>
      <path d="M225,296.84a3.87,3.87,0,0,1-.19,1.26,3,3,0,0,1-.56,1,2.54,2.54,0,0,1-.88.63,3,3,0,0,1-1.19.22,3.08,3.08,0,0,1-1.13-.19,2.12,2.12,0,0,1-.85-.58,2.53,2.53,0,0,1-.53-.94,4,4,0,0,1-.19-1.3,4.15,4.15,0,0,1,.19-1.25,2.81,2.81,0,0,1,.56-1,2.48,2.48,0,0,1,.89-.63,2.92,2.92,0,0,1,1.18-.23,3.08,3.08,0,0,1,1.13.2,2.2,2.2,0,0,1,.85.57,2.55,2.55,0,0,1,.54.94A4.28,4.28,0,0,1,225,296.84Zm-1,.05a3.33,3.33,0,0,0-.12-.95,1.82,1.82,0,0,0-.35-.68,1.22,1.22,0,0,0-.54-.41,1.64,1.64,0,0,0-.71-.14,1.61,1.61,0,0,0-.78.18,1.51,1.51,0,0,0-.53.47,2.13,2.13,0,0,0-.31.7,3.7,3.7,0,0,0-.1.83,3.38,3.38,0,0,0,.12.95,2,2,0,0,0,.35.69,1.55,1.55,0,0,0,.54.41,1.8,1.8,0,0,0,.71.13,1.55,1.55,0,0,0,.78-.18,1.44,1.44,0,0,0,.54-.47,2.12,2.12,0,0,0,.3-.7A3.2,3.2,0,0,0,224,296.89Z"/>
      <path d="M226.53,294h.93l0,1.08a3.8,3.8,0,0,1,1-.91,2.07,2.07,0,0,1,1-.28,1.68,1.68,0,0,1,1.39.59,2.7,2.7,0,0,1,.44,1.76h-1a1.86,1.86,0,0,0-.22-1.12.82.82,0,0,0-.71-.35,1.23,1.23,0,0,0-.42.07,1.66,1.66,0,0,0-.42.24,2.81,2.81,0,0,0-.47.41c-.16.17-.34.37-.53.61v3.78h-1Z"/>
      <path d="M237.07,299.83V295.6c0-.18,0-.33,0-.45a.83.83,0,0,0-.06-.27.31.31,0,0,0-.12-.15.27.27,0,0,0-.16,0,.36.36,0,0,0-.22.07.8.8,0,0,0-.21.23,2.44,2.44,0,0,0-.25.42c-.1.17-.2.39-.33.64v3.78h-.93v-4.11c0-.22,0-.39,0-.53a1.61,1.61,0,0,0-.07-.31.3.3,0,0,0-.11-.15.31.31,0,0,0-.17,0,.36.36,0,0,0-.2.06,1,1,0,0,0-.21.21,3.31,3.31,0,0,0-.25.42c-.1.17-.21.4-.34.67v3.78h-.93V294h.78l0,1.12a3.69,3.69,0,0,1,.3-.57,1.51,1.51,0,0,1,.29-.38,1,1,0,0,1,.71-.28.85.85,0,0,1,.72.31,1.51,1.51,0,0,1,.25,1c.09-.2.19-.38.27-.54a2.17,2.17,0,0,1,.29-.4,1,1,0,0,1,.35-.24,1,1,0,0,1,.43-.09q1.11,0,1.11,1.71v4.28Z"/>
      <path d="M244.5,296.58c0,.14,0,.26,0,.36s0,.19,0,.28h-4.14a1.8,1.8,0,0,0,.51,1.38,2,2,0,0,0,1.45.48,4.52,4.52,0,0,0,.52,0l.5-.05.46-.08.4-.1v.84a6.76,6.76,0,0,1-.94.19,7.64,7.64,0,0,1-1.08.07,3.68,3.68,0,0,1-1.31-.2,2.26,2.26,0,0,1-.89-.6,2.35,2.35,0,0,1-.51-.95,4.22,4.22,0,0,1-.17-1.28,3.83,3.83,0,0,1,.18-1.18,3,3,0,0,1,.52-1,2.47,2.47,0,0,1,.84-.66,2.44,2.44,0,0,1,1.13-.25A3.07,3.07,0,0,1,243,294a2.28,2.28,0,0,1,.8.55,2.36,2.36,0,0,1,.49.86A3.69,3.69,0,0,1,244.5,296.58Zm-1.06-.15a2.38,2.38,0,0,0-.08-.72,1.57,1.57,0,0,0-.29-.56,1.39,1.39,0,0,0-.49-.36,1.59,1.59,0,0,0-.68-.13,1.54,1.54,0,0,0-.61.12,1.4,1.4,0,0,0-.47.37,1.79,1.79,0,0,0-.32.56,2.37,2.37,0,0,0-.16.72Z"/>
      <path d="M246.1,294H247l0,1.08a3.8,3.8,0,0,1,1-.91,2.07,2.07,0,0,1,1-.28,1.69,1.69,0,0,1,1.39.59,2.65,2.65,0,0,1,.43,1.76h-1a1.94,1.94,0,0,0-.22-1.12.82.82,0,0,0-.71-.35,1.23,1.23,0,0,0-.42.07,1.7,1.7,0,0,0-.43.24,3.24,3.24,0,0,0-.46.41c-.16.17-.34.37-.53.61v3.78h-1Z"/>
      <path d="M256,291.55l-4,9.54h-1l4-9.54Z"/>
      <path d="M256.92,294l.63-.65,3.94,3.29-3.94,3.28-.63-.64,3.19-2.63Z"/>
    </g>
    <g>
      <path d="M230.77,189.28l-.64.64-3.94-3.28,3.94-3.29.64.65-3.2,2.62Z"/>
      <path d="M234.1,183.05h-1.77v-.88h4.58v.88h-1.76v5.89h1.76v.89h-4.58v-.89h1.77Z"/>
      <path d="M242.81,189.83h-4.36v-7.66h4.36v.88H239.5v2.37h3.18v.88H239.5v2.64h3.31Z"/>
      <path d="M249,188.22a1.4,1.4,0,0,1-.1.56,1.6,1.6,0,0,1-.29.44,1.94,1.94,0,0,1-.42.32,2.31,2.31,0,0,1-.51.22,2.68,2.68,0,0,1-.56.13,3.64,3.64,0,0,1-.57,0,9.29,9.29,0,0,1-1.09-.05,6.61,6.61,0,0,1-1-.17v-.94a8,8,0,0,0,1,.23,7,7,0,0,0,1,.07,2.23,2.23,0,0,0,1.09-.2.62.62,0,0,0,.35-.56.68.68,0,0,0-.06-.29.61.61,0,0,0-.2-.24,2.89,2.89,0,0,0-.45-.24l-.84-.28a6.38,6.38,0,0,1-.74-.26,2.38,2.38,0,0,1-.58-.36,1.62,1.62,0,0,1-.39-.48,1.45,1.45,0,0,1-.14-.65,1.47,1.47,0,0,1,.12-.54,1.37,1.37,0,0,1,.38-.54,2.23,2.23,0,0,1,.75-.42,3.53,3.53,0,0,1,1.17-.17,7.23,7.23,0,0,1,.77,0,7.5,7.5,0,0,1,.88.13v.91a6.83,6.83,0,0,0-.91-.17,5.6,5.6,0,0,0-.75-.06,2.9,2.9,0,0,0-.64.06,1.19,1.19,0,0,0-.42.16.69.69,0,0,0-.24.24.73.73,0,0,0-.07.3.53.53,0,0,0,.07.28.63.63,0,0,0,.22.25,2.53,2.53,0,0,0,.47.24,7.83,7.83,0,0,0,.78.26,6.19,6.19,0,0,1,.88.32,2.42,2.42,0,0,1,.58.37,1.31,1.31,0,0,1,.32.47A1.72,1.72,0,0,1,249,188.22Z"/>
      <path d="M255.42,189.75a4.16,4.16,0,0,1-.72.12,6.06,6.06,0,0,1-.75,0,2.38,2.38,0,0,1-1.65-.5,2,2,0,0,1-.55-1.54V184.8h-1.64V184h1.64v-1.62l1-.26V184h2.65v.85h-2.65v3a1.26,1.26,0,0,0,.34,1,1.42,1.42,0,0,0,1,.31,4.59,4.59,0,0,0,.62,0c.22,0,.45-.08.7-.14Z"/>
      <path d="M259,184.79h-1.74V184H260v5h1.75v.85H257V189H259Zm.35-3.31a.83.83,0,0,1,.32.06.9.9,0,0,1,.26.17,1.17,1.17,0,0,1,.17.26.83.83,0,0,1,0,.62,1,1,0,0,1-.17.26.9.9,0,0,1-.26.17.83.83,0,0,1-.32.06A.81.81,0,0,1,259,183a.81.81,0,0,1-.43-1.05.9.9,0,0,1,.17-.26.78.78,0,0,1,.26-.17A.81.81,0,0,1,259.33,181.48Z"/>
      <path d="M267.73,189.83V185.6c0-.18,0-.33,0-.45a1.15,1.15,0,0,0-.07-.27.3.3,0,0,0-.11-.15.27.27,0,0,0-.16,0,.34.34,0,0,0-.22.07,1,1,0,0,0-.22.23,3.31,3.31,0,0,0-.25.42c-.09.17-.2.39-.32.64v3.78h-.93v-4.11c0-.22,0-.39,0-.53a1.61,1.61,0,0,0-.07-.31.37.37,0,0,0-.11-.15.33.33,0,0,0-.17,0,.36.36,0,0,0-.2.06.83.83,0,0,0-.21.21,3.2,3.2,0,0,0-.26.42c-.09.17-.2.4-.33.67v3.78h-.94V184h.78l.05,1.12a3.69,3.69,0,0,1,.3-.57,1.51,1.51,0,0,1,.29-.38.84.84,0,0,1,.33-.21.92.92,0,0,1,.38-.07.85.85,0,0,1,.72.31,1.57,1.57,0,0,1,.25,1q.13-.3.27-.54a2.17,2.17,0,0,1,.29-.4,1.06,1.06,0,0,1,.34-.24,1,1,0,0,1,.44-.09q1.11,0,1.11,1.71v4.28Z"/>
      <path d="M274,189.83l0-.79a3.28,3.28,0,0,1-1,.68,2.61,2.61,0,0,1-1,.21,2.75,2.75,0,0,1-.86-.12,1.73,1.73,0,0,1-.59-.36,1.55,1.55,0,0,1-.34-.53,2,2,0,0,1-.1-.66,1.68,1.68,0,0,1,.65-1.39,3.22,3.22,0,0,1,1.95-.5h1.22v-.51a1.11,1.11,0,0,0-.33-.84,1.47,1.47,0,0,0-1-.31,4.6,4.6,0,0,0-1,.11,5.78,5.78,0,0,0-1,.32v-.92a6.1,6.1,0,0,1,.93-.26,4.51,4.51,0,0,1,.55-.09,5.49,5.49,0,0,1,.58,0,3.5,3.5,0,0,1,1,.12,1.87,1.87,0,0,1,.72.36,1.61,1.61,0,0,1,.46.6,2.22,2.22,0,0,1,.16.85v4.06Zm-.11-2.68h-1.29a2.48,2.48,0,0,0-.66.08,1.34,1.34,0,0,0-.45.21.94.94,0,0,0-.26.34,1,1,0,0,0-.09.44.88.88,0,0,0,.06.33.65.65,0,0,0,.17.27.7.7,0,0,0,.3.19,1.27,1.27,0,0,0,.46.07,1.94,1.94,0,0,0,.8-.21,3.63,3.63,0,0,0,1-.68Z"/>
      <path d="M281.45,189.75a4,4,0,0,1-.71.12,6.28,6.28,0,0,1-.75,0,2.38,2.38,0,0,1-1.65-.5,2,2,0,0,1-.55-1.54V184.8h-1.64V184h1.64v-1.62l1-.26V184h2.64v.85h-2.64v3a1.23,1.23,0,0,0,.34,1,1.38,1.38,0,0,0,1,.31,4.7,4.7,0,0,0,.62,0,6.5,6.5,0,0,0,.69-.14Z"/>
      <path d="M288.19,186.84a3.87,3.87,0,0,1-.2,1.26,2.93,2.93,0,0,1-.55,1,2.57,2.57,0,0,1-.89.63,3,3,0,0,1-1.18.22,3.17,3.17,0,0,1-1.14-.19,2.26,2.26,0,0,1-.85-.58,2.53,2.53,0,0,1-.53-.94,4.3,4.3,0,0,1-.18-1.3,3.86,3.86,0,0,1,.19-1.25,2.66,2.66,0,0,1,.56-1,2.45,2.45,0,0,1,.88-.63,3,3,0,0,1,1.18-.23,3.13,3.13,0,0,1,1.14.2,2.28,2.28,0,0,1,.85.57,2.53,2.53,0,0,1,.53.94A4.27,4.27,0,0,1,288.19,186.84Zm-1.05,0a3.33,3.33,0,0,0-.12-.95,1.81,1.81,0,0,0-.34-.68,1.34,1.34,0,0,0-.54-.41,1.67,1.67,0,0,0-.71-.14,1.62,1.62,0,0,0-.79.18,1.71,1.71,0,0,0-.53.47,1.93,1.93,0,0,0-.3.7,3.2,3.2,0,0,0-.1.83,3.38,3.38,0,0,0,.12,1,1.94,1.94,0,0,0,.34.69,1.55,1.55,0,0,0,.54.41,1.81,1.81,0,0,0,.72.13,1.61,1.61,0,0,0,.78-.18,1.49,1.49,0,0,0,.53-.47,2.13,2.13,0,0,0,.31-.7A3.7,3.7,0,0,0,287.14,186.89Z"/>
      <path d="M289.83,184h.93l0,1.08a3.8,3.8,0,0,1,1-.91,2,2,0,0,1,1-.28,1.66,1.66,0,0,1,1.38.59,2.64,2.64,0,0,1,.44,1.76h-1a1.85,1.85,0,0,0-.23-1.12.82.82,0,0,0-.71-.35,1.22,1.22,0,0,0-.41.07,1.7,1.7,0,0,0-.43.24,2.77,2.77,0,0,0-.46.41,7,7,0,0,0-.53.61v3.78h-1Z"/>
      <path d="M299.84,181.55l-4,9.54h-1l4-9.54Z"/>
      <path d="M300.89,184l.63-.65,3.94,3.29-3.94,3.28-.63-.64,3.19-2.63Z"/>
    </g>
    <g>
      <path d="M27.93,157.28l-.64.64-3.94-3.28,3.94-3.29.64.65-3.2,2.62Z"/>
      <path d="M33.93,157.83H29.57v-7.66h4.36v.88H30.62v2.37H33.8v.88H30.62v2.64h3.31Z"/>
      <path d="M34.89,152h1.16l1.44,3.89.31.95.32-1L39.55,152h1.12l-2.31,5.88H37.19Z"/>
      <path d="M45.6,157.83l0-.79a3.28,3.28,0,0,1-1,.68,2.61,2.61,0,0,1-1,.21,2.75,2.75,0,0,1-.86-.12,1.73,1.73,0,0,1-.59-.36,1.42,1.42,0,0,1-.34-.53,2,2,0,0,1-.11-.66,1.66,1.66,0,0,1,.66-1.39,3.22,3.22,0,0,1,2-.5h1.22v-.51a1.11,1.11,0,0,0-.33-.84,1.47,1.47,0,0,0-1-.31,4.53,4.53,0,0,0-1,.11,5.78,5.78,0,0,0-1,.32v-.92a6.1,6.1,0,0,1,.93-.26,4.51,4.51,0,0,1,.55-.09,5.49,5.49,0,0,1,.58,0,3.6,3.6,0,0,1,1,.12,2,2,0,0,1,.72.36,1.61,1.61,0,0,1,.46.6,2.22,2.22,0,0,1,.16.85v4.06Zm-.11-2.68H44.2a2.48,2.48,0,0,0-.66.08,1.25,1.25,0,0,0-.45.21.84.84,0,0,0-.26.34,1,1,0,0,0-.09.44,1.14,1.14,0,0,0,0,.33,1,1,0,0,0,.17.27.74.74,0,0,0,.31.19,1.24,1.24,0,0,0,.46.07,1.94,1.94,0,0,0,.8-.21,4,4,0,0,0,1-.68Z"/>
      <path d="M50.1,150.39H48.36v-.84h2.77V157h1.75v.85H48.16V157H50.1Z"/>
      <path d="M59.11,157.83H58.2l0-1a4.87,4.87,0,0,1-.5.51,2.3,2.3,0,0,1-.47.32,1.66,1.66,0,0,1-.47.17,2,2,0,0,1-.5.05,1.69,1.69,0,0,1-1.37-.53,2.38,2.38,0,0,1-.46-1.61V152h1v3.76c0,.9.34,1.35,1,1.35a1.5,1.5,0,0,0,.37-.05,1.56,1.56,0,0,0,.38-.2,2.65,2.65,0,0,0,.42-.37,6.88,6.88,0,0,0,.5-.59V152h1Z"/>
      <path d="M64.62,157.83l0-.79a3.24,3.24,0,0,1-1,.68,2.87,2.87,0,0,1-1.9.09,1.64,1.64,0,0,1-.59-.36,1.31,1.31,0,0,1-.34-.53,2,2,0,0,1-.11-.66,1.66,1.66,0,0,1,.66-1.39,3.22,3.22,0,0,1,1.95-.5h1.22v-.51a1.11,1.11,0,0,0-.34-.84,1.43,1.43,0,0,0-1-.31,4.6,4.6,0,0,0-1,.11,6.39,6.39,0,0,0-1,.32v-.92a3.62,3.62,0,0,1,.43-.14,4.05,4.05,0,0,1,.5-.12,4.85,4.85,0,0,1,.55-.09l.58,0a3.63,3.63,0,0,1,1,.12,2,2,0,0,1,.72.36,1.49,1.49,0,0,1,.45.6,2,2,0,0,1,.16.85v4.06Zm-.11-2.68h-1.3a2.59,2.59,0,0,0-.66.08,1.34,1.34,0,0,0-.45.21,1.06,1.06,0,0,0-.26.34,1.23,1.23,0,0,0-.08.44,1.14,1.14,0,0,0,.05.33.77.77,0,0,0,.17.27.74.74,0,0,0,.31.19,1.18,1.18,0,0,0,.45.07,2,2,0,0,0,.81-.21,4,4,0,0,0,1-.68Z"/>
      <path d="M72.11,157.75a4.16,4.16,0,0,1-.72.12,6.06,6.06,0,0,1-.75,0,2.39,2.39,0,0,1-1.65-.5,2,2,0,0,1-.54-1.54V152.8H66.8V152h1.65v-1.62l1-.26V152h2.64v.85H69.47v3a1.26,1.26,0,0,0,.33,1,1.43,1.43,0,0,0,1,.31,4.55,4.55,0,0,0,.61,0,6.66,6.66,0,0,0,.7-.14Z"/>
      <path d="M78.62,154.58v.36c0,.1,0,.19,0,.28H74.47a1.84,1.84,0,0,0,.5,1.38,2,2,0,0,0,1.45.48,4.43,4.43,0,0,0,.52,0l.5-.05.46-.08.41-.1v.84a7.42,7.42,0,0,1-.94.19,7.78,7.78,0,0,1-1.09.07,3.59,3.59,0,0,1-1.3-.2,2.3,2.3,0,0,1-.9-.6,2.35,2.35,0,0,1-.51-.95,4.56,4.56,0,0,1-.17-1.28,3.83,3.83,0,0,1,.18-1.18,3,3,0,0,1,.52-1,2.47,2.47,0,0,1,.84-.66,2.44,2.44,0,0,1,1.13-.25,3,3,0,0,1,1.09.19,2.2,2.2,0,0,1,.8.55,2.36,2.36,0,0,1,.49.86A3.41,3.41,0,0,1,78.62,154.58Zm-1.06-.15a2.38,2.38,0,0,0-.07-.72,1.75,1.75,0,0,0-.29-.56,1.6,1.6,0,0,0-.49-.36,1.65,1.65,0,0,0-.68-.13,1.48,1.48,0,0,0-.61.12,1.44,1.44,0,0,0-.48.37,1.79,1.79,0,0,0-.32.56,2.71,2.71,0,0,0-.15.72Z"/>
      <path d="M83.15,160.29a7.44,7.44,0,0,1-2.7-5.53,7.59,7.59,0,0,1,.14-1.42,6.49,6.49,0,0,1,.47-1.41,7.54,7.54,0,0,1,.84-1.42,10.77,10.77,0,0,1,1.27-1.41l.6.61a6.83,6.83,0,0,0-2.28,5,6.14,6.14,0,0,0,.58,2.62,8,8,0,0,0,1.7,2.36Z"/>
      <path d="M86.35,149.1A7.11,7.11,0,0,1,88.93,156a7.27,7.27,0,0,1-.44,1.4,8.36,8.36,0,0,1-.84,1.44,9.72,9.72,0,0,1-1.32,1.47l-.59-.6a8.07,8.07,0,0,0,1.7-2.36,6.1,6.1,0,0,0,.57-2.58,6.9,6.9,0,0,0-2.27-5Z"/>
      <path d="M95.12,149.55l-4,9.54h-1l4-9.54Z"/>
      <path d="M96.16,152l.64-.65,3.93,3.29-3.93,3.28-.64-.64,3.2-2.63Z"/>
    </g>
    <g>
      <path d="M228.82,157.28l-.64.64-3.94-3.28,3.94-3.29.64.65-3.2,2.62Z"/>
      <path d="M236.33,157.83h-1.14l-.53-1.67h-3.19l-.54,1.67h-1.08l2.54-7.66h1.43Zm-2-2.6-1.3-4.1-1.29,4.1Z"/>
      <path d="M242.4,154.78a3.79,3.79,0,0,1-.22,1.37,2.75,2.75,0,0,1-.6,1,2.66,2.66,0,0,1-.92.58,3.49,3.49,0,0,1-1.14.19,5.12,5.12,0,0,1-.56,0,3.78,3.78,0,0,1-.57-.1v2.46h-1V152h.91l.07,1a2.71,2.71,0,0,1,.93-.85,2.51,2.51,0,0,1,1.08-.24,1.83,1.83,0,0,1,.89.21,1.92,1.92,0,0,1,.64.6,2.66,2.66,0,0,1,.38.92A5,5,0,0,1,242.4,154.78Zm-1,.05a4.5,4.5,0,0,0-.07-.85,2.23,2.23,0,0,0-.21-.66,1.15,1.15,0,0,0-.38-.43.89.89,0,0,0-.54-.16,1.34,1.34,0,0,0-.81.27,2.84,2.84,0,0,0-.45.38,5.43,5.43,0,0,0-.51.59v2.85a3.82,3.82,0,0,0,.6.19,3.13,3.13,0,0,0,.6.06,1.57,1.57,0,0,0,1.3-.56A2.57,2.57,0,0,0,241.36,154.83Z"/>
      <path d="M249,154.78a3.79,3.79,0,0,1-.22,1.37,2.77,2.77,0,0,1-.61,1,2.53,2.53,0,0,1-.91.58,3.49,3.49,0,0,1-1.14.19,5.12,5.12,0,0,1-.56,0,3.78,3.78,0,0,1-.57-.1v2.46h-1V152h.91l.06,1a2.83,2.83,0,0,1,.94-.85,2.44,2.44,0,0,1,1.08-.24,1.83,1.83,0,0,1,.89.21,1.8,1.8,0,0,1,.63.6,2.66,2.66,0,0,1,.39.92A5,5,0,0,1,249,154.78Zm-1,.05a5.51,5.51,0,0,0-.07-.85,2.56,2.56,0,0,0-.21-.66,1.15,1.15,0,0,0-.38-.43.89.89,0,0,0-.54-.16,1.34,1.34,0,0,0-.81.27,2.84,2.84,0,0,0-.45.38,5.43,5.43,0,0,0-.51.59v2.85a4.06,4.06,0,0,0,.59.19,3.23,3.23,0,0,0,.61.06,1.59,1.59,0,0,0,1.3-.56A2.57,2.57,0,0,0,248,154.83Z"/>
      <path d="M255.56,154.58c0,.14,0,.26,0,.36a2.46,2.46,0,0,1,0,.28H251.4a1.8,1.8,0,0,0,.51,1.38,2,2,0,0,0,1.45.48,4.61,4.61,0,0,0,.52,0l.49-.05.46-.08a3.52,3.52,0,0,0,.41-.1v.84a7.08,7.08,0,0,1-.94.19,7.68,7.68,0,0,1-1.09.07,3.66,3.66,0,0,1-1.3-.2,2.26,2.26,0,0,1-.89-.6,2.49,2.49,0,0,1-.52-.95,4.57,4.57,0,0,1-.16-1.28,3.83,3.83,0,0,1,.18-1.18,2.84,2.84,0,0,1,.52-1,2.47,2.47,0,0,1,.84-.66,2.44,2.44,0,0,1,1.13-.25,3.07,3.07,0,0,1,1.09.19,2.38,2.38,0,0,1,.8.55,2.36,2.36,0,0,1,.49.86A3.69,3.69,0,0,1,255.56,154.58Zm-1.06-.15a2.38,2.38,0,0,0-.08-.72,1.57,1.57,0,0,0-.29-.56,1.39,1.39,0,0,0-.49-.36,1.59,1.59,0,0,0-.68-.13,1.54,1.54,0,0,0-.61.12,1.4,1.4,0,0,0-.47.37,1.79,1.79,0,0,0-.32.56,2.37,2.37,0,0,0-.16.72Z"/>
      <path d="M257.16,152h.91l0,1a3.47,3.47,0,0,1,.5-.51,2.69,2.69,0,0,1,.47-.33,1.66,1.66,0,0,1,.47-.17,2.65,2.65,0,0,1,.5,0,1.71,1.71,0,0,1,1.37.54,2.38,2.38,0,0,1,.47,1.61v3.84h-1v-3.76a1.66,1.66,0,0,0-.26-1,.92.92,0,0,0-.77-.33,1.09,1.09,0,0,0-.36.06,1.23,1.23,0,0,0-.38.19,2.65,2.65,0,0,0-.42.37c-.15.16-.31.35-.5.59v3.9h-1Z"/>
      <path d="M263.46,155a4.18,4.18,0,0,1,.2-1.33,2.87,2.87,0,0,1,.59-1,2.52,2.52,0,0,1,.91-.61,3.36,3.36,0,0,1,1.18-.2,5.07,5.07,0,0,1,.55,0,3.45,3.45,0,0,1,.54.11v-2.47h1v8.28h-.91l0-1.11a3.09,3.09,0,0,1-.92.92,2.13,2.13,0,0,1-1.08.29,1.83,1.83,0,0,1-.89-.21,1.89,1.89,0,0,1-.64-.59,2.74,2.74,0,0,1-.38-.92A5,5,0,0,1,263.46,155Zm1-.06a3.15,3.15,0,0,0,.32,1.59,1,1,0,0,0,.88.52,1.33,1.33,0,0,0,.82-.34,5.08,5.08,0,0,0,.91-1V153a2.45,2.45,0,0,0-.56-.18,3.05,3.05,0,0,0-.6-.06,1.62,1.62,0,0,0-1.3.54A2.55,2.55,0,0,0,264.5,155Z"/>
      <path d="M273.26,160.29a7.44,7.44,0,0,1-2.7-5.53,7.59,7.59,0,0,1,.14-1.42,6.49,6.49,0,0,1,.47-1.41,7.54,7.54,0,0,1,.84-1.42,10.89,10.89,0,0,1,1.28-1.41l.59.61a6.83,6.83,0,0,0-2.28,5,6.14,6.14,0,0,0,.58,2.62,8,8,0,0,0,1.7,2.36Z"/>
      <path d="M276.47,149.1A7,7,0,0,1,279,156a6.63,6.63,0,0,1-.44,1.4,8.36,8.36,0,0,1-.84,1.44,9.72,9.72,0,0,1-1.32,1.47l-.59-.6a8.3,8.3,0,0,0,1.71-2.36,6.24,6.24,0,0,0,.56-2.58,6.9,6.9,0,0,0-2.27-5Z"/>
      <path d="M285.23,149.55l-4,9.54h-1l4-9.54Z"/>
      <path d="M286.27,152l.64-.65,3.93,3.29-3.93,3.28-.64-.64,3.2-2.63Z"/>
    </g>
    <g>
      <path d="M143.54,226.28l-.64.64L139,223.64l3.93-3.29.64.65-3.19,2.62Z"/>
      <path d="M149.52,220.06h-3.25v2.49h3.08v.87h-3.08v3.41H145.2v-7.66h4.32Z"/>
      <path d="M152.62,221.79h-1.74V221h2.77v5h1.76v.85h-4.72V226h1.93Zm.36-3.31a.87.87,0,0,1,.32.06.85.85,0,0,1,.25.17.9.9,0,0,1,.17.26.82.82,0,0,1-.17.88.85.85,0,0,1-.25.17.88.88,0,0,1-.64,0,.85.85,0,0,1-.25-.17.82.82,0,0,1-.17-.88.9.9,0,0,1,.17-.26.85.85,0,0,1,.25-.17A.87.87,0,0,1,153,218.48Z"/>
      <path d="M161.12,226.75a4.21,4.21,0,0,1-.71.12,6.28,6.28,0,0,1-.75,0,2.42,2.42,0,0,1-1.66-.5,2,2,0,0,1-.54-1.54V221.8h-1.65V221h1.65v-1.62l1-.26V221h2.64v.85h-2.64v3a1.23,1.23,0,0,0,.34,1,1.38,1.38,0,0,0,1,.31,4.45,4.45,0,0,0,.61,0,6.19,6.19,0,0,0,.7-.14Z"/>
      <path d="M165.61,229.29a7.44,7.44,0,0,1-2.7-5.53,7.59,7.59,0,0,1,.14-1.42,7,7,0,0,1,.46-1.41,8.2,8.2,0,0,1,.85-1.42,10.77,10.77,0,0,1,1.27-1.41l.59.61a6.86,6.86,0,0,0-2.27,5,6.14,6.14,0,0,0,.58,2.62,8,8,0,0,0,1.69,2.36Z"/>
      <path d="M168.81,218.1a7.48,7.48,0,0,1,2.7,5.57,6.68,6.68,0,0,1-.13,1.31,6.58,6.58,0,0,1-.43,1.4,8.36,8.36,0,0,1-.84,1.44,9.72,9.72,0,0,1-1.32,1.47l-.59-.6a8.07,8.07,0,0,0,1.7-2.36,6.09,6.09,0,0,0,.56-2.58,6.89,6.89,0,0,0-2.26-5Z"/>
      <path d="M177.58,218.55l-4,9.54h-1l4-9.54Z"/>
      <path d="M178.62,221l.63-.65,3.94,3.29-3.94,3.28-.63-.64,3.2-2.63Z"/>
    </g>
    <g>
      <path d="M11.06,39.83v-8.4h3.06a3.83,3.83,0,0,1,2.16.51,1.77,1.77,0,0,1,.3,2.64,2.43,2.43,0,0,1-1.17.71v0a2.31,2.31,0,0,1,1.43.66,1.83,1.83,0,0,1,.53,1.34,2.24,2.24,0,0,1-.82,1.83,3.46,3.46,0,0,1-2.26.68Zm1.9-7v2h.83a1.37,1.37,0,0,0,.92-.28,1,1,0,0,0,.34-.78c0-.62-.46-.93-1.39-.93Zm0,3.4v2.21h1a1.6,1.6,0,0,0,1-.3,1,1,0,0,0,.37-.83,1,1,0,0,0-.36-.79,1.66,1.66,0,0,0-1-.29Z" fill="#0072c6"/>
      <path d="M24.31,39.83H22.46v-.91h0A2.1,2.1,0,0,1,20.6,40c-1.39,0-2.09-.85-2.09-2.53V33.83h1.85v3.46c0,.84.33,1.27,1,1.27a1,1,0,0,0,.79-.35,1.41,1.41,0,0,0,.3-1V33.83h1.85Z" fill="#0072c6"/>
      <path d="M26.77,32.88A1.07,1.07,0,0,1,26,32.6a.88.88,0,0,1-.3-.68.87.87,0,0,1,.3-.68,1.11,1.11,0,0,1,.77-.26,1.09,1.09,0,0,1,.77.26.87.87,0,0,1,.3.68.89.89,0,0,1-.3.69A1.1,1.1,0,0,1,26.77,32.88Zm.92,6.95H25.83v-6h1.86Z" fill="#0072c6"/>
      <path d="M31.06,39.83H29.21V31h1.85Z" fill="#0072c6"/>
      <path d="M38.53,39.83H36.67V39h0a2.08,2.08,0,0,1-1.86,1,2.28,2.28,0,0,1-1.81-.8A3.33,3.33,0,0,1,32.3,37a3.59,3.59,0,0,1,.75-2.38,2.48,2.48,0,0,1,2-.9,1.69,1.69,0,0,1,1.62.83h0V31h1.86Zm-1.82-2.92v-.45a1.4,1.4,0,0,0-.34-1,1.2,1.2,0,0,0-1.85.09,2.28,2.28,0,0,0-.34,1.33,2,2,0,0,0,.33,1.22,1.18,1.18,0,0,0,1.84,0A1.87,1.87,0,0,0,36.71,36.91Z" fill="#0072c6"/>
      <path d="M53.15,39.83H51.28v-5c0-.54,0-1.14.07-1.8H51.3A7.63,7.63,0,0,1,51,34.12l-2,5.71H47.53l-2-5.66c-.05-.15-.14-.54-.26-1.17H45.2c.06.83.08,1.56.08,2.18v4.65h-1.7v-8.4h2.77l1.71,5a6.58,6.58,0,0,1,.3,1.2h0a11.9,11.9,0,0,1,.33-1.21l1.72-5h2.7Z" fill="#0072c6"/>
      <path d="M57.7,40a3.19,3.19,0,0,1-2.36-.85,3.47,3.47,0,0,1,0-4.61,3.38,3.38,0,0,1,2.41-.84,3.2,3.2,0,0,1,2.35.84A3,3,0,0,1,61,36.75a3.2,3.2,0,0,1-.88,2.36A3.24,3.24,0,0,1,57.7,40Zm0-4.88a1.23,1.23,0,0,0-1,.45,2,2,0,0,0-.37,1.28c0,1.15.47,1.73,1.4,1.73s1.33-.59,1.33-1.78S58.64,35.1,57.75,35.1Z" fill="#0072c6"/>
      <path d="M68.08,39.83H66.23V39h0a2.08,2.08,0,0,1-1.86,1,2.28,2.28,0,0,1-1.81-.8A3.33,3.33,0,0,1,61.85,37a3.59,3.59,0,0,1,.75-2.38,2.48,2.48,0,0,1,2-.9,1.69,1.69,0,0,1,1.62.83h0V31h1.85Zm-1.82-2.92v-.45a1.4,1.4,0,0,0-.34-1,1.19,1.19,0,0,0-1.84.09,2.21,2.21,0,0,0-.35,1.33,2,2,0,0,0,.33,1.22,1.11,1.11,0,0,0,.93.43,1.13,1.13,0,0,0,.92-.45A1.92,1.92,0,0,0,66.26,36.91Z" fill="#0072c6"/>
      <path d="M75,37.36H71.11c.06.87.61,1.3,1.65,1.3a3.15,3.15,0,0,0,1.74-.47v1.34a4.56,4.56,0,0,1-2.16.45,2.8,2.8,0,0,1-3.06-3.06,3.19,3.19,0,0,1,.87-2.36,2.84,2.84,0,0,1,2.13-.88,2.63,2.63,0,0,1,2,.78A3,3,0,0,1,75,36.58Zm-1.72-1.14c0-.86-.35-1.29-1-1.29a1,1,0,0,0-.77.37,1.68,1.68,0,0,0-.4.92Z" fill="#0072c6"/>
      <path d="M78.05,39.83H76.2V31h1.85Z" fill="#0072c6"/>
    </g>
    <g>
      <path d="M139,70.15a6.08,6.08,0,0,1-3.06.71,4.47,4.47,0,0,1-3.2-1.12,4.08,4.08,0,0,1-1.17-3.09,4.32,4.32,0,0,1,1.28-3.23,4.63,4.63,0,0,1,3.4-1.25,6.84,6.84,0,0,1,2.36.37v1.77a4.76,4.76,0,0,0-2.38-.56,2.55,2.55,0,0,0-1.92.77,2.78,2.78,0,0,0-.74,2,2.82,2.82,0,0,0,.66,2,2.35,2.35,0,0,0,1.8.71,2.52,2.52,0,0,0,1.08-.19V67.44h-1.69V65.92H139Z" fill="#1e1e1e"/>
      <path d="M145.56,70.71h-1.75v-.86h0a2,2,0,0,1-1.78,1,1.88,1.88,0,0,1-1.38-.5,1.79,1.79,0,0,1-.5-1.32q0-1.74,2.07-2l1.63-.22c0-.66-.36-1-1.07-1a3.7,3.7,0,0,0-2,.63V65.07a4.67,4.67,0,0,1,1.06-.35,5.7,5.7,0,0,1,1.22-.15,2.27,2.27,0,0,1,2.57,2.56Zm-1.74-2.44v-.4l-1.09.14c-.6.08-.9.35-.9.82a.64.64,0,0,0,.22.51.8.8,0,0,0,.59.21,1.1,1.1,0,0,0,.85-.36A1.31,1.31,0,0,0,143.82,68.27Z" fill="#1e1e1e"/>
      <path d="M150.56,70.64a2.62,2.62,0,0,1-1.23.22,1.76,1.76,0,0,1-2-2V66.08h-1V64.71h1V63.42l1.85-.53v1.82h1.34v1.37h-1.34V68.5c0,.63.24.94.74.94a1.24,1.24,0,0,0,.6-.17Z" fill="#1e1e1e"/>
      <path d="M157.49,70.71h-1.85V67.3q0-1.32-1-1.32a1,1,0,0,0-.79.37,1.4,1.4,0,0,0-.31.94v3.42h-1.85V61.83h1.85V65.6h0a2.11,2.11,0,0,1,1.85-1q2,0,2,2.46Z" fill="#1e1e1e"/>
      <path d="M164.37,68.24h-3.91c.06.87.61,1.31,1.65,1.31a3.24,3.24,0,0,0,1.74-.47v1.33a4.57,4.57,0,0,1-2.17.45,2.81,2.81,0,0,1-3.06-3,3.2,3.2,0,0,1,.87-2.37,2.9,2.9,0,0,1,2.13-.87,2.67,2.67,0,0,1,2,.77,3.05,3.05,0,0,1,.71,2.12Zm-1.71-1.14q0-1.29-1-1.29a1,1,0,0,0-.77.37,1.71,1.71,0,0,0-.39.92Z" fill="#1e1e1e"/>
      <path d="M169.47,66.38a1.66,1.66,0,0,0-.78-.18,1.14,1.14,0,0,0-.95.44,2,2,0,0,0-.34,1.21v2.86h-1.85v-6h1.85v1.12h0A1.59,1.59,0,0,1,169,64.61a1.17,1.17,0,0,1,.46.07Z" fill="#1e1e1e"/>
      <path d="M178.63,70.71h-1.75v-.86h0a2,2,0,0,1-1.78,1,1.88,1.88,0,0,1-1.38-.5,1.79,1.79,0,0,1-.5-1.32q0-1.74,2.07-2l1.63-.22c0-.66-.36-1-1.07-1a3.7,3.7,0,0,0-2,.63V65.07a4.67,4.67,0,0,1,1.06-.35,5.7,5.7,0,0,1,1.22-.15,2.27,2.27,0,0,1,2.57,2.56Zm-1.74-2.44v-.4L175.8,68c-.6.08-.9.35-.9.82a.64.64,0,0,0,.22.51.8.8,0,0,0,.59.21,1.1,1.1,0,0,0,.85-.36A1.31,1.31,0,0,0,176.89,68.27Z" fill="#1e1e1e"/>
      <path d="M185.89,70.71H184V67.38c0-.93-.33-1.4-1-1.4a1,1,0,0,0-.79.37,1.4,1.4,0,0,0-.31.94v3.42h-1.86v-6H182v1h0a2.11,2.11,0,0,1,1.93-1.09c1.32,0,2,.82,2,2.47Z" fill="#1e1e1e"/>
      <path d="M193.26,70.71H191.4v-.82h0a2.09,2.09,0,0,1-1.86,1,2.28,2.28,0,0,1-1.81-.8,3.28,3.28,0,0,1-.68-2.21,3.6,3.6,0,0,1,.75-2.39,2.47,2.47,0,0,1,2-.89,1.67,1.67,0,0,1,1.62.83h0V61.83h1.86Zm-1.82-2.92v-.45a1.4,1.4,0,0,0-.34-1,1.12,1.12,0,0,0-.89-.39,1.1,1.1,0,0,0-1,.49,2.23,2.23,0,0,0-.34,1.32,2,2,0,0,0,.33,1.22,1.18,1.18,0,0,0,1.84,0A1.87,1.87,0,0,0,191.44,67.79Z" fill="#1e1e1e"/>
      <path d="M129,84.42h0v3.45h-1.85V79.11H129V80h0a2.36,2.36,0,0,1,3.73-.24,3.4,3.4,0,0,1,.63,2.17,3.65,3.65,0,0,1-.74,2.41,2.4,2.4,0,0,1-2,.91A1.87,1.87,0,0,1,129,84.42ZM128.94,82v.48a1.53,1.53,0,0,0,.33,1,1.08,1.08,0,0,0,.86.39,1.14,1.14,0,0,0,1-.49,2.37,2.37,0,0,0,.34-1.38q0-1.59-1.23-1.59a1.18,1.18,0,0,0-.93.43A1.73,1.73,0,0,0,128.94,82Z" fill="#1e1e1e"/>
      <path d="M138.5,80.78a1.61,1.61,0,0,0-.78-.18,1.12,1.12,0,0,0-.94.44,1.93,1.93,0,0,0-.34,1.21v2.86h-1.85v-6h1.85v1.12h0A1.59,1.59,0,0,1,138,79a1.14,1.14,0,0,1,.46.07Z" fill="#1e1e1e"/>
      <path d="M144.83,82.64h-3.92c.07.87.62,1.31,1.65,1.31a3.24,3.24,0,0,0,1.74-.47v1.33a4.5,4.5,0,0,1-2.16.45,2.79,2.79,0,0,1-3.06-3.05,3.2,3.2,0,0,1,.87-2.37,2.9,2.9,0,0,1,2.13-.87,2.63,2.63,0,0,1,2,.78,3,3,0,0,1,.72,2.11Zm-1.72-1.14c0-.86-.35-1.29-1-1.29a1,1,0,0,0-.77.37,1.72,1.72,0,0,0-.4.92Z" fill="#1e1e1e"/>
      <path d="M147.88,84.42h0v3.45H146V79.11h1.86V80h0a2.19,2.19,0,0,1,1.93-1,2.15,2.15,0,0,1,1.8.8,3.4,3.4,0,0,1,.64,2.17,3.66,3.66,0,0,1-.75,2.41,2.4,2.4,0,0,1-2,.91A1.87,1.87,0,0,1,147.88,84.42Zm0-2.47v.48a1.53,1.53,0,0,0,.33,1,1.05,1.05,0,0,0,.86.39,1.12,1.12,0,0,0,1-.49,2.36,2.36,0,0,0,.35-1.38q0-1.59-1.23-1.59a1.18,1.18,0,0,0-.93.43A1.73,1.73,0,0,0,147.83,82Z" fill="#1e1e1e"/>
      <path d="M158.45,85.11H156.7v-.86h0a2,2,0,0,1-1.79,1,1.86,1.86,0,0,1-1.37-.5,1.75,1.75,0,0,1-.5-1.32c0-1.16.69-1.83,2.06-2l1.63-.22c0-.66-.35-1-1.06-1a3.65,3.65,0,0,0-2,.63V79.47a4.67,4.67,0,0,1,1.06-.35,5.56,5.56,0,0,1,1.22-.15,2.26,2.26,0,0,1,2.56,2.56Zm-1.74-2.44v-.4l-1.09.14c-.6.08-.9.35-.9.82a.64.64,0,0,0,.22.51.84.84,0,0,0,.6.21,1.11,1.11,0,0,0,.85-.36A1.36,1.36,0,0,0,156.71,82.67Z" fill="#1e1e1e"/>
      <path d="M163.83,80.78a1.61,1.61,0,0,0-.78-.18,1.14,1.14,0,0,0-.94.44,1.93,1.93,0,0,0-.34,1.21v2.86h-1.85v-6h1.85v1.12h0A1.6,1.6,0,0,1,163.38,79a1.12,1.12,0,0,1,.45.07Z" fill="#1e1e1e"/>
      <path d="M170.16,82.64h-3.91c.06.87.61,1.31,1.64,1.31a3.24,3.24,0,0,0,1.74-.47v1.33a4.5,4.5,0,0,1-2.16.45,2.81,2.81,0,0,1-3.06-3.05,3.2,3.2,0,0,1,.87-2.37,2.9,2.9,0,0,1,2.13-.87,2.62,2.62,0,0,1,2,.78,3,3,0,0,1,.72,2.11Zm-1.72-1.14c0-.86-.34-1.29-1-1.29a1,1,0,0,0-.77.37,1.72,1.72,0,0,0-.4.92Z" fill="#1e1e1e"/>
      <path d="M180.44,85.11h-1.85v-.82h0a2.09,2.09,0,0,1-1.86,1,2.28,2.28,0,0,1-1.81-.8,3.23,3.23,0,0,1-.68-2.21,3.6,3.6,0,0,1,.75-2.39,2.46,2.46,0,0,1,2-.89,1.69,1.69,0,0,1,1.62.83h0V76.23h1.85Zm-1.81-2.92v-.45a1.45,1.45,0,0,0-.34-1,1.12,1.12,0,0,0-.89-.39,1.1,1.1,0,0,0-1,.49,2.23,2.23,0,0,0-.34,1.32,2,2,0,0,0,.33,1.22,1.18,1.18,0,0,0,1.84,0A1.87,1.87,0,0,0,178.63,82.19Z" fill="#1e1e1e"/>
      <path d="M187,85.11h-1.75v-.86h0a2,2,0,0,1-1.78,1,1.88,1.88,0,0,1-1.38-.5,1.79,1.79,0,0,1-.5-1.32q0-1.74,2.07-2l1.63-.22c0-.66-.36-1-1.07-1a3.7,3.7,0,0,0-2,.63V79.47a4.67,4.67,0,0,1,1.06-.35,5.7,5.7,0,0,1,1.22-.15A2.27,2.27,0,0,1,187,81.53Zm-1.74-2.44v-.4l-1.09.14c-.6.08-.9.35-.9.82a.64.64,0,0,0,.22.51.8.8,0,0,0,.59.21,1.1,1.1,0,0,0,.85-.36A1.31,1.31,0,0,0,185.27,82.67Z" fill="#1e1e1e"/>
      <path d="M192,85a2.62,2.62,0,0,1-1.23.22,1.76,1.76,0,0,1-2-2V80.48h-1V79.11h1V77.82l1.85-.53v1.82H192v1.37h-1.34V82.9c0,.63.24.94.74.94a1.27,1.27,0,0,0,.6-.17Z" fill="#1e1e1e"/>
      <path d="M198.18,85.11h-1.76v-.86h0a2,2,0,0,1-1.79,1,1.86,1.86,0,0,1-1.37-.5,1.79,1.79,0,0,1-.5-1.32q0-1.74,2.07-2l1.63-.22c0-.66-.36-1-1.07-1a3.7,3.7,0,0,0-2,.63V79.47a4.67,4.67,0,0,1,1.06-.35,5.63,5.63,0,0,1,1.22-.15,2.27,2.27,0,0,1,2.57,2.56Zm-1.74-2.44v-.4l-1.09.14c-.6.08-.91.35-.91.82a.67.67,0,0,0,.22.51.84.84,0,0,0,.6.21,1.1,1.1,0,0,0,.85-.36A1.31,1.31,0,0,0,196.44,82.67Z" fill="#1e1e1e"/>
    </g>
    <g>
      <path d="M72.91,321.19c0,2.52-1.17,3.79-3.52,3.79S66,323.74,66,321.28v-4.85h1.9v4.87c0,1.36.53,2,1.6,2s1.56-.66,1.56-2v-4.94h1.89Z" fill="#0072c6"/>
      <path d="M74.15,324.67v-1.5a4.06,4.06,0,0,0,.91.41,3,3,0,0,0,.86.14,1.76,1.76,0,0,0,.77-.14.44.44,0,0,0,.29-.41.36.36,0,0,0-.13-.29,1.33,1.33,0,0,0-.33-.21l-.44-.16a3.68,3.68,0,0,1-.47-.15,6.21,6.21,0,0,1-.63-.29,2.09,2.09,0,0,1-.45-.36,1.29,1.29,0,0,1-.28-.48,1.76,1.76,0,0,1-.1-.64,1.6,1.6,0,0,1,.22-.86,1.85,1.85,0,0,1,.58-.6,2.85,2.85,0,0,1,.84-.34,4.53,4.53,0,0,1,1-.11,5.52,5.52,0,0,1,.81.06,6.83,6.83,0,0,1,.81.18v1.43a3.12,3.12,0,0,0-.75-.31,3.64,3.64,0,0,0-.79-.1,1.79,1.79,0,0,0-.34,0l-.29.1a.49.49,0,0,0-.19.16.32.32,0,0,0-.07.22.4.4,0,0,0,.1.28,1.18,1.18,0,0,0,.28.2,1.88,1.88,0,0,0,.38.15l.41.14a6.16,6.16,0,0,1,.67.28,1.94,1.94,0,0,1,.51.36,1.58,1.58,0,0,1,.33.48,1.63,1.63,0,0,1,.11.66,1.69,1.69,0,0,1-.23.91,1.87,1.87,0,0,1-.61.61,3,3,0,0,1-.89.35,5,5,0,0,1-1,.11A5.41,5.41,0,0,1,74.15,324.67Z" fill="#0072c6"/>
      <path d="M85.26,322.36H81.34c.07.87.61,1.3,1.65,1.3a3.15,3.15,0,0,0,1.74-.47v1.34a4.53,4.53,0,0,1-2.16.45,2.8,2.8,0,0,1-3.06-3.06,3.19,3.19,0,0,1,.87-2.36,2.85,2.85,0,0,1,2.13-.88,2.63,2.63,0,0,1,2,.78,3,3,0,0,1,.72,2.12Zm-1.72-1.14c0-.86-.35-1.29-1-1.29a1,1,0,0,0-.77.37,1.68,1.68,0,0,0-.4.92Z" fill="#0072c6"/>
      <path d="M99.43,324.83H97.56v-5c0-.54,0-1.14.07-1.8h0c-.1.52-.19.89-.26,1.12l-2,5.71H93.8l-2-5.66a8.85,8.85,0,0,1-.27-1.17h0c0,.83.08,1.56.08,2.18v4.65H89.85v-8.4h2.77l1.72,5a6.58,6.58,0,0,1,.3,1.2h0A11.7,11.7,0,0,1,95,321.4l1.71-5h2.71Z" fill="#0072c6"/>
      <path d="M104,325a3.19,3.19,0,0,1-2.36-.85,3,3,0,0,1-.86-2.28,3.07,3.07,0,0,1,.89-2.33,3.37,3.37,0,0,1,2.41-.84,3.19,3.19,0,0,1,2.34.84,3,3,0,0,1,.85,2.23,3.16,3.16,0,0,1-.88,2.36A3.23,3.23,0,0,1,104,325Zm0-4.88a1.24,1.24,0,0,0-1,.45,2,2,0,0,0-.36,1.28c0,1.15.46,1.73,1.39,1.73s1.33-.59,1.33-1.78S104.92,320.1,104,320.1Z" fill="#0072c6"/>
      <path d="M114.35,324.83H112.5V324h0a2.08,2.08,0,0,1-1.86,1,2.28,2.28,0,0,1-1.81-.8,3.28,3.28,0,0,1-.69-2.22,3.59,3.59,0,0,1,.76-2.38,2.45,2.45,0,0,1,2-.9,1.7,1.7,0,0,1,1.62.83h0V316h1.85Zm-1.81-2.92v-.45a1.45,1.45,0,0,0-.34-1,1.14,1.14,0,0,0-.89-.39,1.12,1.12,0,0,0-1,.48,2.28,2.28,0,0,0-.35,1.33,2,2,0,0,0,.34,1.22,1.09,1.09,0,0,0,.92.43,1.12,1.12,0,0,0,.92-.45A1.87,1.87,0,0,0,112.54,321.91Z" fill="#0072c6"/>
      <path d="M121.3,322.36h-3.91c.06.87.61,1.3,1.64,1.3a3.15,3.15,0,0,0,1.74-.47v1.34a4.5,4.5,0,0,1-2.16.45,3,3,0,0,1-2.25-.81,3,3,0,0,1-.81-2.25,3.19,3.19,0,0,1,.87-2.36,2.87,2.87,0,0,1,2.13-.88,2.62,2.62,0,0,1,2,.78,3,3,0,0,1,.72,2.12Zm-1.72-1.14c0-.86-.34-1.29-1-1.29a1,1,0,0,0-.77.37,1.6,1.6,0,0,0-.39.92Z" fill="#0072c6"/>
      <path d="M124.33,324.83h-1.86V316h1.86Z" fill="#0072c6"/>
    </g>
    <g>
      <path d="M157.66,350.71h-1.87v-5c0-.54,0-1.14.07-1.79h-.05c-.1.51-.19.88-.26,1.11l-2,5.71H152l-2-5.65a9.31,9.31,0,0,1-.27-1.17h0c0,.82.08,1.55.08,2.18v4.64h-1.71v-8.4h2.77l1.72,5a6.58,6.58,0,0,1,.3,1.2h0a12.46,12.46,0,0,1,.34-1.21l1.71-5h2.71Z" fill="#1e1e1e"/>
      <path d="M164.37,350.71h-1.75v-.86h0a2,2,0,0,1-1.79,1,1.86,1.86,0,0,1-1.37-.5,1.79,1.79,0,0,1-.5-1.32q0-1.74,2.07-2l1.63-.22c0-.66-.36-1-1.07-1a3.7,3.7,0,0,0-2,.63v-1.39a4.67,4.67,0,0,1,1.06-.35,5.63,5.63,0,0,1,1.22-.15,2.27,2.27,0,0,1,2.57,2.56Zm-1.74-2.44v-.4l-1.09.14c-.6.08-.91.35-.91.82a.67.67,0,0,0,.22.51.84.84,0,0,0,.6.21,1.1,1.1,0,0,0,.85-.36A1.31,1.31,0,0,0,162.63,348.27Z" fill="#1e1e1e"/>
      <path d="M171.84,350.71h-2.22l-1.91-3h0v3h-1.85v-8.88h1.85v5.65h0l1.78-2.77h2.2l-2.15,2.82Z" fill="#1e1e1e"/>
      <path d="M177.76,348.24h-3.91c.06.87.61,1.31,1.64,1.31a3.24,3.24,0,0,0,1.74-.47v1.33a4.5,4.5,0,0,1-2.16.45,2.81,2.81,0,0,1-3.06-3.05,3.2,3.2,0,0,1,.87-2.37,2.9,2.9,0,0,1,2.13-.87,2.65,2.65,0,0,1,2,.77,3,3,0,0,1,.72,2.12ZM176,347.1c0-.86-.34-1.29-1-1.29a1,1,0,0,0-.77.37,1.63,1.63,0,0,0-.39.92Z" fill="#1e1e1e"/>
      <path d="M133.44,364.42h0v3.45h-1.85v-8.76h1.85v.9h0a2.19,2.19,0,0,1,1.93-1,2.14,2.14,0,0,1,1.8.8,3.4,3.4,0,0,1,.64,2.17,3.66,3.66,0,0,1-.75,2.41,2.4,2.4,0,0,1-2,.91A1.87,1.87,0,0,1,133.44,364.42Zm-.05-2.47v.48a1.53,1.53,0,0,0,.33,1,1.05,1.05,0,0,0,.86.39,1.12,1.12,0,0,0,1-.49,2.36,2.36,0,0,0,.35-1.38q0-1.59-1.23-1.59a1.18,1.18,0,0,0-.93.43A1.73,1.73,0,0,0,133.39,362Z" fill="#1e1e1e"/>
      <path d="M142.94,360.78a1.61,1.61,0,0,0-.78-.18,1.14,1.14,0,0,0-.94.44,2,2,0,0,0-.34,1.21v2.86H139v-6h1.85v1.12h0a1.59,1.59,0,0,1,1.58-1.22,1.12,1.12,0,0,1,.45.07Z" fill="#1e1e1e"/>
      <path d="M149.27,362.64h-3.91c.06.87.61,1.31,1.64,1.31a3.24,3.24,0,0,0,1.74-.47v1.33a4.5,4.5,0,0,1-2.16.45,2.81,2.81,0,0,1-3.06-3.05,3.2,3.2,0,0,1,.87-2.37,2.9,2.9,0,0,1,2.13-.87,2.6,2.6,0,0,1,2,.78,3,3,0,0,1,.72,2.11Zm-1.71-1.14q0-1.29-1.05-1.29a1,1,0,0,0-.77.37,1.63,1.63,0,0,0-.39.92Z" fill="#1e1e1e"/>
      <path d="M156.35,365.11H154.5v-.82h0a2.08,2.08,0,0,1-1.85,1,2.3,2.3,0,0,1-1.82-.8,3.28,3.28,0,0,1-.68-2.21,3.6,3.6,0,0,1,.75-2.39,2.48,2.48,0,0,1,2-.89,1.66,1.66,0,0,1,1.61.83h0v-3.57h1.85Zm-1.82-2.92v-.45a1.4,1.4,0,0,0-.34-1,1.12,1.12,0,0,0-.88-.39,1.1,1.1,0,0,0-1,.49,2.22,2.22,0,0,0-.35,1.32,2,2,0,0,0,.33,1.22,1.19,1.19,0,0,0,1.85,0A1.92,1.92,0,0,0,154.53,362.19Z" fill="#1e1e1e"/>
      <path d="M158.81,358.16a1.07,1.07,0,0,1-.77-.28.88.88,0,0,1-.3-.68.87.87,0,0,1,.3-.68,1.16,1.16,0,0,1,.77-.26,1.14,1.14,0,0,1,.77.26.87.87,0,0,1,.3.68.89.89,0,0,1-.3.69A1.1,1.1,0,0,1,158.81,358.16Zm.91,6.95h-1.85v-6h1.85Z" fill="#1e1e1e"/>
      <path d="M165.8,364.9a3.69,3.69,0,0,1-1.81.36,3.06,3.06,0,0,1-2.24-.84,2.89,2.89,0,0,1-.85-2.16,3.19,3.19,0,0,1,.91-2.41,3.4,3.4,0,0,1,2.46-.88,3.1,3.1,0,0,1,1.53.28v1.57a2.1,2.1,0,0,0-1.29-.44,1.82,1.82,0,0,0-1.29,3,1.66,1.66,0,0,0,1.23.45,2.42,2.42,0,0,0,1.35-.43Z" fill="#1e1e1e"/>
      <path d="M170.72,365a2.62,2.62,0,0,1-1.23.22,1.76,1.76,0,0,1-2-2v-2.75h-1v-1.37h1v-1.29l1.85-.53v1.82h1.34v1.37h-1.34v2.42c0,.63.24.94.74.94a1.24,1.24,0,0,0,.6-.17Z" fill="#1e1e1e"/>
      <path d="M172.77,358.16a1.07,1.07,0,0,1-.77-.28.88.88,0,0,1-.3-.68.87.87,0,0,1,.3-.68,1.16,1.16,0,0,1,.77-.26,1.14,1.14,0,0,1,.77.26.87.87,0,0,1,.3.68.89.89,0,0,1-.3.69A1.1,1.1,0,0,1,172.77,358.16Zm.91,6.95h-1.85v-6h1.85Z" fill="#1e1e1e"/>
      <path d="M178.08,365.26a3.23,3.23,0,0,1-2.36-.84,3,3,0,0,1-.86-2.28,3.05,3.05,0,0,1,.89-2.33,3.37,3.37,0,0,1,2.41-.84,3.19,3.19,0,0,1,2.34.84,3,3,0,0,1,.85,2.22,3.15,3.15,0,0,1-.88,2.36A3.23,3.23,0,0,1,178.08,365.26Zm0-4.88a1.24,1.24,0,0,0-1,.45,2,2,0,0,0-.36,1.28c0,1.15.46,1.73,1.39,1.73s1.33-.59,1.33-1.77S179,360.38,178.12,360.38Z" fill="#1e1e1e"/>
      <path d="M188.34,365.11h-1.85v-3.33c0-.93-.33-1.4-1-1.4a1,1,0,0,0-.79.37,1.4,1.4,0,0,0-.31.94v3.42h-1.86v-6h1.86v.95h0a2.11,2.11,0,0,1,1.93-1.09c1.32,0,2,.82,2,2.47Z" fill="#1e1e1e"/>
      <path d="M189.53,365v-1.5a3.5,3.5,0,0,0,.91.41,3,3,0,0,0,.86.14,1.83,1.83,0,0,0,.77-.14.43.43,0,0,0,.29-.41.41.41,0,0,0-.13-.29,1.08,1.08,0,0,0-.33-.2,3,3,0,0,0-.45-.16l-.46-.16a4.68,4.68,0,0,1-.63-.29,1.84,1.84,0,0,1-.46-.36,1.64,1.64,0,0,1-.28-.48,2,2,0,0,1-.09-.63,1.61,1.61,0,0,1,.22-.87,1.84,1.84,0,0,1,.58-.6,3,3,0,0,1,.84-.34,4.46,4.46,0,0,1,1-.1,5.52,5.52,0,0,1,.81.06,5.88,5.88,0,0,1,.81.18v1.43a3,3,0,0,0-.75-.31,3.17,3.17,0,0,0-.79-.1,2,2,0,0,0-.35,0,1.15,1.15,0,0,0-.28.09.51.51,0,0,0-.19.16.34.34,0,0,0-.07.22.4.4,0,0,0,.1.28.75.75,0,0,0,.28.2,2.72,2.72,0,0,0,.38.16l.41.13a7.13,7.13,0,0,1,.67.28,2.21,2.21,0,0,1,.51.36,1.58,1.58,0,0,1,.33.48,1.86,1.86,0,0,1,.11.66,1.76,1.76,0,0,1-.23.91,1.73,1.73,0,0,1-.62.61,2.66,2.66,0,0,1-.88.35,5,5,0,0,1-1,.11A5.17,5.17,0,0,1,189.53,365Z" fill="#1e1e1e"/>
    </g>
    <g>
      <path d="M134.47,202.85h-2.4v6.86h-1.9v-6.86h-2.38v-1.54h6.68Z" fill="#1e1e1e"/>
      <path d="M138.5,205.38a1.61,1.61,0,0,0-.78-.18,1.14,1.14,0,0,0-.94.44,1.93,1.93,0,0,0-.34,1.21v2.86h-1.85v-6h1.85v1.12h0a1.6,1.6,0,0,1,1.58-1.22,1.14,1.14,0,0,1,.46.07Z" fill="#1e1e1e"/>
      <path d="M144.27,209.71h-1.75v-.86h0a2,2,0,0,1-1.79,1,1.86,1.86,0,0,1-1.37-.5,1.75,1.75,0,0,1-.5-1.32q0-1.74,2.07-2l1.62-.22c0-.66-.35-1-1.06-1a3.65,3.65,0,0,0-2,.63v-1.39a4.67,4.67,0,0,1,1.06-.35,5.56,5.56,0,0,1,1.22-.15,2.26,2.26,0,0,1,2.56,2.56Zm-1.74-2.44v-.4l-1.09.14c-.6.08-.9.35-.9.82a.67.67,0,0,0,.22.51.84.84,0,0,0,.6.21,1.11,1.11,0,0,0,.85-.36A1.36,1.36,0,0,0,142.53,207.27Z" fill="#1e1e1e"/>
      <path d="M146.66,202.76a1.07,1.07,0,0,1-.77-.28.88.88,0,0,1-.3-.68.87.87,0,0,1,.3-.68,1.27,1.27,0,0,1,1.54,0,.86.86,0,0,1,.29.68.88.88,0,0,1-.29.69A1.11,1.11,0,0,1,146.66,202.76Zm.91,7h-1.85v-6h1.85Z" fill="#1e1e1e"/>
      <path d="M154.91,209.71h-1.85v-3.33c0-.93-.33-1.4-1-1.4a1,1,0,0,0-.79.37,1.41,1.41,0,0,0-.32.94v3.42h-1.85v-6H151v.95h0a2.11,2.11,0,0,1,1.93-1.09c1.32,0,2,.82,2,2.47Z" fill="#1e1e1e"/>
      <path d="M169.21,209.71h-1.84v-3.42c0-.87-.33-1.31-1-1.31a.87.87,0,0,0-.74.4,1.6,1.6,0,0,0-.29,1v3.36h-1.85v-3.46c0-.84-.31-1.27-.94-1.27a.91.91,0,0,0-.76.38,1.65,1.65,0,0,0-.28,1v3.33h-1.86v-6h1.86v.94h0a2.22,2.22,0,0,1,.8-.78,2.26,2.26,0,0,1,1.14-.3,1.72,1.72,0,0,1,1.74,1.11,2.23,2.23,0,0,1,2-1.11c1.31,0,2,.8,2,2.41Z" fill="#1e1e1e"/>
      <path d="M173.54,209.86a3.2,3.2,0,0,1-2.35-.84,3.47,3.47,0,0,1,0-4.61,3.35,3.35,0,0,1,2.41-.84,3.19,3.19,0,0,1,2.34.84,3,3,0,0,1,.85,2.22,3.15,3.15,0,0,1-.88,2.36A3.24,3.24,0,0,1,173.54,209.86Zm.05-4.88a1.23,1.23,0,0,0-1,.45,2,2,0,0,0-.36,1.28c0,1.15.46,1.73,1.39,1.73s1.33-.59,1.33-1.77S174.49,205,173.59,205Z" fill="#1e1e1e"/>
      <path d="M183.92,209.71h-1.85v-.82h0a2.11,2.11,0,0,1-1.86,1,2.27,2.27,0,0,1-1.81-.8,3.23,3.23,0,0,1-.69-2.21,3.55,3.55,0,0,1,.76-2.39,2.44,2.44,0,0,1,2-.89,1.69,1.69,0,0,1,1.62.83h0v-3.57h1.85Zm-1.82-2.92v-.45a1.4,1.4,0,0,0-.34-1,1.19,1.19,0,0,0-1.84.1,2.22,2.22,0,0,0-.35,1.32,1.89,1.89,0,0,0,.34,1.22,1.09,1.09,0,0,0,.92.43,1.12,1.12,0,0,0,.92-.45A1.86,1.86,0,0,0,182.1,206.79Z" fill="#1e1e1e"/>
      <path d="M190.87,207.24H187c.06.87.61,1.31,1.64,1.31a3.24,3.24,0,0,0,1.74-.47v1.33a4.5,4.5,0,0,1-2.16.45,2.79,2.79,0,0,1-3.06-3.05,3.2,3.2,0,0,1,.87-2.37,2.9,2.9,0,0,1,2.13-.87,2.65,2.65,0,0,1,2,.77,3,3,0,0,1,.72,2.12Zm-1.72-1.14c0-.86-.34-1.29-1-1.29a1,1,0,0,0-.77.37,1.72,1.72,0,0,0-.4.92Z" fill="#1e1e1e"/>
      <path d="M193.89,209.71H192v-8.88h1.85Z" fill="#1e1e1e"/>
    </g>
    <g>
      <path d="M21.89,140.71H20v-8.4h1.89Z" fill="#1e1e1e"/>
      <path d="M33.09,140.71H31.25v-3.42c0-.87-.32-1.31-1-1.31a.87.87,0,0,0-.74.4,1.6,1.6,0,0,0-.29,1v3.36H27.4v-3.46c0-.84-.31-1.27-.94-1.27a.91.91,0,0,0-.76.38,1.65,1.65,0,0,0-.28,1v3.33H23.56v-6h1.86v.94h0a2.22,2.22,0,0,1,.8-.78,2.26,2.26,0,0,1,1.14-.3,1.72,1.72,0,0,1,1.74,1.11,2.23,2.23,0,0,1,2-1.11c1.31,0,2,.8,2,2.41Z" fill="#1e1e1e"/>
      <path d="M36.43,140h0v3.46H34.56v-8.76h1.85v.9h0a2.19,2.19,0,0,1,1.93-1,2.14,2.14,0,0,1,1.8.8,3.4,3.4,0,0,1,.64,2.17,3.73,3.73,0,0,1-.74,2.41,2.43,2.43,0,0,1-2,.91A1.86,1.86,0,0,1,36.43,140Zm0-2.46V138a1.53,1.53,0,0,0,.33,1,1.06,1.06,0,0,0,.86.39,1.12,1.12,0,0,0,1-.49,2.36,2.36,0,0,0,.35-1.38q0-1.59-1.23-1.59a1.18,1.18,0,0,0-.93.43A1.73,1.73,0,0,0,36.38,137.55Z" fill="#1e1e1e"/>
      <path d="M45.93,136.38a1.59,1.59,0,0,0-.77-.18,1.14,1.14,0,0,0-.95.44,2,2,0,0,0-.34,1.21v2.86H42v-6h1.85v1.12h0a1.59,1.59,0,0,1,1.58-1.22,1.09,1.09,0,0,1,.45.07Z" fill="#1e1e1e"/>
      <path d="M49.74,140.86a3.23,3.23,0,0,1-2.36-.84,3.47,3.47,0,0,1,0-4.61,3.37,3.37,0,0,1,2.41-.84,3.18,3.18,0,0,1,2.34.84,3,3,0,0,1,.85,2.22,3.18,3.18,0,0,1-.87,2.36A3.27,3.27,0,0,1,49.74,140.86Zm0-4.88a1.26,1.26,0,0,0-1,.45,2,2,0,0,0-.36,1.28c0,1.15.47,1.73,1.4,1.73s1.33-.59,1.33-1.77S50.68,136,49.78,136Z" fill="#1e1e1e"/>
      <path d="M59.77,134.71l-2.24,6H55.42l-2.12-6h2l1,3.7a5.25,5.25,0,0,1,.21,1.07h0a6.11,6.11,0,0,1,.22-1l1.06-3.73Z" fill="#1e1e1e"/>
      <path d="M65.76,138.24H61.85c.06.87.61,1.31,1.65,1.31a3.24,3.24,0,0,0,1.74-.47v1.33a4.56,4.56,0,0,1-2.16.45,3,3,0,0,1-2.26-.81,3,3,0,0,1-.8-2.24,3.24,3.24,0,0,1,.86-2.37,2.9,2.9,0,0,1,2.14-.87,2.66,2.66,0,0,1,2,.77,3,3,0,0,1,.71,2.12Zm-1.71-1.14q0-1.29-1-1.29a1,1,0,0,0-.77.37,1.78,1.78,0,0,0-.39.92Z" fill="#1e1e1e"/>
      <path d="M79.7,140.71H77.86v-3.42c0-.87-.32-1.31-1-1.31a.87.87,0,0,0-.75.4,1.59,1.59,0,0,0-.28,1v3.36H74v-3.46c0-.84-.31-1.27-.94-1.27a.91.91,0,0,0-.76.38,1.65,1.65,0,0,0-.28,1v3.33H70.18v-6H72v.94h0a2.17,2.17,0,0,1,.81-.78,2.2,2.2,0,0,1,1.13-.3,1.72,1.72,0,0,1,1.74,1.11,2.23,2.23,0,0,1,2-1.11c1.3,0,2,.8,2,2.41Z" fill="#1e1e1e"/>
      <path d="M84,140.86a3.23,3.23,0,0,1-2.36-.84,3.47,3.47,0,0,1,0-4.61,3.37,3.37,0,0,1,2.41-.84,3.18,3.18,0,0,1,2.34.84,3,3,0,0,1,.85,2.22,3.18,3.18,0,0,1-.87,2.36A3.27,3.27,0,0,1,84,140.86Zm0-4.88a1.26,1.26,0,0,0-1,.45,2,2,0,0,0-.36,1.28c0,1.15.47,1.73,1.4,1.73s1.33-.59,1.33-1.77S85,136,84.08,136Z" fill="#1e1e1e"/>
      <path d="M94.41,140.71H92.56v-.82h0a2.09,2.09,0,0,1-1.86,1,2.28,2.28,0,0,1-1.81-.8,3.23,3.23,0,0,1-.69-2.21,3.6,3.6,0,0,1,.76-2.39,2.44,2.44,0,0,1,2-.89,1.69,1.69,0,0,1,1.62.83h0v-3.57h1.85Zm-1.81-2.92v-.45a1.45,1.45,0,0,0-.34-1,1.12,1.12,0,0,0-.89-.39,1.1,1.1,0,0,0-1,.49,2.23,2.23,0,0,0-.34,1.32A2,2,0,0,0,90.4,139a1.18,1.18,0,0,0,1.84,0A1.87,1.87,0,0,0,92.6,137.79Z" fill="#1e1e1e"/>
      <path d="M101.36,138.24H97.45c.06.87.61,1.31,1.64,1.31a3.24,3.24,0,0,0,1.74-.47v1.33a4.5,4.5,0,0,1-2.16.45,2.81,2.81,0,0,1-3.06-3.05,3.2,3.2,0,0,1,.87-2.37,2.9,2.9,0,0,1,2.13-.87,2.63,2.63,0,0,1,2,.77,3,3,0,0,1,.72,2.12Zm-1.71-1.14q0-1.29-1.05-1.29a1,1,0,0,0-.77.37,1.71,1.71,0,0,0-.39.92Z" fill="#1e1e1e"/>
      <path d="M104.39,140.71h-1.86v-8.88h1.86Z" fill="#1e1e1e"/>
    </g>
    <g>
      <path d="M222,140.41a5.46,5.46,0,0,1-2.4.45,4,4,0,0,1-3-1.14,4.16,4.16,0,0,1-1.11-3,4.45,4.45,0,0,1,1.24-3.27,4.38,4.38,0,0,1,3.23-1.25,6,6,0,0,1,2.08.31v1.82a3.71,3.71,0,0,0-1.92-.5,2.56,2.56,0,0,0-1.91.74,2.75,2.75,0,0,0-.73,2,2.69,2.69,0,0,0,.69,1.94,2.41,2.41,0,0,0,1.84.72,3.93,3.93,0,0,0,2-.54Z" fill="#1e1e1e"/>
      <path d="M227.18,136.38a1.61,1.61,0,0,0-.78-.18,1.12,1.12,0,0,0-.94.44,1.93,1.93,0,0,0-.34,1.21v2.86h-1.85v-6h1.85v1.12h0a1.59,1.59,0,0,1,1.58-1.22,1.14,1.14,0,0,1,.46.07Z" fill="#1e1e1e"/>
      <path d="M233.51,138.24h-3.92c.07.87.61,1.31,1.65,1.31a3.24,3.24,0,0,0,1.74-.47v1.33a4.56,4.56,0,0,1-2.16.45,2.79,2.79,0,0,1-3.06-3.05,3.2,3.2,0,0,1,.87-2.37,2.87,2.87,0,0,1,2.13-.87,2.66,2.66,0,0,1,2,.77,3,3,0,0,1,.72,2.12Zm-1.72-1.14c0-.86-.35-1.29-1-1.29a1,1,0,0,0-.77.37,1.72,1.72,0,0,0-.4.92Z" fill="#1e1e1e"/>
      <path d="M239.66,140.71h-1.75v-.86h0a2,2,0,0,1-1.79,1,1.86,1.86,0,0,1-1.37-.5,1.79,1.79,0,0,1-.5-1.32q0-1.74,2.07-2l1.63-.22c0-.66-.36-1-1.07-1a3.7,3.7,0,0,0-2,.63v-1.39a4.67,4.67,0,0,1,1.06-.35,5.63,5.63,0,0,1,1.22-.15,2.27,2.27,0,0,1,2.57,2.56Zm-1.74-2.44v-.4l-1.09.14c-.6.08-.91.35-.91.82a.67.67,0,0,0,.22.51.84.84,0,0,0,.6.21,1.1,1.1,0,0,0,.85-.36A1.31,1.31,0,0,0,237.92,138.27Z" fill="#1e1e1e"/>
      <path d="M244.66,140.64a2.64,2.64,0,0,1-1.24.22c-1.3,0-1.95-.68-1.95-2v-2.75h-1v-1.37h1v-1.29l1.84-.53v1.82h1.35v1.37h-1.35v2.42c0,.63.25.94.75.94a1.31,1.31,0,0,0,.6-.17Z" fill="#1e1e1e"/>
      <path d="M251.09,138.24h-3.92c.07.87.61,1.31,1.65,1.31a3.24,3.24,0,0,0,1.74-.47v1.33a4.56,4.56,0,0,1-2.16.45,2.79,2.79,0,0,1-3.06-3.05,3.2,3.2,0,0,1,.87-2.37,2.88,2.88,0,0,1,2.13-.87,2.66,2.66,0,0,1,2,.77,3,3,0,0,1,.72,2.12Zm-1.72-1.14c0-.86-.35-1.29-1-1.29a1,1,0,0,0-.77.37,1.72,1.72,0,0,0-.4.92Z" fill="#1e1e1e"/>
      <path d="M257.37,140h0v3.46H255.5v-8.76h1.85v.9h0a2.19,2.19,0,0,1,1.93-1,2.14,2.14,0,0,1,1.8.8,3.34,3.34,0,0,1,.64,2.17A3.73,3.73,0,0,1,261,140a2.41,2.41,0,0,1-2,.91A1.86,1.86,0,0,1,257.37,140Zm-.05-2.46V138a1.53,1.53,0,0,0,.33,1,1.08,1.08,0,0,0,.86.39,1.12,1.12,0,0,0,1-.49,2.36,2.36,0,0,0,.35-1.38q0-1.59-1.23-1.59a1.18,1.18,0,0,0-.93.43A1.73,1.73,0,0,0,257.32,137.55Z" fill="#1e1e1e"/>
      <path d="M263.88,133.76a1.05,1.05,0,0,1-.76-.28.88.88,0,0,1-.3-.68.87.87,0,0,1,.3-.68,1.26,1.26,0,0,1,1.53,0,.87.87,0,0,1,.3.68.89.89,0,0,1-.3.69A1.08,1.08,0,0,1,263.88,133.76Zm.92,7H263v-6h1.85Z" fill="#1e1e1e"/>
      <path d="M268.21,140h0v3.46h-1.86v-8.76h1.86v.9h0a2.19,2.19,0,0,1,1.93-1,2.15,2.15,0,0,1,1.8.8,3.4,3.4,0,0,1,.64,2.17,3.68,3.68,0,0,1-.75,2.41,2.4,2.4,0,0,1-2,.91A1.86,1.86,0,0,1,268.21,140Zm0-2.46V138a1.53,1.53,0,0,0,.33,1,1.05,1.05,0,0,0,.86.39,1.12,1.12,0,0,0,1-.49,2.36,2.36,0,0,0,.35-1.38q0-1.59-1.23-1.59a1.18,1.18,0,0,0-.93.43A1.73,1.73,0,0,0,268.16,137.55Z" fill="#1e1e1e"/>
      <path d="M279.22,138.24H275.3c.06.87.61,1.31,1.65,1.31a3.24,3.24,0,0,0,1.74-.47v1.33a4.56,4.56,0,0,1-2.16.45,2.79,2.79,0,0,1-3.06-3.05,3.24,3.24,0,0,1,.86-2.37,2.9,2.9,0,0,1,2.14-.87,2.66,2.66,0,0,1,2,.77,3,3,0,0,1,.72,2.12Zm-1.72-1.14c0-.86-.35-1.29-1-1.29a1,1,0,0,0-.77.37,1.72,1.72,0,0,0-.4.92Z" fill="#1e1e1e"/>
      <path d="M282.24,140.71h-1.85v-8.88h1.85Z" fill="#1e1e1e"/>
      <path d="M284.71,133.76a1.06,1.06,0,0,1-.77-.28.88.88,0,0,1-.3-.68.87.87,0,0,1,.3-.68,1.14,1.14,0,0,1,.77-.26,1.16,1.16,0,0,1,.77.26.89.89,0,0,1,.29.68.91.91,0,0,1-.29.69A1.11,1.11,0,0,1,284.71,133.76Zm.91,7h-1.85v-6h1.85Z" fill="#1e1e1e"/>
      <path d="M293,140.71h-1.84v-3.33c0-.93-.33-1.4-1-1.4a1,1,0,0,0-.79.37,1.4,1.4,0,0,0-.31.94v3.42h-1.85v-6H289v.95h0a2.12,2.12,0,0,1,1.93-1.09c1.33,0,2,.82,2,2.47Z" fill="#1e1e1e"/>
      <path d="M299.84,138.24h-3.92c.07.87.62,1.31,1.65,1.31a3.24,3.24,0,0,0,1.74-.47v1.33a4.5,4.5,0,0,1-2.16.45,2.79,2.79,0,0,1-3.06-3.05,3.2,3.2,0,0,1,.87-2.37,2.9,2.9,0,0,1,2.13-.87,2.65,2.65,0,0,1,2,.77,3,3,0,0,1,.72,2.12Zm-1.72-1.14c0-.86-.35-1.29-1-1.29a1,1,0,0,0-.77.37,1.72,1.72,0,0,0-.4.92Z" fill="#1e1e1e"/>
    </g>
  </g>
</svg>
