<svg id="Shapes" xmlns="http://www.w3.org/2000/svg" viewBox="0 0 50.05 50">
  <title>multiclass-classification</title>
  <path d="M30.15,10.87a2.63,2.63,0,1,1,2.63,2.63A2.63,2.63,0,0,1,30.15,10.87Z" fill="#4d79c7"/>
  <path d="M37.38,10.87A2.63,2.63,0,1,1,40,13.5,2.63,2.63,0,0,1,37.38,10.87Z" fill="#4d79c7"/>
  <path d="M0,10.87A2.63,2.63,0,1,1,2.65,13.5,2.62,2.62,0,0,1,0,10.87Z" fill="#4d79c7"/>
  <path d="M15.06,2.63a2.64,2.64,0,1,1,2.63,2.63A2.63,2.63,0,0,1,15.06,2.63Z" fill="#4d79c7"/>
  <path d="M7.45,5.27h5.27L10.08,0Z" fill="#4d79c7"/>
  <path d="M22.73,13.5H28L25.36,8.23Z" fill="#4d79c7"/>
  <path d="M37.38,5.27h5.26L40,0Z" fill="#4d79c7"/>
  <path d="M44.79,13.5h5.26L47.42,8.23Z" fill="#4d79c7"/>
  <path d="M28,5.27V0H22.73V5.27Z" fill="#4d79c7"/>
  <path d="M5.28,5.27V0H0V5.27Z" fill="#4d79c7"/>
  <path d="M20.33,13.5V8.23H15.06V13.5Z" fill="#4d79c7"/>
  <path d="M50.05,5.27V0H44.79V5.27Z" fill="#4d79c7"/>
  <path d="M37.67,40.08a2.63,2.63,0,1,1,2.63,2.63A2.63,2.63,0,0,1,37.67,40.08Z" fill="#4d79c7"/>
  <path d="M44.79,40.08a2.63,2.63,0,1,1,2.63,2.63A2.64,2.64,0,0,1,44.79,40.08Z" fill="#4d79c7"/>
  <path d="M37.67,47.37A2.63,2.63,0,1,1,40.3,50,2.62,2.62,0,0,1,37.67,47.37Z" fill="#4d79c7"/>
  <path d="M44.79,47.37A2.63,2.63,0,1,1,47.42,50,2.63,2.63,0,0,1,44.79,47.37Z" fill="#4d79c7"/>
  <path d="M18.77,42.71H24l-2.63-5.27Z" fill="#4d79c7"/>
  <path d="M26.23,42.71h5.26l-2.63-5.27Z" fill="#4d79c7"/>
  <path d="M18.77,50H24l-2.63-5.27Z" fill="#4d79c7"/>
  <path d="M26.23,50h5.26l-2.63-5.27Z" fill="#4d79c7"/>
  <path d="M12.72,42.71V37.44H7.46v5.27Z" fill="#4d79c7"/>
  <path d="M5.26,42.71V37.44H0v5.27Z" fill="#4d79c7"/>
  <path d="M12.72,50V44.73H7.46V50Z" fill="#4d79c7"/>
  <path d="M5.26,50V44.73H0V50Z" fill="#4d79c7"/>
  <path d="M6.47,32.27,11.75,27H9.08v-7.9H3.8V27H1.18Z"/>
  <path d="M25.16,32.27,30.44,27H27.77v-7.9H22.49V27H19.87Z"/>
  <path d="M43.85,32.27,49.13,27H46.46v-7.9H41.18V27H38.56Z"/>
</svg>
