<svg id="Shapes" xmlns="http://www.w3.org/2000/svg" viewBox="0 0 50 50">
  <title>regression</title>
  <path d="M16.1,18l-1.56.8L16.15,22l1.56-.8Z" fill="#3c3c41"/>
  <path d="M6.23,16.69,3.85,19.28l1.3,1.18,2.37-2.58Z" fill="#3c3c41"/>
  <path d="M.15,23.35,1,25,3.37,22.4l-1.3-1.19Z" fill="#3c3c41"/>
  <path d="M44.49,28.28l-1.45,1,2,2.9,1.45-1Z" fill="#3c3c41"/>
  <path d="M47.94,33.37l-1.46,1,2,2.9,1.45-1Z" fill="#3c3c41"/>
  <path d="M41,23.2l-1.45,1,.15.21h2.11Z" fill="#3c3c41"/>
  <path d="M41.55,27.09l1.45-1-.26-.39H40.62Z" fill="#3c3c41"/>
  <path d="M39.73,24.4l.89,1.32h2.12l-.9-1.32Z" fill="#3c3c41"/>
  <path d="M32.78,23.21l1.47.95.38-.59a5.49,5.49,0,0,1-1.45-1Z" fill="#3c3c41"/>
  <path d="M21.72,29l-1.56.79,1.5,2.92a5.37,5.37,0,0,1,1.54-.85Z" fill="#3c3c41"/>
  <path d="M29.5,31.54,28,30.59,27.09,32a5.26,5.26,0,0,1,1.45,1Z" fill="#3c3c41"/>
  <path d="M11.9,7.85A3.94,3.94,0,1,1,8,11.79,3.93,3.93,0,0,1,11.9,7.85Z" fill="#3c3c41"/>
  <path d="M24.89,32.86A3.94,3.94,0,1,1,21,36.8,3.93,3.93,0,0,1,24.89,32.86Z" fill="#3c3c41"/>
  <path d="M36.82,14.85a3.94,3.94,0,1,1-3.93,3.94A3.93,3.93,0,0,1,36.82,14.85Z" fill="#3c3c41"/>
  <path d="M0,0V50H50V0ZM30.15,36.8a6.47,6.47,0,0,1,0,.76h6.1V48.68H25.67V42a6.65,6.65,0,0,1-.78.06l-.54,0v6.64H12.55V37.56h7.14a6.19,6.19,0,0,1-.05-.76,3.32,3.32,0,0,1,0-.55H12.55V25.72h11.8v5.85a4.89,4.89,0,0,1,.54,0,4,4,0,0,1,.78.07V25.72h5.5l.19-.3.46.3H36.2V36.25H30.12A4.93,4.93,0,0,1,30.15,36.8Zm-18.91-.55H1.32V25.72h9.92ZM37.52,25.72h3.1l-.89-1.32H37.52V24a5.37,5.37,0,0,1-.7,0c-.21,0-.42,0-.62,0v.39H25.67V12.61H36.2v1a4.22,4.22,0,0,1,.62,0,5.48,5.48,0,0,1,.7,0v-1H48.68V24.4H41.84l.9,1.32h5.94V36.25H37.52ZM25.67,11.29v-10H36.2v10Zm23,0H37.52v-10H48.68Zm-37.43-10V6.58a5.38,5.38,0,0,1,1.31,0V1.32H24.35v10H17.14a4.19,4.19,0,0,1,0,.5,5.55,5.55,0,0,1-.06.82h7.24V24.4H12.55V17c-.21,0-.42,0-.65,0a4.87,4.87,0,0,1-.66,0V24.4H1.32V12.61H6.71a5.55,5.55,0,0,1-.06-.82,4.19,4.19,0,0,1,0-.5H1.32v-10ZM1.32,37.56h9.92V48.68H1.32Zm36.2,11.12V37.56H48.68V48.68Z" fill="#4d79c7"/>
  <path d="M20.52,26.61l-1.61-3.12-1.56.81L19,27.42" fill="#3c3c41"/>
  <path d="M31.91,24.59l-2.58,3.9,1.48,1,2.58-3.91Z" fill="#3c3c41"/>
</svg>
