<svg xmlns="http://www.w3.org/2000/svg" viewBox="0 0 18 18"><defs><linearGradient id="a" x1="9" y1="19.13" x2="9" y2="-.29" gradientUnits="userSpaceOnUse"><stop offset="0" stop-color="#0078d4"/><stop offset=".16" stop-color="#1380da"/><stop offset=".53" stop-color="#3c91e5"/><stop offset=".82" stop-color="#559cec"/><stop offset="1" stop-color="#5ea0ef"/></linearGradient></defs><path d="M18 11.38a4 4 0 00-3.51-3.88 5.1 5.1 0 00-5.25-4.88A5.25 5.25 0 004.22 6 4.8 4.8 0 000 10.67a4.9 4.9 0 005.07 4.71h8.65a.78.78 0 00.22 0 4.1 4.1 0 004.06-4z" fill="url(#a)"/><path d="M5.42 10.39h-.88a1.09 1.09 0 100 .49h.88a.2.2 0 01.2.2v4.3h.49v-4.3a.69.69 0 00-.69-.69zm-1.95.88a.64.64 0 11.64-.64.64.64 0 01-.64.64z" fill="#9cebff"/><path d="M8.94 10.61v-1a.7.7 0 00-.7-.7H6.69a.2.2 0 01-.2-.2V3.4l-.23.12-.26.14v5a.69.69 0 00.69.69h1.55a.21.21 0 01.21.21v1a1.08 1.08 0 00-.85 1.06 1.09 1.09 0 101.34-1.06zm-.25 1.7a.64.64 0 11.64-.64.64.64 0 01-.64.64z" fill="#f2f2f2"/><path d="M14.53 8.5a1.09 1.09 0 00-.25 2.15v.2a.21.21 0 01-.21.21h-2V7.54a.69.69 0 00-.69-.69h-1.03A1.08 1.08 0 009.29 6a1.09 1.09 0 101.06 1.34h1.07a.2.2 0 01.2.2v7.84h.49v-3.83h2a.7.7 0 00.7-.7v-.2a1.09 1.09 0 00.85-1.06 1.09 1.09 0 00-1.13-1.09zm-5.24-.77a.64.64 0 11.64-.64.64.64 0 01-.64.64zm5.24 2.5a.64.64 0 11.63-.64.64.64 0 01-.63.64z" fill="#9cebff"/></svg>