<?xml version="1.0" encoding="UTF-8" standalone="no"?>
<!DOCTYPE svg PUBLIC "-//W3C//DTD SVG 1.1//EN" "http://www.w3.org/Graphics/SVG/1.1/DTD/svg11.dtd">
<!-- Generated by Microsoft Visio, SVG Export event-counters.svg Page-1 -->
<svg xmlns="http://www.w3.org/2000/svg" xmlns:xlink="http://www.w3.org/1999/xlink" xmlns:ev="http://www.w3.org/2001/xml-events"
		xmlns:v="http://schemas.microsoft.com/visio/2003/SVGExtensions/" width="7.17708in" height="3.18403in"
		viewBox="0 0 516.75 229.25" xml:space="preserve" color-interpolation-filters="sRGB" class="st10">
	<v:documentProperties v:langID="1033" v:viewMarkup="false">
		<v:userDefs>
			<v:ud v:nameU="msvSubprocessMaster" v:prompt="" v:val="VT4(Rectangle)"/>
			<v:ud v:nameU="msvNoAutoConnect" v:val="VT0(1):26"/>
		</v:userDefs>
	</v:documentProperties>

	<style type="text/css">
	<![CDATA[
		.st1 {fill:#000000;stroke:#7030a0;stroke-width:2.25}
		.st2 {fill:none;stroke:none;stroke-width:0.25}
		.st3 {fill:#ffffff;font-family:Fira Code Retina;font-size:1.00001em}
		.st4 {fill:#7030a0;stroke:#c7c8c8;stroke-width:0.25}
		.st5 {fill:#feffff;font-family:Fira Code Retina;font-size:0.833336em}
		.st6 {fill:none;stroke:#ffc000;stroke-dasharray:10.5,7.5;stroke-width:1.5}
		.st7 {fill:#7030a0;stroke:#30518f;stroke-width:0.75}
		.st8 {fill:#ffffff;stroke:#7030a0;stroke-width:0.5}
		.st9 {fill:#4672c4;font-family:Fira Code Retina;font-size:1.00001em}
		.st10 {fill:none;fill-rule:evenodd;font-size:12px;overflow:visible;stroke-linecap:square;stroke-miterlimit:3}
	]]>
	</style>

	<g v:mID="0" v:index="1" v:groupContext="foregroundPage">
		<v:userDefs>
			<v:ud v:nameU="msvThemeOrder" v:val="VT0(0):26"/>
		</v:userDefs>
		<title>Page-1</title>
		<v:pageProperties v:drawingScale="1" v:pageScale="1" v:drawingUnits="0" v:shadowOffsetX="9" v:shadowOffsetY="-9"/>
		<g id="shape1-1" v:mID="1" v:groupContext="shape" transform="translate(20.2498,-39.75)">
			<title>Rounded Rectangle</title>
			<v:userDefs>
				<v:ud v:nameU="CTypeTopLeftSnip" v:prompt="" v:val="VT0(0):5"/>
				<v:ud v:nameU="CTypeTopRightSnip" v:prompt="" v:val="VT0(0):5"/>
				<v:ud v:nameU="CTypeBotLeftSnip" v:prompt="" v:val="VT0(0):5"/>
				<v:ud v:nameU="CTypeBotRightSnip" v:prompt="" v:val="VT0(0):5"/>
				<v:ud v:nameU="CornerLockHoriz" v:prompt="" v:val="VT0(1):5"/>
				<v:ud v:nameU="CornerLockVert" v:prompt="" v:val="VT0(1):5"/>
				<v:ud v:nameU="CornerLockDiag" v:prompt="" v:val="VT0(0):5"/>
				<v:ud v:nameU="TopLeftOffset" v:prompt="" v:val="VT0(0.15):1"/>
				<v:ud v:nameU="TopRightOffset" v:prompt="" v:val="VT0(0.15):1"/>
				<v:ud v:nameU="BotLeftOffset" v:prompt="" v:val="VT0(0.15):1"/>
				<v:ud v:nameU="BotRightOffset" v:prompt="" v:val="VT0(0.15):1"/>
				<v:ud v:nameU="visVersion" v:prompt="" v:val="VT0(15):26"/>
			</v:userDefs>
			<path d="M10.8 229.25 L97.2 229.25 A10.7998 10.7998 -180 0 0 108 218.45 L108 78.05 A10.7998 10.7998 -180 0 0 97.2 67.25
						 L10.8 67.25 A10.7998 10.7998 -180 0 0 0 78.05 L0 218.45 A10.7998 10.7998 -180 0 0 10.8 229.25 Z"
					class="st1"/>
		</g>
		<g id="shape2-3" v:mID="2" v:groupContext="shape" transform="translate(29.2498,-30.75)">
			<title>Rounded Rectangle.2</title>
			<v:userDefs>
				<v:ud v:nameU="CTypeTopLeftSnip" v:prompt="" v:val="VT0(0):5"/>
				<v:ud v:nameU="CTypeTopRightSnip" v:prompt="" v:val="VT0(0):5"/>
				<v:ud v:nameU="CTypeBotLeftSnip" v:prompt="" v:val="VT0(0):5"/>
				<v:ud v:nameU="CTypeBotRightSnip" v:prompt="" v:val="VT0(0):5"/>
				<v:ud v:nameU="CornerLockHoriz" v:prompt="" v:val="VT0(1):5"/>
				<v:ud v:nameU="CornerLockVert" v:prompt="" v:val="VT0(1):5"/>
				<v:ud v:nameU="CornerLockDiag" v:prompt="" v:val="VT0(0):5"/>
				<v:ud v:nameU="TopLeftOffset" v:prompt="" v:val="VT0(0.15):1"/>
				<v:ud v:nameU="TopRightOffset" v:prompt="" v:val="VT0(0.15):1"/>
				<v:ud v:nameU="BotLeftOffset" v:prompt="" v:val="VT0(0.15):1"/>
				<v:ud v:nameU="BotRightOffset" v:prompt="" v:val="VT0(0.15):1"/>
				<v:ud v:nameU="visVersion" v:prompt="" v:val="VT0(15):26"/>
			</v:userDefs>
			<path d="M10.8 229.25 L97.2 229.25 A10.7998 10.7998 -180 0 0 108 218.45 L108 78.05 A10.7998 10.7998 -180 0 0 97.2 67.25
						 L10.8 67.25 A10.7998 10.7998 -180 0 0 0 78.05 L0 218.45 A10.7998 10.7998 -180 0 0 10.8 229.25 Z"
					class="st1"/>
		</g>
		<g id="shape3-5" v:mID="3" v:groupContext="shape" transform="translate(38.2498,-21.75)">
			<title>Rounded Rectangle.3</title>
			<v:userDefs>
				<v:ud v:nameU="CTypeTopLeftSnip" v:prompt="" v:val="VT0(0):5"/>
				<v:ud v:nameU="CTypeTopRightSnip" v:prompt="" v:val="VT0(0):5"/>
				<v:ud v:nameU="CTypeBotLeftSnip" v:prompt="" v:val="VT0(0):5"/>
				<v:ud v:nameU="CTypeBotRightSnip" v:prompt="" v:val="VT0(0):5"/>
				<v:ud v:nameU="CornerLockHoriz" v:prompt="" v:val="VT0(1):5"/>
				<v:ud v:nameU="CornerLockVert" v:prompt="" v:val="VT0(1):5"/>
				<v:ud v:nameU="CornerLockDiag" v:prompt="" v:val="VT0(0):5"/>
				<v:ud v:nameU="TopLeftOffset" v:prompt="" v:val="VT0(0.15):1"/>
				<v:ud v:nameU="TopRightOffset" v:prompt="" v:val="VT0(0.15):1"/>
				<v:ud v:nameU="BotLeftOffset" v:prompt="" v:val="VT0(0.15):1"/>
				<v:ud v:nameU="BotRightOffset" v:prompt="" v:val="VT0(0.15):1"/>
				<v:ud v:nameU="visVersion" v:prompt="" v:val="VT0(15):26"/>
			</v:userDefs>
			<path d="M10.8 229.25 L97.2 229.25 A10.7998 10.7998 -180 0 0 108 218.45 L108 78.05 A10.7998 10.7998 -180 0 0 97.2 67.25
						 L10.8 67.25 A10.7998 10.7998 -180 0 0 0 78.05 L0 218.45 A10.7998 10.7998 -180 0 0 10.8 229.25 Z"
					class="st1"/>
		</g>
		<g id="shape4-7" v:mID="4" v:groupContext="shape" transform="translate(42.7498,-152.25)">
			<title>Sheet.4</title>
			<desc>EventSource</desc>
			<v:textBlock v:margins="rect(4,4,4,4)"/>
			<v:textRect cx="49.5" cy="220.25" width="99" height="18"/>
			<rect x="0" y="211.25" width="99" height="18" class="st2"/>
			<text x="9.9" y="223.85" class="st3" v:langID="1033"><v:paragraph v:horizAlign="1"/><v:tabList/>EventSource</text>		</g>
		<g id="shape5-10" v:mID="5" v:groupContext="shape" transform="translate(47.2498,-105)">
			<title>Rounded Rectangle.5</title>
			<desc>EventCounter</desc>
			<v:userDefs>
				<v:ud v:nameU="CTypeTopLeftSnip" v:prompt="" v:val="VT0(0):5"/>
				<v:ud v:nameU="CTypeTopRightSnip" v:prompt="" v:val="VT0(0):5"/>
				<v:ud v:nameU="CTypeBotLeftSnip" v:prompt="" v:val="VT0(0):5"/>
				<v:ud v:nameU="CTypeBotRightSnip" v:prompt="" v:val="VT0(0):5"/>
				<v:ud v:nameU="CornerLockHoriz" v:prompt="" v:val="VT0(1):5"/>
				<v:ud v:nameU="CornerLockVert" v:prompt="" v:val="VT0(1):5"/>
				<v:ud v:nameU="CornerLockDiag" v:prompt="" v:val="VT0(0):5"/>
				<v:ud v:nameU="TopLeftOffset" v:prompt="" v:val="VT0(0.15):1"/>
				<v:ud v:nameU="TopRightOffset" v:prompt="" v:val="VT0(0.15):1"/>
				<v:ud v:nameU="BotLeftOffset" v:prompt="" v:val="VT0(0.15):1"/>
				<v:ud v:nameU="BotRightOffset" v:prompt="" v:val="VT0(0.15):1"/>
				<v:ud v:nameU="visVersion" v:prompt="" v:val="VT0(15):26"/>
				<v:ud v:nameU="TopLeftOffset" v:prompt="" v:val="VT0(0.12499999929999):1"/>
				<v:ud v:nameU="TopRightOffset" v:prompt="" v:val="VT0(0.12499999929999):1"/>
				<v:ud v:nameU="BotLeftOffset" v:prompt="" v:val="VT0(0.12499999929999):1"/>
				<v:ud v:nameU="BotRightOffset" v:prompt="" v:val="VT0(0.12499999929999):1"/>
			</v:userDefs>
			<v:textBlock v:margins="rect(4,4,4,4)"/>
			<v:textRect cx="45" cy="215.75" width="90" height="27"/>
			<path d="M9 229.25 L81 229.25 A8.99985 8.99985 -180 0 0 90 220.25 L90 211.25 A8.99985 8.99985 -180 0 0 81 202.25 L9 202.25
						 A8.99985 8.99985 -180 0 0 0 211.25 L0 220.25 A8.99985 8.99985 -180 0 0 9 229.25 Z" class="st4"/>
			<text x="9" y="218.75" class="st5" v:langID="1033"><v:paragraph v:horizAlign="1"/><v:tabList/>EventCounter</text>		</g>
		<g id="shape6-13" v:mID="6" v:groupContext="shape" transform="translate(47.2498,-69)">
			<title>Rounded Rectangle.6</title>
			<desc>EventCounter</desc>
			<v:userDefs>
				<v:ud v:nameU="CTypeTopLeftSnip" v:prompt="" v:val="VT0(0):5"/>
				<v:ud v:nameU="CTypeTopRightSnip" v:prompt="" v:val="VT0(0):5"/>
				<v:ud v:nameU="CTypeBotLeftSnip" v:prompt="" v:val="VT0(0):5"/>
				<v:ud v:nameU="CTypeBotRightSnip" v:prompt="" v:val="VT0(0):5"/>
				<v:ud v:nameU="CornerLockHoriz" v:prompt="" v:val="VT0(1):5"/>
				<v:ud v:nameU="CornerLockVert" v:prompt="" v:val="VT0(1):5"/>
				<v:ud v:nameU="CornerLockDiag" v:prompt="" v:val="VT0(0):5"/>
				<v:ud v:nameU="TopLeftOffset" v:prompt="" v:val="VT0(0.15):1"/>
				<v:ud v:nameU="TopRightOffset" v:prompt="" v:val="VT0(0.15):1"/>
				<v:ud v:nameU="BotLeftOffset" v:prompt="" v:val="VT0(0.15):1"/>
				<v:ud v:nameU="BotRightOffset" v:prompt="" v:val="VT0(0.15):1"/>
				<v:ud v:nameU="visVersion" v:prompt="" v:val="VT0(15):26"/>
				<v:ud v:nameU="TopLeftOffset" v:prompt="" v:val="VT0(0.12499999929999):1"/>
				<v:ud v:nameU="TopRightOffset" v:prompt="" v:val="VT0(0.12499999929999):1"/>
				<v:ud v:nameU="BotLeftOffset" v:prompt="" v:val="VT0(0.12499999929999):1"/>
				<v:ud v:nameU="BotRightOffset" v:prompt="" v:val="VT0(0.12499999929999):1"/>
			</v:userDefs>
			<v:textBlock v:margins="rect(4,4,4,4)"/>
			<v:textRect cx="45" cy="215.75" width="90" height="27"/>
			<path d="M9 229.25 L81 229.25 A8.99985 8.99985 -180 0 0 90 220.25 L90 211.25 A8.99985 8.99985 -180 0 0 81 202.25 L9 202.25
						 A8.99985 8.99985 -180 0 0 0 211.25 L0 220.25 A8.99985 8.99985 -180 0 0 9 229.25 Z" class="st4"/>
			<text x="9" y="218.75" class="st5" v:langID="1033"><v:paragraph v:horizAlign="1"/><v:tabList/>EventCounter</text>		</g>
		<g id="shape7-16" v:mID="7" v:groupContext="shape" transform="translate(47.2498,-33)">
			<title>Rounded Rectangle.7</title>
			<desc>EventCounter</desc>
			<v:userDefs>
				<v:ud v:nameU="CTypeTopLeftSnip" v:prompt="" v:val="VT0(0):5"/>
				<v:ud v:nameU="CTypeTopRightSnip" v:prompt="" v:val="VT0(0):5"/>
				<v:ud v:nameU="CTypeBotLeftSnip" v:prompt="" v:val="VT0(0):5"/>
				<v:ud v:nameU="CTypeBotRightSnip" v:prompt="" v:val="VT0(0):5"/>
				<v:ud v:nameU="CornerLockHoriz" v:prompt="" v:val="VT0(1):5"/>
				<v:ud v:nameU="CornerLockVert" v:prompt="" v:val="VT0(1):5"/>
				<v:ud v:nameU="CornerLockDiag" v:prompt="" v:val="VT0(0):5"/>
				<v:ud v:nameU="TopLeftOffset" v:prompt="" v:val="VT0(0.15):1"/>
				<v:ud v:nameU="TopRightOffset" v:prompt="" v:val="VT0(0.15):1"/>
				<v:ud v:nameU="BotLeftOffset" v:prompt="" v:val="VT0(0.15):1"/>
				<v:ud v:nameU="BotRightOffset" v:prompt="" v:val="VT0(0.15):1"/>
				<v:ud v:nameU="visVersion" v:prompt="" v:val="VT0(15):26"/>
				<v:ud v:nameU="TopLeftOffset" v:prompt="" v:val="VT0(0.12499999929999):1"/>
				<v:ud v:nameU="TopRightOffset" v:prompt="" v:val="VT0(0.12499999929999):1"/>
				<v:ud v:nameU="BotLeftOffset" v:prompt="" v:val="VT0(0.12499999929999):1"/>
				<v:ud v:nameU="BotRightOffset" v:prompt="" v:val="VT0(0.12499999929999):1"/>
			</v:userDefs>
			<v:textBlock v:margins="rect(4,4,4,4)"/>
			<v:textRect cx="45" cy="215.75" width="90" height="27"/>
			<path d="M9 229.25 L81 229.25 A8.99985 8.99985 -180 0 0 90 220.25 L90 211.25 A8.99985 8.99985 -180 0 0 81 202.25 L9 202.25
						 A8.99985 8.99985 -180 0 0 0 211.25 L0 220.25 A8.99985 8.99985 -180 0 0 9 229.25 Z" class="st4"/>
			<text x="9" y="218.75" class="st5" v:langID="1033"><v:paragraph v:horizAlign="1"/><v:tabList/>EventCounter</text>		</g>
		<g id="group1000-19" transform="translate(173.25,-96)" v:mID="1000" v:groupContext="group">
			<title>Sheet.1000</title>
			<g id="shape14-20" v:mID="14" v:groupContext="shape">
				<title>Rectangle</title>
				<desc>Out-of-proc</desc>
				<v:userDefs>
					<v:ud v:nameU="visVersion" v:val="VT0(15):26"/>
				</v:userDefs>
				<v:textBlock v:margins="rect(4,4,4,4)"/>
				<v:textRect cx="162" cy="176.375" width="324" height="105.75"/>
				<path d="M0 229.25 L324 229.25 L324 123.5 L0 123.5 L0 229.25 Z" class="st6"/>
				<text x="129" y="179.38" class="st5" v:langID="1033"><v:paragraph v:horizAlign="1"/><v:tabList/>Out-of-proc</text>			</g>
			<g id="group15-23" transform="translate(36,-10.6875)" v:mID="15" v:groupContext="group">
				<title>Sheet.15</title>
				<g id="shape8-24" v:mID="8" v:groupContext="shape" transform="translate(144,-47.25)">
					<title>Rounded Rectangle.8</title>
					<desc>dotnet-counters</desc>
					<v:userDefs>
						<v:ud v:nameU="CTypeTopLeftSnip" v:prompt="" v:val="VT0(0):5"/>
						<v:ud v:nameU="CTypeTopRightSnip" v:prompt="" v:val="VT0(0):5"/>
						<v:ud v:nameU="CTypeBotLeftSnip" v:prompt="" v:val="VT0(0):5"/>
						<v:ud v:nameU="CTypeBotRightSnip" v:prompt="" v:val="VT0(0):5"/>
						<v:ud v:nameU="CornerLockHoriz" v:prompt="" v:val="VT0(1):5"/>
						<v:ud v:nameU="CornerLockVert" v:prompt="" v:val="VT0(1):5"/>
						<v:ud v:nameU="CornerLockDiag" v:prompt="" v:val="VT0(0):5"/>
						<v:ud v:nameU="TopLeftOffset" v:prompt="" v:val="VT0(0.15):1"/>
						<v:ud v:nameU="TopRightOffset" v:prompt="" v:val="VT0(0.15):1"/>
						<v:ud v:nameU="BotLeftOffset" v:prompt="" v:val="VT0(0.15):1"/>
						<v:ud v:nameU="BotRightOffset" v:prompt="" v:val="VT0(0.15):1"/>
						<v:ud v:nameU="visVersion" v:prompt="" v:val="VT0(15):26"/>
					</v:userDefs>
					<v:textBlock v:margins="rect(4,4,4,4)"/>
					<v:textRect cx="54" cy="210.125" width="108" height="38.25"/>
					<path d="M10.8 229.25 L97.2 229.25 A10.7998 10.7998 -180 0 0 108 218.45 L108 201.8 A10.7998 10.7998 -180 0 0
								 97.2 191 L10.8 191 A10.7998 10.7998 -180 0 0 0 201.8 L0 218.45 A10.7998 10.7998 -180 0 0 10.8 229.25
								 Z" class="st1"/>
					<text x="9" y="213.13" class="st5" v:langID="1033"><v:paragraph v:horizAlign="1"/><v:tabList/>dotnet-counters</text>				</g>
				<g id="shape9-27" v:mID="9" v:groupContext="shape" transform="translate(144,5.68434E-14)">
					<title>Rounded Rectangle.9</title>
					<desc>dotnet-trace</desc>
					<v:userDefs>
						<v:ud v:nameU="CTypeTopLeftSnip" v:prompt="" v:val="VT0(0):5"/>
						<v:ud v:nameU="CTypeTopRightSnip" v:prompt="" v:val="VT0(0):5"/>
						<v:ud v:nameU="CTypeBotLeftSnip" v:prompt="" v:val="VT0(0):5"/>
						<v:ud v:nameU="CTypeBotRightSnip" v:prompt="" v:val="VT0(0):5"/>
						<v:ud v:nameU="CornerLockHoriz" v:prompt="" v:val="VT0(1):5"/>
						<v:ud v:nameU="CornerLockVert" v:prompt="" v:val="VT0(1):5"/>
						<v:ud v:nameU="CornerLockDiag" v:prompt="" v:val="VT0(0):5"/>
						<v:ud v:nameU="TopLeftOffset" v:prompt="" v:val="VT0(0.15):1"/>
						<v:ud v:nameU="TopRightOffset" v:prompt="" v:val="VT0(0.15):1"/>
						<v:ud v:nameU="BotLeftOffset" v:prompt="" v:val="VT0(0.15):1"/>
						<v:ud v:nameU="BotRightOffset" v:prompt="" v:val="VT0(0.15):1"/>
						<v:ud v:nameU="visVersion" v:prompt="" v:val="VT0(15):26"/>
					</v:userDefs>
					<v:textBlock v:margins="rect(4,4,4,4)"/>
					<v:textRect cx="54" cy="210.125" width="108" height="38.25"/>
					<path d="M10.8 229.25 L97.2 229.25 A10.7998 10.7998 -180 0 0 108 218.45 L108 201.8 A10.7998 10.7998 -180 0 0
								 97.2 191 L10.8 191 A10.7998 10.7998 -180 0 0 0 201.8 L0 218.45 A10.7998 10.7998 -180 0 0 10.8 229.25
								 Z" class="st1"/>
					<text x="18" y="213.13" class="st5" v:langID="1033"><v:paragraph v:horizAlign="1"/><v:tabList/>dotnet-trace</text>				</g>
				<g id="shape12-30" v:mID="12" v:groupContext="shape" transform="translate(0,-40.5)">
					<title>Striped Arrow</title>
					<desc>EventPipe</desc>
					<v:userDefs>
						<v:ud v:nameU="visVersion" v:prompt="" v:val="VT0(15):26"/>
					</v:userDefs>
					<v:textBlock v:margins="rect(4,4,4,4)"/>
					<v:textRect cx="54" cy="229.25" width="108.01" height="0"/>
					<path d="M6 215.75 L93.6 215.75 L93.6 202.25 L108 229.25 L93.6 256.25 L93.6 242.75 L6 242.75 L6 215.75 ZM2.4
								 215.75 L4.8 215.75 L4.8 242.75 L2.4 242.75 L2.4 215.75 ZM0 215.75 L1.2 215.75 L1.2 242.75 L0 242.75
								 L0 215.75 Z" class="st7"/>
					<text x="27" y="232.25" class="st5" v:langID="1033"><v:paragraph v:horizAlign="1"/><v:tabList/>EventPipe</text>				</g>
			</g>
			<g id="shape20-33" v:mID="20" v:groupContext="shape" transform="translate(33.75,-96.75)">
				<title>Sheet.20</title>
				<desc>Out-of-proc</desc>
				<v:textBlock v:margins="rect(4,4,4,4)"/>
				<v:textRect cx="48.375" cy="220.25" width="96.75" height="18"/>
				<rect x="0" y="211.25" width="96.75" height="18" rx="9" ry="9" class="st8"/>
				<text x="8.77" y="223.85" class="st9" v:langID="1033"><v:paragraph v:horizAlign="1"/><v:tabList/>Out-of-proc</text>			</g>
		</g>
		<g id="group1002-36" transform="translate(173.25,-19.5)" v:mID="1002" v:groupContext="group">
			<title>Sheet.1002</title>
			<g id="shape16-37" v:mID="16" v:groupContext="shape">
				<title>Rectangle.16</title>
				<v:userDefs>
					<v:ud v:nameU="visVersion" v:val="VT0(15):26"/>
				</v:userDefs>
				<path d="M0 229.25 L324 229.25 L324 168.5 L0 168.5 L0 229.25 Z" class="st6"/>
			</g>
			<g id="shape21-39" v:mID="21" v:groupContext="shape" transform="translate(32.625,-51.75)">
				<title>Sheet.21</title>
				<desc>In-proc</desc>
				<v:textBlock v:margins="rect(4,4,4,4)"/>
				<v:textRect cx="48.375" cy="220.25" width="96.75" height="18"/>
				<rect x="0" y="211.25" width="96.75" height="18" rx="9" ry="9" class="st8"/>
				<text x="23.17" y="223.85" class="st9" v:langID="1033"><v:paragraph v:horizAlign="1"/><v:tabList/>In-proc</text>			</g>
			<g id="group1001-42" transform="translate(33.75,-11.25)" v:mID="1001" v:groupContext="group">
				<title>Sheet.1001</title>
				<g id="shape17-43" v:mID="17" v:groupContext="shape" transform="translate(146.25,2.84217E-14)">
					<title>Rounded Rectangle.8</title>
					<desc>EventListener</desc>
					<v:userDefs>
						<v:ud v:nameU="CTypeTopLeftSnip" v:prompt="" v:val="VT0(0):5"/>
						<v:ud v:nameU="CTypeTopRightSnip" v:prompt="" v:val="VT0(0):5"/>
						<v:ud v:nameU="CTypeBotLeftSnip" v:prompt="" v:val="VT0(0):5"/>
						<v:ud v:nameU="CTypeBotRightSnip" v:prompt="" v:val="VT0(0):5"/>
						<v:ud v:nameU="CornerLockHoriz" v:prompt="" v:val="VT0(1):5"/>
						<v:ud v:nameU="CornerLockVert" v:prompt="" v:val="VT0(1):5"/>
						<v:ud v:nameU="CornerLockDiag" v:prompt="" v:val="VT0(0):5"/>
						<v:ud v:nameU="TopLeftOffset" v:prompt="" v:val="VT0(0.15):1"/>
						<v:ud v:nameU="TopRightOffset" v:prompt="" v:val="VT0(0.15):1"/>
						<v:ud v:nameU="BotLeftOffset" v:prompt="" v:val="VT0(0.15):1"/>
						<v:ud v:nameU="BotRightOffset" v:prompt="" v:val="VT0(0.15):1"/>
						<v:ud v:nameU="visVersion" v:prompt="" v:val="VT0(15):26"/>
					</v:userDefs>
					<v:textBlock v:margins="rect(4,4,4,4)"/>
					<v:textRect cx="54" cy="210.125" width="108" height="38.25"/>
					<path d="M10.8 229.25 L97.2 229.25 A10.7998 10.7998 -180 0 0 108 218.45 L108 201.8 A10.7998 10.7998 -180 0 0
								 97.2 191 L10.8 191 A10.7998 10.7998 -180 0 0 0 201.8 L0 218.45 A10.7998 10.7998 -180 0 0 10.8 229.25
								 Z" class="st1"/>
					<text x="15" y="213.13" class="st5" v:langID="1033"><v:paragraph v:horizAlign="1"/><v:tabList/>EventListener</text>				</g>
				<g id="shape19-46" v:mID="19" v:groupContext="shape" transform="translate(0,-18)">
					<title>Striped Arrow</title>
					<v:userDefs>
						<v:ud v:nameU="visVersion" v:prompt="" v:val="VT0(15):26"/>
					</v:userDefs>
					<path d="M6 224.75 L95.85 224.75 L95.85 220.25 L110.25 229.25 L95.85 238.25 L95.85 233.75 L6 233.75 L6 224.75
								 ZM2.4 224.75 L4.8 224.75 L4.8 233.75 L2.4 233.75 L2.4 224.75 ZM0 224.75 L1.2 224.75 L1.2 233.75
								 L0 233.75 L0 224.75 Z" class="st7"/>
				</g>
			</g>
		</g>
	</g>
</svg>
