<?xml version="1.0" encoding="UTF-8" standalone="no"?>
<!DOCTYPE svg PUBLIC "-//W3C//DTD SVG 1.1//EN" "http://www.w3.org/Graphics/SVG/1.1/DTD/svg11.dtd">
<!-- Generated by Microsoft Visio, SVG Export event-counters.svg Page-1 -->
<svg xmlns="http://www.w3.org/2000/svg" xmlns:xlink="http://www.w3.org/1999/xlink" xmlns:ev="http://www.w3.org/2001/xml-events"
		xmlns:v="http://schemas.microsoft.com/visio/2003/SVGExtensions/" width="7.56944in" height="3.44444in" viewBox="0 0 545 248"
		xml:space="preserve" color-interpolation-filters="sRGB" class="st11">
	<v:documentProperties v:langID="1033" v:viewMarkup="false">
		<v:userDefs>
			<v:ud v:nameU="msvSubprocessMaster" v:prompt="" v:val="VT4(Rectangle)"/>
			<v:ud v:nameU="msvNoAutoConnect" v:val="VT0(1):26"/>
		</v:userDefs>
	</v:documentProperties>

	<style type="text/css">
	<![CDATA[
		.st1 {fill:#f2f2f2;stroke:none;stroke-width:0.25}
		.st2 {fill:#000000;stroke:#7030a0;stroke-width:2.25}
		.st3 {fill:none;stroke:none;stroke-width:0.25}
		.st4 {fill:#ffffff;font-family:Fira Code Retina;font-size:1.00001em}
		.st5 {fill:#7030a0;stroke:#c7c8c8;stroke-width:0.25}
		.st6 {fill:#feffff;font-family:Fira Code Retina;font-size:0.833336em}
		.st7 {fill:none;stroke:#ffc000;stroke-dasharray:10.5,7.5;stroke-width:1.5}
		.st8 {fill:#7030a0;stroke:#30518f;stroke-width:0.75}
		.st9 {fill:#ffffff;stroke:#7030a0;stroke-width:0.5}
		.st10 {fill:#4672c4;font-family:Fira Code Retina;font-size:1.00001em}
		.st11 {fill:none;fill-rule:evenodd;font-size:12px;overflow:visible;stroke-linecap:square;stroke-miterlimit:3}
	]]>
	</style>

	<g v:mID="0" v:index="1" v:groupContext="foregroundPage">
		<v:userDefs>
			<v:ud v:nameU="msvThemeOrder" v:val="VT0(0):26"/>
		</v:userDefs>
		<title>Page-1</title>
		<v:pageProperties v:drawingScale="1" v:pageScale="1" v:drawingUnits="0" v:shadowOffsetX="9" v:shadowOffsetY="-9"/>
		<g id="shape1003-1" v:mID="1003" v:groupContext="shape" transform="translate(18.25,-18.25)">
			<title>Rectangle.1003</title>
			<v:userDefs>
				<v:ud v:nameU="visVersion" v:val="VT0(15):26"/>
			</v:userDefs>
			<rect x="0" y="36.5" width="508.5" height="211.5" class="st1"/>
		</g>
		<g id="shape1-3" v:mID="1" v:groupContext="shape" transform="translate(33.9998,-49)">
			<title>Rounded Rectangle</title>
			<v:userDefs>
				<v:ud v:nameU="CTypeTopLeftSnip" v:prompt="" v:val="VT0(0):5"/>
				<v:ud v:nameU="CTypeTopRightSnip" v:prompt="" v:val="VT0(0):5"/>
				<v:ud v:nameU="CTypeBotLeftSnip" v:prompt="" v:val="VT0(0):5"/>
				<v:ud v:nameU="CTypeBotRightSnip" v:prompt="" v:val="VT0(0):5"/>
				<v:ud v:nameU="CornerLockHoriz" v:prompt="" v:val="VT0(1):5"/>
				<v:ud v:nameU="CornerLockVert" v:prompt="" v:val="VT0(1):5"/>
				<v:ud v:nameU="CornerLockDiag" v:prompt="" v:val="VT0(0):5"/>
				<v:ud v:nameU="TopLeftOffset" v:prompt="" v:val="VT0(0.15):1"/>
				<v:ud v:nameU="TopRightOffset" v:prompt="" v:val="VT0(0.15):1"/>
				<v:ud v:nameU="BotLeftOffset" v:prompt="" v:val="VT0(0.15):1"/>
				<v:ud v:nameU="BotRightOffset" v:prompt="" v:val="VT0(0.15):1"/>
				<v:ud v:nameU="visVersion" v:prompt="" v:val="VT0(15):26"/>
			</v:userDefs>
			<path d="M10.8 248 L97.2 248 A10.7998 10.7998 -180 0 0 108 237.2 L108 96.8 A10.7998 10.7998 -180 0 0 97.2 86 L10.8 86
						 A10.7998 10.7998 -180 0 0 0 96.8 L0 237.2 A10.7998 10.7998 -180 0 0 10.8 248 Z" class="st2"/>
		</g>
		<g id="shape2-5" v:mID="2" v:groupContext="shape" transform="translate(42.9998,-40)">
			<title>Rounded Rectangle.2</title>
			<v:userDefs>
				<v:ud v:nameU="CTypeTopLeftSnip" v:prompt="" v:val="VT0(0):5"/>
				<v:ud v:nameU="CTypeTopRightSnip" v:prompt="" v:val="VT0(0):5"/>
				<v:ud v:nameU="CTypeBotLeftSnip" v:prompt="" v:val="VT0(0):5"/>
				<v:ud v:nameU="CTypeBotRightSnip" v:prompt="" v:val="VT0(0):5"/>
				<v:ud v:nameU="CornerLockHoriz" v:prompt="" v:val="VT0(1):5"/>
				<v:ud v:nameU="CornerLockVert" v:prompt="" v:val="VT0(1):5"/>
				<v:ud v:nameU="CornerLockDiag" v:prompt="" v:val="VT0(0):5"/>
				<v:ud v:nameU="TopLeftOffset" v:prompt="" v:val="VT0(0.15):1"/>
				<v:ud v:nameU="TopRightOffset" v:prompt="" v:val="VT0(0.15):1"/>
				<v:ud v:nameU="BotLeftOffset" v:prompt="" v:val="VT0(0.15):1"/>
				<v:ud v:nameU="BotRightOffset" v:prompt="" v:val="VT0(0.15):1"/>
				<v:ud v:nameU="visVersion" v:prompt="" v:val="VT0(15):26"/>
			</v:userDefs>
			<path d="M10.8 248 L97.2 248 A10.7998 10.7998 -180 0 0 108 237.2 L108 96.8 A10.7998 10.7998 -180 0 0 97.2 86 L10.8 86
						 A10.7998 10.7998 -180 0 0 0 96.8 L0 237.2 A10.7998 10.7998 -180 0 0 10.8 248 Z" class="st2"/>
		</g>
		<g id="shape3-7" v:mID="3" v:groupContext="shape" transform="translate(51.9998,-31)">
			<title>Rounded Rectangle.3</title>
			<v:userDefs>
				<v:ud v:nameU="CTypeTopLeftSnip" v:prompt="" v:val="VT0(0):5"/>
				<v:ud v:nameU="CTypeTopRightSnip" v:prompt="" v:val="VT0(0):5"/>
				<v:ud v:nameU="CTypeBotLeftSnip" v:prompt="" v:val="VT0(0):5"/>
				<v:ud v:nameU="CTypeBotRightSnip" v:prompt="" v:val="VT0(0):5"/>
				<v:ud v:nameU="CornerLockHoriz" v:prompt="" v:val="VT0(1):5"/>
				<v:ud v:nameU="CornerLockVert" v:prompt="" v:val="VT0(1):5"/>
				<v:ud v:nameU="CornerLockDiag" v:prompt="" v:val="VT0(0):5"/>
				<v:ud v:nameU="TopLeftOffset" v:prompt="" v:val="VT0(0.15):1"/>
				<v:ud v:nameU="TopRightOffset" v:prompt="" v:val="VT0(0.15):1"/>
				<v:ud v:nameU="BotLeftOffset" v:prompt="" v:val="VT0(0.15):1"/>
				<v:ud v:nameU="BotRightOffset" v:prompt="" v:val="VT0(0.15):1"/>
				<v:ud v:nameU="visVersion" v:prompt="" v:val="VT0(15):26"/>
			</v:userDefs>
			<path d="M10.8 248 L97.2 248 A10.7998 10.7998 -180 0 0 108 237.2 L108 96.8 A10.7998 10.7998 -180 0 0 97.2 86 L10.8 86
						 A10.7998 10.7998 -180 0 0 0 96.8 L0 237.2 A10.7998 10.7998 -180 0 0 10.8 248 Z" class="st2"/>
		</g>
		<g id="shape4-9" v:mID="4" v:groupContext="shape" transform="translate(56.4998,-161.5)">
			<title>Sheet.4</title>
			<desc>EventSource</desc>
			<v:textBlock v:margins="rect(4,4,4,4)"/>
			<v:textRect cx="49.5" cy="239" width="99" height="18"/>
			<rect x="0" y="230" width="99" height="18" class="st3"/>
			<text x="9.9" y="242.6" class="st4" v:langID="1033"><v:paragraph v:horizAlign="1"/><v:tabList/>EventSource</text>		</g>
		<g id="shape5-12" v:mID="5" v:groupContext="shape" transform="translate(60.9998,-114.25)">
			<title>Rounded Rectangle.5</title>
			<desc>EventCounter</desc>
			<v:userDefs>
				<v:ud v:nameU="CTypeTopLeftSnip" v:prompt="" v:val="VT0(0):5"/>
				<v:ud v:nameU="CTypeTopRightSnip" v:prompt="" v:val="VT0(0):5"/>
				<v:ud v:nameU="CTypeBotLeftSnip" v:prompt="" v:val="VT0(0):5"/>
				<v:ud v:nameU="CTypeBotRightSnip" v:prompt="" v:val="VT0(0):5"/>
				<v:ud v:nameU="CornerLockHoriz" v:prompt="" v:val="VT0(1):5"/>
				<v:ud v:nameU="CornerLockVert" v:prompt="" v:val="VT0(1):5"/>
				<v:ud v:nameU="CornerLockDiag" v:prompt="" v:val="VT0(0):5"/>
				<v:ud v:nameU="TopLeftOffset" v:prompt="" v:val="VT0(0.15):1"/>
				<v:ud v:nameU="TopRightOffset" v:prompt="" v:val="VT0(0.15):1"/>
				<v:ud v:nameU="BotLeftOffset" v:prompt="" v:val="VT0(0.15):1"/>
				<v:ud v:nameU="BotRightOffset" v:prompt="" v:val="VT0(0.15):1"/>
				<v:ud v:nameU="visVersion" v:prompt="" v:val="VT0(15):26"/>
				<v:ud v:nameU="TopLeftOffset" v:prompt="" v:val="VT0(0.12499999929999):1"/>
				<v:ud v:nameU="TopRightOffset" v:prompt="" v:val="VT0(0.12499999929999):1"/>
				<v:ud v:nameU="BotLeftOffset" v:prompt="" v:val="VT0(0.12499999929999):1"/>
				<v:ud v:nameU="BotRightOffset" v:prompt="" v:val="VT0(0.12499999929999):1"/>
			</v:userDefs>
			<v:textBlock v:margins="rect(4,4,4,4)"/>
			<v:textRect cx="45" cy="234.5" width="90" height="27"/>
			<path d="M9 248 L81 248 A8.99985 8.99985 -180 0 0 90 239 L90 230 A8.99985 8.99985 -180 0 0 81 221 L9 221 A8.99985 8.99985
						 -180 0 0 0 230 L0 239 A8.99985 8.99985 -180 0 0 9 248 Z" class="st5"/>
			<text x="9" y="237.5" class="st6" v:langID="1033"><v:paragraph v:horizAlign="1"/><v:tabList/>EventCounter</text>		</g>
		<g id="shape6-15" v:mID="6" v:groupContext="shape" transform="translate(60.9998,-78.25)">
			<title>Rounded Rectangle.6</title>
			<desc>EventCounter</desc>
			<v:userDefs>
				<v:ud v:nameU="CTypeTopLeftSnip" v:prompt="" v:val="VT0(0):5"/>
				<v:ud v:nameU="CTypeTopRightSnip" v:prompt="" v:val="VT0(0):5"/>
				<v:ud v:nameU="CTypeBotLeftSnip" v:prompt="" v:val="VT0(0):5"/>
				<v:ud v:nameU="CTypeBotRightSnip" v:prompt="" v:val="VT0(0):5"/>
				<v:ud v:nameU="CornerLockHoriz" v:prompt="" v:val="VT0(1):5"/>
				<v:ud v:nameU="CornerLockVert" v:prompt="" v:val="VT0(1):5"/>
				<v:ud v:nameU="CornerLockDiag" v:prompt="" v:val="VT0(0):5"/>
				<v:ud v:nameU="TopLeftOffset" v:prompt="" v:val="VT0(0.15):1"/>
				<v:ud v:nameU="TopRightOffset" v:prompt="" v:val="VT0(0.15):1"/>
				<v:ud v:nameU="BotLeftOffset" v:prompt="" v:val="VT0(0.15):1"/>
				<v:ud v:nameU="BotRightOffset" v:prompt="" v:val="VT0(0.15):1"/>
				<v:ud v:nameU="visVersion" v:prompt="" v:val="VT0(15):26"/>
				<v:ud v:nameU="TopLeftOffset" v:prompt="" v:val="VT0(0.12499999929999):1"/>
				<v:ud v:nameU="TopRightOffset" v:prompt="" v:val="VT0(0.12499999929999):1"/>
				<v:ud v:nameU="BotLeftOffset" v:prompt="" v:val="VT0(0.12499999929999):1"/>
				<v:ud v:nameU="BotRightOffset" v:prompt="" v:val="VT0(0.12499999929999):1"/>
			</v:userDefs>
			<v:textBlock v:margins="rect(4,4,4,4)"/>
			<v:textRect cx="45" cy="234.5" width="90" height="27"/>
			<path d="M9 248 L81 248 A8.99985 8.99985 -180 0 0 90 239 L90 230 A8.99985 8.99985 -180 0 0 81 221 L9 221 A8.99985 8.99985
						 -180 0 0 0 230 L0 239 A8.99985 8.99985 -180 0 0 9 248 Z" class="st5"/>
			<text x="9" y="237.5" class="st6" v:langID="1033"><v:paragraph v:horizAlign="1"/><v:tabList/>EventCounter</text>		</g>
		<g id="shape7-18" v:mID="7" v:groupContext="shape" transform="translate(60.9998,-42.25)">
			<title>Rounded Rectangle.7</title>
			<desc>EventCounter</desc>
			<v:userDefs>
				<v:ud v:nameU="CTypeTopLeftSnip" v:prompt="" v:val="VT0(0):5"/>
				<v:ud v:nameU="CTypeTopRightSnip" v:prompt="" v:val="VT0(0):5"/>
				<v:ud v:nameU="CTypeBotLeftSnip" v:prompt="" v:val="VT0(0):5"/>
				<v:ud v:nameU="CTypeBotRightSnip" v:prompt="" v:val="VT0(0):5"/>
				<v:ud v:nameU="CornerLockHoriz" v:prompt="" v:val="VT0(1):5"/>
				<v:ud v:nameU="CornerLockVert" v:prompt="" v:val="VT0(1):5"/>
				<v:ud v:nameU="CornerLockDiag" v:prompt="" v:val="VT0(0):5"/>
				<v:ud v:nameU="TopLeftOffset" v:prompt="" v:val="VT0(0.15):1"/>
				<v:ud v:nameU="TopRightOffset" v:prompt="" v:val="VT0(0.15):1"/>
				<v:ud v:nameU="BotLeftOffset" v:prompt="" v:val="VT0(0.15):1"/>
				<v:ud v:nameU="BotRightOffset" v:prompt="" v:val="VT0(0.15):1"/>
				<v:ud v:nameU="visVersion" v:prompt="" v:val="VT0(15):26"/>
				<v:ud v:nameU="TopLeftOffset" v:prompt="" v:val="VT0(0.12499999929999):1"/>
				<v:ud v:nameU="TopRightOffset" v:prompt="" v:val="VT0(0.12499999929999):1"/>
				<v:ud v:nameU="BotLeftOffset" v:prompt="" v:val="VT0(0.12499999929999):1"/>
				<v:ud v:nameU="BotRightOffset" v:prompt="" v:val="VT0(0.12499999929999):1"/>
			</v:userDefs>
			<v:textBlock v:margins="rect(4,4,4,4)"/>
			<v:textRect cx="45" cy="234.5" width="90" height="27"/>
			<path d="M9 248 L81 248 A8.99985 8.99985 -180 0 0 90 239 L90 230 A8.99985 8.99985 -180 0 0 81 221 L9 221 A8.99985 8.99985
						 -180 0 0 0 230 L0 239 A8.99985 8.99985 -180 0 0 9 248 Z" class="st5"/>
			<text x="9" y="237.5" class="st6" v:langID="1033"><v:paragraph v:horizAlign="1"/><v:tabList/>EventCounter</text>		</g>
		<g id="group1000-21" transform="translate(187,-105.25)" v:mID="1000" v:groupContext="group">
			<title>Sheet.1000</title>
			<g id="shape14-22" v:mID="14" v:groupContext="shape">
				<title>Rectangle</title>
				<v:userDefs>
					<v:ud v:nameU="visVersion" v:val="VT0(15):26"/>
				</v:userDefs>
				<path d="M0 248 L324 248 L324 142.25 L0 142.25 L0 248 Z" class="st7"/>
			</g>
			<g id="group15-24" transform="translate(36,-10.6875)" v:mID="15" v:groupContext="group">
				<title>Sheet.15</title>
				<g id="shape8-25" v:mID="8" v:groupContext="shape" transform="translate(144,-47.25)">
					<title>Rounded Rectangle.8</title>
					<desc>dotnet-counters</desc>
					<v:userDefs>
						<v:ud v:nameU="CTypeTopLeftSnip" v:prompt="" v:val="VT0(0):5"/>
						<v:ud v:nameU="CTypeTopRightSnip" v:prompt="" v:val="VT0(0):5"/>
						<v:ud v:nameU="CTypeBotLeftSnip" v:prompt="" v:val="VT0(0):5"/>
						<v:ud v:nameU="CTypeBotRightSnip" v:prompt="" v:val="VT0(0):5"/>
						<v:ud v:nameU="CornerLockHoriz" v:prompt="" v:val="VT0(1):5"/>
						<v:ud v:nameU="CornerLockVert" v:prompt="" v:val="VT0(1):5"/>
						<v:ud v:nameU="CornerLockDiag" v:prompt="" v:val="VT0(0):5"/>
						<v:ud v:nameU="TopLeftOffset" v:prompt="" v:val="VT0(0.15):1"/>
						<v:ud v:nameU="TopRightOffset" v:prompt="" v:val="VT0(0.15):1"/>
						<v:ud v:nameU="BotLeftOffset" v:prompt="" v:val="VT0(0.15):1"/>
						<v:ud v:nameU="BotRightOffset" v:prompt="" v:val="VT0(0.15):1"/>
						<v:ud v:nameU="visVersion" v:prompt="" v:val="VT0(15):26"/>
					</v:userDefs>
					<v:textBlock v:margins="rect(4,4,4,4)"/>
					<v:textRect cx="54" cy="228.875" width="108" height="38.25"/>
					<path d="M10.8 248 L97.2 248 A10.7998 10.7998 -180 0 0 108 237.2 L108 220.55 A10.7998 10.7998 -180 0 0 97.2 209.75
								 L10.8 209.75 A10.7998 10.7998 -180 0 0 0 220.55 L0 237.2 A10.7998 10.7998 -180 0 0 10.8 248 Z"
							class="st2"/>
					<text x="9" y="231.88" class="st6" v:langID="1033"><v:paragraph v:horizAlign="1"/><v:tabList/>dotnet-counters</text>				</g>
				<g id="shape9-28" v:mID="9" v:groupContext="shape" transform="translate(144,5.68434E-14)">
					<title>Rounded Rectangle.9</title>
					<desc>dotnet-trace</desc>
					<v:userDefs>
						<v:ud v:nameU="CTypeTopLeftSnip" v:prompt="" v:val="VT0(0):5"/>
						<v:ud v:nameU="CTypeTopRightSnip" v:prompt="" v:val="VT0(0):5"/>
						<v:ud v:nameU="CTypeBotLeftSnip" v:prompt="" v:val="VT0(0):5"/>
						<v:ud v:nameU="CTypeBotRightSnip" v:prompt="" v:val="VT0(0):5"/>
						<v:ud v:nameU="CornerLockHoriz" v:prompt="" v:val="VT0(1):5"/>
						<v:ud v:nameU="CornerLockVert" v:prompt="" v:val="VT0(1):5"/>
						<v:ud v:nameU="CornerLockDiag" v:prompt="" v:val="VT0(0):5"/>
						<v:ud v:nameU="TopLeftOffset" v:prompt="" v:val="VT0(0.15):1"/>
						<v:ud v:nameU="TopRightOffset" v:prompt="" v:val="VT0(0.15):1"/>
						<v:ud v:nameU="BotLeftOffset" v:prompt="" v:val="VT0(0.15):1"/>
						<v:ud v:nameU="BotRightOffset" v:prompt="" v:val="VT0(0.15):1"/>
						<v:ud v:nameU="visVersion" v:prompt="" v:val="VT0(15):26"/>
					</v:userDefs>
					<v:textBlock v:margins="rect(4,4,4,4)"/>
					<v:textRect cx="54" cy="228.875" width="108" height="38.25"/>
					<path d="M10.8 248 L97.2 248 A10.7998 10.7998 -180 0 0 108 237.2 L108 220.55 A10.7998 10.7998 -180 0 0 97.2 209.75
								 L10.8 209.75 A10.7998 10.7998 -180 0 0 0 220.55 L0 237.2 A10.7998 10.7998 -180 0 0 10.8 248 Z"
							class="st2"/>
					<text x="18" y="231.88" class="st6" v:langID="1033"><v:paragraph v:horizAlign="1"/><v:tabList/>dotnet-trace</text>				</g>
				<g id="shape12-31" v:mID="12" v:groupContext="shape" transform="translate(0,-40.5)">
					<title>Striped Arrow</title>
					<desc>EventPipe</desc>
					<v:userDefs>
						<v:ud v:nameU="visVersion" v:prompt="" v:val="VT0(15):26"/>
					</v:userDefs>
					<v:textBlock v:margins="rect(4,4,4,4)"/>
					<v:textRect cx="54" cy="248" width="108.01" height="0"/>
					<path d="M6 234.5 L93.6 234.5 L93.6 221 L108 248 L93.6 275 L93.6 261.5 L6 261.5 L6 234.5 ZM2.4 234.5 L4.8 234.5
								 L4.8 261.5 L2.4 261.5 L2.4 234.5 ZM0 234.5 L1.2 234.5 L1.2 261.5 L0 261.5 L0 234.5 Z" class="st8"/>
					<text x="27" y="251" class="st6" v:langID="1033"><v:paragraph v:horizAlign="1"/><v:tabList/>EventPipe</text>				</g>
			</g>
			<g id="shape20-34" v:mID="20" v:groupContext="shape" transform="translate(33.75,-96.75)">
				<title>Sheet.20</title>
				<desc>Out-of-proc</desc>
				<v:textBlock v:margins="rect(4,4,4,4)"/>
				<v:textRect cx="48.375" cy="239" width="96.75" height="18"/>
				<rect x="0" y="230" width="96.75" height="18" rx="9" ry="9" class="st9"/>
				<text x="8.77" y="242.6" class="st10" v:langID="1033"><v:paragraph v:horizAlign="1"/><v:tabList/>Out-of-proc</text>			</g>
		</g>
		<g id="group1002-37" transform="translate(187,-28.75)" v:mID="1002" v:groupContext="group">
			<title>Sheet.1002</title>
			<g id="shape16-38" v:mID="16" v:groupContext="shape">
				<title>Rectangle.16</title>
				<v:userDefs>
					<v:ud v:nameU="visVersion" v:val="VT0(15):26"/>
				</v:userDefs>
				<path d="M0 248 L324 248 L324 187.25 L0 187.25 L0 248 Z" class="st7"/>
			</g>
			<g id="shape21-40" v:mID="21" v:groupContext="shape" transform="translate(32.625,-51.75)">
				<title>Sheet.21</title>
				<desc>In-proc</desc>
				<v:textBlock v:margins="rect(4,4,4,4)"/>
				<v:textRect cx="48.375" cy="239" width="96.75" height="18"/>
				<rect x="0" y="230" width="96.75" height="18" rx="9" ry="9" class="st9"/>
				<text x="23.17" y="242.6" class="st10" v:langID="1033"><v:paragraph v:horizAlign="1"/><v:tabList/>In-proc</text>			</g>
			<g id="group1001-43" transform="translate(33.75,-11.25)" v:mID="1001" v:groupContext="group">
				<title>Sheet.1001</title>
				<g id="shape17-44" v:mID="17" v:groupContext="shape" transform="translate(146.25,0)">
					<title>Rounded Rectangle.8</title>
					<desc>EventListener</desc>
					<v:userDefs>
						<v:ud v:nameU="CTypeTopLeftSnip" v:prompt="" v:val="VT0(0):5"/>
						<v:ud v:nameU="CTypeTopRightSnip" v:prompt="" v:val="VT0(0):5"/>
						<v:ud v:nameU="CTypeBotLeftSnip" v:prompt="" v:val="VT0(0):5"/>
						<v:ud v:nameU="CTypeBotRightSnip" v:prompt="" v:val="VT0(0):5"/>
						<v:ud v:nameU="CornerLockHoriz" v:prompt="" v:val="VT0(1):5"/>
						<v:ud v:nameU="CornerLockVert" v:prompt="" v:val="VT0(1):5"/>
						<v:ud v:nameU="CornerLockDiag" v:prompt="" v:val="VT0(0):5"/>
						<v:ud v:nameU="TopLeftOffset" v:prompt="" v:val="VT0(0.15):1"/>
						<v:ud v:nameU="TopRightOffset" v:prompt="" v:val="VT0(0.15):1"/>
						<v:ud v:nameU="BotLeftOffset" v:prompt="" v:val="VT0(0.15):1"/>
						<v:ud v:nameU="BotRightOffset" v:prompt="" v:val="VT0(0.15):1"/>
						<v:ud v:nameU="visVersion" v:prompt="" v:val="VT0(15):26"/>
					</v:userDefs>
					<v:textBlock v:margins="rect(4,4,4,4)"/>
					<v:textRect cx="54" cy="228.875" width="108" height="38.25"/>
					<path d="M10.8 248 L97.2 248 A10.7998 10.7998 -180 0 0 108 237.2 L108 220.55 A10.7998 10.7998 -180 0 0 97.2 209.75
								 L10.8 209.75 A10.7998 10.7998 -180 0 0 0 220.55 L0 237.2 A10.7998 10.7998 -180 0 0 10.8 248 Z"
							class="st2"/>
					<text x="15" y="231.88" class="st6" v:langID="1033"><v:paragraph v:horizAlign="1"/><v:tabList/>EventListener</text>				</g>
				<g id="shape19-47" v:mID="19" v:groupContext="shape" transform="translate(0,-18)">
					<title>Striped Arrow</title>
					<v:userDefs>
						<v:ud v:nameU="visVersion" v:prompt="" v:val="VT0(15):26"/>
					</v:userDefs>
					<path d="M6 243.5 L95.85 243.5 L95.85 239 L110.25 248 L95.85 257 L95.85 252.5 L6 252.5 L6 243.5 ZM2.4 243.5 L4.8
								 243.5 L4.8 252.5 L2.4 252.5 L2.4 243.5 ZM0 243.5 L1.2 243.5 L1.2 252.5 L0 252.5 L0 243.5 Z"
							class="st8"/>
				</g>
			</g>
		</g>
	</g>
</svg>
