<svg xmlns="http://www.w3.org/2000/svg" xmlns:ev="http://www.w3.org/2001/xml-events" xmlns:xlink="http://www.w3.org/1999/xlink" width="726.666" height="330.666" class="st11" color-interpolation-filters="sRGB" viewBox="0 0 545 248" xml:space="preserve"><style type="text/css">.st1{fill:#f2f2f2;stroke:none;stroke-width:.25}.st2{fill:#000;stroke:#7030a0;stroke-width:2.25}.st3{fill:none;stroke:none;stroke-width:.25}.st4{fill:#fff;font-family:Fira Code Retina;font-size:1.00001em}.st5{fill:#7030a0;stroke:#c7c8c8;stroke-width:.25}.st6{fill:#feffff;font-family:Fira Code Retina;font-size:.833336em}.st7{fill:none;stroke:#ffc000;stroke-dasharray:10.5,7.5;stroke-width:1.5}.st8{fill:#7030a0;stroke:#30518f;stroke-width:.75}.st9{fill:#fff;stroke:#7030a0;stroke-width:.5}.st10{fill:#4672c4;font-family:Fira Code Retina;font-size:1.00001em}.st11{fill:none;fill-rule:evenodd;font-size:12px;overflow:visible;stroke-linecap:square;stroke-miterlimit:3}</style><g><title>Page-1</title><g id="shape1003-1" transform="translate(18.25,-18.25)"><title>Rectangle.1003</title><rect width="508.5" height="211.5" x="0" y="36.5" class="st1"/></g><g id="shape1-3" transform="translate(33.9998,-49)"><title>Rounded Rectangle</title><path d="M10.8 248 L97.2 248 A10.7998 10.7998 -180 0 0 108 237.2 L108 96.8 A10.7998 10.7998 -180 0 0 97.2 86 L10.8 86 A10.7998 10.7998 -180 0 0 0 96.8 L0 237.2 A10.7998 10.7998 -180 0 0 10.8 248 Z" class="st2"/></g><g id="shape2-5" transform="translate(42.9998,-40)"><title>Rounded Rectangle.2</title><path d="M10.8 248 L97.2 248 A10.7998 10.7998 -180 0 0 108 237.2 L108 96.8 A10.7998 10.7998 -180 0 0 97.2 86 L10.8 86 A10.7998 10.7998 -180 0 0 0 96.8 L0 237.2 A10.7998 10.7998 -180 0 0 10.8 248 Z" class="st2"/></g><g id="shape3-7" transform="translate(51.9998,-31)"><title>Rounded Rectangle.3</title><path d="M10.8 248 L97.2 248 A10.7998 10.7998 -180 0 0 108 237.2 L108 96.8 A10.7998 10.7998 -180 0 0 97.2 86 L10.8 86 A10.7998 10.7998 -180 0 0 0 96.8 L0 237.2 A10.7998 10.7998 -180 0 0 10.8 248 Z" class="st2"/></g><g id="shape4-9" transform="translate(56.4998,-161.5)"><title>Sheet.4</title><desc>EventSource</desc><rect width="99" height="18" x="0" y="230" class="st3"/><text x="9.9" y="242.6" class="st4">EventSource</text></g><g id="shape5-12" transform="translate(60.9998,-114.25)"><title>Rounded Rectangle.5</title><desc>EventCounter</desc><path d="M9 248 L81 248 A8.99985 8.99985 -180 0 0 90 239 L90 230 A8.99985 8.99985 -180 0 0 81 221 L9 221 A8.99985 8.99985 -180 0 0 0 230 L0 239 A8.99985 8.99985 -180 0 0 9 248 Z" class="st5"/><text x="9" y="237.5" class="st6">EventCounter</text></g><g id="shape6-15" transform="translate(60.9998,-78.25)"><title>Rounded Rectangle.6</title><desc>EventCounter</desc><path d="M9 248 L81 248 A8.99985 8.99985 -180 0 0 90 239 L90 230 A8.99985 8.99985 -180 0 0 81 221 L9 221 A8.99985 8.99985 -180 0 0 0 230 L0 239 A8.99985 8.99985 -180 0 0 9 248 Z" class="st5"/><text x="9" y="237.5" class="st6">EventCounter</text></g><g id="shape7-18" transform="translate(60.9998,-42.25)"><title>Rounded Rectangle.7</title><desc>EventCounter</desc><path d="M9 248 L81 248 A8.99985 8.99985 -180 0 0 90 239 L90 230 A8.99985 8.99985 -180 0 0 81 221 L9 221 A8.99985 8.99985 -180 0 0 0 230 L0 239 A8.99985 8.99985 -180 0 0 9 248 Z" class="st5"/><text x="9" y="237.5" class="st6">EventCounter</text></g><g id="group1000-21" transform="translate(187,-105.25)"><title>Sheet.1000</title><g id="shape14-22"><title>Rectangle</title><path d="M0 248 L324 248 L324 142.25 L0 142.25 L0 248 Z" class="st7"/></g><g id="group15-24" transform="translate(36,-10.6875)"><title>Sheet.15</title><g id="shape8-25" transform="translate(144,-47.25)"><title>Rounded Rectangle.8</title><desc>dotnet-counters</desc><path d="M10.8 248 L97.2 248 A10.7998 10.7998 -180 0 0 108 237.2 L108 220.55 A10.7998 10.7998 -180 0 0 97.2 209.75 L10.8 209.75 A10.7998 10.7998 -180 0 0 0 220.55 L0 237.2 A10.7998 10.7998 -180 0 0 10.8 248 Z" class="st2"/><text x="9" y="231.88" class="st6">dotnet-counters</text></g><g id="shape9-28" transform="translate(144,5.68434E-14)"><title>Rounded Rectangle.9</title><desc>dotnet-trace</desc><path d="M10.8 248 L97.2 248 A10.7998 10.7998 -180 0 0 108 237.2 L108 220.55 A10.7998 10.7998 -180 0 0 97.2 209.75 L10.8 209.75 A10.7998 10.7998 -180 0 0 0 220.55 L0 237.2 A10.7998 10.7998 -180 0 0 10.8 248 Z" class="st2"/><text x="18" y="231.88" class="st6">dotnet-trace</text></g><g id="shape12-31" transform="translate(0,-40.5)"><title>Striped Arrow</title><desc>EventPipe</desc><path d="M6 234.5 L93.6 234.5 L93.6 221 L108 248 L93.6 275 L93.6 261.5 L6 261.5 L6 234.5 ZM2.4 234.5 L4.8 234.5 L4.8 261.5 L2.4 261.5 L2.4 234.5 ZM0 234.5 L1.2 234.5 L1.2 261.5 L0 261.5 L0 234.5 Z" class="st8"/><text x="27" y="251" class="st6">EventPipe</text></g></g><g id="shape20-34" transform="translate(33.75,-96.75)"><title>Sheet.20</title><desc>Out-of-proc</desc><rect width="96.75" height="18" x="0" y="230" class="st9" rx="9" ry="9"/><text x="8.77" y="242.6" class="st10">Out-of-proc</text></g></g><g id="group1002-37" transform="translate(187,-28.75)"><title>Sheet.1002</title><g id="shape16-38"><title>Rectangle.16</title><path d="M0 248 L324 248 L324 187.25 L0 187.25 L0 248 Z" class="st7"/></g><g id="shape21-40" transform="translate(32.625,-51.75)"><title>Sheet.21</title><desc>In-proc</desc><rect width="96.75" height="18" x="0" y="230" class="st9" rx="9" ry="9"/><text x="23.17" y="242.6" class="st10">In-proc</text></g><g id="group1001-43" transform="translate(33.75,-11.25)"><title>Sheet.1001</title><g id="shape17-44" transform="translate(146.25,0)"><title>Rounded Rectangle.8</title><desc>EventListener</desc><path d="M10.8 248 L97.2 248 A10.7998 10.7998 -180 0 0 108 237.2 L108 220.55 A10.7998 10.7998 -180 0 0 97.2 209.75 L10.8 209.75 A10.7998 10.7998 -180 0 0 0 220.55 L0 237.2 A10.7998 10.7998 -180 0 0 10.8 248 Z" class="st2"/><text x="15" y="231.88" class="st6">EventListener</text></g><g id="shape19-47" transform="translate(0,-18)"><title>Striped Arrow</title><path d="M6 243.5 L95.85 243.5 L95.85 239 L110.25 248 L95.85 257 L95.85 252.5 L6 252.5 L6 243.5 ZM2.4 243.5 L4.8 243.5 L4.8 252.5 L2.4 252.5 L2.4 243.5 ZM0 243.5 L1.2 243.5 L1.2 252.5 L0 252.5 L0 243.5 Z" class="st8"/></g></g></g></g></svg>