<svg width="1280" height="720" xmlns="http://www.w3.org/2000/svg" xmlns:xlink="http://www.w3.org/1999/xlink" overflow="hidden"><defs><linearGradient x1="654.5" y1="63.5001" x2="654.5" y2="466.5" gradientUnits="userSpaceOnUse" spreadMethod="reflect" id="fill0"><stop offset="0" stop-color="#A8B7DF"/><stop offset="0.5" stop-color="#9AABD9"/><stop offset="1" stop-color="#879ED7"/></linearGradient><linearGradient x1="1188" y1="151.5" x2="1188" y2="190.5" gradientUnits="userSpaceOnUse" spreadMethod="reflect" id="fill1"><stop offset="0" stop-color="#B5D5A7"/><stop offset="0.5" stop-color="#AACE99"/><stop offset="1" stop-color="#9CCA86"/></linearGradient><linearGradient x1="1186.5" y1="248.5" x2="1186.5" y2="287.5" gradientUnits="userSpaceOnUse" spreadMethod="reflect" id="fill2"><stop offset="0" stop-color="#B5D5A7"/><stop offset="0.5" stop-color="#AACE99"/><stop offset="1" stop-color="#9CCA86"/></linearGradient><linearGradient x1="1188.5" y1="323.5" x2="1188.5" y2="362.5" gradientUnits="userSpaceOnUse" spreadMethod="reflect" id="fill3"><stop offset="0" stop-color="#B5D5A7"/><stop offset="0.5" stop-color="#AACE99"/><stop offset="1" stop-color="#9CCA86"/></linearGradient></defs><g><rect x="0" y="0" width="1280" height="720" fill="#FFFFFF"/><path d="M239.5 72.5235C239.5 67.54 243.54 63.5001 248.523 63.5001L1060.48 63.5001C1065.46 63.5001 1069.5 67.54 1069.5 72.5235L1069.5 457.477C1069.5 462.46 1065.46 466.5 1060.48 466.5L248.523 466.5C243.54 466.5 239.5 462.46 239.5 457.477Z" stroke="#4472C4" stroke-width="0.666667" stroke-miterlimit="8" fill="url(#fill0)" fill-rule="evenodd"/><text font-family="Calibri,Calibri_MSFontService,sans-serif" font-weight="400" font-size="24" transform="translate(569.338 93)">.NET App Process</text><rect x="324.5" y="383.5" width="178" height="67" stroke="#4472C4" stroke-width="1.33333" stroke-miterlimit="8" fill="#FFFFFF"/><text font-family="Calibri,Calibri_MSFontService,sans-serif" font-weight="400" font-size="24" transform="translate(376.881 424)">ILogger</text><rect x="524.5" y="382.5" width="178" height="67" stroke="#4472C4" stroke-width="1.33333" stroke-miterlimit="8" fill="#FFFFFF"/><text font-family="Calibri,Calibri_MSFontService,sans-serif" font-weight="400" font-size="24" transform="translate(582.581 423)">Meter</text><rect x="724.5" y="383.5" width="178" height="67" stroke="#4472C4" stroke-width="1.33333" stroke-miterlimit="8" fill="#FFFFFF"/><text font-family="Calibri,Calibri_MSFontService,sans-serif" font-weight="400" font-size="24" transform="translate(776.467 424)">Activity</text><rect x="795.5" y="200.5" width="255" height="38" stroke="#4472C4" stroke-width="1.33333" stroke-miterlimit="8" fill="#FFFFFF"/><text font-family="Calibri,Calibri_MSFontService,sans-serif" font-weight="400" font-size="24" transform="translate(818.483 226)">Prometheu</text><text font-family="Calibri,Calibri_MSFontService,sans-serif" font-weight="400" font-size="24" transform="translate(927.803 226)">s</text><text font-family="Calibri,Calibri_MSFontService,sans-serif" font-weight="400" font-size="24" transform="translate(942.636 226)">Exporter</text><rect x="796.5" y="299.5" width="255" height="38" stroke="#4472C4" stroke-width="1.33333" stroke-miterlimit="8" fill="#FFFFFF"/><text font-family="Calibri,Calibri_MSFontService,sans-serif" font-weight="400" font-size="24" transform="translate(810.785 325)">AzureMonitor</text><text font-family="Calibri,Calibri_MSFontService,sans-serif" font-weight="400" font-size="24" transform="translate(952.285 325)">Exporter</text><rect x="1118.5" y="151.5" width="139" height="39" stroke="#70AD47" stroke-width="0.666667" stroke-miterlimit="8" fill="url(#fill1)"/><text font-family="Calibri,Calibri_MSFontService,sans-serif" font-weight="400" font-size="24" transform="translate(1128.31 178)">Prometheus</text><rect x="1145.5" y="248.5" width="82" height="39" stroke="#70AD47" stroke-width="0.666667" stroke-miterlimit="8" fill="url(#fill2)"/><text font-family="Calibri,Calibri_MSFontService,sans-serif" font-weight="400" font-size="24" transform="translate(1154.71 275)">Jaeger</text><rect x="1107.5" y="323.5" width="162" height="39" stroke="#70AD47" stroke-width="0.666667" stroke-miterlimit="8" fill="url(#fill3)"/><text font-family="Calibri,Calibri_MSFontService,sans-serif" font-weight="400" font-size="24" transform="translate(1116.89 350)">Azure Monitor</text><path d="M1051.63 318.195 1100.96 339.937 1100.69 340.547 1051.37 318.805ZM1101.22 336.044 1106.93 342.931 1098 343.365Z" fill="#4472C4"/><path d="M753.791 281.337 771.26 312.368 770.679 312.695 753.21 281.664ZM773.801 309.407 774.24 318.34 766.83 313.332Z" fill="#4472C4"/><path d="M704.5 254.167 718.292 254.167 718.292 254.833 704.5 254.833ZM716.959 250.5 724.959 254.5 716.959 258.5Z" fill="#4472C4"/><path d="M1051.5 268.167 1138.47 268.167 1138.47 268.833 1051.5 268.833ZM1137.13 264.5 1145.13 268.5 1137.13 272.5Z" fill="#4472C4"/><path d="M0.19359-0.271356 62.7052 44.3256 62.3181 44.8683-0.19359 0.271356ZM63.7493 40.5663 67.9388 48.4688 59.1032 47.0789Z" fill="#4472C4" transform="matrix(1 0 0 -1 1050.5 218.969)"/><path d="M463.76 258.292 478.205 276.338 477.685 276.755 463.24 258.708ZM480.234 273.006 482.111 281.751 473.989 278.005Z" fill="#4472C4"/><path d="M0.129106-0.307315 82.7386 34.3976 82.4804 35.0123-0.129106 0.307315ZM82.9295 30.5007 88.7558 37.287 79.831 37.8763Z" fill="#4472C4" transform="matrix(1 0 0 -1 413.5 383.787)"/><rect x="481.5" y="225.5" width="272" height="113" stroke="#4472C4" stroke-width="1.33333" stroke-miterlimit="8" fill="#FFFFFF"/><text font-family="Calibri,Calibri_MSFontService,sans-serif" font-weight="400" font-size="24" transform="translate(517.342 289)">Open Telemetry SDK</text><rect x="274.5" y="225.5" width="189" height="66" stroke="#4472C4" stroke-width="1.33333" stroke-miterlimit="8" fill="#FFFFFF"/><text font-family="Calibri,Calibri_MSFontService,sans-serif" font-weight="400" font-size="24" transform="translate(289.419 251)">Instrumentation</text><text font-family="Calibri,Calibri_MSFontService,sans-serif" font-weight="400" font-size="24" transform="translate(322.959 280)">Providers</text><rect x="481.5" y="129.5" width="272" height="67" stroke="#4472C4" stroke-width="1.33333" stroke-miterlimit="8" fill="#FFFFFF"/><text font-family="Calibri,Calibri_MSFontService,sans-serif" font-weight="400" font-size="24" transform="translate(522.661 156)">Azure Monitor</text><text font-family="Calibri,Calibri_MSFontService,sans-serif" font-weight="400" font-size="24" transform="translate(669.661 156)">OTel</text><text font-family="Calibri,Calibri_MSFontService,sans-serif" font-weight="400" font-size="24" transform="translate(588.261 185)">Distro</text><path d="M813.148 383.18 741.264 345.867 741.571 345.276 813.455 382.589ZM740.758 349.736 735.5 342.5 744.443 342.635Z" fill="#4472C4"/><path d="M0.333333-8.83683e-07 0.333421 32.9353-0.333246 32.9353-0.333333 8.83683e-07ZM4.00008 31.602 0.000104987 39.602-3.99992 31.602Z" fill="#4472C4" transform="matrix(1 0 0 -1 613.5 382.102)"/><path d="M0.277178-0.185157 38.1878 56.5666 37.6334 56.9369-0.277178 0.185157ZM40.4961 53.4212 41.6138 62.2953 33.8438 57.8649Z" fill="#4472C4" transform="matrix(1 0 0 -1 753.5 281.795)"/><path d="M606.833 198.5 606.833 210.74 606.167 210.74 606.167 198.5ZM610.5 209.406 606.5 217.406 602.5 209.406Z" fill="#4472C4"/><text font-family="Calibri,Calibri_MSFontService,sans-serif" font-weight="400" font-size="24" transform="translate(49.0689 408)">.NET SDK</text><text font-family="Calibri,Calibri_MSFontService,sans-serif" font-weight="400" font-size="24" transform="translate(5.78226 437)">Observability APIs</text><text font-family="Calibri,Calibri_MSFontService,sans-serif" font-weight="400" font-size="24" transform="translate(63.8911 275)">OTel</text><text font-family="Calibri,Calibri_MSFontService,sans-serif" font-weight="400" font-size="24" transform="translate(111.611 275)">SDK &amp;</text><text font-family="Calibri,Calibri_MSFontService,sans-serif" font-weight="400" font-size="24" transform="translate(72.2845 304)">Providers</text><text font-family="Calibri,Calibri_MSFontService,sans-serif" font-weight="400" font-size="24" transform="translate(28.3939 139)">Vendor</text><text font-family="Calibri,Calibri_MSFontService,sans-serif" font-weight="400" font-size="24" transform="translate(99.2005 139)">-</text><text font-family="Calibri,Calibri_MSFontService,sans-serif" font-weight="400" font-size="24" transform="translate(106.534 139)">specific</text><text font-family="Calibri,Calibri_MSFontService,sans-serif" font-weight="400" font-size="24" transform="translate(67.7539 168)">helpers</text><path d="M227.5 459.5C218.111 459.5 210.5 458.232 210.5 456.667L210.5 414.833C210.5 413.269 202.889 412 193.5 412 202.889 412 210.5 410.732 210.5 409.167L210.5 367.333C210.5 365.769 218.111 364.5 227.5 364.5" stroke="#4472C4" stroke-width="0.666667" stroke-miterlimit="8" fill="none" fill-rule="evenodd"/><path d="M227.5 200.5C218.111 200.5 210.5 199.232 210.5 197.667L210.5 155.833C210.5 154.269 202.889 153 193.5 153 202.889 153 210.5 151.732 210.5 150.167L210.5 108.333C210.5 106.769 218.111 105.5 227.5 105.5" stroke="#4472C4" stroke-width="0.666667" stroke-miterlimit="8" fill="none" fill-rule="evenodd"/><path d="M227.5 354.5C218.111 354.5 210.5 353.232 210.5 351.667L210.5 285.333C210.5 283.769 202.889 282.5 193.5 282.5 202.889 282.5 210.5 281.232 210.5 279.667L210.5 213.333C210.5 211.769 218.111 210.5 227.5 210.5" stroke="#4472C4" stroke-width="0.666667" stroke-miterlimit="8" fill="none" fill-rule="evenodd"/><rect x="796.5" y="248.5" width="255" height="39" stroke="#4472C4" stroke-width="1.33333" stroke-miterlimit="8" fill="#FFFFFF"/><text font-family="Calibri,Calibri_MSFontService,sans-serif" font-weight="400" font-size="24" transform="translate(854.108 275)">OTLP Exporter</text></g></svg>