<svg version="1.1" xmlns="http://www.w3.org/2000/svg" viewBox="0 0 1122.3999633789062 756.8000030517579" width="2244.7999267578125" height="1513.6000061035159">
  <!-- svg-source:excalidraw -->
  
  <defs>
    <style>
      @font-face {
        font-family: "Virgil";
        src: url("https://excalidraw.com/Virgil.woff2");
      }
      @font-face {
        font-family: "Cascadia";
        src: url("https://excalidraw.com/Cascadia.woff2");
      }
    </style>
  </defs>
  <rect x="0" y="0" width="1122.3999633789062" height="756.8000030517579" fill="#ffffff"></rect><g stroke-linecap="round" transform="translate(10 10) rotate(0 551.1999816894531 368.40000152587896)"><path d="M0 0 C0 0, 0 0, 0 0 M0 0 C0 0, 0 0, 0 0 M0.13 12.04 C2.66 9.13, 5.19 6.22, 10.63 -0.03 M0.13 12.04 C3.5 8.17, 6.87 4.29, 10.63 -0.03 M0.27 24.08 C6.93 16.42, 13.59 8.75, 21.26 -0.07 M0.27 24.08 C4.88 18.78, 9.49 13.47, 21.26 -0.07 M-0.26 36.88 C11.73 23.09, 23.72 9.3, 31.89 -0.1 M-0.26 36.88 C10.86 24.08, 21.98 11.29, 31.89 -0.1 M-0.12 48.92 C8.96 38.47, 18.04 28.02, 42.52 -0.14 M-0.12 48.92 C15.09 31.42, 30.3 13.92, 42.52 -0.14 M0.01 60.96 C16.92 41.5, 33.83 22.05, 53.15 -0.17 M0.01 60.96 C12.45 46.65, 24.89 32.34, 53.15 -0.17 M0.14 73 C15.68 55.13, 31.21 37.26, 63.78 -0.21 M0.14 73 C18.28 52.14, 36.41 31.28, 63.78 -0.21 M0.28 85.04 C16.66 66.2, 33.04 47.35, 74.41 -0.24 M0.28 85.04 C25.59 55.92, 50.9 26.8, 74.41 -0.24 M-0.25 97.84 C29.97 63.07, 60.2 28.3, 85.04 -0.28 M-0.25 97.84 C30.5 62.46, 61.25 27.09, 85.04 -0.28 M-0.11 109.88 C21.41 85.11, 42.94 60.35, 95.67 -0.31 M-0.11 109.88 C21.37 85.16, 42.85 60.45, 95.67 -0.31 M0.02 121.92 C30.58 86.76, 61.15 51.6, 106.3 -0.34 M0.02 121.92 C36.13 80.38, 72.24 38.84, 106.3 -0.34 M0.15 133.96 C31.89 97.44, 63.63 60.93, 116.27 0.38 M0.15 133.96 C27.89 102.05, 55.64 70.13, 116.27 0.38 M0.29 146 C49.35 89.56, 98.42 33.11, 126.91 0.34 M0.29 146 C48.25 90.82, 96.21 35.65, 126.91 0.34 M-0.24 158.8 C42.54 109.58, 85.33 60.37, 137.54 0.31 M-0.24 158.8 C46.81 104.67, 93.86 50.55, 137.54 0.31 M-0.1 170.84 C58.89 102.97, 117.88 35.11, 148.17 0.27 M-0.1 170.84 C34.59 130.93, 69.28 91.02, 148.17 0.27 M0.03 182.88 C44.49 131.73, 88.95 80.59, 158.8 0.24 M0.03 182.88 C45.8 130.22, 91.58 77.56, 158.8 0.24 M0.16 194.92 C44.59 143.82, 89.01 92.71, 169.43 0.2 M0.16 194.92 C44.43 144, 88.69 93.07, 169.43 0.2 M0.3 206.96 C58.83 139.63, 117.36 72.29, 180.06 0.17 M0.3 206.96 C42.65 158.23, 85.01 109.51, 180.06 0.17 M-0.23 219.75 C61.81 148.38, 123.86 77.01, 190.69 0.13 M-0.23 219.75 C41.33 171.95, 82.89 124.14, 190.69 0.13 M-0.09 231.8 C78.66 141.2, 157.41 50.6, 201.32 0.1 M-0.09 231.8 C68.32 153.09, 136.74 74.39, 201.32 0.1 M0.04 243.84 C69.8 163.59, 139.56 83.34, 211.95 0.06 M0.04 243.84 C54.86 180.77, 109.68 117.71, 211.95 0.06 M0.17 255.88 C49.1 199.59, 98.02 143.31, 222.58 0.03 M0.17 255.88 C79.51 164.61, 158.85 73.34, 222.58 0.03 M0.3 267.92 C51.28 209.28, 102.25 150.64, 233.21 0 M0.3 267.92 C79.68 176.6, 159.06 85.29, 233.21 0 M-0.22 280.71 C86.74 180.68, 173.69 80.65, 243.84 -0.04 M-0.22 280.71 C59.09 212.49, 118.4 144.26, 243.84 -0.04 M-0.08 292.75 C85.89 193.86, 171.86 94.96, 254.47 -0.07 M-0.08 292.75 C56 228.24, 112.08 163.72, 254.47 -0.07 M0.05 304.8 C91.14 200.01, 182.23 95.22, 265.1 -0.11 M0.05 304.8 C94.08 196.62, 188.12 88.45, 265.1 -0.11 M0.18 316.84 C63.43 244.07, 126.69 171.31, 275.73 -0.14 M0.18 316.84 C70.01 236.51, 139.84 156.18, 275.73 -0.14 M0.31 328.88 C93.53 221.65, 186.74 114.42, 286.36 -0.18 M0.31 328.88 C71.34 247.18, 142.36 165.48, 286.36 -0.18 M-0.21 341.67 C70.55 260.28, 141.3 178.88, 296.99 -0.21 M-0.21 341.67 C117.6 206.15, 235.4 70.63, 296.99 -0.21 M-0.08 353.71 C75.81 266.41, 151.7 179.11, 307.62 -0.25 M-0.08 353.71 C86.01 254.68, 172.1 155.65, 307.62 -0.25 M0.06 365.75 C97.76 253.37, 195.45 140.98, 318.25 -0.28 M0.06 365.75 C65.44 290.54, 130.82 215.33, 318.25 -0.28 M0.19 377.79 C82.28 283.36, 164.36 188.94, 328.88 -0.31 M0.19 377.79 C67.74 300.09, 135.29 222.38, 328.88 -0.31 M0.32 389.84 C129.28 241.48, 258.25 93.13, 339.51 -0.35 M0.32 389.84 C80.69 297.39, 161.05 204.95, 339.51 -0.35 M-0.2 402.63 C97.33 290.43, 194.86 178.24, 349.48 0.37 M-0.2 402.63 C133.29 249.07, 266.77 95.51, 349.48 0.37 M-0.07 414.67 C72.45 331.26, 144.96 247.84, 360.11 0.34 M-0.07 414.67 C88.89 312.34, 177.85 210, 360.11 0.34 M0.07 426.71 C103.08 308.21, 206.1 189.7, 370.74 0.3 M0.07 426.71 C135.25 271.2, 270.44 115.69, 370.74 0.3 M0.2 438.75 C119.94 301.01, 239.68 163.26, 381.37 0.27 M0.2 438.75 C149.59 266.91, 298.97 95.06, 381.37 0.27 M-0.32 451.55 C152.87 275.32, 306.07 99.09, 392 0.23 M-0.32 451.55 C121.55 311.35, 243.43 171.15, 392 0.23 M-0.19 463.59 C105.51 341.99, 211.22 220.4, 402.63 0.2 M-0.19 463.59 C91.63 357.96, 183.45 252.33, 402.63 0.2 M-0.06 475.63 C148.9 304.28, 297.85 132.93, 413.26 0.16 M-0.06 475.63 C155.28 296.93, 310.62 118.24, 413.26 0.16 M0.08 487.67 C165.31 297.59, 330.54 107.51, 423.89 0.13 M0.08 487.67 C132.03 335.88, 263.98 184.08, 423.89 0.13 M0.21 499.71 C144.12 334.16, 288.03 168.62, 434.52 0.1 M0.21 499.71 C137.67 341.58, 275.14 183.44, 434.52 0.1 M-0.31 512.51 C106.73 389.37, 213.76 266.24, 445.15 0.06 M-0.31 512.51 C177.14 308.37, 354.6 104.23, 445.15 0.06 M-0.18 524.55 C112.51 394.92, 225.2 265.28, 455.78 0.03 M-0.18 524.55 C131.56 373, 263.3 221.45, 455.78 0.03 M-0.05 536.59 C166.67 344.81, 333.38 153.03, 466.41 -0.01 M-0.05 536.59 C114.35 405, 228.74 273.4, 466.41 -0.01 M0.09 548.63 C120.05 410.63, 240.01 272.63, 477.04 -0.04 M0.09 548.63 C119 411.83, 237.92 275.03, 477.04 -0.04 M0.22 560.67 C139.12 400.88, 278.03 241.09, 487.67 -0.08 M0.22 560.67 C101.72 443.91, 203.22 327.15, 487.67 -0.08 M-0.3 573.47 C143.4 408.16, 287.1 242.85, 498.3 -0.11 M-0.3 573.47 C176.19 370.44, 352.68 167.41, 498.3 -0.11 M-0.17 585.51 C186.53 370.74, 373.23 155.96, 508.93 -0.15 M-0.17 585.51 C123.84 442.86, 247.84 300.2, 508.93 -0.15 M-0.04 597.55 C156.35 417.65, 312.73 237.75, 519.56 -0.18 M-0.04 597.55 C186.55 382.91, 373.13 168.27, 519.56 -0.18 M0.1 609.59 C183.74 398.33, 367.38 187.08, 530.19 -0.22 M0.1 609.59 C163.12 422.05, 326.15 234.5, 530.19 -0.22 M0.23 621.63 C126.49 476.38, 252.76 331.13, 540.82 -0.25 M0.23 621.63 C119.68 484.22, 239.13 346.81, 540.82 -0.25 M-0.29 634.43 C202.66 400.95, 405.62 167.48, 551.45 -0.28 M-0.29 634.43 C196.34 408.23, 392.96 182.04, 551.45 -0.28 M-0.16 646.47 C129 497.88, 258.17 349.29, 562.08 -0.32 M-0.16 646.47 C166.16 455.14, 332.48 263.81, 562.08 -0.32 M-0.03 658.51 C214.58 411.63, 429.18 164.76, 572.71 -0.35 M-0.03 658.51 C198.32 430.33, 396.67 202.16, 572.71 -0.35 M0.11 670.55 C135.98 514.25, 271.85 357.95, 582.69 0.37 M0.11 670.55 C198.13 442.75, 396.16 214.95, 582.69 0.37 M0.24 682.59 C184.54 470.57, 368.85 258.56, 593.32 0.33 M0.24 682.59 C138.8 523.2, 277.35 363.81, 593.32 0.33 M-0.28 695.39 C234.03 425.84, 468.34 156.3, 603.95 0.3 M-0.28 695.39 C186.72 480.26, 373.72 265.14, 603.95 0.3 M-0.15 707.43 C196.42 481.3, 392.99 255.17, 614.58 0.26 M-0.15 707.43 C230.09 442.56, 460.33 177.7, 614.58 0.26 M-0.02 719.47 C148.27 548.88, 296.55 378.3, 625.21 0.23 M-0.02 719.47 C225.57 459.96, 451.16 200.45, 625.21 0.23 M0.12 731.51 C219.74 478.86, 439.36 226.21, 635.84 0.19 M0.12 731.51 C206.93 493.59, 413.75 255.68, 635.84 0.19 M3.53 739.78 C212.57 499.3, 421.61 258.83, 646.47 0.16 M3.53 739.78 C164.34 554.78, 325.15 369.79, 646.47 0.16 M14.16 739.74 C227.38 494.46, 440.59 249.19, 657.1 0.13 M14.16 739.74 C169.89 560.59, 325.63 381.44, 657.1 0.13 M24.79 739.71 C279.02 447.25, 533.25 154.79, 667.73 0.09 M24.79 739.71 C239.32 492.92, 453.84 246.14, 667.73 0.09 M35.42 739.67 C178.14 575.49, 320.86 411.31, 678.36 0.06 M35.42 739.67 C216.39 531.48, 397.37 323.3, 678.36 0.06 M46.05 739.64 C297.94 449.87, 549.83 160.1, 688.99 0.02 M46.05 739.64 C282.46 467.68, 518.87 195.72, 688.99 0.02 M56.68 739.6 C288.32 473.13, 519.96 206.66, 699.62 -0.01 M56.68 739.6 C313.44 444.23, 570.2 148.87, 699.62 -0.01 M67.31 739.57 C233.17 548.77, 399.02 357.98, 710.25 -0.05 M67.31 739.57 C265.64 511.42, 463.97 283.26, 710.25 -0.05 M77.94 739.53 C264.58 524.83, 451.22 310.13, 720.88 -0.08 M77.94 739.53 C304.31 479.12, 530.68 218.71, 720.88 -0.08 M88.57 739.5 C305.71 489.71, 522.84 239.92, 731.51 -0.12 M88.57 739.5 C289.32 508.57, 490.07 277.63, 731.51 -0.12 M99.2 739.46 C327.92 476.35, 556.64 213.24, 742.14 -0.15 M99.2 739.46 C289.47 520.58, 479.74 301.7, 742.14 -0.15 M109.17 740.19 C350.4 462.69, 591.62 185.19, 752.77 -0.19 M109.17 740.19 C324.93 491.99, 540.68 243.79, 752.77 -0.19 M119.8 740.15 C313.14 517.75, 506.47 295.34, 763.4 -0.22 M119.8 740.15 C368.97 453.52, 618.14 166.88, 763.4 -0.22 M130.43 740.12 C331.86 508.4, 533.28 276.69, 774.03 -0.25 M130.43 740.12 C345.22 493.04, 560 245.96, 774.03 -0.25 M141.06 740.08 C313.54 541.67, 486.03 343.25, 784.66 -0.29 M141.06 740.08 C386.9 457.28, 632.74 174.47, 784.66 -0.29 M151.69 740.05 C342.17 520.94, 532.64 301.82, 795.29 -0.32 M151.69 740.05 C321.57 544.63, 491.45 349.21, 795.29 -0.32 M162.32 740.01 C292.52 590.24, 422.72 440.47, 805.92 -0.36 M162.32 740.01 C314.64 564.79, 466.96 389.57, 805.92 -0.36 M172.95 739.98 C344.94 542.13, 516.93 344.28, 815.89 0.36 M172.95 739.98 C354.37 531.29, 535.78 322.59, 815.89 0.36 M183.58 739.94 C342.42 557.23, 501.25 374.51, 826.52 0.33 M183.58 739.94 C381.27 512.54, 578.95 285.13, 826.52 0.33 M194.22 739.91 C432.99 465.23, 671.77 190.54, 837.15 0.29 M194.22 739.91 C415.78 485.03, 637.35 230.14, 837.15 0.29 M204.85 739.87 C427.3 483.97, 649.75 228.07, 847.78 0.26 M204.85 739.87 C430.28 480.54, 655.72 221.21, 847.78 0.26 M215.48 739.84 C441.36 479.98, 667.25 220.13, 858.41 0.22 M215.48 739.84 C348.92 586.33, 482.37 432.82, 858.41 0.22 M226.11 739.81 C382.27 560.16, 538.43 380.51, 869.04 0.19 M226.11 739.81 C433.4 501.34, 640.69 262.88, 869.04 0.19 M236.74 739.77 C462.48 480.08, 688.23 220.39, 879.67 0.16 M236.74 739.77 C382.83 571.7, 528.93 403.64, 879.67 0.16 M247.37 739.74 C428.35 531.54, 609.33 323.35, 890.3 0.12 M247.37 739.74 C491.07 459.38, 734.78 179.03, 890.3 0.12 M258 739.7 C460.18 507.11, 662.37 274.53, 900.93 0.09 M258 739.7 C489.39 473.51, 720.79 207.32, 900.93 0.09 M268.63 739.67 C400.77 587.65, 532.92 435.63, 911.56 0.05 M268.63 739.67 C446.6 534.93, 624.57 330.2, 911.56 0.05 M279.26 739.63 C526.88 454.77, 774.51 169.91, 922.19 0.02 M279.26 739.63 C511.88 472.03, 744.5 204.43, 922.19 0.02 M289.89 739.6 C520.56 474.24, 751.23 208.88, 932.82 -0.02 M289.89 739.6 C529.01 464.51, 768.14 189.43, 932.82 -0.02 M300.52 739.56 C497.83 512.58, 695.15 285.59, 943.45 -0.05 M300.52 739.56 C550.75 451.7, 800.98 163.84, 943.45 -0.05 M311.15 739.53 C494.37 528.76, 677.59 317.99, 954.08 -0.09 M311.15 739.53 C453.02 576.33, 594.89 413.12, 954.08 -0.09 M321.78 739.5 C465.46 574.21, 609.14 408.92, 964.71 -0.12 M321.78 739.5 C577.88 444.88, 833.99 150.26, 964.71 -0.12 M332.41 739.46 C543.21 496.96, 754.01 254.47, 975.34 -0.15 M332.41 739.46 C576.24 458.96, 820.08 178.45, 975.34 -0.15 M342.38 740.18 C521.7 533.89, 701.02 327.61, 985.97 -0.19 M342.38 740.18 C564.71 484.42, 787.05 228.65, 985.97 -0.19 M353.01 740.15 C501.82 568.96, 650.62 397.78, 996.6 -0.22 M353.01 740.15 C484.28 589.14, 615.55 438.13, 996.6 -0.22 M363.64 740.11 C502.72 580.12, 641.8 420.12, 1007.23 -0.26 M363.64 740.11 C612.59 453.73, 861.54 167.34, 1007.23 -0.26 M374.27 740.08 C592.29 489.27, 810.31 238.47, 1017.86 -0.29 M374.27 740.08 C535.84 554.22, 697.4 368.36, 1017.86 -0.29 M384.9 740.04 C629.24 458.96, 873.58 177.88, 1028.49 -0.33 M384.9 740.04 C564.25 533.73, 743.59 327.42, 1028.49 -0.33 M395.53 740.01 C649.27 448.12, 903 156.23, 1039.12 -0.36 M395.53 740.01 C573.63 535.13, 751.72 330.25, 1039.12 -0.36 M406.16 739.97 C607.41 508.46, 808.67 276.94, 1049.1 0.36 M406.16 739.97 C648.71 460.96, 891.25 181.94, 1049.1 0.36 M416.79 739.94 C636.31 487.41, 855.84 234.87, 1059.73 0.32 M416.79 739.94 C569.34 564.45, 721.89 388.96, 1059.73 0.32 M427.42 739.9 C658.86 473.67, 890.29 207.43, 1070.36 0.29 M427.42 739.9 C580.97 563.27, 734.52 386.63, 1070.36 0.29 M438.05 739.87 C646.41 500.18, 854.77 260.48, 1080.99 0.26 M438.05 739.87 C623.82 526.17, 809.58 312.47, 1080.99 0.26 M448.68 739.84 C618.57 544.4, 788.46 348.97, 1091.62 0.22 M448.68 739.84 C589.89 577.39, 731.1 414.95, 1091.62 0.22 M459.31 739.8 C643.14 528.33, 826.96 316.86, 1102.25 0.19 M459.31 739.8 C708.74 452.86, 958.18 165.92, 1102.25 0.19 M469.94 739.77 C703.68 470.88, 937.42 201.99, 1102.38 12.23 M469.94 739.77 C644.45 539.01, 818.97 338.26, 1102.38 12.23 M480.57 739.73 C711.13 474.51, 941.69 209.28, 1102.52 24.27 M480.57 739.73 C661.31 531.82, 842.04 323.91, 1102.52 24.27 M491.2 739.7 C625.57 585.13, 759.94 430.55, 1102.65 36.31 M491.2 739.7 C713.75 483.68, 936.3 227.67, 1102.65 36.31 M501.83 739.66 C695.24 517.17, 888.65 294.68, 1102.13 49.1 M501.83 739.66 C713.79 495.83, 925.76 251.99, 1102.13 49.1 M512.46 739.63 C723.9 496.4, 935.34 253.16, 1102.26 61.15 M512.46 739.63 C654.01 576.79, 795.56 413.96, 1102.26 61.15 M523.09 739.59 C687.69 550.25, 852.29 360.9, 1102.39 73.19 M523.09 739.59 C715.25 518.54, 907.41 297.48, 1102.39 73.19 M533.72 739.56 C721.18 523.92, 908.64 308.27, 1102.53 85.23 M533.72 739.56 C681.76 569.26, 829.8 398.96, 1102.53 85.23 M544.35 739.53 C656.16 610.9, 767.97 482.28, 1102.66 97.27 M544.35 739.53 C758.01 493.74, 971.67 247.95, 1102.66 97.27 M554.98 739.49 C706.38 565.32, 857.78 391.16, 1102.14 110.06 M554.98 739.49 C763.46 499.67, 971.93 259.84, 1102.14 110.06 M565.61 739.46 C680.65 607.13, 795.68 474.8, 1102.27 122.1 M565.61 739.46 C706.37 577.54, 847.12 415.62, 1102.27 122.1 M575.59 740.18 C756.64 531.9, 937.69 323.62, 1102.4 134.14 M575.59 740.18 C764.45 522.91, 953.32 305.64, 1102.4 134.14 M586.22 740.14 C725.69 579.69, 865.17 419.24, 1102.53 146.19 M586.22 740.14 C754.92 546.08, 923.62 352.01, 1102.53 146.19 M596.85 740.11 C735.55 580.55, 874.25 420.99, 1102.67 158.23 M596.85 740.11 C773.37 537.04, 949.9 333.97, 1102.67 158.23 M607.48 740.07 C761.5 562.89, 915.53 385.7, 1102.14 171.02 M607.48 740.07 C771.86 550.98, 936.24 361.88, 1102.14 171.02 M618.11 740.04 C720.79 621.92, 823.47 503.79, 1102.28 183.06 M618.11 740.04 C767.57 568.1, 917.04 396.15, 1102.28 183.06 M628.74 740 C762.22 586.45, 895.7 432.89, 1102.41 195.1 M628.74 740 C740.16 611.82, 851.59 483.64, 1102.41 195.1 M639.37 739.97 C778.79 579.58, 918.21 419.19, 1102.54 207.14 M639.37 739.97 C821.82 530.08, 1004.27 320.19, 1102.54 207.14 M650 739.94 C797.2 570.6, 944.41 401.25, 1102.68 219.19 M650 739.94 C827.35 535.92, 1004.7 331.9, 1102.68 219.19 M660.63 739.9 C786.36 595.26, 912.1 450.61, 1102.15 231.98 M660.63 739.9 C819.96 556.61, 979.29 373.33, 1102.15 231.98 M671.26 739.87 C837.32 548.83, 1003.38 357.8, 1102.29 244.02 M671.26 739.87 C825.65 562.26, 980.04 384.66, 1102.29 244.02 M681.89 739.83 C811.04 591.26, 940.19 442.68, 1102.42 256.06 M681.89 739.83 C835.72 562.87, 989.54 385.91, 1102.42 256.06 M692.52 739.8 C776.9 642.72, 861.29 545.65, 1102.55 268.1 M692.52 739.8 C811.72 602.67, 930.92 465.55, 1102.55 268.1 M703.15 739.76 C827.72 596.46, 952.28 453.16, 1102.69 280.14 M703.15 739.76 C848.97 572.02, 994.78 404.27, 1102.69 280.14 M713.78 739.73 C842.15 592.05, 970.52 444.38, 1102.16 292.94 M713.78 739.73 C848 585.32, 982.22 430.91, 1102.16 292.94 M724.41 739.69 C816.05 634.27, 907.69 528.85, 1102.3 304.98 M724.41 739.69 C843.3 602.92, 962.19 466.15, 1102.3 304.98 M735.04 739.66 C846.43 611.51, 957.83 483.37, 1102.43 317.02 M735.04 739.66 C837.57 621.71, 940.11 503.75, 1102.43 317.02 M745.67 739.62 C832.42 639.83, 919.17 540.03, 1102.56 329.06 M745.67 739.62 C878.08 587.3, 1010.5 434.97, 1102.56 329.06 M756.3 739.59 C848.99 632.96, 941.68 526.33, 1102.7 341.1 M756.3 739.59 C842.01 640.98, 927.73 542.38, 1102.7 341.1 M766.93 739.56 C853.16 640.36, 939.38 541.17, 1102.17 353.9 M766.93 739.56 C864.29 627.56, 961.64 515.56, 1102.17 353.9 M777.56 739.52 C896.87 602.26, 1016.19 465, 1102.31 365.94 M777.56 739.52 C844.76 662.22, 911.96 584.91, 1102.31 365.94 M788.19 739.49 C860.05 656.82, 931.91 574.16, 1102.44 377.98 M788.19 739.49 C860.16 656.69, 932.14 573.89, 1102.44 377.98 M798.82 739.45 C904.05 618.4, 1009.28 497.34, 1102.57 390.02 M798.82 739.45 C894.13 629.81, 989.43 520.18, 1102.57 390.02 M808.79 740.17 C897.32 638.33, 985.85 536.5, 1102.71 402.06 M808.79 740.17 C909.65 624.15, 1010.5 508.13, 1102.71 402.06 M819.42 740.14 C917.94 626.81, 1016.46 513.47, 1102.18 414.86 M819.42 740.14 C911.1 634.68, 1002.77 529.22, 1102.18 414.86 M830.05 740.1 C889.56 671.65, 949.06 603.2, 1102.32 426.9 M830.05 740.1 C935.96 618.27, 1041.87 496.43, 1102.32 426.9 M840.68 740.07 C923.69 644.58, 1006.69 549.1, 1102.45 438.94 M840.68 740.07 C943.96 621.27, 1047.23 502.46, 1102.45 438.94 M851.31 740.03 C932.85 646.24, 1014.38 552.45, 1102.58 450.98 M851.31 740.03 C932.43 646.72, 1013.55 553.4, 1102.58 450.98 M861.94 740 C957.34 630.26, 1052.74 520.51, 1102.72 463.02 M861.94 740 C929.59 662.18, 997.24 584.36, 1102.72 463.02 M872.57 739.97 C955.87 644.15, 1039.16 548.33, 1102.19 475.82 M872.57 739.97 C941.67 660.48, 1010.76 580.99, 1102.19 475.82 M883.2 739.93 C955.41 656.86, 1027.62 573.8, 1102.33 487.86 M883.2 739.93 C957.65 654.29, 1032.1 568.65, 1102.33 487.86 M893.83 739.9 C951.64 673.4, 1009.44 606.9, 1102.46 499.9 M893.83 739.9 C952.14 672.82, 1010.45 605.75, 1102.46 499.9 M904.46 739.86 C956.14 680.42, 1007.81 620.97, 1102.59 511.94 M904.46 739.86 C969.28 665.3, 1034.1 590.73, 1102.59 511.94 M915.09 739.83 C954.73 694.24, 994.36 648.64, 1102.73 523.98 M915.09 739.83 C955.39 693.47, 995.69 647.11, 1102.73 523.98 M925.72 739.79 C984.63 672.03, 1043.54 604.27, 1102.2 536.78 M925.72 739.79 C996.21 658.7, 1066.7 577.62, 1102.2 536.78 M936.35 739.76 C987.63 680.77, 1038.92 621.77, 1102.34 548.82 M936.35 739.76 C980.02 689.53, 1023.69 639.29, 1102.34 548.82 M946.98 739.72 C992.42 687.46, 1037.85 635.19, 1102.47 560.86 M946.98 739.72 C995.62 683.78, 1044.25 627.83, 1102.47 560.86 M957.61 739.69 C1003.14 687.32, 1048.67 634.94, 1102.6 572.9 M957.61 739.69 C1012.8 676.21, 1067.98 612.73, 1102.6 572.9 M968.24 739.66 C1005.69 696.57, 1043.14 653.49, 1102.08 585.69 M968.24 739.66 C998.16 705.24, 1028.08 670.82, 1102.08 585.69 M978.87 739.62 C1024.53 687.1, 1070.18 634.59, 1102.21 597.74 M978.87 739.62 C1018.79 693.7, 1058.71 647.78, 1102.21 597.74 M989.5 739.59 C1016.63 708.38, 1043.76 677.17, 1102.35 609.78 M989.5 739.59 C1021.99 702.21, 1054.48 664.84, 1102.35 609.78 M1000.13 739.55 C1022.76 713.52, 1045.39 687.49, 1102.48 621.82 M1000.13 739.55 C1025.55 710.31, 1050.98 681.06, 1102.48 621.82 M1010.76 739.52 C1039.94 705.95, 1069.12 672.39, 1102.61 633.86 M1010.76 739.52 C1034.84 711.82, 1058.91 684.13, 1102.61 633.86 M1021.39 739.48 C1038.39 719.93, 1055.38 700.38, 1102.09 646.65 M1021.39 739.48 C1046.5 710.6, 1071.61 681.72, 1102.09 646.65 M1031.37 740.2 C1049.46 719.39, 1067.56 698.57, 1102.22 658.69 M1031.37 740.2 C1052.8 715.55, 1074.23 690.9, 1102.22 658.69 M1042 740.17 C1059.05 720.56, 1076.09 700.94, 1102.36 670.74 M1042 740.17 C1058.18 721.55, 1074.36 702.94, 1102.36 670.74 M1052.63 740.13 C1072.44 717.35, 1092.25 694.56, 1102.49 682.78 M1052.63 740.13 C1070.83 719.19, 1089.04 698.25, 1102.49 682.78 M1063.26 740.1 C1078.23 722.87, 1093.2 705.65, 1102.62 694.82 M1063.26 740.1 C1074.11 727.62, 1084.95 715.14, 1102.62 694.82 M1073.89 740.06 C1081.99 730.75, 1090.09 721.43, 1102.1 707.61 M1073.89 740.06 C1079.71 733.36, 1085.54 726.66, 1102.1 707.61 M1084.52 740.03 C1088.91 734.97, 1093.31 729.92, 1102.23 719.65 M1084.52 740.03 C1089.65 734.13, 1094.79 728.22, 1102.23 719.65 M1095.15 740 C1097.09 737.76, 1099.03 735.53, 1102.37 731.69 M1095.15 740 C1097.91 736.82, 1100.67 733.64, 1102.37 731.69" stroke="#ced4da" stroke-width="1" fill="none"></path><path d="M0 0 C226.74 0, 453.48 0, 1102.4 0 M0 0 C432.65 0, 865.31 0, 1102.4 0 M1102.4 0 C1102.4 179.15, 1102.4 358.31, 1102.4 736.8 M1102.4 0 C1102.4 172.74, 1102.4 345.48, 1102.4 736.8 M1102.4 736.8 C708.34 736.8, 314.28 736.8, 0 736.8 M1102.4 736.8 C778.59 736.8, 454.77 736.8, 0 736.8 M0 736.8 C0 457.51, 0 178.21, 0 0 M0 736.8 C0 587.7, 0 438.59, 0 0" stroke="#000000" stroke-width="2" fill="none"></path></g><g stroke-linecap="round" transform="translate(77.20001220703125 260.40013122558594) rotate(0 165.19998168945312 124.80000305175781)"><path d="M0 0 L330.4 0 L330.4 249.6 L0 249.6" stroke="none" stroke-width="0" fill="#4c6ef5"></path><path d="M0 0 C112.67 0, 225.34 0, 330.4 0 M0 0 C102.18 0, 204.35 0, 330.4 0 M330.4 0 C330.4 76.58, 330.4 153.17, 330.4 249.6 M330.4 0 C330.4 85.73, 330.4 171.47, 330.4 249.6 M330.4 249.6 C230.47 249.6, 130.55 249.6, 0 249.6 M330.4 249.6 C240.36 249.6, 150.33 249.6, 0 249.6 M0 249.6 C0 159.77, 0 69.94, 0 0 M0 249.6 C0 199.23, 0 148.86, 0 0" stroke="#000000" stroke-width="2" fill="none"></path></g><g stroke-linecap="round" transform="translate(117.20001220703125 346.80015563964844) rotate(0 19.20001220703125 19.20001220703125)"><path d="M12.31 2.18 C15.82 0.61, 20.69 0.54, 24.48 1.57 C28.27 2.6, 32.67 4.98, 35.06 8.34 C37.45 11.7, 39.21 17.47, 38.84 21.73 C38.47 26, 35.82 31.08, 32.86 33.93 C29.9 36.77, 25.37 38.7, 21.08 38.82 C16.79 38.93, 10.7 37.25, 7.13 34.6 C3.55 31.95, 0.56 27.01, -0.39 22.92 C-1.35 18.83, -1.3 13.66, 1.4 10.06 C4.1 6.46, 12.94 3.04, 15.81 1.32 C18.68 -0.4, 18.69 -0.35, 18.63 -0.24 M19.55 0.58 C23.34 0.35, 28.43 1.11, 31.34 3.56 C34.24 6, 36.31 10.74, 36.98 15.24 C37.65 19.73, 37.29 26.58, 35.37 30.52 C33.44 34.46, 29.39 37.93, 25.41 38.87 C21.42 39.8, 15.52 37.72, 11.45 36.12 C7.38 34.52, 2.6 32.73, 0.99 29.25 C-0.63 25.77, 0.65 19.6, 1.77 15.25 C2.89 10.9, 4.76 5.83, 7.71 3.17 C10.66 0.51, 17.61 -0.2, 19.48 -0.72 C21.35 -1.24, 18.8 -0.51, 18.93 0.04" stroke="none" stroke-width="0" fill="#82c91e"></path><path d="M21.56 -0.82 C25.66 -0.59, 30.73 2.42, 33.48 5.37 C36.23 8.33, 37.71 12.8, 38.05 16.92 C38.39 21.04, 38.01 26.55, 35.5 30.09 C32.99 33.62, 27.28 37.14, 23.01 38.13 C18.74 39.12, 13.53 38.03, 9.9 36.01 C6.28 34, 2.73 29.78, 1.26 26.03 C-0.21 22.28, -0.08 17.39, 1.09 13.51 C2.26 9.62, 4.47 4.85, 8.27 2.72 C12.08 0.59, 20.57 0.83, 23.92 0.74 C27.27 0.66, 28.25 1.77, 28.39 2.2 M25.59 2.51 C29.5 3.73, 34.33 5.75, 36.5 9.1 C38.68 12.46, 39.56 18.67, 38.66 22.64 C37.75 26.61, 34.39 30.44, 31.09 32.92 C27.8 35.4, 23.12 37.13, 18.89 37.54 C14.67 37.95, 8.85 38.03, 5.77 35.38 C2.68 32.73, 1.06 25.72, 0.37 21.65 C-0.33 17.59, -0.36 14.27, 1.59 10.97 C3.54 7.67, 7.89 3.53, 12.07 1.86 C16.25 0.19, 24.63 1.07, 26.64 0.96 C28.66 0.84, 24.66 1.02, 24.18 1.17" stroke="#000000" stroke-width="2" fill="none"></path></g><g stroke-linecap="round" transform="translate(180.39996337890625 364.6000518798828) rotate(0 19.20001220703125 19.20001220703125)"><path d="M12.04 0.76 C15.5 -0.69, 21.43 0.52, 25.51 2 C29.6 3.48, 34.31 6.19, 36.54 9.63 C38.76 13.07, 39.75 18.45, 38.85 22.62 C37.94 26.78, 34.35 31.92, 31.1 34.62 C27.84 37.33, 23.26 38.87, 19.32 38.84 C15.39 38.81, 10.58 37.33, 7.48 34.47 C4.37 31.6, 1.51 25.98, 0.7 21.65 C-0.1 17.32, 0.56 12.07, 2.66 8.48 C4.76 4.88, 11.27 1.29, 13.29 0.09 C15.31 -1.12, 14.4 0.96, 14.77 1.27 M13.42 0.91 C17.04 -0.52, 21.99 -0.46, 25.88 0.95 C29.76 2.37, 34.96 5.89, 36.73 9.4 C38.5 12.9, 37.7 17.82, 36.51 21.97 C35.31 26.12, 32.4 31.5, 29.57 34.3 C26.74 37.11, 23.18 39.01, 19.53 38.8 C15.89 38.58, 11.06 36.05, 7.7 33.03 C4.33 30, -0.05 24.43, -0.65 20.65 C-1.25 16.87, 1.74 13.57, 4.09 10.32 C6.45 7.07, 12.05 2.74, 13.47 1.15 C14.89 -0.44, 12.65 0.68, 12.59 0.77" stroke="none" stroke-width="0" fill="#40c057"></path><path d="M25.68 0.41 C29.27 1.46, 32.85 5.95, 34.78 9.67 C36.7 13.38, 37.81 18.73, 37.23 22.68 C36.65 26.64, 34.39 30.65, 31.28 33.4 C28.16 36.15, 22.65 39.19, 18.55 39.18 C14.45 39.16, 9.67 36.16, 6.69 33.29 C3.7 30.42, 1.43 25.94, 0.65 21.98 C-0.14 18.01, 0.19 12.88, 1.98 9.48 C3.77 6.09, 6.9 2.75, 11.38 1.61 C15.86 0.46, 25.47 2.09, 28.86 2.63 C32.26 3.18, 31.84 4.48, 31.73 4.87 M17.46 0.23 C20.95 -0.71, 24.48 0.73, 28.05 3.04 C31.63 5.34, 37.45 10.1, 38.91 14.06 C40.37 18.03, 38.52 23.27, 36.82 26.83 C35.12 30.39, 32.43 33.66, 28.71 35.42 C24.99 37.17, 18.74 38.3, 14.5 37.34 C10.26 36.39, 5.45 32.83, 3.25 29.71 C1.04 26.59, 1.19 22.62, 1.26 18.6 C1.33 14.58, 0.96 8.69, 3.68 5.58 C6.39 2.47, 15.3 0.59, 17.54 -0.05 C19.78 -0.68, 17.26 1.61, 17.11 1.78" stroke="#000000" stroke-width="2" fill="none"></path></g><g stroke-linecap="round" transform="translate(246.39996337890625 395.6000518798828) rotate(0 19.20001220703125 19.20001220703125)"><path d="M20 -0.16 C24.11 -0.17, 28.99 2.79, 32 5.35 C35.01 7.91, 37.46 11.39, 38.06 15.19 C38.67 19, 37.8 24.44, 35.63 28.19 C33.45 31.94, 28.8 36.31, 25.01 37.68 C21.22 39.05, 16.71 37.96, 12.91 36.39 C9.11 34.82, 4.19 31.59, 2.21 28.25 C0.24 24.91, 0.31 20.21, 1.07 16.37 C1.83 12.53, 3.29 7.95, 6.75 5.21 C10.21 2.48, 18.77 0.56, 21.82 -0.06 C24.87 -0.68, 25 1.01, 25.05 1.5 M25.83 -0.18 C29.27 0.95, 32.85 4.85, 34.75 8.77 C36.65 12.7, 37.55 19.33, 37.23 23.37 C36.91 27.41, 36.02 30.58, 32.84 33.02 C29.66 35.45, 22.57 37.84, 18.15 38 C13.72 38.15, 9.27 36.65, 6.29 33.96 C3.31 31.27, 0.94 25.86, 0.25 21.88 C-0.43 17.9, 0.23 13.77, 2.18 10.07 C4.12 6.36, 8.19 1.37, 11.93 -0.35 C15.67 -2.07, 22.33 -0.72, 24.62 -0.23 C26.92 0.26, 25.53 1.82, 25.7 2.59" stroke="none" stroke-width="0" fill="#15aabf"></path><path d="M25.97 1.8 C29.82 2.88, 35.29 5.82, 37.21 9.55 C39.13 13.29, 38.43 20, 37.48 24.21 C36.53 28.41, 34.6 32.41, 31.5 34.81 C28.4 37.21, 23.04 38.83, 18.85 38.61 C14.67 38.38, 9.62 36.44, 6.39 33.45 C3.17 30.46, -0.01 24.92, -0.5 20.64 C-0.99 16.37, 1.01 11.19, 3.44 7.81 C5.86 4.42, 9.54 1.15, 14.05 0.33 C18.55 -0.48, 27.04 1.81, 30.47 2.91 C33.9 4.02, 34.9 6.51, 34.62 6.97 M9.71 2.27 C13.17 0.46, 19.59 -0.43, 23.67 0.36 C27.74 1.16, 31.72 3.48, 34.14 7.05 C36.57 10.61, 38.53 17.32, 38.22 21.75 C37.91 26.18, 35.02 30.7, 32.3 33.63 C29.57 36.56, 25.87 39.33, 21.84 39.33 C17.82 39.32, 11.67 35.91, 8.16 33.61 C4.65 31.32, 1.7 29.36, 0.78 25.56 C-0.13 21.76, 0.87 14.71, 2.68 10.82 C4.49 6.93, 10.32 3.79, 11.64 2.21 C12.96 0.63, 10.66 1.28, 10.61 1.35" stroke="#000000" stroke-width="2" fill="none"></path></g><g stroke-linecap="round" transform="translate(320 338.2001190185547) rotate(0 19.20001220703125 19.20001220703125)"><path d="M15.92 0.45 C19.65 -0.56, 23.67 -0.23, 27.29 1.65 C30.92 3.53, 35.9 7.7, 37.67 11.73 C39.44 15.76, 39.26 21.99, 37.89 25.82 C36.51 29.64, 32.99 32.7, 29.42 34.66 C25.85 36.61, 20.67 37.89, 16.49 37.54 C12.32 37.19, 7.03 35.61, 4.34 32.55 C1.66 29.49, 0.49 23.43, 0.38 19.17 C0.27 14.92, 0.87 10.07, 3.68 7 C6.49 3.94, 14.9 1.75, 17.25 0.78 C19.59 -0.18, 17.86 1.03, 17.75 1.21 M25.73 1.82 C29.58 2.4, 33.73 4.51, 35.82 7.52 C37.9 10.53, 38.98 15.77, 38.24 19.87 C37.5 23.97, 34.47 28.91, 31.37 32.11 C28.27 35.32, 23.33 38.81, 19.64 39.08 C15.96 39.35, 12.6 36.36, 9.27 33.74 C5.93 31.13, 0.92 27.21, -0.38 23.4 C-1.68 19.59, -0.48 14.59, 1.48 10.87 C3.45 7.16, 7.64 2.7, 11.41 1.1 C15.18 -0.49, 22.05 1.56, 24.08 1.32 C26.11 1.08, 23.83 -0.32, 23.61 -0.34" stroke="none" stroke-width="0" fill="#fa5252"></path><path d="M21.11 0.83 C25.17 0.84, 29.47 2.83, 32.21 5.54 C34.94 8.26, 36.85 13.25, 37.52 17.11 C38.18 20.97, 38.4 25.18, 36.21 28.7 C34.03 32.22, 28.36 36.83, 24.4 38.24 C20.45 39.64, 16.07 38.83, 12.47 37.15 C8.86 35.47, 4.71 31.84, 2.77 28.17 C0.82 24.49, 0.08 19.31, 0.78 15.11 C1.48 10.91, 3.34 5.62, 6.99 2.99 C10.63 0.35, 19.68 -0.28, 22.63 -0.68 C25.59 -1.08, 24.88 0.27, 24.73 0.58 M26.93 0.14 C30.64 1.5, 33.95 5.75, 35.55 9.7 C37.14 13.64, 37.38 19.74, 36.52 23.8 C35.65 27.87, 33.52 31.85, 30.36 34.08 C27.21 36.31, 21.63 37.16, 17.6 37.18 C13.57 37.2, 9.15 36.64, 6.17 34.21 C3.2 31.77, 0.1 26.61, -0.26 22.57 C-0.61 18.52, 1.74 13.75, 4.02 9.93 C6.29 6.11, 9.63 0.81, 13.4 -0.37 C17.17 -1.54, 24.34 2.58, 26.64 2.9 C28.94 3.23, 27.26 1.47, 27.19 1.59" stroke="#000000" stroke-width="2" fill="none"></path></g><g stroke-linecap="round" transform="translate(336.19989013671875 442.80006408691406) rotate(0 19.20001220703125 19.20001220703125)"><path d="M26.72 1.15 C30.36 2.2, 33.37 6.11, 35.15 9.58 C36.93 13.06, 37.95 17.89, 37.39 22.02 C36.84 26.15, 35.02 31.7, 31.83 34.37 C28.63 37.05, 22.48 38.05, 18.22 38.08 C13.96 38.12, 9.16 37.21, 6.26 34.57 C3.37 31.92, 1.33 26.41, 0.86 22.2 C0.39 17.99, 1.49 12.73, 3.43 9.31 C5.38 5.89, 8.52 2.87, 12.52 1.67 C16.51 0.47, 24.69 1.85, 27.4 2.12 C30.11 2.38, 28.87 3.15, 28.76 3.26 M17.96 -0.85 C22.21 -0.74, 28.83 3.1, 32.02 5.68 C35.21 8.26, 36.49 10.89, 37.09 14.62 C37.68 18.35, 37.4 24.3, 35.58 28.05 C33.76 31.79, 30.05 35.64, 26.19 37.11 C22.32 38.59, 16.21 38.37, 12.39 36.89 C8.58 35.42, 5.57 31.92, 3.3 28.26 C1.03 24.6, -1.54 18.86, -1.23 14.93 C-0.91 10.99, 1.67 7.07, 5.19 4.65 C8.72 2.23, 17.4 1.19, 19.91 0.41 C22.42 -0.37, 20.56 -0.09, 20.26 -0.04" stroke="none" stroke-width="0" fill="#fab005"></path><path d="M11.33 0.87 C14.95 -0.8, 21.98 0.27, 26.08 1.78 C30.17 3.29, 33.84 6.48, 35.9 9.93 C37.95 13.37, 39.05 18.59, 38.4 22.44 C37.76 26.28, 35.34 30.29, 32.05 33.01 C28.77 35.72, 23.01 38.46, 18.7 38.73 C14.4 39, 9.37 37.3, 6.23 34.62 C3.09 31.93, 0.66 26.6, -0.14 22.62 C-0.94 18.64, -1.12 14.57, 1.42 10.72 C3.95 6.88, 12.13 1.41, 15.09 -0.46 C18.05 -2.32, 19.1 -0.86, 19.16 -0.48 M10 1.35 C13.07 -0.6, 17.93 -0.61, 22.13 0.35 C26.34 1.3, 32.39 3.61, 35.23 7.07 C38.07 10.52, 39.33 16.87, 39.18 21.06 C39.04 25.25, 37.49 29.31, 34.36 32.19 C31.24 35.08, 24.45 37.7, 20.45 38.38 C16.46 39.06, 13.66 38.41, 10.37 36.26 C7.07 34.11, 2.11 29.67, 0.69 25.49 C-0.72 21.3, 0.42 15.16, 1.9 11.16 C3.37 7.17, 8.26 3.2, 9.55 1.53 C10.84 -0.14, 9.15 0.77, 9.63 1.16" stroke="#000000" stroke-width="2" fill="none"></path></g><g stroke-linecap="round" transform="translate(148.5999755859375 442.0000762939453) rotate(0 19.20001220703125 19.20001220703125)"><path d="M11.42 1.77 C15.05 0.08, 21.62 -0.99, 25.59 0.15 C29.55 1.29, 32.99 4.89, 35.22 8.63 C37.44 12.36, 39.53 18.28, 38.96 22.56 C38.39 26.84, 35.03 31.71, 31.8 34.31 C28.58 36.9, 23.62 38.07, 19.63 38.13 C15.64 38.18, 11 37, 7.87 34.63 C4.74 32.26, 1.65 27.91, 0.84 23.9 C0.03 19.89, 0.71 14.48, 3 10.56 C5.3 6.64, 12.17 2.19, 14.61 0.37 C17.06 -1.45, 17.58 -0.59, 17.65 -0.36 M22.84 0.15 C26.39 1.03, 31.63 4.69, 34.21 7.99 C36.8 11.29, 38.61 15.76, 38.34 19.94 C38.07 24.11, 35.58 30.24, 32.6 33.06 C29.62 35.87, 24.68 36.71, 20.46 36.82 C16.23 36.93, 10.56 35.6, 7.27 33.73 C3.98 31.85, 1.59 29.07, 0.72 25.58 C-0.15 22.1, 0.44 16.89, 2.04 12.81 C3.64 8.74, 6.88 2.99, 10.3 1.14 C13.72 -0.71, 20.14 1.72, 22.59 1.72 C25.04 1.71, 24.85 1.12, 25.01 1.1" stroke="none" stroke-width="0" fill="#228be6"></path><path d="M26.27 1.33 C29.96 2.4, 34.16 6.31, 36.03 9.67 C37.9 13.02, 38.16 17.61, 37.49 21.48 C36.82 25.34, 34.95 30.13, 32.01 32.87 C29.06 35.61, 24.05 37.87, 19.83 37.9 C15.61 37.93, 9.81 35.65, 6.68 33.05 C3.56 30.45, 1.94 26.12, 1.1 22.29 C0.27 18.45, -0.08 13.63, 1.67 10.04 C3.42 6.46, 7.49 2.35, 11.61 0.78 C15.73 -0.79, 23.66 0.39, 26.41 0.61 C29.16 0.82, 28.22 1.71, 28.12 2.07 M11.29 2.32 C14.99 0.6, 21.87 0.98, 25.88 1.84 C29.89 2.7, 33.27 3.96, 35.35 7.49 C37.44 11.02, 38.77 18.77, 38.4 23.03 C38.03 27.29, 36.08 30.43, 33.13 33.06 C30.17 35.69, 25.04 38.7, 20.67 38.82 C16.3 38.93, 10.39 36.45, 6.92 33.75 C3.44 31.06, 0.87 26.31, -0.16 22.63 C-1.19 18.96, -1.23 15.44, 0.75 11.71 C2.73 7.99, 10.02 1.76, 11.74 0.3 C13.45 -1.16, 10.98 2.35, 11.06 2.94" stroke="#000000" stroke-width="2" fill="none"></path></g><g stroke-linecap="round" transform="translate(522.800048828125 459.60011291503906) rotate(0 177.5999755859375 105.19998168945312)"><path d="M-1.03 0.26 L356.29 -2 L356.07 209.39 L0.11 210.59" stroke="none" stroke-width="0" fill="#15aabf"></path><path d="M1.24 0.58 C98.99 -0.49, 197.56 -2.69, 356.44 -0.39 M-0.43 0 C91.77 0.18, 184.18 0.65, 354.85 0.6 M356.8 -1.66 C352.41 59.35, 353.91 118.57, 355.07 211.97 M354.46 0.14 C356.87 56.12, 356.89 114.29, 354.87 209.71 M356.35 210.4 C228.99 211.93, 105.3 211.25, -0.09 210.79 M354.81 209.82 C247.49 209.59, 139.76 209.68, 0.52 210.89 M0.43 210.14 C-0.44 125.97, -0.56 43.55, -1.72 -0.42 M-0.59 210.07 C-2.14 128.97, -0.86 47.19, -0.35 -0.74" stroke="#000000" stroke-width="2" fill="none"></path></g><g stroke-linecap="round" transform="translate(822.2000122070312 579.0001068115234) rotate(0 19.20001220703125 19.20001220703125)"><path d="M10.91 1.59 C14.3 -0.25, 19.19 -0.18, 23.22 0.87 C27.25 1.91, 32.66 4.65, 35.09 7.85 C37.53 11.06, 38.11 15.83, 37.83 20.09 C37.54 24.35, 36.15 30.31, 33.37 33.4 C30.58 36.5, 25.21 38.49, 21.1 38.65 C16.99 38.81, 11.96 36.8, 8.7 34.36 C5.43 31.91, 2.66 27.84, 1.52 23.98 C0.38 20.12, 0.06 15, 1.84 11.2 C3.61 7.4, 10.24 2.89, 12.17 1.16 C14.11 -0.57, 13.26 0.48, 13.47 0.8 M13.04 2.41 C16.59 0.41, 22.85 -1.52, 26.39 -0.2 C29.93 1.12, 32.19 6.78, 34.28 10.33 C36.37 13.88, 39.27 17.18, 38.93 21.08 C38.6 24.99, 35.34 31.03, 32.26 33.78 C29.18 36.53, 24.56 37.27, 20.46 37.58 C16.36 37.88, 11.19 38.19, 7.67 35.61 C4.16 33.03, 0.21 26.13, -0.65 22.1 C-1.51 18.08, 0.36 14.67, 2.49 11.46 C4.61 8.26, 10.75 4.4, 12.11 2.88 C13.47 1.36, 10.63 2.07, 10.65 2.35" stroke="none" stroke-width="0" fill="#fd7e14"></path><path d="M17.12 0.77 C20.94 0.19, 26.31 0.4, 29.65 2.61 C32.99 4.81, 35.86 9.77, 37.17 13.99 C38.48 18.21, 39.07 24.09, 37.5 27.92 C35.94 31.75, 31.66 35.26, 27.77 36.99 C23.87 38.71, 18.13 39.54, 14.15 38.28 C10.18 37.01, 6.19 32.98, 3.93 29.41 C1.66 25.84, 0.32 20.7, 0.56 16.83 C0.8 12.96, 2.55 9.08, 5.36 6.19 C8.17 3.3, 15.33 0.55, 17.42 -0.5 C19.51 -1.56, 17.7 -0.62, 17.91 -0.15 M22.05 -0.95 C25.66 -0.78, 30.02 2.87, 32.54 6.14 C35.06 9.4, 36.59 14.78, 37.15 18.64 C37.71 22.5, 37.9 26, 35.9 29.3 C33.9 32.6, 29.16 37.38, 25.13 38.43 C21.1 39.49, 15.62 37.29, 11.74 35.63 C7.85 33.96, 3.64 31.86, 1.8 28.44 C-0.03 25.01, -0.34 19.25, 0.74 15.08 C1.81 10.9, 4.85 6.07, 8.25 3.39 C11.65 0.72, 19.18 -0.55, 21.14 -1 C23.1 -1.45, 20.18 0.31, 20.01 0.69" stroke="#000000" stroke-width="2" fill="none"></path></g><g stroke-linecap="round" transform="translate(629.2000122070312 550.4001007080078) rotate(0 19.20001220703125 19.20001220703125)"><path d="M17.4 0.54 C21.14 0.1, 27.04 2.25, 30.59 4.64 C34.14 7.03, 37.59 11.01, 38.71 14.87 C39.84 18.72, 39.31 24.22, 37.33 27.76 C35.34 31.31, 30.69 34.44, 26.81 36.12 C22.94 37.8, 18.13 38.87, 14.08 37.83 C10.02 36.79, 4.67 33.42, 2.48 29.87 C0.3 26.32, 0.43 20.56, 0.97 16.52 C1.51 12.48, 2.02 8.33, 5.72 5.64 C9.43 2.94, 19.3 0.72, 23.21 0.35 C27.11 -0.01, 29.27 3.12, 29.15 3.42 M17.88 -1.35 C21.42 -1.69, 26.51 2.46, 30.09 5.43 C33.68 8.4, 38.34 12.58, 39.4 16.46 C40.46 20.35, 38.54 25.39, 36.45 28.73 C34.37 32.07, 30.81 35.09, 26.89 36.49 C22.96 37.89, 16.87 38.2, 12.91 37.14 C8.95 36.07, 5.17 33.47, 3.13 30.11 C1.1 26.75, 0.05 21.06, 0.71 16.97 C1.37 12.88, 4.14 8.18, 7.09 5.56 C10.04 2.95, 16.68 2.09, 18.41 1.26 C20.15 0.43, 17.33 0.51, 17.5 0.59" stroke="none" stroke-width="0" fill="#e64980"></path><path d="M15.06 0.53 C18.9 -0.75, 24.16 0.1, 27.62 1.98 C31.07 3.86, 34.2 8.08, 35.8 11.8 C37.4 15.52, 38.17 20.39, 37.22 24.3 C36.26 28.21, 33.37 32.85, 30.04 35.26 C26.72 37.68, 21.43 39.06, 17.26 38.8 C13.1 38.53, 7.93 36.79, 5.04 33.69 C2.15 30.58, 0.05 24.33, -0.08 20.16 C-0.22 15.99, 1.26 11.9, 4.24 8.67 C7.23 5.44, 15.06 2.26, 17.84 0.76 C20.62 -0.74, 21.15 -0.7, 20.94 -0.33 M24.07 1.02 C27.9 1.7, 31.24 4.95, 33.83 7.99 C36.41 11.04, 39.9 15.16, 39.58 19.28 C39.27 23.4, 34.77 29.51, 31.94 32.71 C29.1 35.91, 26.21 38.29, 22.56 38.47 C18.91 38.65, 13.58 36.18, 10.05 33.8 C6.51 31.43, 2.53 28.04, 1.35 24.22 C0.17 20.4, 1.49 14.37, 2.97 10.88 C4.46 7.38, 6.99 4.85, 10.26 3.25 C13.53 1.65, 20.58 1.59, 22.58 1.27 C24.58 0.95, 22.1 0.97, 22.26 1.33" stroke="#000000" stroke-width="2" fill="none"></path></g><g stroke-linecap="round" transform="translate(709.0000610351562 510.40003967285156) rotate(0 19.20001220703125 19.20001220703125)"><path d="M23.66 1.28 C27.76 1.9, 33.15 4.18, 35.45 7.24 C37.75 10.31, 37.71 15.33, 37.46 19.68 C37.2 24.04, 36.5 30.22, 33.93 33.36 C31.36 36.51, 26.24 38.16, 22.05 38.54 C17.86 38.92, 12.41 37.98, 8.8 35.64 C5.19 33.3, 1.62 28.49, 0.39 24.51 C-0.84 20.52, -0.38 15.42, 1.43 11.73 C3.24 8.03, 6.95 3.95, 11.27 2.33 C15.59 0.72, 24.2 1.84, 27.35 2.02 C30.5 2.19, 30.25 3.28, 30.19 3.37 M21.64 0.49 C25.56 0.63, 30.65 3.18, 33.26 5.9 C35.86 8.63, 36.93 13.08, 37.27 16.86 C37.61 20.63, 37.68 25.22, 35.32 28.55 C32.96 31.88, 27.21 35.26, 23.11 36.85 C19 38.44, 14.18 39.61, 10.69 38.1 C7.2 36.6, 3.64 31.59, 2.17 27.82 C0.69 24.04, 0.68 19.35, 1.82 15.46 C2.97 11.57, 5.84 6.82, 9.03 4.49 C12.23 2.15, 19.28 2.25, 20.97 1.46 C22.66 0.68, 19.24 -0.53, 19.17 -0.25" stroke="none" stroke-width="0" fill="#fa5252"></path><path d="M12.76 0.83 C16.46 -0.92, 21.64 -0.03, 25.51 1.29 C29.38 2.61, 33.83 5.13, 35.96 8.74 C38.1 12.36, 39.12 18.96, 38.31 22.98 C37.5 27, 34.19 30.17, 31.1 32.87 C28.01 35.57, 23.74 38.81, 19.77 39.19 C15.8 39.56, 10.67 37.76, 7.28 35.11 C3.89 32.45, 0.28 27.32, -0.58 23.27 C-1.44 19.23, -0.9 14.76, 2.1 10.84 C5.1 6.93, 13.72 1.58, 17.42 -0.2 C21.12 -1.99, 24.12 -0.07, 24.29 0.14 M22.88 1.55 C26.7 1.93, 30.59 5.08, 33.3 7.8 C36.02 10.51, 38.88 13.94, 39.17 17.83 C39.46 21.72, 37.48 27.59, 35.04 31.16 C32.61 34.74, 28.64 38.25, 24.56 39.3 C20.47 40.35, 14.38 39.66, 10.54 37.46 C6.7 35.26, 3.29 30.1, 1.54 26.11 C-0.22 22.12, -1.3 17.6, 0 13.54 C1.3 9.47, 5.7 3.74, 9.35 1.73 C13 -0.28, 19.95 1.71, 21.88 1.48 C23.81 1.24, 20.89 0.31, 20.93 0.32" stroke="#000000" stroke-width="2" fill="none"></path></g><g stroke-linecap="round" transform="translate(716.5999145507812 571.6001129150391) rotate(0 19.20001220703125 19.20001220703125)"><path d="M23.02 1.27 C26.69 1.78, 30.9 4.46, 33.53 7.55 C36.17 10.63, 38.73 15.65, 38.84 19.79 C38.95 23.93, 36.95 29.24, 34.2 32.37 C31.45 35.51, 26.65 38.1, 22.33 38.58 C18.02 39.06, 11.86 37.66, 8.31 35.26 C4.76 32.87, 2.36 28.16, 1.05 24.19 C-0.26 20.22, -0.98 14.95, 0.46 11.44 C1.91 7.93, 5.25 4.73, 9.73 3.13 C14.2 1.53, 23.7 1.57, 27.31 1.84 C30.91 2.11, 31.37 4.37, 31.35 4.74 M21.54 0.41 C25.4 0.85, 32.12 2.54, 34.93 5.73 C37.73 8.91, 38.75 15.3, 38.37 19.51 C37.98 23.72, 35.05 28.04, 32.63 30.99 C30.2 33.94, 27.51 36.25, 23.8 37.2 C20.09 38.16, 14.04 38.73, 10.37 36.71 C6.69 34.69, 3.4 29.13, 1.74 25.07 C0.08 21.02, -0.81 16.05, 0.42 12.41 C1.64 8.76, 5.56 5.36, 9.09 3.2 C12.61 1.04, 19.41 -0.25, 21.59 -0.55 C23.78 -0.84, 22.36 0.95, 22.2 1.44" stroke="none" stroke-width="0" fill="#40c057"></path><path d="M14.24 0.96 C17.89 -0.23, 23.3 0.5, 27.11 2.42 C30.92 4.34, 35.25 8.57, 37.09 12.47 C38.94 16.36, 39.44 21.84, 38.17 25.81 C36.89 29.78, 32.92 34.3, 29.44 36.29 C25.96 38.28, 21.26 38.41, 17.29 37.74 C13.31 37.08, 8.31 35.08, 5.59 32.29 C2.87 29.5, 1.2 24.95, 0.97 20.98 C0.74 17.01, 1.18 11.98, 4.19 8.46 C7.2 4.94, 16.02 1.1, 19.01 -0.15 C22.01 -1.41, 22.13 0.73, 22.15 0.94 M18.66 0.42 C22.26 0.24, 27.41 1.44, 30.76 4.08 C34.11 6.73, 38.06 12.27, 38.76 16.3 C39.46 20.33, 37.1 24.61, 34.97 28.27 C32.83 31.93, 29.44 36.89, 25.96 38.26 C22.48 39.63, 18.19 38.21, 14.09 36.49 C9.99 34.77, 3.46 31.12, 1.36 27.96 C-0.75 24.8, 0.42 21.34, 1.48 17.53 C2.54 13.71, 4.74 7.88, 7.71 5.07 C10.67 2.26, 17.49 1.49, 19.26 0.68 C21.03 -0.13, 18.43 -0.05, 18.34 0.21" stroke="#000000" stroke-width="2" fill="none"></path></g><g stroke-linecap="round" transform="translate(572.3999633789062 615.6000518798828) rotate(0 19.20001220703125 19.20001220703125)"><path d="M13.39 0.82 C17.05 -0.48, 23.29 0.34, 27.01 2.03 C30.73 3.73, 33.99 7.37, 35.72 10.98 C37.45 14.6, 38.26 19.59, 37.39 23.73 C36.51 27.86, 33.66 33.24, 30.47 35.79 C27.27 38.34, 22.45 39.66, 18.21 39.03 C13.97 38.41, 8.11 35.07, 5.03 32.02 C1.94 28.97, 0.07 24.84, -0.29 20.74 C-0.65 16.64, 0.2 10.97, 2.84 7.42 C5.47 3.87, 12.8 0.8, 15.53 -0.53 C18.26 -1.87, 18.97 -1.18, 19.22 -0.58 M27.22 2.67 C30.77 4.47, 36.29 9.58, 38.09 13.23 C39.9 16.89, 39.75 21.02, 38.04 24.6 C36.33 28.18, 31.33 32.49, 27.84 34.72 C24.36 36.94, 21 38.18, 17.13 37.96 C13.27 37.75, 7.61 36.51, 4.66 33.42 C1.71 30.34, -0.33 23.8, -0.57 19.45 C-0.81 15.11, 0.54 10.48, 3.21 7.35 C5.87 4.22, 11.28 1.65, 15.43 0.67 C19.58 -0.31, 25.95 1.19, 28.09 1.49 C30.23 1.79, 28.52 2.02, 28.27 2.47" stroke="none" stroke-width="0" fill="#fa5252"></path><path d="M23.32 0.7 C27.35 1.41, 32.55 4.65, 35.12 7.96 C37.7 11.27, 39.02 16.56, 38.8 20.58 C38.57 24.59, 36.5 29.26, 33.77 32.07 C31.03 34.88, 26.54 36.82, 22.4 37.43 C18.25 38.05, 12.51 37.74, 8.9 35.77 C5.28 33.79, 1.91 29.52, 0.72 25.59 C-0.46 21.67, 0.13 16.24, 1.81 12.22 C3.5 8.19, 6.7 3.18, 10.83 1.42 C14.96 -0.33, 23.61 1.49, 26.59 1.68 C29.57 1.88, 28.9 2.39, 28.72 2.58 M28.8 2.77 C32.59 4.36, 36.3 8.27, 37.86 12.11 C39.42 15.95, 39.68 22.12, 38.15 25.83 C36.63 29.55, 32.15 32.11, 28.7 34.4 C25.25 36.68, 21.47 39.84, 17.45 39.53 C13.42 39.23, 7.36 35.97, 4.57 32.57 C1.77 29.17, 0.9 23.07, 0.69 19.13 C0.48 15.19, 1.16 11.94, 3.32 8.93 C5.47 5.92, 9.47 2.17, 13.63 1.07 C17.78 -0.02, 26.14 2.29, 28.26 2.38 C30.39 2.47, 26.72 1.45, 26.38 1.62" stroke="#000000" stroke-width="2" fill="none"></path></g><g stroke-linecap="round" transform="translate(799.9998168945312 515.2000885009766) rotate(0 19.20001220703125 19.20001220703125)"><path d="M21.28 0.99 C25.13 1.23, 29.29 3.38, 32.25 6.23 C35.22 9.08, 38.77 14.2, 39.06 18.06 C39.36 21.92, 36.39 26.14, 34.02 29.38 C31.66 32.62, 28.88 36.24, 24.89 37.48 C20.91 38.73, 13.85 38.63, 10.11 36.83 C6.36 35.04, 4.1 30.36, 2.44 26.71 C0.77 23.06, -0.95 18.74, 0.12 14.94 C1.18 11.13, 5.01 6.41, 8.82 3.87 C12.63 1.34, 20.33 0.29, 22.98 -0.27 C25.63 -0.84, 24.79 0.25, 24.71 0.51 M14 1.82 C17.55 0.35, 21.16 -1.28, 25.02 0.21 C28.89 1.7, 35.16 6.79, 37.2 10.76 C39.24 14.73, 38.17 20.26, 37.26 24.03 C36.35 27.81, 35.05 31.09, 31.74 33.42 C28.43 35.75, 21.56 38.07, 17.41 38.02 C13.25 37.96, 9.46 35.59, 6.81 33.07 C4.15 30.56, 2.4 27.11, 1.5 22.92 C0.6 18.73, -0.41 11.75, 1.41 7.92 C3.23 4.08, 10.49 0.99, 12.41 -0.06 C14.34 -1.11, 12.7 1.1, 12.94 1.62" stroke="none" stroke-width="0" fill="#be4bdb"></path><path d="M17.18 0.09 C21.1 -0.53, 27.45 0.4, 30.91 2.74 C34.37 5.07, 36.98 10.13, 37.96 14.1 C38.93 18.08, 38.57 22.89, 36.76 26.59 C34.94 30.3, 30.9 34.43, 27.05 36.32 C23.19 38.21, 17.42 38.88, 13.61 37.95 C9.81 37.03, 6.37 34.28, 4.23 30.75 C2.09 27.21, 0.67 21.02, 0.8 16.75 C0.93 12.48, 1.92 8.03, 5 5.13 C8.08 2.24, 16.72 0.26, 19.27 -0.63 C21.82 -1.53, 20.4 -0.8, 20.29 -0.21 M11.61 3.45 C14.83 0.97, 19.4 -1.46, 23.25 -0.63 C27.09 0.2, 31.97 4.9, 34.69 8.41 C37.41 11.92, 39.86 16.73, 39.57 20.41 C39.27 24.1, 36 27.44, 32.92 30.51 C29.85 33.59, 25.15 38.07, 21.13 38.86 C17.12 39.65, 11.96 37.65, 8.83 35.27 C5.7 32.89, 3.67 28.62, 2.37 24.6 C1.06 20.59, -0.29 14.86, 1.01 11.17 C2.31 7.47, 8.55 3.9, 10.15 2.44 C11.74 0.99, 10.56 2.16, 10.58 2.45" stroke="#000000" stroke-width="2" fill="none"></path></g><g stroke-linecap="round" transform="translate(603.5999755859375 99.60008239746094) rotate(0 214.800048828125 110.80000305175781)"><path d="M-0.06 -1.87 L430.4 1.6 L430.37 221.71 L-0.84 222.73" stroke="none" stroke-width="0" fill="#7950f2"></path><path d="M-0.79 0.59 C145.21 0.83, 289.96 2.5, 429.73 0.57 M-0.14 -0.06 C157.43 -1.13, 315.68 -1.25, 429.98 -0.46 M430.67 -0.84 C426.94 65.7, 428.42 133.03, 431.19 219.98 M429.7 0.02 C429.55 71.43, 430.39 144.47, 429.76 220.98 M430.13 222.34 C269.43 220.63, 107.2 222.22, 1 221.55 M429.89 222.07 C321.44 223.76, 213.43 223.6, 0.29 221.82 M-0.05 223.29 C1.59 156.72, 1.52 95.28, 0.14 -1.2 M0.53 220.82 C2.17 145.2, 1.43 66.24, 0.61 -0.1" stroke="#000000" stroke-width="2" fill="none"></path></g><g stroke-linecap="round" transform="translate(933.9999389648438 247.60008239746094) rotate(0 19.20001220703125 19.20001220703125)"><path d="M28.25 2.29 C32 3.89, 36.19 7.47, 37.71 11.33 C39.24 15.2, 38.91 21.3, 37.39 25.46 C35.88 29.61, 32.19 34.28, 28.63 36.25 C25.07 38.22, 19.85 37.92, 16.03 37.28 C12.22 36.65, 8.31 35.23, 5.74 32.42 C3.17 29.61, 0.96 24.55, 0.62 20.44 C0.28 16.32, 1.29 11.19, 3.71 7.72 C6.12 4.26, 10.54 0.4, 15.1 -0.37 C19.65 -1.15, 28.21 2.04, 31.06 3.09 C33.91 4.14, 32.55 5.67, 32.19 5.91 M26.33 1.12 C30.25 2.09, 33.44 6.6, 35.25 10.22 C37.07 13.83, 38.04 18.76, 37.22 22.82 C36.4 26.89, 33.54 32.12, 30.34 34.62 C27.14 37.13, 21.83 38.16, 18.01 37.87 C14.2 37.59, 10.28 35.37, 7.46 32.92 C4.63 30.47, 1.86 27.3, 1.05 23.18 C0.24 19.05, 0.63 11.7, 2.61 8.18 C4.59 4.67, 9.31 3.31, 12.93 2.09 C16.54 0.87, 22.37 0.81, 24.28 0.85 C26.2 0.88, 24.22 1.96, 24.4 2.29" stroke="none" stroke-width="0" fill="#4c6ef5"></path><path d="M15.4 -0.19 C19.11 -1.04, 25.74 1.16, 29.23 3.2 C32.71 5.24, 34.95 8.2, 36.32 12.07 C37.69 15.93, 38.73 22.48, 37.43 26.39 C36.13 30.29, 32.31 33.4, 28.52 35.5 C24.74 37.59, 18.73 39.75, 14.73 38.95 C10.73 38.16, 6.84 33.94, 4.53 30.72 C2.21 27.51, 0.83 23.78, 0.84 19.67 C0.86 15.56, 1.71 9.23, 4.62 6.06 C7.53 2.89, 15.64 1.49, 18.29 0.63 C20.95 -0.23, 20.47 0.76, 20.53 0.9 M11.72 2.95 C15.1 1.03, 19.24 -1.11, 23.03 0.02 C26.81 1.15, 31.81 6.46, 34.41 9.74 C37 13.02, 38.84 15.99, 38.59 19.71 C38.35 23.44, 36.02 28.82, 32.93 32.08 C29.85 35.35, 24.44 38.7, 20.07 39.3 C15.7 39.9, 9.89 38.13, 6.71 35.69 C3.53 33.26, 1.98 28.64, 0.97 24.68 C-0.04 20.72, -1.29 15.54, 0.65 11.93 C2.58 8.33, 10.51 4.71, 12.56 3.05 C14.61 1.38, 13 1.88, 12.95 1.93" stroke="#000000" stroke-width="2" fill="none"></path></g><g stroke-linecap="round" transform="translate(881.7912571119225 180.6261563508407) rotate(0 19.20001220703125 19.20001220703125)"><path d="M11.69 1.35 C15.31 -0.29, 22.08 0.33, 26.02 1.56 C29.96 2.79, 33.34 5.45, 35.34 8.73 C37.33 12.01, 38.69 17.01, 38 21.22 C37.31 25.43, 34.28 30.96, 31.22 33.98 C28.15 37, 23.51 39.41, 19.61 39.35 C15.7 39.29, 11.1 36.17, 7.79 33.59 C4.48 31.02, 0.69 27.92, -0.27 23.92 C-1.23 19.91, -0.68 13.49, 2.02 9.55 C4.71 5.62, 12.89 1.89, 15.91 0.31 C18.92 -1.28, 20 -0.4, 20.1 0.05 M16.59 -1.1 C20.48 -1.96, 26.94 1.02, 30.16 3.14 C33.37 5.26, 34.93 7.72, 35.89 11.62 C36.85 15.52, 37.16 22.54, 35.92 26.54 C34.68 30.53, 31.65 33.52, 28.47 35.58 C25.28 37.63, 20.83 39.78, 16.81 38.85 C12.79 37.93, 7.02 33.54, 4.35 30.03 C1.69 26.52, 0.75 21.74, 0.82 17.77 C0.89 13.81, 1.96 8.98, 4.77 6.25 C7.58 3.53, 15.61 2.44, 17.68 1.41 C19.75 0.39, 17.15 0.22, 17.19 0.12" stroke="none" stroke-width="0" fill="#be4bdb"></path><path d="M11.38 2.19 C14.66 0.31, 20.07 -0.73, 24.13 0.13 C28.18 0.99, 33.18 3.78, 35.71 7.34 C38.23 10.89, 39.77 17.26, 39.27 21.46 C38.76 25.66, 35.67 29.82, 32.66 32.54 C29.64 35.25, 25.24 37.49, 21.18 37.74 C17.12 37.98, 11.65 36.42, 8.31 33.99 C4.97 31.56, 2.26 26.95, 1.13 23.16 C0 19.38, -0.55 14.96, 1.52 11.29 C3.58 7.63, 10.8 2.95, 13.5 1.16 C16.2 -0.64, 17.68 0.26, 17.72 0.53 M23.73 1.66 C27.82 2.61, 33.18 5.27, 35.66 8.68 C38.14 12.1, 39.11 18.17, 38.61 22.15 C38.11 26.13, 35.74 29.78, 32.68 32.55 C29.63 35.31, 24.43 38.24, 20.28 38.76 C16.13 39.27, 11.18 38.07, 7.78 35.62 C4.39 33.17, 0.71 28.29, -0.1 24.06 C-0.9 19.82, 1.05 14.22, 2.93 10.21 C4.81 6.21, 7.45 1.83, 11.18 0.02 C14.92 -1.78, 22.88 -0.88, 25.36 -0.61 C27.85 -0.34, 26.2 0.98, 26.1 1.63" stroke="#000000" stroke-width="2" fill="none"></path></g><g stroke-linecap="round" transform="translate(817.7390800144362 251.0783379596213) rotate(0 19.20001220703125 19.20001220703125)"><path d="M15.7 0.68 C19.51 -0.32, 25.79 0.72, 29.25 2.84 C32.7 4.97, 35.05 9.75, 36.41 13.42 C37.77 17.1, 38.87 21.29, 37.42 24.9 C35.98 28.52, 31.31 32.92, 27.73 35.12 C24.16 37.32, 19.91 38.58, 15.97 38.11 C12.03 37.65, 6.66 35.51, 4.09 32.34 C1.52 29.18, 0.6 23.32, 0.55 19.15 C0.5 14.97, 0.69 10.48, 3.8 7.29 C6.91 4.1, 15.95 0.92, 19.22 0.01 C22.5 -0.9, 23.23 1.43, 23.46 1.84 M17 1.73 C20.4 1.2, 24.2 1.56, 27.82 3.4 C31.43 5.24, 36.97 9.24, 38.7 12.77 C40.44 16.3, 39.84 20.54, 38.24 24.58 C36.63 28.62, 32.8 35.01, 29.09 37.02 C25.38 39.03, 20.19 37.73, 15.98 36.66 C11.77 35.59, 6.35 33.38, 3.83 30.6 C1.31 27.82, 0.8 23.83, 0.87 19.97 C0.93 16.1, 1.54 10.67, 4.22 7.4 C6.89 4.14, 15.11 1.54, 16.92 0.38 C18.74 -0.78, 14.96 0.26, 15.11 0.43" stroke="none" stroke-width="0" fill="#fd7e14"></path><path d="M20.3 -0.93 C24.35 -1.24, 28.67 1.13, 31.74 4.05 C34.81 6.97, 38.1 12.34, 38.72 16.57 C39.35 20.81, 37.67 25.95, 35.49 29.47 C33.31 33, 29.62 36.42, 25.65 37.7 C21.68 38.99, 15.51 38.7, 11.66 37.16 C7.82 35.63, 4.33 32.19, 2.58 28.49 C0.82 24.8, 0.29 18.96, 1.14 14.99 C1.99 11.03, 3.91 7.18, 7.66 4.71 C11.41 2.24, 20.49 0.51, 23.63 0.16 C26.76 -0.19, 26.68 2.08, 26.46 2.6 M22.13 0.68 C25.78 0.9, 29.43 3.76, 32.27 6.57 C35.12 9.38, 38.82 13.32, 39.18 17.53 C39.55 21.75, 36.99 28.52, 34.48 31.85 C31.97 35.18, 28.29 36.83, 24.12 37.51 C19.96 38.2, 13.51 37.94, 9.5 35.95 C5.49 33.96, 1.41 29.34, 0.05 25.58 C-1.3 21.82, -0.33 17.02, 1.39 13.41 C3.1 9.8, 7.1 6.29, 10.35 3.93 C13.6 1.56, 18.76 -0.12, 20.9 -0.78 C23.04 -1.43, 23.19 -0.49, 23.19 0.01" stroke="#000000" stroke-width="2" fill="none"></path></g><g stroke-linecap="round" transform="translate(794.2522105341372 175.96528492803156) rotate(0 19.20001220703125 19.20001220703125)"><path d="M20.03 0.09 C23.87 -0.16, 28.06 2.54, 30.97 5.22 C33.88 7.89, 36.74 12.02, 37.49 16.14 C38.25 20.27, 37.37 26.34, 35.5 29.97 C33.63 33.6, 30.2 36.56, 26.29 37.9 C22.38 39.24, 16.17 39.48, 12.04 38.02 C7.92 36.56, 3.33 33.02, 1.54 29.15 C-0.24 25.28, 0.33 18.78, 1.33 14.79 C2.33 10.8, 4.16 7.55, 7.54 5.23 C10.92 2.91, 19.07 1.54, 21.61 0.88 C24.15 0.22, 22.7 1.04, 22.79 1.27 M11.39 3.09 C14.78 1.35, 19.14 0.45, 23.13 1.24 C27.13 2.02, 33.01 4.68, 35.38 7.81 C37.74 10.95, 37.44 16.1, 37.31 20.05 C37.19 24.01, 37.46 28.55, 34.63 31.54 C31.8 34.53, 24.5 37.61, 20.33 37.99 C16.15 38.37, 12.78 35.9, 9.61 33.83 C6.43 31.75, 2.55 29.02, 1.29 25.56 C0.03 22.1, 0.65 16.94, 2.03 13.08 C3.42 9.21, 7.91 4.28, 9.59 2.36 C11.26 0.43, 11.99 1.04, 12.09 1.52" stroke="none" stroke-width="0" fill="#fab005"></path><path d="M20.92 -0.36 C24.87 -0.34, 29.81 2.87, 32.68 5.67 C35.54 8.47, 37.84 12.39, 38.12 16.43 C38.4 20.48, 36.72 26.28, 34.34 29.94 C31.97 33.61, 27.59 37.23, 23.87 38.43 C20.14 39.64, 15.55 38.88, 12 37.17 C8.44 35.47, 4.38 32.04, 2.51 28.2 C0.65 24.37, -0.06 18.14, 0.82 14.18 C1.71 10.21, 4.4 6.74, 7.83 4.42 C11.26 2.1, 18.66 0.75, 21.41 0.25 C24.16 -0.24, 24.31 1.24, 24.31 1.46 M18.03 0.09 C22.37 -0.18, 28.51 2.22, 31.65 4.42 C34.8 6.62, 35.83 9.57, 36.9 13.3 C37.98 17.02, 39.79 22.88, 38.09 26.78 C36.39 30.69, 30.7 34.75, 26.72 36.73 C22.74 38.7, 18.19 39.64, 14.23 38.64 C10.27 37.64, 5.12 34.3, 2.96 30.71 C0.81 27.11, 0.74 21.16, 1.28 17.06 C1.83 12.96, 3.49 9.15, 6.25 6.1 C9.01 3.05, 15.79 -0.37, 17.84 -1.25 C19.89 -2.13, 18.83 0.5, 18.56 0.8" stroke="#000000" stroke-width="2" fill="none"></path></g><g stroke-linecap="round" transform="translate(938.2000122070312 121.20005798339844) rotate(0 19.20001220703125 19.20001220703125)"><path d="M29.23 2.24 C33.04 3.64, 36.34 7.21, 37.76 11.16 C39.18 15.12, 39.14 22.04, 37.76 25.95 C36.39 29.86, 33.14 32.64, 29.52 34.6 C25.91 36.56, 20.1 38.03, 16.08 37.7 C12.07 37.37, 8.16 35.55, 5.44 32.64 C2.71 29.74, -0.15 24.46, -0.28 20.25 C-0.41 16.04, 2.2 10.71, 4.68 7.38 C7.16 4.05, 10.17 0.98, 14.61 0.26 C19.05 -0.46, 28.56 2.24, 31.33 3.07 C34.1 3.9, 31.49 5.06, 31.24 5.24 M23.6 -0.71 C27.42 -0.2, 31.64 4.91, 33.96 7.97 C36.28 11.04, 37.23 13.98, 37.51 17.66 C37.79 21.35, 37.91 26.53, 35.63 30.09 C33.34 33.65, 28.29 38.04, 23.79 39.03 C19.28 40.02, 12.17 38.05, 8.59 36.02 C5.02 34, 3.41 30.68, 2.35 26.87 C1.28 23.05, 1.04 17.28, 2.18 13.15 C3.32 9.03, 5.82 4.19, 9.18 2.12 C12.53 0.06, 20.06 0.85, 22.33 0.77 C24.59 0.69, 23.01 1.53, 22.77 1.64" stroke="none" stroke-width="0" fill="#228be6"></path><path d="M22.96 -0.3 C26.99 0.18, 31.23 4.21, 33.89 7.4 C36.55 10.58, 39.01 14.82, 38.94 18.8 C38.86 22.78, 36.32 28.17, 33.45 31.28 C30.58 34.4, 25.62 36.7, 21.71 37.47 C17.81 38.24, 13.28 37.72, 10.02 35.9 C6.76 34.07, 3.73 30.46, 2.15 26.5 C0.57 22.53, -0.84 16.14, 0.56 12.1 C1.95 8.07, 6.33 4.06, 10.5 2.26 C14.68 0.47, 22.5 1.07, 25.61 1.32 C28.71 1.58, 29.22 3.46, 29.12 3.8 M27.22 1.84 C30.77 3.21, 33.17 8.13, 35 11.5 C36.84 14.87, 39.19 18.42, 38.24 22.06 C37.3 25.71, 32.59 30.66, 29.31 33.39 C26.02 36.11, 22.47 38.22, 18.52 38.42 C14.57 38.62, 8.54 37.38, 5.62 34.58 C2.69 31.78, 1.58 25.81, 0.96 21.64 C0.35 17.46, 0 12.99, 1.94 9.52 C3.89 6.05, 8.54 1.92, 12.63 0.82 C16.72 -0.28, 23.93 2.61, 26.46 2.93 C28.98 3.25, 27.94 2.45, 27.78 2.73" stroke="#000000" stroke-width="2" fill="none"></path></g><g stroke-linecap="round" transform="translate(678.9043844471807 258.71313277534813) rotate(0 19.20001220703125 19.20001220703125)"><path d="M27.87 1.56 C31.84 2.84, 35.7 6.25, 37.41 9.95 C39.13 13.66, 39.46 19.77, 38.17 23.82 C36.87 27.87, 32.89 31.88, 29.65 34.28 C26.4 36.67, 22.65 38.48, 18.69 38.21 C14.72 37.93, 8.85 35.42, 5.84 32.64 C2.83 29.87, 1.12 25.55, 0.63 21.57 C0.13 17.58, 0.73 12.14, 2.88 8.73 C5.03 5.31, 8.95 1.91, 13.51 1.06 C18.07 0.21, 27.05 2.72, 30.25 3.61 C33.46 4.5, 32.96 6.11, 32.74 6.4 M24.74 -0.38 C28.8 0.84, 34.77 5.3, 37.1 8.96 C39.43 12.62, 39.41 17.42, 38.72 21.58 C38.02 25.74, 36.15 31.02, 32.91 33.92 C29.67 36.81, 23.54 38.82, 19.27 38.95 C14.99 39.09, 10.21 37.5, 7.24 34.73 C4.28 31.97, 2.34 26.31, 1.48 22.37 C0.62 18.43, 0.31 14.7, 2.1 11.12 C3.88 7.54, 8.16 2.67, 12.2 0.89 C16.24 -0.9, 24.14 0.16, 26.35 0.42 C28.55 0.68, 25.86 1.86, 25.43 2.46" stroke="none" stroke-width="0" fill="#e64980"></path><path d="M21.01 0.72 C25.19 0.95, 30.92 2.79, 33.9 5.79 C36.87 8.79, 38.74 14.66, 38.86 18.7 C38.98 22.74, 37.21 26.66, 34.64 30.02 C32.07 33.38, 27.53 37.92, 23.42 38.85 C19.31 39.77, 13.67 37.46, 9.99 35.55 C6.31 33.63, 3.04 30.94, 1.36 27.34 C-0.33 23.73, -1.45 17.91, -0.14 13.93 C1.18 9.95, 4.72 5.66, 9.24 3.44 C13.77 1.23, 23.51 0.43, 27 0.64 C30.48 0.84, 30.53 4.42, 30.16 4.7 M29.34 1 C33.09 2.68, 35.6 8.98, 37.08 13.21 C38.55 17.45, 39.45 22.71, 38.17 26.42 C36.9 30.13, 33.16 33.46, 29.42 35.45 C25.69 37.44, 19.75 38.82, 15.74 38.34 C11.73 37.86, 7.82 35.85, 5.37 32.58 C2.92 29.31, 1.35 22.82, 1.04 18.7 C0.72 14.59, 0.92 10.79, 3.47 7.89 C6.02 5, 12.05 2.24, 16.32 1.33 C20.58 0.42, 27.01 2.18, 29.05 2.45 C31.09 2.72, 28.82 2.79, 28.54 2.95" stroke="#000000" stroke-width="2" fill="none"></path></g><g stroke-linecap="round" transform="translate(681.2782698921535 172.67834140943444) rotate(0 19.20001220703125 19.20001220703125)"><path d="M20.03 -0.19 C24.02 -0.36, 30.23 2.16, 33.23 5.12 C36.23 8.07, 37.76 13.42, 38.03 17.53 C38.29 21.64, 36.91 26.56, 34.81 29.79 C32.7 33.01, 29.13 35.7, 25.39 36.88 C21.65 38.06, 16.13 38.24, 12.35 36.86 C8.58 35.48, 4.6 32.14, 2.73 28.57 C0.86 25.01, 0.32 19.62, 1.14 15.46 C1.97 11.3, 4.08 5.96, 7.7 3.6 C11.32 1.24, 19.63 1.74, 22.86 1.31 C26.1 0.89, 27.24 1.01, 27.13 1.06 M11.4 1.02 C14.9 -0.91, 20.1 0.29, 23.97 1.22 C27.85 2.14, 32.28 3.32, 34.65 6.58 C37.02 9.84, 38.34 16.57, 38.2 20.78 C38.07 24.99, 36.37 28.84, 33.86 31.83 C31.36 34.83, 27.33 38.01, 23.17 38.76 C19.02 39.5, 12.52 38.55, 8.92 36.3 C5.31 34.05, 2.81 29.33, 1.56 25.25 C0.32 21.17, 0.2 15.64, 1.45 11.82 C2.7 8.01, 7.76 3.9, 9.06 2.37 C10.36 0.84, 8.9 2.27, 9.25 2.63" stroke="none" stroke-width="0" fill="#868e96"></path><path d="M21.95 -0.15 C25.84 0.29, 31.55 4.25, 34.39 7.57 C37.24 10.89, 39.1 15.71, 39.03 19.76 C38.95 23.81, 36.66 28.81, 33.93 31.86 C31.2 34.92, 26.77 37.38, 22.63 38.09 C18.5 38.8, 12.67 38.04, 9.12 36.11 C5.57 34.19, 2.8 30.49, 1.33 26.52 C-0.13 22.54, -1.18 16.26, 0.35 12.25 C1.89 8.23, 6.28 4.46, 10.54 2.43 C14.81 0.4, 23.11 0.11, 25.92 0.05 C28.73 0, 27.79 1.71, 27.4 2.08 M26.39 2.41 C30.2 3.66, 35 6.65, 36.97 10.11 C38.95 13.57, 39.24 19.03, 38.25 23.17 C37.25 27.32, 34.34 32.37, 31.02 34.97 C27.7 37.56, 22.35 39.07, 18.3 38.74 C14.24 38.41, 9.63 35.73, 6.7 32.99 C3.76 30.24, 1.31 26.6, 0.68 22.29 C0.05 17.98, 0.86 10.95, 2.93 7.13 C4.99 3.3, 8.83 0.3, 13.06 -0.68 C17.3 -1.66, 25.97 0.89, 28.35 1.22 C30.73 1.55, 27.52 0.9, 27.35 1.29" stroke="#000000" stroke-width="2" fill="none"></path></g><g transform="translate(46.79998779296875 42.40010070800781) rotate(0 57.5 21)"><text x="0" y="33" font-family="Helvetica, Segoe UI Emoji" font-size="36px" fill="#000000" text-anchor="start" style="white-space: pre;" direction="ltr">Cluster</text></g><g transform="translate(105.20001220703125 275.10008239746094) rotate(0 30.5 21)"><text x="0" y="33" font-family="Helvetica, Segoe UI Emoji" font-size="36px" fill="#fff" text-anchor="start" style="white-space: pre;" direction="ltr">Silo</text></g><g transform="translate(623.9000244140625 117.00007629394531) rotate(0 30.5 21)"><text x="0" y="33" font-family="Helvetica, Segoe UI Emoji" font-size="36px" fill="#fff" text-anchor="start" style="white-space: pre;" direction="ltr">Silo</text></g><g transform="translate(546.0999755859375 480.20008850097656) rotate(0 30.5 21)"><text x="0" y="33" font-family="Helvetica, Segoe UI Emoji" font-size="36px" fill="#fff" text-anchor="start" style="white-space: pre;" direction="ltr">Silo</text></g><g transform="translate(651.5999755859375 387.9001007080078) rotate(0 53.5 21)"><text x="0" y="33" font-family="Helvetica, Segoe UI Emoji" font-size="36px" fill="#000" text-anchor="start" style="white-space: pre;" direction="ltr">Grains</text></g><g stroke-linecap="round"><g transform="translate(698 438.8001251220703) rotate(0 -18.545895541938876 48.46478627573231)"><path d="M0.17 -0.82 C-5.81 15.4, -30.14 79.84, -36.48 96.14 M-1.19 1.37 C-7.25 17.91, -31.54 82.12, -37.27 97.74" stroke="#000" stroke-width="2" fill="none"></path></g><g transform="translate(698 438.8001251220703) rotate(0 -18.545895541938876 48.46478627573231)"><path d="M-38.38 68.27 C-37.15 73.43, -35.82 83.95, -37.16 96.74 M-36.83 68.07 C-38.12 75.23, -37.38 84.93, -38.19 98.63" stroke="#000" stroke-width="2" fill="none"></path></g><g transform="translate(698 438.8001251220703) rotate(0 -18.545895541938876 48.46478627573231)"><path d="M-19.16 75.45 C-22.67 78.84, -26.15 87.56, -37.16 96.74 M-17.6 75.24 C-24.12 80.24, -28.66 87.98, -38.19 98.63" stroke="#000" stroke-width="2" fill="none"></path></g></g><g stroke-linecap="round"><g transform="translate(712.2501390723887 439.22001338350594) rotate(0 41.53601270863521 34.2899112821795)"><path d="M0.15 -0.18 C14.24 11.4, 70.3 57.02, 84.3 68.66 M-1.23 -1.32 C12.68 10.49, 68.41 58.43, 83.05 69.9" stroke="#000" stroke-width="2" fill="none"></path></g><g transform="translate(712.2501390723887 439.22001338350594) rotate(0 41.53601270863521 34.2899112821795)"><path d="M54.49 58.9 C61.67 61.4, 71.17 66.16, 85.01 70.61 M53.99 60.35 C66.11 64.48, 77.28 67.46, 82.46 70.68" stroke="#000" stroke-width="2" fill="none"></path></g><g transform="translate(712.2501390723887 439.22001338350594) rotate(0 41.53601270863521 34.2899112821795)"><path d="M67.56 43.09 C70.99 50.02, 76.83 59.19, 85.01 70.61 M67.07 44.53 C74.1 54.96, 80.12 64.19, 82.46 70.68" stroke="#000" stroke-width="2" fill="none"></path></g></g><g stroke-linecap="round"><g transform="translate(684.771899432443 438.5243718244027) rotate(0 -41.6078873347916 83.52037581170083)"><path d="M-0.84 0.78 C-14.96 28.59, -69.62 139.15, -83.76 166.89 M0.91 0.15 C-13.35 27.57, -70.11 137.41, -84.13 164.92" stroke="#000" stroke-width="2" fill="none"></path></g><g transform="translate(684.771899432443 438.5243718244027) rotate(0 -41.6078873347916 83.52037581170083)"><path d="M-79.07 137 C-81.31 145.05, -82.19 156.46, -84.22 163.43 M-81.08 134.44 C-81.31 142.6, -82.73 151.55, -83.56 165.17" stroke="#000" stroke-width="2" fill="none"></path></g><g transform="translate(684.771899432443 438.5243718244027) rotate(0 -41.6078873347916 83.52037581170083)"><path d="M-60.82 146.38 C-69.99 150.75, -77.78 158.6, -84.22 163.43 M-62.82 143.82 C-68.17 149.36, -74.68 155.7, -83.56 165.17" stroke="#000" stroke-width="2" fill="none"></path></g></g><g stroke-linecap="round"><g transform="translate(698.8121810910557 439.7581543947847) rotate(0 6.958589715354947 28.749814006556562)"><path d="M0.13 0.13 C2.34 9.77, 10.82 48.75, 12.92 58.35 M-1.26 -0.85 C1.35 8.44, 12.45 47.41, 15.18 56.83" stroke="#000" stroke-width="2" fill="none"></path></g><g transform="translate(698.8121810910557 439.7581543947847) rotate(0 6.958589715354947 28.749814006556562)"><path d="M-1.91 31.6 C4.63 37.83, 8.33 47.77, 16.77 58.51 M-2.77 33.56 C5.87 41.96, 12.69 51.73, 14.97 56.97" stroke="#000" stroke-width="2" fill="none"></path></g><g transform="translate(698.8121810910557 439.7581543947847) rotate(0 6.958589715354947 28.749814006556562)"><path d="M17.44 26.05 C18.71 33.82, 17.13 45.27, 16.77 58.51 M16.57 28 C17.56 38.76, 16.67 50.74, 14.97 56.97" stroke="#000" stroke-width="2" fill="none"></path></g></g><g stroke-linecap="round"><g transform="translate(706.6849535255137 438.5243718244027) rotate(0 51.71214248793251 73.65192161642983)"><path d="M-0.2 -0.59 C17.26 24.2, 87.75 123.07, 105.19 147.89 M-1.77 1.72 C15.55 26.2, 86.95 121.86, 104.51 145.99" stroke="#000" stroke-width="2" fill="none"></path></g><g transform="translate(706.6849535255137 438.5243718244027) rotate(0 51.71214248793251 73.65192161642983)"><path d="M78.53 130.22 C88.42 134.59, 97.51 141.5, 106.09 145.39 M79.82 128.77 C86.7 134.76, 94.6 138.15, 105.4 146.5" stroke="#000" stroke-width="2" fill="none"></path></g><g transform="translate(706.6849535255137 438.5243718244027) rotate(0 51.71214248793251 73.65192161642983)"><path d="M95.05 118.04 C99.35 126.44, 102.93 137.41, 106.09 145.39 M96.34 116.58 C98.27 126.31, 101.31 133.29, 105.4 146.5" stroke="#000" stroke-width="2" fill="none"></path></g></g><g transform="translate(761.3588347245627 37.785237409066326) rotate(0 53.5 21)"><text x="0" y="33" font-family="Helvetica, Segoe UI Emoji" font-size="36px" fill="#000" text-anchor="start" style="white-space: pre;" direction="ltr">Grains</text></g><g stroke-linecap="round"><g transform="translate(827.2936597924972 90.48813595979101) rotate(0 49.06086897228079 17.03546521752122)"><path d="M-0.69 -1.07 C15.64 4.46, 82.19 27.88, 98.81 33.53 M1.15 0.99 C17.29 6.7, 81.83 29.66, 98.06 35.14" stroke="#000" stroke-width="2" fill="none"></path></g><g transform="translate(827.2936597924972 90.48813595979101) rotate(0 49.06086897228079 17.03546521752122)"><path d="M66.29 36.19 C79.3 36.56, 89.16 36.12, 98.79 34.21 M68.82 35.81 C78.32 34.89, 88.25 35.47, 98.71 35.01" stroke="#000" stroke-width="2" fill="none"></path></g><g transform="translate(827.2936597924972 90.48813595979101) rotate(0 49.06086897228079 17.03546521752122)"><path d="M73.03 16.81 C83.63 24.25, 91.01 30.92, 98.79 34.21 M75.56 16.43 C83.01 21.92, 90.71 28.92, 98.71 35.01" stroke="#000" stroke-width="2" fill="none"></path></g></g><g stroke-linecap="round"><g transform="translate(790.0762260289102 86.66204767641801) rotate(0 -36.145155497394626 37.981706432674244)"><path d="M-0.94 -0.67 C-12.94 12.09, -60.41 63.95, -72.67 76.63 M0.77 1.6 C-11.24 13.98, -60.93 62.29, -73.06 74.75" stroke="#000" stroke-width="2" fill="none"></path></g><g transform="translate(790.0762260289102 86.66204767641801) rotate(0 -36.145155497394626 37.981706432674244)"><path d="M-61.44 49.36 C-62.65 52.82, -67.81 62.26, -73.86 75.75 M-59.48 47.02 C-62.69 53.32, -65.26 58.2, -72.31 75.58" stroke="#000" stroke-width="2" fill="none"></path></g><g transform="translate(790.0762260289102 86.66204767641801) rotate(0 -36.145155497394626 37.981706432674244)"><path d="M-46.96 63.9 C-51.72 63.7, -60.41 69.59, -73.86 75.75 M-45 61.56 C-51.11 64.91, -56.7 66.76, -72.31 75.58" stroke="#000" stroke-width="2" fill="none"></path></g></g><g stroke-linecap="round"><g transform="translate(818.9458018611112 89.79248113217551) rotate(0 32.91883392523778 41.42730284961708)"><path d="M1.14 0.69 C11.57 14.1, 52.71 68, 63.25 81.58 M0.28 0 C11.04 14.09, 54.99 68.93, 65.56 82.85" stroke="#000" stroke-width="2" fill="none"></path></g><g transform="translate(818.9458018611112 89.79248113217551) rotate(0 32.91883392523778 41.42730284961708)"><path d="M41.25 65.72 C48.39 72.88, 58.39 79.68, 64.57 81.17 M40.53 66.87 C48.01 72.15, 58.61 78.3, 65.02 83.58" stroke="#000" stroke-width="2" fill="none"></path></g><g transform="translate(818.9458018611112 89.79248113217551) rotate(0 32.91883392523778 41.42730284961708)"><path d="M57.41 53.07 C58.97 64.84, 63.27 76.11, 64.57 81.17 M56.69 54.22 C58.55 64.03, 63.54 74.57, 65.02 83.58" stroke="#000" stroke-width="2" fill="none"></path></g></g><g stroke-linecap="round"><g transform="translate(807.8153776933125 90.48813595979101) rotate(0 2.3555249462956453 33.74407049304804)"><path d="M-0.95 0.12 C-0.02 11.14, 4.41 55.85, 5.66 67.16 M0.75 -0.86 C1.53 10.83, 3.84 56.65, 4.76 68.35" stroke="#000" stroke-width="2" fill="none"></path></g><g transform="translate(807.8153776933125 90.48813595979101) rotate(0 2.3555249462956453 33.74407049304804)"><path d="M-7.05 41.02 C-4.44 51.05, 0.6 59.53, 4.98 69.97 M-7.92 41.77 C-3.89 50.37, 0.99 57.36, 4.4 68.96" stroke="#000" stroke-width="2" fill="none"></path></g><g transform="translate(807.8153776933125 90.48813595979101) rotate(0 2.3555249462956453 33.74407049304804)"><path d="M13.43 39.73 C9.77 49.99, 8.53 58.87, 4.98 69.97 M12.56 40.48 C10.2 49.4, 8.69 56.8, 4.4 68.96" stroke="#000" stroke-width="2" fill="none"></path></g></g><g stroke-linecap="round"><g transform="translate(800.858855954182 89.79248113217551) rotate(0 -38.80737358176191 81.16179647011643)"><path d="M1.13 0.79 C-12.02 27.62, -65.79 134.11, -78.75 161.01 M0.27 0.16 C-12.55 27.13, -63.8 135.51, -76.66 162.17" stroke="#000" stroke-width="2" fill="none"></path></g><g transform="translate(800.858855954182 89.79248113217551) rotate(0 -38.80737358176191 81.16179647011643)"><path d="M-72.47 130.33 C-75.89 143.28, -74.81 150.12, -78.62 160.66 M-74.73 131.89 C-73.57 140.93, -76.25 149.39, -77.36 161.52" stroke="#000" stroke-width="2" fill="none"></path></g><g transform="translate(800.858855954182 89.79248113217551) rotate(0 -38.80737358176191 81.16179647011643)"><path d="M-53.95 139.17 C-63.15 149.53, -67.86 153.61, -78.62 160.66 M-56.2 140.72 C-60.58 146.98, -68.74 152.83, -77.36 161.52" stroke="#000" stroke-width="2" fill="none"></path></g></g><g transform="translate(185.48532618958131 195.4570760786163) rotate(0 53.5 21)"><text x="0" y="33" font-family="Helvetica, Segoe UI Emoji" font-size="36px" fill="#000" text-anchor="start" style="white-space: pre;" direction="ltr">Grains</text></g><g stroke-linecap="round"><g transform="translate(270.9933872246263 247.55357694381644) rotate(0 24.684823638254443 38.99091622829681)"><path d="M0.7 0.66 C8.99 13.56, 41.6 63.96, 49.77 76.39 M-0.4 -0.04 C7.82 13.16, 41.01 65.34, 49.3 78.02" stroke="#000" stroke-width="2" fill="none"></path></g><g transform="translate(270.9933872246263 247.55357694381644) rotate(0 24.684823638254443 38.99091622829681)"><path d="M26.52 61.4 C32.73 66.59, 37.98 70.21, 48.65 79.41 M26.14 60.57 C32.6 65.41, 42.09 70.95, 49.66 77.79" stroke="#000" stroke-width="2" fill="none"></path></g><g transform="translate(270.9933872246263 247.55357694381644) rotate(0 24.684823638254443 38.99091622829681)"><path d="M43.78 50.3 C44.72 58.91, 44.8 65.87, 48.65 79.41 M43.4 49.47 C44.07 58.08, 47.84 67.3, 49.66 77.79" stroke="#000" stroke-width="2" fill="none"></path></g></g><g stroke-linecap="round"><g transform="translate(260.88808551821194 250.50093251536248) rotate(0 36.30804713901716 92.67267683380777)"><path d="M-0.3 -0.11 C11.94 30.74, 60.47 154.4, 72.92 185.1 M1.74 -1.21 C13.84 29.82, 59.71 155.55, 71.79 186.55" stroke="#000" stroke-width="2" fill="none"></path></g><g transform="translate(260.88808551821194 250.50093251536248) rotate(0 36.30804713901716 92.67267683380777)"><path d="M52.09 163.19 C57.02 171.54, 60.4 174.81, 71.46 188.15 M52.44 164.46 C58.05 171.31, 63.5 176.55, 72.02 187.01" stroke="#000" stroke-width="2" fill="none"></path></g><g transform="translate(260.88808551821194 250.50093251536248) rotate(0 36.30804713901716 92.67267683380777)"><path d="M71.3 155.98 C71.3 166.13, 69.73 171.25, 71.46 188.15 M71.65 157.24 C71.69 166.22, 71.56 173.55, 72.02 187.01" stroke="#000" stroke-width="2" fill="none"></path></g></g><g stroke-linecap="round"><g transform="translate(253.30912530028422 251.343040990897) rotate(0 4.520029505419473 64.64492414796553)"><path d="M0.61 1 C2.35 22.55, 8.12 107.72, 9.57 128.81 M-0.53 0.48 C1.08 21.73, 6.29 105.76, 8.34 127.11" stroke="#000" stroke-width="2" fill="none"></path></g><g transform="translate(253.30912530028422 251.343040990897) rotate(0 4.520029505419473 64.64492414796553)"><path d="M-2.38 98.9 C0.03 104.65, 0.76 112.22, 10.12 128.95 M-4.59 99.98 C0.57 109.41, 3.89 118.44, 8.52 127.72" stroke="#000" stroke-width="2" fill="none"></path></g><g transform="translate(253.30912530028422 251.343040990897) rotate(0 4.520029505419473 64.64492414796553)"><path d="M18.08 97.33 C15.8 103.54, 11.84 111.47, 10.12 128.95 M15.87 98.41 C13.95 108.19, 10.18 117.77, 8.52 127.72" stroke="#000" stroke-width="2" fill="none"></path></g></g><g stroke-linecap="round"><g transform="translate(236.8880983677185 250.0798863085368) rotate(0 -11.023376017378837 52.374329230659896)"><path d="M-0.59 -1.09 C-4.68 16.46, -19.73 88.15, -23.34 105.84 M1.29 0.95 C-2.53 18.1, -17.12 86.47, -21.17 104.02" stroke="#000" stroke-width="2" fill="none"></path></g><g transform="translate(236.8880983677185 250.0798863085368) rotate(0 -11.023376017378837 52.374329230659896)"><path d="M-26.92 72.57 C-22.45 86.18, -22.2 97.08, -22.96 104.88 M-24.23 73.81 C-24.16 79.66, -23.82 86.54, -20.81 104.51" stroke="#000" stroke-width="2" fill="none"></path></g><g transform="translate(236.8880983677185 250.0798863085368) rotate(0 -11.023376017378837 52.374329230659896)"><path d="M-6.88 77 C-10.38 88.75, -18.08 97.89, -22.96 104.88 M-4.2 78.24 C-8.22 83.01, -11.97 88.99, -20.81 104.51" stroke="#000" stroke-width="2" fill="none"></path></g></g><g stroke-linecap="round"><g transform="translate(228.04596740554746 246.290406199573) rotate(0 -31.683954852726572 49.80495330635114)"><path d="M0.37 0.24 C-10.32 16.95, -52.34 82.76, -63.06 99.25 M-0.9 -0.68 C-11.8 16.23, -53.06 83.51, -63.73 100.29" stroke="#000" stroke-width="2" fill="none"></path></g><g transform="translate(228.04596740554746 246.290406199573) rotate(0 -31.683954852726572 49.80495330635114)"><path d="M-57.12 71.8 C-61.78 81.76, -64.27 93.23, -64.1 99.06 M-57.92 71.35 C-58.71 78.73, -60.01 86.69, -63.96 99.65" stroke="#000" stroke-width="2" fill="none"></path></g><g transform="translate(228.04596740554746 246.290406199573) rotate(0 -31.683954852726572 49.80495330635114)"><path d="M-39.71 82.66 C-51.06 88.44, -60.34 95.68, -64.1 99.06 M-40.51 82.21 C-45.98 86.7, -51.85 91.81, -63.96 99.65" stroke="#000" stroke-width="2" fill="none"></path></g></g></svg>