<svg version="1.1" xmlns="http://www.w3.org/2000/svg" viewBox="0 0 1122.3999633789062 756.8000030517579" width="2244.7999267578125" height="1513.6000061035159">
  <!-- svg-source:excalidraw -->
  
  <defs>
    <style>
      @font-face {
        font-family: "Virgil";
        src: url("https://excalidraw.com/Virgil.woff2");
      }
      @font-face {
        font-family: "Cascadia";
        src: url("https://excalidraw.com/Cascadia.woff2");
      }
    </style>
  </defs>
  <rect x="0" y="0" width="1122.3999633789062" height="756.8000030517579" fill="#ffffff"></rect><g stroke-linecap="round" transform="translate(10 10) rotate(0 551.1999816894531 368.40000152587896)"><path d="M0 0 C0 0, 0 0, 0 0 M0 0 C0 0, 0 0, 0 0 M0.13 12.04 C2.66 9.13, 5.19 6.22, 10.63 -0.03 M0.13 12.04 C3.5 8.17, 6.87 4.29, 10.63 -0.03 M0.27 24.08 C6.93 16.42, 13.59 8.75, 21.26 -0.07 M0.27 24.08 C4.88 18.78, 9.49 13.47, 21.26 -0.07 M-0.26 36.88 C11.73 23.09, 23.72 9.3, 31.89 -0.1 M-0.26 36.88 C10.86 24.08, 21.98 11.29, 31.89 -0.1 M-0.12 48.92 C8.96 38.47, 18.04 28.02, 42.52 -0.14 M-0.12 48.92 C15.09 31.42, 30.3 13.92, 42.52 -0.14 M0.01 60.96 C16.92 41.5, 33.83 22.05, 53.15 -0.17 M0.01 60.96 C12.45 46.65, 24.89 32.34, 53.15 -0.17 M0.14 73 C15.68 55.13, 31.21 37.26, 63.78 -0.21 M0.14 73 C18.28 52.14, 36.41 31.28, 63.78 -0.21 M0.28 85.04 C16.66 66.2, 33.04 47.35, 74.41 -0.24 M0.28 85.04 C25.59 55.92, 50.9 26.8, 74.41 -0.24 M-0.25 97.84 C29.97 63.07, 60.2 28.3, 85.04 -0.28 M-0.25 97.84 C30.5 62.46, 61.25 27.09, 85.04 -0.28 M-0.11 109.88 C21.41 85.11, 42.94 60.35, 95.67 -0.31 M-0.11 109.88 C21.37 85.16, 42.85 60.45, 95.67 -0.31 M0.02 121.92 C30.58 86.76, 61.15 51.6, 106.3 -0.34 M0.02 121.92 C36.13 80.38, 72.24 38.84, 106.3 -0.34 M0.15 133.96 C31.89 97.44, 63.63 60.93, 116.27 0.38 M0.15 133.96 C27.89 102.05, 55.64 70.13, 116.27 0.38 M0.29 146 C49.35 89.56, 98.42 33.11, 126.91 0.34 M0.29 146 C48.25 90.82, 96.21 35.65, 126.91 0.34 M-0.24 158.8 C42.54 109.58, 85.33 60.37, 137.54 0.31 M-0.24 158.8 C46.81 104.67, 93.86 50.55, 137.54 0.31 M-0.1 170.84 C58.89 102.97, 117.88 35.11, 148.17 0.27 M-0.1 170.84 C34.59 130.93, 69.28 91.02, 148.17 0.27 M0.03 182.88 C44.49 131.73, 88.95 80.59, 158.8 0.24 M0.03 182.88 C45.8 130.22, 91.58 77.56, 158.8 0.24 M0.16 194.92 C44.59 143.82, 89.01 92.71, 169.43 0.2 M0.16 194.92 C44.43 144, 88.69 93.07, 169.43 0.2 M0.3 206.96 C58.83 139.63, 117.36 72.29, 180.06 0.17 M0.3 206.96 C42.65 158.23, 85.01 109.51, 180.06 0.17 M-0.23 219.75 C61.81 148.38, 123.86 77.01, 190.69 0.13 M-0.23 219.75 C41.33 171.95, 82.89 124.14, 190.69 0.13 M-0.09 231.8 C78.66 141.2, 157.41 50.6, 201.32 0.1 M-0.09 231.8 C68.32 153.09, 136.74 74.39, 201.32 0.1 M0.04 243.84 C69.8 163.59, 139.56 83.34, 211.95 0.06 M0.04 243.84 C54.86 180.77, 109.68 117.71, 211.95 0.06 M0.17 255.88 C49.1 199.59, 98.02 143.31, 222.58 0.03 M0.17 255.88 C79.51 164.61, 158.85 73.34, 222.58 0.03 M0.3 267.92 C51.28 209.28, 102.25 150.64, 233.21 0 M0.3 267.92 C79.68 176.6, 159.06 85.29, 233.21 0 M-0.22 280.71 C86.74 180.68, 173.69 80.65, 243.84 -0.04 M-0.22 280.71 C59.09 212.49, 118.4 144.26, 243.84 -0.04 M-0.08 292.75 C85.89 193.86, 171.86 94.96, 254.47 -0.07 M-0.08 292.75 C56 228.24, 112.08 163.72, 254.47 -0.07 M0.05 304.8 C91.14 200.01, 182.23 95.22, 265.1 -0.11 M0.05 304.8 C94.08 196.62, 188.12 88.45, 265.1 -0.11 M0.18 316.84 C63.43 244.07, 126.69 171.31, 275.73 -0.14 M0.18 316.84 C70.01 236.51, 139.84 156.18, 275.73 -0.14 M0.31 328.88 C93.53 221.65, 186.74 114.42, 286.36 -0.18 M0.31 328.88 C71.34 247.18, 142.36 165.48, 286.36 -0.18 M-0.21 341.67 C70.55 260.28, 141.3 178.88, 296.99 -0.21 M-0.21 341.67 C117.6 206.15, 235.4 70.63, 296.99 -0.21 M-0.08 353.71 C75.81 266.41, 151.7 179.11, 307.62 -0.25 M-0.08 353.71 C86.01 254.68, 172.1 155.65, 307.62 -0.25 M0.06 365.75 C97.76 253.37, 195.45 140.98, 318.25 -0.28 M0.06 365.75 C65.44 290.54, 130.82 215.33, 318.25 -0.28 M0.19 377.79 C82.28 283.36, 164.36 188.94, 328.88 -0.31 M0.19 377.79 C67.74 300.09, 135.29 222.38, 328.88 -0.31 M0.32 389.84 C129.28 241.48, 258.25 93.13, 339.51 -0.35 M0.32 389.84 C80.69 297.39, 161.05 204.95, 339.51 -0.35 M-0.2 402.63 C97.33 290.43, 194.86 178.24, 349.48 0.37 M-0.2 402.63 C133.29 249.07, 266.77 95.51, 349.48 0.37 M-0.07 414.67 C72.45 331.26, 144.96 247.84, 360.11 0.34 M-0.07 414.67 C88.89 312.34, 177.85 210, 360.11 0.34 M0.07 426.71 C103.08 308.21, 206.1 189.7, 370.74 0.3 M0.07 426.71 C135.25 271.2, 270.44 115.69, 370.74 0.3 M0.2 438.75 C119.94 301.01, 239.68 163.26, 381.37 0.27 M0.2 438.75 C149.59 266.91, 298.97 95.06, 381.37 0.27 M-0.32 451.55 C152.87 275.32, 306.07 99.09, 392 0.23 M-0.32 451.55 C121.55 311.35, 243.43 171.15, 392 0.23 M-0.19 463.59 C105.51 341.99, 211.22 220.4, 402.63 0.2 M-0.19 463.59 C91.63 357.96, 183.45 252.33, 402.63 0.2 M-0.06 475.63 C148.9 304.28, 297.85 132.93, 413.26 0.16 M-0.06 475.63 C155.28 296.93, 310.62 118.24, 413.26 0.16 M0.08 487.67 C165.31 297.59, 330.54 107.51, 423.89 0.13 M0.08 487.67 C132.03 335.88, 263.98 184.08, 423.89 0.13 M0.21 499.71 C144.12 334.16, 288.03 168.62, 434.52 0.1 M0.21 499.71 C137.67 341.58, 275.14 183.44, 434.52 0.1 M-0.31 512.51 C106.73 389.37, 213.76 266.24, 445.15 0.06 M-0.31 512.51 C177.14 308.37, 354.6 104.23, 445.15 0.06 M-0.18 524.55 C112.51 394.92, 225.2 265.28, 455.78 0.03 M-0.18 524.55 C131.56 373, 263.3 221.45, 455.78 0.03 M-0.05 536.59 C166.67 344.81, 333.38 153.03, 466.41 -0.01 M-0.05 536.59 C114.35 405, 228.74 273.4, 466.41 -0.01 M0.09 548.63 C120.05 410.63, 240.01 272.63, 477.04 -0.04 M0.09 548.63 C119 411.83, 237.92 275.03, 477.04 -0.04 M0.22 560.67 C139.12 400.88, 278.03 241.09, 487.67 -0.08 M0.22 560.67 C101.72 443.91, 203.22 327.15, 487.67 -0.08 M-0.3 573.47 C143.4 408.16, 287.1 242.85, 498.3 -0.11 M-0.3 573.47 C176.19 370.44, 352.68 167.41, 498.3 -0.11 M-0.17 585.51 C186.53 370.74, 373.23 155.96, 508.93 -0.15 M-0.17 585.51 C123.84 442.86, 247.84 300.2, 508.93 -0.15 M-0.04 597.55 C156.35 417.65, 312.73 237.75, 519.56 -0.18 M-0.04 597.55 C186.55 382.91, 373.13 168.27, 519.56 -0.18 M0.1 609.59 C183.74 398.33, 367.38 187.08, 530.19 -0.22 M0.1 609.59 C163.12 422.05, 326.15 234.5, 530.19 -0.22 M0.23 621.63 C126.49 476.38, 252.76 331.13, 540.82 -0.25 M0.23 621.63 C119.68 484.22, 239.13 346.81, 540.82 -0.25 M-0.29 634.43 C202.66 400.95, 405.62 167.48, 551.45 -0.28 M-0.29 634.43 C196.34 408.23, 392.96 182.04, 551.45 -0.28 M-0.16 646.47 C129 497.88, 258.17 349.29, 562.08 -0.32 M-0.16 646.47 C166.16 455.14, 332.48 263.81, 562.08 -0.32 M-0.03 658.51 C214.58 411.63, 429.18 164.76, 572.71 -0.35 M-0.03 658.51 C198.32 430.33, 396.67 202.16, 572.71 -0.35 M0.11 670.55 C135.98 514.25, 271.85 357.95, 582.69 0.37 M0.11 670.55 C198.13 442.75, 396.16 214.95, 582.69 0.37 M0.24 682.59 C184.54 470.57, 368.85 258.56, 593.32 0.33 M0.24 682.59 C138.8 523.2, 277.35 363.81, 593.32 0.33 M-0.28 695.39 C234.03 425.84, 468.34 156.3, 603.95 0.3 M-0.28 695.39 C186.72 480.26, 373.72 265.14, 603.95 0.3 M-0.15 707.43 C196.42 481.3, 392.99 255.17, 614.58 0.26 M-0.15 707.43 C230.09 442.56, 460.33 177.7, 614.58 0.26 M-0.02 719.47 C148.27 548.88, 296.55 378.3, 625.21 0.23 M-0.02 719.47 C225.57 459.96, 451.16 200.45, 625.21 0.23 M0.12 731.51 C219.74 478.86, 439.36 226.21, 635.84 0.19 M0.12 731.51 C206.93 493.59, 413.75 255.68, 635.84 0.19 M3.53 739.78 C212.57 499.3, 421.61 258.83, 646.47 0.16 M3.53 739.78 C164.34 554.78, 325.15 369.79, 646.47 0.16 M14.16 739.74 C227.38 494.46, 440.59 249.19, 657.1 0.13 M14.16 739.74 C169.89 560.59, 325.63 381.44, 657.1 0.13 M24.79 739.71 C279.02 447.25, 533.25 154.79, 667.73 0.09 M24.79 739.71 C239.32 492.92, 453.84 246.14, 667.73 0.09 M35.42 739.67 C178.14 575.49, 320.86 411.31, 678.36 0.06 M35.42 739.67 C216.39 531.48, 397.37 323.3, 678.36 0.06 M46.05 739.64 C297.94 449.87, 549.83 160.1, 688.99 0.02 M46.05 739.64 C282.46 467.68, 518.87 195.72, 688.99 0.02 M56.68 739.6 C288.32 473.13, 519.96 206.66, 699.62 -0.01 M56.68 739.6 C313.44 444.23, 570.2 148.87, 699.62 -0.01 M67.31 739.57 C233.17 548.77, 399.02 357.98, 710.25 -0.05 M67.31 739.57 C265.64 511.42, 463.97 283.26, 710.25 -0.05 M77.94 739.53 C264.58 524.83, 451.22 310.13, 720.88 -0.08 M77.94 739.53 C304.31 479.12, 530.68 218.71, 720.88 -0.08 M88.57 739.5 C305.71 489.71, 522.84 239.92, 731.51 -0.12 M88.57 739.5 C289.32 508.57, 490.07 277.63, 731.51 -0.12 M99.2 739.46 C327.92 476.35, 556.64 213.24, 742.14 -0.15 M99.2 739.46 C289.47 520.58, 479.74 301.7, 742.14 -0.15 M109.17 740.19 C350.4 462.69, 591.62 185.19, 752.77 -0.19 M109.17 740.19 C324.93 491.99, 540.68 243.79, 752.77 -0.19 M119.8 740.15 C313.14 517.75, 506.47 295.34, 763.4 -0.22 M119.8 740.15 C368.97 453.52, 618.14 166.88, 763.4 -0.22 M130.43 740.12 C331.86 508.4, 533.28 276.69, 774.03 -0.25 M130.43 740.12 C345.22 493.04, 560 245.96, 774.03 -0.25 M141.06 740.08 C313.54 541.67, 486.03 343.25, 784.66 -0.29 M141.06 740.08 C386.9 457.28, 632.74 174.47, 784.66 -0.29 M151.69 740.05 C342.17 520.94, 532.64 301.82, 795.29 -0.32 M151.69 740.05 C321.57 544.63, 491.45 349.21, 795.29 -0.32 M162.32 740.01 C292.52 590.24, 422.72 440.47, 805.92 -0.36 M162.32 740.01 C314.64 564.79, 466.96 389.57, 805.92 -0.36 M172.95 739.98 C344.94 542.13, 516.93 344.28, 815.89 0.36 M172.95 739.98 C354.37 531.29, 535.78 322.59, 815.89 0.36 M183.58 739.94 C342.42 557.23, 501.25 374.51, 826.52 0.33 M183.58 739.94 C381.27 512.54, 578.95 285.13, 826.52 0.33 M194.22 739.91 C432.99 465.23, 671.77 190.54, 837.15 0.29 M194.22 739.91 C415.78 485.03, 637.35 230.14, 837.15 0.29 M204.85 739.87 C427.3 483.97, 649.75 228.07, 847.78 0.26 M204.85 739.87 C430.28 480.54, 655.72 221.21, 847.78 0.26 M215.48 739.84 C441.36 479.98, 667.25 220.13, 858.41 0.22 M215.48 739.84 C348.92 586.33, 482.37 432.82, 858.41 0.22 M226.11 739.81 C382.27 560.16, 538.43 380.51, 869.04 0.19 M226.11 739.81 C433.4 501.34, 640.69 262.88, 869.04 0.19 M236.74 739.77 C462.48 480.08, 688.23 220.39, 879.67 0.16 M236.74 739.77 C382.83 571.7, 528.93 403.64, 879.67 0.16 M247.37 739.74 C428.35 531.54, 609.33 323.35, 890.3 0.12 M247.37 739.74 C491.07 459.38, 734.78 179.03, 890.3 0.12 M258 739.7 C460.18 507.11, 662.37 274.53, 900.93 0.09 M258 739.7 C489.39 473.51, 720.79 207.32, 900.93 0.09 M268.63 739.67 C400.77 587.65, 532.92 435.63, 911.56 0.05 M268.63 739.67 C446.6 534.93, 624.57 330.2, 911.56 0.05 M279.26 739.63 C526.88 454.77, 774.51 169.91, 922.19 0.02 M279.26 739.63 C511.88 472.03, 744.5 204.43, 922.19 0.02 M289.89 739.6 C520.56 474.24, 751.23 208.88, 932.82 -0.02 M289.89 739.6 C529.01 464.51, 768.14 189.43, 932.82 -0.02 M300.52 739.56 C497.83 512.58, 695.15 285.59, 943.45 -0.05 M300.52 739.56 C550.75 451.7, 800.98 163.84, 943.45 -0.05 M311.15 739.53 C494.37 528.76, 677.59 317.99, 954.08 -0.09 M311.15 739.53 C453.02 576.33, 594.89 413.12, 954.08 -0.09 M321.78 739.5 C465.46 574.21, 609.14 408.92, 964.71 -0.12 M321.78 739.5 C577.88 444.88, 833.99 150.26, 964.71 -0.12 M332.41 739.46 C543.21 496.96, 754.01 254.47, 975.34 -0.15 M332.41 739.46 C576.24 458.96, 820.08 178.45, 975.34 -0.15 M342.38 740.18 C521.7 533.89, 701.02 327.61, 985.97 -0.19 M342.38 740.18 C564.71 484.42, 787.05 228.65, 985.97 -0.19 M353.01 740.15 C501.82 568.96, 650.62 397.78, 996.6 -0.22 M353.01 740.15 C484.28 589.14, 615.55 438.13, 996.6 -0.22 M363.64 740.11 C502.72 580.12, 641.8 420.12, 1007.23 -0.26 M363.64 740.11 C612.59 453.73, 861.54 167.34, 1007.23 -0.26 M374.27 740.08 C592.29 489.27, 810.31 238.47, 1017.86 -0.29 M374.27 740.08 C535.84 554.22, 697.4 368.36, 1017.86 -0.29 M384.9 740.04 C629.24 458.96, 873.58 177.88, 1028.49 -0.33 M384.9 740.04 C564.25 533.73, 743.59 327.42, 1028.49 -0.33 M395.53 740.01 C649.27 448.12, 903 156.23, 1039.12 -0.36 M395.53 740.01 C573.63 535.13, 751.72 330.25, 1039.12 -0.36 M406.16 739.97 C607.41 508.46, 808.67 276.94, 1049.1 0.36 M406.16 739.97 C648.71 460.96, 891.25 181.94, 1049.1 0.36 M416.79 739.94 C636.31 487.41, 855.84 234.87, 1059.73 0.32 M416.79 739.94 C569.34 564.45, 721.89 388.96, 1059.73 0.32 M427.42 739.9 C658.86 473.67, 890.29 207.43, 1070.36 0.29 M427.42 739.9 C580.97 563.27, 734.52 386.63, 1070.36 0.29 M438.05 739.87 C646.41 500.18, 854.77 260.48, 1080.99 0.26 M438.05 739.87 C623.82 526.17, 809.58 312.47, 1080.99 0.26 M448.68 739.84 C618.57 544.4, 788.46 348.97, 1091.62 0.22 M448.68 739.84 C589.89 577.39, 731.1 414.95, 1091.62 0.22 M459.31 739.8 C643.14 528.33, 826.96 316.86, 1102.25 0.19 M459.31 739.8 C708.74 452.86, 958.18 165.92, 1102.25 0.19 M469.94 739.77 C703.68 470.88, 937.42 201.99, 1102.38 12.23 M469.94 739.77 C644.45 539.01, 818.97 338.26, 1102.38 12.23 M480.57 739.73 C711.13 474.51, 941.69 209.28, 1102.52 24.27 M480.57 739.73 C661.31 531.82, 842.04 323.91, 1102.52 24.27 M491.2 739.7 C625.57 585.13, 759.94 430.55, 1102.65 36.31 M491.2 739.7 C713.75 483.68, 936.3 227.67, 1102.65 36.31 M501.83 739.66 C695.24 517.17, 888.65 294.68, 1102.13 49.1 M501.83 739.66 C713.79 495.83, 925.76 251.99, 1102.13 49.1 M512.46 739.63 C723.9 496.4, 935.34 253.16, 1102.26 61.15 M512.46 739.63 C654.01 576.79, 795.56 413.96, 1102.26 61.15 M523.09 739.59 C687.69 550.25, 852.29 360.9, 1102.39 73.19 M523.09 739.59 C715.25 518.54, 907.41 297.48, 1102.39 73.19 M533.72 739.56 C721.18 523.92, 908.64 308.27, 1102.53 85.23 M533.72 739.56 C681.76 569.26, 829.8 398.96, 1102.53 85.23 M544.35 739.53 C656.16 610.9, 767.97 482.28, 1102.66 97.27 M544.35 739.53 C758.01 493.74, 971.67 247.95, 1102.66 97.27 M554.98 739.49 C706.38 565.32, 857.78 391.16, 1102.14 110.06 M554.98 739.49 C763.46 499.67, 971.93 259.84, 1102.14 110.06 M565.61 739.46 C680.65 607.13, 795.68 474.8, 1102.27 122.1 M565.61 739.46 C706.37 577.54, 847.12 415.62, 1102.27 122.1 M575.59 740.18 C756.64 531.9, 937.69 323.62, 1102.4 134.14 M575.59 740.18 C764.45 522.91, 953.32 305.64, 1102.4 134.14 M586.22 740.14 C725.69 579.69, 865.17 419.24, 1102.53 146.19 M586.22 740.14 C754.92 546.08, 923.62 352.01, 1102.53 146.19 M596.85 740.11 C735.55 580.55, 874.25 420.99, 1102.67 158.23 M596.85 740.11 C773.37 537.04, 949.9 333.97, 1102.67 158.23 M607.48 740.07 C761.5 562.89, 915.53 385.7, 1102.14 171.02 M607.48 740.07 C771.86 550.98, 936.24 361.88, 1102.14 171.02 M618.11 740.04 C720.79 621.92, 823.47 503.79, 1102.28 183.06 M618.11 740.04 C767.57 568.1, 917.04 396.15, 1102.28 183.06 M628.74 740 C762.22 586.45, 895.7 432.89, 1102.41 195.1 M628.74 740 C740.16 611.82, 851.59 483.64, 1102.41 195.1 M639.37 739.97 C778.79 579.58, 918.21 419.19, 1102.54 207.14 M639.37 739.97 C821.82 530.08, 1004.27 320.19, 1102.54 207.14 M650 739.94 C797.2 570.6, 944.41 401.25, 1102.68 219.19 M650 739.94 C827.35 535.92, 1004.7 331.9, 1102.68 219.19 M660.63 739.9 C786.36 595.26, 912.1 450.61, 1102.15 231.98 M660.63 739.9 C819.96 556.61, 979.29 373.33, 1102.15 231.98 M671.26 739.87 C837.32 548.83, 1003.38 357.8, 1102.29 244.02 M671.26 739.87 C825.65 562.26, 980.04 384.66, 1102.29 244.02 M681.89 739.83 C811.04 591.26, 940.19 442.68, 1102.42 256.06 M681.89 739.83 C835.72 562.87, 989.54 385.91, 1102.42 256.06 M692.52 739.8 C776.9 642.72, 861.29 545.65, 1102.55 268.1 M692.52 739.8 C811.72 602.67, 930.92 465.55, 1102.55 268.1 M703.15 739.76 C827.72 596.46, 952.28 453.16, 1102.69 280.14 M703.15 739.76 C848.97 572.02, 994.78 404.27, 1102.69 280.14 M713.78 739.73 C842.15 592.05, 970.52 444.38, 1102.16 292.94 M713.78 739.73 C848 585.32, 982.22 430.91, 1102.16 292.94 M724.41 739.69 C816.05 634.27, 907.69 528.85, 1102.3 304.98 M724.41 739.69 C843.3 602.92, 962.19 466.15, 1102.3 304.98 M735.04 739.66 C846.43 611.51, 957.83 483.37, 1102.43 317.02 M735.04 739.66 C837.57 621.71, 940.11 503.75, 1102.43 317.02 M745.67 739.62 C832.42 639.83, 919.17 540.03, 1102.56 329.06 M745.67 739.62 C878.08 587.3, 1010.5 434.97, 1102.56 329.06 M756.3 739.59 C848.99 632.96, 941.68 526.33, 1102.7 341.1 M756.3 739.59 C842.01 640.98, 927.73 542.38, 1102.7 341.1 M766.93 739.56 C853.16 640.36, 939.38 541.17, 1102.17 353.9 M766.93 739.56 C864.29 627.56, 961.64 515.56, 1102.17 353.9 M777.56 739.52 C896.87 602.26, 1016.19 465, 1102.31 365.94 M777.56 739.52 C844.76 662.22, 911.96 584.91, 1102.31 365.94 M788.19 739.49 C860.05 656.82, 931.91 574.16, 1102.44 377.98 M788.19 739.49 C860.16 656.69, 932.14 573.89, 1102.44 377.98 M798.82 739.45 C904.05 618.4, 1009.28 497.34, 1102.57 390.02 M798.82 739.45 C894.13 629.81, 989.43 520.18, 1102.57 390.02 M808.79 740.17 C897.32 638.33, 985.85 536.5, 1102.71 402.06 M808.79 740.17 C909.65 624.15, 1010.5 508.13, 1102.71 402.06 M819.42 740.14 C917.94 626.81, 1016.46 513.47, 1102.18 414.86 M819.42 740.14 C911.1 634.68, 1002.77 529.22, 1102.18 414.86 M830.05 740.1 C889.56 671.65, 949.06 603.2, 1102.32 426.9 M830.05 740.1 C935.96 618.27, 1041.87 496.43, 1102.32 426.9 M840.68 740.07 C923.69 644.58, 1006.69 549.1, 1102.45 438.94 M840.68 740.07 C943.96 621.27, 1047.23 502.46, 1102.45 438.94 M851.31 740.03 C932.85 646.24, 1014.38 552.45, 1102.58 450.98 M851.31 740.03 C932.43 646.72, 1013.55 553.4, 1102.58 450.98 M861.94 740 C957.34 630.26, 1052.74 520.51, 1102.72 463.02 M861.94 740 C929.59 662.18, 997.24 584.36, 1102.72 463.02 M872.57 739.97 C955.87 644.15, 1039.16 548.33, 1102.19 475.82 M872.57 739.97 C941.67 660.48, 1010.76 580.99, 1102.19 475.82 M883.2 739.93 C955.41 656.86, 1027.62 573.8, 1102.33 487.86 M883.2 739.93 C957.65 654.29, 1032.1 568.65, 1102.33 487.86 M893.83 739.9 C951.64 673.4, 1009.44 606.9, 1102.46 499.9 M893.83 739.9 C952.14 672.82, 1010.45 605.75, 1102.46 499.9 M904.46 739.86 C956.14 680.42, 1007.81 620.97, 1102.59 511.94 M904.46 739.86 C969.28 665.3, 1034.1 590.73, 1102.59 511.94 M915.09 739.83 C954.73 694.24, 994.36 648.64, 1102.73 523.98 M915.09 739.83 C955.39 693.47, 995.69 647.11, 1102.73 523.98 M925.72 739.79 C984.63 672.03, 1043.54 604.27, 1102.2 536.78 M925.72 739.79 C996.21 658.7, 1066.7 577.62, 1102.2 536.78 M936.35 739.76 C987.63 680.77, 1038.92 621.77, 1102.34 548.82 M936.35 739.76 C980.02 689.53, 1023.69 639.29, 1102.34 548.82 M946.98 739.72 C992.42 687.46, 1037.85 635.19, 1102.47 560.86 M946.98 739.72 C995.62 683.78, 1044.25 627.83, 1102.47 560.86 M957.61 739.69 C1003.14 687.32, 1048.67 634.94, 1102.6 572.9 M957.61 739.69 C1012.8 676.21, 1067.98 612.73, 1102.6 572.9 M968.24 739.66 C1005.69 696.57, 1043.14 653.49, 1102.08 585.69 M968.24 739.66 C998.16 705.24, 1028.08 670.82, 1102.08 585.69 M978.87 739.62 C1024.53 687.1, 1070.18 634.59, 1102.21 597.74 M978.87 739.62 C1018.79 693.7, 1058.71 647.78, 1102.21 597.74 M989.5 739.59 C1016.63 708.38, 1043.76 677.17, 1102.35 609.78 M989.5 739.59 C1021.99 702.21, 1054.48 664.84, 1102.35 609.78 M1000.13 739.55 C1022.76 713.52, 1045.39 687.49, 1102.48 621.82 M1000.13 739.55 C1025.55 710.31, 1050.98 681.06, 1102.48 621.82 M1010.76 739.52 C1039.94 705.95, 1069.12 672.39, 1102.61 633.86 M1010.76 739.52 C1034.84 711.82, 1058.91 684.13, 1102.61 633.86 M1021.39 739.48 C1038.39 719.93, 1055.38 700.38, 1102.09 646.65 M1021.39 739.48 C1046.5 710.6, 1071.61 681.72, 1102.09 646.65 M1031.37 740.2 C1049.46 719.39, 1067.56 698.57, 1102.22 658.69 M1031.37 740.2 C1052.8 715.55, 1074.23 690.9, 1102.22 658.69 M1042 740.17 C1059.05 720.56, 1076.09 700.94, 1102.36 670.74 M1042 740.17 C1058.18 721.55, 1074.36 702.94, 1102.36 670.74 M1052.63 740.13 C1072.44 717.35, 1092.25 694.56, 1102.49 682.78 M1052.63 740.13 C1070.83 719.19, 1089.04 698.25, 1102.49 682.78 M1063.26 740.1 C1078.23 722.87, 1093.2 705.65, 1102.62 694.82 M1063.26 740.1 C1074.11 727.62, 1084.95 715.14, 1102.62 694.82 M1073.89 740.06 C1081.99 730.75, 1090.09 721.43, 1102.1 707.61 M1073.89 740.06 C1079.71 733.36, 1085.54 726.66, 1102.1 707.61 M1084.52 740.03 C1088.91 734.97, 1093.31 729.92, 1102.23 719.65 M1084.52 740.03 C1089.65 734.13, 1094.79 728.22, 1102.23 719.65 M1095.15 740 C1097.09 737.76, 1099.03 735.53, 1102.37 731.69 M1095.15 740 C1097.91 736.82, 1100.67 733.64, 1102.37 731.69" stroke="#ced4da" stroke-width="1" fill="none"></path><path d="M0 0 C226.74 0, 453.48 0, 1102.4 0 M0 0 C432.65 0, 865.31 0, 1102.4 0 M1102.4 0 C1102.4 179.15, 1102.4 358.31, 1102.4 736.8 M1102.4 0 C1102.4 172.74, 1102.4 345.48, 1102.4 736.8 M1102.4 736.8 C708.34 736.8, 314.28 736.8, 0 736.8 M1102.4 736.8 C778.59 736.8, 454.77 736.8, 0 736.8 M0 736.8 C0 457.51, 0 178.21, 0 0 M0 736.8 C0 587.7, 0 438.59, 0 0" stroke="#000000" stroke-width="2" fill="none"></path></g><g stroke-linecap="round" transform="translate(77.20001220703125 260.40013122558594) rotate(0 165.19998168945312 124.80000305175781)"><path d="M0 0 L330.4 0 L330.4 249.6 L0 249.6" stroke="none" stroke-width="0" fill="#4c6ef5"></path><path d="M0 0 C112.67 0, 225.34 0, 330.4 0 M0 0 C102.18 0, 204.35 0, 330.4 0 M330.4 0 C330.4 76.58, 330.4 153.17, 330.4 249.6 M330.4 0 C330.4 85.73, 330.4 171.47, 330.4 249.6 M330.4 249.6 C230.47 249.6, 130.55 249.6, 0 249.6 M330.4 249.6 C240.36 249.6, 150.33 249.6, 0 249.6 M0 249.6 C0 159.77, 0 69.94, 0 0 M0 249.6 C0 199.23, 0 148.86, 0 0" stroke="#000000" stroke-width="2" fill="none"></path></g><g stroke-linecap="round" transform="translate(117.20001220703125 346.80015563964844) rotate(0 19.20001220703125 19.20001220703125)"><path d="M19.6 -1.3 C23.13 -2.14, 26.18 -0.51, 29.07 2.12 C31.95 4.76, 36.04 10.4, 36.92 14.53 C37.8 18.65, 36.26 23.15, 34.35 26.87 C32.44 30.59, 29.02 35.39, 25.47 36.87 C21.92 38.35, 16.88 36.89, 13.03 35.73 C9.19 34.58, 4.44 33.03, 2.41 29.94 C0.39 26.86, 0.37 21.44, 0.87 17.24 C1.37 13.03, 0.49 6.86, 5.4 4.7 C10.31 2.54, 25.06 3.11, 30.33 4.29 C35.61 5.47, 37.72 11.58, 37.05 11.77 M13.3 -1.02 C17.21 -2.25, 26.17 -2.64, 29.94 -1 C33.71 0.63, 35.03 4.84, 35.94 8.78 C36.84 12.72, 36.84 17.94, 35.39 22.63 C33.95 27.33, 30.27 34.34, 27.26 36.95 C24.25 39.57, 21.15 38.98, 17.35 38.32 C13.56 37.65, 7.12 35.9, 4.48 32.98 C1.83 30.05, 1.82 24.75, 1.48 20.77 C1.14 16.78, -0.21 12.3, 2.43 9.05 C5.07 5.8, 15.79 2.38, 17.31 1.28 C18.83 0.19, 11.55 1.93, 11.57 2.49" stroke="none" stroke-width="0" fill="#82c91e"></path><path d="M26.32 0.9 C29.83 2.16, 34.03 4.88, 36.03 8.38 C38.03 11.88, 39.17 17.42, 38.31 21.88 C37.45 26.34, 34.46 32.46, 30.88 35.13 C27.31 37.79, 21.11 38.03, 16.87 37.86 C12.62 37.7, 8.38 36.61, 5.41 34.16 C2.43 31.72, -0.25 27.22, -0.96 23.18 C-1.67 19.14, -1.14 13.35, 1.15 9.92 C3.44 6.49, 6.45 1.36, 12.79 2.61 C19.13 3.86, 36.54 12.1, 39.2 17.43 C41.87 22.76, 28.93 34.29, 28.78 34.57 M27.24 4.04 C30.08 5.64, 31.67 7.45, 33.29 10.47 C34.92 13.48, 37.6 17.83, 36.99 22.13 C36.38 26.43, 32.32 33.69, 29.65 36.29 C26.98 38.89, 24.69 38.05, 20.95 37.73 C17.21 37.4, 10.97 37.42, 7.21 34.32 C3.45 31.22, -0.96 23.44, -1.6 19.13 C-2.24 14.82, 0.39 11.56, 3.37 8.45 C6.35 5.34, 12 1.93, 16.29 0.45 C20.58 -1.04, 27.86 -0.93, 29.12 -0.45 C30.38 0.04, 24.67 2.54, 23.86 3.36" stroke="#000000" stroke-width="2" fill="none"></path></g><g stroke-linecap="round" transform="translate(181.28883870442712 364.6000518798828) rotate(0 19.20001220703125 19.20001220703125)"><path d="M26.88 1.86 C30.79 3.32, 35.65 8.43, 37.26 11.75 C38.87 15.07, 37.99 18.15, 36.54 21.79 C35.09 25.44, 31.8 31.16, 28.58 33.62 C25.36 36.09, 21.22 36.82, 17.22 36.57 C13.21 36.33, 7.41 34.76, 4.54 32.18 C1.66 29.59, 0.47 25.1, -0.03 21.08 C-0.54 17.06, -0.89 11.31, 1.52 8.04 C3.94 4.77, 9.19 2.09, 14.44 1.44 C19.68 0.79, 29.48 2.37, 33 4.14 C36.53 5.9, 35.63 11.39, 35.59 12.03 M33.21 8.24 C35.79 10.56, 35.86 13.84, 35.7 18.13 C35.53 22.43, 34.93 30.82, 32.24 34.03 C29.55 37.23, 23.75 37.45, 19.55 37.36 C15.34 37.27, 10.37 35.9, 7.01 33.49 C3.65 31.09, 0.02 26.41, -0.63 22.93 C-1.29 19.44, 1.36 16.17, 3.08 12.61 C4.8 9.05, 6.37 3.36, 9.69 1.55 C13 -0.27, 18.92 1.03, 22.98 1.73 C27.05 2.43, 32.13 4.37, 34.09 5.75 C36.04 7.13, 34.87 10.12, 34.72 10.03" stroke="none" stroke-width="0" fill="#40c057"></path><path d="M25.92 2 C29.08 2.77, 31.61 5.61, 33.57 8.9 C35.53 12.19, 38.25 17.57, 37.69 21.73 C37.12 25.88, 33.38 31.06, 30.18 33.82 C26.97 36.58, 22.16 38.48, 18.48 38.3 C14.81 38.12, 11.22 35.4, 8.13 32.73 C5.03 30.06, 0.75 26.23, -0.1 22.29 C-0.96 18.34, 0.74 12.82, 2.99 9.04 C5.24 5.25, 8.33 0.31, 13.39 -0.41 C18.45 -1.13, 29.17 2.43, 33.35 4.72 C37.52 7, 38.76 13.18, 38.43 13.32 M19.26 2.24 C22.37 1.43, 25.31 2.85, 28.84 4.45 C32.37 6.04, 39.18 8.07, 40.45 11.81 C41.72 15.54, 38.94 22.89, 36.46 26.86 C33.97 30.83, 29.03 33.39, 25.54 35.62 C22.06 37.85, 19.37 41.04, 15.53 40.23 C11.69 39.42, 4.91 34.94, 2.51 30.77 C0.11 26.6, 0.96 19.42, 1.12 15.22 C1.29 11.02, 0.73 7.64, 3.49 5.58 C6.25 3.52, 15.32 3.3, 17.68 2.86 C20.04 2.42, 17.91 3.53, 17.67 2.95" stroke="#000000" stroke-width="2" fill="none"></path></g><g stroke-linecap="round" transform="translate(246.39996337890625 395.6000518798828) rotate(0 19.20001220703125 19.20001220703125)"><path d="M21.11 1.81 C24.85 1.41, 28.81 1.75, 31.86 4.28 C34.9 6.81, 38.79 12.68, 39.38 16.98 C39.98 21.28, 38 26.6, 35.45 30.07 C32.9 33.54, 28.18 36.62, 24.08 37.81 C19.98 39, 14.43 39.26, 10.85 37.21 C7.27 35.17, 4.62 29.77, 2.62 25.53 C0.61 21.29, -2.01 15.6, -1.19 11.76 C-0.37 7.92, 3.7 4.56, 7.55 2.46 C11.4 0.36, 19.01 -0.67, 21.9 -0.85 C24.8 -1.02, 24.71 1.17, 24.9 1.43 M15.72 -0.92 C19.26 -1.84, 23.39 2.09, 27.35 4.5 C31.31 6.92, 37.32 10.58, 39.48 13.58 C41.63 16.57, 41.54 19.01, 40.27 22.48 C39.01 25.95, 35.53 32.21, 31.89 34.4 C28.26 36.58, 23.07 36.17, 18.46 35.59 C13.84 35, 6.87 33.89, 4.2 30.89 C1.53 27.89, 2.67 21.84, 2.46 17.59 C2.25 13.34, 1.29 8.49, 2.93 5.36 C4.58 2.23, 10.81 -0.78, 12.31 -1.2 C13.81 -1.63, 11.47 2.22, 11.94 2.83" stroke="none" stroke-width="0" fill="#15aabf"></path><path d="M35 7.96 C37.31 10.71, 36.85 13.21, 36.97 16.87 C37.09 20.54, 37.82 26.14, 35.71 29.96 C33.6 33.77, 28.29 38.55, 24.29 39.74 C20.29 40.94, 15.31 39.62, 11.71 37.15 C8.1 34.67, 4.47 28.91, 2.63 24.92 C0.79 20.93, -0.31 17.13, 0.67 13.2 C1.64 9.26, 4.96 3.72, 8.47 1.31 C11.98 -1.1, 17.3 -2.59, 21.74 -1.25 C26.19 0.09, 32.94 7.29, 35.12 9.35 C37.3 11.42, 35.25 10.97, 34.84 11.14 M10.25 2.23 C13.48 0.59, 20.25 1.15, 24.17 1.53 C28.09 1.91, 31.42 1.25, 33.76 4.52 C36.1 7.79, 37.64 16.58, 38.2 21.16 C38.77 25.74, 39.24 29.53, 37.15 32.02 C35.05 34.51, 29.98 34.97, 25.63 36.11 C21.28 37.24, 15.56 40.39, 11.05 38.83 C6.53 37.26, 0.39 31.14, -1.47 26.71 C-3.32 22.28, -1.59 15.87, -0.08 12.23 C1.43 8.59, 5.66 6.46, 7.62 4.88 C9.57 3.29, 11.12 2.58, 11.67 2.71" stroke="#000000" stroke-width="2" fill="none"></path></g><g stroke-linecap="round" transform="translate(320 338.2001190185547) rotate(0 19.20001220703125 19.20001220703125)"><path d="M25.68 0.78 C29.97 2.06, 35.18 5.67, 37.54 9.03 C39.91 12.39, 41.09 16.64, 39.85 20.92 C38.6 25.2, 33.64 31.66, 30.07 34.71 C26.51 37.76, 22.39 39.26, 18.47 39.23 C14.55 39.2, 9.58 37.23, 6.55 34.54 C3.52 31.85, 0.84 27.03, 0.29 23.09 C-0.26 19.16, 1.46 14.89, 3.25 10.92 C5.04 6.96, 6.08 -0.04, 11.01 -0.71 C15.94 -1.38, 28.44 3.93, 32.82 6.92 C37.2 9.92, 37.46 17.05, 37.3 17.27 M17.06 0.95 C21.16 1.04, 28.23 2.54, 31.44 4.74 C34.65 6.95, 35.07 9.92, 36.34 14.17 C37.6 18.42, 40.22 26.07, 39.03 30.26 C37.84 34.46, 33.74 37.77, 29.22 39.34 C24.7 40.91, 16.36 41.01, 11.92 39.67 C7.48 38.34, 5 35.24, 2.58 31.31 C0.16 27.39, -2.87 20.02, -2.61 16.11 C-2.34 12.2, 1.28 10.66, 4.19 7.86 C7.11 5.05, 13.03 0.91, 14.89 -0.71 C16.74 -2.33, 15.09 -1.84, 15.3 -1.86" stroke="none" stroke-width="0" fill="#fa5252"></path><path d="M26.2 2.72 C29.43 4.16, 31.15 7.52, 33.49 10.39 C35.83 13.25, 40.61 15.93, 40.24 19.9 C39.88 23.86, 34.71 30.98, 31.29 34.16 C27.88 37.34, 23.37 38.72, 19.77 38.99 C16.17 39.26, 12.79 38.14, 9.72 35.78 C6.64 33.42, 2.93 29.02, 1.33 24.82 C-0.28 20.61, -1.54 14.47, 0.06 10.58 C1.67 6.68, 5.73 2.16, 10.94 1.47 C16.16 0.78, 27.16 4.17, 31.37 6.44 C35.58 8.71, 36 15.2, 36.21 15.1 M12.54 2.7 C16.03 1.51, 20.75 1.41, 24.63 3.23 C28.51 5.05, 33.39 10.07, 35.8 13.64 C38.21 17.21, 40.32 21.12, 39.11 24.64 C37.9 28.16, 31.66 32.04, 28.54 34.77 C25.41 37.49, 24 40.96, 20.37 41 C16.75 41.03, 10.48 38.22, 6.79 34.97 C3.1 31.72, -1.63 26.46, -1.75 21.5 C-1.88 16.54, 3.37 8.84, 6.05 5.21 C8.73 1.58, 13.18 0.6, 14.35 -0.3 C15.52 -1.2, 12.71 -1.09, 13.08 -0.19" stroke="#000000" stroke-width="2" fill="none"></path></g><g stroke-linecap="round" transform="translate(336.19989013671875 442.80006408691406) rotate(0 19.20001220703125 19.20001220703125)"><path d="M14.74 1.22 C18.12 0.77, 24.57 1.64, 28.26 3.71 C31.94 5.78, 35.43 9.81, 36.88 13.62 C38.33 17.43, 38.26 22.64, 36.96 26.56 C35.67 30.48, 32.94 35.58, 29.11 37.15 C25.28 38.73, 18.46 37.2, 13.96 36.01 C9.47 34.82, 4.59 33.21, 2.14 30.01 C-0.3 26.81, -0.94 20.9, -0.71 16.81 C-0.48 12.73, -1.98 7.48, 3.51 5.52 C8.99 3.55, 26.74 2.55, 32.2 5.01 C37.65 7.46, 36.33 19.85, 36.24 20.23 M28.75 4.04 C33.08 5.73, 37 9.15, 38.2 12.64 C39.4 16.13, 37.26 21.18, 35.96 24.99 C34.67 28.81, 33.75 33.48, 30.43 35.52 C27.11 37.56, 20.28 37.16, 16.03 37.24 C11.77 37.32, 8.01 38.67, 4.89 36.02 C1.77 33.36, -1.92 26.16, -2.68 21.31 C-3.45 16.46, -2.04 10.75, 0.3 6.91 C2.63 3.06, 6.68 -0.84, 11.32 -1.76 C15.95 -2.68, 25.64 0.97, 28.1 1.38 C30.56 1.79, 26.45 0.17, 26.08 0.7" stroke="none" stroke-width="0" fill="#fab005"></path><path d="M33.37 8.77 C35.48 12.08, 37.4 16.76, 37.69 20.87 C37.97 24.98, 37.65 30.34, 35.08 33.42 C32.52 36.49, 26.99 39.03, 22.28 39.31 C17.56 39.6, 10.46 37.6, 6.8 35.15 C3.13 32.7, 1.49 28.48, 0.3 24.62 C-0.88 20.76, -1.8 15.78, -0.32 12.01 C1.15 8.24, 5.03 4.17, 9.14 1.99 C13.25 -0.2, 19.87 -2.37, 24.31 -1.1 C28.76 0.18, 33.54 7.35, 35.81 9.64 C38.09 11.93, 37.93 12.65, 37.96 12.64 M29.34 2.57 C32.79 3.69, 33.39 7.42, 35.24 11.58 C37.08 15.74, 41.15 23.22, 40.41 27.54 C39.67 31.87, 35.03 35.65, 30.79 37.54 C26.55 39.44, 18.83 40.27, 14.97 38.9 C11.12 37.52, 10.16 32.58, 7.68 29.29 C5.2 26.01, 0.96 23.01, 0.12 19.2 C-0.72 15.38, -0.14 9.07, 2.64 6.39 C5.41 3.71, 12.66 3.65, 16.77 3.11 C20.89 2.57, 25.31 3.53, 27.32 3.13 C29.32 2.73, 29.25 0.53, 28.79 0.71" stroke="#000000" stroke-width="2" fill="none"></path></g><g stroke-linecap="round" transform="translate(148.5999755859375 442.0000762939453) rotate(0 19.20001220703125 19.20001220703125)"><path d="M26.72 1.44 C30.34 3.19, 34.95 6.84, 36.48 10.73 C38.01 14.61, 37.19 20.62, 35.91 24.76 C34.62 28.9, 32.37 33.42, 28.76 35.56 C25.16 37.71, 18.21 38.19, 14.28 37.65 C10.35 37.11, 7.43 35.54, 5.18 32.32 C2.92 29.1, 0.91 22.29, 0.75 18.35 C0.59 14.4, 1.4 11.42, 4.2 8.65 C7 5.88, 11.71 1.18, 17.55 1.74 C23.39 2.31, 35.93 7.88, 39.26 12.05 C42.6 16.22, 37.98 26.74, 37.53 26.76 M9.09 0.64 C12.47 -1.84, 18.5 -2.29, 22.6 -1.36 C26.71 -0.42, 30.8 2.37, 33.71 6.25 C36.63 10.13, 40.38 17.54, 40.11 21.92 C39.84 26.29, 35.38 29.49, 32.07 32.48 C28.76 35.46, 24.34 39.69, 20.25 39.81 C16.16 39.92, 10.64 35.46, 7.52 33.17 C4.39 30.87, 2.24 30.39, 1.48 26.06 C0.71 21.74, 0.92 10.91, 2.93 7.21 C4.93 3.52, 11.61 4.81, 13.52 3.91 C15.42 3, 14.36 1.64, 14.35 1.79" stroke="none" stroke-width="0" fill="#228be6"></path><path d="M16.06 0.39 C19.81 -0.1, 25.41 1.51, 29.16 3.62 C32.92 5.73, 37.48 9.17, 38.6 13.03 C39.73 16.89, 37.72 23.01, 35.91 26.78 C34.09 30.55, 31.14 34.12, 27.69 35.63 C24.24 37.13, 19.13 36.88, 15.21 35.83 C11.3 34.79, 6.43 32.3, 4.19 29.34 C1.96 26.37, 1.46 22.22, 1.8 18.04 C2.14 13.86, 3.24 6.92, 6.21 4.24 C9.18 1.55, 16.77 2.41, 19.61 1.92 C22.45 1.43, 23 1.51, 23.25 1.31 M23.43 -0.5 C26.66 0.4, 30.35 2.43, 33.15 6.28 C35.95 10.14, 40.29 18.17, 40.22 22.65 C40.14 27.13, 35.63 30.86, 32.72 33.16 C29.8 35.47, 27.12 36.05, 22.73 36.48 C18.34 36.91, 10.08 37.19, 6.37 35.75 C2.67 34.31, 1.39 31.38, 0.5 27.82 C-0.39 24.27, -0.29 19.11, 1.02 14.41 C2.34 9.7, 4.41 2.19, 8.39 -0.4 C12.36 -2.99, 22.18 -1.21, 24.86 -1.14 C27.54 -1.08, 24.71 -0.58, 24.49 -0.02" stroke="#000000" stroke-width="2" fill="none"></path></g><g stroke-linecap="round" transform="translate(522.800048828125 459.60011291503906) rotate(0 177.5999755859375 105.19998168945312)"><path d="M-1.03 0.26 L356.29 -2 L356.07 209.39 L0.11 210.59" stroke="none" stroke-width="0" fill="#15aabf"></path><path d="M1.24 0.58 C98.99 -0.49, 197.56 -2.69, 356.44 -0.39 M-0.43 0 C91.77 0.18, 184.18 0.65, 354.85 0.6 M356.8 -1.66 C352.41 59.35, 353.91 118.57, 355.07 211.97 M354.46 0.14 C356.87 56.12, 356.89 114.29, 354.87 209.71 M356.35 210.4 C228.99 211.93, 105.3 211.25, -0.09 210.79 M354.81 209.82 C247.49 209.59, 139.76 209.68, 0.52 210.89 M0.43 210.14 C-0.44 125.97, -0.56 43.55, -1.72 -0.42 M-0.59 210.07 C-2.14 128.97, -0.86 47.19, -0.35 -0.74" stroke="#000000" stroke-width="2" fill="none"></path></g><g stroke-linecap="round" transform="translate(822.2000122070312 579.0001068115234) rotate(0 19.20001220703125 19.20001220703125)"><path d="M15.35 -0.42 C18.95 -1.43, 23.58 1.44, 27.45 3.66 C31.32 5.87, 36.58 9.61, 38.57 12.86 C40.56 16.11, 40.62 19.53, 39.4 23.17 C38.17 26.8, 34.79 32.43, 31.23 34.65 C27.66 36.87, 22.46 37.02, 18.02 36.49 C13.58 35.95, 7.31 34.41, 4.59 31.43 C1.86 28.44, 1.89 22.76, 1.65 18.56 C1.42 14.35, 0.87 9.47, 3.19 6.2 C5.5 2.93, 13.13 -0.3, 15.55 -1.06 C17.98 -1.81, 17.45 1.14, 17.74 1.65 M13.15 -0.15 C16.89 -1.4, 23.28 2.97, 27.21 4.16 C31.14 5.35, 34.66 3.43, 36.72 6.98 C38.78 10.53, 40.1 20.91, 39.56 25.45 C39.01 29.99, 36.77 31.77, 33.44 34.2 C30.1 36.63, 24.41 39.7, 19.53 40 C14.66 40.31, 7.55 39.27, 4.18 36.04 C0.81 32.81, -0.82 25.3, -0.67 20.63 C-0.52 15.96, 3.05 11.18, 5.06 8.01 C7.07 4.85, 10.07 2.44, 11.4 1.64 C12.73 0.85, 12.36 2.96, 13.02 3.24" stroke="none" stroke-width="0" fill="#fd7e14"></path><path d="M9.77 2.5 C12.98 0.64, 19.35 0.64, 23.32 1.07 C27.3 1.5, 31.12 1.88, 33.61 5.07 C36.1 8.26, 37.82 15.78, 38.26 20.2 C38.7 24.63, 38.48 28.87, 36.26 31.62 C34.03 34.37, 29.13 35.66, 24.9 36.71 C20.66 37.77, 15.06 39.65, 10.83 37.97 C6.6 36.3, 1.28 30.9, -0.48 26.68 C-2.25 22.46, -2.89 16.89, 0.24 12.65 C3.36 8.41, 13.14 2.87, 18.24 1.22 C23.35 -0.42, 30.62 2.55, 30.87 2.77 M8.19 6.02 C11.67 4.02, 17.1 3.09, 20.93 2.65 C24.76 2.21, 28.03 1.1, 31.19 3.39 C34.35 5.69, 39.11 12.03, 39.89 16.42 C40.67 20.82, 38.48 26.21, 35.89 29.77 C33.29 33.32, 28.47 36.45, 24.32 37.77 C20.17 39.08, 14.52 39.79, 10.99 37.65 C7.46 35.5, 5.35 29.38, 3.15 24.9 C0.95 20.43, -2.83 14.6, -2.19 10.81 C-1.55 7.01, 5.6 3.68, 6.99 2.12 C8.38 0.56, 5.91 1.04, 6.13 1.45" stroke="#000000" stroke-width="2" fill="none"></path></g><g stroke-linecap="round" transform="translate(629.2000122070312 550.4001007080078) rotate(0 19.20001220703125 19.20001220703125)"><path d="M33.46 7.8 C36.08 10.3, 36.71 14.28, 36.6 18.52 C36.48 22.75, 35.46 30.04, 32.78 33.22 C30.1 36.4, 24.67 37.44, 20.51 37.61 C16.36 37.79, 11.28 36.55, 7.85 34.26 C4.42 31.96, 0.85 27.46, -0.05 23.85 C-0.95 20.23, 0.83 16.25, 2.45 12.59 C4.07 8.93, 6.28 3.76, 9.68 1.87 C13.09 -0.01, 18.42 -2.98, 22.86 1.25 C27.3 5.49, 37.07 20.83, 36.32 27.26 C35.58 33.7, 18.61 40.21, 18.39 39.86 M28.57 3.18 C31.96 4.1, 36.89 6.43, 38.75 10 C40.61 13.57, 41.61 19.94, 39.74 24.6 C37.88 29.26, 31.69 35.97, 27.56 37.96 C23.42 39.95, 18.63 37.58, 14.92 36.53 C11.22 35.47, 7.48 34.19, 5.3 31.64 C3.13 29.09, 1.95 24.89, 1.86 21.23 C1.77 17.57, 2.42 12.83, 4.79 9.65 C7.15 6.47, 12.15 2.87, 16.06 2.15 C19.97 1.43, 25.93 5.47, 28.24 5.34 C30.55 5.2, 29.53 1.89, 29.92 1.33" stroke="none" stroke-width="0" fill="#e64980"></path><path d="M18.87 1.5 C22.23 0.81, 25.99 2.35, 29.44 4.23 C32.9 6.11, 38.43 8.97, 39.59 12.79 C40.75 16.62, 38.7 23.31, 36.43 27.18 C34.15 31.05, 29.55 33.99, 25.97 36.02 C22.38 38.05, 18.79 40.28, 14.92 39.35 C11.05 38.42, 5.08 34.35, 2.73 30.43 C0.37 26.51, 0.53 19.97, 0.79 15.81 C1.06 11.65, 0.58 7.71, 4.33 5.47 C8.08 3.23, 19.3 2.54, 23.28 2.38 C27.25 2.22, 28.42 4.8, 28.18 4.51 M27.72 3.07 C31.5 4.61, 35.24 8.73, 37.05 12.73 C38.86 16.73, 40.25 23.73, 38.59 27.06 C36.93 30.4, 31.3 31.14, 27.07 32.72 C22.83 34.3, 17.09 37.16, 13.18 36.55 C9.26 35.94, 6.13 32.14, 3.59 29.07 C1.05 26, -2.15 21.86, -2.07 18.14 C-1.98 14.42, 1.58 9.85, 4.1 6.77 C6.61 3.68, 8.8 0.17, 13.03 -0.39 C17.25 -0.94, 26.72 3.18, 29.47 3.46 C32.21 3.74, 29.86 0.77, 29.5 1.3" stroke="#000000" stroke-width="2" fill="none"></path></g><g stroke-linecap="round" transform="translate(709.0000610351562 510.40003967285156) rotate(0 19.20001220703125 19.20001220703125)"><path d="M1.42 7.2 C3.41 3.9, 8.68 1.85, 12.89 0.63 C17.1 -0.58, 22.85 -1.88, 26.69 -0.11 C30.52 1.66, 33.94 7.17, 35.91 11.26 C37.89 15.36, 39.59 20.59, 38.54 24.46 C37.49 28.32, 32.75 31.83, 29.61 34.44 C26.47 37.06, 23.39 40.1, 19.69 40.17 C15.99 40.24, 10.88 37.78, 7.39 34.86 C3.9 31.94, -0.61 27.1, -1.25 22.67 C-1.9 18.25, 2.74 11.13, 3.52 8.32 C4.29 5.52, 3.23 5.55, 3.39 5.87 M1.11 6.53 C2.79 3.91, 6.99 3.38, 11.35 2.58 C15.7 1.79, 23.22 0.3, 27.25 1.76 C31.29 3.21, 33.57 7.6, 35.56 11.33 C37.55 15.07, 40.27 20.07, 39.2 24.17 C38.13 28.26, 32.26 33.43, 29.15 35.91 C26.03 38.38, 24.91 39.28, 20.51 39.03 C16.11 38.77, 5.72 37.03, 2.73 34.39 C-0.26 31.76, 2.47 27.45, 2.59 23.22 C2.7 19, 2.97 11.89, 3.43 9.04 C3.88 6.2, 4.66 6.24, 5.32 6.15" stroke="none" stroke-width="0" fill="#fa5252"></path><path d="M3.7 8.51 C5.51 5.37, 9.29 0.96, 13.15 0 C17.02 -0.95, 23.14 0.62, 26.9 2.77 C30.65 4.93, 34.2 9.13, 35.68 12.94 C37.16 16.75, 36.87 21.64, 35.8 25.63 C34.72 29.63, 32.21 34.76, 29.23 36.92 C26.25 39.07, 22.09 39.35, 17.91 38.57 C13.73 37.8, 6.81 35.02, 4.15 32.28 C1.48 29.53, 0.82 26.87, 1.95 22.12 C3.07 17.37, 8.38 7.31, 10.88 3.77 C13.38 0.22, 16.62 1.14, 16.92 0.85 M18.61 1.84 C23.12 1.83, 31.21 1.64, 34.64 4.24 C38.08 6.85, 39.37 13.71, 39.22 17.47 C39.07 21.23, 36.04 23.54, 33.75 26.8 C31.47 30.06, 28.67 35.41, 25.52 37.05 C22.38 38.68, 18.34 38.38, 14.88 36.59 C11.43 34.81, 7.64 29.63, 4.8 26.33 C1.96 23.03, -2.33 20.28, -2.17 16.79 C-2.01 13.29, 2.22 8.04, 5.75 5.35 C9.27 2.65, 16.65 1.4, 18.98 0.64 C21.3 -0.13, 19.37 0.27, 19.71 0.74" stroke="#000000" stroke-width="2" fill="none"></path></g><g stroke-linecap="round" transform="translate(716.5999145507812 571.6001129150391) rotate(0 19.20001220703125 19.20001220703125)"><path d="M27.9 3.13 C32.03 4.66, 36.03 8.23, 37.49 11.76 C38.94 15.3, 37.78 20.44, 36.65 24.33 C35.51 28.21, 33.96 32.87, 30.68 35.08 C27.39 37.3, 21.14 37.6, 16.93 37.62 C12.72 37.65, 8.53 37.89, 5.43 35.21 C2.32 32.54, -1 26.15, -1.72 21.56 C-2.43 16.97, -1.13 11.4, 1.14 7.67 C3.41 3.94, 5.78 -1.42, 11.9 -0.84 C18.03 -0.26, 33.68 6.9, 37.87 11.14 C42.06 15.38, 37.49 24.29, 37.03 24.58 M22.85 0.7 C26.47 0.7, 26.18 3.51, 29.16 6.54 C32.14 9.57, 39.69 14.92, 40.73 18.87 C41.78 22.82, 37.79 27.52, 35.44 30.23 C33.09 32.94, 30.15 34.17, 26.62 35.14 C23.1 36.11, 18.61 36.85, 14.29 36.06 C9.97 35.27, 3.21 34.15, 0.69 30.38 C-1.82 26.61, -2.02 17.87, -0.78 13.45 C0.45 9.04, 4.33 5.82, 8.1 3.87 C11.87 1.92, 19.8 1.9, 21.86 1.76 C23.92 1.61, 20.7 2.64, 20.46 2.97" stroke="none" stroke-width="0" fill="#40c057"></path><path d="M28.89 2.42 C32.38 3.69, 34.03 7.6, 35.79 11.64 C37.55 15.68, 40.35 22.46, 39.45 26.65 C38.55 30.85, 34.37 34.8, 30.39 36.81 C26.42 38.81, 19.51 39.77, 15.58 38.68 C11.65 37.59, 9.41 33.47, 6.83 30.28 C4.24 27.08, 0.72 23.43, 0.09 19.51 C-0.54 15.6, 0.38 9.67, 3.06 6.79 C5.74 3.91, 11.73 2.69, 16.16 2.23 C20.6 1.78, 26.94 3.76, 29.66 4.06 C32.37 4.36, 32.83 3.84, 32.44 4.03 M19.19 -1.76 C22.13 -2.19, 24.12 1.78, 26.91 4.52 C29.69 7.25, 34.37 10.87, 35.91 14.64 C37.44 18.41, 37.43 23.49, 36.11 27.14 C34.79 30.79, 31.29 34.5, 28 36.56 C24.7 38.62, 20.67 40.94, 16.34 39.5 C12.01 38.07, 5.24 31.73, 2.02 27.94 C-1.19 24.16, -3.26 20.86, -2.94 16.8 C-2.62 12.74, 1.02 6.57, 3.95 3.58 C6.87 0.59, 12.5 -0.61, 14.59 -1.16 C16.68 -1.72, 16.53 -0.17, 16.49 0.25" stroke="#000000" stroke-width="2" fill="none"></path></g><g stroke-linecap="round" transform="translate(572.3999633789062 615.6000518798828) rotate(0 19.20001220703125 19.20001220703125)"><path d="M35.33 5.1 C38.03 7.55, 39.76 14.15, 39.72 18.2 C39.69 22.24, 38.01 26.23, 35.1 29.35 C32.19 32.47, 26.17 36.14, 22.26 36.94 C18.35 37.74, 15.22 36.2, 11.65 34.14 C8.08 32.08, 2.86 28.26, 0.83 24.56 C-1.2 20.86, -1.62 15.35, -0.54 11.94 C0.55 8.52, 3.56 6.05, 7.33 4.09 C11.09 2.14, 17.19 -1.27, 22.07 0.22 C26.96 1.71, 33.83 9.72, 36.64 13.04 C39.46 16.35, 39.27 19.93, 38.95 20.11 M36.36 10.56 C39.08 14.1, 41.01 16.79, 40.56 20.74 C40.1 24.7, 37.29 30.94, 33.64 34.27 C29.99 37.6, 23.04 40.84, 18.67 40.72 C14.3 40.59, 10.04 36.46, 7.42 33.52 C4.81 30.59, 4.19 26.71, 2.97 23.09 C1.75 19.48, -1.2 15.08, 0.1 11.85 C1.41 8.62, 6.54 5.52, 10.82 3.73 C15.09 1.93, 21.32 0.29, 25.75 1.09 C30.19 1.9, 35.64 7.39, 37.4 8.54 C39.17 9.69, 36.53 7.61, 36.33 7.97" stroke="none" stroke-width="0" fill="#fa5252"></path><path d="M27.56 3.88 C31.42 5.7, 36.62 9, 38.55 12.24 C40.47 15.48, 40.48 19.23, 39.11 23.34 C37.74 27.44, 34.31 34.36, 30.32 36.86 C26.33 39.37, 19.43 39.22, 15.16 38.35 C10.89 37.48, 7.37 34.42, 4.71 31.65 C2.06 28.87, -0.89 25.73, -0.76 21.7 C-0.64 17.66, 2.78 10.84, 5.46 7.43 C8.14 4.01, 10.15 0.52, 15.29 1.22 C20.43 1.92, 32.85 7.19, 36.3 11.62 C39.76 16.05, 35.82 27.46, 36.03 27.79 M35.07 4.84 C38.38 7.89, 39.67 13.43, 39.64 17.79 C39.61 22.16, 37.59 27.43, 34.89 31.01 C32.19 34.59, 27.31 38.74, 23.43 39.26 C19.56 39.78, 15.82 36.79, 11.64 34.14 C7.47 31.48, 0.43 27.01, -1.62 23.34 C-3.66 19.66, -1.97 15.85, -0.63 12.09 C0.72 8.33, 2.9 2.81, 6.44 0.79 C9.99 -1.22, 16.18 -0.53, 20.65 -0.02 C25.12 0.49, 31.26 2.59, 33.24 3.86 C35.22 5.13, 32.55 6.76, 32.53 7.59" stroke="#000000" stroke-width="2" fill="none"></path></g><g stroke-linecap="round" transform="translate(800.8887600368923 514.3112131754558) rotate(0 19.20001220703125 19.20001220703125)"><path d="M17.3 0.65 C21.33 0.53, 27.85 2.1, 31.1 4.37 C34.36 6.64, 35.65 10.11, 36.83 14.27 C38.01 18.44, 39.57 25.33, 38.18 29.36 C36.8 33.39, 32.77 36.86, 28.51 38.46 C24.24 40.07, 16.89 40.27, 12.61 39.01 C8.33 37.74, 5.21 34.63, 2.83 30.88 C0.44 27.12, -2.02 20.47, -1.7 16.5 C-1.39 12.53, 1.03 9.84, 4.73 7.05 C8.43 4.26, 17.1 0.87, 20.48 -0.24 C23.87 -1.34, 24.96 0.33, 25.03 0.42 M29.55 4.07 C33.08 6.19, 38.32 10.63, 39.27 14.74 C40.22 18.85, 36.83 24.94, 35.26 28.72 C33.68 32.51, 33.87 35.71, 29.81 37.45 C25.74 39.19, 14.87 40.06, 10.86 39.16 C6.86 38.27, 7.54 35.65, 5.75 32.1 C3.97 28.56, -0.15 22.74, 0.14 17.88 C0.43 13.03, 4.15 6.11, 7.52 2.98 C10.88 -0.14, 16.74 -1.35, 20.32 -0.85 C23.91 -0.35, 27.58 5.44, 29.04 5.98 C30.5 6.52, 28.91 2.53, 29.08 2.38" stroke="none" stroke-width="0" fill="#be4bdb"></path><path d="M13.11 2.02 C16.67 0.81, 21.71 0.96, 25.53 2.76 C29.36 4.55, 33.88 9.17, 36.07 12.79 C38.26 16.42, 39.82 20.82, 38.65 24.49 C37.49 28.16, 32.29 32.22, 29.09 34.82 C25.88 37.43, 23.2 40.2, 19.42 40.11 C15.63 40.01, 9.82 37.37, 6.4 34.23 C2.97 31.09, -0.94 25.96, -1.14 21.28 C-1.34 16.61, 2.06 9.84, 5.2 6.2 C8.33 2.56, 15.18 0.52, 17.67 -0.57 C20.16 -1.65, 19.91 -1.05, 20.13 -0.34 M13.29 -2.08 C16.94 -3.39, 24 -0.48, 28.41 1.77 C32.82 4.02, 37.83 7.88, 39.77 11.43 C41.7 14.97, 42.18 18.8, 40.04 23.05 C37.9 27.3, 31.09 34.18, 26.93 36.92 C22.78 39.66, 18.89 40.17, 15.1 39.48 C11.31 38.79, 6.73 35.98, 4.2 32.8 C1.67 29.61, -0.25 24.34, -0.08 20.38 C0.09 16.43, 3.03 12.88, 5.23 9.06 C7.42 5.24, 11.92 -0.88, 13.08 -2.52 C14.24 -4.16, 11.96 -1.13, 12.18 -0.77" stroke="#000000" stroke-width="2" fill="none"></path></g><g stroke-linecap="round" transform="translate(603.5999755859375 99.60008239746094) rotate(0 214.800048828125 110.80000305175781)"><path d="M-0.06 -1.87 L430.4 1.6 L430.37 221.71 L-0.84 222.73" stroke="none" stroke-width="0" fill="#7950f2"></path><path d="M-0.79 0.59 C145.21 0.83, 289.96 2.5, 429.73 0.57 M-0.14 -0.06 C157.43 -1.13, 315.68 -1.25, 429.98 -0.46 M430.67 -0.84 C426.94 65.7, 428.42 133.03, 431.19 219.98 M429.7 0.02 C429.55 71.43, 430.39 144.47, 429.76 220.98 M430.13 222.34 C269.43 220.63, 107.2 222.22, 1 221.55 M429.89 222.07 C321.44 223.76, 213.43 223.6, 0.29 221.82 M-0.05 223.29 C1.59 156.72, 1.52 95.28, 0.14 -1.2 M0.53 220.82 C2.17 145.2, 1.43 66.24, 0.61 -0.1" stroke="#000000" stroke-width="2" fill="none"></path></g><g stroke-linecap="round" transform="translate(933.9999389648438 247.60008239746094) rotate(0 19.20001220703125 19.20001220703125)"><path d="M36.35 6.91 C38.58 10.11, 39.68 18.19, 38.77 22.5 C37.85 26.82, 33.94 30.29, 30.86 32.79 C27.79 35.28, 24.22 36.91, 20.32 37.48 C16.42 38.04, 10.43 38.47, 7.45 36.19 C4.47 33.92, 3.27 27.87, 2.43 23.81 C1.6 19.75, 1.2 15.76, 2.44 11.82 C3.68 7.88, 6.2 2.05, 9.84 0.14 C13.49 -1.76, 19.33 -2.04, 24.32 0.37 C29.31 2.78, 37.27 11.17, 39.79 14.59 C42.32 18.02, 40.37 20.64, 39.46 20.93 M10.1 2.55 C13.2 0.71, 18.53 1.15, 22.74 1.53 C26.95 1.9, 33.25 2.35, 35.37 4.78 C37.48 7.21, 35.92 11.84, 35.42 16.1 C34.93 20.37, 34.97 27.04, 32.4 30.36 C29.83 33.68, 24 35.13, 20 36.02 C16 36.9, 11.58 37.79, 8.39 35.68 C5.21 33.56, 2.24 26.99, 0.91 23.33 C-0.43 19.66, -1.21 16.93, 0.38 13.67 C1.98 10.41, 9.19 5.6, 10.49 3.76 C11.8 1.93, 7.78 2.12, 8.2 2.66" stroke="none" stroke-width="0" fill="#4c6ef5"></path><path d="M26.8 0.27 C30.67 1.44, 33.95 6.8, 35.66 10.81 C37.38 14.81, 37.91 20.66, 37.09 24.29 C36.26 27.92, 33.98 30.35, 30.7 32.58 C27.43 34.82, 21.56 37.73, 17.42 37.7 C13.28 37.67, 8.51 34.79, 5.87 32.38 C3.24 29.98, 1.89 27.33, 1.63 23.28 C1.37 19.22, 2.24 11.42, 4.32 8.07 C6.4 4.72, 9.33 2.92, 14.09 3.17 C18.86 3.42, 28.62 7.3, 32.92 9.59 C37.23 11.88, 40.13 16.83, 39.95 16.89 M14.4 2.28 C18.1 -0.21, 23.91 -2.78, 27.46 -1.67 C31.01 -0.56, 33.96 5.34, 35.69 8.93 C37.42 12.51, 38.47 16.03, 37.85 19.86 C37.23 23.7, 35.11 28.65, 31.96 31.92 C28.81 35.2, 23.54 39.35, 18.94 39.53 C14.34 39.72, 7.7 35.71, 4.37 33.04 C1.03 30.38, -0.5 27.1, -1.07 23.52 C-1.65 19.94, -0.93 15.04, 0.92 11.55 C2.78 8.05, 8.19 3.79, 10.05 2.54 C11.91 1.28, 11.28 3.87, 12.07 4.01" stroke="#000000" stroke-width="2" fill="none"></path></g><g stroke-linecap="round" transform="translate(881.7912571119225 180.6261563508407) rotate(0 19.20001220703125 19.20001220703125)"><path d="M23.99 2 C28.21 2.61, 32.2 5.12, 34.4 7.98 C36.6 10.84, 36.93 15.63, 37.18 19.17 C37.43 22.71, 38.26 26.18, 35.91 29.21 C33.55 32.25, 27.51 36.39, 23.05 37.39 C18.59 38.4, 12.57 36.82, 9.16 35.25 C5.74 33.68, 3.97 31.54, 2.54 27.95 C1.11 24.37, -0.65 18.13, 0.57 13.74 C1.79 9.36, 4.14 2.03, 9.87 1.64 C15.6 1.25, 30.78 6.5, 34.95 11.4 C39.12 16.29, 34.97 30.65, 34.91 31.03 M6.12 5.06 C9.39 2.38, 15.08 0.57, 19.44 0.66 C23.8 0.74, 28.91 2.59, 32.25 5.56 C35.6 8.53, 39.35 14.96, 39.52 18.49 C39.7 22.02, 36.25 23.83, 33.29 26.75 C30.34 29.66, 25.57 34.75, 21.78 35.98 C17.99 37.22, 14.18 35.74, 10.55 34.17 C6.92 32.59, 1.7 29.79, -0.01 26.52 C-1.72 23.24, -0.57 18.41, 0.29 14.51 C1.15 10.6, 3.71 4.65, 5.13 3.09 C6.56 1.53, 8.03 5.01, 8.84 5.14" stroke="none" stroke-width="0" fill="#be4bdb"></path><path d="M9.32 2.43 C12.48 0.27, 18.34 0.74, 22.17 1.33 C26.01 1.91, 29.41 3.33, 32.33 5.94 C35.26 8.56, 39.03 13.07, 39.73 17.03 C40.43 20.98, 39.42 26.54, 36.53 29.69 C33.65 32.84, 26.87 35, 22.42 35.92 C17.98 36.85, 13.64 36.54, 9.89 35.24 C6.14 33.94, 1.35 31.4, -0.07 28.11 C-1.49 24.83, -0.82 19.86, 1.37 15.54 C3.56 11.21, 9.42 4.93, 13.07 2.15 C16.72 -0.64, 22.63 -1.54, 23.3 -1.17 M5.85 5.42 C9.45 2.73, 17.55 1.53, 22.03 1.64 C26.51 1.75, 30.52 3.74, 32.72 6.09 C34.92 8.43, 34.85 11.94, 35.24 15.69 C35.62 19.44, 37.08 24.91, 35.03 28.59 C32.98 32.27, 27.03 36.35, 22.95 37.77 C18.87 39.19, 13.76 39, 10.55 37.1 C7.34 35.21, 5.53 30.15, 3.69 26.39 C1.86 22.62, -1.2 18.44, -0.49 14.5 C0.23 10.56, 6.38 4.84, 7.99 2.76 C9.6 0.69, 8.92 1.67, 9.18 2.07" stroke="#000000" stroke-width="2" fill="none"></path></g><g stroke-linecap="round" transform="translate(816.8501368720752 251.0783379596213) rotate(0 19.20001220703125 19.20001220703125)"><path d="M6.26 3.5 C9.15 0.64, 16.01 -1.33, 20.3 -0.77 C24.59 -0.2, 28.72 3.9, 32.01 6.89 C35.31 9.87, 39.5 13.14, 40.09 17.15 C40.68 21.16, 38.43 27.77, 35.57 30.92 C32.71 34.08, 26.99 35.18, 22.94 36.07 C18.89 36.97, 14.48 37.83, 11.26 36.31 C8.05 34.79, 5.14 30.88, 3.66 26.97 C2.17 23.07, -1.17 16.97, 2.36 12.89 C5.89 8.81, 19.12 1.85, 24.83 2.48 C30.55 3.12, 36.59 16.52, 36.66 16.72 M20.12 -1.95 C23.46 -3.03, 25.36 -1.55, 28.08 1.14 C30.79 3.83, 35.49 10, 36.39 14.17 C37.28 18.34, 35.35 22.41, 33.46 26.18 C31.57 29.95, 28.45 35.35, 25.03 36.79 C21.61 38.24, 16.74 35.96, 12.93 34.87 C9.12 33.78, 4.13 33.12, 2.17 30.24 C0.22 27.37, 0.75 21.89, 1.21 17.61 C1.67 13.34, 1.59 7.08, 4.91 4.59 C8.22 2.11, 18.47 2.99, 21.11 2.73 C23.74 2.46, 21.48 2.83, 20.72 3.03" stroke="none" stroke-width="0" fill="#fd7e14"></path><path d="M10.4 3.56 C13.73 1.33, 19.79 -1.16, 23.58 -0.45 C27.38 0.26, 30.93 4.47, 33.2 7.82 C35.46 11.17, 37.07 15.33, 37.17 19.64 C37.27 23.94, 36.27 30.79, 33.79 33.63 C31.32 36.47, 26.36 36.17, 22.31 36.68 C18.26 37.18, 13.39 38.48, 9.49 36.64 C5.58 34.8, -0.2 30.19, -1.12 25.63 C-2.05 21.08, -0.81 13.02, 3.93 9.33 C8.67 5.64, 21.78 2.19, 27.31 3.49 C32.85 4.79, 36.78 16.84, 37.14 17.12 M26.26 0.64 C29.66 1.9, 33.91 4.02, 35.95 7.45 C37.99 10.87, 39.34 16.52, 38.48 21.19 C37.63 25.87, 34.57 32.77, 30.84 35.5 C27.1 38.24, 20.38 37.77, 16.07 37.6 C11.76 37.44, 7.89 36.83, 4.96 34.53 C2.02 32.24, -0.75 27.89, -1.54 23.86 C-2.32 19.84, -2.09 13.79, 0.25 10.39 C2.59 6.99, 7.92 4.87, 12.52 3.45 C17.11 2.03, 25.8 2.18, 27.83 1.87 C29.85 1.57, 24.52 0.94, 24.65 1.6" stroke="#000000" stroke-width="2" fill="none"></path></g><g stroke-linecap="round" transform="translate(794.2522105341372 175.96528492803156) rotate(0 19.20001220703125 19.20001220703125)"><path d="M2.35 7.79 C4.49 4.8, 10.96 3.47, 14.98 2.54 C18.99 1.62, 22.75 1.12, 26.43 2.27 C30.1 3.42, 35.42 5.86, 37.05 9.47 C38.68 13.08, 37.3 19.41, 36.18 23.92 C35.06 28.43, 33.42 33.83, 30.35 36.52 C27.28 39.21, 22.01 40.9, 17.74 40.05 C13.46 39.2, 7.46 34.69, 4.7 31.4 C1.93 28.11, -1.45 25.63, 1.14 20.3 C3.73 14.98, 14.49 1.31, 20.22 -0.56 C25.95 -2.44, 35.61 8.51, 35.51 9.06 M25.73 0.91 C29.4 2.67, 34.54 5.93, 36.12 9.84 C37.7 13.74, 36.46 20.04, 35.22 24.32 C33.98 28.59, 32.32 33.28, 28.69 35.46 C25.06 37.65, 17.29 37.87, 13.42 37.4 C9.55 36.94, 7.53 35.92, 5.48 32.66 C3.43 29.4, 1.35 21.71, 1.12 17.85 C0.89 13.99, 1.21 12.06, 4.1 9.5 C6.99 6.93, 13.92 3.96, 18.45 2.46 C22.99 0.95, 29.31 0.51, 31.32 0.45 C33.33 0.39, 30.87 1.92, 30.49 2.09" stroke="none" stroke-width="0" fill="#fab005"></path><path d="M8.36 0.63 C11.18 -1.56, 17.81 -2.09, 21.79 -0.84 C25.78 0.41, 29.38 4.49, 32.24 8.13 C35.11 11.77, 38.97 16.83, 38.97 21 C38.97 25.16, 34.66 30.57, 32.25 33.14 C29.85 35.71, 27.98 35.65, 24.52 36.42 C21.06 37.2, 15.61 39.77, 11.49 37.81 C7.36 35.84, 1.32 28.92, -0.22 24.62 C-1.76 20.32, -2.03 15.64, 2.24 11.99 C6.5 8.33, 19.55 2.75, 25.37 2.69 C31.19 2.63, 37.18 11.95, 37.16 11.63 M15.13 0.56 C18.8 0.07, 24.5 1.63, 28.48 3.58 C32.45 5.52, 37.79 8.43, 38.98 12.23 C40.17 16.02, 37.47 22.53, 35.64 26.33 C33.82 30.14, 31.35 33.62, 28.06 35.05 C24.77 36.49, 19.8 35.93, 15.9 34.93 C12 33.94, 6.88 31.81, 4.67 29.07 C2.46 26.33, 2.36 22.73, 2.64 18.5 C2.93 14.27, 3.85 6.28, 6.36 3.68 C8.88 1.08, 15.38 3.25, 17.75 2.91 C20.13 2.56, 20.21 2.07, 20.63 1.61" stroke="#000000" stroke-width="2" fill="none"></path></g><g stroke-linecap="round" transform="translate(938.2000122070312 121.20005798339844) rotate(0 19.20001220703125 19.20001220703125)"><path d="M14.37 -0.41 C17.77 -1.52, 23.05 1.62, 27.04 3.64 C31.03 5.66, 36.27 8.53, 38.31 11.72 C40.35 14.91, 40.51 18.65, 39.26 22.79 C38.01 26.93, 34.71 33.94, 30.79 36.54 C26.86 39.14, 20 39.15, 15.72 38.41 C11.45 37.66, 7.85 34.74, 5.11 32.05 C2.37 29.36, -0.72 26.29, -0.72 22.26 C-0.71 18.24, 1.1 11.43, 5.13 7.89 C9.17 4.35, 19.45 1.9, 23.5 1.01 C27.55 0.12, 29.56 2.38, 29.42 2.54 M32.81 5.33 C35.63 7.66, 39.64 14.55, 39.88 18.94 C40.12 23.34, 37.27 28.48, 34.26 31.69 C31.25 34.9, 26.08 37.41, 21.84 38.2 C17.6 38.98, 12.07 38.99, 8.81 36.38 C5.56 33.77, 3.98 27.19, 2.3 22.53 C0.61 17.88, -2.46 12.05, -1.32 8.44 C-0.17 4.83, 5.43 2.53, 9.18 0.87 C12.92 -0.79, 17.13 -2.63, 21.17 -1.5 C25.2 -0.36, 31.24 6.51, 33.4 7.69 C35.56 8.87, 34.28 5.19, 34.12 5.56" stroke="none" stroke-width="0" fill="#228be6"></path><path d="M30.69 5.35 C33.68 8.02, 37.5 12.86, 38.2 16.96 C38.9 21.05, 36.82 26.64, 34.89 29.91 C32.95 33.18, 30.36 35.13, 26.57 36.55 C22.78 37.97, 16.37 39.49, 12.17 38.45 C7.96 37.42, 3.44 34.4, 1.32 30.36 C-0.81 26.33, -1.26 18.72, -0.6 14.25 C0.05 9.77, 2.04 6.17, 5.22 3.53 C8.41 0.88, 12.75 -4.36, 18.5 -1.63 C24.24 1.1, 37.25 14.33, 39.7 19.91 C42.16 25.49, 33.5 31.62, 33.24 31.84 M2.83 4.59 C5.07 0.86, 13.57 -1.02, 18.14 -0.84 C22.72 -0.65, 26.81 3.17, 30.3 5.71 C33.79 8.25, 37.72 11.44, 39.1 14.41 C40.48 17.37, 40.43 20.01, 38.59 23.5 C36.74 26.99, 31.97 33.41, 28.03 35.36 C24.1 37.31, 18.9 36.25, 15 35.19 C11.09 34.12, 7.12 31.56, 4.6 28.97 C2.08 26.39, 0.23 23.58, -0.12 19.69 C-0.47 15.79, 1.86 7.58, 2.52 5.59 C3.19 3.6, 3.51 7.05, 3.86 7.74" stroke="#000000" stroke-width="2" fill="none"></path></g><g stroke-linecap="round" transform="translate(678.9043844471807 258.71313277534813) rotate(0 19.20001220703125 19.20001220703125)"><path d="M34.64 5.76 C37.11 8.54, 36.89 14.91, 36.71 19.53 C36.54 24.15, 36.01 30.12, 33.58 33.5 C31.15 36.88, 26.37 39.72, 22.15 39.81 C17.92 39.9, 11.56 36.59, 8.23 34.06 C4.9 31.52, 3.18 28.29, 2.14 24.61 C1.11 20.93, 0.7 15.67, 2.02 11.98 C3.35 8.28, 6.63 4.26, 10.1 2.46 C13.58 0.65, 17.98 -1.34, 22.86 1.15 C27.75 3.63, 37.85 12.81, 39.43 17.36 C41.01 21.9, 33.01 28.32, 32.34 28.43 M4.04 6.84 C6.22 3.75, 8.71 0.21, 12.93 -0.37 C17.15 -0.94, 25.16 1.55, 29.38 3.41 C33.6 5.27, 36.96 6.72, 38.23 10.81 C39.51 14.91, 38.12 23.47, 37.05 27.96 C35.99 32.45, 34.86 36.42, 31.83 37.78 C28.8 39.14, 23.04 37.23, 18.86 36.11 C14.68 34.99, 9.65 34.28, 6.73 31.07 C3.8 27.86, 1.92 21.12, 1.32 16.86 C0.71 12.61, 2.16 7.59, 3.1 5.53 C4.05 3.46, 6.66 4.43, 6.97 4.48" stroke="none" stroke-width="0" fill="#e64980"></path><path d="M9.56 4.77 C12.74 2.54, 15.85 1.83, 20.16 1.81 C24.46 1.79, 32.05 1.54, 35.4 4.65 C38.74 7.76, 40.65 16.26, 40.24 20.45 C39.83 24.65, 35.61 27.01, 32.96 29.81 C30.3 32.62, 28 35.92, 24.32 37.29 C20.63 38.66, 14.48 39.72, 10.85 38.04 C7.21 36.36, 3.98 31.64, 2.51 27.2 C1.03 22.76, 0.25 15.83, 1.98 11.38 C3.71 6.93, 10.33 2.63, 12.87 0.51 C15.41 -1.62, 17.03 -1.55, 17.22 -1.39 M17.59 -1.33 C21.48 -1.63, 28.27 -0.02, 32 2.26 C35.74 4.54, 39.06 8.18, 40 12.35 C40.94 16.51, 39.47 22.93, 37.65 27.26 C35.83 31.59, 33.04 36.88, 29.07 38.31 C25.11 39.74, 18.25 36.84, 13.87 35.85 C9.5 34.86, 4.67 35.38, 2.83 32.38 C0.99 29.38, 1.9 22.73, 2.84 17.87 C3.77 13.01, 5.74 5.77, 8.44 3.22 C11.14 0.67, 17.85 3.04, 19.02 2.58 C20.18 2.13, 15.68 0.82, 15.43 0.5" stroke="#000000" stroke-width="2" fill="none"></path></g><g stroke-linecap="round" transform="translate(681.2782698921535 172.67834140943444) rotate(0 19.20001220703125 19.20001220703125)"><path d="M13.08 1.25 C16.79 -0.67, 21.63 0.48, 25.1 1.39 C28.57 2.3, 31.67 3.47, 33.91 6.72 C36.15 9.97, 38.44 16.55, 38.53 20.87 C38.62 25.2, 37.18 29.98, 34.47 32.68 C31.77 35.38, 27 36.55, 22.29 37.07 C17.59 37.58, 10.05 37.85, 6.25 35.79 C2.46 33.74, 0.34 28.83, -0.48 24.74 C-1.29 20.65, -1.8 15.35, 1.35 11.26 C4.5 7.18, 14.23 1.7, 18.41 0.25 C22.6 -1.21, 26.64 2.59, 26.44 2.54 M0.53 6.51 C2.53 3.26, 8.1 1.81, 12.45 0.56 C16.79 -0.69, 22.72 -2.8, 26.59 -0.97 C30.46 0.86, 33.62 7.26, 35.67 11.56 C37.72 15.86, 39.97 21.04, 38.88 24.83 C37.79 28.63, 32.18 31.63, 29.12 34.34 C26.06 37.05, 24.04 40.85, 20.54 41.08 C17.03 41.31, 11.85 38.69, 8.1 35.74 C4.36 32.78, -1 27.65, -1.94 23.34 C-2.88 19.03, 2 12.51, 2.46 9.89 C2.92 7.28, 0.7 7.28, 0.82 7.64" stroke="none" stroke-width="0" fill="#868e96"></path><path d="M7.17 1.76 C10.79 -0.45, 17.71 0.27, 22.3 0.65 C26.89 1.03, 31.76 0.87, 34.7 4.03 C37.65 7.19, 40.22 14.91, 39.96 19.6 C39.71 24.29, 35.5 29.37, 33.18 32.17 C30.85 34.97, 29.9 35.47, 26.01 36.38 C22.11 37.3, 13.95 39.07, 9.79 37.64 C5.63 36.21, 2.27 31.57, 1.06 27.83 C-0.14 24.09, 0.03 19.61, 2.56 15.21 C5.08 10.81, 13.1 3.85, 16.2 1.43 C19.31 -1, 21.34 0.55, 21.19 0.66 M3.65 8.89 C5.3 5.82, 8.55 0.7, 12.35 -0.26 C16.15 -1.22, 22.66 0.83, 26.45 3.14 C30.24 5.46, 33.7 9.8, 35.11 13.63 C36.51 17.46, 35.92 22.08, 34.9 26.11 C33.87 30.13, 31.71 35.66, 28.96 37.76 C26.2 39.86, 22.59 39.65, 18.37 38.72 C14.14 37.8, 6.17 34.84, 3.59 32.22 C1.01 29.6, 2.67 26.72, 2.9 23.01 C3.13 19.3, 5.07 12.36, 4.97 9.96 C4.86 7.56, 1.78 9.3, 2.27 8.63" stroke="#000000" stroke-width="2" fill="none"></path></g><g transform="translate(46.79998779296875 42.40010070800781) rotate(0 99.5 21)"><text x="0" y="33" font-family="Helvetica, Segoe UI Emoji" font-size="36px" fill="#000000" text-anchor="start" style="white-space: pre;" direction="ltr">Cluster (1/n)</text></g><g transform="translate(105.20001220703125 275.10008239746094) rotate(0 30.5 21)"><text x="0" y="33" font-family="Helvetica, Segoe UI Emoji" font-size="36px" fill="#fff" text-anchor="start" style="white-space: pre;" direction="ltr">Silo</text></g><g transform="translate(623.9000244140625 117.00007629394531) rotate(0 30.5 21)"><text x="0" y="33" font-family="Helvetica, Segoe UI Emoji" font-size="36px" fill="#fff" text-anchor="start" style="white-space: pre;" direction="ltr">Silo</text></g><g transform="translate(546.0999755859375 480.20008850097656) rotate(0 30.5 21)"><text x="0" y="33" font-family="Helvetica, Segoe UI Emoji" font-size="36px" fill="#fff" text-anchor="start" style="white-space: pre;" direction="ltr">Silo</text></g><g transform="translate(651.5999755859375 387.9001007080078) rotate(0 53.5 21)"><text x="0" y="33" font-family="Helvetica, Segoe UI Emoji" font-size="36px" fill="#000" text-anchor="start" style="white-space: pre;" direction="ltr">Grains</text></g><g stroke-linecap="round"><g transform="translate(698 438.8001251220703) rotate(0 -18.4000244140625 48)"><path d="M0 0 C-6.13 16, -30.67 80, -36.8 96" stroke="#000" stroke-width="2.5" fill="none" stroke-dasharray="8 10"></path></g><g transform="translate(698 438.8001251220703) rotate(0 -18.4000244140625 48)"><path d="M-36.29 66 C-36.42 73.84, -36.56 81.68, -36.8 96" stroke="#000" stroke-width="2.5" fill="none"></path></g><g transform="translate(698 438.8001251220703) rotate(0 -18.4000244140625 48)"><path d="M-17.13 73.35 C-22.27 79.27, -27.41 85.18, -36.8 96" stroke="#000" stroke-width="2.5" fill="none"></path></g></g><g stroke-linecap="round"><g transform="translate(712.2501390723887 439.22001338350594) rotate(0 42.76627059283044 34.261222177997695)"><path d="M0 0 C14.26 11.42, 71.28 57.1, 85.53 68.52" stroke="#000" stroke-width="2.5" fill="none" stroke-dasharray="8 10"></path></g><g transform="translate(712.2501390723887 439.22001338350594) rotate(0 42.76627059283044 34.261222177997695)"><path d="M57.12 58.9 C66.67 62.14, 76.23 65.37, 85.53 68.52" stroke="#000" stroke-width="2.5" fill="none"></path></g><g transform="translate(712.2501390723887 439.22001338350594) rotate(0 42.76627059283044 34.261222177997695)"><path d="M69.95 42.89 C75.19 51.51, 80.43 60.13, 85.53 68.52" stroke="#000" stroke-width="2.5" fill="none"></path></g></g><g stroke-linecap="round"><g transform="translate(684.771899432443 438.5243718244027) rotate(0 -42.43478526239812 83.30434384553331)"><path d="M0 0 C-14.14 27.77, -70.72 138.84, -84.87 166.61" stroke="#000" stroke-width="2.5" fill="none" stroke-dasharray="8 10"></path></g><g transform="translate(684.771899432443 438.5243718244027) rotate(0 -42.43478526239812 83.30434384553331)"><path d="M-81.22 136.83 C-82.56 147.75, -83.9 158.67, -84.87 166.61" stroke="#000" stroke-width="2.5" fill="none"></path></g><g transform="translate(684.771899432443 438.5243718244027) rotate(0 -42.43478526239812 83.30434384553331)"><path d="M-62.93 146.15 C-70.98 153.65, -79.02 161.15, -84.87 166.61" stroke="#000" stroke-width="2.5" fill="none"></path></g></g><g stroke-linecap="round"><g transform="translate(698.8121810910557 439.7581543947847) rotate(0 6.892902648954532 28.600498692305564)"><path d="M0 0 C2.3 9.53, 11.49 47.67, 13.79 57.2" stroke="#000" stroke-width="2.5" fill="none" stroke-dasharray="8 10"></path></g><g transform="translate(698.8121810910557 439.7581543947847) rotate(0 6.892902648954532 28.600498692305564)"><path d="M-2.47 32.68 C1.84 39.18, 6.15 45.68, 13.79 57.2" stroke="#000" stroke-width="2.5" fill="none"></path></g><g transform="translate(698.8121810910557 439.7581543947847) rotate(0 6.892902648954532 28.600498692305564)"><path d="M17.09 27.97 C16.21 35.72, 15.34 43.47, 13.79 57.2" stroke="#000" stroke-width="2.5" fill="none"></path></g></g><g stroke-linecap="round"><g transform="translate(705.7960103831526 439.41324714992356) rotate(0 52.34781016474176 73.73912645422894)"><path d="M0 0 C17.45 24.58, 87.25 122.9, 104.7 147.48" stroke="#000" stroke-width="2.5" fill="none" stroke-dasharray="8 10"></path></g><g transform="translate(705.7960103831526 439.41324714992356) rotate(0 52.34781016474176 73.73912645422894)"><path d="M80.01 130.43 C87.96 135.92, 95.91 141.41, 104.7 147.48" stroke="#000" stroke-width="2.5" fill="none"></path></g><g transform="translate(705.7960103831526 439.41324714992356) rotate(0 52.34781016474176 73.73912645422894)"><path d="M96.74 118.55 C99.3 127.87, 101.87 137.19, 104.7 147.48" stroke="#000" stroke-width="2.5" fill="none"></path></g></g><g transform="translate(761.3588347245627 37.785237409066326) rotate(0 53.5 21)"><text x="0" y="33" font-family="Helvetica, Segoe UI Emoji" font-size="36px" fill="#000" text-anchor="start" style="white-space: pre;" direction="ltr">Grains</text></g><g stroke-linecap="round"><g transform="translate(827.2936597924972 90.48813595979101) rotate(0 49.21737007472825 16.695652837338656)"><path d="M0 0 C16.41 5.57, 82.03 27.83, 98.43 33.39" stroke="#000" stroke-width="2.5" fill="none" stroke-dasharray="8 10"></path></g><g transform="translate(827.2936597924972 90.48813595979101) rotate(0 49.21737007472825 16.695652837338656)"><path d="M68.44 34.05 C80.02 33.8, 91.6 33.54, 98.43 33.39" stroke="#000" stroke-width="2.5" fill="none"></path></g><g transform="translate(827.2936597924972 90.48813595979101) rotate(0 49.21737007472825 16.695652837338656)"><path d="M75.03 14.62 C84.07 21.87, 93.1 29.12, 98.43 33.39" stroke="#000" stroke-width="2.5" fill="none"></path></g></g><g stroke-linecap="round"><g transform="translate(790.0762260289102 86.66204767641801) rotate(0 -36.86955990998638 38.08695917544159)"><path d="M0 0 C-12.29 12.7, -61.45 63.48, -73.74 76.17" stroke="#000" stroke-width="2.5" fill="none" stroke-dasharray="8 10"></path></g><g transform="translate(790.0762260289102 86.66204767641801) rotate(0 -36.86955990998638 38.08695917544159)"><path d="M-61.5 48.78 C-64.99 56.58, -68.47 64.38, -73.74 76.17" stroke="#000" stroke-width="2.5" fill="none"></path></g><g transform="translate(790.0762260289102 86.66204767641801) rotate(0 -36.86955990998638 38.08695917544159)"><path d="M-46.76 63.06 C-54.44 66.79, -62.12 70.52, -73.74 76.17" stroke="#000" stroke-width="2.5" fill="none"></path></g></g><g stroke-linecap="round"><g transform="translate(818.9458018611112 89.79248113217551) rotate(0 32.00001592221474 41.04347892429516)"><path d="M0 0 C10.67 13.68, 53.33 68.41, 64 82.09" stroke="#000" stroke-width="2.5" fill="none" stroke-dasharray="8 10"></path></g><g transform="translate(818.9458018611112 89.79248113217551) rotate(0 32.00001592221474 41.04347892429516)"><path d="M38.57 66.16 C46.74 71.27, 54.9 76.39, 64 82.09" stroke="#000" stroke-width="2.5" fill="none"></path></g><g transform="translate(818.9458018611112 89.79248113217551) rotate(0 32.00001592221474 41.04347892429516)"><path d="M54.76 53.55 C57.72 62.71, 60.69 71.87, 64 82.09" stroke="#000" stroke-width="2.5" fill="none"></path></g></g><g stroke-linecap="round"><g transform="translate(807.8153776933125 90.48813595979101) rotate(0 2.7826193104618824 33.91304016113281)"><path d="M0 0 C0.93 11.3, 4.64 56.52, 5.57 67.83" stroke="#000" stroke-width="2.5" fill="none" stroke-dasharray="8 10"></path></g><g transform="translate(807.8153776933125 90.48813595979101) rotate(0 2.7826193104618824 33.91304016113281)"><path d="M-6.97 40.57 C-4.39 46.17, -1.82 51.76, 5.57 67.83" stroke="#000" stroke-width="2.5" fill="none"></path></g><g transform="translate(807.8153776933125 90.48813595979101) rotate(0 2.7826193104618824 33.91304016113281)"><path d="M13.49 38.89 C11.86 44.83, 10.23 50.77, 5.57 67.83" stroke="#000" stroke-width="2.5" fill="none"></path></g></g><g stroke-linecap="round"><g transform="translate(800.858855954182 89.79248113217551) rotate(0 -38.78261400305712 80.86956190026325)"><path d="M0 0 C-12.93 26.96, -64.64 134.78, -77.57 161.74" stroke="#000" stroke-width="2.5" fill="none" stroke-dasharray="8 10"></path></g><g transform="translate(800.858855954182 89.79248113217551) rotate(0 -38.78261400305712 80.86956190026325)"><path d="M-74.63 131.88 C-75.63 142.12, -76.64 152.35, -77.57 161.74" stroke="#000" stroke-width="2.5" fill="none"></path></g><g transform="translate(800.858855954182 89.79248113217551) rotate(0 -38.78261400305712 80.86956190026325)"><path d="M-56.12 140.76 C-63.47 147.95, -70.82 155.14, -77.57 161.74" stroke="#000" stroke-width="2.5" fill="none"></path></g></g><g transform="translate(185.48532618958131 195.4570760786163) rotate(0 53.5 21)"><text x="0" y="33" font-family="Helvetica, Segoe UI Emoji" font-size="36px" fill="#000" text-anchor="start" style="white-space: pre;" direction="ltr">Grains</text></g><g stroke-linecap="round"><g transform="translate(271.8822625501472 247.55357694381644) rotate(0 24.421033357319118 38.105267976459686)"><path d="M0 0 C8.14 12.7, 40.7 63.51, 48.84 76.21" stroke="#000" stroke-width="2.5" fill="none" stroke-dasharray="8 10"></path></g><g transform="translate(271.8822625501472 247.55357694381644) rotate(0 24.421033357319118 38.105267976459686)"><path d="M24.99 58.01 C32.42 63.68, 39.85 69.35, 48.84 76.21" stroke="#000" stroke-width="2.5" fill="none"></path></g><g transform="translate(271.8822625501472 247.55357694381644) rotate(0 24.421033357319118 38.105267976459686)"><path d="M42.27 46.94 C44.32 56.06, 46.36 65.17, 48.84 76.21" stroke="#000" stroke-width="2.5" fill="none"></path></g></g><g stroke-linecap="round"><g transform="translate(260.88808551821194 250.50093251536248) rotate(0 36.63159822162828 92.63158697831005)"><path d="M0 0 C12.21 30.88, 61.05 154.39, 73.26 185.26" stroke="#000" stroke-width="2.5" fill="none" stroke-dasharray="8 10"></path></g><g transform="translate(260.88808551821194 250.50093251536248) rotate(0 36.63159822162828 92.63158697831005)"><path d="M53.35 162.82 C61.22 171.69, 69.09 180.56, 73.26 185.26" stroke="#000" stroke-width="2.5" fill="none"></path></g><g transform="translate(260.88808551821194 250.50093251536248) rotate(0 36.63159822162828 92.63158697831005)"><path d="M72.44 155.27 C72.76 167.13, 73.09 178.98, 73.26 185.26" stroke="#000" stroke-width="2.5" fill="none"></path></g></g><g stroke-linecap="round"><g transform="translate(253.30912530028422 251.343040990897) rotate(0 5.05265085320724 64.00000321237664)"><path d="M0 0 C1.68 21.33, 8.42 106.67, 10.11 128" stroke="#000" stroke-width="2.5" fill="none" stroke-dasharray="8 10"></path></g><g transform="translate(253.30912530028422 251.343040990897) rotate(0 5.05265085320724 64.00000321237664)"><path d="M-2.34 100.7 C2.5 111.32, 7.34 121.93, 10.11 128" stroke="#000" stroke-width="2.5" fill="none"></path></g><g transform="translate(253.30912530028422 251.343040990897) rotate(0 5.05265085320724 64.00000321237664)"><path d="M18.12 99.09 C15 110.33, 11.89 121.57, 10.11 128" stroke="#000" stroke-width="2.5" fill="none"></path></g></g><g stroke-linecap="round"><g transform="translate(236.8880983677186 250.07988630853686) rotate(0 -10.803047982428268 52.58481204967859)"><path d="M0 0 C-3.6 17.53, -18.01 87.64, -21.61 105.17" stroke="#000" stroke-width="2.5" fill="none" stroke-dasharray="8 10"></path></g><g transform="translate(236.8880983677186 250.07988630853686) rotate(0 -10.803047982428268 52.58481204967859)"><path d="M-25.98 75.49 C-24.88 82.99, -23.77 90.48, -21.61 105.17" stroke="#000" stroke-width="2.5" fill="none"></path></g><g transform="translate(236.8880983677186 250.07988630853686) rotate(0 -10.803047982428268 52.58481204967859)"><path d="M-5.88 79.62 C-9.85 86.07, -13.82 92.53, -21.61 105.17" stroke="#000" stroke-width="2.5" fill="none"></path></g></g><g stroke-linecap="round"><g transform="translate(228.04596740554746 246.290406199573) rotate(0 -31.78945440995068 50.105261551706405)"><path d="M0 0 C-10.6 16.7, -52.98 83.51, -63.58 100.21" stroke="#000" stroke-width="2.5" fill="none" stroke-dasharray="8 10"></path></g><g transform="translate(228.04596740554746 246.290406199573) rotate(0 -31.78945440995068 50.105261551706405)"><path d="M-57.14 70.91 C-59.69 82.52, -62.24 94.13, -63.58 100.21" stroke="#000" stroke-width="2.5" fill="none"></path></g><g transform="translate(228.04596740554746 246.290406199573) rotate(0 -31.78945440995068 50.105261551706405)"><path d="M-39.81 81.9 C-49.23 89.16, -58.65 96.41, -63.58 100.21" stroke="#000" stroke-width="2.5" fill="none"></path></g></g><g stroke-linecap="round"><g transform="translate(414.58491178374084 259.92206181026785) rotate(0 89.34874356231768 -20.43394469938653)"><path d="M0.25 -0.59 C30.21 -7.52, 149.69 -34.27, 179.78 -41.05 M-1.08 1.72 C28.68 -5.58, 148.38 -35.11, 178.6 -42.59" stroke="#000" stroke-width="4" fill="none"></path></g><g transform="translate(414.58491178374084 259.92206181026785) rotate(0 89.34874356231768 -20.43394469938653)"><path d="M24.52 -17.51 C19.76 -10.93, 11.71 -5.88, -1.01 0.58 M25.71 -16.74 C17.65 -13.15, 12.31 -8.3, -0.43 -1.19" stroke="#000" stroke-width="4" fill="none"></path></g><g transform="translate(414.58491178374084 259.92206181026785) rotate(0 89.34874356231768 -20.43394469938653)"><path d="M29.03 2.5 C22.81 3.02, 13.39 2.01, -1.01 0.58 M30.22 3.28 C21.11 1.55, 14.56 1.05, -0.43 -1.19" stroke="#000" stroke-width="4" fill="none"></path></g><g transform="translate(414.58491178374084 259.92206181026785) rotate(0 89.34874356231768 -20.43394469938653)"><path d="M152.72 -26.58 C163.01 -30.1, 170.17 -35.03, 177.34 -41.43 M153.91 -25.8 C159.5 -31.42, 167.57 -35.36, 177.92 -43.19" stroke="#000" stroke-width="4" fill="none"></path></g><g transform="translate(414.58491178374084 259.92206181026785) rotate(0 89.34874356231768 -20.43394469938653)"><path d="M147.8 -46.51 C159.68 -43.99, 168.34 -42.88, 177.34 -41.43 M148.99 -45.73 C155.75 -46.05, 165.13 -44.67, 177.92 -43.19" stroke="#000" stroke-width="4" fill="none"></path></g></g><g stroke-linecap="round"><g transform="translate(416.67182007357064 401.0556963141522) rotate(0 47.87317575696295 32.81055994162239)"><path d="M-1.17 0.08 C14.9 11.22, 80.71 55.46, 96.92 66.54 M0.42 -0.92 C16.34 9.89, 80.49 53.82, 96.27 64.73" stroke="#000" stroke-width="4" fill="none"></path></g><g transform="translate(416.67182007357064 401.0556963141522) rotate(0 47.87317575696295 32.81055994162239)"><path d="M28.06 8.36 C19.06 4.15, 9.25 3.35, -2.83 -1.04 M27.88 7.78 C18.45 4.85, 10.37 3.65, -1.77 0.12" stroke="#000" stroke-width="4" fill="none"></path></g><g transform="translate(416.67182007357064 401.0556963141522) rotate(0 47.87317575696295 32.81055994162239)"><path d="M16.55 25.35 C11.5 15.49, 5.59 8.93, -2.83 -1.04 M16.37 24.77 C10.58 16.58, 6.02 10.18, -1.77 0.12" stroke="#000" stroke-width="4" fill="none"></path></g><g transform="translate(416.67182007357064 401.0556963141522) rotate(0 47.87317575696295 32.81055994162239)"><path d="M67.36 58.18 C78.04 59.56, 87.94 63.79, 94.61 63.61 M67.19 57.59 C75.47 58.93, 85.2 62.28, 95.68 64.77" stroke="#000" stroke-width="4" fill="none"></path></g><g transform="translate(416.67182007357064 401.0556963141522) rotate(0 47.87317575696295 32.81055994162239)"><path d="M78.99 41.27 C85.68 48.27, 91.64 58.23, 94.61 63.61 M78.81 40.68 C83.43 47.26, 89.59 55.79, 95.68 64.77" stroke="#000" stroke-width="4" fill="none"></path></g></g><g stroke-linecap="round"><g transform="translate(608.769883043281 451.18961347009656) rotate(0 7.2862069021553 -62.95552434451045)"><path d="M0 1.02 C2.41 -20.18, 11.49 -105.81, 13.69 -126.93 M-1.46 0.51 C1.41 -20.52, 13.21 -104.12, 16.03 -125.45" stroke="#000" stroke-width="4" fill="none"></path></g><g transform="translate(608.769883043281 451.18961347009656) rotate(0 7.2862069021553 -62.95552434451045)"><path d="M-5.48 -29.29 C-5.58 -23.19, -1.84 -16.09, 1.64 2.75 M-7.79 -28.07 C-4.38 -17, -2 -4.29, 0.32 0.47" stroke="#000" stroke-width="4" fill="none"></path></g><g transform="translate(608.769883043281 451.18961347009656) rotate(0 7.2862069021553 -62.95552434451045)"><path d="M14.92 -27.09 C9.99 -21.52, 8.91 -14.93, 1.64 2.75 M12.61 -25.87 C8 -15.63, 2.36 -3.79, 0.32 0.47" stroke="#000" stroke-width="4" fill="none"></path></g><g transform="translate(608.769883043281 451.18961347009656) rotate(0 7.2862069021553 -62.95552434451045)"><path d="M24.07 -97.31 C20.63 -105.03, 21.17 -111.73, 17.67 -123.72 M21.76 -96.09 C19.79 -107.98, 16.86 -118.25, 16.35 -126" stroke="#000" stroke-width="4" fill="none"></path></g><g transform="translate(608.769883043281 451.18961347009656) rotate(0 7.2862069021553 -62.95552434451045)"><path d="M3.73 -100.1 C5.11 -107.16, 10.46 -113.21, 17.67 -123.72 M1.43 -98.88 C7.46 -109.71, 12.51 -118.88, 16.35 -126" stroke="#000" stroke-width="4" fill="none"></path></g></g></svg>