<svg version="1.1" xmlns="http://www.w3.org/2000/svg" viewBox="0 0 836.0000610351562 714.4000244140625" width="1672.0001220703125" height="1428.800048828125">
  <defs>
    <style>
      @font-face {
        font-family: "Virgil";
        src: url("https://excalidraw.com/Virgil.woff2");
      }
      @font-face {
        font-family: "Cascadia";
        src: url("https://excalidraw.com/Cascadia.woff2");
      }
    </style>
  </defs>
  <rect x="0" y="0" width="836.0000610351562" height="714.4000244140625" fill="#ffffff"></rect><g stroke-linecap="round" transform="translate(10 10) rotate(0 408.0000305175781 347.20001220703125)"><path d="M0 0 C0 0, 0 0, 0 0 M0 0 C0 0, 0 0, 0 0 M-0.26 6.4 C1.6 4.26, 3.45 2.12, 4.99 0.36 M-0.26 6.4 C1.58 4.28, 3.41 2.17, 4.99 0.36 M0.13 12.04 C3.92 7.68, 7.71 3.33, 10.63 -0.03 M0.13 12.04 C3.91 7.69, 7.69 3.34, 10.63 -0.03 M-0.13 18.44 C5.69 11.74, 11.51 5.05, 15.62 0.33 M-0.13 18.44 C4 13.69, 8.13 8.93, 15.62 0.33 M0.27 24.08 C4.69 18.99, 9.12 13.9, 21.26 -0.07 M0.27 24.08 C6.33 17.1, 12.4 10.12, 21.26 -0.07 M0 30.48 C10.23 18.71, 20.46 6.95, 26.25 0.29 M0 30.48 C10.42 18.5, 20.84 6.51, 26.25 0.29 M-0.26 36.88 C8.97 26.27, 18.19 15.66, 31.89 -0.1 M-0.26 36.88 C8.37 26.95, 16.99 17.03, 31.89 -0.1 M0.14 42.52 C13.28 27.4, 26.42 12.28, 36.88 0.26 M0.14 42.52 C11.53 29.41, 22.93 16.31, 36.88 0.26 M-0.12 48.92 C14.07 32.59, 28.26 16.27, 42.52 -0.14 M-0.12 48.92 C10.72 36.44, 21.57 23.96, 42.52 -0.14 M0.27 54.56 C10.54 42.75, 20.81 30.93, 47.51 0.22 M0.27 54.56 C17.19 35.1, 34.11 15.64, 47.51 0.22 M0.01 60.96 C15.54 43.1, 31.06 25.23, 53.15 -0.17 M0.01 60.96 C10.82 48.52, 21.63 36.08, 53.15 -0.17 M-0.25 67.36 C18 46.36, 36.25 25.37, 58.14 0.19 M-0.25 67.36 C17.11 47.39, 34.47 27.41, 58.14 0.19 M0.14 73 C19.8 50.38, 39.47 27.76, 63.78 -0.21 M0.14 73 C17.44 53.1, 34.73 33.21, 63.78 -0.21 M-0.12 79.4 C26.53 48.74, 53.18 18.08, 68.77 0.15 M-0.12 79.4 C19.44 56.9, 38.99 34.41, 68.77 0.15 M0.28 85.04 C24.5 57.17, 48.73 29.3, 74.41 -0.24 M0.28 85.04 C16.26 66.66, 32.24 48.27, 74.41 -0.24 M0.01 91.44 C30.51 56.36, 61.01 21.27, 79.4 0.12 M0.01 91.44 C21.77 66.42, 43.52 41.4, 79.4 0.12 M-0.25 97.84 C24.44 69.43, 49.13 41.03, 85.04 -0.28 M-0.25 97.84 C33.11 59.46, 66.47 21.09, 85.04 -0.28 M0.15 103.48 C22.45 77.82, 44.76 52.16, 90.03 0.08 M0.15 103.48 C20.28 80.32, 40.41 57.16, 90.03 0.08 M-0.11 109.88 C32.52 72.33, 65.16 34.79, 95.67 -0.31 M-0.11 109.88 C33.86 70.8, 67.83 31.72, 95.67 -0.31 M0.28 115.52 C32.66 78.27, 65.05 41.02, 100.66 0.05 M0.28 115.52 C29.4 82.02, 58.52 48.52, 100.66 0.05 M0.02 121.92 C23.86 94.5, 47.7 67.07, 106.3 -0.34 M0.02 121.92 C27.91 89.83, 55.8 57.75, 106.3 -0.34 M-0.24 128.32 C38.93 83.25, 78.11 38.19, 111.29 0.02 M-0.24 128.32 C25.25 98.99, 50.75 69.66, 111.29 0.02 M0.15 133.96 C33.12 96.03, 66.09 58.1, 116.27 0.38 M0.15 133.96 C31.58 97.8, 63.01 61.65, 116.27 0.38 M-0.11 140.36 C33.79 101.36, 67.7 62.36, 121.92 -0.02 M-0.11 140.36 C48.17 84.81, 96.46 29.27, 121.92 -0.02 M0.29 146 C33.64 107.63, 66.99 69.27, 126.91 0.34 M0.29 146 C42.79 97.11, 85.29 48.22, 126.91 0.34 M0.02 152.4 C32.64 114.88, 65.26 77.36, 132.55 -0.05 M0.02 152.4 C46.09 99.4, 92.16 46.4, 132.55 -0.05 M-0.24 158.8 C41.98 110.23, 84.2 61.66, 137.54 0.31 M-0.24 158.8 C29.2 124.94, 58.63 91.08, 137.54 0.31 M0.16 164.44 C57.34 98.65, 114.53 32.87, 143.18 -0.09 M0.16 164.44 C34.58 124.84, 69.01 85.23, 143.18 -0.09 M-0.1 170.84 C52.8 109.98, 105.7 49.12, 148.17 0.27 M-0.1 170.84 C38.57 126.34, 77.25 81.85, 148.17 0.27 M0.29 176.48 C43.7 126.54, 87.11 76.6, 153.81 -0.12 M0.29 176.48 C35.77 135.66, 71.26 94.84, 153.81 -0.12 M0.03 182.88 C56.91 117.45, 113.78 52.02, 158.8 0.24 M0.03 182.88 C37.11 140.22, 74.19 97.56, 158.8 0.24 M-0.23 189.27 C39.07 144.06, 78.37 98.85, 164.44 -0.16 M-0.23 189.27 C45.08 137.15, 90.4 85.02, 164.44 -0.16 M0.16 194.92 C43.24 145.36, 86.32 95.81, 169.43 0.2 M0.16 194.92 C48.91 138.84, 97.66 82.76, 169.43 0.2 M-0.1 201.32 C36.9 158.75, 73.91 116.18, 175.07 -0.19 M-0.1 201.32 C57.55 135, 115.19 68.69, 175.07 -0.19 M0.3 206.96 C70.28 126.45, 140.27 45.93, 180.06 0.17 M0.3 206.96 C68.68 128.29, 137.07 49.62, 180.06 0.17 M0.03 213.36 C63.95 139.83, 127.87 66.29, 185.7 -0.23 M0.03 213.36 C64.85 138.79, 129.67 64.23, 185.7 -0.23 M-0.23 219.75 C58.29 152.44, 116.8 85.12, 190.69 0.13 M-0.23 219.75 C50.77 161.09, 101.76 102.43, 190.69 0.13 M0.17 225.4 C75 139.31, 149.84 53.22, 196.33 -0.26 M0.17 225.4 C57.35 159.62, 114.53 93.84, 196.33 -0.26 M-0.09 231.8 C70.35 150.76, 140.79 69.73, 201.32 0.1 M-0.09 231.8 C61.19 161.3, 122.47 90.8, 201.32 0.1 M0.3 237.44 C55.41 174.04, 110.52 110.64, 206.96 -0.3 M0.3 237.44 C64.88 163.15, 129.46 88.86, 206.96 -0.3 M0.04 243.84 C55.73 179.77, 111.42 115.71, 211.95 0.06 M0.04 243.84 C52.63 183.34, 105.22 122.84, 211.95 0.06 M-0.22 250.23 C74.61 164.15, 149.44 78.07, 217.59 -0.33 M-0.22 250.23 C80.01 157.94, 160.24 65.64, 217.59 -0.33 M0.17 255.88 C86.78 156.24, 173.4 56.61, 222.58 0.03 M0.17 255.88 C56.9 190.62, 113.62 125.37, 222.58 0.03 M-0.09 262.27 C81.16 168.8, 162.42 75.33, 228.22 -0.36 M-0.09 262.27 C49.07 205.72, 98.23 149.17, 228.22 -0.36 M0.3 267.92 C63.98 194.67, 127.65 121.42, 233.21 0 M0.3 267.92 C65.79 192.58, 131.28 117.25, 233.21 0 M0.04 274.32 C58.97 206.53, 117.89 138.75, 238.19 0.36 M0.04 274.32 C49.97 216.88, 99.9 159.44, 238.19 0.36 M-0.22 280.71 C62.85 208.16, 125.92 135.61, 243.84 -0.04 M-0.22 280.71 C68.8 201.32, 137.82 121.92, 243.84 -0.04 M0.18 286.36 C90.16 182.84, 180.14 79.33, 248.82 0.32 M0.18 286.36 C76.66 198.37, 153.15 110.38, 248.82 0.32 M-0.08 292.75 C73.3 208.34, 146.68 123.92, 254.47 -0.07 M-0.08 292.75 C54.94 229.46, 109.96 166.17, 254.47 -0.07 M0.31 298.4 C63.3 225.94, 126.29 153.48, 259.45 0.29 M0.31 298.4 C69.09 219.27, 137.88 140.14, 259.45 0.29 M0.05 304.8 C81.34 211.28, 162.64 117.76, 265.1 -0.11 M0.05 304.8 C62.99 232.39, 125.94 159.98, 265.1 -0.11 M-0.21 311.19 C63.22 238.22, 126.66 165.24, 270.08 0.25 M-0.21 311.19 C64.48 236.77, 129.18 162.34, 270.08 0.25 M0.18 316.84 C71.13 235.22, 142.07 153.61, 275.73 -0.14 M0.18 316.84 C83.69 220.77, 167.2 124.71, 275.73 -0.14 M-0.08 323.23 C78.69 232.62, 157.45 142.01, 280.71 0.22 M-0.08 323.23 C108.21 198.66, 216.49 74.1, 280.71 0.22 M0.31 328.88 C81.64 235.33, 162.96 141.78, 286.36 -0.18 M0.31 328.88 C105.9 207.41, 211.49 85.95, 286.36 -0.18 M0.05 335.27 C94.52 226.61, 188.98 117.94, 291.34 0.18 M0.05 335.27 C75.95 247.97, 151.84 160.66, 291.34 0.18 M-0.21 341.67 C98.15 228.53, 196.51 115.38, 296.99 -0.21 M-0.21 341.67 C116.27 207.68, 232.75 73.68, 296.99 -0.21 M0.19 347.32 C93.67 239.78, 187.15 132.24, 301.97 0.15 M0.19 347.32 C66.67 270.83, 133.16 194.34, 301.97 0.15 M-0.08 353.71 C104.9 232.95, 209.88 112.19, 307.62 -0.25 M-0.08 353.71 C100.76 237.71, 201.6 121.71, 307.62 -0.25 M0.32 359.36 C119.2 222.6, 238.08 85.84, 312.6 0.11 M0.32 359.36 C69.4 279.89, 138.47 200.43, 312.6 0.11 M0.06 365.75 C82.38 271.05, 164.71 176.34, 318.25 -0.28 M0.06 365.75 C105.94 243.95, 211.82 122.15, 318.25 -0.28 M-0.2 372.15 C90.62 267.67, 181.44 163.19, 323.23 0.08 M-0.2 372.15 C70.77 290.5, 141.75 208.86, 323.23 0.08 M0.19 377.79 C74.92 291.83, 149.65 205.86, 328.88 -0.31 M0.19 377.79 C119.59 240.44, 239 103.08, 328.88 -0.31 M-0.07 384.19 C118.1 248.25, 236.27 112.31, 333.86 0.05 M-0.07 384.19 C123.92 241.56, 247.91 98.93, 333.86 0.05 M0.32 389.84 C132.88 237.35, 265.44 84.86, 339.51 -0.35 M0.32 389.84 C127.7 243.31, 255.07 96.78, 339.51 -0.35 M0.06 396.23 C118.42 260.08, 236.78 123.92, 344.49 0.01 M0.06 396.23 C80.32 303.91, 160.58 211.58, 344.49 0.01 M-0.2 402.63 C102.2 284.84, 204.6 167.04, 349.48 0.37 M-0.2 402.63 C113.72 271.58, 227.64 140.54, 349.48 0.37 M0.2 408.27 C139.99 247.46, 279.78 86.65, 355.12 -0.02 M0.2 408.27 C128.27 260.94, 256.35 113.61, 355.12 -0.02 M-0.07 414.67 C99.77 299.83, 199.6 184.98, 360.11 0.34 M-0.07 414.67 C133.29 261.26, 266.65 107.85, 360.11 0.34 M-0.33 421.07 C90.56 316.51, 181.45 211.96, 365.75 -0.06 M-0.33 421.07 C113.54 290.08, 227.41 159.09, 365.75 -0.06 M0.07 426.71 C106.68 304.07, 213.28 181.44, 370.74 0.3 M0.07 426.71 C98.38 313.61, 196.7 200.52, 370.74 0.3 M-0.19 433.11 C94.19 324.53, 188.58 215.95, 376.38 -0.09 M-0.19 433.11 C90.13 329.2, 180.46 225.3, 376.38 -0.09 M0.2 438.75 C102.3 321.3, 204.4 203.85, 381.37 0.27 M0.2 438.75 C140.07 277.85, 279.94 116.95, 381.37 0.27 M-0.06 445.15 C133.37 291.66, 266.8 138.17, 387.01 -0.13 M-0.06 445.15 C117.43 310, 234.92 174.84, 387.01 -0.13 M-0.32 451.55 C141.57 288.32, 283.47 125.09, 392 0.23 M-0.32 451.55 C90.56 347, 181.44 242.46, 392 0.23 M0.07 457.19 C109.1 331.77, 218.12 206.36, 397.64 -0.16 M0.07 457.19 C102.77 339.05, 205.47 220.91, 397.64 -0.16 M-0.19 463.59 C125.82 318.63, 251.83 173.67, 402.63 0.2 M-0.19 463.59 C86.65 363.69, 173.49 263.79, 402.63 0.2 M0.21 469.23 C156.47 289.47, 312.74 109.71, 408.27 -0.2 M0.21 469.23 C106.49 346.96, 212.78 224.69, 408.27 -0.2 M-0.06 475.63 C109.49 349.61, 219.04 223.59, 413.26 0.16 M-0.06 475.63 C113.61 344.87, 227.27 214.12, 413.26 0.16 M-0.32 482.03 C89.65 378.54, 179.61 275.04, 418.9 -0.23 M-0.32 482.03 C111.29 353.64, 222.9 225.24, 418.9 -0.23 M0.08 487.67 C153.53 311.14, 306.99 134.61, 423.89 0.13 M0.08 487.67 C155.27 309.15, 310.45 130.63, 423.89 0.13 M-0.18 494.07 C134.3 339.36, 268.79 184.65, 429.53 -0.26 M-0.18 494.07 C99.45 379.45, 199.08 264.84, 429.53 -0.26 M0.21 499.71 C151.22 325.99, 302.23 152.27, 434.52 0.1 M0.21 499.71 C106.76 377.15, 213.3 254.58, 434.52 0.1 M-0.05 506.11 C97.58 393.8, 195.21 281.49, 440.16 -0.3 M-0.05 506.11 C138 347.3, 276.05 188.49, 440.16 -0.3 M-0.31 512.51 C162.57 325.13, 325.45 137.76, 445.15 0.06 M-0.31 512.51 C119.39 374.81, 239.09 237.11, 445.15 0.06 M0.08 518.15 C128.44 370.49, 256.8 222.83, 450.79 -0.33 M0.08 518.15 C120.74 379.35, 241.39 240.55, 450.79 -0.33 M-0.18 524.55 C163.81 335.9, 327.81 147.24, 455.78 0.03 M-0.18 524.55 C178.83 318.63, 357.83 112.7, 455.78 0.03 M0.22 530.19 C113.56 399.81, 226.9 269.42, 461.42 -0.37 M0.22 530.19 C115.71 397.33, 231.2 264.47, 461.42 -0.37 M-0.05 536.59 C127.53 389.83, 255.11 243.06, 466.41 -0.01 M-0.05 536.59 C174.04 336.33, 348.12 136.07, 466.41 -0.01 M-0.31 542.99 C116.87 408.19, 234.04 273.4, 471.4 0.35 M-0.31 542.99 C102.52 424.7, 205.35 306.4, 471.4 0.35 M0.09 548.63 C119.77 410.96, 239.44 273.28, 477.04 -0.04 M0.09 548.63 C175.04 347.37, 349.99 146.11, 477.04 -0.04 M-0.17 555.03 C113.87 423.83, 227.92 292.63, 482.03 0.32 M-0.17 555.03 C157.36 373.81, 314.89 192.59, 482.03 0.32 M0.22 560.67 C115.09 428.52, 229.97 296.38, 487.67 -0.08 M0.22 560.67 C160.91 375.82, 321.6 190.96, 487.67 -0.08 M-0.04 567.07 C174.29 366.53, 348.62 165.98, 492.66 0.28 M-0.04 567.07 C163.9 378.47, 327.85 189.88, 492.66 0.28 M-0.3 573.47 C184.92 360.4, 370.14 147.33, 498.3 -0.11 M-0.3 573.47 C108.39 448.43, 217.08 323.4, 498.3 -0.11 M0.09 579.11 C173.23 379.93, 346.37 180.76, 503.29 0.25 M0.09 579.11 C197.55 351.96, 395.02 124.8, 503.29 0.25 M-0.17 585.51 C102.73 467.14, 205.62 348.77, 508.93 -0.15 M-0.17 585.51 C197.39 358.24, 394.95 130.97, 508.93 -0.15 M0.22 591.15 C180.55 383.71, 360.88 176.27, 513.92 0.21 M0.22 591.15 C134.79 436.36, 269.35 281.56, 513.92 0.21 M-0.04 597.55 C140.94 435.37, 281.92 273.19, 519.56 -0.18 M-0.04 597.55 C205.78 360.78, 411.61 124.01, 519.56 -0.18 M-0.3 603.95 C166.84 411.68, 333.97 219.41, 524.55 0.18 M-0.3 603.95 C155.89 424.27, 312.08 244.59, 524.55 0.18 M0.1 609.59 C171.24 412.71, 342.39 215.82, 530.19 -0.22 M0.1 609.59 C211.29 366.64, 422.49 123.68, 530.19 -0.22 M-0.16 615.99 C208.65 375.78, 417.46 135.57, 535.18 0.14 M-0.16 615.99 C136.67 458.58, 273.51 301.17, 535.18 0.14 M0.23 621.63 C162.66 434.77, 325.1 247.91, 540.82 -0.25 M0.23 621.63 C190.08 403.23, 379.94 184.83, 540.82 -0.25 M-0.03 628.03 C168.96 433.62, 337.96 239.22, 545.81 0.11 M-0.03 628.03 C159.48 444.54, 318.99 261.04, 545.81 0.11 M-0.29 634.43 C191.66 413.61, 383.62 192.78, 551.45 -0.28 M-0.29 634.43 C115.97 500.68, 232.23 366.93, 551.45 -0.28 M0.1 640.07 C122.97 498.72, 245.84 357.38, 556.44 0.08 M0.1 640.07 C202.45 407.3, 404.79 174.52, 556.44 0.08 M-0.16 646.47 C117.3 511.34, 234.76 376.22, 562.08 -0.32 M-0.16 646.47 C187.2 430.94, 374.55 215.41, 562.08 -0.32 M0.23 652.11 C151.9 477.64, 303.56 303.18, 567.07 0.04 M0.23 652.11 C128.52 504.54, 256.8 356.97, 567.07 0.04 M-0.03 658.51 C130.13 508.78, 260.28 359.05, 572.71 -0.35 M-0.03 658.51 C157.47 477.33, 314.96 296.16, 572.71 -0.35 M-0.29 664.91 C227.13 403.29, 454.54 141.68, 577.7 0.01 M-0.29 664.91 C136.27 507.81, 272.84 350.71, 577.7 0.01 M0.11 670.55 C202.06 438.22, 404.02 205.9, 582.69 0.37 M0.11 670.55 C228.61 407.69, 457.1 144.83, 582.69 0.37 M-0.16 676.95 C201.29 445.21, 402.74 213.47, 588.33 -0.03 M-0.16 676.95 C205.73 440.11, 411.61 203.27, 588.33 -0.03 M0.24 682.59 C184.62 470.48, 369 258.38, 593.32 0.33 M0.24 682.59 C143.29 518.03, 286.33 353.48, 593.32 0.33 M-0.02 688.99 C154.43 511.31, 308.89 333.63, 598.96 -0.06 M-0.02 688.99 C193.62 466.23, 387.26 243.47, 598.96 -0.06 M0.37 694.63 C159.53 511.54, 318.69 328.44, 603.95 0.3 M0.37 694.63 C228.62 432.06, 456.87 169.49, 603.95 0.3 M5.36 694.99 C176.88 497.68, 348.4 300.37, 609.59 -0.1 M5.36 694.99 C194.39 477.54, 383.41 260.09, 609.59 -0.1 M11 694.6 C221.55 452.39, 432.09 210.19, 614.58 0.26 M11 694.6 C227.9 445.08, 444.81 195.56, 614.58 0.26 M15.99 694.96 C235.97 441.9, 455.94 188.85, 620.22 -0.13 M15.99 694.96 C182.01 503.98, 348.02 313, 620.22 -0.13 M21.63 694.56 C208.76 479.3, 395.89 264.03, 625.21 0.23 M21.63 694.56 C227.48 457.76, 433.33 220.95, 625.21 0.23 M26.62 694.92 C172.97 526.57, 319.32 358.21, 630.85 -0.17 M26.62 694.92 C247.34 441.02, 468.05 187.11, 630.85 -0.17 M32.26 694.53 C207.94 492.43, 383.62 290.34, 635.84 0.19 M32.26 694.53 C200.95 500.47, 369.64 306.42, 635.84 0.19 M37.25 694.89 C195.59 512.74, 353.93 330.58, 641.48 -0.2 M37.25 694.89 C243.1 458.09, 448.94 221.29, 641.48 -0.2 M42.89 694.49 C185.13 530.86, 327.37 367.24, 646.47 0.16 M42.89 694.49 C242.62 464.74, 442.34 234.98, 646.47 0.16 M47.88 694.85 C269.85 439.51, 491.81 184.17, 652.11 -0.23 M47.88 694.85 C263.7 446.58, 479.52 198.31, 652.11 -0.23 M53.52 694.46 C227.11 494.78, 400.69 295.09, 657.1 0.13 M53.52 694.46 C205.36 519.8, 357.19 345.13, 657.1 0.13 M58.51 694.82 C240.9 485.01, 423.28 275.2, 662.74 -0.27 M58.51 694.82 C282.71 436.91, 506.91 178.99, 662.74 -0.27 M64.15 694.42 C299.9 423.22, 535.66 152.02, 667.73 0.09 M64.15 694.42 C304.19 418.29, 544.24 142.15, 667.73 0.09 M69.14 694.78 C195.6 549.31, 322.06 403.83, 673.37 -0.3 M69.14 694.78 C273.69 459.47, 478.24 224.16, 673.37 -0.3 M74.78 694.39 C248.86 494.13, 422.95 293.87, 678.36 0.06 M74.78 694.39 C271.3 468.33, 467.81 242.27, 678.36 0.06 M79.77 694.75 C220.82 532.49, 361.87 370.23, 684 -0.34 M79.77 694.75 C210.21 544.7, 340.65 394.64, 684 -0.34 M85.41 694.35 C281.46 468.82, 477.52 243.29, 688.99 0.02 M85.41 694.35 C321.68 422.56, 557.95 150.76, 688.99 0.02 M90.4 694.71 C282.56 473.66, 474.73 252.6, 694.63 -0.37 M90.4 694.71 C307.52 444.94, 524.64 195.17, 694.63 -0.37 M96.04 694.32 C243.04 525.22, 390.03 356.12, 699.62 -0.01 M96.04 694.32 C308.24 450.22, 520.43 206.12, 699.62 -0.01 M101.03 694.68 C225.86 551.08, 350.69 407.47, 704.6 0.35 M101.03 694.68 C297.29 468.91, 493.54 243.14, 704.6 0.35 M106.02 695.04 C340.66 425.11, 575.31 155.18, 710.25 -0.05 M106.02 695.04 C324.84 443.31, 543.67 191.58, 710.25 -0.05 M111.66 694.65 C258.67 525.53, 405.68 356.42, 715.23 0.31 M111.66 694.65 C274.38 507.46, 437.1 320.27, 715.23 0.31 M116.65 695.01 C299.71 484.42, 482.77 273.84, 720.88 -0.08 M116.65 695.01 C345.95 431.22, 575.25 167.44, 720.88 -0.08 M122.29 694.61 C346.82 436.32, 571.35 178.02, 725.86 0.28 M122.29 694.61 C332.87 452.36, 543.45 210.12, 725.86 0.28 M127.28 694.97 C327.37 464.79, 527.47 234.6, 731.51 -0.12 M127.28 694.97 C344.69 444.87, 562.1 194.76, 731.51 -0.12 M132.92 694.58 C335.66 461.35, 538.39 228.13, 736.5 0.24 M132.92 694.58 C325.64 472.87, 518.37 251.17, 736.5 0.24 M137.91 694.94 C268.83 544.33, 399.76 393.71, 742.14 -0.15 M137.91 694.94 C294.63 514.65, 451.36 334.35, 742.14 -0.15 M143.55 694.54 C311.94 500.84, 480.33 307.13, 747.13 0.21 M143.55 694.54 C347 460.5, 550.45 226.45, 747.13 0.21 M148.54 694.9 C331.79 484.1, 515.03 273.3, 752.77 -0.19 M148.54 694.9 C290.19 531.95, 431.84 369, 752.77 -0.19 M154.18 694.51 C362.43 454.95, 570.67 215.39, 757.76 0.18 M154.18 694.51 C370.54 445.61, 586.9 196.72, 757.76 0.18 M159.17 694.87 C361.4 462.23, 563.63 229.58, 763.4 -0.22 M159.17 694.87 C304.92 527.2, 450.67 359.53, 763.4 -0.22 M164.81 694.47 C332.46 501.62, 500.11 308.76, 768.39 0.14 M164.81 694.47 C369.86 458.6, 574.9 222.72, 768.39 0.14 M169.8 694.83 C323.69 517.8, 477.58 340.77, 774.03 -0.25 M169.8 694.83 C312.39 530.8, 454.99 366.76, 774.03 -0.25 M175.44 694.44 C308.8 541.03, 442.16 387.62, 779.02 0.11 M175.44 694.44 C318.54 529.82, 461.64 365.21, 779.02 0.11 M180.43 694.8 C305.51 550.91, 430.59 407.03, 784.66 -0.29 M180.43 694.8 C407.02 434.13, 633.61 173.47, 784.66 -0.29 M186.07 694.4 C378.21 473.38, 570.35 252.35, 789.65 0.07 M186.07 694.4 C310.9 550.81, 435.72 407.21, 789.65 0.07 M191.06 694.76 C393.72 461.63, 596.37 228.5, 795.29 -0.32 M191.06 694.76 C320.67 545.66, 450.29 396.55, 795.29 -0.32 M196.7 694.37 C386.02 476.58, 575.35 258.79, 800.28 0.04 M196.7 694.37 C320.53 551.93, 444.35 409.48, 800.28 0.04 M201.69 694.73 C433.48 428.08, 665.27 161.44, 805.92 -0.36 M201.69 694.73 C389.46 478.73, 577.22 262.72, 805.92 -0.36 M207.33 694.34 C419.01 450.83, 630.68 207.33, 810.91 0 M207.33 694.34 C441.73 424.69, 676.14 155.04, 810.91 0 M212.32 694.7 C390.62 489.59, 568.92 284.48, 815.89 0.36 M212.32 694.7 C345.1 541.95, 477.87 389.21, 815.89 0.36 M217.31 695.06 C440.84 437.91, 664.37 180.77, 816.29 6.01 M217.31 695.06 C404.59 479.61, 591.88 264.16, 816.29 6.01 M222.95 694.66 C350.17 548.3, 477.4 401.95, 816.03 12.4 M222.95 694.66 C399.96 491.04, 576.96 287.42, 816.03 12.4 M227.94 695.02 C419.12 475.09, 610.3 255.16, 816.42 18.05 M227.94 695.02 C424.7 468.67, 621.46 242.32, 816.42 18.05 M233.58 694.63 C399.44 503.82, 565.31 313.01, 816.16 24.44 M233.58 694.63 C409.76 491.96, 585.94 289.29, 816.16 24.44 M238.57 694.99 C440.34 462.87, 642.12 230.75, 815.9 30.84 M238.57 694.99 C359.6 555.75, 480.64 416.51, 815.9 30.84 M244.21 694.59 C387.07 530.25, 529.93 365.91, 816.29 36.49 M244.21 694.59 C466.24 439.18, 688.27 183.76, 816.29 36.49 M249.2 694.95 C470.73 440.1, 692.27 185.25, 816.03 42.88 M249.2 694.95 C416.3 502.72, 583.41 310.48, 816.03 42.88 M254.84 694.56 C397.09 530.91, 539.35 367.27, 816.43 48.53 M254.84 694.56 C429.94 493.13, 605.03 291.71, 816.43 48.53 M259.83 694.92 C478.25 443.65, 696.68 192.38, 816.16 54.92 M259.83 694.92 C452.36 473.43, 644.9 251.94, 816.16 54.92 M265.47 694.52 C397.14 543.05, 528.82 391.57, 815.9 61.32 M265.47 694.52 C391.91 549.07, 518.35 403.62, 815.9 61.32 M270.46 694.88 C433.44 507.39, 596.43 319.9, 816.3 66.96 M270.46 694.88 C444.97 494.13, 619.48 293.37, 816.3 66.96 M276.1 694.49 C465.73 476.35, 655.36 258.2, 816.04 73.36 M276.1 694.49 C437.07 509.32, 598.03 324.15, 816.04 73.36 M281.09 694.85 C416.27 539.33, 551.46 383.82, 816.43 79.01 M281.09 694.85 C480.21 465.78, 679.34 236.71, 816.43 79.01 M286.73 694.45 C463.04 491.63, 639.35 288.81, 816.17 85.4 M286.73 694.45 C431.41 528.02, 576.09 361.59, 816.17 85.4 M291.72 694.81 C500.42 454.72, 709.13 214.63, 815.91 91.8 M291.72 694.81 C427.52 538.59, 563.32 382.37, 815.91 91.8 M297.36 694.42 C467.78 498.37, 638.2 302.33, 816.3 97.44 M297.36 694.42 C458.96 508.52, 620.56 322.62, 816.3 97.44 M302.35 694.78 C445.78 529.77, 589.22 364.77, 816.04 103.84 M302.35 694.78 C475.61 495.46, 648.88 296.14, 816.04 103.84 M307.99 694.39 C450.92 529.96, 593.85 365.54, 816.43 109.49 M307.99 694.39 C495.49 478.69, 683 262.99, 816.43 109.49 M312.98 694.75 C433.49 556.1, 554.01 417.46, 816.17 115.88 M312.98 694.75 C495.58 484.69, 678.18 274.63, 816.17 115.88 M318.62 694.35 C485.16 502.77, 651.7 311.19, 815.91 122.28 M318.62 694.35 C418.89 579, 519.17 463.64, 815.91 122.28 M323.61 694.71 C433.35 568.47, 543.09 442.23, 816.31 127.92 M323.61 694.71 C467.52 529.16, 611.43 363.61, 816.31 127.92 M329.25 694.32 C442.92 563.56, 556.58 432.8, 816.05 134.32 M329.25 694.32 C507.54 489.22, 685.82 284.13, 816.05 134.32 M334.24 694.68 C513.93 487.96, 693.63 281.24, 816.44 139.96 M334.24 694.68 C469.81 538.72, 605.38 382.76, 816.44 139.96 M339.22 695.04 C492.17 519.09, 645.12 343.14, 816.18 146.36 M339.22 695.04 C443.6 574.97, 547.97 454.9, 816.18 146.36 M344.87 694.64 C454.64 568.37, 564.41 442.09, 815.92 152.76 M344.87 694.64 C479.74 539.49, 614.61 384.33, 815.92 152.76 M349.85 695 C508.54 512.46, 667.22 329.92, 816.31 158.4 M349.85 695 C497.1 525.62, 644.34 356.24, 816.31 158.4 M355.5 694.61 C515.59 510.44, 675.68 326.28, 816.05 164.8 M355.5 694.61 C477.02 554.81, 598.55 415.01, 816.05 164.8 M360.48 694.97 C467.98 571.3, 575.48 447.64, 816.44 170.44 M360.48 694.97 C457.59 583.26, 554.7 471.55, 816.44 170.44 M366.13 694.57 C483.2 559.9, 600.27 425.22, 816.18 176.84 M366.13 694.57 C532.66 503, 699.19 311.43, 816.18 176.84 M371.11 694.93 C527.32 515.24, 683.52 335.55, 815.92 183.24 M371.11 694.93 C489.89 558.3, 608.67 421.66, 815.92 183.24 M376.76 694.54 C514.93 535.59, 653.11 376.63, 816.32 188.88 M376.76 694.54 C535.45 511.98, 694.15 329.42, 816.32 188.88 M381.74 694.9 C481.7 579.91, 581.65 464.93, 816.05 195.28 M381.74 694.9 C483.4 577.95, 585.06 461, 816.05 195.28 M387.39 694.5 C496.21 569.32, 605.04 444.13, 815.79 201.68 M387.39 694.5 C555.82 500.74, 724.26 306.98, 815.79 201.68 M392.37 694.86 C484.11 589.34, 575.84 483.81, 816.19 207.32 M392.37 694.86 C506.95 563.05, 621.53 431.25, 816.19 207.32 M398.02 694.47 C491.17 587.31, 584.31 480.16, 815.93 213.72 M398.02 694.47 C491.07 587.42, 584.12 480.38, 815.93 213.72 M403 694.83 C507.91 574.14, 612.82 453.46, 816.32 219.36 M403 694.83 C540.28 536.92, 677.55 379, 816.32 219.36 M408.65 694.43 C557.24 523.5, 705.82 352.57, 816.06 225.76 M408.65 694.43 C492.48 598, 576.31 501.56, 816.06 225.76 M413.63 694.79 C528.66 562.47, 643.69 430.14, 815.8 232.16 M413.63 694.79 C564.7 521.01, 715.76 347.23, 815.8 232.16 M419.28 694.4 C507.88 592.47, 596.48 490.55, 816.19 237.8 M419.28 694.4 C537.85 558, 656.43 421.59, 816.19 237.8 M424.26 694.76 C524.84 579.06, 625.42 463.35, 815.93 244.2 M424.26 694.76 C564.14 533.85, 704.01 372.95, 815.93 244.2 M429.91 694.37 C562.14 542.25, 694.37 390.13, 816.33 249.84 M429.91 694.37 C529.53 579.76, 629.16 465.15, 816.33 249.84 M434.89 694.73 C553.02 558.84, 671.14 422.95, 816.06 256.24 M434.89 694.73 C523.65 592.62, 612.41 490.51, 816.06 256.24 M440.54 694.33 C540.12 579.77, 639.7 465.22, 815.8 262.64 M440.54 694.33 C530.33 591.04, 620.12 487.75, 815.8 262.64 M445.52 694.69 C589.74 528.79, 733.96 362.88, 816.2 268.28 M445.52 694.69 C578.63 541.57, 711.73 388.46, 816.2 268.28 M450.51 695.05 C573.47 553.6, 696.43 412.15, 815.94 274.68 M450.51 695.05 C596.44 527.18, 742.36 359.32, 815.94 274.68 M456.15 694.66 C541.9 596.02, 627.65 497.38, 816.33 280.32 M456.15 694.66 C561.34 573.65, 666.53 452.65, 816.33 280.32 M461.14 695.02 C567.37 572.81, 673.6 450.61, 816.07 286.72 M461.14 695.02 C565.58 574.87, 670.02 454.73, 816.07 286.72 M466.78 694.62 C536.81 614.06, 606.84 533.51, 815.81 293.12 M466.78 694.62 C602.2 538.84, 737.62 383.06, 815.81 293.12 M471.77 694.98 C574.26 577.08, 676.75 459.18, 816.2 298.76 M471.77 694.98 C568.31 583.93, 664.85 472.87, 816.2 298.76 M477.41 694.59 C552.07 608.7, 626.73 522.82, 815.94 305.16 M477.41 694.59 C546.2 615.46, 614.98 536.34, 815.94 305.16 M482.4 694.95 C574.24 589.3, 666.08 483.65, 816.34 310.8 M482.4 694.95 C587.15 574.44, 691.9 453.94, 816.34 310.8 M488.04 694.55 C567.27 603.42, 646.49 512.29, 816.07 317.2 M488.04 694.55 C584.44 583.67, 680.83 472.78, 816.07 317.2 M493.03 694.91 C614.22 555.51, 735.4 416.1, 815.81 323.6 M493.03 694.91 C606.23 564.69, 719.43 434.47, 815.81 323.6 M498.67 694.52 C564.5 618.8, 630.32 543.07, 816.21 329.24 M498.67 694.52 C567.35 615.52, 636.02 536.52, 816.21 329.24 M503.66 694.88 C610.64 571.82, 717.61 448.76, 815.95 335.64 M503.66 694.88 C612.21 570.01, 720.75 445.15, 815.95 335.64 M509.3 694.48 C589.65 602.06, 669.99 509.64, 816.34 341.28 M509.3 694.48 C609.6 579.1, 709.9 463.72, 816.34 341.28 M514.29 694.84 C610.9 583.71, 707.51 472.58, 816.08 347.68 M514.29 694.84 C592.93 604.38, 671.56 513.92, 816.08 347.68 M519.93 694.45 C623.01 575.88, 726.08 457.3, 815.82 354.08 M519.93 694.45 C632.76 564.66, 745.58 434.87, 815.82 354.08 M524.92 694.81 C598.29 610.41, 671.66 526.01, 816.21 359.72 M524.92 694.81 C596.56 612.4, 668.19 530, 816.21 359.72 M530.57 694.42 C590.82 625.1, 651.07 555.79, 815.95 366.12 M530.57 694.42 C626.58 583.96, 722.59 473.51, 815.95 366.12 M535.55 694.78 C614.62 603.82, 693.69 512.86, 816.35 371.76 M535.55 694.78 C608.53 610.83, 681.5 526.88, 816.35 371.76 M541.2 694.38 C649.42 569.88, 757.65 445.37, 816.08 378.16 M541.2 694.38 C636.94 584.24, 732.69 474.1, 816.08 378.16 M546.18 694.74 C641.36 585.25, 736.55 475.75, 815.82 384.56 M546.18 694.74 C615.94 614.49, 685.7 534.24, 815.82 384.56 M551.83 694.35 C615.25 621.39, 678.67 548.42, 816.22 390.2 M551.83 694.35 C650.49 580.85, 749.15 467.35, 816.22 390.2 M556.81 694.71 C611.2 632.15, 665.58 569.59, 815.96 396.6 M556.81 694.71 C660.12 575.86, 763.43 457.02, 815.96 396.6 M562.46 694.31 C636.94 608.62, 711.43 522.94, 816.35 402.24 M562.46 694.31 C655.7 587.05, 748.94 479.78, 816.35 402.24 M567.44 694.67 C665.89 581.43, 764.33 468.18, 816.09 408.64 M567.44 694.67 C626.11 627.18, 684.79 559.68, 816.09 408.64 M572.43 695.03 C644.95 611.61, 717.47 528.19, 815.83 415.03 M572.43 695.03 C642.24 614.72, 712.06 534.41, 815.83 415.03 M578.07 694.64 C638.78 624.8, 699.49 554.96, 816.22 420.68 M578.07 694.64 C655.92 605.08, 733.77 515.53, 816.22 420.68 M583.06 695 C675.6 588.54, 768.14 482.09, 815.96 427.08 M583.06 695 C650.17 617.79, 717.28 540.59, 815.96 427.08 M588.7 694.6 C663.97 608.02, 739.24 521.43, 816.35 432.72 M588.7 694.6 C640.53 634.98, 692.36 575.36, 816.35 432.72 M593.69 694.96 C668.26 609.18, 742.83 523.4, 816.09 439.12 M593.69 694.96 C666.52 611.18, 739.35 527.4, 816.09 439.12 M599.33 694.57 C678.74 603.22, 758.15 511.87, 815.83 445.51 M599.33 694.57 C663.11 621.21, 726.88 547.84, 815.83 445.51 M604.32 694.93 C658.48 632.63, 712.64 570.32, 816.23 451.16 M604.32 694.93 C680.82 606.92, 757.32 518.92, 816.23 451.16 M609.96 694.53 C673.23 621.75, 736.51 548.96, 815.97 457.56 M609.96 694.53 C668.43 627.27, 726.9 560.01, 815.97 457.56 M614.95 694.89 C675.76 624.94, 736.58 554.98, 816.36 463.2 M614.95 694.89 C684.45 614.95, 753.94 535, 816.36 463.2 M620.59 694.5 C678.35 628.05, 736.11 561.61, 816.1 469.6 M620.59 694.5 C689.35 615.4, 758.11 536.3, 816.1 469.6 M625.58 694.86 C667.08 647.12, 708.58 599.38, 815.84 475.99 M625.58 694.86 C670.45 643.25, 715.31 591.64, 815.84 475.99 M631.22 694.47 C682.18 635.84, 733.14 577.22, 816.23 481.64 M631.22 694.47 C678.3 640.31, 725.37 586.16, 816.23 481.64 M636.21 694.83 C698.75 622.89, 761.28 550.95, 815.97 488.03 M636.21 694.83 C706.24 614.26, 776.27 533.7, 815.97 488.03 M641.85 694.43 C710.07 615.96, 778.29 537.48, 816.36 493.68 M641.85 694.43 C702.63 624.51, 763.41 554.59, 816.36 493.68 M646.84 694.79 C686.61 649.04, 726.38 603.29, 816.1 500.08 M646.84 694.79 C708.21 624.19, 769.58 553.59, 816.1 500.08 M652.48 694.4 C715.47 621.94, 778.45 549.49, 815.84 506.47 M652.48 694.4 C716.11 621.2, 779.74 548.01, 815.84 506.47 M657.47 694.76 C692.89 654.01, 728.32 613.25, 816.24 512.12 M657.47 694.76 C706.86 637.94, 756.24 581.13, 816.24 512.12 M663.11 694.36 C694.17 658.64, 725.22 622.91, 815.97 518.51 M663.11 694.36 C714.22 635.57, 765.32 576.78, 815.97 518.51 M668.1 694.72 C706.07 651.04, 744.05 607.36, 816.37 524.16 M668.1 694.72 C726.12 627.98, 784.13 561.24, 816.37 524.16 M673.74 694.33 C728.9 630.87, 784.06 567.42, 816.11 530.56 M673.74 694.33 C722.01 638.81, 770.27 583.29, 816.11 530.56 M678.73 694.69 C716.8 650.89, 754.87 607.09, 815.85 536.95 M678.73 694.69 C728.02 637.98, 777.32 581.27, 815.85 536.95 M683.72 695.05 C721.12 652.03, 758.51 609, 816.24 542.6 M683.72 695.05 C731.4 640.19, 779.08 585.34, 816.24 542.6 M689.36 694.65 C718.68 660.93, 748 627.2, 815.98 548.99 M689.36 694.65 C736.46 640.47, 783.55 586.29, 815.98 548.99 M694.35 695.01 C722.55 662.56, 750.76 630.12, 816.37 554.64 M694.35 695.01 C737.42 645.46, 780.49 595.91, 816.37 554.64 M699.99 694.62 C730.36 659.69, 760.72 624.76, 816.11 561.03 M699.99 694.62 C744.69 643.2, 789.38 591.79, 816.11 561.03 M704.98 694.98 C746.89 646.76, 788.81 598.54, 815.85 567.43 M704.98 694.98 C735.44 659.93, 765.9 624.89, 815.85 567.43 M710.62 694.58 C743.5 656.76, 776.38 618.94, 816.25 573.08 M710.62 694.58 C748.07 651.5, 785.53 608.42, 816.25 573.08 M715.61 694.94 C742.37 664.15, 769.14 633.36, 815.98 579.47 M715.61 694.94 C743.85 662.45, 772.1 629.96, 815.98 579.47 M721.25 694.55 C752.13 659.02, 783.01 623.5, 816.38 585.12 M721.25 694.55 C743.82 668.59, 766.39 642.62, 816.38 585.12 M726.24 694.91 C747.87 670.02, 769.5 645.14, 816.12 591.51 M726.24 694.91 C755.82 660.88, 785.41 626.84, 816.12 591.51 M731.88 694.51 C752.48 670.82, 773.08 647.12, 815.86 597.91 M731.88 694.51 C764.56 656.92, 797.24 619.33, 815.86 597.91 M736.87 694.87 C756.23 672.6, 775.6 650.32, 816.25 603.55 M736.87 694.87 C766.58 660.7, 796.29 626.52, 816.25 603.55 M742.51 694.48 C758.46 676.13, 774.41 657.79, 815.99 609.95 M742.51 694.48 C769.44 663.5, 796.38 632.51, 815.99 609.95 M747.5 694.84 C762.66 677.4, 777.83 659.95, 816.38 615.6 M747.5 694.84 C773.19 665.28, 798.89 635.72, 816.38 615.6 M753.14 694.45 C777.3 666.65, 801.46 638.86, 816.12 621.99 M753.14 694.45 C773.65 670.85, 794.16 647.25, 816.12 621.99 M758.13 694.81 C776.2 674.02, 794.27 653.23, 815.86 628.39 M758.13 694.81 C774.39 676.1, 790.64 657.4, 815.86 628.39 M763.77 694.41 C778.93 676.98, 794.08 659.54, 816.26 634.03 M763.77 694.41 C775.46 680.96, 787.16 667.51, 816.26 634.03 M768.76 694.77 C781.34 680.3, 793.92 665.82, 815.99 640.43 M768.76 694.77 C780.87 680.84, 792.97 666.92, 815.99 640.43 M774.4 694.38 C786 681.03, 797.6 667.69, 816.39 646.08 M774.4 694.38 C783.39 684.03, 792.39 673.69, 816.39 646.08 M779.39 694.74 C787.61 685.27, 795.84 675.81, 816.13 652.47 M779.39 694.74 C788.7 684.03, 798.01 673.32, 816.13 652.47 M785.03 694.34 C793.97 684.06, 802.9 673.78, 815.87 658.87 M785.03 694.34 C792.93 685.26, 800.82 676.18, 815.87 658.87 M790.02 694.7 C798.66 684.76, 807.31 674.81, 816.26 664.51 M790.02 694.7 C796.03 687.79, 802.04 680.87, 816.26 664.51 M795.66 694.31 C801.22 687.92, 806.77 681.53, 816 670.91 M795.66 694.31 C801.86 687.18, 808.05 680.06, 816 670.91 M800.65 694.67 C805.79 688.75, 810.93 682.84, 816.39 676.55 M800.65 694.67 C806 688.52, 811.34 682.36, 816.39 676.55 M805.64 695.03 C809.52 690.56, 813.41 686.09, 816.13 682.95 M805.64 695.03 C808.95 691.21, 812.27 687.39, 816.13 682.95 M811.28 694.63 C812.93 692.74, 814.58 690.84, 815.87 689.35 M811.28 694.63 C812.85 692.83, 814.41 691.03, 815.87 689.35" stroke="#ced4da" stroke-width="0.5" fill="none"></path><path d="M0 0 C297.13 0, 594.25 0, 816 0 M816 0 C816 158.91, 816 317.83, 816 694.4 M816 694.4 C490.86 694.4, 165.73 694.4, 0 694.4 M0 694.4 C0 483.26, 0 272.12, 0 0" stroke="#000000" stroke-width="1.5" fill="none" stroke-dasharray="8 9"></path></g><g stroke-linecap="round" transform="translate(325.20001220703125 67.60000610351562) rotate(0 91 90.79998779296875)"><path d="M182 90.8 C182 93.77, 181.85 96.75, 181.56 99.7 C181.27 102.65, 180.83 105.6, 180.25 108.51 C179.67 111.42, 178.94 114.32, 178.08 117.16 C177.22 120, 176.21 122.81, 175.07 125.55 C173.94 128.29, 172.66 130.99, 171.25 133.6 C169.85 136.22, 168.32 138.78, 166.66 141.25 C165.01 143.71, 163.23 146.11, 161.34 148.4 C159.46 150.7, 157.45 152.91, 155.35 155.01 C153.24 157.1, 151.03 159.11, 148.73 160.99 C146.43 162.87, 144.03 164.65, 141.56 166.3 C139.08 167.95, 136.52 169.48, 133.9 170.88 C131.27 172.28, 128.57 173.55, 125.82 174.69 C123.08 175.82, 120.26 176.83, 117.42 177.69 C114.57 178.55, 111.67 179.28, 108.75 179.86 C105.84 180.43, 102.88 180.87, 99.92 181.16 C96.96 181.45, 93.97 181.6, 91 181.6 C88.03 181.6, 85.04 181.45, 82.08 181.16 C79.12 180.87, 76.16 180.43, 73.25 179.86 C70.33 179.28, 67.43 178.55, 64.58 177.69 C61.74 176.83, 58.92 175.82, 56.18 174.69 C53.43 173.55, 50.73 172.28, 48.1 170.88 C45.48 169.48, 42.92 167.95, 40.44 166.3 C37.97 164.65, 35.57 162.87, 33.27 160.99 C30.97 159.11, 28.76 157.1, 26.65 155.01 C24.55 152.91, 22.54 150.7, 20.66 148.4 C18.77 146.11, 16.99 143.71, 15.34 141.25 C13.68 138.78, 12.15 136.22, 10.75 133.6 C9.34 130.99, 8.06 128.29, 6.93 125.55 C5.79 122.81, 4.78 120, 3.92 117.16 C3.06 114.32, 2.33 111.42, 1.75 108.51 C1.17 105.6, 0.73 102.65, 0.44 99.7 C0.15 96.75, 0 93.77, 0 90.8 C0 87.83, 0.15 84.85, 0.44 81.9 C0.73 78.95, 1.17 76, 1.75 73.09 C2.33 70.18, 3.06 67.28, 3.92 64.44 C4.78 61.6, 5.79 58.79, 6.93 56.05 C8.06 53.31, 9.34 50.61, 10.75 48 C12.15 45.38, 13.68 42.82, 15.34 40.35 C16.99 37.89, 18.77 35.49, 20.66 33.2 C22.54 30.9, 24.55 28.69, 26.65 26.59 C28.76 24.5, 30.97 22.49, 33.27 20.61 C35.57 18.73, 37.97 16.95, 40.44 15.3 C42.92 13.65, 45.48 12.12, 48.1 10.72 C50.73 9.32, 53.43 8.05, 56.18 6.91 C58.92 5.78, 61.74 4.77, 64.58 3.91 C67.43 3.05, 70.33 2.32, 73.25 1.74 C76.16 1.17, 79.12 0.73, 82.08 0.44 C85.04 0.15, 88.03 0, 91 0 C93.97 0, 96.96 0.15, 99.92 0.44 C102.88 0.73, 105.84 1.17, 108.75 1.74 C111.67 2.32, 114.57 3.05, 117.42 3.91 C120.26 4.77, 123.08 5.78, 125.82 6.91 C128.57 8.05, 131.27 9.32, 133.9 10.72 C136.52 12.12, 139.08 13.65, 141.56 15.3 C144.03 16.95, 146.43 18.73, 148.73 20.61 C151.03 22.49, 153.24 24.5, 155.35 26.59 C157.45 28.69, 159.46 30.9, 161.34 33.2 C163.23 35.49, 165.01 37.89, 166.66 40.35 C168.32 42.82, 169.85 45.38, 171.25 48 C172.66 50.61, 173.94 53.31, 175.07 56.05 C176.21 58.79, 177.22 61.6, 178.08 64.44 C178.94 67.28, 179.67 70.18, 180.25 73.09 C180.83 76, 181.27 78.95, 181.56 81.9 C181.85 84.85, 181.93 89.32, 182 90.8 C182.07 92.28, 182.07 89.32, 182 90.8" stroke="none" stroke-width="0" fill="#40c057"></path><path d="M182 90.8 C182 93.77, 181.85 96.75, 181.56 99.7 C181.27 102.65, 180.83 105.6, 180.25 108.51 C179.67 111.42, 178.94 114.32, 178.08 117.16 C177.22 120, 176.21 122.81, 175.07 125.55 C173.94 128.29, 172.66 130.99, 171.25 133.6 C169.85 136.22, 168.32 138.78, 166.66 141.25 C165.01 143.71, 163.23 146.11, 161.34 148.4 C159.46 150.7, 157.45 152.91, 155.35 155.01 C153.24 157.1, 151.03 159.11, 148.73 160.99 C146.43 162.87, 144.03 164.65, 141.56 166.3 C139.08 167.95, 136.52 169.48, 133.9 170.88 C131.27 172.28, 128.57 173.55, 125.82 174.69 C123.08 175.82, 120.26 176.83, 117.42 177.69 C114.57 178.55, 111.67 179.28, 108.75 179.86 C105.84 180.43, 102.88 180.87, 99.92 181.16 C96.96 181.45, 93.97 181.6, 91 181.6 C88.03 181.6, 85.04 181.45, 82.08 181.16 C79.12 180.87, 76.16 180.43, 73.25 179.86 C70.33 179.28, 67.43 178.55, 64.58 177.69 C61.74 176.83, 58.92 175.82, 56.18 174.69 C53.43 173.55, 50.73 172.28, 48.1 170.88 C45.48 169.48, 42.92 167.95, 40.44 166.3 C37.97 164.65, 35.57 162.87, 33.27 160.99 C30.97 159.11, 28.76 157.1, 26.65 155.01 C24.55 152.91, 22.54 150.7, 20.66 148.4 C18.77 146.11, 16.99 143.71, 15.34 141.25 C13.68 138.78, 12.15 136.22, 10.75 133.6 C9.34 130.99, 8.06 128.29, 6.93 125.55 C5.79 122.81, 4.78 120, 3.92 117.16 C3.06 114.32, 2.33 111.42, 1.75 108.51 C1.17 105.6, 0.73 102.65, 0.44 99.7 C0.15 96.75, 0 93.77, 0 90.8 C0 87.83, 0.15 84.85, 0.44 81.9 C0.73 78.95, 1.17 76, 1.75 73.09 C2.33 70.18, 3.06 67.28, 3.92 64.44 C4.78 61.6, 5.79 58.79, 6.93 56.05 C8.06 53.31, 9.34 50.61, 10.75 48 C12.15 45.38, 13.68 42.82, 15.34 40.35 C16.99 37.89, 18.77 35.49, 20.66 33.2 C22.54 30.9, 24.55 28.69, 26.65 26.59 C28.76 24.5, 30.97 22.49, 33.27 20.61 C35.57 18.73, 37.97 16.95, 40.44 15.3 C42.92 13.65, 45.48 12.12, 48.1 10.72 C50.73 9.32, 53.43 8.05, 56.18 6.91 C58.92 5.78, 61.74 4.77, 64.58 3.91 C67.43 3.05, 70.33 2.32, 73.25 1.74 C76.16 1.17, 79.12 0.73, 82.08 0.44 C85.04 0.15, 88.03 0, 91 0 C93.97 0, 96.96 0.15, 99.92 0.44 C102.88 0.73, 105.84 1.17, 108.75 1.74 C111.67 2.32, 114.57 3.05, 117.42 3.91 C120.26 4.77, 123.08 5.78, 125.82 6.91 C128.57 8.05, 131.27 9.32, 133.9 10.72 C136.52 12.12, 139.08 13.65, 141.56 15.3 C144.03 16.95, 146.43 18.73, 148.73 20.61 C151.03 22.49, 153.24 24.5, 155.35 26.59 C157.45 28.69, 159.46 30.9, 161.34 33.2 C163.23 35.49, 165.01 37.89, 166.66 40.35 C168.32 42.82, 169.85 45.38, 171.25 48 C172.66 50.61, 173.94 53.31, 175.07 56.05 C176.21 58.79, 177.22 61.6, 178.08 64.44 C178.94 67.28, 179.67 70.18, 180.25 73.09 C180.83 76, 181.27 78.95, 181.56 81.9 C181.85 84.85, 181.93 89.32, 182 90.8 C182.07 92.28, 182.07 89.32, 182 90.8" stroke="#000000" stroke-width="2" fill="none"></path></g><g stroke-linecap="round" transform="translate(563.6001586914062 249.2000732421875) rotate(0 105 104.79998779296875)"><path d="M106 0 L210 105 L106 209.6 L0 105" stroke="none" stroke-width="0" fill="#228be6" fill-rule="evenodd"></path><path d="M106 0 C144.79 39.16, 183.57 78.32, 210 105 M106 0 C129.35 23.58, 152.71 47.16, 210 105 M210 105 C170.15 145.08, 130.3 185.16, 106 209.6 M210 105 C183.76 131.39, 157.53 157.77, 106 209.6 M106 209.6 C77.79 181.76, 49.58 153.92, 0 105 M106 209.6 C64.2 168.36, 22.41 127.11, 0 105 M0 105 C34.87 70.46, 69.74 35.92, 106 0 M0 105 C29.8 75.48, 59.6 45.96, 106 0" stroke="#000000" stroke-width="2" fill="none"></path></g><g stroke-linecap="round" transform="translate(334.40008544921875 474) rotate(0 82.5 82.39996337890625)"><path d="M0 0 L165 0 L165 164.8 L0 164.8" stroke="none" stroke-width="0" fill="#fa5252"></path><path d="M0 0 C52.89 0, 105.78 0, 165 0 M0 0 C49.2 0, 98.41 0, 165 0 M165 0 C165 52.89, 165 105.78, 165 164.8 M165 0 C165 52.07, 165 104.13, 165 164.8 M165 164.8 C119.29 164.8, 73.57 164.8, 0 164.8 M165 164.8 C122.17 164.8, 79.34 164.8, 0 164.8 M0 164.8 C0 124.53, 0 84.25, 0 0 M0 164.8 C0 109.4, 0 54, 0 0" stroke="#000000" stroke-width="2" fill="none"></path></g><g stroke-linecap="round" transform="translate(69.4000244140625 253.20001220703125) rotate(0 105 104.79998779296875)"><path d="M106 0 L210 105 L106 209.6 L0 105" stroke="none" stroke-width="0" fill="#15aabf" fill-rule="evenodd"></path><path d="M106 0 C139.54 33.87, 173.09 67.73, 210 105 M106 0 C130.35 24.59, 154.7 49.17, 210 105 M210 105 C187.58 127.55, 165.16 150.1, 106 209.6 M210 105 C172.27 142.94, 134.55 180.89, 106 209.6 M106 209.6 C71.44 175.49, 36.87 141.38, 0 105 M106 209.6 C72.29 176.33, 38.58 143.07, 0 105 M0 105 C40.76 64.63, 81.51 24.26, 106 0 M0 105 C24.6 80.64, 49.19 56.27, 106 0" stroke="#000000" stroke-width="2" fill="none"></path></g><g stroke-linecap="round"><g transform="translate(508.760068432304 168.7511410189602) rotate(0 57.80717736156953 61.53022099489303)"><path d="M0 0 C19.27 20.51, 96.35 102.55, 115.61 123.06 M0 0 C19.27 20.51, 96.35 102.55, 115.61 123.06" stroke="#000000" stroke-width="2" fill="none"></path></g><g transform="translate(508.760068432304 168.7511410189602) rotate(0 57.80717736156953 61.53022099489303)"><path d="M88.83 109.54 C94.24 112.27, 99.65 115, 115.61 123.06 M88.83 109.54 C95.27 112.79, 101.71 116.04, 115.61 123.06" stroke="#000000" stroke-width="2" fill="none"></path></g><g transform="translate(508.760068432304 168.7511410189602) rotate(0 57.80717736156953 61.53022099489303)"><path d="M103.79 95.49 C106.18 101.06, 108.56 106.62, 115.61 123.06 M103.79 95.49 C106.63 102.12, 109.47 108.74, 115.61 123.06" stroke="#000000" stroke-width="2" fill="none"></path></g></g><g stroke-linecap="round"><g transform="translate(619.458078554057 419.45813958921315) rotate(0 -58.32904538054413 58.95045748727637)"><path d="M0 0 C-19.44 19.65, -97.22 98.25, -116.66 117.9 M0 0 C-19.44 19.65, -97.22 98.25, -116.66 117.9" stroke="#000000" stroke-width="2" fill="none"></path></g><g transform="translate(619.458078554057 419.45813958921315) rotate(0 -58.32904538054413 58.95045748727637)"><path d="M-104.12 90.64 C-108.72 100.63, -113.31 110.63, -116.66 117.9 M-104.12 90.64 C-107.94 98.95, -111.76 107.25, -116.66 117.9" stroke="#000000" stroke-width="2" fill="none"></path></g><g transform="translate(619.458078554057 419.45813958921315) rotate(0 -58.32904538054413 58.95045748727637)"><path d="M-89.54 105.08 C-99.48 109.78, -109.42 114.48, -116.66 117.9 M-89.54 105.08 C-97.8 108.98, -106.06 112.89, -116.66 117.9" stroke="#000000" stroke-width="2" fill="none"></path></g></g><g stroke-linecap="round"><g transform="translate(330.79998779296875 558.7999877929688) rotate(0 -57.80139547814974 -64.59856790075645)"><path d="M0 0 C-19.27 -21.53, -96.34 -107.66, -115.6 -129.2 M0 0 C-19.27 -21.53, -96.34 -107.66, -115.6 -129.2" stroke="#000000" stroke-width="2" fill="none"></path></g><g transform="translate(330.79998779296875 558.7999877929688) rotate(0 -57.80139547814974 -64.59856790075645)"><path d="M-89.16 -115.03 C-99.07 -120.34, -108.97 -125.65, -115.6 -129.2 M-89.16 -115.03 C-94.97 -118.15, -100.79 -121.26, -115.6 -129.2" stroke="#000000" stroke-width="2" fill="none"></path></g><g transform="translate(330.79998779296875 558.7999877929688) rotate(0 -57.80139547814974 -64.59856790075645)"><path d="M-104.45 -101.35 C-108.63 -111.78, -112.81 -122.21, -115.6 -129.2 M-104.45 -101.35 C-106.9 -107.47, -109.36 -113.59, -115.6 -129.2" stroke="#000000" stroke-width="2" fill="none"></path></g></g><g stroke-linecap="round"><g transform="translate(218.89408547853077 292.49406106446827) rotate(0 53.05500504982683 -51.031371566131895)"><path d="M0 0 C17.69 -17.01, 88.43 -85.05, 106.11 -102.06 M0 0 C17.69 -17.01, 88.43 -85.05, 106.11 -102.06" stroke="#000000" stroke-width="2" fill="none"></path></g><g transform="translate(218.89408547853077 292.49406106446827) rotate(0 53.05500504982683 -51.031371566131895)"><path d="M92.91 -75.13 C96.3 -82.06, 99.7 -88.99, 106.11 -102.06 M92.91 -75.13 C97.41 -84.32, 101.92 -93.52, 106.11 -102.06" stroke="#000000" stroke-width="2" fill="none"></path></g><g transform="translate(218.89408547853077 292.49406106446827) rotate(0 53.05500504982683 -51.031371566131895)"><path d="M78.68 -89.92 C85.74 -93.04, 92.8 -96.17, 106.11 -102.06 M78.68 -89.92 C88.05 -94.06, 97.41 -98.21, 106.11 -102.06" stroke="#000000" stroke-width="2" fill="none"></path></g></g><g transform="translate(330.20001220703125 126.39999389648438) rotate(0 86 32)"><text x="86" y="26" font-family="Helvetica, Segoe UI Emoji" font-size="28px" fill="#000000" text-anchor="middle" style="white-space: pre;" direction="ltr">Active in </text><text x="86" y="58" font-family="Helvetica, Segoe UI Emoji" font-size="28px" fill="#000000" text-anchor="middle" style="white-space: pre;" direction="ltr">memory</text></g><g transform="translate(568.6001586914062 338.00006103515625) rotate(0 100 16)"><text x="100" y="26" font-family="Helvetica, Segoe UI Emoji" font-size="28px" fill="#000000" text-anchor="middle" style="white-space: pre;" direction="ltr">Deactivating</text></g><g transform="translate(339.40008544921875 540.3999633789062) rotate(0 77.5 16)"><text x="77.5" y="26" font-family="Helvetica, Segoe UI Emoji" font-size="28px" fill="#000000" text-anchor="middle" style="white-space: pre;" direction="ltr">Persisted</text></g><g transform="translate(74.4000244140625 342) rotate(0 100 16)"><text x="100" y="26" font-family="Helvetica, Segoe UI Emoji" font-size="28px" fill="#000000" text-anchor="middle" style="white-space: pre;" direction="ltr">Activating</text></g></svg>