<svg version="1.1" xmlns="http://www.w3.org/2000/svg" viewBox="0 0 1428.301550486731 770.2539406428265" width="2856.603100973462" height="1540.507881285653">
  <!-- svg-source:excalidraw -->
  
  <defs>
    <style>
      @font-face {
        font-family: "Virgil";
        src: url("https://excalidraw.com/Virgil.woff2");
      }
      @font-face {
        font-family: "Cascadia";
        src: url("https://excalidraw.com/Cascadia.woff2");
      }
    </style>
  </defs>
  <rect x="0" y="0" width="1428.301550486731" height="770.2539406428265" fill="#ffffff"></rect><g stroke-linecap="round" transform="translate(862.3015504867311 240.6983952597968) rotate(0 277.99999999999994 119.1111077202691)"><path d="M0 0 L556 0 L556 238.22 L0 238.22" stroke="none" stroke-width="0" fill="#40c057"></path><path d="M0 0 C173.48 0, 346.96 0, 556 0 M0 0 C125.23 0, 250.45 0, 556 0 M556 0 C556 68.99, 556 137.98, 556 238.22 M556 0 C556 86.9, 556 173.8, 556 238.22 M556 238.22 C342.2 238.22, 128.4 238.22, 0 238.22 M556 238.22 C426.22 238.22, 296.43 238.22, 0 238.22 M0 238.22 C0 151.15, 0 64.07, 0 0 M0 238.22 C0 156.64, 0 75.05, 0 0" stroke="#000" stroke-width="4" fill="none"></path></g><g transform="translate(867.3015504867311 338.3095029800659) rotate(0 272.99999999999994 21.5)"><text x="273" y="34" font-family="Cascadia, Segoe UI Emoji" font-size="36px" fill="#fff" text-anchor="middle" style="white-space: pre;" direction="ltr">IConfiguration</text></g><g stroke-linecap="round" transform="translate(10.333326551649293 10) rotate(0 305 72.49999999999999)"><path d="M0 0 L610 0 L610 145 L0 145" stroke="none" stroke-width="0" fill="#e64980"></path><path d="M0 0 C237.67 0, 475.34 0, 610 0 M0 0 C206.25 0, 412.5 0, 610 0 M610 0 C610 33.83, 610 67.67, 610 145 M610 0 C610 45.4, 610 90.81, 610 145 M610 145 C385.44 145, 160.88 145, 0 145 M610 145 C479.62 145, 349.24 145, 0 145 M0 145 C0 90.3, 0 35.61, 0 0 M0 145 C0 91.29, 0 37.58, 0 0" stroke="#000" stroke-width="4" fill="none"></path></g><g transform="translate(15.333326551649293 65.5) rotate(0 300 17)"><text x="300" y="27" font-family="Cascadia, Segoe UI Emoji" font-size="28px" fill="#fff" text-anchor="middle" style="white-space: pre;" direction="ltr">appsettings.{Environment}.json</text></g><g stroke-linecap="round" transform="translate(10 210.47621033683683) rotate(0 305.5 72.5)"><path d="M0 0 L611 0 L611 145 L0 145" stroke="none" stroke-width="0" fill="#228be6"></path><path d="M0 0 C156.31 0, 312.63 0, 611 0 M0 0 C226.38 0, 452.76 0, 611 0 M611 0 C611 30.78, 611 61.56, 611 145 M611 0 C611 55.03, 611 110.06, 611 145 M611 145 C375.75 145, 140.51 145, 0 145 M611 145 C389.84 145, 168.68 145, 0 145 M0 145 C0 110.59, 0 76.18, 0 0 M0 145 C0 105.53, 0 66.06, 0 0" stroke="#000" stroke-width="4" fill="none"></path></g><g stroke-linecap="round" transform="translate(11.33334592788924 413.0317184206043) rotate(0 304.5 72.5)"><path d="M0 0 L609 0 L609 145 L0 145" stroke="none" stroke-width="0" fill="#be4bdb"></path><path d="M0 0 C228.25 0, 456.5 0, 609 0 M0 0 C147.19 0, 294.39 0, 609 0 M609 0 C609 30.72, 609 61.44, 609 145 M609 0 C609 49.79, 609 99.59, 609 145 M609 145 C399.54 145, 190.07 145, 0 145 M609 145 C482.46 145, 355.92 145, 0 145 M0 145 C0 92.67, 0 40.34, 0 0 M0 145 C0 96.05, 0 47.1, 0 0" stroke="#000" stroke-width="4" fill="none"></path></g><g transform="translate(15 265.97621033683686) rotate(0 300.5 17)"><text x="300.5" y="27" font-family="Cascadia, Segoe UI Emoji" font-size="28px" fill="#fff" text-anchor="middle" style="white-space: pre;" direction="ltr">Environment variables</text></g><g transform="translate(16.33334592788924 468.5317184206043) rotate(0 299.5 17)"><text x="299.5" y="27" font-family="Cascadia, Segoe UI Emoji" font-size="28px" fill="#fff" text-anchor="middle" style="white-space: pre;" direction="ltr">Command-line arguments</text></g><g stroke-linecap="round" transform="translate(12.968217153397859 615.2539406428265) rotate(0 303 72.5)"><path d="M0 0 L606 0 L606 145 L0 145" stroke="none" stroke-width="0" fill="#7950f2"></path><path d="M0 0 C183.67 0, 367.34 0, 606 0 M0 0 C132.34 0, 264.69 0, 606 0 M606 0 C606 35.62, 606 71.23, 606 145 M606 0 C606 50.14, 606 100.28, 606 145 M606 145 C380.01 145, 154.03 145, 0 145 M606 145 C408.78 145, 211.56 145, 0 145 M0 145 C0 115.63, 0 86.27, 0 0 M0 145 C0 115.5, 0 86, 0 0" stroke="#000" stroke-width="4" fill="none"></path></g><g transform="translate(17.96821715339786 670.7539406428265) rotate(0 298 17)"><text x="298" y="27" font-family="Cascadia, Segoe UI Emoji" font-size="28px" fill="#fff" text-anchor="middle" style="white-space: pre;" direction="ltr">*Other sources</text></g><g stroke-linecap="round"><g transform="translate(633.7855555253907 98.51623285134528) rotate(0 110.25492302175451 87.7452470422021)"><path d="M0 0 C36.75 29.25, 183.76 146.24, 220.51 175.49 M0 0 C36.75 29.25, 183.76 146.24, 220.51 175.49" stroke="#000" stroke-width="4" fill="none"></path></g><g transform="translate(633.7855555253907 98.51623285134528) rotate(0 110.25492302175451 87.7452470422021)"><path d="M192.06 165.96 C200.55 168.81, 209.04 171.65, 220.51 175.49 M192.06 165.96 C199.69 168.52, 207.33 171.08, 220.51 175.49" stroke="#000" stroke-width="4" fill="none"></path></g><g transform="translate(633.7855555253907 98.51623285134528) rotate(0 110.25492302175451 87.7452470422021)"><path d="M204.84 149.91 C209.52 157.54, 214.19 165.18, 220.51 175.49 M204.84 149.91 C209.05 156.77, 213.25 163.64, 220.51 175.49" stroke="#000" stroke-width="4" fill="none"></path></g></g><g stroke-linecap="round"><g transform="translate(634.1844104260314 299.61583043488906) rotate(0 108.44443575292246 23.572825628682835)"><path d="M0 0 C36.15 7.86, 180.74 39.29, 216.89 47.15 M0 0 C36.15 7.86, 180.74 39.29, 216.89 47.15" stroke="#000" stroke-width="4" fill="none"></path></g><g transform="translate(634.1844104260314 299.61583043488906) rotate(0 108.44443575292246 23.572825628682835)"><path d="M187.16 51.18 C196.05 49.98, 204.94 48.77, 216.89 47.15 M187.16 51.18 C195.37 50.07, 203.59 48.95, 216.89 47.15" stroke="#000" stroke-width="4" fill="none"></path></g><g transform="translate(634.1844104260314 299.61583043488906) rotate(0 108.44443575292246 23.572825628682835)"><path d="M191.52 31.13 C199.11 35.92, 206.69 40.71, 216.89 47.15 M191.52 31.13 C198.53 35.56, 205.54 39.98, 216.89 47.15" stroke="#000" stroke-width="4" fill="none"></path></g></g><g stroke-linecap="round"><g transform="translate(629.9822666360765 476.5416593268918) rotate(0 111.75730308517359 -45.56584248002571)"><path d="M0 0 C37.25 -15.19, 186.26 -75.94, 223.51 -91.13 M0 0 C37.25 -15.19, 186.26 -75.94, 223.51 -91.13" stroke="#000" stroke-width="4" fill="none"></path></g><g transform="translate(629.9822666360765 476.5416593268918) rotate(0 111.75730308517359 -45.56584248002571)"><path d="M201.28 -70.99 C209.81 -78.71, 218.34 -86.44, 223.51 -91.13 M201.28 -70.99 C208.17 -77.23, 215.06 -83.47, 223.51 -91.13" stroke="#000" stroke-width="4" fill="none"></path></g><g transform="translate(629.9822666360765 476.5416593268918) rotate(0 111.75730308517359 -45.56584248002571)"><path d="M193.54 -89.99 C205.04 -90.43, 216.54 -90.87, 223.51 -91.13 M193.54 -89.99 C202.83 -90.34, 212.12 -90.7, 223.51 -91.13" stroke="#000" stroke-width="4" fill="none"></path></g></g><g stroke-linecap="round"><g transform="translate(631.5713219153689 676.7511123174437) rotate(0 111.08531553827555 -119.55843571920144)"><path d="M0 0 C37.03 -39.85, 185.14 -199.26, 222.17 -239.12 M0 0 C37.03 -39.85, 185.14 -199.26, 222.17 -239.12" stroke="#000" stroke-width="4" fill="none"></path></g><g transform="translate(631.5713219153689 676.7511123174437) rotate(0 111.08531553827555 -119.55843571920144)"><path d="M210.5 -211.48 C213.32 -218.16, 216.14 -224.83, 222.17 -239.12 M210.5 -211.48 C213.55 -218.71, 216.61 -225.94, 222.17 -239.12" stroke="#000" stroke-width="4" fill="none"></path></g><g transform="translate(631.5713219153689 676.7511123174437) rotate(0 111.08531553827555 -119.55843571920144)"><path d="M195.47 -225.45 C201.92 -228.75, 208.37 -232.05, 222.17 -239.12 M195.47 -225.45 C202.45 -229.03, 209.44 -232.6, 222.17 -239.12" stroke="#000" stroke-width="4" fill="none"></path></g></g></svg>