<svg version="1.1" xmlns="http://www.w3.org/2000/svg" viewBox="0 0 1416.097710325264 659.7933224750045" width="2832.195420650528" height="1319.586644950009">
  <!-- svg-source:excalidraw -->
  
  <defs>
    <style>
      @font-face {
        font-family: "Virgil";
        src: url("https://excalidraw.com/Virgil.woff2");
      }
      @font-face {
        font-family: "Cascadia";
        src: url("https://excalidraw.com/Cascadia.woff2");
      }
    </style>
  </defs>
  <rect x="0" y="0" width="1416.097710325264" height="659.7933224750045" fill="#ffffff"></rect><g stroke-linecap="round" transform="translate(10 227.94611336594093) rotate(0 277.99999999999994 119.1111077202691)"><path d="M0 0 L556 0 L556 238.22 L0 238.22" stroke="none" stroke-width="0" fill="#40c057"></path><path d="M0 0 C173.48 0, 346.96 0, 556 0 M0 0 C125.23 0, 250.45 0, 556 0 M556 0 C556 68.99, 556 137.98, 556 238.22 M556 0 C556 86.9, 556 173.8, 556 238.22 M556 238.22 C342.2 238.22, 128.4 238.22, 0 238.22 M556 238.22 C426.22 238.22, 296.43 238.22, 0 238.22 M0 238.22 C0 151.15, 0 64.07, 0 0 M0 238.22 C0 156.64, 0 75.05, 0 0" stroke="#000" stroke-width="4" fill="none"></path></g><g transform="translate(15 325.55722108621) rotate(0 272.99999999999994 21.5)"><text x="273" y="34" font-family="Cascadia, Segoe UI Emoji" font-size="36px" fill="#fff" text-anchor="middle" style="white-space: pre;" direction="ltr">IConfiguration</text></g><g stroke-linecap="round" transform="translate(789.0547743142846 10) rotate(0 305 72.49999999999999)"><path d="M0 0 L610 0 L610 145 L0 145" stroke="none" stroke-width="0" fill="#15aabf"></path><path d="M0 0 C237.67 0, 475.34 0, 610 0 M0 0 C206.25 0, 412.5 0, 610 0 M610 0 C610 33.83, 610 67.67, 610 145 M610 0 C610 45.4, 610 90.81, 610 145 M610 145 C385.44 145, 160.88 145, 0 145 M610 145 C479.62 145, 349.24 145, 0 145 M0 145 C0 90.3, 0 35.61, 0 0 M0 145 C0 91.29, 0 37.58, 0 0" stroke="#000" stroke-width="4" fill="none"></path></g><g transform="translate(794.0547743142846 65.5) rotate(0 300 17)"><text x="300" y="27" font-family="Cascadia, Segoe UI Emoji" font-size="28px" fill="#fff" text-anchor="middle" style="white-space: pre;" direction="ltr">IOptions&lt;TOptions&gt;</text></g><g stroke-linecap="round" transform="translate(795.0977103252638 261.4855811436619) rotate(0 305.5 72.5)"><path d="M0 0 L611 0 L611 145 L0 145" stroke="none" stroke-width="0" fill="#fd7e14"></path><path d="M0 0 C156.31 0, 312.63 0, 611 0 M0 0 C226.38 0, 452.76 0, 611 0 M611 0 C611 30.78, 611 61.56, 611 145 M611 0 C611 55.03, 611 110.06, 611 145 M611 145 C375.75 145, 140.51 145, 0 145 M611 145 C389.84 145, 168.68 145, 0 145 M0 145 C0 110.59, 0 76.18, 0 0 M0 145 C0 105.53, 0 66.06, 0 0" stroke="#000" stroke-width="4" fill="none"></path></g><g stroke-linecap="round" transform="translate(795.1557453650902 504.7933224750045) rotate(0 304.5 72.5)"><path d="M0 0 L609 0 L609 145 L0 145" stroke="none" stroke-width="0" fill="#e64980"></path><path d="M0 0 C228.25 0, 456.5 0, 609 0 M0 0 C147.19 0, 294.39 0, 609 0 M609 0 C609 30.72, 609 61.44, 609 145 M609 0 C609 49.79, 609 99.59, 609 145 M609 145 C399.54 145, 190.07 145, 0 145 M609 145 C482.46 145, 355.92 145, 0 145 M0 145 C0 92.67, 0 40.34, 0 0 M0 145 C0 96.05, 0 47.1, 0 0" stroke="#000" stroke-width="4" fill="none"></path></g><g transform="translate(800.0977103252638 316.9855811436619) rotate(0 300.5 17)"><text x="300.5" y="27" font-family="Cascadia, Segoe UI Emoji" font-size="28px" fill="#fff" text-anchor="middle" style="white-space: pre;" direction="ltr">IOptionsSnapshot&lt;TOptions&gt;</text></g><g transform="translate(800.1557453650902 560.2933224750045) rotate(0 299.5 17)"><text x="299.5" y="27" font-family="Cascadia, Segoe UI Emoji" font-size="28px" fill="#fff" text-anchor="middle" style="white-space: pre;" direction="ltr">IOptionsMonitor&lt;TOptions&gt;</text></g><g stroke-linecap="round"><g transform="translate(772.311631780631 84.28686686735486) rotate(0 -96.60231424039705 98.96951562521079)"><path d="M0 0 C-32.2 32.99, -161 164.95, -193.2 197.94 M0 0 C-32.2 32.99, -161 164.95, -193.2 197.94" stroke="#000" stroke-width="4" fill="none"></path></g><g transform="translate(772.311631780631 84.28686686735486) rotate(0 -96.60231424039705 98.96951562521079)"><path d="M-12.35 27.34 C-8.66 19.18, -4.98 11.02, 0 0 M-12.35 27.34 C-9.04 20.01, -5.72 12.67, 0 0" stroke="#000" stroke-width="4" fill="none"></path></g><g transform="translate(772.311631780631 84.28686686735486) rotate(0 -96.60231424039705 98.96951562521079)"><path d="M-27.03 13.01 C-18.97 9.13, -10.9 5.24, 0 0 M-27.03 13.01 C-19.78 9.52, -12.53 6.03, 0 0" stroke="#000" stroke-width="4" fill="none"></path></g></g><g stroke-linecap="round"><g transform="translate(781.9132998992326 345.7729008031574) rotate(0 -102.34251567218894 0)"><path d="M0 0 C-34.11 0, -170.57 0, -204.69 0 M0 0 C-34.11 0, -170.57 0, -204.69 0" stroke="#000" stroke-width="4" fill="none"></path></g><g transform="translate(781.9132998992326 345.7729008031574) rotate(0 -102.34251567218894 0)"><path d="M-28.19 10.26 C-19.76 7.19, -11.33 4.12, 0 0 M-28.19 10.26 C-20.4 7.43, -12.62 4.59, 0 0" stroke="#000" stroke-width="4" fill="none"></path></g><g transform="translate(781.9132998992326 345.7729008031574) rotate(0 -102.34251567218894 0)"><path d="M-28.19 -10.26 C-19.76 -7.19, -11.33 -4.12, 0 0 M-28.19 -10.26 C-20.4 -7.43, -12.62 -4.59, 0 0" stroke="#000" stroke-width="4" fill="none"></path></g></g><g stroke-linecap="round"><g transform="translate(776.6740644246812 574.2596971792547) rotate(0 -97.10895529312188 -83.91549229354149)"><path d="M0 0 C-32.37 -27.97, -161.85 -139.86, -194.22 -167.83 M0 0 C-32.37 -27.97, -161.85 -139.86, -194.22 -167.83" stroke="#000" stroke-width="4" fill="none"></path></g><g transform="translate(776.6740644246812 574.2596971792547) rotate(0 -97.10895529312188 -83.91549229354149)"><path d="M-28.04 -10.67 C-17.28 -6.58, -6.53 -2.48, 0 0 M-28.04 -10.67 C-19.35 -7.36, -10.66 -4.06, 0 0" stroke="#000" stroke-width="4" fill="none"></path></g><g transform="translate(776.6740644246812 574.2596971792547) rotate(0 -97.10895529312188 -83.91549229354149)"><path d="M-14.62 -26.2 C-9.01 -16.15, -3.4 -6.1, 0 0 M-14.62 -26.2 C-10.09 -18.08, -5.56 -9.96, 0 0" stroke="#000" stroke-width="4" fill="none"></path></g></g></svg>