<svg width="400" height="140" xmlns="http://www.w3.org/2000/svg">
 <title>swimlane-docker-container-support</title>

 <g>
  <title>background</title>
  <rect fill="none" id="canvas_background" height="142" width="402" y="-1" x="-1"/>
 </g>
 <g>
  <title>Layer 1</title>
  <g stroke="null" id="svg_71">
   <path stroke="null" id="svg_1" fill="#bfe1f7" d="m184.138985,114.382654l29.712557,0a0.842193,0.653911 0 0 0 0,-1.307823l-29.476743,0a0.842193,0.653911 0 1 0 0,1.307823"/>
   <path stroke="null" id="svg_2" fill="#9dccef" d="m342.088286,115.690477l-117.544828,0a1.347508,1.046258 0 0 0 -1.09485,0.435941l-73.916441,0a1.391864,1.080698 0 0 0 -1.307644,0.647808a1.412076,1.096391 0 0 0 1.291362,1.531896l24.613922,0a0.842193,0.653911 0 0 1 0,1.307823l-3.193595,0a3.16496,2.457399 0 0 0 -3.144186,1.903754a3.091408,2.400291 0 0 0 3.025717,2.891596l163.309577,0a3.164399,2.456963 0 0 0 3.144186,-1.903754a3.091408,2.400291 0 0 0 -3.025717,-2.891596l-1.481698,0c-1.235216,-0.030516 -1.684385,-1.743764 -0.031442,-1.743764l9.304544,0a1.435096,1.114265 0 0 0 1.409269,-0.807799a1.403654,1.089852 0 0 0 -1.358176,-1.371906z"/>
   <path stroke="null" id="svg_3" fill="none" d="m142.719951,116.126418l-2.925216,0a1.391864,1.080698 0 0 0 -1.307644,0.647808a1.412076,1.096391 0 0 0 1.291362,1.531896l2.925777,0a1.391864,1.080698 0 0 0 1.307083,-0.647808a1.412076,1.096391 0 0 0 -1.291362,-1.531896z"/>
   <rect stroke="null" id="svg_4" fill="#c2c2c2" height="7.410996" width="2.245847" y="35.041404" x="259.374862"/>
   <rect stroke="null" id="svg_5" fill="#c78e00" height="8.282878" width="7.860465" y="63.377565" x="267.796789"/>
   <path stroke="null" id="svg_6" fill="#b2b2b2" d="m230.49776,59.904859l16.223438,7.954614a2.32782,1.807411 0 0 0 -0.236937,-2.385469l-8.499408,-6.40528a4.753897,3.691112 0 0 0 -1.010631,-0.577622l2.143661,-2.778252a3.761794,2.920804 0 0 0 3.861734,-0.701865l2.34298,-1.819182l2.031369,-1.577234l1.130784,-0.879293l23.782959,0l1.131907,0.879293l2.031369,1.577234l2.343541,1.819182a3.761794,2.920804 0 0 0 3.861734,0.701865l2.143661,2.778252a4.711787,3.658416 0 0 0 -1.010631,0.577622l-8.498285,6.40528a2.328382,1.807847 0 0 0 -0.236937,2.385469l16.221753,-7.954614l-0.300944,-0.328699a4.73986,3.680213 0 0 0 -4.23286,-1.535384l-2.455834,-3.182369a3.761794,2.920804 0 0 0 0.171246,-3.679777c-3.404143,-3.489707 -6.337219,-6.439719 -7.048591,-6.992493a4.299113,3.338 0 0 0 -6.418069,0.112473a4.25195,3.301381 0 0 0 -0.790538,0.952095l-5.929598,-2.15442a2.859525,2.220247 0 0 0 0.016282,-0.23628a2.938129,2.281279 0 0 0 -2.938129,-2.280843a0.336877,0.261565 0 0 0 -0.148787,0.029208c-2.756216,1.119932 -2.871877,1.861032 -2.763515,2.537176l-5.834711,2.118673a4.435548,3.443933 0 0 0 -7.218714,-1.079826c-0.711372,0.552773 -3.643887,3.502785 -7.048591,6.992493a3.761794,2.920804 0 0 0 0.171807,3.679777l-2.456395,3.182369a4.738737,3.679341 0 0 0 -4.232299,1.535384l-0.299821,0.330443zm38.642606,-13.408671a4.566369,3.545508 0 0 0 0.951678,2.495326l-19.433876,0a4.565807,3.545072 0 0 0 1.249814,-2.146137l6.45681,-2.344926a2.925777,2.271688 0 0 0 3.981325,-0.034439l6.496674,2.359748"/>
   <path stroke="null" id="svg_7" fill="#b2b2b2" d="m250.028208,46.727673a2.600129,2.018842 0 1 1 -2.599568,-2.017971a2.599568,2.018407 0 0 1 2.599568,2.017971"/>
   <path stroke="null" id="svg_8" fill="#c2c2c2" d="m241.702291,53.064946a1.651259,1.282102 0 1 1 -1.651259,-1.281666a1.651259,1.282102 0 0 1 1.651259,1.281666"/>
   <path stroke="null" id="svg_9" fill="#d4e6f4" d="m359.876518,103.484131l7.860465,0l0,3.051587l-21.897009,0l0,-9.15476l14.036544,0l0,6.103173zm-330.139518,-8.718819l0,5.667232l40.425247,0l0,-1.307823l8.421926,0l0,-10.462582l-11.229235,0l0,5.667232l-10.340441,0l-1.515947,-21.686318a10.619488,8.245387 0 0 1 -1.61701,1.022717l0,27.202714l-1.122924,0l0,-26.856577a11.470664,8.906273 0 0 1 -4.491694,0.885396l0,25.971181l-0.561462,0l0,-25.971181a11.473471,8.908453 0 0 1 -4.491694,-0.885396l0,26.856577l-1.122924,0l0,-27.344831a10.537514,8.181739 0 0 1 -1.576023,-1.027949l-1.927498,28.37278l-8.850322,-6.103173zm283.538192,-27.464279l-5.859976,0l-4.884717,2.615646l10.741325,0l0.003369,-2.615646zm-17.405315,10.898523l0,-2.615646l17.966777,0l0,2.615646l-17.966777,0zm14.98766,-12.642287l2.417654,-1.296052l0,7.399225l-2.417654,-6.103173zm2.417654,5.667232l0,2.615646l-18.931929,0l4.884717,-2.615646l14.047212,0zm-146.541521,16.565756l0,11.334464l12.913621,0l0,1.307823l116.222586,0l0,-1.743764l17.966777,0l0,1.743764l26.950165,0l0,0.435941l-6.737541,0.435941l0,-17.334755a6.611774,5.13364 0 0 0 -5.877943,-5.170259a6.500604,5.047324 0 0 0 -7.035677,5.073481l0,17.431534l-7.299003,0l0,-15.257933l-17.966777,0l0,2.179705l17.966777,0l0,1.743764l-17.966777,0l0,-1.743764l-14.036544,0l0,-3.487527l-2.245847,0l0,-7.846937l-6.176079,0l0,7.846937l-2.807309,0l0,11.090773l-7.860465,-1.280794l0,-5.88651l-17.405315,0l0,6.539114l-13.475082,0l0,-12.642287l-2.807309,0l0,-14.386051l-1.684385,0l0,-17.437637l-1.473276,0l-0.772571,5.388666l0,-0.157375l-5.321535,0l-0.867458,-5.231291l-1.11001,0l0,17.437637l-1.684385,0l0,14.386051l-2.807309,0l0,11.770405l-6.737541,0l0,-14.386051l-11.790697,0l0,0.871882l-8.983388,0l0,2.179705l8.983388,0l0,1.307823l-8.983388,0l0,2.179705l8.983388,0l0,1.307823l-8.983388,0l0,1.743764l8.983388,0l0,1.307823l-8.983388,0l0,2.179705l8.983388,0l0,1.307823l-8.983388,0l0,-0.435941l-19.0897,-6.103173zm129.136206,6.975055l17.966777,0l0,1.743764l-17.966777,0l0,-1.743764zm0,-4.359409l17.966777,0l0,1.743764l-17.966777,0l0,-1.743764zm0,-3.923468l17.966777,0l0,1.743764l-17.966777,0l0,-1.743764zm-92.641191,6.103173l1.684385,0l0,3.051587l-1.684385,0l0,-3.051587zm0,-4.359409l1.684385,0l0,3.051587l-1.684385,0l0,-3.051587zm0,-4.359409l1.684385,0l0,3.051587l-1.684385,0l0,-3.051587zm0,-3.923468l1.684385,0l0,3.051587l-1.684385,0l0,-3.051587zm0,-4.359409l1.684385,0l0,3.051587l-1.684385,0l0,-3.051587zm-3.368771,17.001696l1.684385,0l0,3.051587l-1.684385,0l0,-3.051587zm0,-4.359409l1.684385,0l0,3.051587l-1.684385,0l0,-3.051587zm0,-4.359409l1.684385,0l0,3.051587l-1.684385,0l0,-3.051587zm0,-3.923468l1.684385,0l0,3.051587l-1.684385,0l0,-3.051587zm0,-4.359409l1.684385,0l0,3.051587l-1.684385,0l0,-3.051587zm-3.368771,17.001696l1.684385,0l0,3.051587l-1.684385,0l0,-3.051587zm0,-4.359409l1.684385,0l0,3.051587l-1.684385,0l0,-3.051587zm0,-4.359409l1.684385,0l0,3.051587l-1.684385,0l0,-3.051587zm0,-3.923468l1.684385,0l0,3.051587l-1.684385,0l0,-3.051587zm0,-4.359409l1.684385,0l0,3.051587l-1.684385,0l0,-3.051587zm-10.667774,17.873578l8.983388,0l0,1.307823l-8.983388,0l0,-1.307823zm0,-3.487527l8.983388,0l0,1.307823l-8.983388,0l0,-1.307823zm0,-18.309519l8.983388,0l0,1.743764l-8.983388,0l0,-1.743764zm0,-3.487527l8.983388,0l0,1.743764l-8.983388,0l0,-1.743764zm0,-3.051587l8.983388,0l0,1.743764l-8.983388,0l0,-1.743764zm0,-3.923468l8.983388,0l0,2.179705l-8.983388,0l0,-2.179705z"/>
   <path stroke="null" id="svg_10" fill="#b2b2b2" d="m249.830012,26.322585l6.712837,5.558247a5.422598,4.210318 0 0 0 7.910435,0l6.712275,-5.558247l0,-5.255704a6.706099,5.206879 0 0 0 -6.706099,-5.206879l-7.922787,0a6.706661,5.207314 0 0 0 -6.706661,5.206879l0,5.255704z"/>
   <path stroke="null" id="svg_11" fill="#c2c2c2" d="m250.029331,46.727673a2.600129,2.018842 0 1 1 -2.599568,-2.017971a2.599568,2.018407 0 0 1 2.599568,2.017971"/>
   <path stroke="null" id="svg_12" fill="#c2c2c2" d="m259.153646,42.907522a1.175701,0.91286 0 1 0 1.174578,-0.912424a1.174017,0.911552 0 0 0 -1.174578,0.912424"/>
   <rect stroke="null" id="svg_13" fill="#b2b2b2" height="2.179705" width="20.774085" y="34.169522" x="249.830012"/>
   <path stroke="null" id="svg_14" fill="#c2c2c2" d="m260.217055,27.256371a5.872329,4.559506 0 0 0 -5.895349,4.540761l0,3.244272l11.790697,0l0,-3.244272a5.871767,4.55907 0 0 0 -5.895349,-4.540761m0.112292,5.770986a2.408671,1.870187 0 1 1 2.408671,-1.870187a2.408671,1.870187 0 0 1 -2.408671,1.870187"/>
   <path stroke="null" id="svg_15" fill="#c2c2c2" d="m270.722004,46.727673a2.600129,2.018842 0 1 0 2.599568,-2.017971a2.599568,2.018407 0 0 0 -2.599568,2.017971"/>
   <path stroke="null" id="svg_16" fill="#c2c2c2" d="m279.047921,53.064946a1.651259,1.282102 0 1 0 1.651259,-1.281666a1.651259,1.282102 0 0 0 -1.651259,1.281666"/>
   <path stroke="null" id="svg_17" fill="#c2c2c2" d="m194.739945,12.387297a4.822395,3.744297 0 0 0 4.011083,4.282248l60.646293,7.438896a4.821834,3.743861 0 0 0 1.504718,-7.395738l-60.646854,-7.439332a4.823518,3.745169 0 0 0 -5.515239,3.113926m64.981339,10.252023a2.804502,2.177525 0 1 1 2.80394,-2.177089a2.80394,2.177089 0 0 1 -2.80394,2.177089"/>
   <path stroke="null" id="svg_18" fill="#737373" d="m140.841861,52.479041l54.528044,-42.242677a6.165973,4.787503 0 0 1 7.90875,-0.594187a6.050312,4.6977 0 0 1 0.777063,7.158586l-46.055024,35.678278l24.453906,0l0,49.697267l-106.677736,0l0,-49.697267l65.064997,0z"/>
   <path stroke="null" id="svg_19" fill="#b2b2b2" d="m140.944609,52.479041l54.372519,-42.217392a6.157551,4.780964 0 0 1 7.916611,-0.594623a6.055365,4.701623 0 0 1 0.757973,7.145944l-45.933187,35.666072l-17.113916,0z"/>
   <rect stroke="null" id="svg_20" fill="#ffb900" height="43.594093" width="92.07973" y="55.530628" x="83.075868"/>
   <path stroke="null" id="svg_21" fill="#939393" d="m64.547629,106.535717l129.083429,0a3.98301,3.092565 0 0 0 3.98301,-3.092565l0,-1.702785l-136.996671,0l0,1.569387a4.068913,3.159264 0 0 0 3.977957,3.225963"/>
   <path stroke="null" id="svg_22" fill="#d4e6f4" d="m64.108566,29.399021a4.458568,3.461807 0 0 1 1.546827,0.213175a11.709285,9.091548 0 0 1 1.173455,-6.441463a10.077677,7.824704 0 0 1 5.06607,-3.571664c7.735259,-2.470477 15.144308,1.508792 15.925302,7.036087a6.896996,5.355098 0 0 1 10.910886,4.167595a3.934724,3.055074 0 0 1 3.619183,-0.053621a3.327222,2.583386 0 0 1 1.616448,1.245047a3.842644,2.98358 0 0 1 -3.394036,4.35505l-36.687035,0a4.117199,3.196755 0 0 1 -3.700594,-1.729378a4.52089,3.510196 0 0 1 3.923495,-5.220829"/>
   <path stroke="null" id="svg_23" fill="#fff" d="m102.774754,75.836757a10.476315,8.134222 0 0 1 4.514714,0.789925a19.507989,15.146768 0 0 1 38.409599,-3.356745a13.506524,10.486995 0 1 1 8.100209,18.87973l-50.787024,0c-5.475937,0 -10.218604,-3.179753 -10.700338,-7.414919a10.506634,8.157763 0 0 1 10.46284,-8.89799"/>
   <polygon stroke="null" id="svg_24" fill="#b2b2b2" points="281.2718505859375,96.50907135009766 281.2718505859375,94.3293685913086 277.9031066894531,94.3293685913086 277.9031066894531,92.58560943603516 287.44793701171875,92.58560943603516 287.44793701171875,93.38251495361328 287.44793701171875,94.17854309082031 287.44793701171875,96.48640441894531 287.44793701171875,97.82736206054688 287.44793701171875,109.1513671875 272.8499450683594,109.1513671875 272.8499450683594,96.50907135009766 281.2718505859375,96.50907135009766 "/>
   <rect stroke="null" id="svg_25" fill="#737373" height="6.103173" width="10.667774" y="90.405903" x="287.44795"/>
   <rect stroke="null" id="svg_26" fill="#b2b2b2" height="6.539114" width="3.930232" y="90.405903" x="286.886489"/>
   <rect stroke="null" id="svg_27" fill="#737373" height="9.590701" width="32.003321" y="109.151363" x="290.816721"/>
   <path stroke="null" id="svg_28" fill="#939393" d="m280.148947,109.151363l0,-4.359409l6.737541,0l0,-8.282878l21.335547,0l0,8.282878l6.737541,0l0,4.359409l-24.142856,0l0,9.590701l-67.049203,0a25.378072,19.70453 0 0 1 -20.934663,-8.802519l-0.455345,-0.788181l77.771438,0z"/>
   <polygon stroke="null" id="svg_29" fill="#fff" points="208.8433074951172,104.79195404052734 208.8433074951172,102.61225128173828 216.14230346679688,102.581298828125 216.14230346679688,104.79195404052734 222.87985229492188,104.79195404052734 222.87985229492188,102.61225128173828 225.1256866455078,102.61225128173828 225.1256866455078,100.43254089355469 234.67054748535156,100.43254089355469 234.67054748535156,102.61225128173828 245.22152709960938,102.61225128173828 268.50927734375,102.61225128173828 275.0525817871094,103.92007446289062 280.71038818359375,103.92007446289062 280.71038818359375,109.1513671875 205.4745330810547,109.15180206298828 205.4745330810547,104.79195404052734 208.8433074951172,104.79195404052734 "/>
   <rect stroke="null" id="svg_30" fill="#ffb900" height="2.179705" width="6.737541" y="100.432544" x="245.338318"/>
   <rect stroke="null" id="svg_31" fill="#fff" height="1.307823" width="1.684385" y="98.25284" x="305.414727"/>
   <rect stroke="null" id="svg_32" fill="#fff" height="1.307823" width="1.684385" y="98.25284" x="289.132336"/>
   <rect stroke="null" id="svg_33" fill="#fff" height="1.307823" width="1.684385" y="98.25284" x="293.062568"/>
   <rect stroke="null" id="svg_34" fill="#fff" height="1.307823" width="1.684385" y="98.25284" x="296.9928"/>
   <rect stroke="null" id="svg_35" fill="#fff" height="1.307823" width="1.684385" y="98.25284" x="300.923033"/>
   <rect stroke="null" id="svg_36" fill="#fff" height="1.307823" width="1.684385" y="100.432544" x="305.414727"/>
   <rect stroke="null" id="svg_37" fill="#fff" height="1.307823" width="1.684385" y="100.432544" x="289.132336"/>
   <rect stroke="null" id="svg_38" fill="#fff" height="1.307823" width="1.684385" y="100.432544" x="293.062568"/>
   <rect stroke="null" id="svg_39" fill="#fff" height="1.307823" width="1.684385" y="100.432544" x="296.9928"/>
   <rect stroke="null" id="svg_40" fill="#fff" height="1.307823" width="1.684385" y="100.432544" x="300.923033"/>
   <rect stroke="null" id="svg_41" fill="#fff" height="1.307823" width="1.684385" y="103.04819" x="305.414727"/>
   <rect stroke="null" id="svg_42" fill="#fff" height="1.307823" width="1.684385" y="103.04819" x="289.132336"/>
   <rect stroke="null" id="svg_43" fill="#fff" height="1.307823" width="1.684385" y="103.04819" x="293.062568"/>
   <rect stroke="null" id="svg_44" fill="#fff" height="1.307823" width="1.684385" y="103.04819" x="296.9928"/>
   <rect stroke="null" id="svg_45" fill="#fff" height="1.307823" width="1.684385" y="103.04819" x="300.923033"/>
   <path stroke="null" id="svg_46" fill="#9dccef" d="m254.321706,127.460882l71.417937,0a0.842193,0.653911 0 0 0 0,-1.307823l-71.489242,0a0.842193,0.653911 0 0 0 0,1.307823"/>
   <path stroke="null" id="svg_47" fill="#bfe1f7" d="m139.222044,121.79365l19.574242,0a0.842193,0.653911 0 0 0 0,-1.307823l-19.848235,0a0.842193,0.653911 0 0 0 0,1.307823"/>
   <path stroke="null" id="svg_48" fill="#bfe1f7" d="m122.378191,121.79365l5.867837,0a0.842193,0.653911 0 0 0 0,-1.307823l-6.131162,0a0.842193,0.653911 0 0 0 0,1.307823"/>
   <path stroke="null" id="svg_49" fill="#fff" d="m93.743641,114.382654l85.81157,0a0.842193,0.653911 0 0 0 0,-1.307823l-85.839082,0a0.842193,0.653911 0 0 0 0,1.307823"/>
   <path stroke="null" id="svg_50" fill="#bfe1f7" d="m334.049277,112.202949l22.749869,0a0.842193,0.653911 0 0 0 0,-1.307823l-22.832404,0a0.842193,0.653911 0 0 0 0,1.307823"/>
   <rect stroke="null" id="svg_51" fill="#ffb900" height="8.282878" width="20.774085" y="63.377565" x="247.022703"/>
   <rect stroke="null" id="svg_52" fill="#ffb900" height="2.179705" width="7.299003" y="100.432544" x="225.125694"/>
   <rect stroke="null" id="svg_53" fill="#c78e00" height="2.179705" width="2.245847" y="100.432544" x="232.424697"/>
   <rect stroke="null" id="svg_54" fill="#ffb900" height="2.179705" width="6.737541" y="100.432544" x="261.620709"/>
   <rect stroke="null" id="svg_55" fill="#c78e00" height="2.179705" width="2.245847" y="100.432544" x="252.075859"/>
   <rect stroke="null" id="svg_56" fill="#c78e00" height="2.179705" width="2.245847" y="100.432544" x="268.919712"/>
   <rect stroke="null" id="svg_57" fill="#df6c47" height="2.179705" width="6.737541" y="102.612249" x="216.142306"/>
   <rect stroke="null" id="svg_58" fill="#df6c47" height="2.179705" width="6.737541" y="104.791954" x="238.600777"/>
   <rect stroke="null" id="svg_59" fill="#df6c47" height="2.179705" width="6.737541" y="106.971658" x="261.620709"/>
   <rect stroke="null" id="svg_60" fill="#e6e6e6" height="2.179705" width="6.737541" y="102.612249" x="238.600777"/>
   <rect stroke="null" id="svg_61" fill="#e6e6e6" height="2.179705" width="6.737541" y="104.791954" x="245.338318"/>
   <rect stroke="null" id="svg_62" fill="#e6e6e6" height="2.179705" width="6.737541" y="102.612249" x="268.919712"/>
   <rect stroke="null" id="svg_63" fill="#df6c47" height="2.179705" width="6.737541" y="102.612249" x="252.075859"/>
   <rect stroke="null" id="svg_64" fill="#e6e6e6" height="2.179705" width="6.737541" y="104.791954" x="222.879847"/>
   <rect stroke="null" id="svg_65" fill="#ffb900" height="2.179705" width="6.737541" y="104.791954" x="216.142306"/>
   <rect stroke="null" id="svg_66" fill="#ffb900" height="2.179705" width="6.737541" y="106.971658" x="208.843303"/>
   <rect stroke="null" id="svg_67" fill="#ba3615" height="8.282878" width="7.860465" y="83.866789" x="136.976197"/>
   <rect stroke="null" id="svg_68" fill="#df6c47" height="8.282878" width="20.774085" y="83.866789" x="115.64065"/>
   <path stroke="null" id="svg_69" fill="#bfe1f7" d="m223.441309,133.999996l44.662599,0a0.842193,0.653911 0 0 0 0,-1.307823l-44.677759,0a0.842193,0.653911 0 0 0 0,1.307823"/>
   <path stroke="null" id="svg_70" fill="#c2c2c2" d="m196.700569,12.971458a2.807309,2.179705 0 1 0 2.801694,-2.177089a2.80394,2.177089 0 0 0 -2.80394,2.177089"/>
  </g>
 </g>
</svg>