<svg xmlns="http://www.w3.org/2000/svg" viewBox="0 0 636 300"><title>swimlane-docker-container-support</title><path d="M297.737,249h52.92a1.5,1.5,0,0,0,0-3h-52.5a1.5,1.5,0,1,0,0,3" fill="#bfe1f7"/><path d="M579.055,252H369.7a2.4,2.4,0,0,0-1.95,1H236.1a2.479,2.479,0,0,0-2.329,1.486,2.515,2.515,0,0,0,2.3,3.514h43.839a1.5,1.5,0,0,1,0,3h-5.688a5.637,5.637,0,0,0-5.6,4.367A5.506,5.506,0,0,0,274.011,272H564.876a5.636,5.636,0,0,0,5.6-4.367A5.506,5.506,0,0,0,565.087,261h-2.639c-2.2-.07-3-4-.056-4h16.572a2.556,2.556,0,0,0,2.51-1.853A2.5,2.5,0,0,0,579.055,252Z" fill="#9dccef"/><path d="M223.967,253h-5.21a2.479,2.479,0,0,0-2.329,1.486,2.515,2.515,0,0,0,2.3,3.514h5.211a2.479,2.479,0,0,0,2.328-1.486A2.515,2.515,0,0,0,223.967,253Z" fill="none"/><rect x="431.737" y="67" width="4" height="17" fill="#c2c2c2"/><rect x="446.737" y="132" width="14" height="19" fill="#c78e00"/><path d="M380.305,124.034,409.2,142.281a4.146,4.146,0,0,0-.422-5.472L393.64,122.116a8.467,8.467,0,0,0-1.8-1.325l3.818-6.373a6.7,6.7,0,0,0,6.878-1.61l4.173-4.173,3.618-3.618L412.341,103H454.7l2.016,2.017,3.618,3.618,4.174,4.173a6.7,6.7,0,0,0,6.878,1.61l3.818,6.373a8.392,8.392,0,0,0-1.8,1.325l-15.136,14.693a4.147,4.147,0,0,0-.422,5.472l28.892-18.247-.536-.754a8.442,8.442,0,0,0-7.539-3.522l-4.374-7.3a6.7,6.7,0,0,0,.305-8.441c-6.063-8.005-11.287-14.772-12.554-16.04a7.657,7.657,0,0,0-11.431.258,7.573,7.573,0,0,0-1.408,2.184L438.64,85.477a5.093,5.093,0,0,0,.029-.542,5.233,5.233,0,0,0-5.233-5.232.6.6,0,0,0-.265.067c-4.909,2.569-5.115,4.269-4.922,5.82l-10.392,4.86A7.9,7.9,0,0,0,405,87.973c-1.267,1.268-6.49,8.035-12.554,16.04a6.7,6.7,0,0,0,.306,8.441l-4.375,7.3a8.44,8.44,0,0,0-7.538,3.522Zm68.291-30A8.133,8.133,0,0,0,450.825,99H416.212a8.132,8.132,0,0,0,2.226-4.923l11.5-5.379a5.211,5.211,0,0,0,7.091-.079L448.6,94.032" fill="#b2b2b2"/><path d="M415.09,93.807a4.631,4.631,0,1,1-4.63-4.629,4.63,4.63,0,0,1,4.63,4.629" fill="#b2b2b2"/><path d="M400.261,108.344a2.941,2.941,0,1,1-2.941-2.94,2.941,2.941,0,0,1,2.941,2.94" fill="#c2c2c2"/><path d="M610.737,224h14v7h-39V210h25Zm-588-6v13h72v-3h15V190h-20v13H71.32l-2.7-49.746a18.914,18.914,0,0,1-2.88,2.346V218h-2V156.394a20.43,20.43,0,0,1-8,2.031V218h-1V158.425a20.435,20.435,0,0,1-8-2.031V218h-2V155.274a18.768,18.768,0,0,1-2.807-2.358L38.5,218Zm505-63H517.3l-8.7,6h19.131Zm-31,25v-6h32v6h-32Zm26.694-29,4.306-2.973V151Zm4.306,13v6H494.018l8.7-6Zm-261,38v26h23v3h207v-4h32v4h48V218l-12,1V179.236a11.776,11.776,0,0,0-10.469-11.86,11.578,11.578,0,0,0-12.531,11.638V219h-13V184h-32v5h32v4h-32v-4h-25v-8h-4V163h-11v18h-5v25.441l-14-2.938V190h-31v15h-24V176h-5V143h-3V103h-2.624l-1.376,12.361V115h-9.478l-1.545-12h-1.977v40h-3v33h-5v27h-12V170h-21v2h-16v5h16v3h-16v5h16v3h-16v4h16v3h-16v5h16v3h-16v-1Zm230,16h32v4h-32Zm0-10h32v4h-32Zm0-9h32v4h-32Zm-165,14h3v7h-3Zm0-10h3v7h-3Zm0-10h3v7h-3Zm0-9h3v7h-3Zm0-10h3v7h-3Zm-6,39h3v7h-3Zm0-10h3v7h-3Zm0-10h3v7h-3Zm0-9h3v7h-3Zm0-10h3v7h-3Zm-6,39h3v7h-3Zm0-10h3v7h-3Zm0-10h3v7h-3Zm0-9h3v7h-3Zm0-10h3v7h-3Zm-19,41h16v3h-16Zm0-8h16v3h-16Zm0-42h16v4h-16Zm0-8h16v4h-16Zm0-7h16v4h-16Zm0-9h16v5h-16Z" fill="#d4e6f4"/><path d="M414.737,47l11.956,12.75a9.658,9.658,0,0,0,14.089,0L452.737,47V34.944A11.944,11.944,0,0,0,440.793,23H426.682a11.945,11.945,0,0,0-11.945,11.944Z" fill="#b2b2b2"/><path d="M415.092,93.807a4.631,4.631,0,1,1-4.63-4.629,4.63,4.63,0,0,1,4.63,4.629" fill="#c2c2c2"/><path d="M431.343,85.044a2.094,2.094,0,1,0,2.092-2.093,2.091,2.091,0,0,0-2.092,2.093" fill="#c2c2c2"/><rect x="414.737" y="65" width="37" height="5" fill="#b2b2b2"/><path d="M433.237,49.142a10.459,10.459,0,0,0-10.5,10.416V67h21V59.558a10.458,10.458,0,0,0-10.5-10.416m.2,13.238a4.29,4.29,0,1,1,4.29-4.29,4.29,4.29,0,0,1-4.29,4.29" fill="#c2c2c2"/><path d="M451.947,93.807a4.631,4.631,0,1,0,4.63-4.629,4.63,4.63,0,0,0-4.63,4.629" fill="#c2c2c2"/><path d="M466.776,108.344a2.941,2.941,0,1,0,2.941-2.94,2.941,2.941,0,0,0-2.941,2.94" fill="#c2c2c2"/><path d="M316.618,15.034a8.589,8.589,0,0,0,7.144,9.823L431.777,41.921a8.588,8.588,0,0,0,2.68-16.965L326.441,7.891a8.591,8.591,0,0,0-9.823,7.143M432.354,38.551a4.995,4.995,0,1,1,4.994-4.994,4.994,4.994,0,0,1-4.994,4.994" fill="#c2c2c2"/><path d="M220.622,107,317.74,10.1a10.982,10.982,0,0,1,14.086-1.363,10.776,10.776,0,0,1,1.384,16.421L251.183,107h43.554V221h-190V107Z" fill="#737373"/><path d="M220.805,107l96.841-96.842a10.967,10.967,0,0,1,14.1-1.364,10.785,10.785,0,0,1,1.35,16.392L251.286,107Z" fill="#b2b2b2"/><rect x="117.737" y="114" width="164" height="100" fill="#ffb900"/><path d="M84.737,231H314.643a7.094,7.094,0,0,0,7.094-7.094V220h-244v3.6a7.247,7.247,0,0,0,7.085,7.4" fill="#939393"/><path d="M83.955,54.057a7.941,7.941,0,0,1,2.755.489A20.855,20.855,0,0,1,88.8,39.77a17.949,17.949,0,0,1,9.023-8.193c13.777-5.667,26.973,3.461,28.364,16.14a12.284,12.284,0,0,1,19.433,9.56,7.008,7.008,0,0,1,6.446-.123,5.926,5.926,0,0,1,2.879,2.856A6.844,6.844,0,0,1,148.9,70H83.558a7.333,7.333,0,0,1-6.591-3.967,8.052,8.052,0,0,1,6.988-11.976" fill="#d4e6f4"/><path d="M152.822,160.58a18.659,18.659,0,0,1,8.041,1.812,34.745,34.745,0,0,1,68.41-7.7A24.056,24.056,0,1,1,243.7,198H153.245c-9.753,0-18.2-7.294-19.058-17.009a18.713,18.713,0,0,1,18.635-20.411" fill="#fff"/><polygon points="470.737 208 470.737 203 464.737 203 464.737 199 481.737 199 481.737 200.828 481.737 202.654 481.737 207.948 481.737 211.024 481.737 237 455.737 237 455.737 208 470.737 208" fill="#b2b2b2"/><rect x="481.737" y="194" width="19" height="14" fill="#737373"/><rect x="480.737" y="194" width="7" height="15" fill="#b2b2b2"/><rect x="487.737" y="237" width="57" height="22" fill="#737373"/><path d="M468.737,237V227h12V208h38v19h12v10h-43v22H368.318a45.2,45.2,0,0,1-37.286-20.192L330.221,237Z" fill="#939393"/><polygon points="341.737 227 341.737 222 354.737 221.929 354.737 227 366.737 227 366.737 222 370.737 222 370.737 217 387.737 217 387.737 222 406.529 222 448.006 222 459.66 225 469.737 225 469.737 237 335.737 237.001 335.737 227 341.737 227" fill="#fff"/><rect x="406.737" y="217" width="12" height="5" fill="#ffb900"/><rect x="513.737" y="212" width="3" height="3" fill="#fff"/><rect x="484.737" y="212" width="3" height="3" fill="#fff"/><rect x="491.737" y="212" width="3" height="3" fill="#fff"/><rect x="498.737" y="212" width="3" height="3" fill="#fff"/><rect x="505.737" y="212" width="3" height="3" fill="#fff"/><rect x="513.737" y="217" width="3" height="3" fill="#fff"/><rect x="484.737" y="217" width="3" height="3" fill="#fff"/><rect x="491.737" y="217" width="3" height="3" fill="#fff"/><rect x="498.737" y="217" width="3" height="3" fill="#fff"/><rect x="505.737" y="217" width="3" height="3" fill="#fff"/><rect x="513.737" y="223" width="3" height="3" fill="#fff"/><rect x="484.737" y="223" width="3" height="3" fill="#fff"/><rect x="491.737" y="223" width="3" height="3" fill="#fff"/><rect x="498.737" y="223" width="3" height="3" fill="#fff"/><rect x="505.737" y="223" width="3" height="3" fill="#fff"/><path d="M422.737,279h127.2a1.5,1.5,0,0,0,0-3H422.61a1.5,1.5,0,0,0,0,3" fill="#9dccef"/><path d="M217.737,266H252.6a1.5,1.5,0,0,0,0-3H217.249a1.5,1.5,0,0,0,0,3" fill="#bfe1f7"/><path d="M187.737,266h10.451a1.5,1.5,0,0,0,0-3h-10.92a1.5,1.5,0,0,0,0,3" fill="#bfe1f7"/><path d="M136.737,249H289.573a1.5,1.5,0,0,0,0-3H136.688a1.5,1.5,0,0,0,0,3" fill="#fff"/><path d="M564.737,244h40.519a1.5,1.5,0,0,0,0-3H564.59a1.5,1.5,0,0,0,0,3" fill="#bfe1f7"/><rect x="409.737" y="132" width="37" height="19" fill="#ffb900"/><rect x="370.737" y="217" width="13" height="5" fill="#ffb900"/><rect x="383.737" y="217" width="4" height="5" fill="#c78e00"/><rect x="435.737" y="217" width="12" height="5" fill="#ffb900"/><rect x="418.737" y="217" width="4" height="5" fill="#c78e00"/><rect x="448.737" y="217" width="4" height="5" fill="#c78e00"/><rect x="354.737" y="222" width="12" height="5" fill="#df6c47"/><rect x="394.737" y="227" width="12" height="5" fill="#df6c47"/><rect x="435.737" y="232" width="12" height="5" fill="#df6c47"/><rect x="394.737" y="222" width="12" height="5" fill="#e6e6e6"/><rect x="406.737" y="227" width="12" height="5" fill="#e6e6e6"/><rect x="448.737" y="222" width="12" height="5" fill="#e6e6e6"/><rect x="418.737" y="222" width="12" height="5" fill="#df6c47"/><rect x="366.737" y="227" width="12" height="5" fill="#e6e6e6"/><rect x="354.737" y="227" width="12" height="5" fill="#ffb900"/><rect x="341.737" y="232" width="12" height="5" fill="#ffb900"/><rect x="213.737" y="179" width="14" height="19" fill="#ba3615"/><rect x="175.737" y="179" width="37" height="19" fill="#df6c47"/><path d="M367.737,294h79.547a1.5,1.5,0,0,0,0-3H367.71a1.5,1.5,0,0,0,0,3" fill="#bfe1f7"/><path d="M320.11,16.374A5,5,0,1,0,325.1,11.38a4.994,4.994,0,0,0-4.994,4.994" fill="#c2c2c2"/></svg>