<svg width="636" height="300" viewBox="0 0 636 300" fill="none" xmlns="http://www.w3.org/2000/svg">
<path d="M288.5 138.5V247.5" stroke="#D2D2D2" stroke-width="2" stroke-miterlimit="10"/>
<path d="M235.5 138.5V247.5" stroke="#D2D2D2" stroke-width="2" stroke-miterlimit="10"/>
<path d="M361.5 138.5V247.5" stroke="#D2D2D2" stroke-width="2" stroke-miterlimit="10"/>
<path d="M423.5 138.5V247.5" stroke="#D2D2D2" stroke-width="2" stroke-miterlimit="10"/>
<path d="M443.643 3.5H213.357C211.227 3.5 209.5 5.22684 209.5 7.357V143.643C209.5 145.773 211.227 147.5 213.357 147.5H443.643C445.773 147.5 447.5 145.773 447.5 143.643V7.357C447.5 5.22684 445.773 3.5 443.643 3.5Z" fill="#D2D2D2"/>
<path d="M443.639 3.5H336.727L418.519 147.5H443.639C444.663 147.5 445.645 147.093 446.369 146.369C447.093 145.645 447.5 144.663 447.5 143.639V7.361C447.5 6.337 447.093 5.35494 446.369 4.63086C445.645 3.90678 444.663 3.5 443.639 3.5Z" fill="#E6E6E6"/>
<path d="M447.5 26.5V7.361C447.5 6.337 447.093 5.35494 446.369 4.63086C445.645 3.90678 444.663 3.5 443.639 3.5H213.361C212.337 3.5 211.355 3.90678 210.631 4.63086C209.907 5.35494 209.5 6.337 209.5 7.361V26.5H447.5Z" fill="#737373"/>
<path d="M443.638 3.5H336.814L349.878 26.5H447.499V7.361C447.499 6.337 447.093 5.35494 446.369 4.63086C445.645 3.90678 444.662 3.5 443.638 3.5Z" fill="#939393"/>
<path d="M243.5 10.5H234.5V19.5H243.5V10.5Z" fill="#D2D2D2"/>
<path d="M226.5 10.5H217.5V19.5H226.5V10.5Z" fill="#D2D2D2"/>
<path d="M438.5 10.5H429.5V19.5H438.5V10.5Z" fill="#D2D2D2"/>
<path d="M421.5 10.5H250.5V19.5H421.5V10.5Z" fill="white"/>
<path d="M259.5 10.5H250.5V19.5H259.5V10.5Z" fill="#D2D2D2"/>
<path d="M376.599 65.382C374.52 78.4162 367.884 90.29 357.872 98.8911C347.86 107.492 335.122 112.263 321.923 112.354C319.25 112.457 316.573 112.294 313.931 111.869C308.407 110.931 303.372 108.127 299.665 103.926C295.958 99.7242 293.804 94.3787 293.562 88.781C293.616 82.5377 296.122 76.5658 300.54 72.1543C304.958 67.7428 310.934 65.2455 317.177 65.2014C323.421 65.1573 329.431 67.5699 333.911 71.9186C338.391 76.2672 340.981 82.2031 341.123 88.445C341.223 92.387 339.515 95.845 336.005 95.945C332.255 95.945 330.497 93.269 330.497 89.663V79.643C330.499 78.0224 329.859 76.467 328.718 75.3161C327.577 74.1653 326.028 73.5124 324.407 73.5H316.007C313.564 73.4832 311.155 74.079 309.002 75.2328C306.848 76.3867 305.018 78.0619 303.678 80.1053C302.339 82.1487 301.533 84.4953 301.334 86.9305C301.135 89.3657 301.55 91.8119 302.54 94.0456C303.53 96.2793 305.064 98.2292 307.002 99.7173C308.94 101.205 311.22 102.184 313.633 102.564C316.047 102.944 318.517 102.713 320.819 101.892C323.12 101.071 325.179 99.6866 326.807 97.865L327.101 97.427L327.395 97.913C328.405 99.2856 329.739 100.387 331.278 101.12C332.817 101.853 334.513 102.194 336.215 102.113C339.249 101.893 342.077 100.495 344.095 98.218C346.113 95.9412 347.161 92.9658 347.015 89.927C347.045 87.3194 346.753 84.7181 346.145 82.182C344.587 75.0179 340.432 68.6841 334.481 64.4016C328.531 60.1191 321.205 58.1912 313.917 58.9894C306.629 59.7876 299.895 63.2555 295.012 68.7245C290.129 74.1935 287.443 81.2765 287.473 88.608C287.567 96.3821 290.67 103.817 296.131 109.351C301.592 114.885 308.986 118.086 316.758 118.283C316.758 118.283 318.958 118.483 321.438 118.426C333.493 118.35 345.277 114.834 355.403 108.293C355.547 108.193 355.691 108.393 355.595 108.539C350.665 113.849 344.636 118.021 337.929 120.764C331.222 123.507 323.998 124.754 316.759 124.42C312.027 124.506 307.326 123.632 302.941 121.852C298.556 120.072 294.576 117.422 291.243 114.061C287.91 110.701 285.292 106.701 283.547 102.301C281.802 97.9018 280.966 93.1943 281.09 88.463C281.092 82.8222 282.41 77.2598 284.939 72.2177C287.468 67.1756 291.138 62.7929 295.658 59.418C301.732 54.9455 309.072 52.5225 316.615 52.5H327.889C332.293 52.4967 336.648 51.5764 340.677 49.7978C344.705 48.0191 348.32 45.421 351.289 42.169C351.352 42.0994 351.435 42.0517 351.527 42.033C351.619 42.0132 351.714 42.0227 351.8 42.0602C351.886 42.0977 351.958 42.1613 352.006 42.242C352.054 42.323 352.076 42.4171 352.068 42.511C351.59 47.578 349.904 52.4563 347.149 56.736C347.108 56.8103 347.089 56.8952 347.096 56.98C347.103 57.0644 347.134 57.145 347.185 57.2122C347.237 57.2794 347.306 57.3304 347.386 57.359C347.466 57.3872 347.552 57.3917 347.634 57.372C352.838 56.1966 357.694 53.816 361.81 50.4219C365.926 47.0277 369.189 42.7148 371.334 37.83C371.389 37.7427 371.464 37.6702 371.553 37.619C371.643 37.5684 371.744 37.5417 371.848 37.5417C371.951 37.5417 372.052 37.5684 372.142 37.619C372.232 37.6699 372.307 37.7424 372.361 37.83C376.78 46.2934 378.27 55.982 376.599 65.382ZM316.729 79.518C314.995 79.5178 313.299 80.032 311.857 80.9954C310.415 81.9589 309.291 83.3284 308.627 84.9308C307.963 86.5331 307.789 88.2964 308.128 89.9975C308.466 91.6986 309.301 93.2612 310.528 94.4876C311.754 95.714 313.317 96.5492 315.018 96.8876C316.719 97.2259 318.482 97.0521 320.084 96.3883C321.687 95.7245 323.056 94.6004 324.02 93.1582C324.983 91.716 325.497 90.0204 325.497 88.286V80.1C325.489 79.9434 325.424 79.7952 325.313 79.6843C325.202 79.5734 325.054 79.5077 324.897 79.5L316.729 79.518Z" fill="#8867C8"/>
<path d="M361.006 225.818L331.5 245.159V278.759L361.429 297.394L391.5 278.618V245.441L361.006 225.818Z" fill="#ED8422"/>
<path d="M361.547 261.949L331.5 245.036V278.715L361.5 297.394L361.547 261.949Z" fill="#FDA84C"/>
<path d="M331.5 245.4L361.23 263.911L390.886 245.394L360.818 226.045L331.5 245.263V245.4Z" fill="#FCC74F"/>
<path d="M486.445 211.5H413.555C411.315 211.5 409.5 213.315 409.5 215.555V268.445C409.5 270.685 411.315 272.5 413.555 272.5H486.445C488.685 272.5 490.5 270.685 490.5 268.445V215.555C490.5 213.315 488.685 211.5 486.445 211.5Z" fill="#EDAC28"/>
<path d="M486.165 272.727C486.733 272.728 487.296 272.617 487.821 272.401C488.346 272.185 488.824 271.867 489.227 271.466C489.629 271.065 489.949 270.589 490.167 270.065C490.386 269.54 490.499 268.978 490.5 268.41V227.5H409.5V268.382C409.501 268.954 409.615 269.52 409.835 270.048C410.055 270.575 410.376 271.055 410.782 271.458C411.187 271.862 411.667 272.181 412.196 272.399C412.725 272.617 413.291 272.728 413.863 272.727" fill="#8867C8"/>
<path d="M431.5 227.5H427.5V272.5H431.5V227.5Z" fill="#5C2D91"/>
<path d="M481.5 216.5H474.5V221.5H481.5V216.5Z" fill="#D2D2D2"/>
<path d="M466.5 216.5H459.5V221.5H466.5V216.5Z" fill="#D2D2D2"/>
<path d="M451.881 257.1L439.3 251.21L439.285 249.724L451.741 243.061L451.769 245.725L442.657 250.362V250.418L451.857 254.448L451.881 257.1Z" fill="#D2D2D2"/>
<path d="M465.842 238.219L456.362 261.766L453.402 261.796L462.841 238.249L465.842 238.219Z" fill="#D2D2D2"/>
<path d="M480.25 250.708L467.787 256.853L467.761 254.202L476.892 250.028V249.943L467.673 245.493L467.646 242.828L480.235 249.228L480.25 250.708Z" fill="#D2D2D2"/>
<path d="M151.5 235.717V289.171C151.483 289.345 151.503 289.52 151.56 289.686C151.617 289.851 151.709 290.002 151.83 290.128C151.95 290.254 152.097 290.353 152.26 290.417C152.422 290.481 152.597 290.51 152.771 290.5H191.446C191.637 289.854 192.159 289.748 192.536 290.222C192.913 290.696 192.985 292.5 193.988 292.5H205.426C206.626 292.5 206.461 290.433 207.069 290.2C207.231 290.141 207.408 290.138 207.572 290.193C207.735 290.247 207.875 290.355 207.969 290.5H248.26C248.423 290.5 248.585 290.468 248.736 290.407C248.886 290.347 249.021 290.257 249.136 290.144C249.251 290.032 249.342 289.898 249.404 289.75C249.467 289.602 249.499 289.443 249.499 289.283V235.717C249.499 235.557 249.467 235.398 249.404 235.25C249.342 235.102 249.251 234.968 249.136 234.856C249.021 234.743 248.885 234.654 248.736 234.593C248.584 234.531 248.422 234.5 248.258 234.5H152.741C152.578 234.5 152.416 234.532 152.265 234.593C152.116 234.653 151.98 234.743 151.865 234.856C151.75 234.968 151.658 235.102 151.596 235.25C151.533 235.397 151.501 235.556 151.501 235.717H151.5Z" fill="#939393"/>
<path d="M244.5 280.5H156.5V286.5H244.5V280.5Z" fill="#505050"/>
<path d="M199.5 286.827C199.5 286.827 198.563 280.5 190.62 280.5H156.5V228.5H192.023C199.307 228.5 199.5 234.827 199.5 234.827V286.827Z" fill="#A9D4EE"/>
<path d="M191.5 236.5H165.5V238.5H191.5V236.5Z" fill="#60ACE5"/>
<path d="M191.5 242.5H165.5V244.5H191.5V242.5Z" fill="#60ACE5"/>
<path d="M191.5 248.5H165.5V250.5H191.5V248.5Z" fill="#60ACE5"/>
<path d="M191.5 254.5H165.5V256.5H191.5V254.5Z" fill="#60ACE5"/>
<path d="M191.5 260.5H165.5V262.5H191.5V260.5Z" fill="#60ACE5"/>
<path d="M191.5 266.5H165.5V268.5H191.5V266.5Z" fill="#60ACE5"/>
<path d="M191.5 272.5H165.5V274.5H191.5V272.5Z" fill="#60ACE5"/>
<path d="M199.5 286.827C199.5 286.827 200.451 280.5 208.535 280.5H244.5V228.5H207.113C199.7 228.5 199.5 234.827 199.5 234.827V286.827Z" fill="#A9D4EE"/>
<path d="M209.5 238.5H235.5V236.5H209.5V238.5Z" fill="#60ACE5"/>
<path d="M209.5 244.5H235.5V242.5H209.5V244.5Z" fill="#60ACE5"/>
<path d="M209.5 250.5H235.5V248.5H209.5V250.5Z" fill="#60ACE5"/>
<path d="M209.5 256.5H235.5V254.5H209.5V256.5Z" fill="#60ACE5"/>
<path d="M209.5 262.5H235.5V260.5H209.5V262.5Z" fill="#60ACE5"/>
<path d="M209.5 268.5H235.5V266.5H209.5V268.5Z" fill="#60ACE5"/>
<path d="M209.5 274.5H235.5V272.5H209.5V274.5Z" fill="#60ACE5"/>
<path d="M216.5 253.636L212 252.4L207.5 253.64V226.5H216.5V253.636Z" fill="#8867C8"/>
<path d="M200.5 235.5H199.5V287.5H200.5V235.5Z" fill="#939393"/>
<path d="M313.5 247.5H265.5V257.5H313.5V247.5Z" fill="#D2D2D2"/>
<path d="M268.555 247.5H314.5V185.5H265.64C265.072 185.5 264.528 185.725 264.127 186.127C263.725 186.528 263.5 187.072 263.5 187.64V250.5H264.254C264.5 249.426 265.379 247.5 268.555 247.5Z" fill="#9C80E0"/>
<path d="M269.5 185.5H265.64C265.072 185.5 264.528 185.725 264.127 186.127C263.725 186.528 263.5 187.072 263.5 187.64V250.5H264.254C264.499 249.426 265.379 247.5 268.554 247.5H269.499L269.5 185.5Z" fill="#7155B7"/>
<path d="M314.5 256.5H267.468C266.946 256.5 266.445 256.293 266.076 255.924C265.707 255.555 265.5 255.054 265.5 254.532V249.468C265.5 248.946 265.707 248.445 266.076 248.076C266.445 247.707 266.946 247.5 267.468 247.5H314.5V245.5H267.468C266.416 245.5 265.407 245.918 264.663 246.662C263.918 247.407 263.5 248.416 263.5 249.468V254.532C263.5 255.053 263.602 255.569 263.802 256.051C264.001 256.532 264.293 256.97 264.662 257.338C265.03 257.707 265.468 257.999 265.949 258.198C266.431 258.398 266.947 258.5 267.468 258.5H314.5V256.5Z" fill="#8867C8"/>
<path d="M280.5 261.875L276.5 259.875L272.5 261.875V250.5H280.5V261.875Z" fill="#ED8422"/>
<path d="M308.5 193.5H275.5V209.5H308.5V193.5Z" fill="#A9D4EE"/>
</svg>
