<svg width="400" height="140" xmlns="http://www.w3.org/2000/svg">

 <g>
  <title>background</title>
  <rect fill="none" id="canvas_background" height="142" width="402" y="-1" x="-1"/>
 </g>
 <g>
  <title>Layer 1</title>
  <g stroke="null" id="svg_52">
   <path stroke="#D2D2D2" id="svg_1" stroke-miterlimit="10" stroke-width="2" d="m187.346824,63.376071l0,48.546235"/>
   <path stroke="#D2D2D2" id="svg_2" stroke-miterlimit="10" stroke-width="2" d="m164.676683,63.376071l0,48.546235"/>
   <path stroke="#D2D2D2" id="svg_3" stroke-miterlimit="10" stroke-width="2" d="m218.571736,63.376071l0,48.546235"/>
   <path stroke="#D2D2D2" id="svg_4" stroke-miterlimit="10" stroke-width="2" d="m245.091524,63.376071l0,48.546235"/>
   <path stroke="null" id="svg_5" fill="#D2D2D2" d="m253.707461,3.25l-98.502192,0c-0.911083,0 -1.649787,0.769097 -1.649787,1.717824l0,60.698827c0,0.948656 0.738704,1.717824 1.649787,1.717824l98.502192,0c0.911083,0 1.649787,-0.769168 1.649787,-1.717824l0,-60.698827c0,-0.948727 -0.738704,-1.717824 -1.649787,-1.717824z"/>
   <path stroke="null" id="svg_6" fill="#E6E6E6" d="m253.70575,3.25l-45.73038,0l34.985589,64.134476l10.744792,0c0.438004,0 0.858043,-0.181269 1.167726,-0.503723c0.309683,-0.322454 0.483772,-0.759815 0.483772,-1.215883l0,-60.695264c0,-0.456067 -0.17409,-0.893456 -0.483772,-1.215945c-0.309683,-0.32249 -0.729722,-0.503661 -1.167726,-0.503661z"/>
   <path stroke="null" id="svg_7" fill="#737373" d="m255.357249,13.493701l0,-8.524095c0,-0.456067 -0.17409,-0.893456 -0.483772,-1.215945c-0.309683,-0.32249 -0.729722,-0.503661 -1.167726,-0.503661l-98.49877,0c-0.438004,0 -0.858043,0.181171 -1.167726,0.503661c-0.309683,0.32249 -0.483772,0.759878 -0.483772,1.215945l0,8.524095l101.801767,0z"/>
   <path stroke="null" id="svg_8" fill="#939393" d="m253.705322,3.25l-45.692739,0l5.587976,10.243701l41.756262,0l0,-8.524095c0,-0.456067 -0.173662,-0.893456 -0.483345,-1.215945c-0.309683,-0.32249 -0.73015,-0.503661 -1.168154,-0.503661z"/>
   <path stroke="null" id="svg_9" fill="#D2D2D2" d="m168.098591,6.367648l-3.849647,0l0,4.008405l3.849647,0l0,-4.008405z"/>
   <path stroke="null" id="svg_10" fill="#D2D2D2" d="m160.827036,6.367648l-3.849647,0l0,4.008405l3.849647,0l0,-4.008405z"/>
   <path stroke="null" id="svg_11" fill="#D2D2D2" d="m251.507602,6.367648l-3.849647,0l0,4.008405l3.849647,0l0,-4.008405z"/>
   <path stroke="null" id="svg_12" fill="white" d="m244.236047,6.367648l-73.143286,0l0,4.008405l73.143286,0l0,-4.008405z"/>
   <path stroke="null" id="svg_13" fill="#D2D2D2" d="m174.942407,6.367648l-3.849647,0l0,4.008405l3.849647,0l0,-4.008405z"/>
   <path stroke="null" id="svg_14" fill="#8867C8" d="m225.03016,30.8109c-0.889268,5.80515 -3.727741,11.093483 -8.010259,14.924226c-4.282518,3.830654 -9.731051,5.955554 -15.376772,5.996084c-1.143345,0.045874 -2.288401,-0.026723 -3.418486,-0.216008c-2.362828,-0.417765 -4.516491,-1.666606 -6.102118,-3.53764c-1.585627,-1.871391 -2.506975,-4.25216 -2.610488,-6.745254c0.023098,-2.78063 1.095011,-5.440385 2.984759,-7.405171c1.889749,-1.964786 4.445914,-3.07703 7.116286,-3.096671c2.670799,-0.019641 5.241508,1.054879 7.157776,2.991695c1.916269,1.936772 3.024111,4.580493 3.08485,7.3605c0.042774,1.755681 -0.687804,3.295799 -2.189166,3.340337c-1.604019,0 -2.355984,-1.191832 -2.355984,-2.797867l0,-4.462691c0.000855,-0.72178 -0.272897,-1.414521 -0.760947,-1.927107c-0.48805,-0.512541 -1.150617,-0.803329 -1.843981,-0.808852l-3.593004,0c-1.044965,-0.007482 -2.075387,0.257874 -2.996308,0.771752c-0.921349,0.513922 -1.70411,1.26002 -2.27728,2.170106c-0.572742,0.910086 -0.917499,1.955211 -1.002619,3.039796c-0.08512,1.084585 0.092392,2.17407 0.515853,3.168911c0.423461,0.994842 1.079612,1.863285 1.908569,2.526052c0.828957,0.662589 1.804201,1.098615 2.836334,1.267858c1.032561,0.169244 2.089075,0.066361 3.073729,-0.299294c0.984226,-0.365656 1.86494,-0.982237 2.561298,-1.793538l0.125755,-0.195076l0.125755,0.216454c0.432016,0.611326 1.002619,1.101866 1.660909,1.428328c0.65829,0.326462 1.383734,0.478336 2.111745,0.442261c1.297759,-0.097983 2.507403,-0.720622 3.37058,-1.734748c0.863176,-1.014037 1.311446,-2.339216 1.248996,-3.692632c0.012832,-1.161368 -0.112067,-2.319931 -0.372133,-3.449455c-0.666417,-3.190735 -2.44367,-6.011672 -4.989142,-7.919004c-2.545044,-1.907333 -5.678657,-2.765977 -8.796015,-2.410476c-3.117358,0.355501 -5.997749,1.900028 -8.086397,4.335802c-2.088647,2.435774 -3.237553,5.590388 -3.224721,8.855679c0.040207,3.462415 1.36748,6.773759 3.70336,9.238482c2.33588,2.464724 5.498579,3.890379 8.822962,3.978119c0,0 0.941025,0.089076 2.001816,0.063689c5.156388,-0.033849 10.196859,-1.599799 14.528139,-4.513018c0.061594,-0.044538 0.123189,0.044538 0.082126,0.109563c-2.108751,2.364959 -4.687586,4.223077 -7.556429,5.44475c-2.868842,1.221673 -5.958825,1.777059 -9.055224,1.628303c-2.024059,0.038303 -4.034857,-0.350958 -5.910491,-1.143731c-1.875633,-0.792773 -3.578033,-1.973026 -5.003685,-3.469942c-1.425652,-1.496471 -2.545472,-3.277984 -3.291876,-5.237649c-0.746404,-1.959308 -1.103993,-4.055927 -1.050954,-6.163145c0.000855,-2.51229 0.564615,-4.989662 1.646366,-7.235304c1.081751,-2.245642 2.651551,-4.197601 4.584929,-5.700709c2.598084,-1.991954 5.737684,-3.071106 8.964116,-3.081127l4.822324,0c1.88376,-0.00147 3.746562,-0.411351 5.46992,-1.203501c1.722931,-0.792194 3.269205,-1.949332 4.539161,-3.397702c0.026948,-0.030998 0.06245,-0.052243 0.101802,-0.060571c0.039352,-0.008818 0.079987,-0.004587 0.116773,0.012114c0.036786,0.016702 0.067583,0.045028 0.088114,0.08097c0.020531,0.036076 0.029942,0.077986 0.02652,0.119807c-0.204459,2.256732 -0.925626,4.429421 -2.104046,6.335506c-0.017537,0.033092 -0.025664,0.070904 -0.02267,0.108672c0.002994,0.03759 0.016254,0.073487 0.038069,0.103417c0.022242,0.029929 0.051756,0.052644 0.085975,0.065382c0.034219,0.01256 0.071005,0.014564 0.106079,0.00579c2.225951,-0.523498 4.303049,-1.583765 6.063621,-3.095424c1.760572,-1.511703 3.156283,-3.432575 4.073782,-5.608159c0.023526,-0.038882 0.055606,-0.071171 0.093675,-0.093975c0.038496,-0.022536 0.081698,-0.034428 0.126183,-0.034428c0.044057,0 0.087259,0.011892 0.125755,0.034428c0.038496,0.02267 0.070577,0.05496 0.093675,0.093975c1.890177,3.769415 2.527507,8.084507 1.812756,12.271063zm-25.608705,6.295868c-0.741699,-0.000089 -1.467143,0.228924 -2.083942,0.658002c-0.616799,0.429122 -1.097577,1.039068 -1.381595,1.752742c-0.284018,0.71363 -0.358445,1.498965 -0.213442,2.256598c0.144576,0.757633 0.501737,1.453581 1.026572,1.999793c0.524407,0.546212 1.192963,0.918192 1.920546,1.068908c0.727583,0.150671 1.481686,0.073265 2.166923,-0.222377c0.685665,-0.295642 1.271239,-0.796292 1.683579,-1.438616c0.411912,-0.642325 0.63177,-1.397508 0.63177,-2.169972l0,-3.645867c-0.003422,-0.069746 -0.031225,-0.135751 -0.078704,-0.185144c-0.047479,-0.049392 -0.110784,-0.078654 -0.177939,-0.082083l-3.493768,0.008017z"/>
   <path stroke="null" id="svg_15" fill="#ED8422" d="m218.360433,102.265614l-12.620853,8.614062l0,14.964711l12.801786,8.299625l12.862525,-8.362423l0,-14.776316l-13.043458,-8.739658z"/>
   <path stroke="null" id="svg_16" fill="#FDA84C" d="m218.59184,118.357577l-12.852259,-7.532683l0,14.999896l12.832156,8.319221l0.020104,-15.786434z"/>
   <path stroke="null" id="svg_17" fill="#FCC74F" d="m205.739581,110.987012l12.716666,8.244398l12.685013,-8.24707l-12.861242,-8.617625l-12.540438,8.55928l0,0.061017z"/>
   <path stroke="null" id="svg_18" fill="#EDAC28" d="m272.015525,95.888687l-31.177861,0c-0.958134,0 -1.73448,0.808362 -1.73448,1.806009l0,23.556058c0,0.997647 0.776345,1.806009 1.73448,1.806009l31.177861,0c0.958134,0 1.73448,-0.808362 1.73448,-1.806009l0,-23.556058c0,-0.997647 -0.776345,-1.806009 -1.73448,-1.806009z"/>
   <path stroke="null" id="svg_19" fill="#8867C8" d="m271.895758,123.157865c0.242955,0.000445 0.483772,-0.048992 0.708335,-0.145193c0.224563,-0.096202 0.429022,-0.237832 0.6014,-0.416429c0.171951,-0.178597 0.308827,-0.390597 0.402074,-0.623975c0.093675,-0.233824 0.142009,-0.484126 0.142437,-0.737101l0,-18.220426l-34.64682,0l0,18.207956c0.000428,0.254756 0.04919,0.506841 0.143292,0.742c0.094102,0.234714 0.231407,0.448496 0.405068,0.627983c0.173234,0.179933 0.378549,0.322009 0.604822,0.419101c0.226274,0.097092 0.468374,0.146529 0.71304,0.146084"/>
   <path stroke="null" id="svg_20" fill="#5C2D91" d="m248.513432,103.01474l-1.710954,0l0,20.042024l1.710954,0l0,-20.042024z"/>
   <path stroke="null" id="svg_21" fill="#D2D2D2" d="m269.900358,98.115579l-2.99417,0l0,2.226892l2.99417,0l0,-2.226892z"/>
   <path stroke="null" id="svg_22" fill="#D2D2D2" d="m263.48428,98.115579l-2.99417,0l0,2.226892l2.99417,0l0,-2.226892z"/>
   <path stroke="null" id="svg_23" fill="#D2D2D2" d="m257.231171,116.197938l-5.381378,-2.623278l-0.006416,-0.661832l5.327911,-2.967556l0.011977,1.186488l-3.897553,2.065219l0,0.024941l3.935194,1.794875l0.010266,1.181143z"/>
   <path stroke="null" id="svg_24" fill="#D2D2D2" d="m263.202828,107.78875l-4.054961,10.487323l-1.266106,0.013361l4.037424,-10.487323l1.283643,-0.013361z"/>
   <path stroke="null" id="svg_25" fill="#D2D2D2" d="m269.365685,113.35108l-5.330905,2.73685l-0.011121,-1.180698l3.90568,-1.859009l0,-0.037857l-3.943321,-1.981933l-0.011549,-1.186933l5.3848,2.850421l0.006416,0.65916z"/>
   <path stroke="null" id="svg_26" fill="#939393" d="m128.746647,106.674414l0,23.807252c-0.007272,0.077496 0.001283,0.155437 0.025664,0.22937c0.024381,0.073487 0.063733,0.14074 0.115489,0.196857c0.051329,0.056118 0.114206,0.10021 0.183928,0.128714c0.069294,0.028504 0.144148,0.04142 0.218574,0.036966l16.542787,0c0.081698,-0.287714 0.304978,-0.334924 0.466235,-0.123815c0.161257,0.211109 0.192055,1.014572 0.621076,1.014572l4.892473,0c0.513286,0 0.442709,-0.920597 0.702774,-1.02437c0.069294,-0.026277 0.145003,-0.027613 0.215152,-0.003118c0.069721,0.02405 0.129605,0.072151 0.169812,0.136731l17.234013,0c0.069721,0 0.139015,-0.014252 0.203604,-0.04142c0.064161,-0.026723 0.121905,-0.066807 0.171095,-0.117134c0.04919,-0.049882 0.088114,-0.109563 0.114634,-0.175479c0.026948,-0.065916 0.040635,-0.136731 0.040635,-0.207992l0,-23.857134c0,-0.071261 -0.013688,-0.142076 -0.040635,-0.207992c-0.02652,-0.065916 -0.065444,-0.125597 -0.114634,-0.175479c-0.04919,-0.050328 -0.107362,-0.089966 -0.171095,-0.117134c-0.065016,-0.027613 -0.13431,-0.04142 -0.204459,-0.04142l-40.8563,0c-0.069721,0 -0.139015,0.014252 -0.203604,0.04142c-0.063733,0.026723 -0.121905,0.066807 -0.171095,0.117134c-0.04919,0.049882 -0.088542,0.109563 -0.115062,0.175479c-0.026948,0.065471 -0.040635,0.136286 -0.040635,0.207992l-0.000428,0z"/>
   <path stroke="null" id="svg_27" fill="#505050" d="m168.52633,126.61979l-37.64099,0l0,2.67227l37.64099,0l0,-2.67227z"/>
   <path stroke="null" id="svg_28" fill="#A9D4EE" d="m149.278096,129.437699c0,0 -0.400791,-2.817909 -3.798318,-2.817909l-14.594438,0l0,-23.159672l15.194555,0c3.115647,0 3.198201,2.817909 3.198201,2.817909l0,23.159672z"/>
   <path stroke="null" id="svg_29" fill="#60ACE5" d="m145.856188,107.023145l-11.121201,0l0,0.890757l11.121201,0l0,-0.890757z"/>
   <path stroke="null" id="svg_30" fill="#60ACE5" d="m145.856188,109.695415l-11.121201,0l0,0.890757l11.121201,0l0,-0.890757z"/>
   <path stroke="null" id="svg_31" fill="#60ACE5" d="m145.856188,112.367684l-11.121201,0l0,0.890757l11.121201,0l0,-0.890757z"/>
   <path stroke="null" id="svg_32" fill="#60ACE5" d="m145.856188,115.039954l-11.121201,0l0,0.890757l11.121201,0l0,-0.890757z"/>
   <path stroke="null" id="svg_33" fill="#60ACE5" d="m145.856188,117.712224l-11.121201,0l0,0.890757l11.121201,0l0,-0.890757z"/>
   <path stroke="null" id="svg_34" fill="#60ACE5" d="m145.856188,120.384494l-11.121201,0l0,0.890757l11.121201,0l0,-0.890757z"/>
   <path stroke="null" id="svg_35" fill="#60ACE5" d="m145.856188,123.056764l-11.121201,0l0,0.890757l11.121201,0l0,-0.890757z"/>
   <path stroke="null" id="svg_36" fill="#A9D4EE" d="m149.278096,129.437699c0,0 0.406779,-2.817909 3.864618,-2.817909l15.383616,0l0,-23.159672l-15.99186,0c-3.170826,0 -3.256373,2.817909 -3.256373,2.817909l0,23.159672z"/>
   <path stroke="null" id="svg_37" fill="#60ACE5" d="m153.555481,107.913901l11.121201,0l0,-0.890757l-11.121201,0l0,0.890757z"/>
   <path stroke="null" id="svg_38" fill="#60ACE5" d="m153.555481,110.586171l11.121201,0l0,-0.890757l-11.121201,0l0,0.890757z"/>
   <path stroke="null" id="svg_39" fill="#60ACE5" d="m153.555481,113.258441l11.121201,0l0,-0.890757l-11.121201,0l0,0.890757z"/>
   <path stroke="null" id="svg_40" fill="#60ACE5" d="m153.555481,115.930711l11.121201,0l0,-0.890757l-11.121201,0l0,0.890757z"/>
   <path stroke="null" id="svg_41" fill="#60ACE5" d="m153.555481,118.602981l11.121201,0l0,-0.890757l-11.121201,0l0,0.890757z"/>
   <path stroke="null" id="svg_42" fill="#60ACE5" d="m153.555481,121.27525l11.121201,0l0,-0.890757l-11.121201,0l0,0.890757z"/>
   <path stroke="null" id="svg_43" fill="#60ACE5" d="m153.555481,123.94752l11.121201,0l0,-0.890757l-11.121201,0l0,0.890757z"/>
   <path stroke="null" id="svg_44" fill="#8867C8" d="m156.549651,114.655147l-1.924823,-0.550488l-1.924823,0.552269l0,-12.087567l3.849647,0l0,12.085786z"/>
   <path stroke="null" id="svg_45" fill="#939393" d="m149.705835,106.577766l-0.427739,0l0,23.159672l0.427739,0l0,-23.159672z"/>
   <path stroke="null" id="svg_46" fill="#D2D2D2" d="m198.040287,111.922306l-20.531449,0l0,4.453783l20.531449,0l0,-4.453783z"/>
   <path stroke="null" id="svg_47" fill="#9C80E0" d="m178.81558,111.922306l19.652446,0l0,-27.613455l-20.899304,0c-0.242955,0 -0.475645,0.10021 -0.647168,0.279252c-0.171951,0.178597 -0.268192,0.420882 -0.268192,0.673857l0,27.99648l0.322515,0c0.105224,-0.478336 0.481206,-1.336135 1.839703,-1.336135z"/>
   <path stroke="null" id="svg_48" fill="#7155B7" d="m179.219792,84.308851l-1.651071,0c-0.242955,0 -0.475645,0.10021 -0.647168,0.279252c-0.171951,0.178597 -0.268192,0.420882 -0.268192,0.673857l0,27.99648l0.322515,0c0.104796,-0.478336 0.481206,-1.336135 1.839276,-1.336135l0.404213,0l0.000428,-27.613455z"/>
   <path stroke="null" id="svg_49" fill="#8867C8" d="m198.468026,115.930711l-20.117398,0c-0.22328,0 -0.437577,-0.092193 -0.595412,-0.256538c-0.157836,-0.164345 -0.246377,-0.387479 -0.246377,-0.619967l0,-2.255396c0,-0.232487 0.088542,-0.455622 0.246377,-0.619967c0.157836,-0.164345 0.372133,-0.256538 0.595412,-0.256538l20.117398,0l0,-0.890757l-20.117398,0c-0.449981,0 -0.881569,0.186168 -1.199807,0.51753c-0.318665,0.331807 -0.49746,0.781194 -0.49746,1.249732l0,2.255396c0,0.232042 0.043629,0.461857 0.129177,0.67653c0.08512,0.214227 0.21002,0.409303 0.367855,0.573202c0.157408,0.164345 0.344757,0.294395 0.550499,0.383025c0.20617,0.089076 0.426883,0.134504 0.649735,0.134504l20.117398,0l0,-0.890757z"/>
   <path stroke="null" id="svg_50" fill="#ED8422" d="m183.924916,118.324619l-1.710954,-0.890757l-1.710954,0.890757l0,-5.066178l3.421908,0l0,5.066178z"/>
   <path stroke="null" id="svg_51" fill="#A9D4EE" d="m195.901595,87.871878l-14.115371,0l0,7.126053l14.115371,0l0,-7.126053z"/>
  </g>
 </g>
</svg>