<svg xmlns="http://www.w3.org/2000/svg" viewBox="0 0 636 300"><title>swimlane-build-cloud-apps</title><rect x="210.766" y="186.691" width="5.812" height="3.761" fill="#9d6952"/><path d="M158,244H34v-7H158ZM36,242H156v-3H36Z" fill="#d8b094"/><path d="M399.754,286H125.209a2.991,2.991,0,0,1-2.862-2.971,2.925,2.925,0,0,1,2.862-2.97H399.754a2.867,2.867,0,0,1,2.863,2.97A2.928,2.928,0,0,1,399.754,286Z" fill="#c8c8c8"/><rect x="44" y="202" width="35" height="35" fill="#939393"/><rect x="84" y="202" width="35" height="35" fill="#f08400"/><rect x="41" y="202" width="35" height="35" fill="#d2d2d2"/><rect x="81" y="202" width="35" height="35" fill="#ffa940"/><polyline points="124 237 159 237 159 202 124 202" fill="#939393"/><polyline points="121 237 156 237 156 202 121 202" fill="#d2d2d2"/><rect x="44" y="164" width="35" height="35" fill="#409ae1"/><rect x="84" y="164" width="35" height="35" fill="#939393"/><rect x="41" y="164" width="35" height="35" fill="#69afe5"/><rect x="81" y="164" width="35" height="35" fill="#d2d2d2"/><polygon points="278 158.166 293 160.916 293 149 278 149 278 158.166" fill="#737373" fill-rule="evenodd"/><rect x="295" y="121" width="12" height="52" fill="#737373"/><path d="M609.044,107a42.532,42.532,0,0,0-26.476-10.2,54.976,54.976,0,0,0,1.247-9.992,54.27,54.27,0,0,0-54.354-54.092,54.887,54.887,0,0,0-32.5,10.562C485.736,23.39,463.841,9.715,438.247,9.715a67.164,67.164,0,0,0-67.476,65.916h-.636A54.357,54.357,0,0,0,320.851,107Z" fill="#b5d5ea"/><path d="M595.771,107a45.508,45.508,0,0,0-20.191-5.234,55,55,0,0,0,1.247-9.994,54.27,54.27,0,0,0-54.356-54.09,54.889,54.889,0,0,0-32.5,10.56c-11.222-19.881-33.117-33.556-58.709-33.556A120.6,120.6,0,0,0,408.006,16.8,66.852,66.852,0,0,0,370.771,75.63h-.636A54.358,54.358,0,0,0,320.85,107Z" fill="#d9ebf9"/><rect x="470" y="167" width="6" height="4" fill="#d8b094"/><rect x="505" y="167" width="6" height="4" fill="#d8b094"/><rect x="522" y="167" width="6" height="4" fill="#d8b094"/><rect x="557" y="167" width="6" height="4" fill="#d8b094"/><rect x="521" y="171" width="46" height="46" fill="#939393"/><rect x="469" y="171" width="46" height="46" fill="#939393"/><rect x="416" y="171" width="46" height="46" fill="#f08400"/><rect x="518" y="171" width="46" height="46" fill="#d2d2d2"/><rect x="465" y="171" width="46" height="46" fill="#d2d2d2"/><rect x="469" y="121" width="46" height="46" fill="#939393"/><rect x="465" y="121" width="46" height="46" fill="#d2d2d2"/><rect x="521" y="121" width="46" height="46" fill="#409ae1"/><rect x="518" y="121" width="46" height="46" fill="#69afe5"/><rect x="412" y="171" width="46" height="46" fill="#ffa940"/><rect x="320" y="76" width="63" height="63" fill="#c78e00"/><path d="M316.356,182c3.748,25.719,26.39,45.962,53.779,45.962H581.321a43.1,43.1,0,0,0,43.09-42.92c0-1.024-.047-2.036-.116-3.042Z" fill="#b5d5ea"/><path d="M316.367,182a53.669,53.669,0,0,0,21.585,35.462,83.582,83.582,0,0,0,25.194,3.543H570.5c23.754,0,45.389-11.457,45.927-35.056A37.7,37.7,0,0,0,616.3,182Z" fill="#d9ebf9"/><rect x="249.978" y="239.559" width="43.691" height="23.832"/><path d="M202.315,223.96c0,2.84.993,5.076,1.986,5.076h26.81c1.986,0,2.979-2.236,2.979-5.076v-1.42a2.793,2.793,0,0,0-2.979-2.84H204.3c-.993,0-1.986,1.42-1.986,2.84Z" fill="#464646" fill-rule="evenodd"/><rect x="198.343" y="231.615" width="63.551" height="19.86" fill="#737373"/><path d="M235.247,148.205h-48.9A4.216,4.216,0,0,0,182.1,152.1v67.6h4.332l.247-64.8a1.3,1.3,0,0,1,1.3-1.294h44.107s26.4,18.349,26.4,87.426c0,3.238,6.335,6.476,6.335-6.476C264.81,234.551,265.866,175.188,235.247,148.205Z" fill="#737373" fill-rule="evenodd"/><polygon points="265.935 235.651 289.28 235.651 289.28 252.029 275.175 265.599 266.907 266.535 227.513 266.535 265.935 235.651" fill="#d83b01" fill-rule="evenodd"/><polygon points="138.764 244.743 138.764 267.363 202.315 267.363 174.234 239.559 138.764 244.743" fill="#737373" fill-rule="evenodd"/><path d="M226.849,272.325H172.7s-3.185-27.294-33.972-27.294V231.384s0-18.895,22.294-18.895h21.041v6.82s39.4-3.089,39.4,29.854h24.374l18.015-15.442H289.28v5.791H263.446Z" fill="#ec6401" fill-rule="evenodd"/><circle cx="146.708" cy="267.363" r="15.888" fill="#505050"/><circle cx="146.708" cy="267.363" r="7.944" fill="#b2b2b2"/><rect x="289" y="99" width="12" height="168" fill="#939393"/><circle cx="273.81" cy="263.391" r="19.86" fill="#505050"/><circle cx="273.81" cy="263.391" r="11.916" fill="#b2b2b2"/><rect x="212.49" y="216.73" width="5.115" height="1.849" fill="#0078d7"/><path d="M227.916,242.565l-4.668-23.986L212.314,217l.975-6.613,13.481,2.026a3.463,3.463,0,0,1,2.828,2.913l2.463,27.243Z" fill="#0063b0"/><path d="M238.674,243c-7.844-23.013-7.616-22.343-7.616-22.343-2.324-.219-19.185-2.081-19.185-2.081.7-6.7.7-7.316.7-7.316l21.337,2.377a3.432,3.432,0,0,1,2.824,2.473L243.431,243Z" fill="#0063b0"/><path d="M219.368,192.044c-.582-1.037-1.235-2.914-4.316-2.914h-4.587c-3.084,0-3.522,3.176-3.788,3.794-.969,2.553-1.408,13.576-1.408,18.163,0,4.5-.036,6.7,2.553,7.23,3.519.716,10.381,1.577,10.381,1.577,2.642,0,4.693.007,4.693-4.485S220.385,194.066,219.368,192.044Z" fill="#006fc8"/><path d="M237.355,242.3c-.888-.441-5.118-2.2-5.118-2.2h0a.317.317,0,0,0-.262-.089.643.643,0,0,0-.617.528h0a1.762,1.762,0,0,1-1.936,1.321l-1.858-1.145-.087,3.883a.711.711,0,0,0,.791.793l9.174-.265a.541.541,0,0,0,.617-.614l.087-1.241S238.235,242.741,237.355,242.3Z" fill="#464646"/><path d="M248.811,242.21c-.969-.528-5.732-2.377-5.732-2.377h-.352a.492.492,0,0,0-.528.441.086.086,0,0,1-.089.087,1.86,1.86,0,0,1-2.026,1.411l-1.938-1.235-.087,4.059a.712.712,0,0,0,.794.793l10.045-.265s.617.176.617-.614v-1.331S249.691,242.741,248.811,242.21Z" fill="#464646"/><path d="M242.01,201.539l-13.168,9.209a1.089,1.089,0,1,0,1.249,1.785l5.253-3.674,1.319,1.885-1.976,1.382,17.4,24.6,7.758-2.551-18.76-26.521-1.976,1.382-1.319-1.885,5.468-3.824a1.089,1.089,0,0,0-1.248-1.786Z" fill="#737373"/><path d="M232.314,204.967c.068-.257,1.432-.263,1.544-.689.221-.488,2.708-.563,2.708-.563.276-.02.68.179.675.541a.539.539,0,0,1-.456.7l-3.671.772a.681.681,0,0,1-.783-.486C232.353,205.159,232.292,205.05,232.314,204.967Z" fill="#805443"/><path d="M235.236,205.278a.6.6,0,0,1,.754-.441l3.625,1.134a.747.747,0,0,1,.415.84.679.679,0,0,1-.837.415l-3.516-1.194A.6.6,0,0,1,235.236,205.278Z" fill="#9d6952"/><path d="M233.782,207a.6.6,0,0,1,.754-.441l3.625,1.134a.563.563,0,0,1,.332.815.5.5,0,0,1-.732.354l-3.624-1.134A.494.494,0,0,1,233.782,207Z" fill="#9d6952"/><path d="M233.283,207.867a.494.494,0,0,1,.728-.355l3.136.916a.662.662,0,1,1-.419,1.256l-3.03-.977A.748.748,0,0,1,233.283,207.867Z" fill="#9d6952"/><path d="M234.051,205.975a.681.681,0,0,1,.839-.424l3.859,1.287a.6.6,0,0,1,.439.76.748.748,0,0,1-.838.418l-3.881-1.2A.747.747,0,0,1,234.051,205.975Z" fill="#9d6952"/><path d="M233.093,207.546c.335-1.278.938-3.223.938-3.223l1.789.47-1.355,4.115S232.78,208.737,233.093,207.546Z" fill="#9d6952"/><path d="M236.083,204.862a2.636,2.636,0,0,0-2.007-.709l-.291,1.107Z" fill="#9d6952"/><path d="M207.93,195.868c1.407,3.855,6.735,9.348,7.978,10.537s17.28,2.313,17.28,2.313l1.549-4.651s-12.048-2.1-12.956-2.374-5.451-4.993-9.087-10.01C210.547,188.72,206.335,191.5,207.93,195.868Z" fill="#0063b0"/><path d="M209.712,174.346c2.849-1.486,5.932-1.15,7.529,0a4.715,4.715,0,0,1,2.1,4.541,4.412,4.412,0,0,0,1.288,3.506c.37.468.676.938.069,1.2a6.923,6.923,0,0,1-1.123.372l.12,3.925s-3.959,1.569-7.324.112a7.418,7.418,0,0,1-.816-.42c-.086-.048-.185-.107-.294-.177l-.038-.024a11.314,11.314,0,0,1-3.476-4.013C205.643,179.659,206.6,175.967,209.712,174.346Z" fill="#9d6952"/><path d="M219.344,178.883l-6.386,1.443-.288-2.839,6.7-.414A10.438,10.438,0,0,1,219.344,178.883Z" fill="#805443"/><path d="M207.779,174.315c3.923-3.478,10.344-.853,10.344-.853l.663,2.493-6.156.508.482,4.836-2.193.181.017,1.707-1.056,3.06a11.747,11.747,0,0,1-3.28-5.951A8.092,8.092,0,0,1,207.779,174.315Z" fill="#464646"/><path d="M211.489,180.017l.342,3.431a1.852,1.852,0,0,1-2.122-1.591,1.769,1.769,0,0,1,1.78-1.84" fill="#9d6952"/><polygon points="209.97 177.741 206.545 181.175 205.4 179.895 207.489 177.775 209.97 177.741" fill="#737373"/><path d="M212.246,169.761c2.909-.125,4.683.851,5.766,2.112l.479.095a.5.5,0,0,1,.386.45l.856,4.323a.35.35,0,0,1-.366.332l-2.857.111a.434.434,0,0,1-.223-.049c-2.527.241-5.708.529-6.765.553a25.311,25.311,0,0,1-3.288-.131C206.178,176.492,205.212,170.062,212.246,169.761Z" fill="#ec6401"/><polygon points="223.619 176.964 219.621 176.601 205.793 177.142 205.843 178.092 223.642 177.396 223.619 176.964" fill="#ec6401"/><path d="M215.257,175.209l-.6.023a.558.558,0,0,0-.549.577l.044.837a.577.577,0,0,0,.607.532l.6-.024a.557.557,0,0,0,.549-.576l-.044-.838A.576.576,0,0,0,215.257,175.209Z" fill="#ec6401"/><path d="M209.955,175.427l-.6.023a.559.559,0,0,0-.549.577l.044.837a.577.577,0,0,0,.607.532l.6-.023a.559.559,0,0,0,.549-.577l-.044-.838A.576.576,0,0,0,209.955,175.427Z" fill="#ec6401"/><path d="M207.009,219.537,202.9,197.043a1.63,1.63,0,0,0-1.9-1.31l-4.74.867a1.631,1.631,0,0,0-1.311,1.9l3.338,18.25Z" fill="#464646" fill-rule="evenodd"/><rect x="168.539" y="227.643" width="11.529" height="4.085" rx="0.697" fill="#d83b01"/><path d="M254.039,180.143h-9.662l-2.105-3.753a.406.406,0,0,0-.354-.207h-4.605a.406.406,0,0,0-.354.6l6.309,11.246a.406.406,0,0,0,.354.207h4.6a.407.407,0,0,0,.354-.605L245.7,182.5h8.34Z" fill="#737373"/><rect x="315" y="76" width="63" height="63" fill="#ffb900"/><rect x="34" y="238" width="5" height="5" fill="#d8b094"/><rect x="67" y="238" width="5" height="5" fill="#d8b094"/><rect x="100" y="238" width="5" height="5" fill="#d8b094"/><rect x="132.028" y="237.559" width="5.379" height="5.379" fill="#d8b094"/><rect x="44" y="199" width="3" height="3" fill="#d8b094"/><rect x="73" y="199" width="3" height="3" fill="#d8b094"/><rect x="84" y="199" width="3" height="3" fill="#d8b094"/><rect x="114" y="199" width="3" height="3" fill="#d8b094"/><path d="M221.457,249.163h8.636c.005-.114.025-.22.025-.336,0-32.835-28.062-37.071-44.9-37.071l-1.488,7.49C190.789,219.076,221.457,220.009,221.457,249.163Z" fill="#737373" fill-rule="evenodd"/><rect x="301" y="138" width="94" height="4" fill="#737373"/></svg>