<?xml version="1.0" encoding="utf-8"?>
<!-- Generator: Adobe Illustrator 22.0.1, SVG Export Plug-In . SVG Version: 6.00 Build 0)  -->
<svg version="1.1" id="Layer_1" xmlns="http://www.w3.org/2000/svg" xmlns:xlink="http://www.w3.org/1999/xlink" x="0px" y="0px"
	 width="50px" height="50px" viewBox="0 0 50 50" style="enable-background:new 0 0 50 50;" xml:space="preserve">
<style type="text/css">
	.st0{fill:#59B4D9;}
	.st1{fill:#959595;}
	.st2{fill:#B3B4B5;}
	.st3{fill:#7A7A7A;}
	.st4{opacity:0.2;fill:#FFFFFF;enable-background:new    ;}
</style>
<path class="st0" d="M15,34H9c-4-1-7.1-4.2-7.1-8.3c0-3.5,2.2-6.6,5.3-7.8c0-0.4-0.1-0.7-0.1-1.1c0-6,4.8-10.8,10.8-10.8
	c3.3,0,6.3,1.5,8.4,4c1.2-0.6,2.6-0.9,3.9-0.9c4.7,0,8.8,4.2,8.9,8.8L23,11.3l-8,4.9V34z"/>
<path class="st1" d="M45,38.4l-22.1,4.2L23,27.1l22,4.1V38.4z M22.9,13.3L45,21.6V30l-22-4.7"/>
<path class="st2" d="M23,25.3l-6,2.8V17l6-3.6 M44,29l-20-4.6v-9.9l20,7.4V29z M33,25.4l2,0.5v-6.5l-2-0.7V25.4z M31,18.2l-2-0.7
	v6.9l2,0.6V18.2z M37,26.5l2,0.5v-6.2l-2-0.7V26.5z M25,23.3l2,0.5v-7.1L25,16C25,16.1,25,23.3,25,23.3z M43,22.2l-2-0.7v6l2,0.5
	V22.2z M24,28.8v12.8l20-3.7v-6.1L24,28.8z M25,40.1v-9.9l2,0.2v9.3L25,40.1z M31,39.1l-2,0.4v-8.7l2,0.3C31,31,31,39.1,31,39.1z
	 M33,38.8v-7.6l2,0.2v7L33,38.8z M39,37.7L37,38v-6.4l2,0.3V37.7z M43.1,37.1L41,37.4v-5.2l1.9,0.2L43.1,37.1z"/>
<path class="st1" d="M19,25.1l-1,0.6v-7.9l1-0.5C19,17.2,19,25.1,19,25.1z M21,16.1l-1,0.7v7.7l1-0.5V16.1z"/>
<path class="st2" d="M17,39.1V30l6-2.9v15.6"/>
<path class="st1" d="M18.9,39.1L18,38.6v-7.7l0.9-0.4V39.1z M21,29.5L20,30v9.7l1,0.5V29.5L21,29.5z"/>
<path class="st3" d="M43,22.9l-18-6v-0.8l18,6.2V22.9z M42.9,32.4L25,30.2V31l17.9,2.1V32.4z M21,17.1v-1l-2.9,1.6v0.8L21,17.1z
	 M18,31.5l3-1.1v-0.8l-3,1.3V31.5z"/>
<path class="st4" d="M45,21.7v16.7l-22,4.2l16.7-23L45,21.7z"/>
</svg>
