<svg width="636" height="300" xmlns="http://www.w3.org/2000/svg">
 <style type="text/css">.st0{fill:#59B4D9;}
	.st1{fill:#959595;}
	.st2{fill:#B3B4B5;}
	.st3{fill:#7A7A7A;}
	.st4{opacity:0.2;fill:#FFFFFF;enable-background:new    ;}</style>

 <g>
  <title>background</title>
  <rect fill="none" id="canvas_background" height="302" width="638" y="-1" x="-1"/>
 </g>
 <g>
  <title>Layer 1</title>
  <g stroke="null" id="svg_10">
   <path stroke="null" id="svg_1" d="m230.871284,220.802477l-57.925754,0c-38.61717,-7.689375 -68.545476,-32.295374 -68.545476,-63.82181c0,-26.912811 21.239443,-50.749873 51.16775,-59.977123c0,-3.07575 -0.965429,-5.382562 -0.965429,-8.458312c0,-46.136248 46.340604,-83.045247 104.266358,-83.045247c31.859165,0 60.822042,11.534062 81.096056,30.757499c11.585151,-4.613625 25.10116,-6.920437 37.65174,-6.920437c45.375174,0 84.957773,32.295374 85.923202,67.666497l-155.434108,-50.749873l-77.234339,37.677936l0,136.87087z" class="st0"/>
   <path stroke="null" id="svg_2" d="m520.500057,254.635726l-213.359862,32.295374l0.965429,-119.185308l212.394433,31.526436l0,55.363498zm-213.359862,-193.003305l213.359862,63.82181l0,64.590748l-212.394433,-36.140061" class="st1"/>
   <path stroke="null" id="svg_3" d="m308.105624,153.904917l-57.925754,21.530249l0,-85.352059l57.925754,-27.681749m202.740141,119.954245l-193.085848,-35.371124l0,-76.12481l193.085848,56.901373l0,54.59456zm-106.197217,-27.681749l19.308585,3.844687l0,-49.980936l-19.308585,-5.382562l0,51.518811zm-19.308585,-55.363498l-19.308585,-5.382562l0,53.056685l19.308585,4.613625l0,-52.287748zm57.925754,63.82181l19.308585,3.844687l0,-47.674123l-19.308585,-5.382562l0,49.211998zm-115.851509,-24.605999l19.308585,3.844687l0,-54.59456l-19.308585,-5.382562c0,0.768937 0,56.132435 0,56.132435zm173.777263,-8.458312l-19.308585,-5.382562l0,46.136248l19.308585,3.844687l0,-44.598373zm-183.431556,50.749873l0,98.423996l193.085848,-28.450686l0,-46.905186l-193.085848,-23.068124zm9.654292,86.889934l0,-76.12481l19.308585,1.537875l0,71.511185l-19.308585,3.07575zm57.925754,-7.689375l-19.308585,3.07575l0,-66.89756l19.308585,2.306812c0,-0.768937 0,61.514998 0,61.514998zm19.308585,-2.306812l0,-58.439248l19.308585,1.537875l0,53.825623l-19.308585,3.07575zm57.925754,-8.458312l-19.308585,2.306812l0,-49.211998l19.308585,2.306812l0,44.598373zm39.582599,-4.613625l-20.274014,2.306812l0,-39.984748l18.343156,1.537875l1.930858,36.140061z" class="st2"/>
   <path stroke="null" id="svg_4" d="m269.488454,152.367042l-9.654292,4.613625l0,-60.74606l9.654292,-3.844687c0,-0.768937 0,59.977123 0,59.977123zm19.308585,-69.204372l-9.654292,5.382562l0,59.208185l9.654292,-3.844687l0,-60.74606z" class="st1"/>
   <path stroke="null" id="svg_5" d="m250.179869,260.018288l0,-69.97331l57.925754,-22.299187l0,119.954245" class="st2"/>
   <path stroke="null" id="svg_6" d="m268.523025,260.018288l-8.688863,-3.844687l0,-59.208185l8.688863,-3.07575l0,66.128622zm20.274014,-73.817997l-9.654292,3.844687l0,74.586935l9.654292,3.844687l0,-82.276309l0,0z" class="st1"/>
   <path stroke="null" id="svg_7" d="m501.191472,135.450418l-173.777263,-46.136248l0,-6.1515l173.777263,47.674123l0,4.613625zm-0.965429,73.04906l-172.811834,-16.916624l0,6.1515l172.811834,16.147687l0,-5.382562zm-211.429004,-117.647433l0,-7.689375l-27.997448,12.303l0,6.1515l27.997448,-10.765125zm-28.962877,110.726996l28.962877,-8.458312l0,-6.1515l-28.962877,9.996187l0,4.613625z" class="st3"/>
   <path stroke="null" id="svg_8" d="m520.500057,126.223168l0,128.412558l-212.394433,32.295374l161.226683,-176.855618l51.16775,16.147687z" class="st4"/>
  </g>
 </g>
</svg>