<?xml version="1.0" encoding="utf-8"?>
<!-- Generator: Adobe Illustrator 20.1.0, SVG Export Plug-In . SVG Version: 6.00 Build 0)  -->
<svg version="1.1" id="Layer_1" xmlns="http://www.w3.org/2000/svg" xmlns:xlink="http://www.w3.org/1999/xlink" x="0px" y="0px"
	 viewBox="0 0 160 80" style="enable-background:new 0 0 160 80;" xml:space="preserve" width="160" height="80">
<style type="text/css">
	.st0{fill:#3999C6;}
	.st1{fill:#FFFFFF;}
	.st2{fill:#C1E3F1;}
	.st3{fill:#444444;}
	.st4{fill:#0072C6;}
	.st5{fill:#3E3E3E;}
	.st6{fill:#888888;}
	.st7{fill:#804998;}
	.st8{fill:#8B6AB1;}
	.st9{fill:#5C2D91;}
	.st10{fill:#A0A1A2;enable-background:new    ;}
	.st11{fill:#888888;enable-background:new    ;}
	.st12{fill:#666666;}
	.st13{fill:#73AA24;}
	.st14{fill:#05930C;}
	.st15{fill:none;stroke:#DD5900;stroke-width:2;stroke-linecap:round;stroke-miterlimit:10;}
	.st16{fill:none;stroke:#0072C6;stroke-width:2;stroke-linecap:round;stroke-miterlimit:10;}
</style>
<g>
	<polygon class="st1" points="74.935,69.707 5.478,69.707 5.478,14.772 13.062,14.772 14.033,10.902 40.331,12.837 66.935,10.902 
		67.898,14.772 74.935,14.772 	"/>
	<g>
		<path class="st6" d="M76.348,13v59.033H3.478V12.837h7.652v-3.87h19.522c1.773,0,3.481,0.272,5.124,0.816
			c1.642,0.544,3.159,1.36,4.55,2.449c1.391-1.088,2.907-1.905,4.55-2.449c1.642-0.544,3.35-0.816,5.124-0.816L68.87,9v4H76.348z
			 M7,68.033h32.54c-0.645-0.624-3.321-1.818-4.036-2.15c-0.716-0.333-1.471-0.584-2.267-0.756
			c-0.796-0.171-1.658-0.257-2.585-0.257H11.13V16.707H7V68.033z M15,61h15.652c1.35,0,2.68,0.166,3.99,0.499
			c1.31,0.333,2.559,0.831,3.749,1.496V15.618c-1.088-0.907-2.298-1.597-3.628-2.071c-1.33-0.473-2.701-0.71-4.111-0.71H15V61z
			 M73,17h-4.13v48.033L50,64.87c-0.927,0-1.789,0.086-2.585,0.257c-0.796,0.171-1.552,0.423-2.267,0.756
			c-0.716,0.333-3.391,1.526-4.036,2.15H73V17z M50,12.837c-1.411,0-2.781,0.237-4.111,0.71c-1.33,0.474-2.539,1.164-3.628,2.071
			v47.377c1.189-0.665,2.438-1.164,3.749-1.496C47.319,61.166,48.65,61,50,61l15,0.033V13L50,12.837z"/>
	</g>
</g>
<g>
	<polygon class="st1" points="154.935,69.707 85.478,69.707 85.478,14.772 93.062,14.772 94.033,10.902 120.331,12.837 
		146.935,10.902 147.898,14.772 154.935,14.772 	"/>
	<g>
		<path class="st7" d="M156.348,13v59.033h-72.87V12.837h7.652v-3.87h19.522c1.773,0,3.481,0.272,5.124,0.816
			c1.642,0.544,3.159,1.36,4.55,2.449c1.391-1.088,2.907-1.905,4.55-2.449c1.642-0.544,3.35-0.816,5.124-0.816L148.87,9v4H156.348z
			 M87,68.033h32.54c-0.645-0.624-3.321-1.818-4.036-2.15c-0.716-0.333-1.471-0.584-2.267-0.756
			c-0.796-0.171-1.658-0.257-2.585-0.257H91.13V16.707H87V68.033z M95,61h15.652c1.35,0,2.68,0.166,3.99,0.499
			c1.31,0.333,2.559,0.831,3.749,1.496V15.618c-1.088-0.907-2.298-1.597-3.628-2.071c-1.33-0.473-2.701-0.71-4.111-0.71H95V61z
			 M153,17h-4.13v48.033L130,64.87c-0.927,0-1.789,0.086-2.585,0.257c-0.796,0.171-1.552,0.423-2.267,0.756
			c-0.716,0.333-3.391,1.526-4.036,2.15H153V17z M130,12.837c-1.411,0-2.781,0.237-4.111,0.71c-1.33,0.474-2.539,1.164-3.628,2.071
			v47.377c1.189-0.665,2.438-1.164,3.749-1.496C127.319,61.166,128.65,61,130,61l15,0.033V13L130,12.837z"/>
	</g>
</g>
<g>
	<circle class="st8" cx="40" cy="39" r="22"/>
	<path class="st9" d="M24.748,23.153C20.591,27.156,18,32.774,18,39c0,12.15,9.85,22,22,22c6.226,0,11.844-2.591,15.847-6.748
		L24.748,23.153z"/>
	<g>
		<path class="st1" d="M34.481,41.581l-6.841-9.891c-0.086-0.126-0.171-0.255-0.254-0.387c-0.083-0.132-0.15-0.261-0.202-0.387
			h-0.043c0.011,0.103,0.021,0.246,0.03,0.43c0.009,0.184,0.013,0.413,0.013,0.688v9.548h-1.143V29.258h1.263l6.729,9.771
			c0.103,0.155,0.196,0.3,0.279,0.434c0.083,0.134,0.159,0.259,0.228,0.374h0.043c-0.023-0.189-0.04-0.401-0.052-0.636
			c-0.012-0.235-0.017-0.495-0.017-0.782v-9.161h1.152v12.323H34.481z"/>
		<path class="st1" d="M38.864,41.581V29.258h6.007v1.048h-4.864v4.52h4.503v1.031h-4.503v4.684h5.139v1.04H38.864z"/>
		<path class="st1" d="M51.273,30.306v11.275H50.13V30.306h-3.549v-1.048h8.25v1.048H51.273z"/>
		<path class="st1" d="M36.495,49.072c-0.37,0.196-0.831,0.293-1.383,0.293c-0.712,0-1.283-0.229-1.711-0.688
			c-0.428-0.459-0.642-1.06-0.642-1.805c0-0.801,0.241-1.448,0.722-1.942c0.482-0.493,1.093-0.739,1.833-0.739
			c0.475,0,0.868,0.068,1.18,0.205v0.625c-0.358-0.2-0.754-0.3-1.187-0.3c-0.575,0-1.041,0.191-1.398,0.576
			c-0.358,0.383-0.536,0.897-0.536,1.539c0,0.61,0.167,1.096,0.501,1.458c0.334,0.362,0.772,0.542,1.314,0.542
			c0.503,0,0.938-0.112,1.306-0.335V49.072z"/>
		<path class="st1" d="M38.932,49.365c-0.529,0-0.95-0.167-1.265-0.501c-0.315-0.334-0.473-0.778-0.473-1.329
			c0-0.6,0.164-1.07,0.492-1.407c0.328-0.337,0.772-0.506,1.33-0.506c0.533,0,0.949,0.164,1.248,0.492
			c0.299,0.329,0.448,0.783,0.448,1.365c0,0.57-0.161,1.027-0.483,1.371C39.907,49.193,39.475,49.365,38.932,49.365z M38.974,46.104
			c-0.368,0-0.658,0.126-0.873,0.376s-0.321,0.595-0.321,1.036c0,0.423,0.108,0.757,0.324,1.001c0.216,0.245,0.506,0.367,0.87,0.367
			c0.37,0,0.655-0.12,0.853-0.36c0.199-0.24,0.299-0.581,0.299-1.024c0-0.447-0.099-0.791-0.299-1.033
			C39.629,46.225,39.344,46.104,38.974,46.104z"/>
		<path class="st1" d="M43.492,46.286c-0.1-0.077-0.244-0.116-0.433-0.116c-0.244,0-0.448,0.116-0.613,0.346
			c-0.164,0.23-0.246,0.545-0.246,0.943v1.822h-0.573v-3.575H42.2v0.737h0.014c0.082-0.251,0.206-0.448,0.373-0.589
			c0.168-0.141,0.355-0.211,0.562-0.211c0.149,0,0.263,0.016,0.342,0.048V46.286z"/>
		<path class="st1" d="M46.986,47.637h-2.524c0.009,0.399,0.117,0.706,0.321,0.922c0.205,0.217,0.487,0.325,0.845,0.325
			c0.403,0,0.773-0.133,1.11-0.399v0.538c-0.314,0.228-0.73,0.342-1.247,0.342c-0.505,0-0.902-0.162-1.19-0.487
			c-0.288-0.325-0.433-0.782-0.433-1.371c0-0.556,0.158-1.01,0.473-1.36c0.315-0.35,0.707-0.525,1.175-0.525s0.83,0.151,1.085,0.453
			c0.256,0.303,0.384,0.723,0.384,1.261V47.637z M46.4,47.152c-0.002-0.331-0.082-0.589-0.239-0.772
			c-0.157-0.184-0.375-0.276-0.655-0.276c-0.27,0-0.499,0.097-0.688,0.29s-0.305,0.446-0.349,0.758H46.4z"/>
	</g>
</g>
<g>
	<circle class="st8" cx="120" cy="39" r="22"/>
	<path class="st9" d="M104.748,23.153C100.591,27.156,98,32.774,98,39c0,12.15,9.85,22,22,22c6.226,0,11.844-2.591,15.847-6.748
		L104.748,23.153z"/>
	<g>
		<path class="st1" d="M114.481,41.581l-6.841-9.891c-0.086-0.126-0.171-0.255-0.254-0.387c-0.083-0.132-0.15-0.261-0.202-0.387
			h-0.043c0.011,0.103,0.021,0.246,0.03,0.43c0.009,0.184,0.013,0.413,0.013,0.688v9.548h-1.143V29.258h1.263l6.729,9.771
			c0.103,0.155,0.196,0.3,0.279,0.434c0.083,0.134,0.159,0.259,0.228,0.374h0.043c-0.023-0.189-0.04-0.401-0.052-0.636
			c-0.012-0.235-0.017-0.495-0.017-0.782v-9.161h1.152v12.323H114.481z"/>
		<path class="st1" d="M118.864,41.581V29.258h6.007v1.048h-4.864v4.52h4.503v1.031h-4.503v4.684h5.139v1.04H118.864z"/>
		<path class="st1" d="M131.273,30.306v11.275h-1.143V30.306h-3.549v-1.048h8.25v1.048H131.273z"/>
		<path class="st1" d="M116.495,49.072c-0.37,0.196-0.831,0.293-1.383,0.293c-0.712,0-1.283-0.229-1.711-0.688
			c-0.428-0.459-0.642-1.06-0.642-1.805c0-0.801,0.241-1.448,0.722-1.942c0.482-0.493,1.093-0.739,1.833-0.739
			c0.475,0,0.868,0.068,1.18,0.205v0.625c-0.358-0.2-0.754-0.3-1.187-0.3c-0.575,0-1.041,0.191-1.398,0.576
			c-0.358,0.383-0.536,0.897-0.536,1.539c0,0.61,0.167,1.096,0.501,1.458c0.334,0.362,0.772,0.542,1.314,0.542
			c0.503,0,0.938-0.112,1.306-0.335V49.072z"/>
		<path class="st1" d="M118.932,49.365c-0.529,0-0.95-0.167-1.265-0.501c-0.315-0.334-0.473-0.778-0.473-1.329
			c0-0.6,0.164-1.07,0.492-1.407c0.328-0.337,0.772-0.506,1.33-0.506c0.533,0,0.949,0.164,1.248,0.492
			c0.299,0.329,0.448,0.783,0.448,1.365c0,0.57-0.161,1.027-0.483,1.371C119.907,49.193,119.475,49.365,118.932,49.365z
			 M118.974,46.104c-0.368,0-0.658,0.126-0.873,0.376s-0.321,0.595-0.321,1.036c0,0.423,0.108,0.757,0.324,1.001
			c0.216,0.245,0.507,0.367,0.87,0.367c0.37,0,0.655-0.12,0.853-0.36c0.199-0.24,0.299-0.581,0.299-1.024
			c0-0.447-0.099-0.791-0.299-1.033C119.629,46.225,119.344,46.104,118.974,46.104z"/>
		<path class="st1" d="M123.492,46.286c-0.1-0.077-0.244-0.116-0.433-0.116c-0.244,0-0.448,0.116-0.613,0.346
			c-0.164,0.23-0.246,0.545-0.246,0.943v1.822h-0.573v-3.575h0.573v0.737h0.014c0.082-0.251,0.206-0.448,0.373-0.589
			c0.168-0.141,0.355-0.211,0.562-0.211c0.149,0,0.263,0.016,0.342,0.048V46.286z"/>
		<path class="st1" d="M126.986,47.637h-2.524c0.009,0.399,0.117,0.706,0.321,0.922c0.205,0.217,0.487,0.325,0.845,0.325
			c0.403,0,0.773-0.133,1.11-0.399v0.538c-0.314,0.228-0.73,0.342-1.247,0.342c-0.505,0-0.902-0.162-1.19-0.487
			c-0.288-0.325-0.433-0.782-0.433-1.371c0-0.556,0.158-1.01,0.473-1.36c0.315-0.35,0.707-0.525,1.175-0.525
			c0.468,0,0.83,0.151,1.086,0.453c0.256,0.303,0.384,0.723,0.384,1.261V47.637z M126.4,47.152
			c-0.002-0.331-0.082-0.589-0.239-0.772c-0.157-0.184-0.375-0.276-0.655-0.276c-0.27,0-0.499,0.097-0.688,0.29
			c-0.189,0.193-0.305,0.446-0.349,0.758H126.4z"/>
	</g>
</g>
</svg>
