<?xml version="1.0" encoding="utf-8"?>
<!-- Generator: Adobe Illustrator 20.1.0, SVG Export Plug-In . SVG Version: 6.00 Build 0)  -->
<svg version="1.1" xmlns="http://www.w3.org/2000/svg" xmlns:xlink="http://www.w3.org/1999/xlink" x="0px" y="0px"
	 viewBox="0 0 160 80" style="enable-background:new 0 0 160 80;" xml:space="preserve" width="160" height="80">
<style type="text/css">
	.st0{fill:#DCDCDC;}
	.st1{fill:#CCCCCC;}
	.st2{fill:#FFFFFF;}
	.st3{fill:#444444;}
	.st4{fill:#6E6E6E;}
	.st5{fill:#D0BBD9;}
	.st6{fill:#A388C1;}
	.st7{fill:#5C2D91;}
	.st8{fill:#C1E3F1;}
	.st9{fill:#D0BCD9;}
	.st10{fill:#804998;}
	.st11{fill:#3999C6;}
	.st12{fill:#0072C6;}
	.st13{fill:#3E3E3E;}
	.st14{fill:#888888;}
	.st15{fill:#8B6AB1;}
	.st16{fill:#A0A1A2;enable-background:new    ;}
	.st17{fill:#888888;enable-background:new    ;}
	.st18{fill:#73AA24;}
	.st19{fill:#05930C;}
	.st20{fill:none;stroke:#DD5900;stroke-width:2;stroke-linecap:round;stroke-miterlimit:10;}
	.st21{fill:none;stroke:#FFFFFF;stroke-width:2;stroke-linecap:round;stroke-miterlimit:10;}
	.st22{fill:#A0A1A2;}
	.st23{fill:none;stroke:#888888;stroke-width:6;stroke-miterlimit:10;stroke-dasharray:1,8;}
	.st24{fill:#A3A3A3;}
	.st25{fill:none;stroke:#3999C6;stroke-width:6;stroke-miterlimit:10;stroke-dasharray:1,8;}
	.st26{fill:#FEE990;}
	.st27{fill:none;stroke:#6E6E6E;stroke-width:4;stroke-miterlimit:10;}
</style>
<g id="Layer_1">
	<g>
		<g>
			<polygon class="st0" points="17,48 4,26 17,4 43,4 56,26 43,48 			"/>
		</g>
		<g>
			<path class="st1" d="M16.679,29.69C20.717,14.272,32.275,11.268,42,9.499c-1.015,8.059-4.082,22.84-19.096,26.339L16.679,29.69z"
				/>
			<path class="st2" d="M38.75,22.228c0,0,2.813-9.255,3.25-12.729c-4.166,0.758-8.669,1.742-12.773,3.832
				C29.227,13.332,30.89,20.524,38.75,22.228z"/>
			<polygon class="st3" points="22.492,34.34 17.981,30.063 16.022,32.129 17.434,33.468 14.374,34.125 18.628,38.158 
				19.121,35.067 20.534,36.406 			"/>
			<path class="st4" d="M42,9.499c-8.408,1.529-18.18,3.989-23.284,14.587c-1.872-0.575-4.253-0.869-5.563,0.688
				c-2.372,2.821-3.901,5.361-3.901,5.361l0.933,0.747c0,0,2.828-3.258,5.184-3.377c0.525-0.027,1.203,0.139,1.849,0.358
				c-0.19,0.591-0.373,1.195-0.538,1.827l6.224,6.149c0.821-0.191,1.601-0.422,2.352-0.678c0,0,0,0,0,0
				c0.208,0.56,0.363,1.13,0.365,1.591c0.007,2.36-3.095,5.357-3.095,5.357L23.321,43c0,0,2.454-1.662,5.145-4.182
				c1.408-1.318,1.103-3.51,0.494-5.301c-0.001,0.001-0.003,0.001-0.004,0.002C38.799,27.996,41.139,16.333,42,9.499z M23.46,33.787
				l-4.706-4.649c3.558-12.034,12.107-15.463,21.037-17.326C37.716,24.103,32.354,31.313,23.46,33.787z"/>
			<path class="st4" d="M37.44,23.613c-9.172-1.988-9.987-8.943-10.017-9.239l3.979-0.406l-1.99,0.203l1.987-0.23
				c0.023,0.18,0.647,4.411,6.888,5.765L37.44,23.613z"/>
		</g>
	</g>
	<g>
		<g>
			<polygon class="st5" points="97,48 84,26 97,4 123,4 136,26 123,48 			"/>
		</g>
		<g>
			<path class="st6" d="M96.679,29.69C100.717,14.272,112.275,11.268,122,9.499c-1.015,8.059-4.082,22.84-19.096,26.339
				L96.679,29.69z"/>
			<path class="st2" d="M118.75,22.228c0,0,2.813-9.255,3.25-12.729c-4.166,0.758-8.669,1.742-12.773,3.832
				C109.227,13.332,110.89,20.524,118.75,22.228z"/>
			<polygon class="st3" points="102.492,34.34 97.981,30.063 96.022,32.129 97.434,33.468 94.374,34.125 98.628,38.158 
				99.121,35.067 100.534,36.406 			"/>
			<path class="st7" d="M122,9.499c-8.408,1.529-18.18,3.989-23.284,14.587c-1.872-0.575-4.253-0.869-5.563,0.688
				c-2.372,2.821-3.901,5.361-3.901,5.361l0.933,0.747c0,0,2.828-3.258,5.184-3.377c0.525-0.027,1.203,0.139,1.849,0.358
				c-0.19,0.591-0.373,1.195-0.538,1.827l6.224,6.149c0.821-0.191,1.601-0.422,2.352-0.678c0,0,0,0,0,0
				c0.208,0.56,0.363,1.13,0.365,1.591c0.007,2.36-3.095,5.357-3.095,5.357L103.321,43c0,0,2.454-1.662,5.145-4.182
				c1.408-1.318,1.103-3.51,0.494-5.301c-0.001,0.001-0.003,0.001-0.004,0.002C118.799,27.996,121.139,16.333,122,9.499z
				 M103.46,33.787l-4.706-4.649c3.558-12.034,12.107-15.463,21.037-17.326C117.716,24.103,112.354,31.313,103.46,33.787z"/>
			<path class="st7" d="M117.44,23.613c-9.172-1.988-9.987-8.943-10.017-9.239l3.979-0.406l-1.99,0.203l1.987-0.23
				c0.023,0.18,0.647,4.411,6.888,5.765L117.44,23.613z"/>
		</g>
	</g>
	<g>
		<circle class="st18" cx="56" cy="56" r="22"/>
		<path class="st19" d="M40.748,40.153C36.591,44.156,34,49.774,34,56c0,12.15,9.85,22,22,22c6.226,0,11.844-2.591,15.847-6.748
			L40.748,40.153z"/>
		<g>
			<path class="st2" d="M54.488,64.029c-1.427,0.671-3.055,1.006-4.886,1.006c-1.306,0-2.492-0.23-3.558-0.689
				c-1.066-0.46-1.975-1.098-2.727-1.914s-1.332-1.788-1.74-2.914c-0.408-1.125-0.612-2.354-0.612-3.687
				c0-1.4,0.217-2.705,0.651-3.912c0.434-1.207,1.055-2.256,1.862-3.146s1.786-1.587,2.933-2.095
				c1.147-0.507,2.434-0.761,3.861-0.761c1.573,0,2.978,0.241,4.215,0.723v1.83c-1.324-0.662-2.737-0.992-4.241-0.992
				c-1.194,0-2.256,0.206-3.184,0.618c-0.928,0.413-1.71,0.986-2.346,1.721c-0.636,0.735-1.122,1.604-1.457,2.604
				c-0.335,1.001-0.503,2.095-0.503,3.28c0,1.065,0.15,2.069,0.451,3.01c0.301,0.941,0.746,1.765,1.334,2.469
				c0.589,0.705,1.321,1.264,2.198,1.676c0.877,0.413,1.895,0.619,3.055,0.619c1.779,0,3.343-0.374,4.692-1.122V64.029z"/>
			<path class="st2" d="M70.704,52.647h-3.429l-0.902,4.163h3.648l-0.284,1.187h-3.597l-1.121,5.13h-1.328l1.109-5.13h-3.339
				l-1.096,5.13h-1.328l1.096-5.13h-3.506l0.245-1.187h3.519l0.876-4.163h-3.674l0.258-1.187h3.661l1.108-5.233h1.328l-1.108,5.233
				h3.352l1.122-5.233h1.315l-1.122,5.233h3.467L70.704,52.647z M62.609,52.647l-0.916,4.163h3.365l0.902-4.163H62.609z"/>
		</g>
	</g>
	<g>
		<circle class="st18" cx="136" cy="56" r="22"/>
		<path class="st19" d="M120.748,40.153C116.591,44.156,114,49.774,114,56c0,12.15,9.85,22,22,22c6.226,0,11.844-2.591,15.847-6.748
			L120.748,40.153z"/>
		<g>
			<path class="st2" d="M134.488,64.029c-1.428,0.671-3.056,1.006-4.887,1.006c-1.306,0-2.492-0.23-3.557-0.689
				c-1.066-0.46-1.975-1.098-2.727-1.914s-1.332-1.788-1.74-2.914c-0.408-1.125-0.613-2.354-0.613-3.687
				c0-1.4,0.218-2.705,0.652-3.912c0.434-1.207,1.055-2.256,1.861-3.146c0.809-0.89,1.786-1.587,2.934-2.095
				c1.146-0.507,2.434-0.761,3.86-0.761c1.573,0,2.978,0.241,4.216,0.723v1.83c-1.324-0.662-2.738-0.992-4.242-0.992
				c-1.193,0-2.256,0.206-3.184,0.618c-0.928,0.413-1.71,0.986-2.346,1.721c-0.637,0.735-1.121,1.604-1.457,2.604
				c-0.335,1.001-0.502,2.095-0.502,3.28c0,1.065,0.15,2.069,0.451,3.01c0.301,0.941,0.745,1.765,1.334,2.469
				c0.588,0.705,1.32,1.264,2.197,1.676c0.877,0.413,1.895,0.619,3.055,0.619c1.779,0,3.344-0.374,4.693-1.122V64.029z"/>
			<path class="st2" d="M150.704,52.647h-3.429l-0.902,4.163h3.648l-0.284,1.187h-3.597l-1.121,5.13h-1.328l1.109-5.13h-3.34
				l-1.096,5.13h-1.327l1.096-5.13h-3.507l0.246-1.187h3.519l0.876-4.163h-3.674l0.258-1.187h3.662l1.107-5.233h1.328l-1.108,5.233
				h3.352l1.122-5.233h1.314l-1.121,5.233h3.467L150.704,52.647z M142.609,52.647l-0.916,4.163h3.365l0.902-4.163H142.609z"/>
		</g>
	</g>
</g>
<g id="Layer_2">
</g>
</svg>
