<svg width="400" height="140" xmlns="http://www.w3.org/2000/svg">

 <g>
  <title>background</title>
  <rect fill="none" id="canvas_background" height="142" width="402" y="-1" x="-1"/>
 </g>
 <g>
  <title>Layer 1</title>
  <g stroke="null" id="svg_65">
   <path stroke="null" id="svg_1" fill="#505050" d="m316.212616,5.570006l-160.912123,0c-1.3544,0 -2.453056,1.019464 -2.453056,2.276996l0,96.420117c0,1.257677 1.098656,2.276996 2.453056,2.276996l160.912123,0c1.354922,0 2.453056,-1.019319 2.453056,-2.276996l0,-96.420117c0,-1.257532 -1.098134,-2.276996 -2.453056,-2.276996z"/>
   <path stroke="null" id="svg_2" fill="#5B5B5B" d="m318.665672,99.698594l0,-91.851591c0,-0.299013 -0.063153,-0.59512 -0.18685,-0.871363c-0.123175,-0.276243 -0.303761,-0.527294 -0.531321,-0.738716c-0.228082,-0.211421 -0.49844,-0.379144 -0.795938,-0.493575c-0.29802,-0.114431 -0.616917,-0.173342 -0.938946,-0.173342l-70.087985,0l72.541041,94.128587z"/>
   <path stroke="null" id="svg_3" fill="#C8C8C8" d="m164.942047,136.193993l-87.446071,0c-0.400735,-0.015503 -0.779654,-0.173924 -1.058154,-0.441834c-0.2785,-0.26791 -0.435183,-0.624963 -0.437688,-0.997518c-0.006159,-0.374493 0.147549,-0.735906 0.42751,-1.005269c0.279962,-0.269848 0.663473,-0.425362 1.066766,-0.433598l87.447636,0c0.200942,0 0.399796,0.037788 0.58508,0.110943c0.184762,0.073155 0.351779,0.179737 0.491133,0.313935c0.139354,0.134197 0.248437,0.293587 0.320463,0.467511c0.071504,0.174408 0.104907,0.359959 0.0976,0.546479c0.006263,0.374493 -0.147705,0.735906 -0.427458,1.005269c-0.279753,0.269848 -0.663369,0.425847 -1.066818,0.434083z"/>
   <path stroke="null" id="svg_4" fill="#C8C8C8" d="m319.051898,131.255334l-163.125614,0c-0.402406,-0.017925 -0.781846,-0.178768 -1.060033,-0.449586c-0.278187,-0.270333 -0.433721,-0.629807 -0.434243,-1.003816c-0.008351,-0.376431 0.144052,-0.740266 0.424326,-1.012536c0.279753,-0.272755 0.664413,-0.431176 1.06995,-0.440865l163.125614,0c0.201986,0.000969 0.401884,0.039726 0.587168,0.114334c0.185284,0.074123 0.352823,0.18216 0.492177,0.31781c0.139876,0.135651 0.248437,0.296009 0.319419,0.471387c0.071504,0.175377 0.103863,0.362381 0.095513,0.54987c0.007829,0.376431 -0.144574,0.740266 -0.424848,1.012536c-0.279753,0.272271 -0.663891,0.430691 -1.069428,0.440865z"/>
   <path stroke="null" id="svg_5" fill="#444444" d="m152.723219,73.119269l0,40.840586c0,0.604131 0.258354,1.183069 0.718693,1.609885c0.459818,0.4273 1.08352,0.667111 1.734363,0.667111l161.066613,0c0.650843,0 1.274545,-0.239811 1.734363,-0.667111c0.460339,-0.426816 0.718693,-1.005754 0.718693,-1.609885l0,-40.840586l-165.972725,0z"/>
   <path stroke="null" id="svg_6" fill="#505050" d="m318.66515,99.698594l0,-26.545896l-20.457965,0l20.457965,26.545896z"/>
   <path stroke="null" id="svg_7" fill="#4393D4" d="m318.665672,19.394278l0,-11.547276c0,-0.299013 -0.063153,-0.59512 -0.18685,-0.871363c-0.123175,-0.276243 -0.303761,-0.527294 -0.531321,-0.738716c-0.228082,-0.211421 -0.49844,-0.379144 -0.795938,-0.493575c-0.297498,-0.114431 -0.616917,-0.173342 -0.938946,-0.173342l-160.910035,0c-0.650321,0 -1.274545,0.239908 -1.734363,0.666918c-0.460339,0.427009 -0.718693,1.00619 -0.718693,1.610078l0,11.547276l165.816147,0z"/>
   <path stroke="null" id="svg_8" fill="#4DA1DB" d="m318.194372,6.514717c-0.225994,-0.292085 -0.524015,-0.530104 -0.869008,-0.694338c-0.344472,-0.164283 -0.726522,-0.250082 -1.114314,-0.250373l-70.08642,0l10.654092,13.824272l61.886949,0l0,-11.547276c-0.00261,-0.384473 -0.111692,-0.761873 -0.315766,-1.096349c-0.046973,-0.081294 -0.098644,-0.160068 -0.155534,-0.235936z"/>
   <path stroke="null" id="svg_9" fill="#106EBE" d="m220.573704,9.169598l-59.499656,0l0,6.782541l59.499656,0l0,-6.782541z"/>
   <path stroke="null" id="svg_10" fill="#737373" d="m235.482543,26.001926l-63.243959,0l0,3.811788l63.243959,0l0,-3.811788z"/>
   <path stroke="null" id="svg_11" fill="#737373" d="m218.644663,33.625987l-46.406078,0l0,3.811788l46.406078,0l0,-3.811788z"/>
   <path stroke="null" id="svg_12" fill="#939393" d="m308.661379,58.746096l-4.300155,0l0,55.218603l4.300155,0l0,-55.218603z"/>
   <path stroke="null" id="svg_13" fill="#D2D2D2" d="m306.169701,58.585253l-48.539193,0l0,55.229262l48.539193,0l0,-55.229262z"/>
   <path stroke="null" id="svg_14" fill="#9D6952" d="m201.481621,83.128362l3.978648,-0.963121c0,0 4.551202,-5.126632 4.536588,-5.059776c-0.014614,0.066856 1.31108,0.718465 0.899802,1.458731c-0.411278,0.740266 -2.930097,4.457098 -3.37791,4.893119c-0.860657,0.843457 -5.105488,1.873919 -5.105488,1.873919l-0.931639,-2.202872z"/>
   <path stroke="null" id="svg_15" fill="#9D6952" d="m203.579245,76.902474c0,0 1.722358,1.616183 1.861713,1.729548c0.139354,0.113365 -0.028706,0.341549 -0.260963,0.419549c-0.232257,0.077999 -0.973915,0.249501 -0.973915,0.249501l-0.626834,-2.398597z"/>
   <path stroke="null" id="svg_16" fill="#939393" d="m198.778041,111.619394l0.034969,0.665173c0,0 1.741148,0.570218 2.192093,0.412766c0.450945,-0.157452 0.452511,-0.772241 0.452511,-0.772241l-2.679572,-0.305699z"/>
   <path stroke="null" id="svg_17" fill="#939393" d="m186.831658,106.756312l-0.593953,0.412282c0,0 0.395099,1.744082 0.778715,2.022166c0.383616,0.278084 0.950429,-0.07703 0.950429,-0.07703l-1.135191,-2.357417z"/>
   <path stroke="null" id="svg_18" fill="#9D6952" d="m200.42472,82.646801l2.519863,0.340096l0.312112,-2.413131l-2.603893,-0.315873l-0.228082,2.388908z"/>
   <path stroke="null" id="svg_19" fill="#805443" d="m203.140827,81.548999l-2.469758,-1.460669c0.1571,0.478654 0.413366,0.924363 0.755228,1.311453c0.473388,0.394841 1.01306,0.716043 1.597618,0.95004l0.116912,-0.800824z"/>
   <path stroke="null" id="svg_20" fill="#9D6952" d="m203.827682,74.906469c0,0 0.613786,2.064315 0.879969,3.197484c0.228604,0.880761 0.393533,1.775088 0.494265,2.676197c0.045408,0.51838 -0.245306,0.709744 -1.11066,0.758676c-0.865355,0.048931 -3.741171,-0.100285 -4.492224,-1.449041c-0.706167,-1.268335 -1.148239,-4.077276 0.591343,-5.026347c0.556896,-0.271786 1.171726,-0.426816 1.800126,-0.453461c0.6284,-0.026646 1.255756,0.075092 1.837182,0.298432"/>
   <path stroke="null" id="svg_21" fill="#939393" d="m203.902318,74.42297c0.536019,1.117666 0.432155,1.641859 -0.626312,1.792529c-1.347615,0.193787 -1.252624,2.258586 -1.252624,2.258586l-0.90189,0.091564c0.113258,0.491734 0.176411,0.992189 0.188416,1.495066c-0.027662,0.205414 -0.099688,0.403561 -0.212946,0.58233c-0.112736,0.178768 -0.264095,0.333798 -0.44416,0.455884c-0.551677,-0.326531 -1.013582,-0.767881 -1.350747,-1.288198c-0.336643,-0.520318 -0.538628,-1.106523 -0.590299,-1.711623c-0.081943,-1.765883 0.061587,-3.098168 2.054826,-3.536611c1.019845,-0.270817 2.092927,-0.320233 3.137302,-0.14534"/>
   <path stroke="null" id="svg_22" fill="#9D6952" d="m201.112097,77.39227c-0.017224,0 -0.034447,0 -0.052193,0.00436c-0.293323,0.042149 -0.556896,0.189427 -0.733307,0.410344c-0.176933,0.220917 -0.252613,0.498032 -0.210858,0.770303c0.028706,0.133228 0.086118,0.25919 0.16806,0.371586c0.081943,0.112396 0.187372,0.208805 0.309503,0.283413c0.122131,0.074123 0.259398,0.125477 0.402927,0.150669c0.144052,0.024708 0.291235,0.023254 0.434765,-0.004845c0.017746,-0.002907 0.032881,-0.009689 0.052193,-0.013565l-0.37109,-1.972266z"/>
   <path stroke="null" id="svg_23" fill="#B5D5EA" d="m213.788656,9.169598l-53.236534,0l0,6.782541l53.236534,0l0,-6.782541z"/>
   <path stroke="null" id="svg_24" fill="#7ABDEA" d="m310.345115,9.169598l-12.526243,0l0,1.453402l12.526243,0l0,-1.453402z"/>
   <path stroke="null" id="svg_25" fill="#7ABDEA" d="m310.345115,12.076401l-12.526243,0l0,1.453402l12.526243,0l0,-1.453402z"/>
   <path stroke="null" id="svg_26" fill="#7ABDEA" d="m310.345115,14.498737l-12.526243,0l0,1.453402l12.526243,0l0,-1.453402z"/>
   <path stroke="null" id="svg_27" fill="#B2B2B2" d="m272.196963,79.084029l7.406663,34.906347l-8.893111,0.101738l1.486448,-35.008085z"/>
   <path stroke="null" id="svg_28" fill="#409AE1" d="m273.294575,77.145192l-5.587226,0l0,36.946923l5.587226,0l0,-36.946923z"/>
   <path stroke="null" id="svg_29" fill="#69AFE5" d="m270.678678,76.995007l-39.666437,0l0,36.819508l39.666437,0l0,-36.819508z"/>
   <path stroke="null" id="svg_30" fill="#737373" d="m152.868837,113.990376c0.053237,0.564889 0.331945,1.091505 0.781846,1.475203c0.449901,0.383698 1.038634,0.597348 1.649289,0.598317l160.910035,0c0.611176,-0.000969 1.19991,-0.214619 1.649811,-0.598317c0.449901,-0.383698 0.72861,-0.910314 0.781324,-1.475203l-165.772305,0z"/>
   <path stroke="null" id="svg_31" fill="#409AE1" d="m244.489956,77.145192l-13.583667,0l0,9.939814l13.583667,-9.939814z"/>
   <path stroke="null" id="svg_32" fill="#C78E00" d="m210.566279,85.749814l31.286381,-9.542551l-10.280392,-29.040902l-31.286381,9.542551l10.280392,29.040902z"/>
   <path stroke="null" id="svg_33" fill="#FFB900" d="m212.910253,85.035225l31.624067,-9.645742l-10.280392,-29.040418l-31.624067,9.645258l10.280392,29.040902z"/>
   <path stroke="null" id="svg_34" fill="#939393" d="m198.573445,112.011328c0.52558,0.181675 1.065253,0.324109 1.615363,0.426816c0.223385,0.012596 0.445725,-0.035851 0.639882,-0.139042c0.194157,-0.103192 0.351779,-0.257252 0.453032,-0.442319l0.622137,0.037788c0.488523,0.641919 1.160243,1.144796 1.938958,1.453402c0.507313,0.219464 1.08352,0.43602 1.096046,0.718949c-0.002088,0.200569 -0.04071,0.399201 -0.114824,0.587659c0,0 -5.505806,-0.489796 -5.816874,-0.508691c-0.311068,-0.018894 -0.439984,-0.11385 -0.451467,-0.394841c-0.011482,-0.280991 0.017746,-1.739722 0.017746,-1.739722z"/>
   <path stroke="null" id="svg_35" fill="#737373" d="m200.838086,94.108326c0,0 4.758929,7.551875 4.96248,7.931213c0.622659,1.162721 1.018801,1.647189 0.295933,3.233819c-0.722869,1.58663 -4.009442,6.772367 -4.009442,6.772367l-3.746913,-0.061043c0,0 2.83876,-5.172656 3.887311,-7.323691c0.417541,-0.852178 0.319419,-1.523165 -0.239042,-2.072066c-0.558462,-0.548901 -4.863836,-5.613037 -4.863836,-5.613037l3.023522,-3.294377l0.689987,0.426816z"/>
   <path stroke="null" id="svg_36" fill="#939393" d="m186.297205,107.023738c0.110127,0.530492 0.264095,1.052263 0.460339,1.560469c0.102298,0.187004 0.263573,0.340096 0.462427,0.439412c0.199376,0.098831 0.425892,0.139042 0.650321,0.114334l0.293845,0.528069c-0.331424,0.765458 -0.439462,1.598257 -0.313156,2.415069c0.065763,0.539212 0.169104,1.134138 -0.083508,1.305639c-0.183718,0.113365 -0.38727,0.196694 -0.60126,0.245625c0,0 -2.457231,-4.759406 -2.605459,-5.025378c-0.148227,-0.265972 -0.12735,-0.423424 0.125262,-0.594926c0.252613,-0.171501 1.611188,-0.988313 1.611188,-0.988313z"/>
   <path stroke="null" id="svg_37" fill="#737373" d="m199.998305,94.498323c0,0 -0.917547,7.586756 -2.538652,10.603049c-0.558984,1.039667 -9.324744,4.584998 -9.324744,4.584998l-1.643548,-2.793922l7.90145,-4.152368c0,0 -0.851263,-7.769885 1.366404,-9.499433c1.910774,-1.490221 4.23909,1.257677 4.23909,1.257677z"/>
   <path stroke="null" id="svg_38" fill="#409AE1" d="m204.112133,84.133631c-0.134657,-0.561982 -0.463993,-1.06825 -0.936859,-1.440321c-0.697816,0.065403 -1.401895,0.031006 -2.087707,-0.102223c-0.158144,-0.043118 -0.301152,-0.123055 -0.41702,-0.231575c-0.115346,-0.108521 -0.199898,-0.242718 -0.244262,-0.389512c0,0 -2.134159,0.275662 -2.389903,1.919944c-1.284462,6.979235 -4.790244,10.325934 -4.790244,10.325934c1.623714,1.051778 3.517265,1.688368 5.490148,1.84582c1.187383,0.013565 2.373201,-0.097378 3.533966,-0.330891c0,0 0.030272,-4.785567 0.450423,-6.037915c0.420151,-1.252348 1.758893,-4.456129 1.391457,-5.559261z"/>
   <path stroke="null" id="svg_39" fill="#9D6952" d="m211.355433,86.073438c0,0 0.004175,-0.034882 0.012004,-0.093502c0.04071,-0.42294 0.123175,-0.84152 0.245828,-1.250894c0.272446,-0.300854 0.574119,-0.577485 0.901368,-0.82747c0.160753,-0.124993 0.307937,-0.265004 0.43894,-0.417126c0,0 0.313156,0.14534 0.247393,0.319748c-0.171714,0.311512 -0.361173,0.614789 -0.566813,0.908376c0,0 1.100222,-0.160359 1.248449,-0.210259c0.298542,-0.236904 0.557418,-0.513535 0.768798,-0.820687c0.118477,-0.180222 0.521927,-0.00436 0.521927,-0.00436l-0.04071,0.325077c0,0 0.351779,-0.178768 0.365349,-0.005329c-0.028706,0.176346 -0.10021,0.343972 -0.208771,0.49125c0,0 0.350213,0.109974 0.260963,0.276146c-0.27088,0.433598 -0.600738,0.833284 -0.981744,1.188398c-0.880491,0.612367 -1.811608,1.158846 -2.785001,1.635077l-0.42798,-1.514444z"/>
   <path stroke="null" id="svg_40" fill="#9D6952" d="m211.805334,85.385979c-0.647189,0.529523 -3.079368,2.515838 -3.459853,2.80555c-0.036535,0.03682 -0.080899,0.065888 -0.130482,0.085751c-0.049583,0.020348 -0.10282,0.030521 -0.156578,0.030521c-0.053758,0 -0.106995,-0.010174 -0.156578,-0.030521c-0.049583,-0.019863 -0.093947,-0.048931 -0.130482,-0.085751c-0.118999,-0.114334 -1.704613,-1.534792 -1.704613,-1.534792l-1.955138,1.537699c0.620571,0.661298 1.279243,1.291105 1.973405,1.886515c1.004187,0.840551 1.867454,1.096349 2.812142,0.334767c0.509401,-0.410828 3.836684,-3.497853 4.197335,-3.833105c0.28445,-0.166657 -1.180077,-1.551264 -1.289159,-1.196634z"/>
   <path stroke="null" id="svg_41" fill="#69AFE5" d="m206.56832,86.878138c0,0 -1.988019,-2.245021 -2.978114,-3.310364c-1.001578,-1.07794 -3.255258,0.621571 -2.178522,1.893298c1.132059,1.337129 3.021434,3.238663 3.021434,3.238663l2.135203,-1.821597z"/>
   <path stroke="null" id="svg_42" fill="#939393" d="m111.311458,123.325575l-0.021399,-4.966273l3.874263,-0.014534l0.021399,4.966273l49.967707,-0.186035l0.01096,2.618061l-83.255155,0.310059l-0.01096,-2.618061l29.413185,-0.10949z"/>
   <path stroke="null" id="svg_43" fill="#B2B2B2" d="m80.166676,119.385888c-0.511854,0.081875 -0.975847,0.329438 -1.309619,0.698602c-0.333772,0.369648 -0.515716,0.836675 -0.513472,1.31872l0.034447,7.96997l32.958478,-0.12257l-0.104385,-24.263571l-13.436484,0.048447c-2.061611,0.007751 -4.018836,0.929208 -4.66446,2.962517l-3.048574,9.798349l-9.916453,1.588084l0.000522,0.001453zm12.960852,-1.862776l2.05326,-8.411804c0.336643,-1.499426 1.640938,-1.896205 2.95515,-1.901049l8.068467,-0.030037l0.044364,10.294444l-13.12124,0.048447z"/>
   <path stroke="null" id="svg_44" fill="#505050" d="m82.26049,126.874297l-5.23503,0.021317l0.018476,3.897054l5.234822,-0.021317l-0.018267,-3.897054z"/>
   <path stroke="null" id="svg_45" fill="#505050" d="m96.146875,129.308745c0.004697,1.064859 -0.330902,2.107432 -0.964521,2.994976c-0.633097,0.888028 -1.536031,1.581785 -2.594498,1.993098c-1.057946,0.411797 -2.22393,0.52274 -3.350248,0.319264c-1.126318,-0.203476 -2.161821,-0.712167 -2.976549,-1.462607c-0.814728,-0.749955 -1.371102,-1.707262 -1.599706,-2.750805c-0.228082,-1.043542 -0.117955,-2.126811 0.31681,-3.112217c0.434765,-0.985406 1.174857,-1.829348 2.12633,-2.424274c0.951473,-0.59541 2.071528,-0.915159 3.218723,-0.919519c1.538118,-0.005814 3.015693,0.556168 4.108086,1.561438c1.091871,1.005754 1.70931,2.37292 1.715573,3.800645z"/>
   <path stroke="null" id="svg_46" fill="#939393" d="m93.179199,129.319888c0.002088,0.520802 -0.161797,1.029977 -0.471822,1.46406c-0.309503,0.434083 -0.751053,0.77321 -1.268282,0.974264c-0.517229,0.201054 -1.087174,0.255314 -1.637806,0.155998c-0.550633,-0.0998 -1.056902,-0.348332 -1.455132,-0.715074c-0.397708,-0.366742 -0.670154,-0.834737 -0.781846,-1.344881c-0.11117,-0.510144 -0.057412,-1.039667 0.155012,-1.521712c0.212946,-0.48156 0.574641,-0.893842 1.039678,-1.185007c0.465037,-0.29068 1.012538,-0.447163 1.573609,-0.449101c0.372134,-0.001453 0.741136,0.065403 1.08613,0.196209c0.344472,0.130806 0.657628,0.323624 0.922245,0.566827c0.264095,0.243687 0.474431,0.532914 0.617961,0.851693c0.144052,0.319264 0.218687,0.661298 0.220253,1.006723z"/>
   <path stroke="null" id="svg_47" fill="#505050" d="m93.666679,120.041856c-0.189981,0.000484 -0.377875,-0.033428 -0.553764,-0.100285c-0.175367,-0.066372 -0.335077,-0.164719 -0.470256,-0.288742c-0.134657,-0.124024 -0.241652,-0.271786 -0.314722,-0.434083c-0.073592,-0.162781 -0.111692,-0.336705 -0.112214,-0.513051l-0.026618,-6.160969c-0.001044,-0.176346 0.035491,-0.350754 0.107517,-0.51402c0.071504,-0.162781 0.177455,-0.311028 0.311068,-0.43602c0.133613,-0.125477 0.292279,-0.224793 0.467646,-0.292618c0.174845,-0.06831 0.362739,-0.103676 0.55272,-0.10416l0.01357,3.133049l0.025052,5.710899z"/>
   <path stroke="null" id="svg_48" fill="#FF8C00" d="m80.123722,122.055302c-0.136484,0.000484 -0.271559,0.025677 -0.397395,0.074608c-0.125889,0.049416 -0.240139,0.120632 -0.336173,0.210743c-0.096035,0.090111 -0.172027,0.196694 -0.223541,0.313935c-0.051566,0.117241 -0.077663,0.243203 -0.076828,0.369648l0.003132,0.767881c0.007046,0.251923 0.1202,0.491734 0.315139,0.667111c0.19494,0.175377 0.456164,0.27324 0.727827,0.272271c0.271767,-0.000969 0.532209,-0.100769 0.725322,-0.2776c0.193635,-0.177315 0.304805,-0.417611 0.309503,-0.669534l-0.003132,-0.767881c-0.000522,-0.126446 -0.028184,-0.251923 -0.080899,-0.36868c-0.052715,-0.116757 -0.12996,-0.222855 -0.227038,-0.311997c-0.096556,-0.089142 -0.21138,-0.15939 -0.338209,-0.207352c-0.126306,-0.047962 -0.261485,-0.072186 -0.397708,-0.071701"/>
   <path stroke="null" id="svg_49" fill="#EC6401" d="m165.244765,123.124521l-3.345029,0.012596l0.011482,2.618061l3.345029,-0.012596l-0.011482,-2.618061z"/>
   <path stroke="null" id="svg_50" fill="#D2D2D2" d="m106.047826,118.37868l-3.868,0.014534l0.005219,1.191305l3.868,-0.014534l-0.005219,-1.191305z"/>
   <path stroke="null" id="svg_51" fill="#505050" d="m99.920928,127.340355l10.996476,-0.04118c0.138833,0.001453 0.275577,0.029552 0.402406,0.082359l-0.008873,-2.038154l38.314125,-0.14534c1.06995,-0.951494 2.492722,-1.484892 3.974473,-1.490221c1.48175,-0.005329 2.908698,0.517411 3.986999,1.460669l4.457255,-0.016472l0.017224,3.909166l-2.637818,0.009689c0.006263,1.428209 -0.599172,2.799736 -1.682692,3.813726c-1.08352,1.013505 -2.556398,1.58663 -4.094516,1.592444c-1.53864,0.005329 -3.016737,-0.556168 -4.108608,-1.561922c-1.092393,-1.005754 -1.70931,-2.37292 -1.715573,-3.80113l-36.110028,0.134682l0.009395,2.19173c0.000522,0.095925 -0.019311,0.19088 -0.058456,0.279538c-0.039145,0.088657 -0.096556,0.169079 -0.169626,0.237389c-0.072548,0.067825 -0.159188,0.122086 -0.254178,0.158905c-0.094991,0.03682 -0.197288,0.056198 -0.30063,0.056683l-10.996476,0.04118c-0.208249,0.000484 -0.408669,-0.075577 -0.556374,-0.211712c-0.148227,-0.136135 -0.231736,-0.321686 -0.232779,-0.514989l-0.014614,-3.416947c-0.001044,-0.095925 0.018789,-0.19088 0.057934,-0.280022c0.038623,-0.088657 0.096556,-0.169564 0.169104,-0.237389c0.07307,-0.06831 0.15971,-0.12257 0.2547,-0.15939c0.095513,-0.03682 0.19781,-0.055714 0.301152,-0.055714"/>
   <path stroke="null" id="svg_52" fill="#939393" d="m156.457605,129.083952c0.00261,0.520802 -0.161797,1.029977 -0.4713,1.46406c-0.309503,0.434083 -0.751053,0.77321 -1.268282,0.974748c-0.517229,0.201054 -1.087174,0.255314 -1.637806,0.155998c-0.550633,-0.099316 -1.056902,-0.348332 -1.455132,-0.715074c-0.39823,-0.366742 -0.670154,-0.834737 -0.781846,-1.344881c-0.111692,-0.510144 -0.057934,-1.039667 0.15449,-1.521227c0.212946,-0.482045 0.574641,-0.894326 1.039678,-1.185491c0.465037,-0.29068 1.012538,-0.447163 1.573609,-0.449101c0.372134,-0.001453 0.741136,0.065403 1.085608,0.196209c0.344994,0.130806 0.65815,0.323624 0.922245,0.566827c0.264617,0.243687 0.474431,0.532914 0.618483,0.851693c0.144052,0.318779 0.218687,0.660813 0.220253,1.006238z"/>
   <path stroke="null" id="svg_53" fill="#EC6401" d="m136.856122,103.153814l-19.963178,0l0,18.530386l19.963178,0l0,-18.530386z"/>
   <path stroke="null" id="svg_54" fill="#409AE1" d="m159.670587,103.153814l-19.963178,0l0,18.530386l19.963178,0l0,-18.530386z"/>
   <path stroke="null" id="svg_55" fill="#FF8C00" d="m134.977707,103.156236l-19.833219,0l0,18.409754l19.833219,0l0,-18.409754z"/>
   <path stroke="null" id="svg_56" fill="#69AFE5" d="m157.942487,103.156236l-19.833219,0l0,18.409754l19.833219,0l0,-18.409754z"/>
   <path stroke="null" id="svg_57" fill="#D8B094" d="m118.604342,121.6842l-1.711398,0l0,1.588568l1.711398,0l0,-1.588568z"/>
   <path stroke="null" id="svg_58" fill="#D8B094" d="m135.145768,121.6842l-1.711398,0l0,1.588568l1.711398,0l0,-1.588568z"/>
   <path stroke="null" id="svg_59" fill="#D8B094" d="m141.418806,121.6842l-1.711398,0l0,1.588568l1.711398,0l0,-1.588568z"/>
   <path stroke="null" id="svg_60" fill="#D8B094" d="m158.530699,121.6842l-1.711398,0l0,1.588568l1.711398,0l0,-1.588568z"/>
   <path stroke="null" id="svg_61" fill="#939393" d="m136.856122,83.034859l-19.963178,0l0,18.530386l19.963178,0l0,-18.530386z"/>
   <path stroke="null" id="svg_62" fill="#D2D2D2" d="m134.977707,83.29308l-19.833219,0l0,18.409754l19.833219,0l0,-18.409754z"/>
   <path stroke="null" id="svg_63" fill="#D8B094" d="m118.604342,101.565246l-1.711398,0l0,1.588568l1.711398,0l0,-1.588568z"/>
   <path stroke="null" id="svg_64" fill="#D8B094" d="m135.145768,101.565246l-1.711398,0l0,1.588568l1.711398,0l0,-1.588568z"/>
  </g>
 </g>
</svg>