<svg width="636" height="300" viewBox="0 0 636 300" fill="none" xmlns="http://www.w3.org/2000/svg">
<path d="M552.242 25.57H243.938C241.343 25.57 239.238 27.6743 239.238 30.27V229.293C239.238 231.889 241.343 233.993 243.938 233.993H552.242C554.838 233.993 556.942 231.889 556.942 229.293V30.27C556.942 27.6743 554.838 25.57 552.242 25.57Z" fill="#505050"/>
<path d="M556.942 219.863V30.27C556.942 29.6528 556.821 29.0416 556.584 28.4714C556.348 27.9012 556.002 27.383 555.566 26.9466C555.129 26.5102 554.611 26.164 554.041 25.9278C553.47 25.6916 552.859 25.57 552.242 25.57H417.955L556.942 219.863Z" fill="#5B5B5B"/>
<path d="M262.411 295.194H94.8663C94.0985 295.162 93.3725 294.835 92.8389 294.282C92.3053 293.729 92.0051 292.992 92.0003 292.223C91.9885 291.45 92.283 290.704 92.8194 290.148C93.3558 289.591 94.0906 289.27 94.8633 289.253H262.411C262.796 289.253 263.177 289.331 263.532 289.482C263.886 289.633 264.206 289.853 264.473 290.13C264.74 290.407 264.949 290.736 265.087 291.095C265.224 291.455 265.288 291.838 265.274 292.223C265.286 292.996 264.991 293.742 264.455 294.298C263.919 294.855 263.184 295.177 262.411 295.194Z" fill="#C8C8C8"/>
<path d="M557.682 285H245.137C244.366 284.963 243.639 284.631 243.106 284.072C242.573 283.514 242.275 282.772 242.274 282C242.258 281.223 242.55 280.472 243.087 279.91C243.623 279.347 244.36 279.02 245.137 279H557.682C558.069 279.002 558.452 279.082 558.807 279.236C559.162 279.389 559.483 279.612 559.75 279.892C560.018 280.172 560.226 280.503 560.362 280.865C560.499 281.227 560.561 281.613 560.545 282C560.56 282.777 560.268 283.528 559.731 284.09C559.195 284.652 558.459 284.979 557.682 285Z" fill="#C8C8C8"/>
<path d="M239 165V249.3C239 250.547 239.495 251.742 240.377 252.623C241.258 253.505 242.453 254 243.7 254H552.3C553.547 254 554.742 253.505 555.623 252.623C556.505 251.742 557 250.547 557 249.3V165H239Z" fill="#444444"/>
<path d="M556.941 219.863V165.069H517.744L556.941 219.863Z" fill="#505050"/>
<path d="M556.942 54.105V30.27C556.942 29.6528 556.821 29.0416 556.584 28.4714C556.348 27.9012 556.002 27.383 555.566 26.9466C555.129 26.5102 554.611 26.164 554.041 25.9278C553.471 25.6916 552.859 25.57 552.242 25.57H243.942C242.696 25.57 241.5 26.0652 240.619 26.9466C239.737 27.828 239.242 29.0235 239.242 30.27V54.105H556.942Z" fill="#4393D4"/>
<path d="M556.039 27.52C555.606 26.9171 555.035 26.4258 554.374 26.0868C553.714 25.7477 552.982 25.5706 552.239 25.57H417.955L438.368 54.105H556.942V30.27C556.937 29.4764 556.728 28.6974 556.337 28.007C556.247 27.8392 556.148 27.6766 556.039 27.52Z" fill="#4DA1DB"/>
<path d="M369 33H255V47H369V33Z" fill="#106EBE"/>
<path d="M397.565 67.744H276.391V75.612H397.565V67.744Z" fill="#737373"/>
<path d="M365.304 83.481H276.391V91.349H365.304V83.481Z" fill="#737373"/>
<path d="M537.774 135.332H529.535V249.31H537.774V135.332Z" fill="#939393"/>
<path d="M533 135H440V249H533V135Z" fill="#D2D2D2"/>
<path d="M332.42 185.66L340.043 183.672C340.043 183.672 348.763 173.09 348.735 173.228C348.707 173.366 351.247 174.711 350.459 176.239C349.671 177.767 344.845 185.439 343.987 186.339C342.338 188.08 334.205 190.207 334.205 190.207L332.42 185.66Z" fill="#9D6952"/>
<path d="M336.439 172.809C336.439 172.809 339.739 176.145 340.006 176.379C340.273 176.613 339.951 177.084 339.506 177.245C339.061 177.406 337.64 177.76 337.64 177.76L336.439 172.809Z" fill="#9D6952"/>
<path d="M327.24 244.469L327.307 245.842C327.307 245.842 330.643 247.019 331.507 246.694C332.371 246.369 332.374 245.1 332.374 245.1L327.24 244.469Z" fill="#939393"/>
<path d="M304.351 234.431L303.213 235.282C303.213 235.282 303.97 238.882 304.705 239.456C305.44 240.03 306.526 239.297 306.526 239.297L304.351 234.431Z" fill="#939393"/>
<path d="M330.395 184.666L335.223 185.368L335.821 180.387L330.832 179.735L330.395 184.666Z" fill="#9D6952"/>
<path d="M335.599 182.4L330.867 179.385C331.168 180.373 331.659 181.293 332.314 182.092C333.221 182.907 334.255 183.57 335.375 184.053L335.599 182.4Z" fill="#805443"/>
<path d="M336.915 168.689C336.915 168.689 338.091 172.95 338.601 175.289C339.039 177.107 339.355 178.953 339.548 180.813C339.635 181.883 339.078 182.278 337.42 182.379C335.762 182.48 330.252 182.172 328.813 179.388C327.46 176.77 326.613 170.972 329.946 169.013C331.013 168.452 332.191 168.132 333.395 168.077C334.599 168.022 335.801 168.232 336.915 168.693" fill="#9D6952"/>
<path d="M337.058 167.691C338.085 169.998 337.886 171.08 335.858 171.391C333.276 171.791 333.458 176.053 333.458 176.053L331.73 176.242C331.947 177.257 332.068 178.29 332.091 179.328C332.038 179.752 331.9 180.161 331.683 180.53C331.467 180.899 331.177 181.219 330.832 181.471C329.775 180.797 328.89 179.886 328.244 178.812C327.599 177.738 327.212 176.528 327.113 175.279C326.956 171.634 327.231 168.884 331.05 167.979C333.004 167.42 335.06 167.318 337.061 167.679" fill="#939393"/>
<path d="M331.712 173.82C331.679 173.82 331.646 173.82 331.612 173.829C331.05 173.916 330.545 174.22 330.207 174.676C329.868 175.132 329.723 175.704 329.803 176.266C329.858 176.541 329.968 176.801 330.125 177.033C330.282 177.265 330.484 177.464 330.718 177.618C330.952 177.771 331.215 177.877 331.49 177.929C331.766 177.98 332.048 177.977 332.323 177.919C332.357 177.913 332.386 177.899 332.423 177.891L331.712 173.82Z" fill="#9D6952"/>
<path d="M356 33H254V47H356V33Z" fill="#B5D5EA"/>
<path d="M541 33H517V36H541V33Z" fill="#7ABDEA"/>
<path d="M541 39H517V42H541V39Z" fill="#7ABDEA"/>
<path d="M541 44H517V47H541V44Z" fill="#7ABDEA"/>
<path d="M467.909 177.312L482.1 249.363L465.061 249.573L467.909 177.312Z" fill="#B2B2B2"/>
<path d="M470.012 173.31H459.307V249.573H470.012V173.31Z" fill="#409AE1"/>
<path d="M465 173H389V249H465V173Z" fill="#69AFE5"/>
<path d="M239.279 249.363C239.381 250.529 239.915 251.616 240.777 252.408C241.639 253.2 242.767 253.641 243.937 253.643H552.237C553.408 253.641 554.536 253.2 555.398 252.408C556.26 251.616 556.794 250.529 556.895 249.363H239.279Z" fill="#737373"/>
<path d="M414.823 173.31H388.797V193.827L414.823 173.31Z" fill="#409AE1"/>
<path d="M349.826 191.071L409.77 171.374L390.073 111.43L330.129 131.127L349.826 191.071Z" fill="#C78E00"/>
<path d="M354.317 189.596L414.908 169.686L395.211 109.743L334.62 129.652L354.317 189.596Z" fill="#FFB900"/>
<path d="M326.848 245.278C327.855 245.653 328.889 245.947 329.943 246.159C330.371 246.185 330.797 246.085 331.169 245.872C331.541 245.659 331.843 245.341 332.037 244.959L333.229 245.037C334.165 246.362 335.452 247.4 336.944 248.037C337.916 248.49 339.02 248.937 339.044 249.521C339.04 249.935 338.966 250.345 338.824 250.734C338.824 250.734 328.275 249.723 327.679 249.684C327.083 249.645 326.836 249.449 326.814 248.869C326.792 248.289 326.848 245.278 326.848 245.278Z" fill="#939393"/>
<path d="M331.187 208.324C331.187 208.324 340.305 223.912 340.695 224.695C341.888 227.095 342.647 228.095 341.262 231.37C339.877 234.645 333.58 245.349 333.58 245.349L326.401 245.223C326.401 245.223 331.84 234.546 333.849 230.106C334.649 228.347 334.461 226.962 333.391 225.829C332.321 224.696 324.072 214.243 324.072 214.243L329.865 207.443L331.187 208.324Z" fill="#737373"/>
<path d="M303.327 234.983C303.538 236.078 303.833 237.155 304.209 238.204C304.405 238.59 304.714 238.906 305.095 239.111C305.477 239.315 305.911 239.398 306.341 239.347L306.904 240.437C306.269 242.017 306.062 243.736 306.304 245.422C306.43 246.535 306.628 247.763 306.144 248.117C305.792 248.351 305.402 248.523 304.992 248.624C304.992 248.624 300.284 238.8 300 238.251C299.716 237.702 299.756 237.377 300.24 237.023C300.724 236.669 303.327 234.983 303.327 234.983Z" fill="#939393"/>
<path d="M329.578 209.129C329.578 209.129 327.82 224.789 324.714 231.015C323.643 233.161 306.848 240.479 306.848 240.479L303.699 234.712L318.838 226.141C318.838 226.141 317.207 210.103 321.456 206.533C325.117 203.457 329.578 209.129 329.578 209.129Z" fill="#737373"/>
<path d="M337.46 187.735C337.202 186.575 336.571 185.53 335.665 184.762C334.328 184.897 332.979 184.826 331.665 184.551C331.362 184.462 331.088 184.297 330.866 184.073C330.645 183.849 330.483 183.572 330.398 183.269C330.398 183.269 326.309 183.838 325.819 187.232C323.358 201.638 316.641 208.546 316.641 208.546C319.752 210.717 323.38 212.031 327.16 212.356C329.435 212.384 331.707 212.155 333.931 211.673C333.931 211.673 333.989 201.795 334.794 199.21C335.599 196.625 338.164 190.012 337.46 187.735Z" fill="#409AE1"/>
<path d="M351.338 191.739C351.338 191.739 351.346 191.667 351.361 191.546C351.439 190.673 351.597 189.809 351.832 188.964C352.354 188.343 352.932 187.772 353.559 187.256C353.867 186.998 354.149 186.709 354.4 186.395C354.4 186.395 355 186.695 354.874 187.055C354.545 187.698 354.182 188.324 353.788 188.93C353.788 188.93 355.896 188.599 356.18 188.496C356.752 188.007 357.248 187.436 357.653 186.802C357.88 186.43 358.653 186.793 358.653 186.793L358.575 187.464C358.575 187.464 359.249 187.095 359.275 187.453C359.22 187.817 359.083 188.163 358.875 188.467C358.875 188.467 359.546 188.694 359.375 189.037C358.856 189.932 358.224 190.757 357.494 191.49C355.807 192.754 354.023 193.882 352.158 194.865L351.338 191.739Z" fill="#9D6952"/>
<path d="M352.2 190.32C350.96 191.413 346.3 195.513 345.571 196.111C345.501 196.187 345.416 196.247 345.321 196.288C345.226 196.33 345.124 196.351 345.021 196.351C344.918 196.351 344.816 196.33 344.721 196.288C344.626 196.247 344.541 196.187 344.471 196.111C344.243 195.875 341.205 192.943 341.205 192.943L337.459 196.117C338.648 197.482 339.91 198.782 341.24 200.011C343.164 201.746 344.818 202.274 346.628 200.702C347.604 199.854 353.979 193.482 354.67 192.79C355.215 192.446 352.409 189.588 352.2 190.32Z" fill="#9D6952"/>
<path d="M342.166 193.4C342.166 193.4 338.357 188.766 336.46 186.567C334.541 184.342 330.223 187.85 332.286 190.475C334.455 193.235 338.075 197.16 338.075 197.16L342.166 193.4Z" fill="#69AFE5"/>
<path d="M159.656 268.632L159.615 258.381L167.038 258.351L167.079 268.602L262.816 268.218L262.837 273.622L103.322 274.262L103.301 268.858L159.656 268.632Z" fill="#939393"/>
<path d="M99.9833 260.5C99.0026 260.669 98.1136 261.18 97.4741 261.942C96.8346 262.705 96.486 263.669 96.4903 264.664L96.5563 281.115L159.704 280.862L159.504 230.779L133.76 230.879C129.81 230.895 126.06 232.797 124.823 236.994L118.982 257.219L99.9823 260.497L99.9833 260.5ZM124.816 256.655L128.75 239.292C129.395 236.197 131.894 235.378 134.412 235.368L149.871 235.306L149.956 256.555L124.816 256.655Z" fill="#B2B2B2"/>
<path d="M103.995 275.957L93.9648 276.001L94.0002 284.045L104.03 284.001L103.995 275.957Z" fill="#505050"/>
<path d="M130.601 280.982C130.61 283.18 129.967 285.332 128.753 287.164C127.54 288.997 125.81 290.429 123.782 291.278C121.755 292.128 119.521 292.357 117.363 291.937C115.205 291.517 113.221 290.467 111.66 288.918C110.099 287.37 109.033 285.394 108.595 283.24C108.158 281.086 108.369 278.85 109.202 276.816C110.035 274.782 111.453 273.04 113.276 271.812C115.099 270.583 117.245 269.923 119.443 269.914C122.39 269.902 125.221 271.062 127.314 273.137C129.406 275.213 130.589 278.035 130.601 280.982Z" fill="#505050"/>
<path d="M124.915 281.005C124.919 282.08 124.605 283.131 124.011 284.027C123.418 284.923 122.572 285.623 121.581 286.038C120.59 286.453 119.498 286.565 118.443 286.36C117.388 286.154 116.418 285.641 115.655 284.884C114.893 284.127 114.371 283.161 114.157 282.108C113.944 281.055 114.047 279.962 114.454 278.967C114.862 277.973 115.555 277.122 116.446 276.521C117.337 275.921 118.386 275.598 119.461 275.594C120.174 275.591 120.881 275.729 121.542 275.999C122.202 276.269 122.802 276.667 123.309 277.169C123.815 277.672 124.218 278.269 124.493 278.927C124.769 279.586 124.912 280.292 124.915 281.005Z" fill="#939393"/>
<path d="M125.849 261.854C125.485 261.855 125.125 261.785 124.788 261.647C124.452 261.51 124.146 261.307 123.887 261.051C123.629 260.795 123.424 260.49 123.284 260.155C123.143 259.819 123.07 259.46 123.069 259.096L123.018 246.379C123.016 246.015 123.086 245.655 123.224 245.318C123.361 244.982 123.564 244.676 123.82 244.418C124.076 244.159 124.38 243.954 124.716 243.814C125.051 243.673 125.411 243.6 125.775 243.599L125.801 250.066L125.849 261.854Z" fill="#505050"/>
<path d="M99.901 266.01C99.6395 266.011 99.3807 266.063 99.1396 266.164C98.8984 266.266 98.6795 266.413 98.4955 266.599C98.3115 266.785 98.1659 267.005 98.0672 267.247C97.9684 267.489 97.9184 267.749 97.92 268.01L97.926 269.595C97.9395 270.115 98.1563 270.61 98.5298 270.972C98.9033 271.334 99.4038 271.536 99.9243 271.534C100.445 271.532 100.944 271.326 101.314 270.961C101.685 270.595 101.898 270.099 101.907 269.579L101.901 267.994C101.9 267.733 101.847 267.474 101.746 267.233C101.645 266.992 101.497 266.773 101.311 266.589C101.126 266.405 100.906 266.26 100.663 266.161C100.421 266.062 100.162 266.012 99.901 266.013" fill="#FF8C00"/>
<path d="M262.991 268.217L256.582 268.243L256.604 273.647L263.013 273.621L262.991 268.217Z" fill="#EC6401"/>
<path d="M149.571 258.421L142.16 258.451L142.17 260.91L149.581 260.88L149.571 258.421Z" fill="#D2D2D2"/>
<path d="M137.832 276.919L158.901 276.834C159.167 276.837 159.429 276.895 159.672 277.004L159.655 272.797L233.064 272.497C235.114 270.533 237.84 269.432 240.679 269.421C243.518 269.41 246.252 270.489 248.318 272.436L256.858 272.402L256.891 280.471L251.837 280.491C251.849 283.439 250.689 286.27 248.613 288.363C246.537 290.455 243.715 291.638 240.768 291.65C237.82 291.661 234.988 290.502 232.896 288.426C230.803 286.35 229.621 283.528 229.609 280.58L160.423 280.858L160.441 285.382C160.442 285.58 160.404 285.776 160.329 285.959C160.254 286.142 160.144 286.308 160.004 286.449C159.865 286.589 159.699 286.701 159.517 286.777C159.335 286.853 159.139 286.893 158.941 286.894L137.872 286.979C137.473 286.98 137.089 286.823 136.806 286.542C136.522 286.261 136.362 285.878 136.36 285.479L136.332 278.426C136.33 278.228 136.368 278.032 136.443 277.848C136.517 277.665 136.628 277.498 136.767 277.358C136.907 277.217 137.073 277.105 137.255 277.029C137.438 276.953 137.634 276.914 137.832 276.914" fill="#505050"/>
<path d="M246.155 280.518C246.16 281.593 245.845 282.644 245.252 283.54C244.659 284.436 243.813 285.136 242.822 285.552C241.831 285.967 240.739 286.079 239.684 285.874C238.629 285.669 237.659 285.155 236.896 284.398C236.133 283.641 235.612 282.675 235.398 281.622C235.184 280.569 235.287 279.476 235.694 278.482C236.102 277.487 236.795 276.636 237.686 276.035C238.577 275.435 239.626 275.112 240.701 275.108C241.414 275.105 242.121 275.243 242.781 275.513C243.442 275.783 244.042 276.181 244.548 276.683C245.055 277.186 245.457 277.783 245.733 278.441C246.009 279.099 246.152 279.805 246.155 280.518Z" fill="#939393"/>
<path d="M208.599 226.995H170.35V265.244H208.599V226.995Z" fill="#EC6401"/>
<path d="M252.311 226.995H214.062V265.244H252.311V226.995Z" fill="#409AE1"/>
<path d="M205 227H167V265H205V227Z" fill="#FF8C00"/>
<path d="M249 227H211V265H249V227Z" fill="#69AFE5"/>
<path d="M173.629 265.244H170.35V268.523H173.629V265.244Z" fill="#D8B094"/>
<path d="M205.322 265.244H202.043V268.523H205.322V265.244Z" fill="#D8B094"/>
<path d="M217.341 265.244H214.062V268.523H217.341V265.244Z" fill="#D8B094"/>
<path d="M250.127 265.244H246.848V268.523H250.127V265.244Z" fill="#D8B094"/>
<path d="M208.599 185.467H170.35V223.716H208.599V185.467Z" fill="#939393"/>
<path d="M205 186H167V224H205V186Z" fill="#D2D2D2"/>
<path d="M173.629 223.716H170.35V226.995H173.629V223.716Z" fill="#D8B094"/>
<path d="M205.322 223.716H202.043V226.995H205.322V223.716Z" fill="#D8B094"/>
</svg>
