<svg id="Layer_1" data-name="Layer 1" xmlns="http://www.w3.org/2000/svg" viewBox="0 0 64 64"><defs><style>.cls-1{fill:#b72b2b;}.cls-2,.cls-3{fill:#fff;}.cls-2{opacity:0.1;}</style></defs><title>logo_T-SQL</title><circle class="cls-1" cx="32" cy="32" r="32"/><path class="cls-2" d="M9.84,9A32,32,0,1,0,55,54.16Z"/><path class="cls-3" d="M15.3,27.44h-4v12H9v-12h-4v-2H15.3Z"/><path class="cls-3" d="M22.36,34.84H17V33.17h5.33Z"/><path class="cls-3" d="M24.74,38.91V36.52a3.7,3.7,0,0,0,.77.53,5.91,5.91,0,0,0,.94.4,7.43,7.43,0,0,0,1,.25,5.31,5.31,0,0,0,.92.09,3.92,3.92,0,0,0,2.18-.49,1.61,1.61,0,0,0,.72-1.42A1.55,1.55,0,0,0,31,35a2.51,2.51,0,0,0-.67-.67,7,7,0,0,0-1-.58l-1.25-.58q-.71-.38-1.33-.77a5.74,5.74,0,0,1-1.07-.86A3.61,3.61,0,0,1,25,30.47a3.48,3.48,0,0,1-.26-1.4,3.23,3.23,0,0,1,.44-1.71,3.74,3.74,0,0,1,1.17-1.2,5.39,5.39,0,0,1,1.66-.7,7.84,7.84,0,0,1,1.89-.23,7.65,7.65,0,0,1,3.2.5V28A5.11,5.11,0,0,0,30,27.16a5.47,5.47,0,0,0-1,.1,3.08,3.08,0,0,0-.92.32,2,2,0,0,0-.66.58,1.41,1.41,0,0,0-.25.85,1.61,1.61,0,0,0,.2.81,2.08,2.08,0,0,0,.57.63,5.85,5.85,0,0,0,.92.55q.54.27,1.25.58t1.38.8a6.54,6.54,0,0,1,1.14.93,4.09,4.09,0,0,1,.78,1.13,3.31,3.31,0,0,1,.29,1.41,3.5,3.5,0,0,1-.43,1.8,3.45,3.45,0,0,1-1.16,1.19,5.16,5.16,0,0,1-1.67.66,9.44,9.44,0,0,1-2,.21,8.43,8.43,0,0,1-.86-.05q-.51-.05-1-.16a9.66,9.66,0,0,1-1-.25A3.2,3.2,0,0,1,24.74,38.91Z"/><path class="cls-3" d="M42,39.7a7,7,0,0,1-2.74-.52,6,6,0,0,1-2.1-1.45,6.56,6.56,0,0,1-1.35-2.23,8.25,8.25,0,0,1-.48-2.87,9.09,9.09,0,0,1,.48-3,6.66,6.66,0,0,1,1.38-2.33,6.06,6.06,0,0,1,2.17-1.49,7.44,7.44,0,0,1,2.86-.53,6.75,6.75,0,0,1,2.68.52A6,6,0,0,1,47,27.2a6.56,6.56,0,0,1,1.33,2.23,8.3,8.3,0,0,1,.47,2.86,8.86,8.86,0,0,1-.69,3.63,6.24,6.24,0,0,1-2,2.5l4.06,2.93H46.71l-2.5-1.94a8.55,8.55,0,0,1-1,.21A7.85,7.85,0,0,1,42,39.7Zm.11-12.43a4,4,0,0,0-1.75.38A4,4,0,0,0,39,28.71a5,5,0,0,0-.89,1.65,6.73,6.73,0,0,0-.32,2.13,6.9,6.9,0,0,0,.31,2.12A4.92,4.92,0,0,0,39,36.24a3.86,3.86,0,0,0,3.07,1.43,4.45,4.45,0,0,0,1.81-.35,3.74,3.74,0,0,0,1.36-1,4.61,4.61,0,0,0,.86-1.62,7.2,7.2,0,0,0,.3-2.18,7.76,7.76,0,0,0-.29-2.23,4.71,4.71,0,0,0-.84-1.65,3.59,3.59,0,0,0-1.33-1A4.3,4.3,0,0,0,42.15,27.27Z"/><path class="cls-3" d="M59.15,39.47H51.39v-14h2.32v12h5.43Z"/></svg>