<svg id="Layer_1" data-name="Layer 1" xmlns="http://www.w3.org/2000/svg" xmlns:xlink="http://www.w3.org/1999/xlink" viewBox="0 0 64 64"><defs><style>.cls-1,.cls-5{fill:url(#linear-gradient);}.cls-1{clip-rule:evenodd;}.cls-2,.cls-4{fill:#699f63;}.cls-3{fill:#333;}.cls-3,.cls-4,.cls-5{fill-rule:evenodd;}.cls-6{clip-path:url(#clip-path);}.cls-7{fill:none;}.cls-8{fill:url(#linear-gradient-3);}.cls-9{fill:url(#linear-gradient-4);}.cls-10{fill:url(#linear-gradient-5);}.cls-11{fill:url(#linear-gradient-6);}.cls-12{fill:url(#linear-gradient-7);}.cls-13{fill:url(#linear-gradient-8);}</style><linearGradient id="linear-gradient" x1="26.1" y1="12.68" x2="20.59" y2="23.91" gradientUnits="userSpaceOnUse"><stop offset="0" stop-color="#41873f"/><stop offset="0.33" stop-color="#418b3d"/><stop offset="0.64" stop-color="#409637"/><stop offset="0.93" stop-color="#3fa92d"/><stop offset="1" stop-color="#3fae2a"/></linearGradient><clipPath id="clip-path"><path id="_Clipping_Path_" data-name="&lt;Clipping Path&gt;" class="cls-1" d="M24,10.06a.74.74,0,0,0-.74,0l-6.1,3.52a.74.74,0,0,0-.37.64v7a.74.74,0,0,0,.37.64l6.1,3.52a.74.74,0,0,0,.74,0l6.09-3.52a.74.74,0,0,0,.37-.64v-7a.74.74,0,0,0-.37-.64Z"/></clipPath><linearGradient id="linear-gradient-3" x1="22.69" y1="18.55" x2="38.14" y2="7.14" gradientUnits="userSpaceOnUse"><stop offset="0.14" stop-color="#41873f"/><stop offset="0.4" stop-color="#54a044"/><stop offset="0.71" stop-color="#66b748"/><stop offset="0.91" stop-color="#6cc04a"/></linearGradient><linearGradient id="linear-gradient-4" x1="16.57" y1="8.79" x2="30.67" y2="8.79" gradientUnits="userSpaceOnUse"><stop offset="0.09" stop-color="#6cc04a"/><stop offset="0.29" stop-color="#66b748"/><stop offset="0.6" stop-color="#54a044"/><stop offset="0.86" stop-color="#41873f"/></linearGradient><linearGradient id="linear-gradient-5" x1="16.57" y1="17.73" x2="30.67" y2="17.73" xlink:href="#linear-gradient-4"/><linearGradient id="linear-gradient-6" x1="16.57" y1="21.75" x2="30.67" y2="21.75" xlink:href="#linear-gradient-4"/><linearGradient id="linear-gradient-7" x1="15.98" y1="23.57" x2="31.24" y2="23.57" xlink:href="#linear-gradient-4"/><linearGradient id="linear-gradient-8" x1="33.01" y1="12.34" x2="24.31" y2="30.07" xlink:href="#linear-gradient"/></defs><title>logo_nodejs</title><path class="cls-2" d="M31.63,40.2A1.21,1.21,0,0,1,31,40L29.1,38.89c-.29-.16-.15-.22-.05-.25a3.85,3.85,0,0,0,.87-.4.15.15,0,0,1,.14,0l1.48.88a.19.19,0,0,0,.18,0L37.5,35.8a.18.18,0,0,0,.09-.16V29a.19.19,0,0,0-.09-.16l-5.78-3.33a.18.18,0,0,0-.18,0l-5.78,3.33a.19.19,0,0,0-.09.16v6.67a.18.18,0,0,0,.09.15l1.58.91c.86.43,1.39-.08,1.39-.58V29.54a.17.17,0,0,1,.17-.17h.73a.17.17,0,0,1,.17.17v6.59a1.6,1.6,0,0,1-1.71,1.8,2.47,2.47,0,0,1-1.33-.36l-1.52-.87a1.22,1.22,0,0,1-.61-1.05V29a1.22,1.22,0,0,1,.61-1.05L31,24.58a1.27,1.27,0,0,1,1.21,0L38,27.92A1.22,1.22,0,0,1,38.63,29v6.67A1.22,1.22,0,0,1,38,36.7L32.24,40A1.21,1.21,0,0,1,31.63,40.2Z"/><path class="cls-2" d="M33.42,35.6c-2.53,0-3.06-1.16-3.06-2.13a.17.17,0,0,1,.17-.17h.75a.17.17,0,0,1,.17.14c.11.76.45,1.14,2,1.14,1.22,0,1.74-.28,1.74-.92,0-.37-.15-.65-2-.83-1.58-.16-2.56-.51-2.56-1.77s1-1.86,2.63-1.86c1.85,0,2.77.64,2.88,2a.17.17,0,0,1-.17.18h-.75a.17.17,0,0,1-.16-.13c-.18-.8-.62-1.06-1.8-1.06s-1.48.46-1.48.81.18.54,2,.78,2.62.57,2.62,1.82S35.25,35.6,33.42,35.6Z"/><path class="cls-2" d="M41.75,28.61a1.11,1.11,0,1,1-1.11-1.11A1.12,1.12,0,0,1,41.75,28.61Zm-2,0a.93.93,0,1,0,.93-.93A.93.93,0,0,0,39.7,28.6Zm.52-.62h.43c.15,0,.44,0,.44.33a.29.29,0,0,1-.24.31c.17,0,.18.12.21.28a1.23,1.23,0,0,0,.06.33h-.26c0-.06,0-.38,0-.39s0-.11-.13-.11h-.22v.5h-.24Zm.24.55h.19a.17.17,0,0,0,.19-.18c0-.17-.12-.17-.18-.17h-.2Z"/><path class="cls-3" d="M13.73,14.1a.74.74,0,0,0-.37-.64L7.24,9.93a.72.72,0,0,0-.34-.1H6.84a.73.73,0,0,0-.34.1L.37,13.46A.74.74,0,0,0,0,14.1v9.5a.36.36,0,0,0,.18.32.36.36,0,0,0,.37,0l3.64-2.09a.75.75,0,0,0,.37-.64V16.75a.74.74,0,0,1,.37-.64l1.55-.89a.74.74,0,0,1,.37-.1.72.72,0,0,1,.37.1l1.55.89a.74.74,0,0,1,.37.64v4.44a.75.75,0,0,0,.37.64l3.64,2.09a.36.36,0,0,0,.37,0,.37.37,0,0,0,.18-.32Z"/><path class="cls-3" d="M43.22,1a.37.37,0,0,0-.55.32v9.4a.26.26,0,0,1-.39.22l-1.53-.88a.74.74,0,0,0-.74,0l-6.13,3.54a.74.74,0,0,0-.37.64v7.08a.74.74,0,0,0,.37.64L40,25.55a.74.74,0,0,0,.74,0L46.88,22a.74.74,0,0,0,.37-.64V3.73a.74.74,0,0,0-.38-.65Zm-.57,18a.18.18,0,0,1-.09.16l-2.1,1.21a.19.19,0,0,1-.18,0l-2.1-1.21a.18.18,0,0,1-.09-.16V16.61a.19.19,0,0,1,.09-.16l2.1-1.22a.19.19,0,0,1,.19,0l2.1,1.22a.19.19,0,0,1,.09.16Z"/><path class="cls-3" d="M63.63,16.55a.74.74,0,0,0,.37-.64V14.2a.74.74,0,0,0-.37-.64L57.54,10a.74.74,0,0,0-.74,0l-6.13,3.54a.74.74,0,0,0-.37.64v7.08a.74.74,0,0,0,.37.64l6.09,3.47a.74.74,0,0,0,.73,0l3.68-2a.37.37,0,0,0,0-.64L55,19.16a.37.37,0,0,1-.19-.32V16.62A.37.37,0,0,1,55,16.3l1.92-1.11a.37.37,0,0,1,.37,0l1.92,1.11a.37.37,0,0,1,.19.32v1.74a.37.37,0,0,0,.56.32Z"/><path class="cls-4" d="M57.08,16.22a.14.14,0,0,1,.14,0l1.18.68a.14.14,0,0,1,.07.12v1.36a.14.14,0,0,1-.07.12l-1.18.68a.14.14,0,0,1-.14,0L55.9,18.5a.14.14,0,0,1-.07-.12V17a.14.14,0,0,1,.07-.12Z"/><path id="_Clipping_Path_2" data-name="&lt;Clipping Path&gt;" class="cls-5" d="M24,10.06a.74.74,0,0,0-.74,0l-6.1,3.52a.74.74,0,0,0-.37.64v7a.74.74,0,0,0,.37.64l6.1,3.52a.74.74,0,0,0,.74,0l6.09-3.52a.74.74,0,0,0,.37-.64v-7a.74.74,0,0,0-.37-.64Z"/><g class="cls-6"><path class="cls-7" d="M23.24,10.06l-6.08,3.52a.73.73,0,0,0-.36.64v7a.68.68,0,0,0,.16.47L23.81,10A.79.79,0,0,0,23.24,10.06Z"/><path class="cls-7" d="M23.83,25.48l.17-.07,6.46-3.52c.23-.13.74-.37.74-.64v-7c0-.19-.45-.38-.58-.51Z"/><path class="cls-8" d="M30.1,13.57,24,10.06a.73.73,0,0,0-.19-.08L16.93,21.72a.84.84,0,0,0,.21.17l6.12,3.52a.74.74,0,0,0,.57.07L30.26,13.7A.8.8,0,0,0,30.1,13.57Z"/><path class="cls-7" d="M31.2,21.25v-7c0-.26-.52-.51-.75-.64l-6.29-3.52a1.35,1.35,0,0,0-.31-.08l7,11.45C30.88,21.37,31.2,21.31,31.2,21.25Z"/><path class="cls-7" d="M17.16,13.57a.73.73,0,0,0-.36.64v7a.73.73,0,0,0,.36.64l6.11,3.52a.72.72,0,0,0,.46.09L17.19,13.55Z"/><polygon class="cls-9" points="23.05 8.76 22.97 8.81 23.08 8.81 23.05 8.76"/><path class="cls-10" d="M30.1,21.89a.77.77,0,0,0,.36-.47L23.76,10a.75.75,0,0,0-.52.08l-6.07,3.5L23.73,25.5a.74.74,0,0,0,.27-.09Z"/><polygon class="cls-11" points="30.67 21.78 30.63 21.71 30.63 21.8 30.67 21.78"/><path class="cls-12" d="M30.1,21.89,24,25.41a.74.74,0,0,1-.27.09l.41.22L31.2,21.8v-.09l-.45-.29C30.7,21.62,30.28,21.79,30.1,21.89Z"/><path class="cls-13" d="M30.1,21.89,24,25.41a.74.74,0,0,1-.27.09l.41.22L31.2,21.8v-.09l-.45-.29C30.7,21.62,30.28,21.79,30.1,21.89Z"/></g></svg>