<svg id="Layer_1" data-name="Layer 1" xmlns="http://www.w3.org/2000/svg" viewBox="0 0 64 64"><defs><style>.cls-1{fill:#5c2d91;}.cls-2,.cls-3{fill:#fff;}.cls-2{opacity:0.1;}</style></defs><title>logo_ADO-NET</title><circle class="cls-1" cx="32" cy="32" r="32"/><path class="cls-2" d="M9.82,9A32,32,0,1,0,55,54.18Z"/><path class="cls-3" d="M26.47,27.72H24.18L23,24.52h-5L17,27.72H14.71l4.72-12.6h2.36Zm-4-4.91-1.75-5a6,6,0,0,1-.17-.79h0a5.14,5.14,0,0,1-.18.79l-1.73,5Z"/><path class="cls-3" d="M28.2,27.72V15.12h3.64q7,0,7,6.14A6.05,6.05,0,0,1,36.88,26a7.38,7.38,0,0,1-5.19,1.77ZM30.29,16.9V26H32a4.67,4.67,0,0,0,3.43-1.21,4.61,4.61,0,0,0,1.23-3.43q0-4.42-4.58-4.42Z"/><path class="cls-3" d="M46.31,27.93a5.67,5.67,0,0,1-4.36-1.77,6.49,6.49,0,0,1-1.64-4.6A6.87,6.87,0,0,1,42,16.72a5.87,5.87,0,0,1,4.54-1.81,5.54,5.54,0,0,1,4.28,1.76,6.51,6.51,0,0,1,1.62,4.6,6.9,6.9,0,0,1-1.66,4.88A5.76,5.76,0,0,1,46.31,27.93Zm.1-11.19A3.51,3.51,0,0,0,43.59,18a5.11,5.11,0,0,0-1.09,3.4,5.16,5.16,0,0,0,1.05,3.38,3.4,3.4,0,0,0,2.76,1.28,3.56,3.56,0,0,0,2.86-1.22,5.1,5.1,0,0,0,1-3.42,5.34,5.34,0,0,0-1-3.49A3.43,3.43,0,0,0,46.41,16.75Z"/><path class="cls-3" d="M11.14,48a1.54,1.54,0,0,1-1.1-.42,1.35,1.35,0,0,1-.45-1,1.37,1.37,0,0,1,.45-1,1.53,1.53,0,0,1,1.1-.43,1.56,1.56,0,0,1,1.11.43,1.37,1.37,0,0,1,.46,1,1.34,1.34,0,0,1-.46,1A1.58,1.58,0,0,1,11.14,48Z"/><path class="cls-3" d="M28.75,47.72H26L18.6,36.4a5,5,0,0,1-.46-.89h-.06a15.89,15.89,0,0,1,.09,2.12v10.1H15.69V32.32h3l7.11,11.05q.45.69.58.95h0a13.67,13.67,0,0,1-.11-2.07V32.32h2.46Z"/><path class="cls-3" d="M41.21,47.72H32.57V32.32h8.3v2.17H35.12v4.36h5.3V41h-5.3v4.55h6.09Z"/><path class="cls-3" d="M53.94,34.49H49.52V47.72H47V34.49H42.55V32.32h11.4Z"/></svg>