<svg xmlns="http://www.w3.org/2000/svg" viewBox="0 0 636 300"><title>swimlane-microservices-modules</title><polygon points="272.375 168.623 189.618 113.796 166.706 128.319 165.827 126.933 189.638 111.839 273.282 167.254 272.375 168.623" fill="#b2b2b2"/><rect x="267.089" y="61.418" width="1.642" height="65.777" transform="translate(41.73 266.097) rotate(-56.61)" fill="#b2b2b2"/><polygon points="189.949 234.688 189.051 233.313 230.204 206.447 266.674 230.303 336.718 183.3 337.633 184.663 266.686 232.273 230.203 208.41 189.949 234.688" fill="#b2b2b2"/><rect x="365.708" y="120.223" width="72.037" height="1.642" transform="translate(-0.588 240.118) rotate(-33.255)" fill="#b2b2b2"/><polygon points="481.794 195.352 449.044 172.627 413.402 195.241 378.123 172.33 379.018 170.953 413.413 193.29 449.085 170.656 482.731 194.002 481.794 195.352" fill="#b2b2b2"/><polygon points="134.5 121.173 134.5 147.749 157.5 132.69 157.344 106.166 134.5 121.173" fill="#939393"/><polygon points="134.5 121.204 134.5 147.638 112.5 133.125 112.345 106.431 134.5 121.204" fill="#b2b2b2"/><polygon points="134.503 121.25 156.942 106.338 135.118 91.941 112.525 106.595 134.503 121.25" fill="#d2d2d2"/><polygon points="430.5 79.176 430.5 105.751 453.5 90.692 453.344 64.168 430.5 79.176" fill="#737373"/><polygon points="430.5 79.206 430.5 105.64 408.5 91.127 408.345 64.433 430.5 79.206" fill="#b2b2b2"/><polygon points="430.201 79.252 452.64 64.34 430.815 49.943 408.222 64.598 430.201 79.252" fill="#d2d2d2"/><polygon points="451.5 93.27 451.5 119.846 474.5 104.786 474.344 78.262 451.5 93.27" fill="#f57800"/><polygon points="451.5 93.3 451.5 119.735 429.5 105.221 429.345 78.528 451.5 93.3" fill="#ff8c00"/><polygon points="451.797 93.346 474.237 78.435 452.412 64.037 429.819 78.692 451.797 93.346" fill="#c2c2c2"/><polygon points="324.5 126.864 324.5 153.44 347.5 138.38 347.344 111.856 324.5 126.864" fill="#b2b2b2"/><polygon points="325.5 126.894 325.5 153.329 303.5 138.815 303.345 112.122 325.5 126.894" fill="#b2b2b2"/><polygon points="325.016 126.94 347.456 112.029 325.631 97.631 303.038 112.286 325.016 126.94" fill="#d2d2d2"/><polygon points="302.5 167.177 302.5 193.752 325.5 178.693 325.344 152.169 302.5 167.177" fill="#724aad"/><polygon points="302.5 167.207 302.5 193.641 280.5 179.128 280.345 152.435 302.5 167.207" fill="#b2b2b2"/><polygon points="302.611 167.253 325.05 152.342 303.226 137.944 280.632 152.599 302.611 167.253" fill="#c2c2c2"/><polygon points="369.5 152.283 369.5 178.858 392.5 163.799 392.344 137.275 369.5 152.283" fill="#724aad"/><polygon points="369.5 152.313 369.5 178.747 347.5 164.234 347.345 137.54 369.5 152.313" fill="#939393"/><polygon points="369.566 152.359 392.005 137.447 370.18 123.05 347.587 137.705 369.566 152.359" fill="#9080cf"/><polygon points="302.5 141.57 302.5 168.146 325.5 153.086 325.344 126.562 302.5 141.57" fill="#409ae1"/><polygon points="302.5 141.6 302.5 168.035 280.5 153.521 280.345 126.828 302.5 141.6" fill="#69afe5"/><polygon points="302.577 141.646 325.016 126.735 303.191 112.337 280.598 126.992 302.577 141.646" fill="#b2b2b2"/><polygon points="302.5 115.62 302.5 142.196 325.5 127.136 325.344 100.613 302.5 115.62" fill="#f57800"/><polygon points="302.5 115.65 302.5 142.085 280.5 127.572 280.345 100.878 302.5 115.65" fill="#ff8c00"/><path d="M297.5,118.929v11.6a.676.676,0,0,1-1.048.565l-9.648-6.365a.675.675,0,0,1-.3-.561l-.068-11.714a.674.674,0,0,1,1.048-.565l9.719,6.48A.678.678,0,0,1,297.5,118.929Z" fill="#f57800"/><polygon points="302.611 115.697 325.05 100.785 303.226 86.388 280.632 101.042 302.611 115.697" fill="#ffb900"/><polygon points="280.5 182.015 280.5 208.59 303.5 193.531 303.344 167.007 280.5 182.015" fill="#409ae1"/><polygon points="280.5 182.045 280.5 208.479 258.5 193.966 258.345 167.272 280.5 182.045" fill="#69afe5"/><polygon points="280.255 182.091 302.694 167.179 280.87 152.782 258.276 167.437 280.255 182.091" fill="#7bc0ef"/><polygon points="346.5 167.062 346.5 193.638 369.5 178.579 369.344 152.055 346.5 167.062" fill="#f57800"/><polygon points="347.5 167.092 347.5 193.527 325.5 179.014 325.345 152.32 347.5 167.092" fill="#ff8c00"/><polygon points="347.111 167.139 369.551 152.227 347.726 137.83 325.133 152.484 347.111 167.139" fill="#ffb900"/><path d="M347.763,157.638l8.7-5.784a.891.891,0,0,0,0-1.485l-8.426-5.559a.885.885,0,0,0-.968,0l-8.763,5.685a.891.891,0,0,0-.01,1.488l8.486,5.658A.885.885,0,0,0,347.763,157.638Z" fill="#f57800"/><path d="M344.227,154.124a2.182,2.182,0,0,1-1.727-1.319v-7.583a2.184,2.184,0,0,1,1.727-1.319,1.258,1.258,0,0,1,1.273,1.319v7.583A1.257,1.257,0,0,1,344.227,154.124Z" fill="#ff8c00"/><path d="M350.479,149.936c-.726,0-1.314-.591-1.979-1.319v-7.583c.665-.728,1.253-1.319,1.979-1.319a.976.976,0,0,1,1.021,1.319v7.583A.976.976,0,0,1,350.479,149.936Z" fill="#ff8c00"/><path d="M289.042,119.135a1.2,1.2,0,0,1-.094,1.79l-5.761,3.691a1.518,1.518,0,0,1-1.91-.506,1.2,1.2,0,0,1,.094-1.79l5.761-3.691A1.518,1.518,0,0,1,289.042,119.135Z" fill="#ffb900"/><path d="M295.6,122.7a1.2,1.2,0,0,1-.1,1.79l-5.761,3.691a1.517,1.517,0,0,1-1.909-.506,1.2,1.2,0,0,1,.094-1.79l5.761-3.691A1.52,1.52,0,0,1,295.6,122.7Z" fill="#ffb900"/><polygon points="155.5 135.537 155.5 162.112 178.5 147.053 178.344 120.529 155.5 135.537" fill="#724aad"/><polygon points="155.5 135.567 155.5 162.001 133.5 147.488 133.345 120.794 155.5 135.567" fill="#939393"/><polygon points="155.849 135.613 178.289 120.702 156.464 106.304 133.871 120.959 155.849 135.613" fill="#9080cf"/><path d="M155.679,126.649l8.7-5.784a.891.891,0,0,0,0-1.485l-8.426-5.559a.883.883,0,0,0-.968,0l-8.764,5.684a.891.891,0,0,0-.009,1.488l8.486,5.658A.885.885,0,0,0,155.679,126.649Z" fill="#724aad"/><path d="M152.143,123.135a1.961,1.961,0,0,1-1.643-1.318v-7.584a1.961,1.961,0,0,1,1.643-1.318,1.383,1.383,0,0,1,1.357,1.318v7.584A1.383,1.383,0,0,1,152.143,123.135Z" fill="#b4a0ff"/><path d="M158.4,118.947c-.726,0-1.314-.59-1.9-1.319v-7.583c.581-.728,1.169-1.319,1.9-1.319a1.055,1.055,0,0,1,1.1,1.319v7.583A1.055,1.055,0,0,1,158.4,118.947Z" fill="#b4a0ff"/><polygon points="451.5 67.526 451.5 94.101 474.5 79.042 474.344 52.518 451.5 67.526" fill="#409ae1"/><polygon points="451.5 67.556 451.5 93.991 429.5 79.477 429.345 52.784 451.5 67.556" fill="#69afe5"/><polygon points="451.9 67.602 474.339 52.691 452.514 38.293 429.921 52.948 451.9 67.602" fill="#7bc0ef"/><polygon points="133.5 150.174 133.5 176.75 156.5 161.69 156.344 135.167 133.5 150.174" fill="#f57800"/><polygon points="133.5 150.204 133.5 176.639 111.5 162.126 111.345 135.432 133.5 150.204" fill="#ff8c00"/><polygon points="133.478 150.251 155.918 135.339 134.093 120.942 111.5 135.596 133.478 150.251" fill="#ffb900"/><polygon points="502.5 196.966 502.5 223.541 525.5 208.482 525.344 181.958 502.5 196.966" fill="#b2b2b2"/><polygon points="503.5 196.996 503.5 223.431 481.5 208.917 481.345 182.224 503.5 196.996" fill="#939393"/><polygon points="503.131 197.042 525.571 182.131 503.746 167.733 481.153 182.388 503.131 197.042" fill="#d2d2d2"/><polygon points="480.5 211.603 480.5 238.179 503.5 223.119 503.344 196.596 480.5 211.603" fill="#f57800"/><polygon points="480.5 211.633 480.5 238.068 458.5 223.555 458.345 196.861 480.5 211.633" fill="#ff8c00"/><polygon points="480.76 211.68 503.199 196.768 481.375 182.371 458.782 197.025 480.76 211.68" fill="#ffb900"/><polygon points="229.5 61.733 229.5 88.308 252.5 73.249 252.344 46.725 229.5 61.733" fill="#409ae1"/><polygon points="229.5 61.763 229.5 88.197 207.5 73.684 207.345 46.99 229.5 61.763" fill="#69afe5"/><path d="M224.5,65.042v11.6a.676.676,0,0,1-1.048.564L213.8,70.838a.676.676,0,0,1-.3-.562l-.068-11.713A.674.674,0,0,1,214.48,58l9.718,6.479A.679.679,0,0,1,224.5,65.042Z" fill="#409ae1"/><polygon points="229.452 61.809 251.892 46.897 230.067 32.5 207.474 47.155 229.452 61.809" fill="#7bc0ef"/><path d="M216.088,65.453a1.2,1.2,0,0,1-.094,1.79l-5.761,3.691a1.518,1.518,0,0,1-1.91-.506,1.2,1.2,0,0,1,.095-1.79l5.761-3.691A1.517,1.517,0,0,1,216.088,65.453Z" fill="#7bc0ef"/><path d="M222.646,69.018a1.2,1.2,0,0,1-.094,1.79L216.791,74.5a1.518,1.518,0,0,1-1.91-.506,1.2,1.2,0,0,1,.094-1.79l5.761-3.691A1.519,1.519,0,0,1,222.646,69.018Z" fill="#7bc0ef"/><polygon points="179.5 247.002 179.5 273.578 156.5 258.518 156.656 231.995 179.5 247.002" fill="#ec6401"/><polygon points="179.5 247.032 179.5 273.467 201.5 258.954 201.655 232.26 179.5 247.032" fill="#d83b01"/><path d="M184.5,250.311v11.6a.675.675,0,0,0,1.048.564l9.648-6.364a.675.675,0,0,0,.3-.561l.068-11.714a.674.674,0,0,0-1.048-.565l-9.718,6.48A.677.677,0,0,0,184.5,250.311Z" fill="#ec6401"/><polygon points="179.332 247.079 156.892 232.167 178.717 217.769 201.31 232.424 179.332 247.079" fill="#f57800"/><path d="M192.7,250.722a1.2,1.2,0,0,0,.094,1.79l5.761,3.692a1.521,1.521,0,0,0,1.91-.506,1.2,1.2,0,0,0-.095-1.79l-5.761-3.692A1.519,1.519,0,0,0,192.7,250.722Z" fill="#f57800"/><path d="M186.138,254.288a1.2,1.2,0,0,0,.094,1.789l5.761,3.692a1.519,1.519,0,0,0,1.91-.506,1.2,1.2,0,0,0-.094-1.79l-5.761-3.691A1.518,1.518,0,0,0,186.138,254.288Z" fill="#f57800"/><path d="M229.113,133.333l-.888-.591,1.107-1.666.888.591Zm-2.662-1.77-1.773-1.18,1.107-1.666,1.774,1.179ZM222.9,129.2l-1.774-1.181,1.109-1.664,1.773,1.181Zm-3.547-2.359-1.773-1.18L218.691,124l1.774,1.18Zm-3.546-2.36-1.774-1.179,1.108-1.666,1.773,1.179Zm-3.547-2.359-1.774-1.18,1.108-1.666,1.773,1.18Zm-3.548-2.359-1.773-1.18,1.109-1.666,1.773,1.18ZM205.17,117.4l-1.773-1.179,1.107-1.666,1.774,1.179Zm-3.546-2.359-1.774-1.18,1.108-1.666,1.773,1.18Zm-3.547-2.359-1.774-1.18,1.108-1.666,1.773,1.18Zm-15.052-.668-1.05-1.7,1.813-1.117,1.049,1.7Zm11.5-1.692-1.774-1.18,1.108-1.666,1.773,1.18Zm-7.88-.545-1.049-1.7,1.812-1.119,1.05,1.7Zm4.332-1.815-.669-.445-.038.023-.05-.082-.446-.3.137-.2-.69-1.12,1.128-.695,1.737,1.156Z" fill="#d2d2d2"/><path d="M294.888,220l-1.109-1.664,1.772-1.182,1.11,1.664Zm3.545-2.363-1.11-1.664,1.773-1.182,1.109,1.664Zm3.544-2.363-1.109-1.664,1.772-1.181,1.11,1.664Zm3.545-2.363-1.109-1.664,1.772-1.182,1.109,1.665Zm3.544-2.363-1.109-1.664,1.772-1.182,1.109,1.664Zm3.545-2.363-1.11-1.664,1.773-1.182L314.383,207Zm3.544-2.363-1.109-1.664,1.772-1.181,1.11,1.664Zm3.545-2.363-1.11-1.664,1.773-1.182,1.109,1.664Zm3.545-2.363-1.11-1.664,1.772-1.182,1.11,1.664Zm3.544-2.364-1.109-1.664,1.772-1.18,1.109,1.664Zm3.544-2.362-1.109-1.664L331,193.523l1.109,1.665Zm3.555-2.37-1.119-1.657.01-.007Z" fill="#d2d2d2"/><path d="M413.155,189.018l-1.9-1.237,1.089-1.677,1.372.89-.247.381.65,1.047Zm2.768-1.72-1.055-1.7,1.809-1.124,1.056,1.7Zm-6.46-.676-1.787-1.159,1.089-1.678,1.787,1.159Zm10.079-1.572-1.056-1.7,1.81-1.124,1.056,1.7ZM405.89,184.3l-1.787-1.159,1.088-1.678,1.787,1.159Zm17.27-1.5-1.055-1.7,1.81-1.124,1.055,1.7Zm-20.844-.818-1.787-1.159,1.089-1.678,1.787,1.16Zm24.463-1.429-1.055-1.7,1.809-1.124,1.056,1.7Zm-28.037-.89-1.786-1.159,1.088-1.678,1.787,1.159Zm31.656-1.358-1.056-1.7,1.81-1.124,1.056,1.7Zm3.619-2.248-1.056-1.7,1.678-1.042,1.055,1.7Z" fill="#d2d2d2"/><path d="M394.875,120.674l-1.083-1.682,1.015-.654,1.084,1.682Zm2.806-1.808-1.084-1.681,1.79-1.155,1.084,1.682Zm3.581-2.307-1.084-1.682,1.79-1.154,1.084,1.681Zm3.581-2.308-1.084-1.682,1.79-1.154,1.084,1.682Zm3.58-2.308-1.084-1.681,1.791-1.155,1.084,1.682ZM412,109.636l-1.084-1.682,1.79-1.154,1.084,1.681Zm3.581-2.308-1.084-1.682,1.791-1.154,1.083,1.682Z" fill="#d2d2d2"/><path d="M503.729,188.305l8.7-5.784a.891.891,0,0,0,0-1.485L504,175.477a.885.885,0,0,0-.968,0l-8.763,5.685a.891.891,0,0,0-.01,1.488l8.486,5.658A.885.885,0,0,0,503.729,188.305Z" fill="#939393"/><path d="M500.193,184.791a2.089,2.089,0,0,1-1.693-1.319v-7.583a2.09,2.09,0,0,1,1.693-1.318,1.305,1.305,0,0,1,1.307,1.318v7.583A1.306,1.306,0,0,1,500.193,184.791Z" fill="#b2b2b2"/><path d="M506.445,180.6c-.726,0-1.314-.591-1.945-1.319V171.7c.631-.728,1.219-1.319,1.945-1.319A1.006,1.006,0,0,1,507.5,171.7v7.583A1.006,1.006,0,0,1,506.445,180.6Z" fill="#b2b2b2"/></svg>