<svg width="400" height="140" xmlns="http://www.w3.org/2000/svg">
 <title>swimlane-microservices-modules</title>

 <g>
  <title>background</title>
  <rect fill="none" id="canvas_background" height="142" width="402" y="-1" x="-1"/>
 </g>
 <g>
  <title>Layer 1</title>
  <g stroke="null" id="svg_83">
   <polygon stroke="null" id="svg_12" fill="#f57800" points="286.44237399022677,42.27294526955302 286.44237399022677,55.73060129239093 298.2817739027232,48.10446260282151 298.2015016833029,34.67313695683333 286.44237399022677,42.27294526955302 "/>
   <polygon stroke="null" id="svg_48" fill="#409ae1" points="286.44237399022677,29.23660291975102 286.44237399022677,42.693752146184124 298.2817739027232,35.06811564577947 298.2015016833029,21.636794607031334 286.44237399022677,29.23660291975102 "/>
   <polygon stroke="null" id="svg_66" fill="#ec6401" points="146.42829971356696,120.12034690684959 146.42829971356696,133.5780029296875 134.58888379145355,125.95186884735813 134.66918803010776,112.52103617605462 146.42829971356696,120.12034690684959 "/>
   <polygon stroke="null" id="svg_67" fill="#d83b01" points="146.42829971356696,120.1355415845137 146.42829971356696,133.5217946011544 157.7529744312924,126.17264779025209 157.83275035258703,112.65523586404743 146.42829971356696,120.1355415845137 "/>
   <path stroke="null" id="svg_68" fill="#ec6401" d="m149.002091,121.795971l0,5.874053a0.347461,0.341809 0 0 0 0.539466,0.2856l4.966381,-3.222627a0.347461,0.341809 0 0 0 0.154427,-0.284081l0.035004,-5.93178a0.346947,0.341303 0 0 0 -0.539466,-0.286107l-5.002414,3.281367a0.348491,0.342822 0 0 0 -0.153398,0.283575z"/>
   <polygon stroke="null" id="svg_69" fill="#f57800" points="146.34183177238447,120.15933337209935 134.7906690035743,112.60814987080084 146.0252415970681,105.31722014509069 157.65517168130464,112.73827675859502 146.34183177238447,120.15933337209935 "/>
   <path stroke="null" id="svg_70" fill="#f57800" d="m153.223103,122.004094a0.617709,0.607661 0 0 0 0.048387,0.906427l2.965518,1.869569a0.782946,0.77021 0 0 0 0.983187,-0.25623a0.617709,0.607661 0 0 0 -0.048902,-0.906427l-2.965518,-1.869569a0.781917,0.769197 0 0 0 -0.982672,0.25623z"/>
   <path stroke="null" id="svg_71" fill="#f57800" d="m149.845264,123.809859a0.617709,0.607661 0 0 0 0.048387,0.905921l2.965518,1.869569a0.781917,0.769197 0 0 0 0.983187,-0.25623a0.617709,0.607661 0 0 0 -0.048387,-0.906427l-2.965518,-1.869063a0.781402,0.768691 0 0 0 -0.983187,0.25623z"/>
   <polygon stroke="null" id="svg_54" fill="#b2b2b2" points="312.6950079140952,94.7829224313391 312.6950079140952,108.2400716577722 324.53443984582555,100.61443515736755 324.45413560717134,87.18310490413933 312.6950079140952,94.7829224313391 "/>
   <polygon stroke="null" id="svg_55" fill="#939393" points="313.20974911848316,94.79811710900321 313.20974911848316,108.184379340124 301.8850904103747,100.83471651833679 301.8052984794631,87.31781138853694 313.20974911848316,94.79811710900321 "/>
   <polygon stroke="null" id="svg_56" fill="#d2d2d2" points="313.0198110229103,94.82141131466415 324.57097379172046,87.27071618081027 313.3363851886097,79.97980488406029 301.7064871236071,87.40086149756462 313.0198110229103,94.82141131466415 "/>
   <polygon stroke="null" id="svg_57" fill="#f57800" points="301.3703492059867,102.194865924037 301.3703492059867,115.65252194687491 313.20974911848316,108.02637865006545 313.12944487982895,94.59555519324203 301.3703492059867,102.194865924037 "/>
   <polygon stroke="null" id="svg_58" fill="#ff8c00" points="301.3703492059867,102.21006060170112 301.3703492059867,115.59630440386172 290.0456584786443,108.24715759295941 289.96589856696664,94.72974566675475 301.3703492059867,102.21006060170112 "/>
   <polygon stroke="null" id="svg_59" fill="#ffb900" points="301.5041575845098,102.23385238928677 313.0548080455774,94.68266888798826 301.82073175020923,87.392255173163 290.1908336852066,94.81279577578243 301.5041575845098,102.23385238928677 "/>
   <path stroke="null" id="svg_76" fill="#939393" d="m313.327637,90.397134l4.478391,-2.928924a0.458649,0.451188 0 0 0 0,-0.75198l-4.338892,-2.814988a0.45556,0.44815 0 0 0 -0.498285,0l-4.510821,2.878792a0.458649,0.451188 0 0 0 -0.005148,0.753499l4.368233,2.86512a0.45556,0.44815 0 0 0 0.506521,-0.001519z"/>
   <path stroke="null" id="svg_77" fill="#b2b2b2" d="m311.507454,88.617702a1.075329,1.057836 0 0 1 -0.871485,-0.66792l0,-3.839909a1.075843,1.058342 0 0 1 0.871485,-0.667414a0.671759,0.660831 0 0 1 0.672788,0.667414l0,3.839909a0.672273,0.661337 0 0 1 -0.672788,0.66792z"/>
   <path stroke="null" id="svg_78" fill="#b2b2b2" d="m314.725718,86.495447c-0.373714,0 -0.676391,-0.299273 -1.001203,-0.66792l0,-3.838896c0.324812,-0.368647 0.627489,-0.66792 1.001203,-0.66792a0.517846,0.509422 0 0 1 0.543069,0.66792l0,3.839909a0.517846,0.509422 0 0 1 -0.543069,0.666908z"/>
   <rect stroke="null" id="svg_2" fill="#b2b2b2" transform="matrix(0.2832891168875117,-0.4228021139898046,0.42979371360207685,0.2786807570695143,-50.67831417862041,73.2771610485922) " height="65.777" width="1.642" y="327.514985" x="308.819"/>
   <rect stroke="null" id="svg_4" fill="#b2b2b2" transform="matrix(0.4304599959394959,-0.2776837928159458,0.28227566649383634,0.4234575576872329,-13.799715880451387,14.791339923392272) " height="1.642" width="72.037" y="360.340996" x="365.12"/>
   <polygon stroke="null" id="svg_5" fill="#b2b2b2" points="302.0364133098483,93.96561647654744 285.1781265583995,82.45804851804496 266.83113754539227,93.90940814801434 248.6709807622683,82.30764977405852 249.13168950942782,81.61036242240516 266.8368049497949,92.92145923648422 285.1992272335483,81.4599728928988 302.51875104951614,93.28200341334377 302.0364133098483,93.96561647654744 "/>
   <polygon stroke="null" id="svg_9" fill="#737373" points="275.63245648650627,35.13597107714304 275.63245648650627,48.59312491081619 287.47188841823663,40.96748841041153 287.3915521603485,27.536162764423352 275.63245648650627,35.13597107714304 "/>
   <polygon stroke="null" id="svg_10" fill="#b2b2b2" points="275.63245648650627,35.15116114756711 275.63245648650627,48.53691197504304 264.3077977783978,41.18776516414073 264.2280058474862,27.67035323793607 275.63245648650627,35.15116114756711 "/>
   <polygon stroke="null" id="svg_11" fill="#d2d2d2" points="275.4785400290857,35.174459960468084 287.02919049015327,27.6232580302094 275.7946018870425,20.332853529864224 264.16467180280597,27.753910143368557 275.4785400290857,35.174459960468084 "/>
   <polygon stroke="null" id="svg_13" fill="#ff8c00" points="286.44237399022677,42.28813994721713 286.44237399022677,55.67439296385783 275.1177152821183,48.32474396379075 275.0378913319728,34.807834226750856 286.44237399022677,42.28813994721713 "/>
   <polygon stroke="null" id="svg_14" fill="#c2c2c2" points="286.5952338129282,42.31142954563802 298.1463965817384,34.76074362626423 286.9118079786276,27.469827722274204 275.2818778943911,34.89088433577854 286.5952338129282,42.31142954563802 "/>
   <polygon stroke="null" id="svg_15" fill="#b2b2b2" points="221.06815978274972,59.28440511457666 221.06815978274972,72.74206113741457 232.90757570486312,65.1159178406051 232.8272714662089,51.68459680185697 221.06815978274972,59.28440511457666 "/>
   <polygon stroke="null" id="svg_16" fill="#b2b2b2" points="221.5829009871377,59.29959057776068 221.5829009871377,72.68585280888146 210.25824227902922,65.33619920157435 210.17846635773458,51.81929407177449 221.5829009871377,59.29959057776068 "/>
   <polygon stroke="null" id="svg_17" fill="#d2d2d2" points="221.3337593280594,59.322884783421614 232.88492209686956,51.77219886404782 221.65034950337576,44.4812829600578 210.02041941913922,51.902344180802174 221.3337593280594,59.322884783421614 "/>
   <polygon stroke="null" id="svg_18" fill="#724aad" points="209.7434850650243,79.69825644498997 209.7434850650243,93.15540567142307 221.5829009871377,85.52976917101842 221.50259674848348,72.09845734675037 209.7434850650243,79.69825644498997 "/>
   <polygon stroke="null" id="svg_19" fill="#b2b2b2" points="209.7434850650243,79.71345112265408 209.7434850650243,93.09919734288997 198.41882635691582,85.75005053198765 198.33903442600422,72.2331454021878 209.7434850650243,79.71345112265408 "/>
   <polygon stroke="null" id="svg_20" fill="#c2c2c2" points="209.80062338794232,79.73674532831501 221.35125783939293,72.18605019446113 210.11719755364174,64.89513889771115 198.4867551616626,72.3161862967354 209.80062338794232,79.73674532831501 "/>
   <polygon stroke="null" id="svg_21" fill="#724aad" points="244.2322344129716,72.1561768500178 244.2322344129716,85.6133260764509 256.0716823543189,77.98768957604625 255.99136210604775,64.55636853729811 244.2322344129716,72.1561768500178 "/>
   <polygon stroke="null" id="svg_22" fill="#939393" points="244.2322344129716,72.17137152768191 244.2322344129716,85.55710853343771 232.90757570486312,78.2079617225354 232.82778377395152,64.69055901081083 244.2322344129716,72.17137152768191 "/>
   <polygon stroke="null" id="svg_23" fill="#9080cf" points="244.2662228297704,72.19465651886276 255.81685728122102,64.64347301756425 244.58226867811027,57.353059302738984 232.95237061310763,64.77411591624332 244.2662228297704,72.19465651886276 "/>
   <polygon stroke="null" id="svg_24" fill="#409ae1" points="209.7434850650243,66.73128991576596 209.7434850650243,80.18893672412378 221.5829009871377,72.5628026417944 221.50259674848348,59.13147238856618 209.7434850650243,66.73128991576596 "/>
   <polygon stroke="null" id="svg_25" fill="#69afe5" points="209.7434850650243,66.74648459343007 209.7434850650243,80.13273761007076 198.41882635691582,72.78307478828356 198.33903442600422,59.26617887296379 209.7434850650243,66.74648459343007 "/>
   <polygon stroke="null" id="svg_26" fill="#b2b2b2" points="209.78312487660878,66.76976958461091 221.3337593280594,59.21908366523712 210.0991867345656,51.92816315400705 198.469272659946,59.349219767511386 209.78312487660878,66.76976958461091 "/>
   <polygon stroke="null" id="svg_27" fill="#f57800" points="209.7434850650243,53.590621222414484 209.7434850650243,67.04828645973248 221.5829009871377,59.42214316292302 221.50259674848348,45.991324313339646 209.7434850650243,53.590621222414484 "/>
   <polygon stroke="null" id="svg_28" fill="#ff8c00" points="209.7434850650243,53.605815900078596 209.7434850650243,66.99207813119938 198.41882635691582,59.64292210581698 198.33903442600422,46.125514786852364 209.7434850650243,53.605815900078596 "/>
   <path stroke="null" id="svg_29" fill="#f57800" d="m207.169697,55.266249l0,5.874053a0.347976,0.342315 0 0 1 -0.539466,0.286107l-4.966381,-3.223133a0.347461,0.341809 0 0 1 -0.154427,-0.284081l-0.035004,-5.93178a0.346947,0.341303 0 0 1 0.539466,-0.286107l5.002929,3.281367a0.349006,0.343328 0 0 1 0.152883,0.283575z"/>
   <polygon stroke="null" id="svg_30" fill="#ffb900" points="209.80062338794232,53.629616902144335 221.35125783939293,46.07841957912569 210.11719755364174,38.78801507878052 198.4867551616626,46.20856028864 209.80062338794232,53.629616902144335 "/>
   <polygon stroke="null" id="svg_31" fill="#409ae1" points="198.41882635691582,87.21198308473322 198.41882635691582,100.66912309668623 210.25824227902922,93.04350502524176 210.177938040375,79.61217477201353 198.41882635691582,87.21198308473322 "/>
   <polygon stroke="null" id="svg_32" fill="#69afe5" points="198.41882635691582,87.22716854791724 198.41882635691582,100.6129331971133 187.0941516391904,93.26376795725082 187.0143597082788,79.74636524552625 198.41882635691582,87.22716854791724 "/>
   <polygon stroke="null" id="svg_33" fill="#7bc0ef" points="198.29270259453187,87.25046275357818 209.84333704598248,79.69927003779958 198.6092767602313,72.40885632297432 186.9788503778691,79.82991293647865 198.29270259453187,87.25046275357818 "/>
   <polygon stroke="null" id="svg_34" fill="#f57800" points="232.3928184908582,79.64002093083764 232.3928184908582,93.09767695367555 244.2322344129716,85.47204045327089 244.15194618393434,72.04071941452275 232.3928184908582,79.64002093083764 "/>
   <polygon stroke="null" id="svg_35" fill="#ff8c00" points="232.90757570486312,79.65520639402166 232.90757570486312,93.04146862514244 221.5829009871377,85.69232181424013 221.50312506584305,72.17491910251556 232.90757570486312,79.65520639402166 "/>
   <polygon stroke="null" id="svg_36" fill="#ffb900" points="232.7073274159702,79.67901661056749 244.25850619439734,72.12782389478889 233.0239175912866,64.83741017996363 221.39398750705004,72.25795999706315 232.7073274159702,79.67901661056749 "/>
   <path stroke="null" id="svg_37" fill="#f57800" d="m233.042957,74.867861l4.478391,-2.928924a0.458649,0.451188 0 0 0 0,-0.75198l-4.337347,-2.814988a0.45556,0.44815 0 0 0 -0.498285,0l-4.510821,2.878792a0.458649,0.451188 0 0 0 -0.005148,0.753499l4.368233,2.86512a0.45556,0.44815 0 0 0 0.504977,-0.001519z"/>
   <path stroke="null" id="svg_38" fill="#ff8c00" d="m231.222774,73.088428a1.123201,1.10493 0 0 1 -0.888986,-0.66792l0,-3.839909a1.124231,1.105942 0 0 1 0.888986,-0.66792a0.647565,0.637031 0 0 1 0.655286,0.66792l0,3.839909a0.64705,0.636524 0 0 1 -0.655286,0.66792z"/>
   <path stroke="null" id="svg_39" fill="#ff8c00" d="m234.441038,70.967693c-0.373714,0 -0.676391,-0.299273 -1.018705,-0.66792l0,-3.839909c0.342314,-0.368647 0.644991,-0.66792 1.018705,-0.66792a0.502403,0.494231 0 0 1 0.525567,0.66792l0,3.839909a0.502403,0.494231 0 0 1 -0.525567,0.66792z"/>
   <path stroke="null" id="svg_40" fill="#ffb900" d="m202.815877,55.370564a0.617709,0.607661 0 0 1 -0.048387,0.906427l-2.965518,1.869063a0.781402,0.768691 0 0 1 -0.983187,-0.25623a0.617709,0.607661 0 0 1 0.048387,-0.906427l2.965518,-1.869063a0.781402,0.768691 0 0 1 0.983187,0.25623z"/>
   <path stroke="null" id="svg_41" fill="#ffb900" d="m206.191657,57.175823a0.617709,0.607661 0 0 1 -0.051476,0.906427l-2.965518,1.869063a0.780887,0.768184 0 0 1 -0.982672,-0.25623a0.617709,0.607661 0 0 1 0.048387,-0.906427l2.965518,-1.869063a0.782432,0.769703 0 0 1 0.985761,0.25623z"/>
   <polygon stroke="null" id="svg_49" fill="#69afe5" points="286.44237399022677,29.25179299017509 286.44237399022677,42.638046006815784 275.1177152821183,35.288392399508666 275.0378913319728,21.771491876948858 286.44237399022677,29.25179299017509 "/>
   <polygon stroke="null" id="svg_50" fill="#7bc0ef" points="286.6482576642884,29.27508258859598 298.19890812535596,21.724396669222187 286.9643515414791,14.433480765232162 275.33438943800866,21.854537378736495 286.6482576642884,29.27508258859598 "/>
   <polygon stroke="null" id="svg_60" fill="#409ae1" points="172.1661924330474,26.30311789704865 172.1661924330474,39.76026712348175 184.0056083551608,32.134635230317144 183.9253041165066,18.703309584328963 172.1661924330474,26.30311789704865 "/>
   <polygon stroke="null" id="svg_61" fill="#69afe5" points="172.1661924330474,26.31830796747272 172.1661924330474,39.70405879494865 160.84151771532197,32.35491198404634 160.76172578441037,18.837504665081724 172.1661924330474,26.31830796747272 "/>
   <path stroke="null" id="svg_62" fill="#409ae1" d="m169.592394,27.978743l0,5.874053a0.347976,0.342315 0 0 1 -0.539466,0.2856l-4.96844,-3.224652a0.347976,0.342315 0 0 1 -0.154427,-0.284588l-0.035004,-5.931274a0.346947,0.341303 0 0 1 0.539466,-0.285094l5.002414,3.280861a0.34952,0.343835 0 0 1 0.155457,0.285094z"/>
   <polygon stroke="null" id="svg_63" fill="#7bc0ef" points="172.14147358446644,26.34160217313365 183.6926363532766,18.790409457355054 172.45804775016586,11.500000349769834 160.82813367554627,18.921056963274168 172.14147358446644,26.34160217313365 "/>
   <path stroke="null" id="svg_64" fill="#7bc0ef" d="m165.262253,28.186867a0.617709,0.607661 0 0 1 -0.048387,0.906427l-2.965518,1.869063a0.781402,0.768691 0 0 1 -0.983187,-0.25623a0.617709,0.607661 0 0 1 0.048902,-0.906427l2.965518,-1.869063a0.780887,0.768184 0 0 1 0.982672,0.25623z"/>
   <path stroke="null" id="svg_65" fill="#7bc0ef" d="m168.638033,29.992125a0.617709,0.607661 0 0 1 -0.048387,0.906427l-2.965518,1.869569a0.781402,0.768691 0 0 1 -0.983187,-0.25623a0.617709,0.607661 0 0 1 0.048387,-0.906427l2.965518,-1.869063a0.781917,0.769197 0 0 1 0.983187,0.255724z"/>
   <path stroke="null" id="svg_73" fill="#d2d2d2" d="m205.82515,106.44697l-0.570866,-0.842623l0.91215,-0.598546l0.571381,0.842623l-0.912665,0.598546zm2.737481,-1.795131l-0.571381,-0.842623l0.912665,-0.598546l0.570866,0.842623l-0.91215,0.598546zm1.824301,-1.196585l-0.570866,-0.842623l0.91215,-0.598039l0.571381,0.842623l-0.912665,0.598039zm1.824816,-1.196585l-0.570866,-0.842623l0.91215,-0.598546l0.570866,0.843129l-0.91215,0.598039zm1.824301,-1.196585l-0.570866,-0.842623l0.91215,-0.598546l0.570866,0.842623l-0.91215,0.598546zm1.824816,-1.196585l-0.571381,-0.842623l0.912665,-0.598546l-0.341799,1.439649l0.000515,0.001519zm1.824301,-1.196585l-0.570866,-0.842623l0.91215,-0.598039l0.571381,0.842623l-0.912665,0.598039zm1.824816,-1.196585l-0.571381,-0.842623l0.912665,-0.598546l0.570866,0.842623l-0.91215,0.598546zm1.824816,-1.196585l-0.571381,-0.842623l0.91215,-0.598546l0.571381,0.842623l-0.91215,0.598546zm1.824301,-1.197091l-0.570866,-0.842623l0.91215,-0.597533l0.570866,0.842623l-0.91215,0.597533zm1.824301,-1.196079l-0.570866,-0.842623l0.001544,-0.000506l0.570866,0.843129l-0.001544,0zm1.829963,-1.20013l-0.576014,-0.839078l0.005148,-0.003545l0.570866,0.842623z"/>
   <path stroke="null" id="svg_74" fill="#d2d2d2" d="m266.703984,90.758186l-0.978039,-0.626397l0.560571,-0.849206l0.706247,0.450682l-0.127145,0.192932l0.334592,0.530184l-0.496226,0.301805zm1.921075,-1.172785l-0.543069,-0.860853l0.931196,-0.569175l0.543584,0.860853l-0.931711,0.569175zm-3.325334,-0.342315l-0.919872,-0.586899l0.560571,-0.849712l0.919872,0.586899l-0.560571,0.849712zm5.188242,-0.796035l-0.543584,-0.860853l0.931711,-0.569175l0.543584,0.860853l-0.931711,0.569175zm-8.455408,0.491192l-0.919872,-0.586899l0.560056,-0.849712l0.919872,0.586899l-0.560056,0.849712zm17.345271,-1.250768l-0.543069,-0.860853l0.931711,-0.569175l0.543069,0.860853l-0.931711,0.569175zm-10.729607,-0.414222l-0.919872,-0.586899l0.560571,-0.849712l0.919872,0.587405l-0.560571,0.849206zm12.592515,-0.723623l-0.543069,-0.860853l0.931196,-0.569175l0.543584,0.860853l-0.931711,0.569175zm-14.432258,-0.450682l-0.919357,-0.586899l0.560056,-0.849712l0.919872,0.586899l-0.560571,0.849712zm16.295166,-0.687669l-0.543584,-0.860853l0.931711,-0.569175l0.543584,0.860853l-0.931711,0.569175zm1.862908,-1.138351l-0.543584,-0.860853l0.863763,-0.527652l0.543069,0.860853l-0.863248,0.527652z"/>
   <path stroke="null" id="svg_75" fill="#d2d2d2" d="m257.294216,56.149889l-0.557482,-0.851738l0.522479,-0.331175l0.557997,0.851738l-0.522994,0.331175zm1.967403,-1.246717l-0.557997,-0.851231l0.921416,-0.584873l0.557997,0.851738l-0.921416,0.584367zm1.843347,-1.168228l-0.557997,-0.851738l0.921416,-0.584367l0.557997,0.851231l-0.921416,0.584873zm1.843347,-1.168734l-0.557997,-0.851738l0.921416,-0.584367l0.557997,0.851738l-0.921416,0.584367zm1.842832,-1.168734l-0.557997,-0.851231l0.921931,-0.584873l0.557997,0.851738l-0.921931,0.584367zm0.396363,-0.252686l-0.557997,-0.851738l0.921416,-0.584367l0.557997,0.851231l-0.921416,0.584873zm1.446984,-0.916048l-0.557997,-0.851738l0.921931,-0.584367l0.557482,0.851738l-0.921416,0.584367z"/>
   <polygon stroke="null" id="svg_1" fill="#b2b2b2" points="194.23640998471092,80.43048510513472 151.6366283499665,52.666980167414295 139.8424876246063,60.02119494236467 139.39002383017942,59.319346423068055 151.64692253366957,51.675981262975256 194.70331445363263,79.73724291023973 194.23640998471092,80.43048510513472 "/>
   <polygon stroke="null" id="svg_3" fill="#b2b2b2" points="151.80700269361841,113.88474237106857 151.34475702323107,113.18845018326465 172.5285701128596,99.58396142023412 191.3017831581019,111.66423695960839 227.3574417464406,87.86268202506471 227.82846068692015,88.55288344153087 191.30796287024714,112.66181500282983 172.528057805117,100.57798267414182 151.80700269361841,113.88474237106857 "/>
   <polygon stroke="null" id="svg_6" fill="#939393" points="123.26420907372813,56.40257646724422 123.26420907372813,69.86022327560204 135.10362499584153,62.23459598967747 135.02333676680428,48.803274950929335 123.26420907372813,56.40257646724422 "/>
   <polygon stroke="null" id="svg_7" fill="#b2b2b2" points="123.26420907372813,56.418277941313136 123.26420907372813,69.80402416154902 111.93954236081117,62.45487735064671 111.85975843470806,48.93746542444205 123.26420907372813,56.418277941313136 "/>
   <polygon stroke="null" id="svg_8" fill="#d2d2d2" points="123.26576200657291,56.44156293249398 134.81641246764048,48.89036560947534 123.58233617227233,41.59996110913016 111.95242209765274,49.02051092622969 123.26576200657291,56.44156293249398 "/>
   <polygon stroke="null" id="svg_42" fill="#724aad" points="134.07412657744862,63.67627511519095 134.07412657744862,77.13342434162405 145.91354249956203,69.5077878412194 145.83323826090782,56.07646680247126 134.07412657744862,63.67627511519095 "/>
   <polygon stroke="null" id="svg_43" fill="#939393" points="134.07412657744862,63.69146979285506 134.07412657744862,77.07721601309095 122.74945986453167,69.72806920218864 122.66966793362008,56.210657275983976 134.07412657744862,63.69146979285506 "/>
   <polygon stroke="null" id="svg_44" fill="#9080cf" points="134.2537704893184,63.71476399851599 145.80493325812859,56.16406886466211 134.57034465501783,48.87315756791213 122.94043058039824,56.29420496693638 134.2537704893184,63.71476399851599 "/>
   <path stroke="null" id="svg_45" fill="#724aad" d="m134.166263,59.175532l4.478391,-2.928924a0.458649,0.451188 0 0 0 0,-0.75198l-4.337347,-2.814988a0.454531,0.447137 0 0 0 -0.498285,0l-4.511335,2.878286a0.458649,0.451188 0 0 0 -0.004633,0.753499l4.368233,2.86512a0.45556,0.44815 0 0 0 0.504977,-0.001013z"/>
   <path stroke="null" id="svg_46" fill="#b4a0ff" d="m132.34608,57.3961a1.00944,0.993019 0 0 1 -0.845747,-0.667414l0,-3.840415a1.00944,0.993019 0 0 1 0.845747,-0.667414a0.71191,0.700329 0 0 1 0.698526,0.667414l0,3.840415a0.71191,0.700329 0 0 1 -0.698526,0.667414z"/>
   <path stroke="null" id="svg_47" fill="#b4a0ff" d="m135.566918,55.275364c-0.373714,0 -0.676391,-0.298766 -0.978039,-0.66792l0,-3.839909c0.299074,-0.368647 0.601752,-0.66792 0.978039,-0.66792a0.543069,0.534235 0 0 1 0.566233,0.66792l0,3.839909a0.543069,0.534235 0 0 1 -0.566233,0.66792z"/>
   <polygon stroke="null" id="svg_51" fill="#f57800" points="122.74945986453167,71.08820939340876 122.74945986453167,84.54587463072676 134.58888379145355,76.9197313339173 134.5085635431824,63.48891709157397 122.74945986453167,71.08820939340876 "/>
   <polygon stroke="null" id="svg_52" fill="#ff8c00" points="122.74945986453167,71.10339485659279 122.74945986453167,84.48966630219365 111.42479315161472,77.14051027681126 111.34500122070312,63.623107565086684 122.74945986453167,71.10339485659279 "/>
   <polygon stroke="null" id="svg_53" fill="#ffb900" points="122.73813306053489,71.12720507313861 134.2892798197281,63.576012357360014 123.05470722623431,56.28559864253475 111.42479315161472,63.70614845963428 122.73813306053489,71.12720507313861 "/>
   <path stroke="null" id="svg_72" fill="#d2d2d2" d="m171.966971,62.560202l-0.457105,-0.299273l0.569837,-0.843635l0.457105,0.299273l-0.569837,0.843635zm-0.800448,-1.739935l-0.912665,-0.597533l0.569837,-0.843635l0.91318,0.597027l-0.570351,0.844142zm-2.968092,0.491192l-0.91318,-0.598039l0.570866,-0.842623l0.912665,0.598039l-0.570351,0.842623zm1.142247,-1.685752l-0.912665,-0.597533l-1.825845,-1.194053l0.91318,0.597533l1.82533,1.194053zm-1.82533,-1.195066l-0.91318,-0.597027l0.570351,-0.843635l0.912665,0.597027l-0.569837,0.843635zm-1.825845,-1.194559l-0.91318,-0.597533l0.570351,-0.843635l0.912665,0.597533l-0.569837,0.843635zm-1.82636,-1.194559l-0.912665,-0.597533l0.570866,-0.843635l0.912665,0.597533l-0.570866,0.843635zm-4.791878,-0.705899l-0.912665,-0.597027l0.569837,-0.843635l0.91318,0.597027l-0.570351,0.843635zm2.966548,-0.48866l-0.91318,-0.597533l0.570351,-0.843635l0.912665,0.597533l-0.569837,0.843635zm-1.825845,-1.194559l-0.91318,-0.597533l0.570351,-0.843635l0.912665,0.597533l-0.569837,0.843635zm-7.748131,-0.338264l-0.540495,-0.860853l0.933255,-0.565631l0.539981,0.860853l-0.932741,0.565631zm5.919712,-0.856801l-0.91318,-0.597533l0.570351,-0.843635l0.912665,0.597533l-0.569837,0.843635zm-4.05629,-0.275979l-0.539981,-0.860853l0.932741,-0.566644l0.540495,0.860853l-0.933255,0.566644zm2.22993,-0.919087l-0.344373,-0.225341l-0.019561,0.011647l-0.025738,-0.041523l-0.229582,-0.151915l0.070522,-0.101277l-0.355183,-0.56715l0.580647,-0.351937l0.894134,0.58538l-0.570866,0.842116z"/>
  </g>
 </g>
</svg>