<svg id="Layer_1" data-name="Layer 1" xmlns="http://www.w3.org/2000/svg" viewBox="0 0 400 140"><defs><style>.cls-1,.cls-14{fill:none;}.cls-1{stroke:#808285;stroke-linecap:round;stroke-linejoin:round;stroke-width:1.31px;stroke-dasharray:1.31 2.62;}.cls-2{fill:#58595b;}.cls-3{fill:#fff;}.cls-4{fill:gray;}.cls-5{fill:#2e2e2e;}.cls-6{fill:#1a1a1a;}.cls-7{fill:#333;}.cls-8{fill:#221f1f;}.cls-9{fill:#80bceb;}.cls-10{fill:#aad2f2;}.cls-11{fill:#767676;}.cls-12{fill:#515050;}.cls-13{fill:#414042;}.cls-15{fill:#231f20;}.cls-16{fill:#a7a9ac;}.cls-17{fill:#6d6e71;}</style></defs><title>net-docs-gaming-2</title><line class="cls-1" x1="151" y1="70" x2="321.17" y2="70"/><line class="cls-1" x1="152.26" y1="69" x2="248" y2="34"/><line class="cls-1" x1="151" y1="71" x2="212.74" y2="94"/><polygon class="cls-2" points="63.69 123.77 32.29 69.39 63.69 15 126.49 15 157.89 69.39 126.49 123.77 63.69 123.77"/><path class="cls-3" d="M98.6,59.54a15.1,15.1,0,0,0,3.38-.47,17.44,17.44,0,0,0,6.81-3.37,10,10,0,0,0,1-1,.81.81,0,0,0,.1-1.12,23.89,23.89,0,0,0-1.76-2.35,24.65,24.65,0,0,0-11.52-6.93c-.61-.18-1.22-.32-1.82-.54,1.07.13,2.14.22,3.2.4a29,29,0,0,1,11.44,4.37,17,17,0,0,1,4.22,3.74,9.22,9.22,0,0,1,.81,1.37,1,1,0,0,1-.1,1.12,16.32,16.32,0,0,1-1.53,1.81,22.19,22.19,0,0,1-11.67,5.83,21.81,21.81,0,0,1-8.43-.08,11.54,11.54,0,0,1-4.38-1.86,7.54,7.54,0,0,1-3.21-6.83,7.81,7.81,0,0,1,6.63-7.5,7.93,7.93,0,0,1,9,6.57,8.09,8.09,0,0,1-1.88,6.48Zm-1.18-5.62A4.48,4.48,0,1,0,93,58.39,4.46,4.46,0,0,0,97.42,53.92Z"/><path class="cls-3" d="M89.26,62.8a29.61,29.61,0,0,1-13.19-4,13.55,13.55,0,0,1-3.95-3.41c-.83-1.12-.83-1.6,0-2.72A17.46,17.46,0,0,1,76.23,49a29.43,29.43,0,0,1,13.32-5l.83-.08c-1.14.4-2.36.77-3.54,1.26a25.71,25.71,0,0,0-9.76,7,16,16,0,0,0-1,1.36.87.87,0,0,0,0,1,15.67,15.67,0,0,0,1.38,2,18,18,0,0,0,5.64,4,34.33,34.33,0,0,0,5.69,2.15Z"/><path class="cls-3" d="M90,86.62H89V76.68a6.6,6.6,0,0,1,.87,0,.6.6,0,0,1,.33.26l5.4,7.43.33.45V76.7h1v9.93a7.88,7.88,0,0,1-.89,0c-.11,0-.22-.14-.3-.24L90.37,79,90,78.48Z"/><path class="cls-3" d="M120.73,78.5v8.11h-1q0-5,0-9.87a1,1,0,0,1,1.35.42l5.29,7.29.26.35V76.71h1v9.92a6.6,6.6,0,0,1-.87,0c-.12,0-.24-.15-.32-.27L121,78.91Z"/><path class="cls-3" d="M109.42,82.21h-3.34c.24-.38.43-.7.64-1a.25.25,0,0,1,.19-.09h3.64a5,5,0,1,1-1.76-3.28l-.28.46-.28.43c-2-1.31-3.82-1.3-5.3,0a3.93,3.93,0,1,0,6.5,3.48Z"/><path class="cls-3" d="M58.89,76.68h.91a31,31,0,0,1,3.38.13,2.82,2.82,0,0,1,1.77,4.57,3,3,0,0,1-1.5.91L63,82.4l2.75,4.23c-.45,0-.84,0-1.23,0-.1,0-.2-.16-.27-.27-.76-1.21-1.52-2.41-2.27-3.63a.5.5,0,0,0-.51-.27c-.51,0-1,0-1.56,0v4.16H58.89ZM60,81.47h2.3a4.25,4.25,0,0,0,.63-.07,1.62,1.62,0,0,0,1.53-1.66c0-1.15-.38-1.83-1.41-2s-2-.12-3-.16Z"/><path class="cls-3" d="M55.35,84.22l.78.66a4.91,4.91,0,0,1-5,1.66A5,5,0,0,1,50.38,77,5,5,0,0,1,56,78.24l-.6.92a4,4,0,1,0-.05,5.07Z"/><path class="cls-3" d="M76.37,76.68,73.71,81c-1.08,1.74-2.17,3.47-3.23,5.21a.76.76,0,0,1-.85.47,3.6,3.6,0,0,0-.51,0l.22-.38c.7-1.14,1.39-2.28,2.11-3.41a.58.58,0,0,0,0-.72c-1-1.67-2-3.35-3-5l-.23-.4c.38,0,.71,0,1,0a.34.34,0,0,1,.22.16l2.82,4.69c.87-1.45,1.77-2.92,2.64-4.42a.71.71,0,0,1,.78-.44A5.12,5.12,0,0,0,76.37,76.68Z"/><path class="cls-3" d="M114.24,76.7h1v9.91h-1Z"/><path class="cls-3" d="M138.72,80.91v.94h-6.77v-.94Z"/><path class="cls-3" d="M85.25,80.9v.94H78.47V80.9Z"/><path class="cls-3" d="M85.26,85.7v.91H78.48V85.7Z"/><path class="cls-3" d="M131.93,86.6v-.9h6.78v.9Z"/><path class="cls-3" d="M131.94,77.61V76.7h6.77v.92Z"/><path class="cls-3" d="M85.24,76.72a1.32,1.32,0,0,1,0,.17c0,.23,0,.47,0,.73h-5.8c.19-.3.35-.58.53-.83a.35.35,0,0,1,.26-.1h4.91Z"/><path class="cls-3" d="M137.59,74.06a1.09,1.09,0,0,1-.8-.32,1.08,1.08,0,0,1-.32-.79,1,1,0,0,1,.32-.78,1.2,1.2,0,0,1,1.61,0,1,1,0,0,1,.31.79,1.07,1.07,0,0,1-.32.79A1.08,1.08,0,0,1,137.59,74.06Zm0-2a.88.88,0,0,0-.65.26.93.93,0,0,0,0,1.29.94.94,0,0,0,1.29,0,.93.93,0,0,0,0-1.29A.88.88,0,0,0,137.59,72.05Zm.58,1.55h-.38l-.11-.34q-.06-.18-.16-.18h-.09v.52h-.32V72.25h.47q.54,0,.54.39a.36.36,0,0,1-.32.36h0a.31.31,0,0,1,.21.22Zm-.74-1.09v.33h.14q.2,0,.2-.17t-.24-.16Z"/><polygon class="cls-4" points="336 125 219 125 226.32 117 329.15 117 336 125"/><polygon class="cls-5" points="325 123 230 123 233.34 118 321.76 118 325 123"/><path class="cls-6" d="M331.37,128H224.3c-4.95,0-5-2.91-5-2.91H336S336.58,128,331.37,128Z"/><polygon class="cls-7" points="287.65 111 267 111 269.06 96.55 285.58 96.55 285.73 97.58 287.65 111"/><polygon class="cls-6" points="287.65 111 277.32 111 277.32 97.58 285.73 97.58 287.65 111"/><rect class="cls-8" x="201" y="15" width="153" height="84" rx="4" ry="4"/><rect class="cls-9" x="205" y="19" width="145" height="76"/><path class="cls-5" d="M306.79,115H248.21a2.12,2.12,0,0,1-2.21-2s3.74-3,3.92-3h54.16c2.25,0,4.92,3,4.92,3A2.12,2.12,0,0,1,306.79,115Z"/><polygon class="cls-10" points="350 19 350 58 311 19 350 19"/><path d="M306.85,36.85C306.71,36.49,303,31,294,30c-.86-.1-2.49,1.33-3,1.57S287,35,287,35H273s-3.52-3.18-4-3.43-2.13-1.67-3-1.57c-9,1-12.71,6.49-12.85,6.85C252.91,37.46,250,43,250,43c1.8-1.12,20.09,2.21,30,5.69,9.91-3.48,28.2-6.81,30-5.69C310,43,307.09,37.46,306.85,36.85Z"/><path class="cls-11" d="M309.62,41.44a3.65,3.65,0,0,0-2.34-2.35C304.69,37.47,297.57,35,295,35s-3.51,2.81-5.37,5.28c-2.73,3.58-3.35,3.72-5.2,3.72H275.6c-1.85,0-2.47-.14-5.2-3.72C268.54,37.81,267.62,35,265,35s-9.72,2.47-12.31,4.08a3.65,3.65,0,0,0-2.34,2.35c-1,2.47-10.45,23.32-10.43,31.84,0,11.24,9.69,13.2,10.56,13.2s8.6-8.74,11.32-11.34S266.76,73,268.49,73h23c1.73,0,4-.45,6.67,2.15s10.58,11.34,11.32,11.34,10.53-2,10.56-13.2C320.07,64.76,310.6,43.91,309.62,41.44Z"/><path d="M278,62.48A7.5,7.5,0,1,1,270.48,55,7.47,7.47,0,0,1,278,62.48"/><path class="cls-12" d="M267.13,48.45a7.09,7.09,0,0,1-7.18,7.22,7.16,7.16,0,0,1-7.22-7.18,7.24,7.24,0,0,1,7.18-7.22,7.16,7.16,0,0,1,7.22,7.18"/><path class="cls-13" d="M301.93,53.21a2.4,2.4,0,1,1-2.36-2.35,2.41,2.41,0,0,1,2.36,2.35"/><path class="cls-13" d="M306.73,48.41a2.4,2.4,0,1,1-2.36-2.35,2.41,2.41,0,0,1,2.36,2.35"/><path class="cls-13" d="M297.13,48.41a2.4,2.4,0,1,1-2.36-2.35,2.41,2.41,0,0,1,2.36,2.35"/><path class="cls-13" d="M301.93,43.61a2.4,2.4,0,1,1-2.36-2.35,2.41,2.41,0,0,1,2.36,2.35"/><path d="M285.13,49.06a1.8,1.8,0,1,1-1.8-1.8,1.78,1.78,0,0,1,1.8,1.8"/><path d="M277.93,49.06a1.8,1.8,0,1,1-1.8-1.8,1.78,1.78,0,0,1,1.8,1.8"/><path d="M263.53,48.39a3.6,3.6,0,1,1-3.61-3.53A3.64,3.64,0,0,1,263.53,48.39Z"/><polygon class="cls-14" points="242.86 83.67 317 83.5 316.07 31.67 241.93 31.84 242.86 83.67"/><rect class="cls-12" x="265" y="61" width="11" height="3" transform="translate(208 333) rotate(-90)"/><rect class="cls-12" x="265" y="61" width="11" height="3" transform="translate(541 125) rotate(-180)"/><path class="cls-13" d="M298,62.5a7.5,7.5,0,1,1-7.5-7.5A7.49,7.49,0,0,1,298,62.5Z"/><path class="cls-15" d="M298,62.5a7.49,7.49,0,0,1-1.72,4.78L285.72,56.72A7.5,7.5,0,0,1,298,62.5Z"/><circle class="cls-16" cx="290.5" cy="62.5" r="5.5"/><circle class="cls-17" cx="290.5" cy="62.5" r="4.5"/><circle class="cls-13" cx="290.5" cy="62.5" r="3.5"/></svg>