<?xml version="1.0" encoding="UTF-8" standalone="no"?>
<svg
   xmlns:dc="http://purl.org/dc/elements/1.1/"
   xmlns:cc="http://creativecommons.org/ns#"
   xmlns:rdf="http://www.w3.org/1999/02/22-rdf-syntax-ns#"
   xmlns:svg="http://www.w3.org/2000/svg"
   xmlns="http://www.w3.org/2000/svg"
   xmlns:sodipodi="http://sodipodi.sourceforge.net/DTD/sodipodi-0.dtd"
   xmlns:inkscape="http://www.inkscape.org/namespaces/inkscape"
   id="ICONS"
   viewBox="0 0 400 140"
   version="1.1"
   sodipodi:docname="net-docs-desktop-2-framework.svg"
   inkscape:version="0.92.4 (5da689c313, 2019-01-14)">
  <metadata
     id="metadata5034">
    <rdf:RDF>
      <cc:Work
         rdf:about="">
        <dc:format>image/svg+xml</dc:format>
        <dc:type
           rdf:resource="http://purl.org/dc/dcmitype/StillImage" />
        <dc:title>net-docs-desktop-2</dc:title>
      </cc:Work>
    </rdf:RDF>
  </metadata>
  <sodipodi:namedview
     pagecolor="#ffffff"
     bordercolor="#666666"
     borderopacity="1"
     objecttolerance="10"
     gridtolerance="10"
     guidetolerance="10"
     inkscape:pageopacity="0"
     inkscape:pageshadow="2"
     inkscape:window-width="1920"
     inkscape:window-height="1027"
     id="namedview5032"
     showgrid="false"
     inkscape:zoom="2.0081833"
     inkscape:cx="122.42901"
     inkscape:cy="53.193319"
     inkscape:window-x="-8"
     inkscape:window-y="-8"
     inkscape:window-maximized="1"
     inkscape:current-layer="ICONS" />
  <defs
     id="defs4997">
    <style
       id="style4995">.cls-1{fill:gray;}.cls-2{fill:#2e2e2e;}.cls-3{fill:#1a1a1a;}.cls-4{fill:#333;}.cls-5{fill:#008272;}.cls-6{fill:#fff;}.cls-7{fill:#2b978a;}</style>
    <style
       id="style5036">.cls-1{fill:#5c2d91;}.cls-2,.cls-3{fill:#fff;}.cls-2{opacity:0.1;}.cls-4{fill:#f2f2f2;}</style>
  </defs>
  <title
     id="title4999">net-docs-desktop-2</title>
  <polygon
     class="cls-1"
     points="266.02 130.78 145.22 130.78 152.78 122.78 258.96 122.78 266.02 130.78"
     id="polygon5001" />
  <polygon
     class="cls-2"
     points="253.91 128.78 155.82 128.78 159.27 124.78 250.57 124.78 253.91 128.78"
     id="polygon5003" />
  <path
     class="cls-3"
     d="M261,133.78H150.42c-5.11,0-5.2-3-5.2-3H265.73S266.35,133.78,261,133.78Z"
     id="path5005" />
  <polygon
     class="cls-4"
     points="214.68 117.14 194.03 117.14 196.09 102.69 212.61 102.69 212.76 103.72 214.68 117.14"
     id="polygon5007" />
  <polygon
     class="cls-3"
     points="214.68 117.14 204.35 117.14 204.35 103.72 212.76 103.72 214.68 117.14"
     id="polygon5009" />
  <rect
     class="cls-4"
     x="125.22"
     y="17.78"
     width="158"
     height="87"
     rx="4"
     ry="4"
     id="rect5011" />
  <rect
     class="cls-5"
     x="130.22"
     y="22.78"
     width="148"
     height="77"
     id="rect5013" />
  <path
     class="cls-4"
     d="M235,120.78H174.5a2.16,2.16,0,0,1-2.28-2s3.86-3,4-3h55.92c2.33,0,5.08,3,5.08,3A2.16,2.16,0,0,1,235,120.78Z"
     id="path5015" />
  <path
     class="cls-6"
     d="M178.22,70.78h-6.3l-4.07-7.69a6.75,6.75,0,0,1-.48-1.58h-.07a12,12,0,0,1-.54,1.65l-4.08,7.62h-6.34L163.87,59,157,46.78h6.47l3.37,7.47a12.23,12.23,0,0,1,.71,2h.07q.2-.69.74-2.06l3.75-7.41H178l-7.08,12.1Z"
     id="path5017" />
  <path
     class="cls-6"
     d="M203.82,70.78H198l-1.68-6H188l-1.66,6h-5.76l8.59-24h6.3Zm-8.69-9-2.54-8.27a10.34,10.34,0,0,1-.4-2.12h-.13a9,9,0,0,1-.41,2.06l-2.57,8.33Z"
     id="path5019" />
  <path
     class="cls-6"
     d="M232.22,70.78h-5V56.65a22.07,22.07,0,0,1-.05-5.05H227a24.87,24.87,0,0,1-.74,3.13l-5.53,16h-4.35l-5.63-15.89A30.91,30.91,0,0,1,210,51.6h-.15q.21,3.49.21,6.12V70.78h-4.79v-24h7.79l4.82,14.39a19.7,19.7,0,0,1,.84,3.37h.1a34,34,0,0,1,.94-3.41l4.82-14.35h7.59Z"
     id="path5021" />
  <path
     class="cls-6"
     d="M251.22,70.78h-15v-24h6v19h9Z"
     id="path5023" />
  <polygon
     class="cls-7"
     points="278.22 22.78 278.22 76.78 224.22 22.78 278.22 22.78"
     id="polygon5025" />
  <path
     class="cls-6"
     d="M274.22,59.19l-14.7,7.06V63.15l10.77-4.79v-.1l-10.77-5.33V49.79l14.7,7.65Z"
     id="path5027" />
  <path
     class="cls-6"
     d="M148.92,66.36l-14.7-7.06V57.55l14.7-7.67V53l-10.75,5.33v.07l10.75,4.84Z"
     id="path5029" />
  <g
     id="g5093"
     transform="translate(66.946112,27.514597)">
    <circle
       id="circle5042"
       cy="32"
       cx="32"
       class="cls-1"
       style="fill:#5c2d91;stroke:#ffffff;stroke-opacity:1"
       r="32" />
    <path
       id="path5044"
       d="M 9.82,9 A 32,32 0 1 0 55,54.18 Z"
       class="cls-2"
       inkscape:connector-curvature="0"
       style="opacity:0.1;fill:#ffffff" />
    <path
       id="path5046"
       d="m 7.4,37.25 a 1.35,1.35 0 0 1 -1,-0.42 1.38,1.38 0 0 1 -0.41,-1 1.4,1.4 0 0 1 0.41,-1 1.34,1.34 0 0 1 1,-0.43 1.37,1.37 0 0 1 1,0.43 1.39,1.39 0 0 1 0.42,1 1.37,1.37 0 0 1 -0.42,1 1.38,1.38 0 0 1 -1,0.42 z"
       class="cls-3"
       inkscape:connector-curvature="0"
       style="fill:#ffffff" />
    <path
       id="path5048"
       d="M 27.27,37 H 24.65 L 15.28,22.46 A 6,6 0 0 1 14.7,21.32 h -0.08 a 18.72,18.72 0 0 1 0.1,2.5 V 37 H 12.59 V 18.77 h 2.77 l 9.12,14.28 q 0.57,0.89 0.74,1.22 h 0.05 A 19.28,19.28 0 0 1 25.14,31.59 V 18.77 h 2.13 z"
       class="cls-3"
       inkscape:connector-curvature="0"
       style="fill:#ffffff" />
    <path
       id="path5050"
       d="M 41.69,37 H 32 V 18.77 h 9.24 v 1.93 h -7.06 v 6.06 h 6.58 v 1.92 H 34.18 V 35 h 7.52 z"
       class="cls-3"
       inkscape:connector-curvature="0"
       style="fill:#ffffff" />
    <path
       id="path5052"
       d="M 56,20.7 H 50.71 V 37 H 48.57 V 20.7 H 43.33 V 18.77 H 56 Z"
       class="cls-3"
       inkscape:connector-curvature="0"
       style="fill:#ffffff" />
    <path
       id="path5054"
       d="M 9,41.19 V 44 h 2.59 v 0.44 H 9 V 47.7 H 8.51 v -7 h 3.27 v 0.44 z"
       class="cls-4"
       inkscape:connector-curvature="0"
       style="fill:#f2f2f2" />
    <path
       id="path5056"
       d="m 15.67,43.22 a 0.88,0.88 0 0 0 -0.53,-0.16 1.17,1.17 0 0 0 -1,0.61 3.15,3.15 0 0 0 -0.4,1.73 v 2.35 H 13.3 v -5 h 0.44 v 1.11 0 a 1.82,1.82 0 0 1 0.54,-0.89 1.28,1.28 0 0 1 0.86,-0.32 1.33,1.33 0 0 1 0.5,0.09 z"
       class="cls-4"
       inkscape:connector-curvature="0"
       style="fill:#f2f2f2" />
    <path
       id="path5058"
       d="m 19.85,47.75 v -1 0 a 2,2 0 0 1 -0.7,0.82 1.78,1.78 0 0 1 -1,0.31 1.56,1.56 0 0 1 -1.13,-0.4 1.34,1.34 0 0 1 -0.42,-1 q 0,-1.31 1.73,-1.58 l 1.54,-0.23 q 0,-1.61 -1.21,-1.61 A 2.47,2.47 0 0 0 17,43.7 v -0.54 a 2.46,2.46 0 0 1 0.75,-0.38 2.87,2.87 0 0 1 0.9,-0.16 1.51,1.51 0 0 1 1.19,0.48 2,2 0 0 1 0.42,1.39 v 3.25 z m -1.38,-2.49 a 2.4,2.4 0 0 0 -1.1,0.36 1.13,1.13 0 0 0 0,1.55 1.13,1.13 0 0 0 0.82,0.29 1.55,1.55 0 0 0 1.2,-0.53 2,2 0 0 0 0.48,-1.38 v -0.49 z"
       class="cls-4"
       inkscape:connector-curvature="0"
       style="fill:#f2f2f2" />
    <path
       id="path5060"
       d="m 28.32,47.75 v -3 a 2.22,2.22 0 0 0 -0.3,-1.32 1.11,1.11 0 0 0 -0.94,-0.38 1.3,1.3 0 0 0 -1,0.51 1.91,1.91 0 0 0 -0.43,1.27 v 2.93 H 25.2 v -3 q 0,-1.67 -1.27,-1.67 a 1.25,1.25 0 0 0 -1,0.51 2.06,2.06 0 0 0 -0.41,1.32 v 2.88 h -0.45 v -5 h 0.45 v 0.83 0 a 1.66,1.66 0 0 1 1.53,-1 1.43,1.43 0 0 1 0.94,0.32 1.54,1.54 0 0 1 0.52,0.83 1.92,1.92 0 0 1 0.67,-0.84 1.65,1.65 0 0 1 0.95,-0.3 q 1.64,0 1.64,2 v 3.09 z"
       class="cls-4"
       inkscape:connector-curvature="0"
       style="fill:#f2f2f2" />
    <path
       id="path5062"
       d="m 30.63,45.27 a 2.47,2.47 0 0 0 0.48,1.61 1.6,1.6 0 0 0 1.31,0.58 2.66,2.66 0 0 0 1.64,-0.62 v 0.48 a 2.92,2.92 0 0 1 -1.73,0.55 2,2 0 0 1 -1.56,-0.69 2.92,2.92 0 0 1 -0.6,-2 2.79,2.79 0 0 1 0.62,-1.84 2,2 0 0 1 1.62,-0.75 1.69,1.69 0 0 1 1.43,0.65 2.89,2.89 0 0 1 0.5,1.79 v 0.2 z m 3.23,-0.41 A 2.21,2.21 0 0 0 33.44,43.52 1.29,1.29 0 0 0 32.38,43 a 1.56,1.56 0 0 0 -1.16,0.47 2.26,2.26 0 0 0 -0.57,1.35 z"
       class="cls-4"
       inkscape:connector-curvature="0"
       style="fill:#f2f2f2" />
    <path
       id="path5064"
       d="M 40.06,47.75 H 39.64 L 38.55,44 a 3.11,3.11 0 0 1 -0.08,-0.42 v 0 a 2.51,2.51 0 0 1 -0.1,0.41 l -1.22,3.78 h -0.42 l -1.51,-5 h 0.5 l 1.16,4 a 2.44,2.44 0 0 1 0.07,0.42 v 0 a 2.13,2.13 0 0 1 0.09,-0.42 l 1.27,-4 h 0.31 l 1.13,4 a 2.83,2.83 0 0 1 0.07,0.42 v 0 a 1.63,1.63 0 0 1 0.08,-0.42 l 1.19,-4 h 0.46 z"
       class="cls-4"
       inkscape:connector-curvature="0"
       style="fill:#f2f2f2" />
    <path
       id="path5066"
       d="m 44.85,47.87 a 2.2,2.2 0 0 1 -1.73,-0.72 3.12,3.12 0 0 1 0,-3.82 2.31,2.31 0 0 1 1.75,-0.7 2.14,2.14 0 0 1 1.69,0.7 2.81,2.81 0 0 1 0.62,1.93 2.76,2.76 0 0 1 -0.63,1.89 2.18,2.18 0 0 1 -1.7,0.72 z m 0,-4.83 a 1.78,1.78 0 0 0 -1.41,0.6 2.42,2.42 0 0 0 -0.53,1.66 2.33,2.33 0 0 0 0.51,1.58 1.75,1.75 0 0 0 1.4,0.6 1.71,1.71 0 0 0 1.39,-0.59 3,3 0 0 0 0,-3.27 A 1.71,1.71 0 0 0 44.88,43 Z"
       class="cls-4"
       inkscape:connector-curvature="0"
       style="fill:#f2f2f2" />
    <path
       id="path5068"
       d="m 51.06,43.22 a 0.88,0.88 0 0 0 -0.53,-0.16 1.16,1.16 0 0 0 -1,0.61 3.15,3.15 0 0 0 -0.4,1.73 v 2.35 H 48.7 v -5 h 0.44 v 1.11 0 A 1.82,1.82 0 0 1 49.7,43 a 1.28,1.28 0 0 1 0.86,-0.32 1.33,1.33 0 0 1 0.5,0.09 z"
       class="cls-4"
       inkscape:connector-curvature="0"
       style="fill:#f2f2f2" />
    <path
       id="path5070"
       d="m 55.11,47.75 -2.39,-2.47 v 0 2.47 h -0.45 v -7.4 h 0.45 v 4.77 0 L 55,42.75 h 0.58 l -2.38,2.42 2.56,2.58 z"
       class="cls-4"
       inkscape:connector-curvature="0"
       style="fill:#f2f2f2" />
  </g>
</svg>
