<svg id="Layer_1" data-name="Layer 1" xmlns="http://www.w3.org/2000/svg" xmlns:xlink="http://www.w3.org/1999/xlink" viewBox="0 0 400 140"><defs><style>.cls-1,.cls-10,.cls-12,.cls-13,.cls-6,.cls-9{fill:none;}.cls-2{fill:gray;}.cls-3{fill:#2e2e2e;}.cls-4{fill:#1a1a1a;}.cls-5{fill:#333;}.cls-6{stroke:#80bceb;}.cls-12,.cls-13,.cls-6{stroke-miterlimit:10;}.cls-7{fill:#8ec3ed;}.cls-8{clip-path:url(#clip-path);}.cls-10,.cls-9{stroke:#fff;stroke-linecap:round;stroke-linejoin:round;stroke-width:2px;opacity:0.3;}.cls-11,.cls-12,.cls-9{fill-rule:evenodd;}.cls-11{fill:#0050c5;}.cls-12,.cls-13{stroke:#0050c5;stroke-width:0.72px;}</style><clipPath id="clip-path"><rect class="cls-1" x="130.17" y="17.59" width="148" height="80.85"/></clipPath></defs><title>net-docs-gaming-1</title><polygon class="cls-2" points="265.8 127 145 127 152.55 119 258.73 119 265.8 127"/><polygon class="cls-3" points="253.69 125 155.6 125 159.05 121 250.35 121 253.69 125"/><path class="cls-4" d="M260.75,130H150.2c-5.11,0-5.2-3-5.2-3H265.51S266.13,130,260.75,130Z"/><polygon class="cls-5" points="214.46 113.36 193.81 113.36 195.87 98.91 212.39 98.91 212.53 99.94 214.46 113.36"/><polygon class="cls-4" points="214.46 113.36 204.13 113.36 204.13 99.94 212.53 99.94 214.46 113.36"/><path class="cls-6" d="M55.18,88.63a2.69,2.69,0,0,0,2.52,1.85l5.65-.18a2.89,2.89,0,0,0,2.31-2.94l.24-8C66,76.79,73,72.61,75.13,74L83,79a3.28,3.28,0,0,0,3.05-.3l4.12-4.59c.45-.41.53-2.15-.71-3.51l-5-5.43c-1.65-1.81-1.16-3.09-.67-4.37a19.64,19.64,0,0,0,1-3.43c.08-1.73,1-3.43,4.08-3.72l6.56-1a3.43,3.43,0,0,0,2.3-2.93l-.59-6.11c0-.87-.85-1.53-2.52-1.85l-6.93-.32c-2.6-.12-5.65-4.85-6.24-5.92-.73-1.32-.75-2.64.24-5.2l4.16-5.45A3.13,3.13,0,0,0,85.63,21L81,17.75a2.64,2.64,0,0,0-3.47-.16l-5,5.42a4.42,4.42,0,0,1-4.82,1.09l-3.84-1.48A4.56,4.56,0,0,1,60.55,19l-1-7.42a2.69,2.69,0,0,0-2.52-1.85L51,10.31c-.87,0-1.67.84-1.85,2.52l-.78,7.35c-.23,4-4.25,5.2-5.48,5.83a4.4,4.4,0,0,1-5.2-.24l-5.87-4.6a3.37,3.37,0,0,0-3.5.71l-4.12,4.59a3.12,3.12,0,0,0,.71,3.5l5,5.43c1.65,1.81,1,3.24.05,8.25-.24,1.35-1,2.56-4,2.85l-7,1.42A2.7,2.7,0,0,0,17,50.45l.59,6.1a2.76,2.76,0,0,0,2.07,2.26l7.38-.1c2.6.12,3.42,1,3.8,2.34.79,1.77,1.51,2.71,2,4,.57,1.54,1.16,3.09.21,4.79L28.43,75.7a3.36,3.36,0,0,0,.7,3.5l4.17,3.66a2.64,2.64,0,0,0,3.47.16l5-5.42a4.42,4.42,0,0,1,4.82-1.09c1.28.49,2.57,1,3.84,1.48,1.76.7,2.56,1,3.3,3.62l1.41,7m17-39.6A15.25,15.25,0,0,1,58.44,64.91c-8.29.93-15.4-5-15.86-13.74a14.56,14.56,0,0,1,13.3-15.46A14.75,14.75,0,0,1,72.19,49"/><path class="cls-6" d="M95.55,119.07a1.35,1.35,0,0,0,1.26.93l2.82-.09a1.45,1.45,0,0,0,1.15-1.47l.16-3.46a2,2,0,0,1,1.4-2.11c.45-.41,1.11-.6,1.57-1a2.43,2.43,0,0,1,2.37.32l3.16,2.1a1.64,1.64,0,0,0,1.53-.15l2.06-2.29a1.5,1.5,0,0,0-.35-1.75l-2.48-2.72a1.76,1.76,0,0,1-.34-2.19l-.21-.23a2.35,2.35,0,0,0,.72-1.49c0-.87.51-1.71,2-1.86l3.28-.51a1.72,1.72,0,0,0,1.15-1.47l-.29-3.05a1.06,1.06,0,0,0-1.26-.92l-3.47-.16a2.07,2.07,0,0,1-2.11-1.4c-.41-.45-.6-1.11-1-1.56a3.47,3.47,0,0,1,.12-2.6l2.08-2.73a1.57,1.57,0,0,0-.13-2l-2.31-1.62a1.32,1.32,0,0,0-1.73-.08l-2.51,2.71a2.21,2.21,0,0,1-2.41.54,6.71,6.71,0,0,0-1.71-.51l-.21-.23a2.28,2.28,0,0,1-1.65-1.81l-.48-3.71a1.34,1.34,0,0,0-1.26-.92l-3.05.3a1.07,1.07,0,0,0-.92,1.26l-.39,3.67c-.06,1.3-.51,1.71-1.17,1.9-.45.41-1.11.6-1.57,1a2.28,2.28,0,0,1-2.6-.12l-2.93-2.3a1.69,1.69,0,0,0-1.75.35L80,88a1.91,1.91,0,0,0,.36,1.75l2.48,2.72c.83.91,1,1.57.33,2.19,0,.43-.27,1.07-.31,1.94-.25.64-.49,1.28-2,1.43l-3.5.71a1.35,1.35,0,0,0-.93,1.26l.29,3.05a1.38,1.38,0,0,0,1,1.13l3.69,0c1.3.06,1.71.51,1.9,1.17a19.38,19.38,0,0,1,1,2,1.94,1.94,0,0,1,.11,2.39l-2.3,2.93a1.68,1.68,0,0,0,.35,1.75l2.09,1.83a1.32,1.32,0,0,0,1.73.08l2.51-2.71a2.21,2.21,0,0,1,2.41-.54l1.92.74c.87,0,1.28.49,1.65,1.81l.71,3.5m8.51-19.8a7.63,7.63,0,0,1-6.88,7.94,7.08,7.08,0,0,1-7.93-6.87,7.28,7.28,0,0,1,6.65-7.73,7.37,7.37,0,0,1,8.16,6.66"/><rect class="cls-5" x="125" y="14" width="158" height="87" rx="4" ry="4"/><rect class="cls-7" x="130" y="19" width="148" height="77"/><g class="cls-8"><polyline class="cls-9" points="157 96 157 52 177.95 52"/><polyline class="cls-9" points="228 20 228 40 208 40 208 61 180 61 180 85 142 84.96 142 95"/><path class="cls-9" d="M129,76h15V59c0-7.52,2.84-17,16-17h26c8.6,0,17.94-5.48,17.94-14.89V22"/><line class="cls-10" x1="177" y1="41.29" x2="177" y2="20"/><polyline class="cls-9" points="159 42 159 28 141.27 28"/><path class="cls-9" d="M194.09,84.74C194.09,76.15,196,71,211,71h58V24l12.66,0"/><polyline class="cls-9" points="214 95 214 82 230 82 230 51 283 50.9"/><path class="cls-9" d="M277,91H266c-10.21,0-18-3.64-18-16V30"/></g><path class="cls-11" d="M189.75,95.87l.16-1a8.92,8.92,0,0,0-1.68-8.35l2.13-13.1a3.06,3.06,0,0,0-5.84-1.8L179.58,83.5a8.93,8.93,0,0,0-6.75,6.12l-2.6,6.25Z"/><path class="cls-12" d="M185.8,48.41a9.34,9.34,0,1,0,11.68-6.18A9.34,9.34,0,0,0,185.8,48.41Z"/><line class="cls-13" x1="183.03" y1="47.56" x2="188.37" y2="49.2"/><line class="cls-13" x1="200.97" y1="53.09" x2="206.31" y2="54.73"/><line class="cls-13" x1="196.53" y1="44.8" x2="198.17" y2="39.46"/><line class="cls-13" x1="193.71" y1="53.93" x2="195.36" y2="48.59"/><line class="cls-13" x1="189.76" y1="66.73" x2="193.11" y2="55.87"/><line class="cls-13" x1="191.95" y1="50.3" x2="197.28" y2="51.95"/><path class="cls-5" d="M234.77,117H174.28a2.16,2.16,0,0,1-2.28-2s3.86-3,4-3H232c2.33,0,5.08,3,5.08,3A2.16,2.16,0,0,1,234.77,117Z"/><path class="cls-6" d="M333.18,108.63a2.69,2.69,0,0,0,2.52,1.85l5.65-.18a2.89,2.89,0,0,0,2.31-2.94l.24-8c.12-2.6,7.14-6.78,9.25-5.39L361,99a3.28,3.28,0,0,0,3.05-.3l4.12-4.59c.45-.41.53-2.15-.71-3.51l-5-5.43c-1.65-1.81-1.16-3.09-.67-4.37a19.64,19.64,0,0,0,1-3.43c.08-1.73,1-3.43,4.08-3.72l6.56-1a3.43,3.43,0,0,0,2.3-2.93l-.59-6.11c0-.87-.85-1.53-2.52-1.85l-6.93-.32c-2.6-.12-5.65-4.85-6.24-5.92-.73-1.32-.75-2.64.24-5.2l4.16-5.45a3.13,3.13,0,0,0-.25-3.92L359,37.75a2.64,2.64,0,0,0-3.47-.16l-5,5.42a4.42,4.42,0,0,1-4.82,1.09l-3.84-1.48a4.56,4.56,0,0,1-3.3-3.62l-1-7.42a2.69,2.69,0,0,0-2.52-1.85l-6.11.59c-.87,0-1.67.84-1.85,2.52l-.78,7.35c-.23,4-4.25,5.2-5.48,5.83a4.4,4.4,0,0,1-5.2-.24l-5.87-4.6a3.37,3.37,0,0,0-3.5.71l-4.12,4.59a3.12,3.12,0,0,0,.71,3.5l5,5.43c1.65,1.81,1,3.24.05,8.25-.24,1.35-1,2.56-4,2.85l-7,1.42A2.7,2.7,0,0,0,295,70.45l.59,6.1a2.76,2.76,0,0,0,2.07,2.26l7.38-.1c2.6.12,3.42,1,3.8,2.34.79,1.77,1.51,2.71,2,4,.57,1.54,1.16,3.09.21,4.79l-4.61,5.87a3.36,3.36,0,0,0,.7,3.5l4.17,3.66a2.64,2.64,0,0,0,3.47.16l5-5.42a4.42,4.42,0,0,1,4.82-1.09c1.28.49,2.57,1,3.84,1.48,1.76.7,2.56,1,3.3,3.62l1.41,7m17-39.6a15.25,15.25,0,0,1-13.75,15.87c-8.29.93-15.4-5-15.86-13.74a14.56,14.56,0,0,1,13.3-15.46A14.75,14.75,0,0,1,350.19,69"/></svg>