<?xml version="1.0" encoding="utf-8"?>
<!-- Generator: Adobe Illustrator 21.0.0, SVG Export Plug-In . SVG Version: 6.00 Build 0)  -->
<svg version="1.1" id="Layer_1" xmlns="http://www.w3.org/2000/svg" xmlns:xlink="http://www.w3.org/1999/xlink" x="0px" y="0px"
	 width="80px" height="80px" viewBox="0 0 80 80" enable-background="new 0 0 80 80" xml:space="preserve">
<g>
	<g>
		<circle fill="#633BA3" cx="40" cy="40" r="35"/>
		<path fill="#5C2D91" d="M15.735,14.79C9.122,21.157,5,30.094,5,40c0,19.33,15.67,35,35,35c9.906,0,18.843-4.122,25.21-10.735
			L15.735,14.79z"/>
		<g display="none">
			<path display="inline" fill="#FFFFFF" d="M28.978,51.106L16.055,32.419c-0.162-0.238-0.322-0.482-0.479-0.731
				c-0.157-0.249-0.284-0.492-0.382-0.731h-0.081c0.021,0.195,0.041,0.466,0.057,0.812c0.016,0.346,0.024,0.779,0.024,1.299v18.037
				h-2.159V27.825h2.387l12.712,18.46c0.195,0.292,0.37,0.566,0.528,0.819c0.156,0.255,0.3,0.49,0.43,0.707h0.081
				c-0.044-0.357-0.076-0.757-0.097-1.201c-0.022-0.443-0.032-0.937-0.032-1.477V27.825h2.176v23.281H28.978z"/>
			<path display="inline" fill="#FFFFFF" d="M37.258,51.106V27.825h11.349v1.981h-9.19v8.54h8.508v1.948h-8.508v8.848h9.709v1.964
				H37.258z"/>
			<path display="inline" fill="#FFFFFF" d="M60.701,29.805v21.301h-2.159V29.805h-6.705v-1.981h15.586v1.981H60.701z"/>
		</g>
	</g>
	<g>
		<path fill="#FFFFFF" d="M13.39,51.182c-0.41,0-0.759-0.144-1.046-0.431s-0.431-0.636-0.431-1.046c0-0.42,0.141-0.774,0.423-1.061
			s0.633-0.431,1.054-0.431c0.205,0,0.397,0.038,0.577,0.115s0.336,0.179,0.469,0.308s0.241,0.285,0.323,0.469
			s0.123,0.385,0.123,0.6c0,0.205-0.041,0.397-0.123,0.577s-0.19,0.336-0.323,0.469s-0.29,0.238-0.469,0.315
			S13.595,51.182,13.39,51.182z"/>
		<path fill="#FFFFFF" d="M33.24,50.874L20.997,33.171c-0.154-0.226-0.305-0.456-0.454-0.692s-0.269-0.467-0.361-0.692h-0.077
			c0.021,0.185,0.038,0.441,0.054,0.769s0.023,0.738,0.023,1.23v17.088h-2.046V28.818h2.261l12.043,17.488
			c0.185,0.277,0.351,0.536,0.5,0.777s0.285,0.464,0.408,0.669h0.077c-0.041-0.338-0.072-0.718-0.092-1.138s-0.031-0.887-0.031-1.4
			V28.818h2.061v22.056H33.24z"/>
		<path fill="#FFFFFF" d="M39.509,50.874V28.818h10.751v1.876h-8.706v8.09h8.06v1.846h-8.06v8.383h9.198v1.861H39.509z"/>
		<path fill="#FFFFFF" d="M61.719,30.695v20.18h-2.046v-20.18h-6.352v-1.876h14.766v1.876H61.719z"/>
	</g>
</g>
</svg>
