<?xml version="1.0" encoding="utf-8"?>
<!-- Generator: Adobe Illustrator 20.1.0, SVG Export Plug-In . SVG Version: 6.00 Build 0)  -->
<svg version="1.1" id="Layer_1" xmlns="http://www.w3.org/2000/svg" xmlns:xlink="http://www.w3.org/1999/xlink" x="0px" y="0px"
	 viewBox="0 0 200 144" style="enable-background:new 0 0 200 144;" xml:space="preserve">
<style type="text/css">
	.st0{opacity:0.3;fill:#FFB900;}
	.st1{clip-path:url(#SVGID_2_);}
	.st2{fill:#A8DCEB;}
	.st3{fill:#2F75BB;}
	.st4{fill:#549DD5;}
	.st5{fill:#5E5E5E;}
	.st6{fill:#2E2E2E;}
	.st7{fill:#221F1F;}
	.st8{fill:#FFFFFF;}
	.st9{fill:#5E615F;}
	.st10{fill:#ACACAC;}
	.st11{fill:none;stroke:#767676;stroke-width:0.199;stroke-miterlimit:10;}
	.st12{opacity:0.3;fill:#00B294;}
	.st13{fill:#0582AD;}
	.st14{fill:#109FC6;}
	.st15{fill:none;stroke:#231F20;stroke-width:6;stroke-miterlimit:10;}
	.st16{opacity:0.3;fill:#00BCF2;}
	.st17{fill:#6DA0B5;}
	.st18{fill:#7CABC2;}
	.st19{opacity:0.3;fill:#BAD80A;}
	.st20{fill:#A5A7AA;}
	.st21{fill:#B4A0FF;}
	.st22{fill:#B7ACF9;}
	.st23{fill:#3498DB;}
	.st24{fill:#505050;}
</style>
<rect x="0" y="0.183" class="st19" width="200" height="144"/>
<rect x="38" y="71.67" class="st8" width="49" height="54"/>
<g>
	<g>
		<path class="st6" d="M186.629,134.127H13.371c-1.14,0-2.065-0.924-2.065-2.065V13.938c0-1.14,0.924-2.065,2.065-2.065h173.258
			c1.14,0,2.065,0.924,2.065,2.065v118.124C188.694,133.202,187.769,134.127,186.629,134.127z"/>
		<rect x="21.764" y="20.702" class="st20" width="156.661" height="104.27"/>
		<rect x="21.764" y="20.702" class="st21" width="156.661" height="104.27"/>
		<polygon class="st20" points="181.764,74.712 185.873,75.226 185.873,71.031 181.764,71.545 		"/>
		<polygon class="st22" points="178.586,98.07 178.586,20.708 94.091,20.708 		"/>
	</g>
	<g>
		<g>
			<rect x="56.683" y="60.617" class="st8" width="42.479" height="47.925"/>
			<path class="st23" d="M117.563,79.136c-1.382-2.073-14.513-24.879-16.125-27.643s-3.916-3.686-6.911-3.686
				c-0.756,0-2.409,0-4.585,0c-6.027,0-17.074,0-23.518,0c-2.176,0-3.829,0-4.585,0c-2.995,0-5.298,0.921-6.911,3.686
				s-14.743,25.57-16.125,27.643s-1.382,4.607,0.921,8.754c2.304,4.146,13.822,24.418,15.204,26.952
				c1.382,2.534,3.455,4.031,6.911,4.031c0.771,0,2.584,0,4.931,0c8.166,0,22.827,0,22.827,0c2.347,0,4.159,0,4.931,0
				c3.455,0,5.529-1.497,6.911-4.031c1.382-2.534,12.9-22.806,15.204-26.952C118.945,83.744,118.945,81.21,117.563,79.136z
				 M96.11,101.827h-7.602L78.226,83.995l-10.283,17.831h-7.602L70.707,83.34L60.341,64.854h7.717l10.168,17.824l10.168-17.824
				h7.717L85.744,83.34L96.11,101.827z"/>
		</g>
		<g>
			<polygon class="st24" points="119.675,78.438 103.922,51.152 119.675,23.867 151.182,23.867 166.935,51.152 151.182,78.438 			
				"/>
		</g>
		<g>
			<path class="st8" d="M123.506,45.415c-0.225,0-0.42-0.079-0.584-0.237c-0.164-0.158-0.246-0.359-0.246-0.602
				c0-0.237,0.082-0.433,0.246-0.588c0.164-0.155,0.359-0.233,0.584-0.233c0.115,0,0.225,0.02,0.328,0.059
				c0.104,0.04,0.193,0.096,0.269,0.169c0.076,0.073,0.137,0.16,0.182,0.26c0.046,0.1,0.068,0.211,0.068,0.333
				c0,0.115-0.021,0.225-0.064,0.328c-0.042,0.104-0.104,0.193-0.182,0.269c-0.079,0.076-0.169,0.136-0.269,0.178
				C123.738,45.394,123.627,45.415,123.506,45.415z M122.931,57.119v-9.341h1.168v9.341H122.931z"/>
			<path class="st8" d="M132.628,57.347c-0.943,0-1.791-0.172-2.545-0.515c-0.754-0.343-1.394-0.813-1.92-1.409
				c-0.526-0.596-0.93-1.297-1.213-2.103c-0.283-0.806-0.424-1.671-0.424-2.595c0-1.022,0.141-1.957,0.424-2.805
				c0.283-0.848,0.695-1.575,1.236-2.18s1.204-1.076,1.989-1.414c0.785-0.338,1.679-0.506,2.682-0.506
				c0.925,0,1.755,0.166,2.49,0.497c0.736,0.332,1.362,0.79,1.879,1.377c0.517,0.587,0.914,1.282,1.19,2.084
				c0.277,0.803,0.415,1.675,0.415,2.618c0,0.991-0.136,1.911-0.406,2.76c-0.27,0.848-0.669,1.583-1.195,2.203
				c-0.526,0.62-1.174,1.107-1.943,1.46C134.518,57.171,133.631,57.347,132.628,57.347z M132.728,44.923
				c-0.79,0-1.492,0.151-2.103,0.452c-0.611,0.301-1.127,0.708-1.546,1.222s-0.738,1.116-0.953,1.806
				c-0.216,0.69-0.327,1.424-0.333,2.203c-0.006,0.742,0.09,1.452,0.287,2.13s0.496,1.277,0.894,1.797
				c0.398,0.52,0.902,0.935,1.51,1.245s1.319,0.465,2.135,0.465c0.815,0,1.531-0.141,2.148-0.424
				c0.617-0.283,1.132-0.675,1.546-1.177c0.414-0.502,0.725-1.099,0.935-1.793c0.21-0.693,0.315-1.45,0.315-2.271
				c0-0.766-0.093-1.493-0.278-2.18c-0.186-0.687-0.474-1.288-0.867-1.802c-0.392-0.514-0.893-0.921-1.501-1.222
				C134.31,45.073,133.58,44.923,132.728,44.923z"/>
			<path class="st8" d="M140.938,55.203c0.219,0.164,0.461,0.311,0.725,0.442c0.265,0.131,0.535,0.24,0.812,0.328
				s0.555,0.155,0.835,0.201s0.547,0.068,0.803,0.068c0.991,0,1.733-0.192,2.226-0.575c0.493-0.383,0.739-0.934,0.739-1.651
				c0-0.347-0.058-0.649-0.173-0.908c-0.115-0.259-0.295-0.5-0.538-0.725s-0.551-0.448-0.921-0.67
				c-0.371-0.222-0.809-0.473-1.314-0.753c-0.56-0.304-1.039-0.592-1.437-0.862c-0.398-0.27-0.724-0.547-0.976-0.83
				c-0.252-0.283-0.438-0.588-0.556-0.917c-0.119-0.328-0.178-0.702-0.178-1.122c0-0.529,0.113-1.003,0.338-1.423
				s0.529-0.777,0.912-1.072c0.383-0.295,0.831-0.521,1.346-0.68c0.514-0.158,1.063-0.237,1.647-0.237
				c1.028,0,1.888,0.143,2.582,0.429v1.341c-0.772-0.444-1.679-0.666-2.718-0.666c-0.389,0-0.756,0.047-1.099,0.141
				c-0.343,0.094-0.644,0.233-0.903,0.415c-0.259,0.182-0.462,0.409-0.611,0.68s-0.223,0.585-0.223,0.944
				c0,0.341,0.05,0.634,0.151,0.88c0.1,0.246,0.261,0.479,0.483,0.698s0.514,0.437,0.876,0.652c0.362,0.216,0.804,0.464,1.327,0.743
				c0.547,0.292,1.025,0.576,1.432,0.853c0.407,0.277,0.747,0.566,1.017,0.867c0.27,0.301,0.473,0.62,0.607,0.958
				c0.134,0.338,0.201,0.713,0.201,1.127c0,0.571-0.106,1.075-0.319,1.51c-0.213,0.435-0.511,0.795-0.894,1.081
				c-0.383,0.286-0.839,0.502-1.368,0.648s-1.11,0.219-1.742,0.219c-0.207,0-0.453-0.017-0.739-0.05
				c-0.286-0.033-0.575-0.082-0.867-0.146s-0.57-0.14-0.835-0.228c-0.265-0.088-0.479-0.184-0.643-0.287V55.203z"/>
		</g>
	</g>
</g>
</svg>
