<?xml version="1.0" encoding="utf-8"?>
<!-- Generator: Adobe Illustrator 20.1.0, SVG Export Plug-In . SVG Version: 6.00 Build 0)  -->
<svg version="1.1" id="Layer_1" xmlns="http://www.w3.org/2000/svg" xmlns:xlink="http://www.w3.org/1999/xlink" x="0px" y="0px"
	 viewBox="0 0 200 144" style="enable-background:new 0 0 200 144;" xml:space="preserve">
<style type="text/css">
	.st0{opacity:0.3;fill:#00BCF2;}
	.st1{fill:#505050;}
	.st2{fill:#FFFFFF;}
	.st3{fill:#3498DB;}
	.st4{opacity:0.3;fill:#FFF100;}
	.st5{fill:#A4CA39;}
	.st6{opacity:0.3;fill:#B4A0FF;}
	.st7{clip-path:url(#SVGID_4_);}
	.st8{fill:#2E2E2E;}
	.st9{fill:#E3E3E3;}
	.st10{fill:#ADADAD;}
	.st11{fill:#96BCCE;}
	.st12{fill:#619BB5;}
	.st13{fill:#447995;}
	.st14{fill:#767576;}
	.st15{fill:#90908F;}
	.st16{fill:#2F75BB;}
	.st17{fill:none;stroke:#757575;stroke-width:0.5847;stroke-miterlimit:10;}
	.st18{fill:#ACACAC;}
	.st19{fill:#428ECC;}
	.st20{fill:#B0CDDA;}
</style>
<rect y="-0.3" class="st0" width="200" height="144.3"/>
<g>
	<defs>
		<rect id="SVGID_1_" y="6.5" width="200" height="140"/>
	</defs>
	<clipPath id="SVGID_2_">
		<use xlink:href="#SVGID_1_"  style="overflow:visible;"/>
	</clipPath>
</g>
<g>
	<g>
		<g>
			<polygon class="st1" points="114.3,87.9 93.1,51.2 114.3,14.5 156.7,14.5 177.9,51.2 156.7,87.9 			"/>
		</g>
		<path class="st2" d="M154.2,62.7c-0.7,1.6-1.5,3.1-2.5,4.5c-1.3,1.9-2.4,3.2-3.2,3.9c-1.3,1.2-2.7,1.8-4.1,1.8
			c-1.1,0-2.3-0.3-3.8-0.9c-1.5-0.6-2.9-0.9-4.1-0.9c-1.3,0-2.7,0.3-4.2,0.9c-1.5,0.6-2.7,0.9-3.7,1c-1.4,0.1-2.8-0.6-4.2-1.9
			c-0.9-0.8-2-2.1-3.4-4c-1.4-2-2.6-4.4-3.6-7.1c-1-2.9-1.5-5.7-1.5-8.4c0-3.1,0.7-5.8,2-8c1.1-1.8,2.5-3.2,4.2-4.3
			c1.8-1,3.7-1.6,5.7-1.6c1.1,0,2.6,0.3,4.4,1c1.8,0.7,3,1,3.5,1c0.4,0,1.7-0.4,3.9-1.2c2.1-0.8,3.8-1.1,5.3-0.9
			c3.9,0.3,6.8,1.9,8.8,4.6c-3.5,2.1-5.2,5.1-5.2,8.9c0,3,1.1,5.4,3.2,7.4c1,0.9,2,1.6,3.2,2.1C154.8,61.3,154.5,62,154.2,62.7
			L154.2,62.7z M145.3,27.4c0,2.3-0.8,4.5-2.5,6.5c-2,2.4-4.5,3.8-7.2,3.5c0-0.3-0.1-0.6-0.1-0.9c0-2.2,1-4.6,2.7-6.6
			c0.9-1,2-1.8,3.3-2.5c1.3-0.6,2.6-1,3.8-1.1C145.3,26.8,145.3,27.1,145.3,27.4L145.3,27.4z"/>
	</g>
	<g>
		<rect x="42.8" y="65.5" class="st2" width="46.7" height="52.6"/>
		<path class="st3" d="M109.7,85.9c-1.5-2.3-15.9-27.3-17.7-30.4c-1.8-3-4.3-4-7.6-4c-0.8,0-2.6,0-5,0c-6.6,0-18.8,0-25.8,0
			c-2.4,0-4.2,0-5,0c-3.3,0-5.8,1-7.6,4c-1.8,3-16.2,28.1-17.7,30.4c-1.5,2.3-1.5,5.1,1,9.6s15.2,26.8,16.7,29.6
			c1.5,2.8,3.8,4.4,7.6,4.4c0.8,0,2.8,0,5.4,0c9,0,25.1,0,25.1,0c2.6,0,4.6,0,5.4,0c3.8,0,6.1-1.6,7.6-4.4
			c1.5-2.8,14.2-25.1,16.7-29.6S111.2,88.1,109.7,85.9z M86.1,110.8h-8.4L66.5,91.2l-11.3,19.6h-8.4l11.4-20.3L46.8,70.2h8.5
			l11.2,19.6l11.2-19.6h8.5L74.7,90.5L86.1,110.8z"/>
	</g>
</g>
</svg>
