<?xml version="1.0" encoding="utf-8"?>
<!-- Generator: Adobe Illustrator 20.1.0, SVG Export Plug-In . SVG Version: 6.00 Build 0)  -->
<svg version="1.1" xmlns="http://www.w3.org/2000/svg" xmlns:xlink="http://www.w3.org/1999/xlink" x="0px" y="0px"
	 viewBox="0 0 200 144" style="enable-background:new 0 0 200 144;" xml:space="preserve">
<style type="text/css">
	.st0{opacity:0.3;fill:#BAD80A;}
	.st1{fill:#BAD80A;}
	.st2{fill:#757575;}
	.st3{fill:#682A7A;}
	.st4{fill:#2E2E2E;}
	.st5{fill:#478AA9;}
	.st6{fill:#672A79;}
	.st7{fill:#334D63;}
	.st8{fill:#5D5F5E;}
	.st9{fill:#4889A8;}
	.st10{fill:#929090;}
	.st11{fill:#FAB516;}
	.st12{fill:#F5891F;}
	.st13{fill:#CB6D29;}
	.st14{fill:#96BBCD;}
	.st15{fill:#3A5C71;}
	.st16{opacity:0.3;fill:#008272;}
	.st17{clip-path:url(#SVGID_2_);}
	.st18{fill:#231F20;}
	.st19{fill:#5D605F;}
	.st20{fill:#ACACAC;}
	.st21{fill:#5D5D5D;}
	.st22{clip-path:url(#SVGID_4_);}
	.st23{fill:#474748;}
	.st24{fill:#929497;}
	.st25{fill:#1772B8;}
	.st26{fill:#767778;}
	.st27{fill:#A86527;}
	.st28{fill:#048273;}
	.st29{clip-path:url(#SVGID_6_);}
	.st30{fill:#C7C7C7;}
	.st31{fill:#909090;}
	.st32{opacity:0.3;fill:#B4A0FF;}
	.st33{fill:#344D63;}
	.st34{fill:#00BCF2;}
	.st35{opacity:0.3;fill:#00BCF2;}
	.st36{fill:#505050;}
	.st37{fill:#007ACC;}
	.st38{fill:#FFFFFF;}
	.st39{opacity:0.3;fill:#FFD565;}
	.st40{fill:#804998;}
	.st41{opacity:0.2;fill:#FFFFFF;enable-background:new    ;}
	.st42{fill:#70469E;}
	.st43{fill:#5C2D91;}
	.st44{fill:none;}
	.st45{font-family:'MyriadPro-Regular';}
	.st46{font-size:12px;}
</style>
<g id="Layer_1">
	<rect class="st35" width="200" height="144"/>
	<g>
		<circle class="st42" cx="99.3" cy="71.5" r="60.7"/>
		<path class="st43" d="M57.2,27.8c-11.5,11-18.6,26.5-18.6,43.7c0,33.5,27.2,60.7,60.7,60.7c17.2,0,32.7-7.1,43.7-18.6L57.2,27.8z"
			/>
	</g>
	<g>
		<g>
			<path class="st38" d="M66.5,91.9l-4.3,11.7h-1.5l-4.3-11.7h1.5l3.3,9.3c0.1,0.3,0.2,0.7,0.2,1h0c0.1-0.4,0.1-0.7,0.3-1l3.3-9.3
				H66.5z"/>
			<path class="st38" d="M75.7,101.4c0,0.7-0.3,1.3-0.8,1.8c-0.6,0.5-1.4,0.7-2.2,0.7c-0.7,0-1.4-0.1-2.1-0.5v-1.4
				c0.6,0.5,1.4,0.8,2.2,0.8c1.1,0,1.6-0.4,1.6-1.2c0-0.3-0.1-0.6-0.3-0.8c-0.4-0.3-0.9-0.6-1.4-0.8c-0.6-0.2-1.1-0.6-1.6-1
				c-0.3-0.4-0.5-0.9-0.5-1.5c0-0.7,0.3-1.3,0.8-1.7c0.6-0.5,1.4-0.7,2.1-0.7c0.6,0,1.2,0.1,1.8,0.4v1.4c-0.6-0.4-1.2-0.6-1.9-0.6
				c-0.4,0-0.8,0.1-1.1,0.3c-0.3,0.2-0.4,0.5-0.4,0.8c0,0.3,0.1,0.6,0.3,0.9c0.4,0.3,0.8,0.5,1.3,0.7c0.6,0.2,1.2,0.6,1.6,1.1
				C75.5,100.4,75.7,100.9,75.7,101.4z"/>
			<path class="st38" d="M83.9,103.6h-1.4v-1.3l0,0c-0.5,1-1.5,1.6-2.6,1.5c-2,0-3-1.2-3-3.6v-5h1.3v4.8c0,1.8,0.7,2.6,2,2.6
				c0.6,0,1.2-0.2,1.6-0.7c0.4-0.5,0.6-1.2,0.6-1.9v-4.8h1.3L83.9,103.6z"/>
			<path class="st38" d="M91.9,103.6h-1.3v-1.3h0c-0.8,1.5-2.7,1.9-4.2,1.1c-0.1-0.1-0.2-0.2-0.4-0.2c-0.5-0.5-0.8-1.1-0.7-1.8
				c0-1.6,0.9-2.5,2.8-2.7l2.5-0.4c0-1.4-0.6-2.1-1.7-2.1c-1,0-2,0.4-2.7,1v-1.4c0.4-0.2,0.8-0.4,1.3-0.5c0.5-0.2,1-0.2,1.6-0.3
				c2,0,2.9,1,2.9,3.1L91.9,103.6z M90.6,99.4l-2,0.3c-0.5,0-1,0.2-1.5,0.5c-0.3,0.3-0.5,0.7-0.4,1.1c0,0.4,0.2,0.8,0.5,1
				c0.3,0.3,0.7,0.4,1.2,0.4c0.6,0,1.2-0.2,1.6-0.7c0.4-0.5,0.7-1.1,0.7-1.8V99.4z"/>
			<path class="st38" d="M95.3,103.6h-1.3V91.2h1.3V103.6z"/>
			<path class="st38" d="M105.9,100.7c0,0.9-0.3,1.8-1,2.3c-0.8,0.6-1.8,0.9-2.8,0.8c-0.5,0-1-0.1-1.5-0.2c-0.4-0.1-0.8-0.2-1.2-0.5
				v-1.6c0.4,0.3,0.8,0.6,1.3,0.8c0.5,0.2,1,0.3,1.5,0.3c1.5,0,2.3-0.6,2.3-1.8c0-0.5-0.2-0.9-0.5-1.3c-0.6-0.5-1.2-1-2-1.4
				c-0.8-0.4-1.5-0.9-2-1.6c-0.4-0.5-0.6-1.2-0.6-1.8c0-0.9,0.4-1.7,1-2.3c0.8-0.6,1.7-0.9,2.7-0.9c0.8-0.1,1.6,0.1,2.3,0.4v1.5
				c-0.7-0.5-1.5-0.8-2.4-0.7c-0.6,0-1.1,0.1-1.6,0.5c-0.4,0.3-0.6,0.8-0.6,1.3c0,0.3,0.1,0.6,0.2,0.9c0.2,0.3,0.4,0.5,0.6,0.7
				c0.5,0.3,1,0.7,1.5,0.9c0.8,0.4,1.6,1,2.2,1.6C105.7,99.4,105.9,100,105.9,100.7z"/>
			<path class="st38" d="M111.2,103.5c-0.4,0.2-0.8,0.3-1.3,0.3c-1.5,0-2.2-0.8-2.2-2.5v-5h-1.4v-1.1h1.4v-2l1.3-0.4v2.5h2.1v1.1
				h-2.1v4.7c0,0.4,0.1,0.8,0.3,1.2c0.3,0.3,0.6,0.4,1,0.4c0.3,0,0.6-0.1,0.9-0.3L111.2,103.5z"/>
			<path class="st38" d="M119.4,103.6H118v-1.3h0c-0.5,1-1.5,1.6-2.6,1.5c-2,0-3-1.2-3-3.6v-5h1.3v4.8c0,1.8,0.7,2.6,2,2.6
				c0.6,0,1.2-0.2,1.6-0.7c0.4-0.5,0.7-1.2,0.6-1.9v-4.8h1.3L119.4,103.6z"/>
			<path class="st38" d="M128.6,103.6h-1.3v-1.4h0c-1,1.6-3,2.1-4.6,1.1c-0.3-0.2-0.6-0.4-0.8-0.7c-0.7-0.9-1-2-0.9-3
				c-0.1-1.2,0.3-2.4,1-3.4c0.7-0.8,1.7-1.3,2.8-1.2c1-0.1,2,0.5,2.5,1.4h0v-5.2h1.4V103.6z M127.2,99.8v-1.2c0-0.6-0.2-1.3-0.7-1.7
				c-0.4-0.5-1.1-0.7-1.7-0.7c-0.7,0-1.5,0.3-1.9,0.9c-0.5,0.7-0.8,1.6-0.7,2.5c0,0.8,0.2,1.6,0.7,2.3c0.4,0.6,1.1,0.9,1.8,0.8
				c0.7,0,1.4-0.3,1.8-0.8C127,101.3,127.2,100.6,127.2,99.8L127.2,99.8z"/>
			<path class="st38" d="M141.7,99.4c0.1,1.2-0.4,2.3-1.1,3.2c-0.8,0.8-1.9,1.3-3,1.2c-1.1,0.1-2.2-0.4-3-1.2
				c-0.8-0.9-1.1-2-1.1-3.1c-0.1-1.2,0.3-2.4,1.1-3.3c0.8-0.8,2-1.3,3.1-1.2c1.1-0.1,2.2,0.4,2.9,1.2
				C141.4,97.1,141.8,98.2,141.7,99.4z M140.3,99.4c0.1-0.9-0.2-1.7-0.7-2.4c-0.5-0.6-1.2-0.9-2-0.8c-0.8,0-1.5,0.3-2,0.9
				c-0.5,0.7-0.8,1.6-0.8,2.4c0,0.9,0.2,1.7,0.8,2.4c0.5,0.6,1.3,0.9,2,0.8c0.8,0,1.5-0.3,2-0.8C140.1,101.2,140.4,100.3,140.3,99.4
				L140.3,99.4z"/>
			<path class="st38" d="M69.1,92.5c0,0.2-0.1,0.5-0.3,0.6c-0.3,0.3-0.9,0.3-1.2,0c-0.2-0.2-0.3-0.4-0.3-0.6c0-0.2,0.1-0.4,0.2-0.6
				c0.2-0.2,0.4-0.3,0.6-0.3c0.2,0,0.5,0.1,0.6,0.3C69,92,69.1,92.3,69.1,92.5z M68.9,103.6h-1.3v-8.4h1.3L68.9,103.6z"/>
			<path class="st38" d="M132.1,92.5c0,0.2-0.1,0.5-0.3,0.6c-0.3,0.3-0.9,0.3-1.2,0c-0.2-0.2-0.3-0.4-0.3-0.6c0-0.2,0.1-0.5,0.2-0.6
				c0.2-0.2,0.4-0.3,0.6-0.3c0.2,0,0.5,0.1,0.6,0.3C132.1,92,132.1,92.2,132.1,92.5z M131.9,103.6h-1.3v-8.4h1.3V103.6z"/>
		</g>
		<path class="st38" d="M112.7,29.4L91,51L77.2,40.3L71.8,43v27.3l5.5,2.7L91,62.3l21.6,21.6l13.6-5.5V34.8L112.7,29.4z M77.2,64.8
			V48.5l8.2,8.2L77.2,64.8z M98.2,56.6l14.4-11.2v22.4L98.2,56.6z"/>
	</g>
</g>
<g id="titles">
	<rect y="-24" class="st44" width="161.7" height="25.6"/>
	<text transform="matrix(1 0 0 1 -2.034505e-05 -15.4801)" class="st45 st46">ASP.NET Core in Visual Studio</text>
</g>
</svg>
