<?xml version="1.0" encoding="utf-8"?>
<!-- Generator: Adobe Illustrator 23.0.3, SVG Export Plug-In . SVG Version: 6.00 Build 0)  -->
<svg version="1.1" id="ICONS" xmlns="http://www.w3.org/2000/svg" xmlns:xlink="http://www.w3.org/1999/xlink" x="0px" y="0px"
	 viewBox="0 0 400 140" style="enable-background:new 0 0 400 140;" xml:space="preserve">
<style type="text/css">
	.st0{fill:#05930C;}
	.st1{opacity:0.1;fill:#FFFFFF;enable-background:new    ;}
	.st2{fill:#FFFFFF;}
</style>
<title>net-docs-web-1</title>
<g>
	<circle class="st0" cx="200.9" cy="69.1" r="64.1"/>
	<path class="st1" d="M156.5,23c-26.4,23.6-28.8,64.1-5.2,90.5s64.1,28.8,90.5,5.2c1.8-1.6,3.6-3.4,5.2-5.2L156.5,23z"/>
	<path class="st2" d="M197.7,92.2c-4.4,2.1-9.2,3.1-14,3c-6.5,0.3-12.8-2.2-17.2-6.9c-4.5-5-6.8-11.5-6.5-18.2
		c-0.3-7.2,2.3-14.3,7.3-19.6c4.9-5,11.6-7.7,18.6-7.4c4.1-0.2,8.1,0.5,11.9,2v6.3c-3.7-2-7.8-3.1-12-3c-5.3-0.2-10.4,1.9-14,5.8
		c-3.8,4.3-5.7,9.8-5.4,15.5c-0.3,5.4,1.5,10.6,5,14.7c3.4,3.7,8.3,5.7,13.3,5.5c4.6,0.1,9.2-1.1,13.2-3.4L197.7,92.2z"/>
	<path class="st2" d="M242.5,58l-0.8,3.7h-9.2l-2.2,10.6h9.9l-0.9,3.7h-9.7l-3.1,14H222l3-14h-8.8l-3,14h-4.3l3-14h-9.3l0.7-3.7h9.3
		l2.1-10.6H205l0.7-3.7h9.8l3-14.2h4.5L220,58h8.9l3-14.2h4.3l-3,14.2L242.5,58z M228.1,61.7h-8.9l-2.3,10.6h8.9L228.1,61.7z"/>
</g>
</svg>
