<?xml version="1.0" encoding="utf-8"?>
<!-- Generator: Adobe Illustrator 20.1.0, SVG Export Plug-In . SVG Version: 6.00 Build 0)  -->
<svg version="1.1" id="Layer_1" xmlns="http://www.w3.org/2000/svg" xmlns:xlink="http://www.w3.org/1999/xlink" x="0px" y="0px"
	 viewBox="0 0 200 144" style="enable-background:new 0 0 200 144;" xml:space="preserve">
<style type="text/css">
	.st0{opacity:0.3;fill:#B4A0FF;}
	.st1{fill:#E6E6E6;}
	.st2{fill:#2E2E2E;}
	.st3{fill:#08BBF1;}
	.st4{fill:#5D5F5E;}
	.st5{fill:#0BC8F4;}
	.st6{fill:#FFFFFF;}
	.st7{opacity:0.3;fill:#FFF100;}
	.st8{fill:#721481;}
	.st9{fill:#00BCF2;}
	.st10{opacity:0.3;fill:#00BCF2;}
	.st11{fill:#3E3E3E;}
	.st12{fill:#B8D432;}
	.st13{fill:#59B4D9;}
	.st14{opacity:0.3;fill:#BAD80A;}
	.st15{fill:#4889A8;}
	.st16{fill:#929090;}
	.st17{fill:#96BBCD;}
	.st18{fill:#3A5C71;}
	.st19{fill:#FAB516;}
	.st20{fill:#F5891F;}
	.st21{fill:#CB6D29;}
	.st22{fill:#757575;stroke:#757575;stroke-width:2;stroke-miterlimit:10;}
</style>
<rect class="st10" width="200" height="144"/>
<g>
	<path class="st11" d="M147,56.3c0.5-2.4,0.8-4.6,0.8-6.8c0-17.2-14-31.1-31.2-31.1c-12,0-22.8,6.8-28,17.4
		c-4.2-4.2-9.9-6.5-15.8-6.5c-12.3,0-22.4,10-22.4,22.4c0,1.7,0.2,3.4,0.6,5.1c-10.2,4.1-16.2,12.7-16.2,23.2
		C34.8,94,46.3,105,61,105h1.7c0.3,12.9,10.8,23.2,23.7,23.2c8.7,0,16.6-4.7,20.7-12.1c3.1,2.7,7.1,4.2,11.3,4.2
		c8.9,0,16.2-6.7,17.2-15.3h2.5c14.7,0,26.2-11,26.2-25.1C164.3,69,157.7,60.1,147,56.3"/>
	<path class="st6" d="M136.9,68.1l1.9-4.5l-0.6-0.5l-4.2-3.6l0-3.7l4.7-4.2l-1.8-4.5l-0.7,0l-5.5,0.4l-2.6-2.6l0.3-6.3l-4.5-1.9
		l-0.5,0.5l-3.6,4.2l-3.7,0l-4.2-4.7l-4.5,1.8l0.1,0.7l0.4,5.5l-2.6,2.6L99.1,47l-1.9,4.5l0.6,0.5l4.2,3.6l0,3.7l-4.7,4.2L99,68
		l0.7-0.1l5.5-0.4l2.6,2.6l-0.3,6.3l4.5,1.9l0.5-0.6l3.6-4.2l3.7,0l4.2,4.7l4.5-1.8l-0.1-0.7l-0.4-5.5l2.6-2.6L136.9,68.1z
		 M114.1,66.8c-5.1-2.2-7.5-8-5.3-13.1c2.2-5.1,8-7.5,13.1-5.3c5.1,2.2,7.5,8,5.3,13.1C125.1,66.6,119.2,68.9,114.1,66.8"/>
	<path class="st6" d="M108.2,90.8v-4.9l-0.7-0.2l-5.2-1.7l-1.4-3.4l2.7-5.7l-3.5-3.5l-0.7,0.3l-4.9,2.5l-3.4-1.4l-2.1-5.9l-4.9,0
		L84,67.6l-1.7,5.2l-3.4,1.4l-5.7-2.7L69.7,75l0.3,0.7l2.5,4.9l-1.4,3.4L65.2,86l0,4.9l0.7,0.2l5.2,1.7l1.4,3.4l-2.7,5.7l3.5,3.5
		l0.7-0.3l4.9-2.5l3.4,1.4l2.1,5.9l4.9,0l0.2-0.7l1.7-5.2l3.4-1.4l5.7,2.7l3.5-3.5l-0.3-0.7l-2.5-4.9l1.4-3.4L108.2,90.8z
		 M86.7,98.4c-5.5,0-10-4.5-10-10c0-5.5,4.5-10,10-10c5.5,0,10,4.5,10,10C96.7,93.9,92.3,98.4,86.7,98.4"/>
	<path class="st12" d="M124,60.1c-1.4,3.3-5.2,4.9-8.5,3.5c-3.3-1.4-4.9-5.2-3.5-8.5c1.4-3.3,5.2-4.9,8.5-3.5
		C123.9,53,125.4,56.8,124,60.1"/>
	<path class="st12" d="M93.2,88.4c0,3.6-2.9,6.5-6.5,6.5c-3.6,0-6.5-2.9-6.5-6.5c0-3.6,2.9-6.5,6.5-6.5
		C90.3,81.9,93.2,84.8,93.2,88.4"/>
</g>
<path class="st13" d="M13.2,22.4c0-0.4-0.1-0.7-0.1-1.1c0.1-5.8,4.8-10.4,10.6-10.4c3.5,0,6.7,1.7,8.7,4.4c1.3-0.8,2.7-1.2,4.3-1.2
	c4.4,0,8.1,3.6,8.1,8v0.6c3,1.5,4.6,4,4.6,7.2c0,5-4,8.8-9.2,8.8H17.5c-5.2,0-9.2-3.9-9.2-8.8C8.3,26.5,10.1,23.9,13.2,22.4z"/>
<path class="st13" d="M151.2,116.4c0-0.4-0.1-0.7-0.1-1.1c0.1-5.8,4.8-10.4,10.6-10.4c3.5,0,6.7,1.7,8.7,4.4
	c1.3-0.8,2.7-1.2,4.3-1.2c4.4,0,8.1,3.6,8.1,8v0.6c3,1.5,4.6,4,4.6,7.2c0,5-4,8.8-9.2,8.8h-22.7c-5.2,0-9.2-3.9-9.2-8.8
	C146.3,120.5,148.1,117.9,151.2,116.4z"/>
<path class="st13" d="M188.4,24.4c0-0.4,0.1-0.7,0.1-1.1c-0.1-5.8-4.8-10.4-10.6-10.4c-3.5,0-6.7,1.7-8.7,4.4
	c-1.3-0.8-2.7-1.2-4.3-1.2c-4.4,0-8.1,3.6-8.1,8v0.6c-3,1.5-4.6,4-4.6,7.2c0,5,4,8.8,9.2,8.8h22.7c5.2,0,9.2-3.9,9.2-8.8
	C193.3,28.5,191.5,25.9,188.4,24.4z"/>
<path class="st13" d="M46.4,116.4c0-0.4,0.1-0.7,0.1-1.1c-0.1-5.8-4.8-10.4-10.6-10.4c-3.5,0-6.7,1.7-8.7,4.4
	c-1.3-0.8-2.7-1.2-4.3-1.2c-4.4,0-8.1,3.6-8.1,8v0.6c-3,1.5-4.6,4-4.6,7.2c0,5,4,8.8,9.2,8.8h22.7c5.2,0,9.2-3.9,9.2-8.8
	C51.3,120.5,49.5,117.9,46.4,116.4z"/>
</svg>
