<?xml version="1.0" encoding="utf-8"?>
<!-- Generator: Adobe Illustrator 20.1.0, SVG Export Plug-In . SVG Version: 6.00 Build 0)  -->
<svg version="1.1" id="Layer_1" xmlns="http://www.w3.org/2000/svg" xmlns:xlink="http://www.w3.org/1999/xlink" x="0px" y="0px"
	 viewBox="0 0 200 144" style="enable-background:new 0 0 200 144;" xml:space="preserve">
<style type="text/css">
	.st0{opacity:0.3;fill:#FFB900;}
	.st1{clip-path:url(#SVGID_2_);}
	.st2{fill:#A8DCEB;}
	.st3{fill:#2F75BB;}
	.st4{fill:#549DD5;}
	.st5{fill:#5E5E5E;}
	.st6{fill:#2E2E2E;}
	.st7{fill:#221F1F;}
	.st8{fill:#FFFFFF;}
	.st9{fill:#5E615F;}
	.st10{fill:#ACACAC;}
	.st11{fill:none;stroke:#767676;stroke-width:0.199;stroke-miterlimit:10;}
	.st12{opacity:0.3;fill:#00B294;}
	.st13{fill:#0582AD;}
	.st14{fill:#109FC6;}
	.st15{fill:none;stroke:#231F20;stroke-width:6;stroke-miterlimit:10;}
	.st16{opacity:0.3;fill:#00BCF2;}
	.st17{fill:#6DA0B5;}
	.st18{fill:#7CABC2;}
	.st19{opacity:0.3;fill:#BAD80A;}
	.st20{fill:#A5A7AA;}
	.st21{fill:#B4A0FF;}
	.st22{fill:#B7ACF9;}
	.st23{fill:#3498DB;}
	.st24{fill:#505050;}
</style>
<g>
	<rect class="st12" width="200" height="144"/>
	<g>
		<g>
			<rect x="32.6" y="22.2" class="st13" width="135.5" height="72"/>
			<polygon class="st14" points="168.1,82.4 168.1,22.2 101.8,22.2 			"/>
			<g>
				<polygon class="st5" points="128.9,110.5 71.6,110.5 74.9,106.7 125.5,106.7 				"/>
				<path class="st6" d="M126.6,112.6c-2.6,0-50.2,0-52.7,0s-2.5-2.1-2.5-2.1h57.4C128.9,110.5,129.2,112.6,126.6,112.6z"/>
				<polygon class="st6" points="112.6,108 87.8,108 89.8,96.6 110.6,96.6 				"/>
				<path class="st6" d="M166.9,20.1H33.1c-1.7,0-3.1,1.4-3.1,3.1v71.5c0,1.7,1.4,3.1,3.1,3.1h133.8c1.7,0,3.1-1.4,3.1-3.1V23.2
					C170,21.5,168.6,20.1,166.9,20.1z M165.3,92.3H34.6V24.1h130.7V92.3z"/>
				<polygon class="st5" points="155,121.2 46.8,121.2 53.2,114.1 148.7,114.1 				"/>
				<polygon class="st6" points="145.1,119.1 56.8,119.1 59.9,114.9 142,114.9 				"/>
				<path class="st6" d="M150.8,123.9c-4.8,0-94.8,0-99.4,0s-4.7-2.7-4.7-2.7H155C155,121.2,155.6,123.9,150.8,123.9z"/>
			</g>
			<rect x="32.3" y="22.2" class="st15" width="135.3" height="72.5"/>
		</g>
		<g>
			<g>
				<path class="st8" d="M78.7,68.7h-5.5L69.6,62c-0.1-0.2-0.3-0.7-0.4-1.4h-0.1c-0.1,0.3-0.2,0.8-0.5,1.4l-3.6,6.7h-5.5l6.6-10.3
					l-6-10.3h5.7l2.9,6.2c0.2,0.5,0.4,1.1,0.6,1.7h0.1c0.1-0.4,0.3-1,0.6-1.8l3.3-6.1h5.2l-6.2,10.2L78.7,68.7z"/>
				<path class="st8" d="M99.6,68.7h-5.1L93,64.1h-7.3l-1.5,4.6h-5l7.5-20.6h5.5L99.6,68.7z M92,60.6l-2.2-6.9
					c-0.2-0.5-0.3-1.1-0.3-1.9h-0.1c0,0.6-0.2,1.2-0.4,1.8l-2.2,7H92z"/>
				<path class="st8" d="M124.5,68.7h-4.6V56.4c0-1.3,0.1-2.8,0.2-4.4h-0.1c-0.2,1.3-0.5,2.2-0.6,2.7l-4.8,14h-3.8l-4.9-13.9
					c-0.1-0.4-0.3-1.3-0.6-2.9H105c0.1,2,0.2,3.8,0.2,5.4v11.4H101V48.1h6.8l4.2,12.2c0.3,1,0.6,2,0.7,2.9h0.1
					c0.3-1.1,0.5-2.1,0.8-3l4.2-12.2h6.6V68.7z"/>
				<path class="st8" d="M140.3,68.7H128V48.1h4.6v16.9h7.6V68.7z"/>
			</g>
			<g>
				<path class="st8" d="M161.2,58.6l-12.8,6.2V62l9.4-4.2v-0.1l-9.4-4.7v-2.7l12.8,6.7V58.6z"/>
			</g>
			<g>
				<path class="st8" d="M51.6,64.8l-12.8-6.2v-1.5l12.8-6.7v2.7l-9.4,4.7v0.1l9.4,4.2V64.8z"/>
			</g>
		</g>
	</g>
</g>
</svg>
