<?xml version="1.0" encoding="utf-8"?>
<!-- Generator: Adobe Illustrator 21.0.0, SVG Export Plug-In . SVG Version: 6.00 Build 0)  -->
<svg version="1.1" id="Layer_1" xmlns="http://www.w3.org/2000/svg" xmlns:xlink="http://www.w3.org/1999/xlink" x="0px" y="0px"
	 viewBox="0 0 200 144" style="enable-background:new 0 0 200 144;" xml:space="preserve">
<style type="text/css">
	.st0{opacity:0.3;fill:#BAD80A;enable-background:new    ;}
	.st1{fill:#505050;}
	.st2{fill:#007ACC;}
	.st3{fill:#FFFFFF;}
</style>
<g id="Layer_1_1_">
	<rect class="st0" width="200" height="144"/>
	<g>
		<g>
			<polygon class="st1" points="111.2,92 87.6,51.1 111.2,10.2 158.4,10.2 182,51.1 158.4,92 			"/>
		</g>
		<g>
			<polygon class="st2" points="40.6,133.1 17,92.2 40.6,51.4 87.8,51.4 111.4,92.2 87.8,133.1 			"/>
			<g>
				<g>
					<path class="st3" d="M42.9,105.1l-2.9,7.9h-1l-2.9-7.9h1l2.2,6.3c0.1,0.2,0.1,0.5,0.2,0.7h0c0-0.2,0.1-0.5,0.2-0.7l2.2-6.3
						H42.9z"/>
					<path class="st3" d="M49.1,111.5c0,0.5-0.2,0.9-0.6,1.2c-0.4,0.3-1,0.5-1.5,0.5c-0.5,0-1-0.1-1.4-0.3v-1
						c0.4,0.3,0.9,0.5,1.5,0.5c0.7,0,1.1-0.3,1.1-0.8c0-0.2-0.1-0.4-0.2-0.5c-0.3-0.2-0.6-0.4-1-0.5c-0.4-0.1-0.8-0.4-1.1-0.7
						c-0.2-0.3-0.3-0.6-0.3-1c0-0.5,0.2-0.9,0.6-1.2c0.4-0.3,0.9-0.5,1.4-0.5c0.4,0,0.8,0.1,1.2,0.3v0.9c-0.4-0.3-0.8-0.4-1.3-0.4
						c-0.3,0-0.5,0.1-0.7,0.2c-0.2,0.1-0.3,0.3-0.3,0.6c0,0.2,0.1,0.4,0.2,0.6c0.3,0.2,0.6,0.4,0.9,0.5c0.4,0.2,0.8,0.4,1.1,0.7
						C49,110.9,49.2,111.2,49.1,111.5z"/>
					<path class="st3" d="M54.7,113.1h-0.9v-0.9l0,0c-0.3,0.7-1,1.1-1.7,1c-1.4,0-2-0.8-2-2.4v-3.4h0.9v3.2c0,1.2,0.5,1.8,1.4,1.8
						c0.4,0,0.8-0.2,1.1-0.5c0.3-0.4,0.4-0.8,0.4-1.3v-3.3h0.9L54.7,113.1z"/>
					<path class="st3" d="M60.1,113.1h-0.9v-0.9h0c-0.6,1-1.8,1.3-2.8,0.7c-0.1-0.1-0.2-0.1-0.2-0.2c-0.3-0.3-0.5-0.7-0.5-1.2
						c0-1.1,0.6-1.7,1.9-1.8l1.7-0.2c0-1-0.4-1.4-1.2-1.4c-0.7,0-1.3,0.2-1.8,0.7v-0.9c0.3-0.2,0.5-0.3,0.9-0.4
						c0.3-0.1,0.7-0.2,1.1-0.2c1.3,0,2,0.7,2,2.1L60.1,113.1z M59.2,110.2l-1.4,0.2c-0.4,0-0.7,0.1-1,0.3c-0.2,0.2-0.3,0.5-0.3,0.8
						c0,0.3,0.1,0.5,0.3,0.7c0.2,0.2,0.5,0.3,0.8,0.3c0.4,0,0.8-0.2,1.1-0.5c0.3-0.3,0.5-0.8,0.4-1.2V110.2z"/>
					<path class="st3" d="M62.3,113.1h-0.9v-8.4h0.9V113.1z"/>
					<path class="st3" d="M69.5,111.1c0,0.6-0.2,1.2-0.7,1.6c-0.6,0.4-1.2,0.6-1.9,0.6c-0.3,0-0.7-0.1-1-0.1
						c-0.3-0.1-0.5-0.2-0.8-0.3v-1.1c0.3,0.2,0.6,0.4,0.9,0.5c0.3,0.1,0.7,0.2,1,0.2c1,0,1.5-0.4,1.5-1.2c0-0.3-0.1-0.6-0.3-0.9
						c-0.4-0.4-0.8-0.7-1.3-0.9c-0.5-0.3-1-0.6-1.4-1.1c-0.3-0.3-0.4-0.8-0.4-1.2c0-0.6,0.2-1.2,0.7-1.5c0.5-0.4,1.2-0.6,1.8-0.6
						c0.5,0,1.1,0.1,1.6,0.3v1c-0.5-0.3-1-0.5-1.6-0.5c-0.4,0-0.8,0.1-1.1,0.3c-0.3,0.2-0.4,0.5-0.4,0.9c0,0.2,0,0.4,0.1,0.6
						c0.1,0.2,0.3,0.3,0.4,0.5c0.3,0.2,0.6,0.4,1,0.6c0.6,0.3,1.1,0.6,1.5,1.1C69.4,110.2,69.5,110.6,69.5,111.1z"/>
					<path class="st3" d="M73.1,113c-0.3,0.1-0.6,0.2-0.9,0.2c-1,0-1.5-0.6-1.5-1.7v-3.3h-1v-0.8h1V106l0.9-0.3v1.7h1.4v0.8h-1.4
						v3.2c0,0.3,0,0.6,0.2,0.8c0.2,0.2,0.4,0.3,0.7,0.2c0.2,0,0.4-0.1,0.6-0.2L73.1,113z"/>
					<path class="st3" d="M78.6,113.1h-0.9v-0.9h0c-0.3,0.7-1,1.1-1.7,1c-1.4,0-2-0.8-2-2.4v-3.4h0.9v3.2c0,1.2,0.5,1.8,1.4,1.8
						c0.4,0,0.8-0.2,1.1-0.5c0.3-0.4,0.4-0.8,0.4-1.3v-3.3h0.9L78.6,113.1z"/>
					<path class="st3" d="M84.8,113.1h-0.9v-1h0c-0.6,1.1-2,1.4-3.1,0.8c-0.2-0.1-0.4-0.3-0.5-0.4c-0.4-0.6-0.7-1.3-0.6-2.1
						c0-0.8,0.2-1.6,0.7-2.3c0.5-0.6,1.2-0.9,1.9-0.8c0.7,0,1.3,0.3,1.7,0.9h0v-3.5h0.9V113.1z M83.9,110.5v-0.8
						c0-0.4-0.2-0.9-0.5-1.2c-0.3-0.3-0.7-0.5-1.1-0.5c-0.5,0-1,0.2-1.3,0.6c-0.3,0.5-0.5,1.1-0.5,1.7c0,0.5,0.1,1.1,0.5,1.5
						c0.3,0.4,0.7,0.6,1.2,0.6c0.5,0,0.9-0.2,1.2-0.5C83.7,111.5,83.9,111,83.9,110.5L83.9,110.5L83.9,110.5z"/>
					<path class="st3" d="M93.6,110.2c0,0.8-0.2,1.6-0.8,2.2c-0.5,0.6-1.3,0.9-2.1,0.8c-0.8,0-1.5-0.3-2-0.8
						c-0.5-0.6-0.8-1.3-0.7-2.1c0-0.8,0.2-1.6,0.8-2.2c0.6-0.6,1.3-0.9,2.1-0.8c0.7,0,1.5,0.2,2,0.8
						C93.4,108.7,93.7,109.4,93.6,110.2z M92.7,110.2c0-0.6-0.1-1.2-0.5-1.6c-0.3-0.4-0.8-0.6-1.3-0.6c-0.5,0-1,0.2-1.4,0.6
						c-0.4,0.5-0.5,1.1-0.5,1.7c0,0.6,0.1,1.1,0.5,1.6c0.4,0.4,0.9,0.6,1.4,0.6c0.5,0,1-0.2,1.4-0.6
						C92.6,111.4,92.8,110.8,92.7,110.2C92.7,110.2,92.7,110.2,92.7,110.2z"/>
					<path class="st3" d="M44.7,105.5c0,0.2-0.1,0.3-0.2,0.4c-0.2,0.2-0.6,0.2-0.8,0c-0.1-0.1-0.2-0.3-0.2-0.4
						c0-0.2,0.1-0.3,0.2-0.4c0.1-0.1,0.3-0.2,0.4-0.2c0.2,0,0.3,0.1,0.4,0.2C44.7,105.2,44.7,105.4,44.7,105.5z M44.6,113.1h-0.9
						v-5.7h0.9V113.1z"/>
					<path class="st3" d="M87.2,105.5c0,0.2-0.1,0.3-0.2,0.4c-0.2,0.2-0.6,0.2-0.8,0c-0.1-0.1-0.2-0.3-0.2-0.4
						c0-0.2,0.1-0.3,0.2-0.4c0.1-0.1,0.3-0.2,0.4-0.2c0.2,0,0.3,0.1,0.4,0.2C87.1,105.2,87.2,105.4,87.2,105.5z M87.1,113.1h-0.9
						v-5.7h0.9V113.1z"/>
				</g>
				<path class="st3" d="M74.1,62.3L59.5,76.9l-9.3-7.2l-3.7,1.8v18.4l3.7,1.8l9.3-7.2l14.6,14.6l9.2-3.7V66L74.1,62.3z M50.2,86.2
					v-11l5.5,5.5L50.2,86.2z M64.4,80.7l9.7-7.6v15.1L64.4,80.7z"/>
			</g>
			<g>
				<path class="st3" d="M57.2,126.1c-0.4,0.2-1.2,0.4-2.1,0.4c-2.3,0-4-1.4-4-4.1c0-2.5,1.7-4.2,4.2-4.2c1,0,1.6,0.2,1.9,0.4
					l-0.3,0.9c-0.4-0.2-1-0.3-1.6-0.3c-1.9,0-3.2,1.2-3.2,3.3c0,2,1.1,3.3,3.1,3.3c0.6,0,1.3-0.1,1.7-0.3L57.2,126.1z"/>
				<path class="st3" d="M63.6,123.4c0,2.1-1.5,3.1-2.9,3.1c-1.6,0-2.8-1.2-2.8-3c0-1.9,1.3-3.1,2.9-3.1
					C62.5,120.4,63.6,121.6,63.6,123.4z M59,123.4c0,1.3,0.7,2.2,1.8,2.2c1,0,1.8-0.9,1.8-2.3c0-1-0.5-2.2-1.7-2.2
					C59.5,121.2,59,122.3,59,123.4z"/>
				<path class="st3" d="M69.9,117.8v7c0,0.5,0,1.1,0,1.5H69l0-1h0c-0.3,0.6-1,1.1-2,1.1c-1.4,0-2.5-1.2-2.5-2.9
					c0-1.9,1.2-3.1,2.6-3.1c0.9,0,1.5,0.4,1.8,0.9h0v-3.5L69.9,117.8L69.9,117.8z M68.9,122.9c0-0.1,0-0.3,0-0.4
					c-0.2-0.7-0.7-1.2-1.5-1.2c-1.1,0-1.7,1-1.7,2.2c0,1.2,0.6,2.1,1.7,2.1c0.7,0,1.4-0.5,1.5-1.3c0-0.1,0-0.3,0-0.5L68.9,122.9
					L68.9,122.9z"/>
				<path class="st3" d="M72.3,123.6c0,1.4,0.9,2,2,2c0.8,0,1.2-0.1,1.6-0.3l0.2,0.8c-0.4,0.2-1,0.4-1.9,0.4c-1.8,0-2.9-1.2-2.9-2.9
					s1-3.1,2.7-3.1c1.9,0,2.4,1.7,2.4,2.7c0,0.2,0,0.4,0,0.5L72.3,123.6L72.3,123.6z M75.4,122.9c0-0.7-0.3-1.7-1.5-1.7
					c-1.1,0-1.5,1-1.6,1.7H75.4z"/>
			</g>
		</g>
	</g>
</g>
<g id="titles">
</g>
<g>
	<path class="st3" d="M117.9,56.3v-6.2c0-0.6,0-1.2-0.1-1.6c-0.1-0.4-0.2-0.8-0.4-1.1c-0.2-0.3-0.5-0.5-0.8-0.6
		c-0.3-0.1-0.7-0.2-1.1-0.2c-0.4,0-0.7,0.1-1.1,0.3s-0.6,0.4-0.9,0.7c-0.3,0.3-0.5,0.7-0.6,1.1c-0.1,0.4-0.2,0.9-0.2,1.4v6.1h-1.3
		V50c0-2.2-0.8-3.3-2.5-3.3c-0.4,0-0.8,0.1-1.1,0.3c-0.3,0.2-0.6,0.4-0.9,0.7c-0.3,0.3-0.4,0.7-0.6,1.1c-0.1,0.4-0.2,0.9-0.2,1.5v6
		h-1.3V45.8h1.3v1.7h0c0.7-1.3,1.8-1.9,3.2-1.9c0.4,0,0.7,0.1,1,0.2c0.3,0.1,0.6,0.3,0.9,0.5c0.3,0.2,0.5,0.4,0.7,0.7
		c0.2,0.3,0.3,0.6,0.4,0.9c0.4-0.7,0.8-1.3,1.4-1.7c0.6-0.4,1.3-0.6,2-0.6c2.3,0,3.5,1.4,3.5,4.3v6.5H117.9z"/>
	<path class="st3" d="M128.4,56.3v-1.9h0c-0.3,0.7-0.8,1.2-1.4,1.6c-0.6,0.4-1.3,0.6-2,0.6c-0.5,0-1-0.1-1.4-0.2
		c-0.4-0.1-0.8-0.3-1-0.6c-0.3-0.3-0.5-0.6-0.7-0.9c-0.2-0.4-0.2-0.8-0.2-1.2c0-1,0.3-1.7,0.9-2.3c0.6-0.6,1.5-0.9,2.7-1.1l3.2-0.5
		c0-2-0.8-3-2.3-3c-1.2,0-2.4,0.4-3.4,1.3v-1.4c0.2-0.2,0.5-0.3,0.7-0.4c0.3-0.1,0.6-0.2,0.9-0.3c0.3-0.1,0.6-0.2,0.9-0.2
		c0.3-0.1,0.6-0.1,0.9-0.1c1.2,0,2.1,0.3,2.7,1c0.6,0.7,0.9,1.6,0.9,2.9v6.8H128.4z M125.7,51.2c-0.5,0.1-0.9,0.2-1.2,0.3
		s-0.6,0.2-0.8,0.4c-0.2,0.2-0.4,0.4-0.5,0.6c-0.1,0.3-0.2,0.6-0.2,0.9c0,0.3,0,0.5,0.1,0.8c0.1,0.2,0.2,0.4,0.4,0.6
		c0.2,0.2,0.4,0.3,0.7,0.4c0.3,0.1,0.6,0.1,0.9,0.1c0.5,0,0.9-0.1,1.3-0.3s0.7-0.4,1-0.7c0.3-0.3,0.5-0.7,0.7-1.1
		c0.2-0.4,0.2-0.9,0.2-1.4v-1L125.7,51.2z"/>
	<path class="st3" d="M139.9,55.8c-0.8,0.5-1.7,0.7-2.8,0.7c-0.8,0-1.4-0.1-2-0.4s-1.1-0.6-1.5-1.1c-0.4-0.5-0.7-1-1-1.7
		c-0.2-0.6-0.3-1.3-0.3-2.1c0-0.8,0.1-1.5,0.4-2.2c0.2-0.7,0.6-1.3,1-1.8c0.5-0.5,1-0.9,1.7-1.2c0.7-0.3,1.4-0.5,2.3-0.5
		c0.9,0,1.7,0.2,2.4,0.5v1.4c-0.8-0.5-1.6-0.8-2.5-0.8c-0.6,0-1.2,0.1-1.7,0.4c-0.5,0.2-0.9,0.6-1.2,1c-0.3,0.4-0.6,0.9-0.8,1.4
		c-0.2,0.5-0.3,1.1-0.3,1.7c0,0.6,0.1,1.1,0.2,1.6c0.1,0.5,0.4,1,0.7,1.4c0.3,0.4,0.7,0.7,1.2,0.9s1,0.3,1.6,0.3
		c1,0,1.9-0.3,2.7-0.9V55.8z"/>
	<path class="st3" d="M148.6,56.5c-1.1,0-2-0.2-2.9-0.6c-0.8-0.4-1.6-0.9-2.2-1.6c-0.6-0.7-1-1.5-1.4-2.4c-0.3-0.9-0.5-1.9-0.5-2.9
		c0-1.1,0.2-2.2,0.5-3.2c0.3-1,0.8-1.8,1.4-2.5c0.6-0.7,1.4-1.2,2.2-1.6c0.9-0.4,1.9-0.6,3-0.6c1,0,2,0.2,2.8,0.6
		c0.8,0.4,1.5,0.9,2.1,1.5s1,1.4,1.3,2.3c0.3,0.9,0.5,1.9,0.5,2.9c0,1.1-0.2,2.1-0.5,3.1c-0.3,1-0.8,1.8-1.3,2.5
		c-0.6,0.7-1.3,1.2-2.2,1.6C150.7,56.3,149.7,56.5,148.6,56.5z M148.7,42.6c-0.9,0-1.7,0.2-2.4,0.5c-0.7,0.3-1.3,0.8-1.7,1.4
		c-0.5,0.6-0.8,1.3-1.1,2c-0.2,0.8-0.4,1.6-0.4,2.5c0,0.8,0.1,1.6,0.3,2.4c0.2,0.8,0.6,1.4,1,2c0.4,0.6,1,1.1,1.7,1.4
		c0.7,0.3,1.5,0.5,2.4,0.5s1.7-0.2,2.4-0.5c0.7-0.3,1.3-0.8,1.7-1.3c0.5-0.6,0.8-1.2,1.1-2c0.2-0.8,0.4-1.6,0.4-2.6
		c0-0.9-0.1-1.7-0.3-2.5c-0.2-0.8-0.5-1.4-1-2c-0.4-0.6-1-1-1.7-1.4C150.5,42.7,149.7,42.6,148.7,42.6z"/>
	<path class="st3" d="M157.9,54.1c0.2,0.2,0.5,0.4,0.8,0.5c0.3,0.1,0.6,0.3,0.9,0.4c0.3,0.1,0.6,0.2,0.9,0.2
		c0.3,0.1,0.6,0.1,0.9,0.1c1.1,0,1.9-0.2,2.5-0.6s0.8-1,0.8-1.9c0-0.4-0.1-0.7-0.2-1c-0.1-0.3-0.3-0.6-0.6-0.8s-0.6-0.5-1-0.8
		s-0.9-0.5-1.5-0.8c-0.6-0.3-1.2-0.7-1.6-1c-0.4-0.3-0.8-0.6-1.1-0.9c-0.3-0.3-0.5-0.7-0.6-1c-0.1-0.4-0.2-0.8-0.2-1.3
		c0-0.6,0.1-1.1,0.4-1.6s0.6-0.9,1-1.2c0.4-0.3,0.9-0.6,1.5-0.8c0.6-0.2,1.2-0.3,1.9-0.3c1.2,0,2.1,0.2,2.9,0.5v1.5
		c-0.9-0.5-1.9-0.7-3.1-0.7c-0.4,0-0.8,0.1-1.2,0.2c-0.4,0.1-0.7,0.3-1,0.5c-0.3,0.2-0.5,0.5-0.7,0.8c-0.2,0.3-0.3,0.7-0.3,1.1
		c0,0.4,0.1,0.7,0.2,1c0.1,0.3,0.3,0.5,0.5,0.8c0.2,0.2,0.6,0.5,1,0.7c0.4,0.2,0.9,0.5,1.5,0.8c0.6,0.3,1.2,0.6,1.6,1s0.8,0.6,1.1,1
		c0.3,0.3,0.5,0.7,0.7,1.1c0.2,0.4,0.2,0.8,0.2,1.3c0,0.6-0.1,1.2-0.4,1.7c-0.2,0.5-0.6,0.9-1,1.2c-0.4,0.3-0.9,0.6-1.5,0.7
		c-0.6,0.2-1.2,0.2-2,0.2c-0.2,0-0.5,0-0.8-0.1c-0.3,0-0.6-0.1-1-0.2c-0.3-0.1-0.6-0.2-0.9-0.3c-0.3-0.1-0.5-0.2-0.7-0.3V54.1z"/>
</g>
</svg>
