<svg xmlns="http://www.w3.org/2000/svg" viewBox="0 0 400 140"><defs><style>.cls-1,.cls-7{fill:#231f20;}.cls-2{fill:#1a1a1a;}.cls-3{fill:gray;}.cls-4{fill:#414042;}.cls-5{fill:#6d6e71;}.cls-6{fill:#1772b8;}.cls-7{opacity:0.34;}.cls-8{fill:#f1f2f2;}.cls-9{fill:#ffb900;}.cls-10{fill:#008272;}.cls-11{fill:#5d5f5e;}.cls-12{fill:#c7c7c7;}.cls-13{fill:#909090;}.cls-14{font-size:12px;font-family:SegoeUI, Segoe UI;}</style></defs><title>net-docs-web-2</title><g id="ICONS"><rect class="cls-1" x="175" y="16" width="143" height="107" rx="4" ry="4"/><path class="cls-2" d="M330.76,129H163.37c-5.6,0-6.52-6-6.52-6H336.92S335.11,129,330.76,129Z"/><polygon class="cls-3" points="156.92 123 175.3 117 317.92 117 337 123 156.92 123"/><rect class="cls-4" x="179.92" y="21" width="133" height="88"/><rect class="cls-5" x="192.92" y="25" width="2" height="2"/><rect class="cls-6" x="195.92" y="25" width="3" height="2"/><rect class="cls-5" x="200.92" y="25" width="20" height="2"/><rect class="cls-5" x="192.92" y="29" width="2" height="2"/><rect class="cls-6" x="195.92" y="29" width="3" height="2"/><rect class="cls-5" x="200.92" y="29" width="30" height="2"/><rect class="cls-5" x="192.92" y="33" width="2" height="2"/><rect class="cls-6" x="195.92" y="33" width="3" height="2"/><polygon class="cls-7" points="312.92 21 312.92 81 252.92 21 312.92 21"/><rect class="cls-6" x="265.92" y="49" width="10" height="2"/><rect class="cls-5" x="200.92" y="33" width="18" height="2"/><rect class="cls-5" x="192.92" y="37" width="2" height="2"/><rect class="cls-6" x="195.92" y="37" width="3" height="2"/><rect class="cls-5" x="200.92" y="37" width="20" height="2"/><rect class="cls-5" x="192.92" y="41" width="2" height="2"/><rect class="cls-8" x="196.92" y="41" width="36" height="2"/><rect class="cls-8" x="196.92" y="45" width="36" height="2"/><rect class="cls-8" x="234.92" y="41" width="30" height="2"/><rect class="cls-8" x="196.92" y="49" width="24" height="2"/><rect class="cls-9" x="222.92" y="49" width="41" height="2"/><rect class="cls-9" x="233.92" y="53" width="41" height="2"/><rect class="cls-9" x="276.92" y="53" width="29" height="2"/><rect class="cls-8" x="196.92" y="53" width="34.9" height="2"/><rect class="cls-5" x="196.92" y="59" width="9" height="2"/><rect class="cls-5" x="196.92" y="63" width="20" height="2"/><rect class="cls-10" x="196.92" y="67" width="36" height="2"/><rect class="cls-10" x="196.92" y="71" width="36" height="2"/><rect class="cls-10" x="234.92" y="67" width="30" height="2"/><rect class="cls-5" x="196.92" y="75" width="24" height="2"/><rect class="cls-5" x="222.92" y="75" width="41" height="2"/><rect class="cls-5" x="233.92" y="79" width="41" height="2"/><rect class="cls-5" x="197.02" y="79" width="34.9" height="2"/><rect class="cls-5" x="196.92" y="83" width="20" height="2"/><rect class="cls-5" x="192.92" y="87" width="2" height="2"/><rect class="cls-10" x="196.92" y="87" width="36" height="2"/><rect class="cls-10" x="196.92" y="91" width="36" height="2"/><rect class="cls-10" x="234.92" y="87" width="30" height="2"/><rect class="cls-5" x="192.92" y="91" width="2" height="2"/><rect class="cls-5" x="192.92" y="95" width="2" height="2"/><rect class="cls-5" x="196.92" y="95" width="24" height="2"/><rect class="cls-5" x="222.92" y="95" width="41" height="2"/><rect class="cls-5" x="232.92" y="99" width="41" height="2"/><rect class="cls-5" x="192.92" y="99" width="2" height="2"/><rect class="cls-5" x="195.92" y="99" width="34.9" height="2"/><path class="cls-4" d="M163.39,15.58a46.35,46.35,0,0,0-56.57,33c-6.5,24.69,6.26,46.32,30.94,52.83s51-7.14,57.55-31.83S188.07,22.08,163.39,15.58Z"/><rect class="cls-6" x="111.92" y="27" width="5" height="4"/><rect class="cls-5" x="118.92" y="27" width="35" height="4"/><rect class="cls-5" x="118.92" y="20" width="35" height="4"/><rect class="cls-6" x="111.92" y="34" width="5" height="4"/><rect class="cls-5" x="118.92" y="34" width="35" height="4"/><rect class="cls-8" x="155.92" y="40" width="26" height="4"/><rect class="cls-5" x="105.92" y="40" width="4" height="4"/><rect class="cls-6" x="111.92" y="40" width="5" height="4"/><rect class="cls-6" x="183.92" y="40" width="5" height="4"/><rect class="cls-8" x="118.92" y="40" width="35" height="4"/><rect class="cls-5" x="105.92" y="47" width="4" height="4"/><rect class="cls-6" x="111.92" y="47" width="5" height="4"/><rect class="cls-8" x="118.92" y="47" width="27" height="4"/><rect class="cls-9" x="147.92" y="47" width="26" height="4"/><rect class="cls-9" x="175.92" y="47" width="14" height="4"/><rect class="cls-5" x="105.92" y="54" width="4" height="4"/><rect class="cls-6" x="111.92" y="54" width="5" height="4"/><rect class="cls-10" x="118.92" y="54" width="35" height="4"/><rect class="cls-5" x="105.92" y="61" width="4" height="4"/><rect class="cls-6" x="111.92" y="61" width="5" height="4"/><rect class="cls-10" x="128.92" y="67" width="5" height="4"/><rect class="cls-9" x="118.92" y="61" width="35" height="4"/><rect class="cls-5" x="155.92" y="61" width="26" height="4"/><rect class="cls-5" x="183.92" y="61" width="12" height="4"/><rect class="cls-10" x="135.92" y="67" width="35" height="4"/><rect class="cls-10" x="128.92" y="74" width="5" height="4"/><rect class="cls-10" x="135.92" y="74" width="24" height="4"/><rect class="cls-5" x="106.92" y="81" width="35" height="4"/><rect class="cls-5" x="143.92" y="81" width="18" height="4"/><rect class="cls-5" x="163.92" y="81" width="25" height="4"/><rect class="cls-5" x="114.92" y="88" width="26" height="4"/><rect class="cls-5" x="142.92" y="88" width="26" height="4"/><rect class="cls-5" x="170.92" y="88" width="13" height="4"/><path class="cls-1" d="M163.94,16.12a46.35,46.35,0,0,0-56.57,33c-6.5,24.69,6.26,46.32,30.94,52.83s51-7.14,57.55-31.83S188.63,22.63,163.94,16.12Zm-24.24,92c-26.06-6.86-43.93-34.83-37.07-60.88s34.39-43.84,60.45-37,43.19,37,36.33,63.05A48.93,48.93,0,0,1,139.7,108.15Z"/><rect class="cls-1" x="56.51" y="54.27" width="18.33" height="101.87" rx="6.22" ry="6.22" transform="translate(123.48 -4.51) rotate(59.76)"/><path class="cls-11" d="M107.84,76.53a6.46,6.46,0,0,0-8.37-1.64L22.63,119.68a6.46,6.46,0,0,0-2.69,8.1Z"/><rect class="cls-12" x="84.94" y="78.81" width="20.58" height="18.33" transform="matrix(0.86, -0.5, 0.5, 0.86, -31.35, 59.93)"/><path class="cls-13" d="M108.73,90.7,101.91,79,84.13,89.36,91,101.07,108.7,90.72Z"/><path class="cls-12" d="M162,11.3a46.3,46.3,0,1,0,33,56.57A46.35,46.35,0,0,0,162,11.3Zm-24.24,92a48.87,48.87,0,1,1,59.71-34.81A48.93,48.93,0,0,1,137.77,103.33Z"/><rect class="cls-3" x="244" y="111" width="4" height="4"/></g><g id="Titles"><text class="cls-14" transform="translate(0.33 -12.63)">Using ASP.NET Core</text></g></svg>