<?xml version="1.0" encoding="utf-8"?>
<!-- Generator: Adobe Illustrator 20.1.0, SVG Export Plug-In . SVG Version: 6.00 Build 0)  -->
<svg version="1.1" id="Layer_1" xmlns="http://www.w3.org/2000/svg" xmlns:xlink="http://www.w3.org/1999/xlink" x="0px" y="0px"
	 viewBox="0 0 200 144" style="enable-background:new 0 0 200 144;" xml:space="preserve">
<style type="text/css">
	.st0{opacity:0.3;fill:#FFB900;}
	.st1{clip-path:url(#SVGID_2_);}
	.st2{fill:#A8DCEB;}
	.st3{fill:#2F75BB;}
	.st4{fill:#549DD5;}
	.st5{fill:#5E5E5E;}
	.st6{fill:#2E2E2E;}
	.st7{fill:#221F1F;}
	.st8{fill:#FFFFFF;}
	.st9{fill:#5E615F;}
	.st10{fill:#ACACAC;}
	.st11{fill:none;stroke:#767676;stroke-width:0.199;stroke-miterlimit:10;}
	.st12{opacity:0.3;fill:#00B294;}
	.st13{fill:#0582AD;}
	.st14{fill:#109FC6;}
	.st15{fill:none;stroke:#231F20;stroke-width:6;stroke-miterlimit:10;}
	.st16{opacity:0.3;fill:#00BCF2;}
	.st17{fill:#6DA0B5;}
	.st18{fill:#7CABC2;}
	.st19{opacity:0.3;fill:#BAD80A;}
	.st20{fill:#A5A7AA;}
	.st21{fill:#B4A0FF;}
	.st22{fill:#B7ACF9;}
	.st23{fill:#3498DB;}
	.st24{fill:#505050;}
</style>
<rect class="st16" width="200" height="144"/>
<g>
	<g>
		<g>
			<path class="st7" d="M144.5,124V44.2c0-1.7-1.4-3.1-3.1-3.1H30.8c-1.7,0-3.1,1.4-3.1,3.1V124H144.5z"/>
			<path class="st7" d="M154.1,132.8c-3.5,0-131,0-135.5,0s-5.3-4.7-5.3-4.7h146C159.3,128.2,157.6,132.8,154.1,132.8z"/>
			<rect x="85.5" y="43.9" class="st9" width="1.8" height="1.7"/>
			<rect x="84.7" y="115.3" class="st9" width="3.4" height="3.1"/>
			<g>
				<rect x="33.6" y="47.2" class="st3" width="104.8" height="65"/>
				<polygon class="st4" points="138.4,47.2 98.2,47.2 138.4,84.8 				"/>
			</g>
			<polygon class="st10" points="13.3,128.2 27.6,123.1 144.5,123.1 159.3,128.2 			"/>
			<polygon class="st5" points="30.2,125.9 34.2,124.1 137.4,124.1 141.8,125.9 			"/>
		</g>
		<g>
			<polygon class="st8" points="81.6,77.8 81.6,61.1 64.3,63.4 64.3,77.8 			"/>
			<polygon class="st8" points="83.7,77.8 106.4,77.8 106.4,57.9 83.7,60.9 			"/>
			<polygon class="st8" points="83.7,79.6 83.7,96.7 106.4,99.8 106.4,79.6 			"/>
			<polygon class="st8" points="81.6,79.6 64.3,79.6 64.4,94.1 81.6,96.4 			"/>
		</g>
	</g>
	<g>
		<g>
			<path class="st17" d="M170.4,28.4h14.5l-16.6-15.5v13.5C168.3,27.4,169.3,28.4,170.4,28.4z"/>
			<path class="st18" d="M167.3,26.3V12.2h-47.7c-0.7,0-1.3,0.6-1.3,1.3V91c0,0.7,0.6,1.3,1.3,1.3h64.7c0.7,0,1.3-0.6,1.3-1.3V29.4
				h-15.3C168.7,29.4,167.3,28,167.3,26.3z"/>
			<path d="M185.7,27.7l-16.6-15.5l-1.1-1h-0.7h-47.7c-1.3,0-2.3,1-2.3,2.3V91c0,1.3,1,2.3,2.3,2.3h64.7c1.3,0,2.3-1,2.3-2.3V29.4
				v-0.7L185.7,27.7z M184.9,28.4h-14.5c-1.1,0-2.1-0.9-2.1-2.1V12.8L184.9,28.4z M185.7,91c0,0.7-0.6,1.3-1.3,1.3h-64.7
				c-0.7,0-1.3-0.6-1.3-1.3V13.5c0-0.7,0.6-1.3,1.3-1.3h47.7v14.1c0,1.7,1.4,3.1,3.1,3.1h15.3V91z"/>
		</g>
		<g>
			<g>
				<g>
					<g>
						<rect x="135.8" y="34.8" class="st8" width="41.1" height="4"/>
					</g>
				</g>
				<circle class="st8" cx="127.8" cy="36.9" r="3"/>
			</g>
			<g>
				<g>
					<g>
						<rect x="135.8" y="44.8" class="st8" width="41.1" height="4"/>
					</g>
				</g>
				<circle class="st8" cx="127.8" cy="46.9" r="3"/>
			</g>
			<g>
				<g>
					<g>
						<rect x="135.8" y="54.8" class="st8" width="41.1" height="4"/>
					</g>
				</g>
				<circle class="st8" cx="127.8" cy="56.9" r="3"/>
			</g>
			<g>
				<g>
					<g>
						<rect x="135.8" y="64.8" class="st8" width="41.1" height="4"/>
					</g>
				</g>
				<circle class="st8" cx="127.8" cy="66.9" r="3"/>
			</g>
		</g>
	</g>
</g>
</svg>
