<svg id="ICONS" xmlns="http://www.w3.org/2000/svg" viewBox="0 0 400 140"><defs><style>.cls-1{fill:#e5eef3;}.cls-2{fill:#007acc;}.cls-3,.cls-4{fill:#fff;}.cls-4{font-size:14px;font-family:SegoeUI, Segoe UI;}.cls-5{letter-spacing:0.1em;}.cls-6{letter-spacing:-0.03em;}.cls-16,.cls-7{fill:none;stroke-miterlimit:10;}.cls-7{stroke:#757575;}.cls-8{fill:#6d6e71;}.cls-9{fill:#4d4e4e;}.cls-10{fill:#558ad8;}.cls-11{fill:#0050c5;}.cls-12{fill:#757575;}.cls-13{fill:#414042;}.cls-14{fill:#2b8fde;}.cls-15{fill:#5d5f5e;}.cls-16{stroke:#334d63;stroke-width:2px;}.cls-17{fill:#80a7e2;}</style></defs><title>net-docs-web-6</title><path class="cls-1" d="M152,31.58a2.29,2.29,0,0,0,.14-3l-4-4.42c-.58-.63-1.78-.69-3-.14l-6.88,4.54c-1.47-1-3.23-2.27-4.7-3.24l2.21-8.38a2.06,2.06,0,0,0-1.1-2.47l-5-2.35a1.91,1.91,0,0,0-2.76.78l-4.88,7.35a17.65,17.65,0,0,0-5.39-1.45l-.82-8.52a2.07,2.07,0,0,0-2-2.21l-5.76,0c-.89-.34-1.84.52-2.19,1.42l-1.92,8.7a17.8,17.8,0,0,0-5.5,1L94.1,11.39a3,3,0,0,0-2.68-1l-5.56,2.17a2.06,2.06,0,0,0-1.32,2.36l1.74,8.26c-1.56.84-3.13,2.28-4.69,3.12l-6.72-5.45a2,2,0,0,0-2.74.18L68,24.76a2,2,0,0,0-.43,2.71l4.82,7.19c-1.29,1.76-2.87,3.2-3.56,5l-8.35-2.8a2.64,2.64,0,0,0-2.79,1.39l-2.36,5a2.61,2.61,0,0,0,1.07,3.08l7.06,4.56c-.69,1.79-.77,3.6-1.46,5.39l-8.52.83a2.64,2.64,0,0,0-1.93,2.34l-.25,5.44a2.63,2.63,0,0,0,1.7,2.5l8.73,1.3a35.69,35.69,0,0,0,.93,6.1L54.93,79a1.91,1.91,0,0,0-1,2.68l1.88,5.24a2.83,2.83,0,0,0,2.65,1.63l8.58-2,2.51,4.66-5.46,6.72a2.84,2.84,0,0,0,.18,2.73l4,4.42c.58.63,2.07,1,2.71.43l7.19-4.83c1.47,1,3.23,2.27,4.7,3.24l-2.2,8.38a2.06,2.06,0,0,0,1.1,2.47l5.33,2.67a2.59,2.59,0,0,0,2.76-.79l4.57-7.06c1.81.08,3.6.77,5.42.85l.5,8.81a2.63,2.63,0,0,0,2.34,1.92l5.73.56a3.66,3.66,0,0,0,2.21-2l1.6-8.41c2.13-.21,4-.73,6.1-.94l3.9,7.45a2.08,2.08,0,0,0,2.68,1l5.24-1.88a2.46,2.46,0,0,0,1.64-2.65L130,106a21.75,21.75,0,0,0,4.69-3.12l6.72,5.46a2,2,0,0,0,3,.14l4.11-3.75a2,2,0,0,0,.14-3l-4.82-7.19a15.11,15.11,0,0,0,3.56-5l8.36,2.8a2.06,2.06,0,0,0,2.47-1.1L161,85.93a3,3,0,0,0-.78-2.76l-7.35-4.88a15.44,15.44,0,0,0,1.15-5.1l8.84-1.12c.92-.26,1.87-1.13,1.9-1.73l.28-6a2.07,2.07,0,0,0-2-2.21l-8.41-1.59a33,33,0,0,0-.64-5.79l7.16-4.22a2.21,2.21,0,0,0,1.35-3l-1.88-5.24a1.91,1.91,0,0,0-2.68-1l-8.55,1.43L146.81,38,152,31.58"/><circle class="cls-2" cx="76" cy="72.74" r="55"/><path class="cls-3" d="M88.9,32.8l-21,21L54,43,48.9,46.16V72.8L54,76l14-10.79,21,21,13.33-5.71V37.87ZM54.61,67.08V51.84l7.62,7.62Zm21-7.62L88.9,48V70.89Z"/><text class="cls-4" transform="translate(37.66 100.36)">Visua<tspan class="cls-5" x="33.07" y="0">l</tspan><tspan class="cls-6" x="37.86" y="0">S</tspan><tspan x="44.85" y="0">tudio</tspan><tspan x="22.46" y="13">Code</tspan></text><path class="cls-1" d="M272.22,79.15A1.88,1.88,0,0,0,274,80.45l3.94-.12a2,2,0,0,0,1.61-2.05l.22-4.84a2.8,2.8,0,0,1,2-2.94c.63-.58,1.55-.84,2.19-1.42a3.39,3.39,0,0,1,3.31.45l4.41,2.93a2.29,2.29,0,0,0,2.13-.21l2.87-3.2a2.1,2.1,0,0,0-.49-2.45l-3.46-3.79a2.46,2.46,0,0,1-.47-3.05,13.71,13.71,0,0,0,.72-2.39c.06-1.21.72-2.39,2.85-2.6l4.58-.71A2.4,2.4,0,0,0,302,52l-.41-4.26a1.49,1.49,0,0,0-1.76-1.29l-4.84-.22A2.89,2.89,0,0,1,292,44.29c-.58-.63-.84-1.55-1.41-2.18a4.85,4.85,0,0,1,.16-3.63l2.9-3.81a2.19,2.19,0,0,0-.18-2.74l-3.23-2.27a1.84,1.84,0,0,0-2.42-.11l-3.51,3.78a3.09,3.09,0,0,1-3.37.76l-2.68-1A3.19,3.19,0,0,1,276,30.54l-.67-5.18a1.88,1.88,0,0,0-1.76-1.29l-4.26.41A1.49,1.49,0,0,0,268,26.24l-.54,5.13c-.08,1.81-3.19,3.49-3.82,4.07a3.18,3.18,0,0,1-3.63-.17l-4.09-3.21a2.36,2.36,0,0,0-2.45.49l-2.88,3.21a2.67,2.67,0,0,0,.5,2.45L254.54,42c1.15,1.27.09,4.55,0,5.76-.35.89-.69,1.79-2.82,2l-4.89,1a1.89,1.89,0,0,0-1.29,1.76l.41,4.26a1.93,1.93,0,0,0,1.44,1.58l5.15-.07c1.81.08,2.39.71,2.65,1.63a27.06,27.06,0,0,1,1.39,2.79,2.71,2.71,0,0,1,.15,3.34l-3.22,4.1a2.35,2.35,0,0,0,.49,2.44L257,75.13a1.84,1.84,0,0,0,2.42.11l3.51-3.78a3.08,3.08,0,0,1,3.37-.76l2.68,1c1.21.05,1.79.69,2.31,2.53l1,4.89M284.1,51.51a10.65,10.65,0,0,1-9.6,11.08A9.88,9.88,0,0,1,263.43,53a10.17,10.17,0,0,1,9.28-10.79,10.29,10.29,0,0,1,11.39,9.3"/><path class="cls-1" d="M307.42,79.76a1.27,1.27,0,0,1-1.48.3c-.19.17-.52-.57-.68-1.13l-.63-2.23c-.33-.75-1.06-.78-1.27-.24L301.63,78a2,2,0,0,1-1.51,1l-.87-1-1.57-1.72c-.52-.57-1.08-.42-1.29.13l-1,2.34a5.36,5.36,0,0,1-.8,1.43,10.73,10.73,0,0,1-1.25-.61l-2.16-.83c-.71-.4-1.1,0-1.13.68l.07,2.39a1.76,1.76,0,0,1-.43,1.45,4.48,4.48,0,0,1-1.29.12l-2.19-.1c-.73,0-1.11.32-.78,1.06l1,2.24c.16.56.3,1.48.3,1.48a4.37,4.37,0,0,1-1.31.49l-2.24,1c-.56.16-.77.7-.24,1.27l1.76,1.55a9.12,9.12,0,0,1,.86,1.32,9.17,9.17,0,0,1-1,1.24l-1.72,1.57c-.38.35-.23.91.32,1.11l2.16.83c.54.21,1.25.61,1.24,1a4.81,4.81,0,0,1-.24,1.27l-1.2,2.14c-.21.54.14.92.68,1.13l2.38-.08a3.6,3.6,0,0,1,1.64.26,1.38,1.38,0,0,1,.12,1.29l-.12,2.56c0,.73.51.94,1.06.78l2.07-1.19a1.85,1.85,0,0,1,1.66-.11c.19-.17.35.38.68,1.13l.63,2.23c.33.75.89.59,1.27.24l1.72-1.57a2,2,0,0,1,1.51-1l.87,1,1.57,1.72c.52.57,1.08.42,1.29-.12l.85-2.53a3.84,3.84,0,0,1,1-1.24,10.85,10.85,0,0,1,1.25.61l2.16.83c.72.4,1.1.05,1.13-.68l-.26-2.21a3.92,3.92,0,0,1,.45-1.81l1.46.06,2.19.1c.73,0,.94-.51.78-1.06l-1-2.24c-.16-.56-.3-1.48-.3-1.48a2.81,2.81,0,0,1,1.13-.68l2.42-.81c.56-.16.76-.7.24-1.27l-1.76-1.55a5.66,5.66,0,0,1-.86-1.32c-.17-.19.4-.72.78-1.06L317.71,91c.38-.35.23-.91-.31-1.11l-2.16-.83c-.54-.21-1.43-.8-1.24-1-.17-.19,0-.73.24-1.27l1.2-2.14c.21-.54-.14-.92-.87-1l-2.19-.1a10.15,10.15,0,0,1-1.64-.26,2.37,2.37,0,0,1-.3-1.48l.29-2.37c0-.73-.51-.94-1.06-.78Zm-4.31,12a3.52,3.52,0,0,1-1,5,3.42,3.42,0,1,1-3.6-5.8,3.39,3.39,0,0,1,4.64.84"/><line class="cls-7" x1="231.5" y1="30.5" x2="231.5" y2="53.5"/><circle class="cls-8" cx="238.92" cy="83.93" r="38"/><path class="cls-3" d="M225,89.41h-1.44V84.25a3.91,3.91,0,0,0-.46-2.16,1.75,1.75,0,0,0-1.55-.67,1.92,1.92,0,0,0-1.57.84,3.23,3.23,0,0,0-.65,2v5.13h-1.44V84.07q0-2.65-2-2.65a1.9,1.9,0,0,0-1.56.79,3.29,3.29,0,0,0-.62,2.07v5.13H212.2v-9h1.44v1.42h0a3.06,3.06,0,0,1,2.79-1.63A2.6,2.6,0,0,1,219,82.07a3.21,3.21,0,0,1,3-1.86q3,0,3,3.67Z"/><path class="cls-3" d="M234.15,89.41h-1.44V88h0a3,3,0,0,1-2.77,1.62,3,3,0,0,1-2.11-.71A2.47,2.47,0,0,1,227,87q0-2.52,3-2.94l2.7-.38q0-2.29-1.85-2.29a4.43,4.43,0,0,0-2.94,1.11V81A5.58,5.58,0,0,1,231,80.2q3.17,0,3.17,3.36Zm-1.44-4.55-2.17.3a3.54,3.54,0,0,0-1.51.5,1.43,1.43,0,0,0-.51,1.26A1.37,1.37,0,0,0,229,88a1.81,1.81,0,0,0,1.25.42,2.31,2.31,0,0,0,1.77-.75,2.69,2.69,0,0,0,.7-1.9Z"/><path class="cls-3" d="M243,89a4.68,4.68,0,0,1-2.46.62,4.08,4.08,0,0,1-3.11-1.25,4.54,4.54,0,0,1-1.18-3.25,5,5,0,0,1,1.27-3.57,4.46,4.46,0,0,1,3.4-1.35,4.73,4.73,0,0,1,2.09.44v1.48a3.66,3.66,0,0,0-2.14-.7,2.9,2.9,0,0,0-2.26,1,3.76,3.76,0,0,0-.88,2.6,3.58,3.58,0,0,0,.83,2.5,2.87,2.87,0,0,0,2.23.91,3.61,3.61,0,0,0,2.21-.78Z"/><path class="cls-3" d="M250.45,89.62a5.53,5.53,0,0,1-4.29-1.77,6.55,6.55,0,0,1-1.61-4.6,6.94,6.94,0,0,1,1.64-4.85,5.74,5.74,0,0,1,4.47-1.81,5.41,5.41,0,0,1,4.21,1.76,6.57,6.57,0,0,1,1.6,4.6,7,7,0,0,1-1.63,4.88A5.63,5.63,0,0,1,250.45,89.62Zm.11-11.69a4.06,4.06,0,0,0-3.23,1.43,6.37,6.37,0,0,0,0,7.51,3.94,3.94,0,0,0,3.15,1.42,4.14,4.14,0,0,0,3.27-1.35,5.53,5.53,0,0,0,1.2-3.79,5.78,5.78,0,0,0-1.16-3.86A4,4,0,0,0,250.56,77.93Z"/><path class="cls-3" d="M258.35,88.9V87.16a3.38,3.38,0,0,0,.72.47,5.74,5.74,0,0,0,.88.36,6.89,6.89,0,0,0,.93.22,5.17,5.17,0,0,0,.86.08,3.38,3.38,0,0,0,2-.5,1.9,1.9,0,0,0,.45-2.34,2.52,2.52,0,0,0-.62-.69,6.35,6.35,0,0,0-.94-.6l-1.17-.6q-.66-.33-1.23-.68a5.33,5.33,0,0,1-1-.76,3.14,3.14,0,0,1-.66-.94,3.19,3.19,0,0,1,.14-2.72,3.25,3.25,0,0,1,1-1,4.5,4.5,0,0,1,1.4-.62,6.42,6.42,0,0,1,1.6-.2,6.15,6.15,0,0,1,2.72.45v1.66a4.92,4.92,0,0,0-2.87-.77,4.71,4.71,0,0,0-1,.1,2.73,2.73,0,0,0-.86.33,1.91,1.91,0,0,0-.62.59,1.56,1.56,0,0,0-.24.88,1.8,1.8,0,0,0,.18.83,2,2,0,0,0,.53.64,5.26,5.26,0,0,0,.86.56l1.16.6q.68.33,1.28.7A5.87,5.87,0,0,1,265,84a3.65,3.65,0,0,1,.73,1,2.8,2.8,0,0,1,.27,1.25,3.17,3.17,0,0,1-.37,1.58,3,3,0,0,1-1,1,4.29,4.29,0,0,1-1.43.58,7.88,7.88,0,0,1-1.71.18,7,7,0,0,1-.74,0c-.29,0-.59-.08-.9-.14a6.9,6.9,0,0,1-.87-.23A2.65,2.65,0,0,1,258.35,88.9Z"/><path class="cls-1" d="M308.11,39.41a1,1,0,0,0,.9.66l2-.06a1,1,0,0,0,.82-1l.11-2.48A1.43,1.43,0,0,1,313,35c.32-.3.8-.43,1.12-.73a1.74,1.74,0,0,1,1.7.23L318,36a1.17,1.17,0,0,0,1.09-.11l1.47-1.64a1.07,1.07,0,0,0-.25-1.25L318.58,31c-.59-.65.11-2.48.13-2.79,0-.62.37-1.23,1.46-1.33l2.34-.36a1.23,1.23,0,0,0,.82-1l-.21-2.18a.76.76,0,0,0-.9-.66l-2.48-.11a1.48,1.48,0,0,1-1.51-1c-.3-.32-.43-.8-.72-1.12a2.48,2.48,0,0,1,.08-1.86l1.49-1.95a1.12,1.12,0,0,0-.09-1.4l-1.65-1.16a.94.94,0,0,0-1.24-.06l-1.8,1.94a1.58,1.58,0,0,1-1.72.39,4.8,4.8,0,0,0-1.23-.37A2.73,2.73,0,0,1,310,14.52l-.34-2.65a1,1,0,0,0-.9-.66l-2.18.21a.76.76,0,0,0-.66.9l-.28,2.63c0,.93-.37,1.22-.84,1.36-.32.3-.8.43-1.12.73a1.63,1.63,0,0,1-1.86-.08l-2.1-1.65a1.21,1.21,0,0,0-1.25.25L297,17.19a1.37,1.37,0,0,0,.25,1.25l1.77,1.94c.59.65,0,2.33,0,3-.18.46-.35.91-1.44,1l-2.51.51a1,1,0,0,0-.66.9l.21,2.18a1,1,0,0,0,.74.81l2.64,0c.93,0,1.22.36,1.36.84a13.86,13.86,0,0,1,.71,1.43,1.39,1.39,0,0,1,.08,1.71l-1.65,2.1A1.2,1.2,0,0,0,298.8,36l1.49,1.31a.94.94,0,0,0,1.24.06l1.8-1.94a1.58,1.58,0,0,1,1.72-.39l1.37.53c.62,0,.91.35,1.18,1.29l.51,2.5m6.08-14.15a5.45,5.45,0,0,1-4.92,5.67A5.06,5.06,0,0,1,303.61,26a5.2,5.2,0,0,1,4.75-5.52,5.27,5.27,0,0,1,5.83,4.76"/><polygon class="cls-9" points="327.3 96.39 302.96 119 296 119 306.44 89.44 317.93 84.22 327.3 96.39"/><polygon class="cls-9" points="344.7 96.39 369.04 119 376 119 365.56 89.44 354.07 84.22 344.7 96.39"/><polygon class="cls-9" points="344 111 330.09 111 333.56 104 340.52 104 344 111"/><path class="cls-10" d="M359,67.6c.21,21.48-12.58,36.4-12.58,36.4H327s-12.78-14.92-12.57-36.4c.07-7.67.76-14.22,2.35-19.77.37-1.33.78-2.61,1.23-3.83,0-.12.09-.23.13-.35,6-16.5,16.88-22.76,18.38-23.57l.17-.08.16.08.1.05c1.83,1,12.38,7.34,18.28,23.52,0,.12.09.23.13.35.45,1.22.86,2.5,1.24,3.83A75.45,75.45,0,0,1,359,67.6Z"/><path class="cls-9" d="M324.65,54.17H302.21A74.44,74.44,0,0,0,301,67a49.72,49.72,0,0,0,2.19,15h21.46Z"/><path class="cls-11" d="M332.41,82H316.76a49.77,49.77,0,0,1-2.19-15,75.43,75.43,0,0,1,1.2-12.82h15.65A75.43,75.43,0,0,0,330.22,67,49.77,49.77,0,0,0,332.41,82Z"/><polyline class="cls-7" points="180.01 28.45 186.92 21.55 229.86 21.55 236.45 28.13"/><line class="cls-7" x1="196.5" y1="27.29" x2="196.5" y2="21.79"/><line class="cls-7" x1="189.5" y1="27.29" x2="189.5" y2="21.79"/><line class="cls-7" x1="203.5" y1="27.25" x2="203.5" y2="21.75"/><line class="cls-7" x1="217.5" y1="27.25" x2="217.5" y2="21.75"/><line class="cls-7" x1="210.5" y1="27.25" x2="210.5" y2="21.75"/><line class="cls-7" x1="224.5" y1="27.25" x2="224.5" y2="21.75"/><polygon class="cls-12" points="169.84 14.07 170.91 13.76 175.65 27.36 174.27 27.36 169.84 14.07"/><line class="cls-7" x1="169.5" y1="14.5" x2="169.5" y2="29"/><path class="cls-12" d="M171.06,14.07a.85.85,0,0,1-.92.76.76.76,0,1,1,0-1.53.85.85,0,0,1,.92.76"/><polygon class="cls-12" points="178 38 177.1 38 172.91 41.82 168.74 38 167.91 38 167.91 38.59 172.16 42.5 167.91 46.41 167.91 47 168.74 47 172.91 43.18 177.1 47 178 47 178 46.47 173.65 42.5 178 38.53 178 38"/><rect class="cls-12" x="167" y="37" width="1" height="80"/><rect class="cls-12" x="178" y="37" width="1" height="80"/><line class="cls-7" x1="168" y1="48" x2="178" y2="57"/><line class="cls-7" x1="178" y1="48" x2="168" y2="57"/><line class="cls-7" x1="178" y1="67" x2="168" y2="58"/><line class="cls-7" x1="178" y1="58" x2="168" y2="67"/><line class="cls-7" x1="168" y1="68" x2="178" y2="77"/><line class="cls-7" x1="178" y1="68" x2="168" y2="77"/><line class="cls-7" x1="168" y1="78" x2="178" y2="87"/><line class="cls-7" x1="178" y1="78" x2="168" y2="87"/><line class="cls-7" x1="168" y1="88" x2="178" y2="97"/><line class="cls-7" x1="178" y1="88" x2="168" y2="97"/><line class="cls-7" x1="168" y1="98" x2="178" y2="107"/><line class="cls-7" x1="178" y1="98" x2="168" y2="107"/><line class="cls-7" x1="168" y1="108" x2="178" y2="117"/><line class="cls-7" x1="178" y1="108" x2="168" y2="117"/><polygon class="cls-13" points="153 128 194.85 128 191.85 116 155.85 116 153 128"/><polyline class="cls-7" points="190 22 196.5 27 203.5 22 210.5 27 217.5 22 224.5 27 230 22"/><rect class="cls-14" x="149" y="27.02" width="88" height="1.96"/><path class="cls-15" d="M234.39,27.11a.66.66,0,0,0-.61.61V28h-4.56v-.28a.61.61,0,0,0-1.22,0V32h7V27.72A.66.66,0,0,0,234.39,27.11Z"/><polyline class="cls-7" points="153.56 26.11 170.15 14.37 216.61 21.56"/><rect class="cls-13" x="149" y="25" width="6" height="11"/><line class="cls-7" x1="168" y1="57.5" x2="178" y2="57.5"/><line class="cls-7" x1="168" y1="47.5" x2="178" y2="47.5"/><line class="cls-7" x1="168" y1="37.5" x2="178" y2="37.5"/><polygon class="cls-14" points="180.44 28 166.09 28 166.09 38 180.44 38 183 33 180.44 28"/><line class="cls-16" x1="173" y1="30" x2="173" y2="36"/><line class="cls-16" x1="177" y1="30" x2="177" y2="36"/><line class="cls-7" x1="168" y1="67.5" x2="178" y2="67.5"/><line class="cls-7" x1="168" y1="77.5" x2="178" y2="77.5"/><line class="cls-7" x1="168" y1="87.5" x2="178" y2="87.5"/><line class="cls-7" x1="168" y1="97.5" x2="178" y2="97.5"/><line class="cls-7" x1="168" y1="107.5" x2="178" y2="107.5"/><path class="cls-17" d="M359,67.6c.21,21.48-12.58,36.4-12.58,36.4H337V20.13c1.83,1,12.38,7.34,18.28,23.52,0,.12.09.23.13.35.45,1.22.86,2.5,1.24,3.83A75.45,75.45,0,0,1,359,67.6Z"/><path class="cls-11" d="M355.41,44H318.06c0-.12.09-.23.13-.35,6-16.5,16.88-22.76,18.38-23.57l.17-.08.16.08c1.51.81,12.36,7.07,18.38,23.57C355.32,43.77,355.37,43.88,355.41,44Z"/></svg>