<svg xmlns="http://www.w3.org/2000/svg" viewBox="0 0 400 140"><defs><style>.cls-1{fill:#2a6dcf;}.cls-2{fill:#4d4d4d;}.cls-3{fill:#aad2f2;}.cls-4{fill:#80bceb;}.cls-5{fill:#633ba3;}.cls-6{fill:#5c2d91;}.cls-7{fill:#fff;}.cls-8{fill:#2b8fde;}.cls-9{fill:none;stroke:#5c2d91;stroke-miterlimit:10;stroke-width:2px;}.cls-10{font-size:12px;font-family:SegoeUI, Segoe UI;}</style></defs><title>net-docs-web-3</title><g id="ICONS"><ellipse class="cls-1" cx="164" cy="27.46" rx="10" ry="12.46"/><path class="cls-2" d="M163,13.06a10,10,0,0,1,1-.06h-1Z"/><path class="cls-2" d="M164,13a11,11,0,0,1,8.26,4H297V13Z"/><path class="cls-2" d="M285,13H173a4,4,0,0,0-3.29,1.74,13.13,13.13,0,0,1,4.05,4.33c1.78.29,9,6.49,9.1,7.78s31.29,8.51,38.22,10.59c6.49,1.94,11.15,8.42,7.5,15-1.89,3.4-9.11,12.18-11.62,13.73-3.72,2.3-15.19,12.18-15.3,14-.31,5-5.73,9.35-10.46,10.1a6.58,6.58,0,0,1-1.37.07L190,99h19c.24-7.21,5.51-24,12-24s11.74,16.79,12,24h19c.24-7.21,5.51-23,12-23s11.74,15.79,12,23h9a4,4,0,0,0,4-4V17A4,4,0,0,0,285,13Z"/><path class="cls-3" d="M174,18v1.48a16.53,16.53,0,0,1,2,8,17,17,0,0,1-.81,5.18c.32,3.93,1.23,9.75,3.89,10.51l.07,0,3,.88,15.21,4.47,16-6.56a6.48,6.48,0,0,1,2.64-.55,6.56,6.56,0,0,1,6,3.84,6.53,6.53,0,0,1-3.27,8.65l-19,9.41a6.68,6.68,0,0,1-2.2.59l-.57,0a6.53,6.53,0,0,1-2.12-.35l-5.76-1.5L189.92,94h20.14c1.88-4.71,6.07-8,10.95-8s9.07,3.29,10.95,8h21.1c1.88-4.71,6.07-8,10.95-8s9.07,3.29,10.95,8H284V18Z"/><polygon class="cls-4" points="284 18 284 66 236 18 284 18"/><path class="cls-1" d="M220.14,46.08a4.56,4.56,0,0,0-6-2.27l-16.63,6.83L181.58,46c-.93-.28-1.91-.57-2.94-.86l0,0-2-.56c-1.72,7.15-4.34,15.54-10.24,18.88-4.83,2.73-9.93-.49-12.27-4.9s-2.53-9.24-3.52-14l-2.39.61-1.63.44A8.84,8.84,0,0,0,141,50a11.43,11.43,0,0,0-1.28,4.42c-.61,6.36-.6,20.59-1.12,26.31-.19,2-.2,8.56,2.07,11.48A88.76,88.76,0,0,0,147,99.43V140h10.85c1.56-13.32,3.82-32.46,4.18-34.83.43-2.76,4.7-2.76,5.12,0,.37,2.37,3,21.51,4.71,34.83H182V97h6l-.33-12.33L187,59.47l8.42,2.19a4.54,4.54,0,0,0,1.93.25,4.49,4.49,0,0,0,1.48-.38l19-9.45A4.54,4.54,0,0,0,220.14,46.08Z"/><circle class="cls-5" cx="94.04" cy="50.04" r="38.04"/><path class="cls-6" d="M67.67,22.64a38,38,0,1,0,53.77,53.77Z"/><path class="cls-7" d="M73.07,68.88a1.18,1.18,0,0,1-.88-.37,1.21,1.21,0,0,1-.36-.88,1.23,1.23,0,0,1,.36-.89,1.18,1.18,0,0,1,.88-.37,1.21,1.21,0,0,1,.89.37,1.22,1.22,0,0,1,.37.89,1.26,1.26,0,0,1-1.26,1.25Z"/><path class="cls-7" d="M89.14,68.64h-2.3L78.62,55.9a5.28,5.28,0,0,1-.51-1H78a16.44,16.44,0,0,1,.09,2.19V68.64H76.26v-16h2.43l8,12.54q.5.78.65,1.07h0a16.92,16.92,0,0,1-.11-2.35V52.66h1.87Z"/><path class="cls-7" d="M100.2,68.64H91.73v-16h8.11v1.69H93.6v5.32h5.77v1.68H93.6v5.59h6.6Z"/><path class="cls-7" d="M112.73,54.35h-4.61V68.64h-1.87V54.35h-4.6V52.66h11.09Z"/><path class="cls-7" d="M90.78,48.06H88.7L87,43.58H80.23l-1.59,4.48H76.56l6.13-16h1.94ZM86.4,41.9l-2.51-6.81A6.52,6.52,0,0,1,83.64,34h0a6.07,6.07,0,0,1-.26,1.07L80.86,41.9Z"/><path class="cls-7" d="M92.38,47.42V45.21a4.3,4.3,0,0,0,.91.6,7.35,7.35,0,0,0,1.11.45,8.81,8.81,0,0,0,1.18.28,6.55,6.55,0,0,0,1.09.1A4.28,4.28,0,0,0,99.25,46a2.4,2.4,0,0,0,.57-3,3.21,3.21,0,0,0-.79-.87,7.9,7.9,0,0,0-1.19-.76l-1.48-.76q-.84-.42-1.56-.86a6.68,6.68,0,0,1-1.26-1,4,4,0,0,1-.84-1.19,4.05,4.05,0,0,1,.17-3.45,4.1,4.1,0,0,1,1.26-1.33,5.73,5.73,0,0,1,1.78-.78,8.19,8.19,0,0,1,2-.26,7.81,7.81,0,0,1,3.44.57v2.11a6.24,6.24,0,0,0-3.63-1,5.94,5.94,0,0,0-1.23.13,3.45,3.45,0,0,0-1.09.42,2.42,2.42,0,0,0-.78.75,2,2,0,0,0-.3,1.11A2.28,2.28,0,0,0,94.59,37a2.58,2.58,0,0,0,.67.81,6.69,6.69,0,0,0,1.09.71q.64.35,1.48.76t1.63.89a7.39,7.39,0,0,1,1.35,1,4.6,4.6,0,0,1,.92,1.26,3.55,3.55,0,0,1,.34,1.58,4,4,0,0,1-.46,2,3.78,3.78,0,0,1-1.25,1.33,5.43,5.43,0,0,1-1.81.74,10,10,0,0,1-2.16.23,8.68,8.68,0,0,1-.94-.06q-.56-.06-1.14-.18a9,9,0,0,1-1.1-.29A3.39,3.39,0,0,1,92.38,47.42Z"/><path class="cls-7" d="M106.21,42v6h-1.87v-16h4.39a5.79,5.79,0,0,1,4,1.25,4.45,4.45,0,0,1,1.41,3.52,4.84,4.84,0,0,1-1.57,3.72A6,6,0,0,1,108.32,42Zm0-8.25v6.55h2a4.38,4.38,0,0,0,3-.89,3.14,3.14,0,0,0,1-2.5q0-3.16-3.74-3.16Z"/><path class="cls-8" d="M217.86,52.08l-19,9.45a4.49,4.49,0,0,1-1.48.38,4.54,4.54,0,0,1-1.93-.25L187,59.47l.67,25.2L188,97,141,50a8.84,8.84,0,0,1,5.55-4.38l1.63-.44c4.12-1.09,9.89-2.39,9.89-2.39l6,12.48h.1l6-12.48,2.7.72c1.61.43,3.73,1,5.79,1.59l0,0c1,.29,2,.58,2.94.86l15.9,4.68,16.63-6.83a4.54,4.54,0,1,1,3.75,8.27Z"/><ellipse class="cls-1" cx="221" cy="99.5" rx="10" ry="11.5"/><path class="cls-1" d="M240.75,128.86a3.07,3.07,0,0,1-2.87,3H204.2a3.07,3.07,0,0,1-3-3c-.41-8.21-1.5-18.62,8.49-21.1a14.09,14.09,0,0,0,9.42,5.4,13.3,13.3,0,0,0,1.55.09,13.94,13.94,0,0,0,11-5.61C242.28,109.9,241.17,120.52,240.75,128.86Z"/><ellipse class="cls-1" cx="264" cy="99.5" rx="10" ry="11.5"/><path class="cls-1" d="M283.75,128.86a3.07,3.07,0,0,1-3,3H247.2a3.07,3.07,0,0,1-3-3c-.32-6.36-1-14,3.29-18.32a10.84,10.84,0,0,1,5.2-2.78,14,14,0,0,0,11,5.49,10.92,10.92,0,0,0,1.29-.07,14,14,0,0,0,9.76-5.54C285.28,109.9,284.17,120.52,283.75,128.86Z"/><line class="cls-9" x1="201" y1="33" x2="266" y2="33"/><line class="cls-9" x1="230" y1="41" x2="266" y2="41"/><line class="cls-9" x1="230" y1="50" x2="266" y2="50"/><line class="cls-9" x1="221" y1="59" x2="266" y2="59"/></g><g id="Titles"><text class="cls-10" transform="translate(0 -13.12)">What isASP.NET?</text></g></svg>