<svg id="ICONS" xmlns="http://www.w3.org/2000/svg" viewBox="0 0 400 140"><defs><style>.cls-1{fill:#221f1f;}.cls-2{fill:#333;}.cls-3{fill:#acacac;}.cls-4{fill:#5e5e5e;}.cls-5{fill:#5e615f;}.cls-6{fill:#80bceb;}.cls-7{fill:#fff;}.cls-8{fill:#aad2f2;}.cls-9{fill:#008272;}.cls-10{fill:#2b978a;}.cls-11,.cls-14{fill:none;}.cls-12{fill:#d4e8f8;}.cls-13{fill:#e4edf1;}.cls-14{stroke:#e4edf1;stroke-miterlimit:10;stroke-width:2px;}</style></defs><title>net-docs-desktop-3</title><path class="cls-1" d="M284,133H116c-5.61,0-7-6-7-6H291S288.35,133,284,133Z"/><path class="cls-2" d="M254.63,80C251,80,248,77.58,248,74V19H130.71A3.63,3.63,0,0,0,127,22.92V122H272V80Z"/><polygon class="cls-3" points="109 127 127 121 272 121 291 127 109 127"/><polygon class="cls-4" points="130.24 125 135.21 123 263.47 123 268.83 125 130.24 125"/><polygon class="cls-5" points="201 117.5 196 116.8 196 113.52 201 112.5 201 117.5"/><path class="cls-6" d="M254.63,80C251,80,248,76.58,248,73V24H211l-79,0V108l135-.09V80Z"/><polygon class="cls-7" points="194 64 194 43.88 173 46.7 173 64 194 64"/><polygon class="cls-7" points="196 64 224 64 224 40 196 43.7 196 64"/><polygon class="cls-7" points="196 66 196 87.25 224 91.13 224 66 196 66"/><polygon class="cls-7" points="194 66 173 66 173 84 194 87 194 66"/><polygon class="cls-8" points="248 23.99 237.86 23.99 214 24 248 58 248 23.99"/><path class="cls-9" d="M301.88,30.75V73.5a4.51,4.51,0,0,1-4.5,4.5H254.62a4.51,4.51,0,0,1-4.5-4.5v-63a4.51,4.51,0,0,1,4.5-4.5h22.5l.88.88L300.13,29Z"/><path class="cls-10" d="M296.25,78H254.63a4.51,4.51,0,0,1-4.5-4.5V31.88Z"/><polygon class="cls-9" points="301.88 30.75 301.88 30.95 277.13 30.95 277.13 6 301.88 30.75"/><rect class="cls-11" x="240" y="6" width="72" height="72"/><polygon class="cls-12" points="301.88 30.75 301.88 31 276 31 276 6 277.12 6 278 6.88 278 29 300.13 29 301.88 30.75"/><circle class="cls-13" cx="261" cy="37" r="3"/><circle class="cls-13" cx="261" cy="47" r="3"/><circle class="cls-13" cx="261" cy="57" r="3"/><circle class="cls-13" cx="261" cy="67" r="3"/><line class="cls-14" x1="268" y1="37" x2="294" y2="37"/><line class="cls-14" x1="268" y1="47" x2="294" y2="47"/><line class="cls-14" x1="268" y1="57" x2="294" y2="57"/><line class="cls-14" x1="268" y1="67" x2="294" y2="67"/></svg>