<?xml version="1.0" encoding="utf-8"?>
<!-- Generator: Adobe Illustrator 21.0.0, SVG Export Plug-In . SVG Version: 6.00 Build 0)  -->
<svg version="1.1" id="Layer_1" xmlns="http://www.w3.org/2000/svg" xmlns:xlink="http://www.w3.org/1999/xlink" x="0px" y="0px"
	 width="80px" height="80px" viewBox="0 0 80 80" enable-background="new 0 0 80 80" xml:space="preserve">
<g>
	<circle fill="#0B9E0B" cx="40" cy="40" r="35"/>
	<path fill="#05930C" d="M15.735,14.79C9.122,21.157,5,30.094,5,40c0,19.33,15.67,35,35,35c9.906,0,18.843-4.122,25.21-10.735
		L15.735,14.79z"/>
	<g>
		<path fill="#FFFFFF" d="M37.598,52.778c-2.27,1.066-4.86,1.6-7.772,1.6c-2.078,0-3.965-0.366-5.66-1.097s-3.141-1.747-4.337-3.045
			s-2.119-2.844-2.769-4.635s-0.974-3.746-0.974-5.865c0-2.229,0.345-4.303,1.036-6.224s1.678-3.589,2.963-5.004
			s2.84-2.526,4.666-3.333s3.873-1.21,6.142-1.21c2.502,0,4.737,0.383,6.706,1.148v2.912c-2.105-1.053-4.354-1.579-6.747-1.579
			c-1.9,0-3.589,0.328-5.065,0.984s-2.721,1.569-3.732,2.738s-1.784,2.55-2.317,4.143s-0.8,3.333-0.8,5.219
			c0,1.695,0.239,3.292,0.718,4.789s1.186,2.806,2.123,3.927s2.102,2.01,3.497,2.666s3.015,0.984,4.86,0.984
			c2.83,0,5.318-0.595,7.465-1.784V52.778z"/>
		<path fill="#FFFFFF" d="M63.396,34.67h-5.455l-1.436,6.624h5.804l-0.451,1.887h-5.722l-1.784,8.162H52.24l1.764-8.162h-5.312
			l-1.743,8.162h-2.111l1.743-8.162h-5.578l0.39-1.887h5.598l1.395-6.624H42.54l0.41-1.887h5.823l1.764-8.326h2.112l-1.764,8.326
			h5.332l1.784-8.326h2.092l-1.784,8.326h5.517L63.396,34.67z M50.517,34.67l-1.456,6.624h5.353l1.436-6.624H50.517z"/>
	</g>
</g>
</svg>
