<svg id="ICONS" xmlns="http://www.w3.org/2000/svg" viewBox="0 0 400 140"><defs><style>.cls-1{fill:#2a6dcf;}.cls-11,.cls-2{fill:none;}.cls-3{fill:#55a5e4;}.cls-4{fill:#80bceb;}.cls-5{fill:#333;}.cls-6{fill:#b3b3b3;}.cls-7{fill:#1a1a1a;}.cls-8{fill:gray;}.cls-9{fill:#aad2f2;}.cls-10{fill:#fff;}.cls-11{stroke:#543b76;stroke-miterlimit:10;stroke-width:2px;}</style></defs><title>net-docs-cloud-1</title><path class="cls-1" d="M313,20v84H229V38a8,8,0,0,0-8-8h-8V20h47.19l2.75,1.85L266.24,20Z"/><rect class="cls-2" x="213" y="9" width="100" height="100"/><path class="cls-3" d="M299,14V96H272a9.61,9.61,0,0,0-7.46,3.3c-.11.12-.21.25-.31.37a3.76,3.76,0,0,0-.24.36,9.49,9.49,0,0,0-1,2,9.48,9.48,0,0,0-1-2,3.75,3.75,0,0,0-.24-.36c-.1-.12-.2-.25-.31-.37a10.29,10.29,0,0,0-7.76-3.3H229V38a8,8,0,0,0-2-5.27V14h26.69a10,10,0,0,1,7.76,3.76l.27.33,0,.05.24.32a5.85,5.85,0,0,1,1,2.42,5.85,5.85,0,0,1,1-2.42l.24-.32,0-.05.27-.33C265.83,16.33,299,14,299,14Z"/><path class="cls-4" d="M299,14V67L246,14h7.69a10,10,0,0,1,7.76,3.76l.27.33,0,.05A6,6,0,0,1,263,20.88a6,6,0,0,1,1.24-2.74l0-.05.27-.33A10.18,10.18,0,0,1,272.31,14C281.24,13.84,299,14,299,14Z"/><rect class="cls-5" x="104" y="32" width="123" height="94" rx="6" ry="6"/><rect class="cls-6" x="166" y="114" width="3" height="3"/><rect class="cls-4" x="108" y="36" width="115" height="77"/><path class="cls-7" d="M238.09,131H94.6c-4.8,0-5.59-6-5.59-6H243.37S241.81,131,238.09,131Z"/><polygon class="cls-8" points="89 125 104.75 119 227.51 119 243.35 125 89 125"/><polygon class="cls-9" points="223 36 223 68 191 36 223 36"/><path class="cls-10" d="M187.36,68.33a16.43,16.43,0,0,0-30.9,3.77,12.3,12.3,0,0,0-9.21,4.9h19.53a8,8,0,1,1,0,10H145a12.29,12.29,0,0,0,12.24,10.93h29.6S201.94,96,201.94,83.06A14.8,14.8,0,0,0,187.36,68.33Z"/><circle class="cls-10" cx="173.02" cy="82" r="5"/><path class="cls-10" d="M169.63,80H143a8,8,0,0,1-8.27-7.89A8.27,8.27,0,0,1,143,63.84h3.77a12.19,12.19,0,0,1,.87-2.76,5.47,5.47,0,0,0,.44-.94,10.94,10.94,0,0,1,9.5-5.44,11.06,11.06,0,0,1,8.85,4.43A15.89,15.89,0,0,1,170,57.89a14.63,14.63,0,0,0-26,2.25h-1a12.09,12.09,0,0,0-12,12A11.85,11.85,0,0,0,143,84h26.65Z"/><line class="cls-11" x1="233" y1="35" x2="256" y2="35"/><line class="cls-11" x1="270" y1="35" x2="293" y2="35"/><line class="cls-11" x1="270" y1="43" x2="293" y2="43"/><line class="cls-11" x1="270" y1="51" x2="293" y2="51"/><line class="cls-11" x1="270" y1="59" x2="293" y2="59"/><line class="cls-11" x1="270" y1="67" x2="293" y2="67"/><line class="cls-11" x1="233" y1="43" x2="256" y2="43"/><line class="cls-11" x1="233" y1="51" x2="256" y2="51"/><line class="cls-11" x1="233" y1="59" x2="256" y2="59"/><line class="cls-11" x1="233" y1="67" x2="256" y2="67"/><path class="cls-10" d="M264,18.46V100a9.49,9.49,0,0,0-1,2,9.48,9.48,0,0,0-1-2V18.46a5.85,5.85,0,0,1,1,2.42A5.85,5.85,0,0,1,264,18.46Z"/></svg>