<?xml version="1.0" encoding="utf-8"?>
<!-- Generator: Adobe Illustrator 20.1.0, SVG Export Plug-In . SVG Version: 6.00 Build 0)  -->
<svg version="1.1" id="Layer_1" xmlns="http://www.w3.org/2000/svg" xmlns:xlink="http://www.w3.org/1999/xlink" x="0px" y="0px"
	 viewBox="0 0 200 144" style="enable-background:new 0 0 200 144;" xml:space="preserve">
<style type="text/css">
	.st0{opacity:0.3;fill:#00BCF2;}
	.st1{fill:#FFFFFF;}
	.st2{fill:#3498DB;}
	.st3{opacity:0.3;fill:#FFF100;}
	.st4{fill:#A4CA39;}
	.st5{opacity:0.3;fill:#B4A0FF;}
	.st6{clip-path:url(#SVGID_4_);}
	.st7{fill:#2E2E2E;}
	.st8{fill:#E3E3E3;}
	.st9{fill:#ADADAD;}
	.st10{fill:#96BCCE;}
	.st11{fill:#619BB5;}
	.st12{fill:#447995;}
	.st13{fill:#767576;}
	.st14{fill:#90908F;}
	.st15{fill:#2F75BB;}
	.st16{fill:none;stroke:#757575;stroke-width:0.5847;stroke-miterlimit:10;}
	.st17{fill:#ACACAC;}
	.st18{fill:#428ECC;}
	.st19{fill:#B0CDDA;}
	.st20{fill:#505050;}
</style>
<rect y="-0.25" class="st0" width="200" height="144.25"/>
<g>
	<defs>
		<rect id="SVGID_1_" y="6.5" width="200" height="140"/>
	</defs>
	<clipPath id="SVGID_2_">
		<use xlink:href="#SVGID_1_"  style="overflow:visible;"/>
	</clipPath>
</g>
<g>
	<g>
		<rect x="42.809" y="65.511" class="st1" width="46.66" height="52.642"/>
		<path class="st2" d="M109.681,85.852c-1.518-2.277-15.941-27.327-17.712-30.364c-1.771-3.036-4.302-4.048-7.591-4.048
			c-0.83,0-2.646,0-5.037,0c-6.62,0-18.754,0-25.833,0c-2.39,0-4.206,0-5.037,0c-3.289,0-5.82,1.012-7.591,4.048
			c-1.771,3.036-16.194,28.086-17.712,30.364c-1.518,2.277-1.518,5.061,1.012,9.615s15.182,26.821,16.7,29.605
			c1.518,2.783,3.795,4.428,7.591,4.428c0.847,0,2.838,0,5.416,0c8.97,0,25.074,0,25.074,0c2.578,0,4.569,0,5.416,0
			c3.795,0,6.073-1.645,7.591-4.428c1.518-2.783,14.17-25.05,16.7-29.605S111.199,88.129,109.681,85.852z M86.117,110.776h-8.35
			L66.472,91.189l-11.295,19.586h-8.35L58.213,90.47L46.827,70.164h8.477l11.169,19.579l11.169-19.579h8.477L74.731,90.47
			L86.117,110.776z"/>
	</g>
</g>
<g>
	<polygon class="st20" points="116.478,89.143 92.868,48.249 116.478,7.356 163.697,7.356 187.307,48.249 163.697,89.143 	"/>
</g>
<g>
	<path class="st1" d="M122.218,39.651c-0.337,0-0.629-0.118-0.875-0.355s-0.369-0.538-0.369-0.902c0-0.355,0.123-0.649,0.369-0.882
		s0.538-0.349,0.875-0.349c0.173,0,0.337,0.029,0.492,0.089s0.289,0.144,0.403,0.253s0.205,0.239,0.273,0.39
		s0.103,0.316,0.103,0.499c0,0.173-0.032,0.337-0.096,0.492s-0.155,0.289-0.273,0.403s-0.253,0.203-0.403,0.267
		S122.401,39.651,122.218,39.651z M121.357,57.192v-14h1.75v14H121.357z"/>
	<path class="st1" d="M135.89,57.534c-1.413,0-2.685-0.258-3.814-0.772s-2.09-1.219-2.878-2.112s-1.395-1.943-1.818-3.151
		s-0.636-2.504-0.636-3.89c0-1.531,0.212-2.933,0.636-4.204s1.041-2.36,1.853-3.268s1.805-1.613,2.98-2.119s2.516-0.759,4.02-0.759
		c1.386,0,2.63,0.248,3.732,0.745s2.042,1.185,2.816,2.064s1.369,1.921,1.784,3.124s0.622,2.511,0.622,3.924
		c0,1.485-0.203,2.864-0.608,4.136s-1.003,2.372-1.791,3.302s-1.759,1.659-2.912,2.188S137.394,57.534,135.89,57.534z
		 M136.04,38.913c-1.185,0-2.235,0.226-3.151,0.677s-1.688,1.062-2.317,1.832s-1.105,1.673-1.429,2.707s-0.49,2.135-0.499,3.302
		c-0.009,1.112,0.135,2.176,0.431,3.192s0.743,1.914,1.34,2.693s1.352,1.401,2.263,1.866s1.978,0.697,3.199,0.697
		s2.295-0.212,3.22-0.636s1.697-1.012,2.317-1.764s1.087-1.647,1.401-2.687s0.472-2.174,0.472-3.404
		c0-1.148-0.139-2.237-0.417-3.268s-0.711-1.93-1.299-2.7s-1.338-1.381-2.249-1.832S137.317,38.913,136.04,38.913z"/>
	<path class="st1" d="M148.345,54.321c0.328,0.246,0.69,0.467,1.087,0.663s0.802,0.36,1.217,0.492s0.832,0.232,1.251,0.301
		s0.82,0.103,1.203,0.103c1.485,0,2.598-0.287,3.336-0.861s1.107-1.399,1.107-2.475c0-0.52-0.087-0.973-0.26-1.36
		s-0.442-0.75-0.807-1.087s-0.825-0.672-1.381-1.005s-1.212-0.709-1.969-1.128c-0.839-0.456-1.557-0.887-2.153-1.292
		s-1.085-0.82-1.463-1.244s-0.656-0.882-0.834-1.374s-0.267-1.053-0.267-1.682c0-0.793,0.169-1.504,0.506-2.133
		s0.793-1.164,1.367-1.606s1.246-0.781,2.017-1.019s1.593-0.355,2.468-0.355c1.54,0,2.83,0.214,3.869,0.643v2.01
		c-1.157-0.665-2.516-0.998-4.074-0.998c-0.583,0-1.133,0.07-1.647,0.212s-0.966,0.349-1.354,0.622s-0.692,0.613-0.916,1.019
		s-0.335,0.877-0.335,1.415c0,0.511,0.075,0.95,0.226,1.319s0.392,0.718,0.725,1.046s0.771,0.654,1.313,0.978
		s1.205,0.695,1.989,1.114c0.82,0.438,1.536,0.863,2.146,1.278s1.119,0.848,1.524,1.299s0.709,0.93,0.909,1.436
		s0.301,1.068,0.301,1.688c0,0.856-0.159,1.611-0.479,2.263s-0.766,1.191-1.34,1.62s-1.258,0.752-2.051,0.971
		s-1.663,0.328-2.611,0.328c-0.31,0-0.679-0.025-1.107-0.075s-0.861-0.123-1.299-0.219s-0.854-0.21-1.251-0.342
		s-0.718-0.275-0.964-0.431V54.321z"/>
</g>
</svg>
