<?xml version="1.0" encoding="utf-8"?>
<!-- Generator: Adobe Illustrator 21.0.0, SVG Export Plug-In . SVG Version: 6.00 Build 0)  -->
<svg version="1.1" id="Layer_1" xmlns="http://www.w3.org/2000/svg" xmlns:xlink="http://www.w3.org/1999/xlink" x="0px" y="0px"
	 width="80px" height="80px" viewBox="0 0 80 80" enable-background="new 0 0 80 80" xml:space="preserve">
<g>
	<circle fill="#025D9B" cx="40" cy="40" r="35"/>
	<path fill="#004E8C" d="M15.735,14.79C9.122,21.157,5,30.094,5,40c0,19.33,15.67,35,35,35c9.906,0,18.843-4.122,25.21-10.735
		L15.735,14.79z"/>
	<g>
		<path fill="#FFFFFF" d="M30.218,53.865h-2.666L16.847,24.457h3.056l8.326,23.502c0.15,0.438,0.284,0.878,0.4,1.323
			s0.208,0.906,0.277,1.384h0.082c0.068-0.383,0.164-0.803,0.287-1.261s0.28-0.954,0.472-1.487l8.675-23.461h2.953L30.218,53.865z"
			/>
		<path fill="#FFFFFF" d="M45.783,53.865V24.457h8.038c1.217,0,2.314,0.164,3.292,0.492s1.812,0.79,2.502,1.384
			s1.22,1.309,1.589,2.143s0.554,1.75,0.554,2.748c0,0.848-0.116,1.641-0.349,2.379s-0.567,1.412-1.005,2.02
			s-0.974,1.135-1.61,1.579s-1.357,0.796-2.164,1.056v0.082c0.984,0.096,1.88,0.335,2.687,0.718s1.497,0.882,2.071,1.497
			s1.019,1.336,1.333,2.164s0.472,1.733,0.472,2.717c0,1.244-0.226,2.382-0.677,3.415s-1.083,1.921-1.897,2.666
			s-1.781,1.323-2.902,1.733s-2.358,0.615-3.712,0.615H45.783z M48.511,26.959v10.438h3.814c0.998,0,1.9-0.13,2.707-0.39
			s1.497-0.636,2.071-1.128s1.015-1.087,1.323-1.784s0.461-1.483,0.461-2.358c0-3.186-1.982-4.778-5.947-4.778H48.511z
			 M48.511,39.858v11.525h5.065c2.174,0,3.845-0.509,5.014-1.528s1.753-2.464,1.753-4.337c0-3.773-2.563-5.66-7.69-5.66H48.511z"/>
	</g>
</g>
</svg>
