<?xml version="1.0" encoding="utf-8"?>
<!-- Generator: Adobe Illustrator 20.1.0, SVG Export Plug-In . SVG Version: 6.00 Build 0)  -->
<svg version="1.1" xmlns="http://www.w3.org/2000/svg" xmlns:xlink="http://www.w3.org/1999/xlink" x="0px" y="0px"
	 viewBox="0 0 200 144" style="enable-background:new 0 0 200 144;" xml:space="preserve">
<style type="text/css">
	.st0{opacity:0.3;fill:#BAD80A;}
	.st1{fill:#BAD80A;}
	.st2{fill:#757575;}
	.st3{fill:#682A7A;}
	.st4{fill:#2E2E2E;}
	.st5{fill:#478AA9;}
	.st6{fill:#672A79;}
	.st7{fill:#334D63;}
	.st8{fill:#5D5F5E;}
	.st9{fill:#4889A8;}
	.st10{fill:#929090;}
	.st11{fill:#FAB516;}
	.st12{fill:#F5891F;}
	.st13{fill:#CB6D29;}
	.st14{fill:#96BBCD;}
	.st15{fill:#3A5C71;}
	.st16{opacity:0.3;fill:#008272;}
	.st17{clip-path:url(#SVGID_2_);}
	.st18{fill:#231F20;}
	.st19{fill:#5D605F;}
	.st20{fill:#ACACAC;}
	.st21{fill:#5D5D5D;}
	.st22{clip-path:url(#SVGID_4_);}
	.st23{fill:#474748;}
	.st24{fill:#929497;}
	.st25{fill:#1772B8;}
	.st26{fill:#767778;}
	.st27{fill:#A86527;}
	.st28{fill:#048273;}
	.st29{clip-path:url(#SVGID_6_);}
	.st30{fill:#C7C7C7;}
	.st31{fill:#909090;}
	.st32{opacity:0.3;fill:#B4A0FF;}
	.st33{fill:#344D63;}
	.st34{fill:#00BCF2;}
	.st35{opacity:0.3;fill:#00BCF2;}
	.st36{fill:#505050;}
	.st37{fill:#007ACC;}
	.st38{fill:#FFFFFF;}
	.st39{opacity:0.3;fill:#FFD565;}
	.st40{fill:#804998;}
	.st41{opacity:0.2;fill:#FFFFFF;enable-background:new    ;}
	.st42{fill:#70469E;}
	.st43{fill:#5C2D91;}
</style>
<g id="Layer_1">
	<rect class="st32" width="200" height="144"/>
	<ellipse class="st33" cx="58.1" cy="25.1" rx="9.9" ry="12"/>
	<ellipse class="st33" cx="148.7" cy="110.9" rx="10.4" ry="11.3"/>
	<path class="st33" d="M159.3,120.6c-2.5,3.3-6.4,5.4-10.7,5.4c-4.2,0-8-2.1-10.6-5.3c-9.6,2.4-8.6,12.5-8.2,20.4
		c0.1,1.6,1.3,2.9,2.8,2.9h32.4c1.5,0,2.8-1.3,2.8-2.9C168.4,133,169.4,122.8,159.3,120.6z"/>
	<ellipse class="st33" cx="102.2" cy="110.9" rx="10.4" ry="11.3"/>
	<path class="st33" d="M112.8,120.6c-2.5,3.3-6.4,5.4-10.7,5.4c-4.2,0-8-2.1-10.6-5.3c-9.6,2.4-8.6,12.5-8.2,20.4
		c0.1,1.6,1.3,2.9,2.8,2.9h32.4c1.5,0,2.8-1.3,2.8-2.9C121.9,133,123,122.8,112.8,120.6z"/>
	<path class="st33" d="M35.6,89c2.7,3.5,4.6,5.9,5.6,7l0.1,48h9.9c1.2-10.4,4.6-39.6,5.1-42.5c0.4-2.7,4.5-2.7,4.9,0
		c0.5,2.9,3.9,32.1,5.1,42.5h10l-0.1-50.2h4.3V57.3l8,2.1c0.6,0.2,1.2,0.3,1.9,0.2c0.5,0,1-0.2,1.4-0.4l18.4-9.1
		c2.2-1,3.2-3.6,2.2-5.8c-1-2.2-3.6-3.2-5.8-2.2l-16.1,6.6l-15.4-4.5c-0.9-0.3-1.8-0.6-2.8-0.8l0,0l0,0c-4-1.1-8.2-2.2-8.2-2.2
		l-5.8,12.1h-0.1l-5.8-12.1c0,0-7.3,1.6-11.1,2.7c-3.9,1.1-6.2,4.1-6.6,8.5c-0.6,6.2-0.6,19.9-1.1,25.4C33.4,79.8,33.4,86.1,35.6,89
		z"/>
	<rect x="82.7" y="29.9" class="st34" width="63.2" height="4.4"/>
	<rect x="118.1" y="38.6" class="st34" width="27.8" height="4.4"/>
	<rect x="118.1" y="47.3" class="st34" width="27.8" height="4.4"/>
	<polygon class="st34" points="114.3,14.4 114.3,9.5 105.6,9.5 105.6,14.4 75,14.4 75,23.1 157.2,23.1 157.2,84.4 87.4,84.4 
		87.4,93.1 165.9,93.1 165.9,14.4 	"/>
</g>
<g id="titles">
</g>
</svg>
