<svg id="Layer_1" data-name="Layer 1" xmlns="http://www.w3.org/2000/svg" viewBox="0 0 400 140"><defs><style>.cls-1{fill:#aad2f2;}.cls-2{fill:#e4edf1;}.cls-3,.cls-5,.cls-9{fill:none;}.cls-3{stroke:#808285;stroke-linecap:round;stroke-linejoin:round;stroke-width:1.31px;stroke-dasharray:1.31 2.62;}.cls-4{fill:#2a6dcf;fill-rule:evenodd;}.cls-5{stroke:#2a6dcf;stroke-miterlimit:10;stroke-width:2px;}.cls-6{fill:#767676;}.cls-7{fill:#515050;}.cls-8{fill:#414042;}.cls-10{fill:#231f20;}.cls-11{fill:#a7a9ac;}.cls-12{fill:#6d6e71;}.cls-13{fill:#fff;}.cls-14{fill:#393939;}.cls-15{fill:#e73c00;}</style></defs><title>net-docs-gaming-3</title><path class="cls-1" d="M199,44a27,27,0,1,0,27,27A27,27,0,0,0,199,44Zm0,53a26,26,0,1,1,26-26A26,26,0,0,1,199,97Z"/><circle class="cls-1" cx="199" cy="71" r="22"/><path class="cls-2" d="M199,92a21,21,0,1,1,21-21A21,21,0,0,1,199,92Z"/><path class="cls-1" d="M199,88a17,17,0,1,1,17-17A17,17,0,0,1,199,88Z"/><path class="cls-2" d="M199,87a16,16,0,1,1,16-16A16,16,0,0,1,199,87Z"/><path class="cls-1" d="M199,59a12,12,0,1,0,12,12A12,12,0,0,0,199,59Zm0,23a11,11,0,1,1,11-11A11,11,0,0,1,199,82Z"/><line class="cls-3" x1="70" y1="70" x2="240.17" y2="70"/><path class="cls-4" d="M311,19.05a54,54,0,1,0,33.08,68.83A54,54,0,0,0,311,19.05ZM276,119.08a52,52,0,1,1,66.28-31.86A52.06,52.06,0,0,1,276,119.08Z"/><line class="cls-5" x1="315.02" y1="7.73" x2="306.41" y2="32.26"/><line class="cls-5" x1="233.72" y1="49.15" x2="258.26" y2="57.76"/><line class="cls-5" x1="333.74" y1="84.24" x2="358.28" y2="92.85"/><line class="cls-5" x1="279.93" y1="107.75" x2="271.32" y2="132.29"/><path d="M328.56,60.22c0-.39-1.62-6.82-9.73-10.83-.78-.38-2.8.39-3.35.45s-4.94,1.85-4.94,1.85l-13.16-4.79s-2.22-4.19-2.6-4.59-1.43-2.29-2.27-2.5c-8.8-2.14-14.16,1.75-14.42,2-.44.49-5.06,4.7-5.06,4.7,2.07-.44,18.12,8.95,26.24,15.61,10.5.12,28.83,3.24,30.14,4.91C329.42,67.08,328.58,60.88,328.56,60.22Z"/><path class="cls-6" d="M329.6,65.48a3.65,3.65,0,0,0-1.4-3c-1.88-2.4-7.73-7.15-10.17-8s-4.26,1.44-6.85,3.13C307.4,60,306.76,59.9,305,59.26l-4.14-1.51-4.14-1.51c-1.74-.63-2.27-1-3.61-5.27-.9-3-.8-5.92-3.24-6.8s-10-1-13-.37a3.65,3.65,0,0,0-3,1.41c-1.77,2-17.8,18.34-20.69,26.35-3.82,10.57,4.59,15.72,5.41,16s11.07-5.27,14.51-6.79,5.37-.33,7,.26L291,85l10.81,3.94c1.62.6,3.87.93,5.53,4.3s6.06,14.27,6.76,14.53,10.57,1.76,14.44-8.79C331.44,91,329.67,68.14,329.6,65.48Z"/><path d="M292.68,74.44a7.5,7.5,0,1,1-4.5-9.6,7.47,7.47,0,0,1,4.5,9.6"/><path class="cls-7" d="M287.27,57.54a7.09,7.09,0,0,1-9.22,4.32,7.16,7.16,0,0,1-4.32-9.22,7.24,7.24,0,0,1,9.22-4.32,7.16,7.16,0,0,1,4.32,9.22"/><path class="cls-8" d="M318.34,73.91a2.4,2.4,0,1,1-1.41-3,2.41,2.41,0,0,1,1.41,3"/><path class="cls-8" d="M324.5,71a2.4,2.4,0,1,1-1.41-3,2.41,2.41,0,0,1,1.41,3"/><path class="cls-8" d="M315.48,67.76a2.4,2.4,0,1,1-1.41-3,2.41,2.41,0,0,1,1.41,3"/><path class="cls-8" d="M321.63,64.89a2.4,2.4,0,1,1-1.41-3,2.41,2.41,0,0,1,1.41,3"/><path d="M304,64.27A1.8,1.8,0,1,1,302.9,62a1.78,1.78,0,0,1,1.08,2.3"/><path d="M297.21,61.8a1.8,1.8,0,1,1-1.08-2.3,1.78,1.78,0,0,1,1.08,2.3"/><path d="M283.91,56.25a3.6,3.6,0,1,1-2.18-4.55A3.64,3.64,0,0,1,283.91,56.25Z"/><polygon class="cls-9" points="252.42 82.33 322.14 107.53 339 58.51 269.27 33.31 252.42 82.33"/><rect class="cls-7" x="280.13" y="70.39" width="11" height="3" transform="translate(120.38 315.71) rotate(-70)"/><rect class="cls-7" x="280.13" y="70.39" width="11" height="3" transform="translate(529.45 237.14) rotate(-160)"/><path class="cls-8" d="M311.47,81.3A7.5,7.5,0,1,1,307,71.69,7.49,7.49,0,0,1,311.47,81.3Z"/><path class="cls-10" d="M311.47,81.3a7.49,7.49,0,0,1-3.25,3.9l-6.31-13.53a7.5,7.5,0,0,1,9.56,9.63Z"/><circle class="cls-11" cx="304.43" cy="78.73" r="5.5" transform="translate(126.32 337.87) rotate(-70)"/><circle class="cls-12" cx="304.43" cy="78.73" r="4.5" transform="translate(126.32 337.87) rotate(-70)"/><circle class="cls-8" cx="304.43" cy="78.73" r="3.5" transform="translate(126.32 337.87) rotate(-70)"/><polygon class="cls-13" points="63.59 126 31.75 71.16 63.59 16 127.29 16 159.13 71.16 127.29 126 63.59 126"/><path class="cls-14" d="M68.92,103.82V97.13l-2.77,6.69h-.41L63,97.13v6.69H62V95.7h1.45l2.52,6.12,2.53-6.12h1.45v8.13Z"/><path class="cls-14" d="M74.85,104a4.15,4.15,0,0,1-1.65-.32,3.74,3.74,0,0,1-1.27-.88,4,4,0,0,1-.82-1.34,4.91,4.91,0,0,1,0-3.34,4,4,0,0,1,.82-1.34,3.73,3.73,0,0,1,1.27-.88,4.42,4.42,0,0,1,3.29,0,3.73,3.73,0,0,1,1.27.88,4,4,0,0,1,.82,1.34,4.91,4.91,0,0,1,0,3.34,4,4,0,0,1-.82,1.34,3.74,3.74,0,0,1-1.27.88A4.14,4.14,0,0,1,74.85,104Zm0-.9a2.93,2.93,0,0,0,1.23-.25,2.73,2.73,0,0,0,.94-.69,3.17,3.17,0,0,0,.6-1,3.9,3.9,0,0,0,.21-1.31,4,4,0,0,0-.21-1.32,3.1,3.1,0,0,0-.6-1,2.79,2.79,0,0,0-.94-.69,2.93,2.93,0,0,0-1.23-.25,3,3,0,0,0-1.24.25,2.75,2.75,0,0,0-.94.69,3,3,0,0,0-.6,1,4.09,4.09,0,0,0-.21,1.32,4,4,0,0,0,.21,1.31,3.11,3.11,0,0,0,.6,1,2.7,2.7,0,0,0,.94.69A3,3,0,0,0,74.85,103.07Z"/><path class="cls-14" d="M85.53,103.82l-4.74-6.48v6.48h-1V95.7h1L85.5,102V95.7h1v8.13Z"/><path class="cls-14" d="M91.47,104a4.15,4.15,0,0,1-1.65-.32,3.74,3.74,0,0,1-1.27-.88,4,4,0,0,1-.82-1.34,4.91,4.91,0,0,1,0-3.34,4,4,0,0,1,.82-1.34,3.74,3.74,0,0,1,1.27-.88,4.42,4.42,0,0,1,3.29,0,3.74,3.74,0,0,1,1.27.88,4,4,0,0,1,.82,1.34,4.91,4.91,0,0,1,0,3.34,4,4,0,0,1-.82,1.34,3.74,3.74,0,0,1-1.27.88A4.14,4.14,0,0,1,91.47,104Zm0-.9a2.93,2.93,0,0,0,1.23-.25,2.73,2.73,0,0,0,.94-.69,3.17,3.17,0,0,0,.6-1,3.9,3.9,0,0,0,.21-1.31,4,4,0,0,0-.21-1.32,3.1,3.1,0,0,0-.6-1,2.78,2.78,0,0,0-.94-.69,2.93,2.93,0,0,0-1.23-.25,3,3,0,0,0-1.24.25,2.75,2.75,0,0,0-.94.69,3,3,0,0,0-.6,1,4.09,4.09,0,0,0-.21,1.32,4,4,0,0,0,.21,1.31,3.1,3.1,0,0,0,.6,1,2.7,2.7,0,0,0,.94.69A3,3,0,0,0,91.47,103.07Z"/><path class="cls-15" d="M100.57,104a4.66,4.66,0,0,1-1.67-.3,4.2,4.2,0,0,1-1.38-.85,3.93,3.93,0,0,1-.93-1.33,4.62,4.62,0,0,1,0-3.48,3.93,3.93,0,0,1,.93-1.33,4.1,4.1,0,0,1,1.38-.84,4.75,4.75,0,0,1,1.67-.29,4.27,4.27,0,0,1,1.15.15,3.86,3.86,0,0,1,.93.4,3.57,3.57,0,0,1,.73.58,4.39,4.39,0,0,1,.55.7l-1.44.78a2.52,2.52,0,0,0-.77-.74,2.08,2.08,0,0,0-1.15-.32,2.55,2.55,0,0,0-1,.2,2.45,2.45,0,0,0-.81.56,2.57,2.57,0,0,0-.53.85A2.9,2.9,0,0,0,98,99.77a3,3,0,0,0,.19,1.07,2.49,2.49,0,0,0,.53.85,2.44,2.44,0,0,0,.81.56,2.55,2.55,0,0,0,1,.2,2.61,2.61,0,0,0,1-.2,2.34,2.34,0,0,0,.71-.43v-1h-2.14V99.31H104v3.13a4.74,4.74,0,0,1-1.49,1.12A4.46,4.46,0,0,1,100.57,104Z"/><path class="cls-15" d="M110.62,103.82l-.5-1.38h-3.48l-.51,1.38h-2l3.14-8.13h2.17l3.13,8.13Zm-2.24-6.4-1.27,3.5h2.53Z"/><path class="cls-15" d="M120.11,103.82V98.13l-2.29,5.69h-.75l-2.29-5.69v5.69H113V95.7h2.42l2,4.91,2-4.91h2.43v8.13Z"/><path class="cls-15" d="M123.16,103.82V95.7h5.75v1.52h-4v1.72h3.94v1.52h-3.94v1.84h4v1.52Z"/><path class="cls-15" d="M121.88,61.4V54.18A15.6,15.6,0,0,0,95.44,42.95,15.6,15.6,0,0,0,69,54.18V75.84A15.63,15.63,0,0,0,84.61,91.45h21.67a15.63,15.63,0,0,0,15.61-15.61V65.35H90.66V74.9h21.66v.94a6.06,6.06,0,0,1-6.05,6.06H84.61a6.06,6.06,0,0,1-6.05-6.06V54.18a6.06,6.06,0,1,1,12.11,0V61.4h9.55V54.18a6.06,6.06,0,1,1,12.11,0V61.4Z"/></svg>