<svg id="ICONS" xmlns="http://www.w3.org/2000/svg" viewBox="0 0 400 140"><defs><style>.cls-1,.cls-11,.cls-12,.cls-13,.cls-17{fill:none;}.cls-1{stroke:#757575;}.cls-1,.cls-12,.cls-13,.cls-17{stroke-miterlimit:10;}.cls-2{fill:#757575;}.cls-3{fill:#929090;}.cls-4{fill:#2a8ede;}.cls-5{fill:#55a5e4;}.cls-6{fill:#2a6dcf;}.cls-7{fill:#ffb255;}.cls-8{fill:#ff9f2b;}.cls-9{fill:#cb6d29;}.cls-10{fill:#bad80a;}.cls-11{stroke:#bad80a;stroke-linejoin:bevel;stroke-width:3px;}.cls-12{stroke:#aad2f2;}.cls-13{stroke:#ff8c00;}.cls-14{fill:#414042;}.cls-15{fill:#2b8fde;}.cls-16{fill:#5d5f5e;}.cls-17{stroke:#334d63;stroke-width:2px;}</style></defs><title>net-docs-web-1</title><polyline class="cls-1" points="77.01 34.45 83.92 27.55 126.86 27.55 133.45 34.13"/><line class="cls-1" x1="93.5" y1="33.29" x2="93.5" y2="27.79"/><line class="cls-1" x1="86.5" y1="33.29" x2="86.5" y2="27.79"/><line class="cls-1" x1="100.5" y1="33.25" x2="100.5" y2="27.75"/><line class="cls-1" x1="114.5" y1="33.25" x2="114.5" y2="27.75"/><line class="cls-1" x1="107.5" y1="33.25" x2="107.5" y2="27.75"/><line class="cls-1" x1="121.5" y1="33.25" x2="121.5" y2="27.75"/><polygon class="cls-2" points="66.84 20.07 67.91 19.76 72.64 33.35 71.27 33.35 66.84 20.07"/><line class="cls-1" x1="66.5" y1="20.5" x2="66.5" y2="35"/><path class="cls-2" d="M68.06,20.07a.85.85,0,0,1-.92.76.76.76,0,1,1,0-1.53.85.85,0,0,1,.92.76"/><rect class="cls-3" x="98" y="58.47" width="3" height="15.53"/><rect class="cls-3" x="153" y="58.47" width="3" height="15.53"/><rect class="cls-4" x="92.1" y="53" width="18.9" height="18.9"/><line class="cls-1" x1="128.5" y1="36" x2="128.5" y2="54"/><rect class="cls-5" x="111" y="53" width="50" height="19"/><polygon class="cls-6" points="113 54 113 55 114 56 114 71 115 71 115 54 113 54"/><polygon class="cls-6" points="124 54 124 55 125 56 125 71 126 71 126 54 124 54"/><polygon class="cls-6" points="135 54 135 55 136 56 136 71 137 71 137 54 135 54"/><polygon class="cls-6" points="146 54 146 55 147 56 147 71 148 71 148 54 146 54"/><polygon class="cls-6" points="157 54 157 55 158 56 158 71 159 71 159 54 157 54"/><rect class="cls-3" x="127" y="97.47" width="3" height="15.53"/><rect class="cls-3" x="182" y="97.47" width="3" height="15.53"/><rect class="cls-4" x="122.1" y="92" width="18.9" height="18.9"/><rect class="cls-5" x="140" y="92" width="50" height="19"/><polygon class="cls-6" points="142 93 142 94 143 95 143 110 144 110 144 93 142 93"/><polygon class="cls-6" points="153 93 153 94 154 95 154 110 155 110 155 93 153 93"/><polygon class="cls-6" points="164 93 164 94 165 95 165 110 166 110 166 93 164 93"/><polygon class="cls-6" points="175 93 175 94 176 95 176 110 177 110 177 93 175 93"/><polygon class="cls-6" points="186 93 186 94 187 95 187 110 188 110 188 93 186 93"/><rect class="cls-3" x="127" y="118.47" width="3" height="15.53"/><rect class="cls-3" x="182" y="118.47" width="3" height="15.53"/><rect class="cls-7" x="122.1" y="113" width="18.9" height="19"/><rect class="cls-8" x="140" y="113" width="50" height="19"/><polygon class="cls-9" points="142 114 142 115 143 116 143 131 144 131 144 114 142 114"/><polygon class="cls-9" points="153 114 153 115 154 116 154 131 155 131 155 114 153 114"/><polygon class="cls-9" points="164 114 164 115 165 116 165 131 166 131 166 114 164 114"/><polygon class="cls-9" points="175 114 175 115 176 116 176 131 177 131 177 114 175 114"/><polygon class="cls-9" points="186 114 186 115 187 116 187 131 188 131 188 114 186 114"/><rect class="cls-3" x="201" y="97.47" width="3" height="15.53"/><path class="cls-10" d="M288,13c7.09,0,15,15.81,15,38.5S295.09,90,288,90s-15-15.81-15-38.5S280.91,13,288,13m0-3c-9.94,0-18,18.58-18,41.5S278.06,93,288,93s18-18.58,18-41.5S297.94,10,288,10Z"/><path class="cls-11" d="M254,29.43A97.7,97.7,0,0,0,288,36a94.41,94.41,0,0,0,35-7"/><rect class="cls-3" x="256" y="97.47" width="3" height="15.53"/><rect class="cls-4" x="196.1" y="92" width="18.9" height="18.9"/><rect class="cls-5" x="214" y="92" width="50" height="19"/><polygon class="cls-6" points="216 93 216 94 217 95 217 110 218 110 218 93 216 93"/><polygon class="cls-6" points="227 93 227 94 228 95 228 110 229 110 229 93 227 93"/><polygon class="cls-6" points="238 93 238 94 239 95 239 110 240 110 240 93 238 93"/><polygon class="cls-6" points="249 93 249 94 250 95 250 110 251 110 251 93 249 93"/><polygon class="cls-6" points="260 93 260 94 261 95 261 110 262 110 262 93 260 93"/><rect class="cls-3" x="201" y="118.47" width="3" height="15.53"/><rect class="cls-3" x="256" y="118.47" width="3" height="15.53"/><rect class="cls-4" x="196.1" y="113" width="18.9" height="19"/><rect class="cls-5" x="214" y="113" width="50" height="19"/><polygon class="cls-6" points="216 114 216 115 217 116 217 131 218 131 218 114 216 114"/><polygon class="cls-6" points="227 114 227 115 228 116 228 131 229 131 229 114 227 114"/><polygon class="cls-6" points="238 114 238 115 239 116 239 131 240 131 240 114 238 114"/><polygon class="cls-6" points="249 114 249 115 250 116 250 131 251 131 251 114 249 114"/><polygon class="cls-6" points="260 114 260 115 261 116 261 131 262 131 262 114 260 114"/><rect class="cls-3" x="201" y="55.47" width="3" height="15.53"/><rect class="cls-3" x="256" y="55.47" width="3" height="15.53"/><rect class="cls-4" x="196.1" y="50" width="18.9" height="18.9"/><rect class="cls-5" x="214" y="50" width="50" height="19"/><polygon class="cls-6" points="216 51 216 52 217 53 217 68 218 68 218 51 216 51"/><polygon class="cls-6" points="227 51 227 52 228 53 228 68 229 68 229 51 227 51"/><polygon class="cls-6" points="238 51 238 52 239 53 239 68 240 68 240 51 238 51"/><polygon class="cls-6" points="249 51 249 52 250 53 250 68 251 68 251 51 249 51"/><polygon class="cls-6" points="260 51 260 52 261 53 261 68 262 68 262 51 260 51"/><rect class="cls-3" x="201" y="76.47" width="3" height="15.53"/><rect class="cls-3" x="256" y="76.47" width="3" height="15.53"/><rect class="cls-7" x="196.1" y="71" width="18.9" height="19"/><path class="cls-10" d="M288,65.5a92.78,92.78,0,0,0-22,2.77v3.09a90.12,90.12,0,0,1,22-2.86,93.46,93.46,0,0,1,34.47,6.88l1.15-2.77A96.57,96.57,0,0,0,288,65.5Z"/><rect class="cls-10" x="266" y="50" width="64" height="3"/><path class="cls-10" d="M288,9a42,42,0,0,0-41.88,39h3A39,39,0,1,1,266,83.18v3.6A42,42,0,1,0,288,9Z"/><rect class="cls-8" x="214" y="71" width="50" height="19"/><polygon class="cls-9" points="216 72 216 73 217 74 217 89 218 89 218 72 216 72"/><polygon class="cls-9" points="227 72 227 73 228 74 228 89 229 89 229 72 227 72"/><polygon class="cls-9" points="238 72 238 73 239 74 239 89 240 89 240 72 238 72"/><polygon class="cls-9" points="249 72 249 73 250 74 250 89 251 89 251 72 249 72"/><polygon class="cls-9" points="260 72 260 73 261 74 261 89 262 89 262 72 260 72"/><polygon class="cls-2" points="75 44 74.1 44 69.91 47.82 65.74 44 64.91 44 64.91 44.59 69.17 48.5 64.91 52.41 64.91 53 65.74 53 69.91 49.18 74.1 53 75 53 75 52.47 70.64 48.5 75 44.53 75 44"/><line class="cls-12" x1="95" y1="58.5" x2="108" y2="58.5"/><line class="cls-12" x1="95" y1="62.5" x2="108" y2="62.5"/><line class="cls-12" x1="95" y1="66.5" x2="108" y2="66.5"/><line class="cls-12" x1="125" y1="97.5" x2="137" y2="97.5"/><line class="cls-12" x1="125" y1="101.5" x2="137" y2="101.5"/><line class="cls-12" x1="125" y1="105.5" x2="137" y2="105.5"/><line class="cls-12" x1="198" y1="54.5" x2="212" y2="54.5"/><line class="cls-12" x1="198" y1="58.5" x2="212" y2="58.5"/><line class="cls-12" x1="198" y1="62.5" x2="212" y2="62.5"/><line class="cls-12" x1="198" y1="96.5" x2="212" y2="96.5"/><line class="cls-12" x1="198" y1="100.5" x2="212" y2="100.5"/><line class="cls-12" x1="198" y1="104.5" x2="212" y2="104.5"/><line class="cls-13" x1="198" y1="75.5" x2="212" y2="75.5"/><line class="cls-13" x1="198" y1="79.5" x2="212" y2="79.5"/><line class="cls-13" x1="198" y1="83.5" x2="212" y2="83.5"/><line class="cls-12" x1="198" y1="117.5" x2="212" y2="117.5"/><line class="cls-12" x1="198" y1="121.5" x2="212" y2="121.5"/><line class="cls-12" x1="198" y1="125.5" x2="212" y2="125.5"/><line class="cls-13" x1="124" y1="117.5" x2="138" y2="117.5"/><line class="cls-13" x1="124" y1="121.5" x2="138" y2="121.5"/><line class="cls-13" x1="124" y1="125.5" x2="138" y2="125.5"/><rect class="cls-2" x="64" y="43" width="1" height="80"/><rect class="cls-2" x="75" y="43" width="1" height="80"/><line class="cls-1" x1="65" y1="54" x2="75" y2="63"/><line class="cls-1" x1="75" y1="54" x2="65" y2="63"/><line class="cls-1" x1="75" y1="73" x2="65" y2="64"/><line class="cls-1" x1="75" y1="64" x2="65" y2="73"/><line class="cls-1" x1="65" y1="74" x2="75" y2="83"/><line class="cls-1" x1="75" y1="74" x2="65" y2="83"/><line class="cls-1" x1="65" y1="84" x2="75" y2="93"/><line class="cls-1" x1="75" y1="84" x2="65" y2="93"/><line class="cls-1" x1="65" y1="94" x2="75" y2="103"/><line class="cls-1" x1="75" y1="94" x2="65" y2="103"/><line class="cls-1" x1="65" y1="104" x2="75" y2="113"/><line class="cls-1" x1="75" y1="104" x2="65" y2="113"/><line class="cls-1" x1="65" y1="114" x2="75" y2="123"/><line class="cls-1" x1="75" y1="114" x2="65" y2="123"/><polygon class="cls-14" points="50 134 91.85 134 88.85 122 52.85 122 50 134"/><polyline class="cls-1" points="87 28 93.5 33 100.5 28 107.5 33 114.5 28 121.5 33 127 28"/><rect class="cls-15" x="46" y="33.02" width="88" height="1.96"/><path class="cls-16" d="M131.39,33.11a.66.66,0,0,0-.61.61V34h-4.56v-.28a.61.61,0,0,0-1.22,0V38h7V33.72A.66.66,0,0,0,131.39,33.11Z"/><polyline class="cls-1" points="50.56 32.11 67.14 20.37 113.61 27.56"/><rect class="cls-14" x="46" y="31" width="6" height="11"/><line class="cls-1" x1="65" y1="63.5" x2="75" y2="63.5"/><line class="cls-1" x1="65" y1="53.5" x2="75" y2="53.5"/><line class="cls-1" x1="65" y1="43.5" x2="75" y2="43.5"/><polygon class="cls-15" points="77.44 34 63.09 34 63.09 44 77.44 44 80 39 77.44 34"/><line class="cls-17" x1="70" y1="36" x2="70" y2="42"/><line class="cls-17" x1="74" y1="36" x2="74" y2="42"/><line class="cls-1" x1="65" y1="73.5" x2="75" y2="73.5"/><line class="cls-1" x1="65" y1="83.5" x2="75" y2="83.5"/><line class="cls-1" x1="65" y1="93.5" x2="75" y2="93.5"/><line class="cls-1" x1="65" y1="103.5" x2="75" y2="103.5"/><line class="cls-1" x1="65" y1="113.5" x2="75" y2="113.5"/></svg>