<?xml version="1.0" encoding="utf-8"?>
<!-- Generator: Adobe Illustrator 21.0.0, SVG Export Plug-In . SVG Version: 6.00 Build 0)  -->
<svg version="1.1" id="Layer_1" xmlns="http://www.w3.org/2000/svg" xmlns:xlink="http://www.w3.org/1999/xlink" x="0px" y="0px"
	 width="80px" height="80px" viewBox="0 0 80 80" enable-background="new 0 0 80 80" xml:space="preserve">
<g id="Page-1">
	<g id="xamagon">
		<path id="Logo" fill="#3498DB" d="M24.141,5c-2.026,0.004-4.008,1.154-5.028,2.908l-15.86,27.55
			c-1.004,1.759-1.004,4.058,0,5.816l15.86,27.55c1.02,1.754,3.003,2.904,5.028,2.908h31.719c2.026-0.004,4.008-1.154,5.028-2.908
			l15.859-27.55c1.004-1.759,1.004-4.058,0-5.816L60.888,7.908C59.868,6.154,57.885,5.004,55.859,5H24.141L24.141,5z M24.428,21.117
			c0.044-0.004,0.089-0.004,0.133,0h5.471c0.242,0.005,0.477,0.145,0.598,0.355l9.281,16.539c0.047,0.082,0.077,0.173,0.088,0.266
			c0.011-0.094,0.042-0.185,0.088-0.266l9.259-16.539c0.125-0.217,0.371-0.357,0.62-0.355h5.471c0.484,0.004,0.847,0.614,0.62,1.043
			l-9.06,16.206l9.06,16.184c0.248,0.431-0.123,1.07-0.62,1.065h-5.471c-0.254-0.002-0.501-0.153-0.62-0.377l-9.259-16.539
			c-0.047-0.082-0.077-0.173-0.088-0.266c-0.011,0.094-0.041,0.185-0.088,0.266L30.63,55.238c-0.115,0.218-0.352,0.368-0.598,0.377
			h-5.471c-0.497,0.004-0.869-0.634-0.62-1.065l9.059-16.184L23.941,22.16C23.724,21.769,23.989,21.201,24.428,21.117L24.428,21.117
			z"/>
	</g>
</g>
</svg>
