<svg xmlns="http://www.w3.org/2000/svg" viewBox="0 0 400 140"><defs><style>.cls-1{fill:#9273b6;}.cls-2{fill:#804998;}.cls-3{fill:#f1f2f2;}.cls-4{fill:#4d4e4e;}.cls-5{fill:#7750a3;}.cls-6{fill:#a48ac2;}.cls-7{fill:#5c2d91;}.cls-8{font-size:12px;font-family:SegoeUI, Segoe UI;}</style></defs><title>net-docs-web-5</title><g id="ICONS"><polygon class="cls-1" points="293 40.81 268 50.44 268 10.67 293 19.33 293 40.81"/><polygon class="cls-2" points="246 18 246 43 266 50.44 266 10.99 246 18"/><polygon class="cls-3" points="251 18.26 251 42.01 248 40.81 248 19.31 251 18.26"/><polygon class="cls-3" points="257 16.15 257 44.4 253 42.81 253 17.56 257 16.15"/><polygon class="cls-3" points="264 13.7 264 47.2 259 45.2 259 15.45 264 13.7"/><polygon class="cls-1" points="232 40.81 207 50.44 207 10.67 232 19.33 232 40.81"/><polygon class="cls-2" points="185 18 185 43 205 50.44 205 10.99 185 18"/><polygon class="cls-3" points="190 18.26 190 42.01 187 40.81 187 19.31 190 18.26"/><polygon class="cls-3" points="196 16.15 196 44.4 192 42.81 192 17.56 196 16.15"/><polygon class="cls-3" points="203 13.7 203 47.2 198 45.2 198 15.45 203 13.7"/><polygon class="cls-1" points="232 121.38 207 131 207 91.23 232 99.89 232 121.38"/><polygon class="cls-2" points="185 98.56 185 123.56 205 131 205 91.55 185 98.56"/><polygon class="cls-3" points="190 98.82 190 122.57 187 121.37 187 99.87 190 98.82"/><polygon class="cls-3" points="196 96.71 196 124.96 192 123.37 192 98.12 196 96.71"/><polygon class="cls-3" points="203 94.26 203 127.76 198 125.76 198 96.01 203 94.26"/><polygon class="cls-1" points="266 78.38 241 88 241 48.23 266 56.89 266 78.38"/><polygon class="cls-2" points="219 55.56 219 80.56 239 88 239 48.55 219 55.56"/><polygon class="cls-3" points="224 55.82 224 79.57 221 78.37 221 56.87 224 55.82"/><polygon class="cls-3" points="230 53.71 230 81.96 226 80.37 226 55.12 230 53.71"/><polygon class="cls-3" points="237 51.26 237 84.76 232 82.76 232 53.01 237 51.26"/><polygon class="cls-1" points="205 78.38 180 88 180 48.23 205 56.89 205 78.38"/><polygon class="cls-2" points="158 55.56 158 80.56 178 88 178 48.55 158 55.56"/><polygon class="cls-3" points="163 55.82 163 79.57 160 78.37 160 56.87 163 55.82"/><polygon class="cls-3" points="169 53.71 169 81.96 165 80.37 165 55.12 169 53.71"/><polygon class="cls-3" points="176 51.26 176 84.76 171 82.76 171 53.01 176 51.26"/><polygon class="cls-1" points="293 121.38 268 131 268 91.23 293 99.89 293 121.38"/><polygon class="cls-2" points="246 98.56 246 123.56 266 131 266 91.55 246 98.56"/><polygon class="cls-3" points="251 98.82 251 122.57 248 121.37 248 99.87 251 98.82"/><polygon class="cls-3" points="257 96.71 257 124.96 253 123.37 253 98.12 257 96.71"/><polygon class="cls-3" points="264 94.26 264 127.76 259 125.76 259 96.01 264 94.26"/><polygon class="cls-4" points="111.3 99.39 86.96 122 80 122 90.44 92.44 101.93 87.22 111.3 99.39"/><polygon class="cls-4" points="128.7 99.39 153.04 122 160 122 149.56 92.44 138.07 87.22 128.7 99.39"/><polygon class="cls-4" points="128 113 114.09 113 117.56 106.04 124.52 106.04 128 113"/><path class="cls-5" d="M143.3,70.6c.21,21.48-12.57,36.4-12.57,36.4H111.36S98.57,92.08,98.78,70.6a75.45,75.45,0,0,1,2.35-19.77c.28-1,.57-1.92.88-2.83.16-.46.32-.91.49-1.35,6-16.5,16.87-22.76,18.38-23.57L121,23l.17.08c1.5.81,12.36,7.07,18.38,23.57q.25.66.48,1.35c.32.91.61,1.86.88,2.83C142.54,56.38,143.23,62.93,143.3,70.6Z"/><path class="cls-6" d="M107.65,58H85.21A75.36,75.36,0,0,0,84,70.89,50.32,50.32,0,0,0,86.19,86h21.46Z"/><path class="cls-4" d="M116,86H100.35a50.37,50.37,0,0,1-2.19-15.1A76.36,76.36,0,0,1,99.36,58H115a76.36,76.36,0,0,0-1.2,12.9A50.37,50.37,0,0,0,116,86Z"/><path class="cls-1" d="M143.3,70.6c.21,21.48-12.58,36.4-12.58,36.4H121V23a1.32,1.32,0,0,1,.21.08c1.5.81,12.35,7.07,18.38,23.57.5,1.32.95,2.71,1.36,4.17C142.54,56.38,143.23,62.93,143.3,70.6Z"/><path class="cls-7" d="M140.07,48H102c.16-.46.32-.91.49-1.35,6-16.5,16.87-22.76,18.38-23.57L121,23l.17.08c1.5.81,12.36,7.07,18.38,23.57Q139.85,47.31,140.07,48Z"/></g><g id="Titles"><text class="cls-8" transform="translate(0 -14.6)">ASP.NET Apps in Containers</text></g></svg>