<?xml version="1.0" encoding="utf-8"?>
<!-- Generator: Adobe Illustrator 20.1.0, SVG Export Plug-In . SVG Version: 6.00 Build 0)  -->
<svg version="1.1" id="Layer_1" xmlns="http://www.w3.org/2000/svg" xmlns:xlink="http://www.w3.org/1999/xlink" x="0px" y="0px"
	 viewBox="0 0 200 144" style="enable-background:new 0 0 200 144;" xml:space="preserve">
<style type="text/css">
	.st0{opacity:0.3;fill:#00BCF2;}
	.st1{fill:#505050;}
	.st2{fill:#FFFFFF;}
	.st3{fill:#3498DB;}
	.st4{opacity:0.3;fill:#FFF100;}
	.st5{fill:#A4CA39;}
	.st6{opacity:0.3;fill:#B4A0FF;}
	.st7{clip-path:url(#SVGID_4_);}
	.st8{fill:#2E2E2E;}
	.st9{fill:#E3E3E3;}
	.st10{fill:#ADADAD;}
	.st11{fill:#96BCCE;}
	.st12{fill:#619BB5;}
	.st13{fill:#447995;}
	.st14{fill:#767576;}
	.st15{fill:#90908F;}
	.st16{fill:#2F75BB;}
	.st17{fill:none;stroke:#757575;stroke-width:0.5847;stroke-miterlimit:10;}
	.st18{fill:#ACACAC;}
	.st19{fill:#428ECC;}
	.st20{fill:#B0CDDA;}
</style>
<rect y="0.3" class="st4" width="200" height="143.8"/>
<g>
	<g>
		<g>
			<polygon class="st5" points="114.3,87.9 93.1,51.2 114.3,14.5 156.7,14.5 177.9,51.2 156.7,87.9 			"/>
		</g>
	</g>
	<path class="st2" d="M122,43.3h26.3v21c0,1.8-0.9,2.6-2.7,2.6H143v7.4c0,1.7-0.9,3.1-2.6,3.1c-1.7,0-2.6-1.4-2.6-3.1V67h-5.3v7.4
		c0,1.7-0.9,3.1-2.6,3.1c-1.7,0-2.6-1.4-2.6-3.1V67h-2.5c-1.8,0-2.7-0.8-2.7-2.6L122,43.3L122,43.3z M119.4,47v12.8
		c0,1.7-0.9,3.1-2.6,3.1c-1.7,0-2.6-1.4-2.6-3.1V47c0-1.7,0.9-3.1,2.6-3.1C118.5,43.9,119.4,45.3,119.4,47L119.4,47z M156.2,59.8
		c0,1.7-0.9,3.1-2.6,3.1c-1.7,0-2.6-1.4-2.6-3.1V46.9c0-1.7,0.9-3.1,2.6-3.1c1.7,0,2.6,1.4,2.6,3.1L156.2,59.8L156.2,59.8z
		 M121.3,40.7H149c0-4.1-2.1-7.8-5.4-10.2l1.9-4.4c0.3-0.7,0-1.4-0.7-1.7c-0.7-0.3-1.4,0-1.7,0.7l-1.2,2.8l-0.7,1.2
		c-1.8-0.8-3.9-1.3-6-1.3c-2.1,0-4.2,0.5-6,1.3l-0.7-1.2l-1.2-2.8c-0.3-0.7-1.1-1-1.7-0.7s-1,1.1-0.7,1.7l1.9,4.4
		C123.5,32.8,121.3,36.6,121.3,40.7L121.3,40.7z M141.7,32.8c0.7,0,1.3,0.6,1.3,1.3c0,0.7-0.6,1.3-1.3,1.3c-0.7,0-1.3-0.6-1.3-1.3
		C140.4,33.4,141,32.8,141.7,32.8L141.7,32.8z M128.6,32.8c0.7,0,1.3,0.6,1.3,1.3c0,0.7-0.6,1.3-1.3,1.3c-0.7,0-1.3-0.6-1.3-1.3
		C127.3,33.4,127.9,32.8,128.6,32.8z"/>
	<g>
		<rect x="42.8" y="65.5" class="st2" width="46.7" height="52.6"/>
		<path class="st3" d="M109.7,85.9c-1.5-2.3-15.9-27.3-17.7-30.4c-1.8-3-4.3-4-7.6-4c-0.8,0-2.6,0-5,0c-6.6,0-18.8,0-25.8,0
			c-2.4,0-4.2,0-5,0c-3.3,0-5.8,1-7.6,4c-1.8,3-16.2,28.1-17.7,30.4c-1.5,2.3-1.5,5.1,1,9.6s15.2,26.8,16.7,29.6
			c1.5,2.8,3.8,4.4,7.6,4.4c0.8,0,2.8,0,5.4,0c9,0,25.1,0,25.1,0c2.6,0,4.6,0,5.4,0c3.8,0,6.1-1.6,7.6-4.4
			c1.5-2.8,14.2-25.1,16.7-29.6S111.2,88.1,109.7,85.9z M86.1,110.8h-8.4L66.5,91.2l-11.3,19.6h-8.4l11.4-20.3L46.8,70.2h8.5
			l11.2,19.6l11.2-19.6h8.5L74.7,90.5L86.1,110.8z"/>
	</g>
</g>
</svg>
