<?xml version="1.0" encoding="utf-8"?>
<!-- Generator: Adobe Illustrator 20.1.0, SVG Export Plug-In . SVG Version: 6.00 Build 0)  -->
<svg version="1.1" id="Layer_1" xmlns="http://www.w3.org/2000/svg" xmlns:xlink="http://www.w3.org/1999/xlink" x="0px" y="0px"
	 viewBox="0 0 200 144" style="enable-background:new 0 0 200 144;" xml:space="preserve">
<style type="text/css">
	.st0{opacity:0.3;fill:#B4A0FF;}
	.st1{fill:#E6E6E6;}
	.st2{fill:#2E2E2E;}
	.st3{fill:#08BBF1;}
	.st4{fill:#5D5F5E;}
	.st5{fill:#0BC8F4;}
	.st6{fill:#FFFFFF;}
	.st7{opacity:0.3;fill:#FFF100;}
	.st8{fill:#721481;}
	.st9{fill:#00BCF2;}
	.st10{opacity:0.3;fill:#00BCF2;}
	.st11{fill:#3E3E3E;}
	.st12{fill:#B8D432;}
	.st13{fill:#59B4D9;}
	.st14{opacity:0.3;fill:#BAD80A;}
	.st15{fill:#4889A8;}
	.st16{fill:#929090;}
	.st17{fill:#96BBCD;}
	.st18{fill:#3A5C71;}
	.st19{fill:#FAB516;}
	.st20{fill:#F5891F;}
	.st21{fill:#CB6D29;}
	.st22{fill:#757575;stroke:#757575;stroke-width:2;stroke-miterlimit:10;}
</style>
<rect class="st7" width="200" height="144"/>
<g>
	<g>
		<polygon class="st8" points="111.7,91.8 88.1,50.9 111.7,10.1 158.9,10.1 182.5,50.9 158.9,91.8 		"/>
		<g>
			<path class="st6" d="M131.8,38.1h-12.6v10.1h11.6v4.7h-11.6V67h-5.6V33.4h18.1V38.1z"/>
			<path class="st6" d="M161,42.4l-0.7,3.3H155l-1.4,6.5h5.8l-0.8,3.3H153l-1.9,8.7h-3.7l1.9-8.7h-5.7l-1.8,8.7H138l1.8-8.7h-5.4
				l0.7-3.3h5.4l1.3-6.5h-5.7l0.7-3.3h5.7l1.9-9h3.8l-1.9,9h5.7l1.9-9h3.7l-1.9,9H161z M151.3,45.7h-5.7l-1.4,6.5h5.7L151.3,45.7z"
				/>
		</g>
	</g>
	<g>
		<polygon class="st9" points="41.1,133 17.5,92.1 41.1,51.2 88.3,51.2 111.9,92.1 88.3,133 		"/>
		<g id="Layer_1_6_">
			<g id="Azure_5_">
				<g>
					<path class="st6" d="M71.7,92.4c-1.9,0-3.4,1.1-4.1,2.7H41.1l0,0c-4.4,0-8.1-3.6-8.1-8.1c0-4.5,3.6-8.1,8.1-8.1l0,0h0.1l0,0
						h3.6c0.2-0.9,0.4-1.9,0.9-2.7c0.2-0.3,0.3-0.6,0.4-0.9c1.9-3.2,5.3-5.3,9.3-5.3c3.6,0,6.8,1.8,8.7,4.3c1.1-0.6,2.3-0.9,3.5-1.2
						c-2.6-4.1-7-6.8-12.2-6.8c-6,0-11.2,3.7-13.3,9c0,0,0,0,0,0.1l0,0c0,0,0,0,0-0.1h-1c-6.5,0.1-11.7,5.3-11.7,11.8
						s5.3,11.7,11.7,11.7h26.5c0.7,1.6,2.3,2.7,4.1,2.7c2.5,0,4.6-2.1,4.6-4.6C76.2,94.5,74.2,92.4,71.7,92.4z"/>
					<path class="st6" d="M85.7,112.6c8,0,14.8-6.8,14.8-14.7s-6.4-14.3-14.3-14.4c-2.7-5.3-8.2-9-14.5-9c-7.8,0-14.2,5.5-15.8,12.7
						c-3.8,0.4-7,2.4-9,5.3h19.3c1.3-1.6,3.3-2.7,5.6-2.7c4,0,7.2,3.2,7.2,7.2c0,4-3.2,7.2-7.2,7.2c-2.3,0-4.3-1-5.6-2.7H44.6
						c0.9,6.1,5.8,11.1,12.1,11.1L85.7,112.6L85.7,112.6z"/>
				</g>
			</g>
		</g>
	</g>
</g>
</svg>
