<svg id="ICONS" xmlns="http://www.w3.org/2000/svg" viewBox="0 0 400 140"><defs><style>.cls-1{fill:gray;}.cls-2{fill:#2e2e2e;}.cls-3{fill:#1a1a1a;}.cls-4{fill:#333;}.cls-5{fill:#008272;}.cls-6{fill:#fff;}.cls-7{fill:#2b978a;}</style></defs><title>net-docs-desktop-2</title><polygon class="cls-1" points="266.02 130.78 145.22 130.78 152.78 122.78 258.96 122.78 266.02 130.78"/><polygon class="cls-2" points="253.91 128.78 155.82 128.78 159.27 124.78 250.57 124.78 253.91 128.78"/><path class="cls-3" d="M261,133.78H150.42c-5.11,0-5.2-3-5.2-3H265.73S266.35,133.78,261,133.78Z"/><polygon class="cls-4" points="214.68 117.14 194.03 117.14 196.09 102.69 212.61 102.69 212.76 103.72 214.68 117.14"/><polygon class="cls-3" points="214.68 117.14 204.35 117.14 204.35 103.72 212.76 103.72 214.68 117.14"/><rect class="cls-4" x="125.22" y="17.78" width="158" height="87" rx="4" ry="4"/><rect class="cls-5" x="130.22" y="22.78" width="148" height="77"/><path class="cls-4" d="M235,120.78H174.5a2.16,2.16,0,0,1-2.28-2s3.86-3,4-3h55.92c2.33,0,5.08,3,5.08,3A2.16,2.16,0,0,1,235,120.78Z"/><path class="cls-6" d="M178.22,70.78h-6.3l-4.07-7.69a6.75,6.75,0,0,1-.48-1.58h-.07a12,12,0,0,1-.54,1.65l-4.08,7.62h-6.34L163.87,59,157,46.78h6.47l3.37,7.47a12.23,12.23,0,0,1,.71,2h.07q.2-.69.74-2.06l3.75-7.41H178l-7.08,12.1Z"/><path class="cls-6" d="M203.82,70.78H198l-1.68-6H188l-1.66,6h-5.76l8.59-24h6.3Zm-8.69-9-2.54-8.27a10.34,10.34,0,0,1-.4-2.12h-.13a9,9,0,0,1-.41,2.06l-2.57,8.33Z"/><path class="cls-6" d="M232.22,70.78h-5V56.65a22.07,22.07,0,0,1-.05-5.05H227a24.87,24.87,0,0,1-.74,3.13l-5.53,16h-4.35l-5.63-15.89A30.91,30.91,0,0,1,210,51.6h-.15q.21,3.49.21,6.12V70.78h-4.79v-24h7.79l4.82,14.39a19.7,19.7,0,0,1,.84,3.37h.1a34,34,0,0,1,.94-3.41l4.82-14.35h7.59Z"/><path class="cls-6" d="M251.22,70.78h-15v-24h6v19h9Z"/><polygon class="cls-7" points="278.22 22.78 278.22 76.78 224.22 22.78 278.22 22.78"/><path class="cls-6" d="M274.22,59.19l-14.7,7.06V63.15l10.77-4.79v-.1l-10.77-5.33V49.79l14.7,7.65Z"/><path class="cls-6" d="M148.92,66.36l-14.7-7.06V57.55l14.7-7.67V53l-10.75,5.33v.07l10.75,4.84Z"/></svg>