<?xml version="1.0" encoding="utf-8"?>
<!-- Generator: Adobe Illustrator 21.0.0, SVG Export Plug-In . SVG Version: 6.00 Build 0)  -->
<svg version="1.1" id="Layer_1" xmlns="http://www.w3.org/2000/svg" xmlns:xlink="http://www.w3.org/1999/xlink" x="0px" y="0px"
	 viewBox="0 0 200 144" style="enable-background:new 0 0 200 144;" xml:space="preserve">
<style type="text/css">
	.st0{opacity:0.3;fill:#BAD80A;enable-background:new    ;}
	.st1{fill:#FFFFFF;}
	.st2{fill:#2E2E2E;}
	.st3{fill:#A5A7AA;}
	.st4{fill:#B4A0FF;}
	.st5{fill:#B7ACF9;}
	.st6{fill:#3498DB;}
	.st7{fill:#505050;}
</style>
<rect y="0.2" class="st0" width="200" height="144"/>
<rect x="38" y="71.7" class="st1" width="49" height="54"/>
<g>
	<g>
		<path class="st2" d="M186.6,134.1H13.4c-1.1,0-2.1-0.9-2.1-2.1V13.9c0-1.1,0.9-2.1,2.1-2.1h173.3c1.1,0,2.1,0.9,2.1,2.1v118.1
			C188.7,133.2,187.8,134.1,186.6,134.1z"/>
		<rect x="21.8" y="20.7" class="st3" width="156.7" height="104.3"/>
		<rect x="21.8" y="20.7" class="st4" width="156.7" height="104.3"/>
		<polygon class="st3" points="181.8,74.7 185.9,75.2 185.9,71 181.8,71.5 		"/>
		<polygon class="st5" points="178.6,98.1 178.6,20.7 94.1,20.7 		"/>
	</g>
	<g>
		<g>
			<rect x="56.7" y="60.6" class="st1" width="42.5" height="47.9"/>
			<path class="st6" d="M117.6,79.1c-1.4-2.1-14.5-24.9-16.1-27.6s-3.9-3.7-6.9-3.7c-0.8,0-2.4,0-4.6,0c-6,0-17.1,0-23.5,0
				c-2.2,0-3.8,0-4.6,0c-3,0-5.3,0.9-6.9,3.7S40.2,77.1,38.8,79.1s-1.4,4.6,0.9,8.8c2.3,4.1,13.8,24.4,15.2,27c1.4,2.5,3.5,4,6.9,4
				c0.8,0,2.6,0,4.9,0c8.2,0,22.8,0,22.8,0c2.3,0,4.2,0,4.9,0c3.5,0,5.5-1.5,6.9-4c1.4-2.5,12.9-22.8,15.2-27
				C118.9,83.7,118.9,81.2,117.6,79.1z M96.1,101.8h-7.6L78.2,84l-10.3,17.8h-7.6l10.4-18.5L60.3,64.9h7.7l10.2,17.8l10.2-17.8h7.7
				L85.7,83.3L96.1,101.8z"/>
		</g>
		<g>
			<polygon class="st7" points="119.7,78.4 103.9,51.2 119.7,23.9 151.2,23.9 166.9,51.2 151.2,78.4 			"/>
		</g>
	</g>
</g>
<g>
	<path class="st1" d="M123.6,56v-4.3c0-0.4,0-0.8-0.1-1.1c-0.1-0.3-0.2-0.6-0.3-0.7c-0.1-0.2-0.3-0.3-0.5-0.4
		c-0.2-0.1-0.5-0.1-0.8-0.1c-0.3,0-0.5,0.1-0.8,0.2c-0.2,0.1-0.4,0.3-0.6,0.5c-0.2,0.2-0.3,0.5-0.4,0.8c-0.1,0.3-0.2,0.6-0.2,1V56
		H119v-4.4c0-1.5-0.6-2.3-1.8-2.3c-0.3,0-0.5,0.1-0.8,0.2c-0.2,0.1-0.4,0.3-0.6,0.5c-0.2,0.2-0.3,0.5-0.4,0.8
		c-0.1,0.3-0.1,0.7-0.1,1V56h-0.9v-7.4h0.9v1.2h0c0.5-0.9,1.3-1.4,2.3-1.4c0.3,0,0.5,0,0.7,0.1c0.2,0.1,0.4,0.2,0.6,0.3
		c0.2,0.1,0.3,0.3,0.5,0.5c0.1,0.2,0.2,0.4,0.3,0.6c0.3-0.5,0.6-0.9,1-1.2c0.4-0.3,0.9-0.4,1.4-0.4c1.6,0,2.4,1,2.4,3V56H123.6z"/>
	<path class="st1" d="M131,56v-1.3h0c-0.2,0.5-0.6,0.8-1,1.1c-0.4,0.3-0.9,0.4-1.4,0.4c-0.4,0-0.7-0.1-1-0.2
		c-0.3-0.1-0.5-0.2-0.7-0.4c-0.2-0.2-0.4-0.4-0.5-0.7c-0.1-0.3-0.2-0.5-0.2-0.9c0-0.7,0.2-1.2,0.6-1.6c0.4-0.4,1-0.7,1.9-0.8
		l2.2-0.3c0-1.4-0.5-2.1-1.6-2.1c-0.9,0-1.7,0.3-2.4,0.9v-1c0.2-0.1,0.3-0.2,0.5-0.3c0.2-0.1,0.4-0.2,0.6-0.2
		c0.2-0.1,0.4-0.1,0.7-0.2c0.2,0,0.5-0.1,0.7-0.1c0.8,0,1.4,0.2,1.9,0.7c0.4,0.5,0.6,1.1,0.6,2.1V56H131z M129.1,52.4
		c-0.3,0-0.6,0.1-0.8,0.2c-0.2,0.1-0.4,0.2-0.6,0.3c-0.2,0.1-0.3,0.3-0.3,0.5c-0.1,0.2-0.1,0.4-0.1,0.7c0,0.2,0,0.4,0.1,0.5
		c0.1,0.2,0.2,0.3,0.3,0.4c0.1,0.1,0.3,0.2,0.5,0.3c0.2,0.1,0.4,0.1,0.6,0.1c0.3,0,0.6-0.1,0.9-0.2c0.3-0.1,0.5-0.3,0.7-0.5
		c0.2-0.2,0.4-0.5,0.5-0.8c0.1-0.3,0.2-0.6,0.2-1v-0.7L129.1,52.4z"/>
	<path class="st1" d="M139.1,55.7c-0.5,0.3-1.2,0.5-2,0.5c-0.5,0-1-0.1-1.4-0.3c-0.4-0.2-0.8-0.4-1.1-0.8c-0.3-0.3-0.5-0.7-0.7-1.2
		c-0.2-0.5-0.2-0.9-0.2-1.5c0-0.6,0.1-1.1,0.3-1.6c0.2-0.5,0.4-0.9,0.7-1.3c0.3-0.4,0.7-0.6,1.2-0.9c0.5-0.2,1-0.3,1.6-0.3
		c0.6,0,1.2,0.1,1.7,0.4v1c-0.5-0.4-1.1-0.5-1.7-0.5c-0.4,0-0.8,0.1-1.2,0.2c-0.3,0.2-0.6,0.4-0.9,0.7c-0.2,0.3-0.4,0.6-0.5,1
		c-0.1,0.4-0.2,0.8-0.2,1.2c0,0.4,0.1,0.8,0.2,1.1c0.1,0.4,0.3,0.7,0.5,1c0.2,0.3,0.5,0.5,0.8,0.7c0.3,0.2,0.7,0.2,1.2,0.2
		c0.7,0,1.3-0.2,1.9-0.6V55.7z"/>
	<path class="st1" d="M145.2,56.2c-0.7,0-1.4-0.1-2-0.4c-0.6-0.3-1.1-0.6-1.5-1.1c-0.4-0.5-0.7-1-1-1.7c-0.2-0.6-0.3-1.3-0.3-2
		c0-0.8,0.1-1.5,0.3-2.2c0.2-0.7,0.5-1.2,1-1.7c0.4-0.5,1-0.8,1.6-1.1c0.6-0.3,1.3-0.4,2.1-0.4c0.7,0,1.4,0.1,2,0.4
		c0.6,0.3,1.1,0.6,1.5,1.1c0.4,0.5,0.7,1,0.9,1.6c0.2,0.6,0.3,1.3,0.3,2.1c0,0.8-0.1,1.5-0.3,2.2c-0.2,0.7-0.5,1.2-0.9,1.7
		c-0.4,0.5-0.9,0.9-1.5,1.2C146.7,56.1,146,56.2,145.2,56.2z M145.3,46.4c-0.6,0-1.2,0.1-1.7,0.4c-0.5,0.2-0.9,0.6-1.2,1
		c-0.3,0.4-0.6,0.9-0.8,1.4c-0.2,0.5-0.3,1.1-0.3,1.7c0,0.6,0.1,1.1,0.2,1.7c0.2,0.5,0.4,1,0.7,1.4c0.3,0.4,0.7,0.7,1.2,1
		c0.5,0.2,1,0.4,1.7,0.4s1.2-0.1,1.7-0.3c0.5-0.2,0.9-0.5,1.2-0.9c0.3-0.4,0.6-0.9,0.7-1.4c0.2-0.5,0.2-1.1,0.2-1.8
		c0-0.6-0.1-1.2-0.2-1.7c-0.1-0.5-0.4-1-0.7-1.4c-0.3-0.4-0.7-0.7-1.2-1C146.5,46.5,145.9,46.4,145.3,46.4z"/>
	<path class="st1" d="M151.8,54.5c0.2,0.1,0.4,0.2,0.6,0.3c0.2,0.1,0.4,0.2,0.6,0.3c0.2,0.1,0.4,0.1,0.7,0.2c0.2,0,0.4,0.1,0.6,0.1
		c0.8,0,1.4-0.2,1.8-0.5c0.4-0.3,0.6-0.7,0.6-1.3c0-0.3,0-0.5-0.1-0.7c-0.1-0.2-0.2-0.4-0.4-0.6s-0.4-0.4-0.7-0.5
		c-0.3-0.2-0.6-0.4-1-0.6c-0.4-0.2-0.8-0.5-1.1-0.7c-0.3-0.2-0.6-0.4-0.8-0.7c-0.2-0.2-0.3-0.5-0.4-0.7c-0.1-0.3-0.1-0.6-0.1-0.9
		c0-0.4,0.1-0.8,0.3-1.1c0.2-0.3,0.4-0.6,0.7-0.8c0.3-0.2,0.7-0.4,1.1-0.5c0.4-0.1,0.8-0.2,1.3-0.2c0.8,0,1.5,0.1,2,0.3v1.1
		c-0.6-0.4-1.3-0.5-2.1-0.5c-0.3,0-0.6,0-0.9,0.1c-0.3,0.1-0.5,0.2-0.7,0.3c-0.2,0.1-0.4,0.3-0.5,0.5c-0.1,0.2-0.2,0.5-0.2,0.7
		c0,0.3,0,0.5,0.1,0.7c0.1,0.2,0.2,0.4,0.4,0.6c0.2,0.2,0.4,0.3,0.7,0.5c0.3,0.2,0.6,0.4,1,0.6c0.4,0.2,0.8,0.5,1.1,0.7
		s0.6,0.4,0.8,0.7c0.2,0.2,0.4,0.5,0.5,0.8c0.1,0.3,0.2,0.6,0.2,0.9c0,0.5-0.1,0.8-0.3,1.2c-0.2,0.3-0.4,0.6-0.7,0.9
		c-0.3,0.2-0.7,0.4-1.1,0.5c-0.4,0.1-0.9,0.2-1.4,0.2c-0.2,0-0.4,0-0.6,0c-0.2,0-0.5-0.1-0.7-0.1c-0.2-0.1-0.4-0.1-0.7-0.2
		c-0.2-0.1-0.4-0.1-0.5-0.2V54.5z"/>
</g>
</svg>
