<svg id="ICONS" xmlns="http://www.w3.org/2000/svg" viewBox="0 0 400 140"><defs><style>.cls-1{fill:#2e2e2e;}.cls-2{fill:#d1d3d4;}.cls-3{fill:#adadad;}.cls-4{fill:#e6e7e8;}.cls-5{fill:#60a860;}.cls-6{fill:#107c10;}.cls-7{fill:#6d6e71;}.cls-8{fill:#767576;}.cls-9{fill:#e3e3e3;}.cls-10{fill:#808285;}.cls-11{fill:#2b8fde;}.cls-12{fill:#55a5e4;}.cls-13{fill:none;stroke:#757575;stroke-miterlimit:10;stroke-width:0.58px;}.cls-14{fill:#fff;}.cls-15{fill:#d4e8f8;}</style></defs><title>net-docs-mobile-3</title><rect class="cls-1" x="62" y="27.33" width="76" height="158" rx="9.68" ry="9.68"/><rect class="cls-2" x="66" y="47.33" width="68" height="117"/><circle class="cls-3" cx="100.62" cy="35.73" r="1.34"/><path class="cls-3" d="M107.45,42.33H93.28a1.5,1.5,0,0,1,0-3h14.17a1.5,1.5,0,0,1,0,3Z"/><polygon class="cls-4" points="134 47.33 134 97.33 84 47.33 134 47.33"/><rect class="cls-5" x="76" y="79.33" width="48" height="42.99"/><rect class="cls-6" x="73" y="74.33" width="54" height="12"/><rect class="cls-6" x="82" y="102.33" width="36" height="3.91"/><rect class="cls-6" x="82" y="110.42" width="36" height="3.91"/><rect class="cls-6" x="82" y="94.33" width="36" height="3.91"/><path class="cls-1" d="M331.25,181.82c-5.44,1.21-14.68,2.35-31.18,2.35s-28.68-1.18-33.32-2.36-7.76-3.93-7.76-8.27V36c0-4.42,3-7.09,8-7.83a268.28,268.28,0,0,1,32.9-2,195.91,195.91,0,0,1,31.17,2c5.37.84,8,3.6,8,8V173.55C339,177.88,336.69,180.61,331.25,181.82Z"/><rect class="cls-7" x="263" y="44.33" width="72" height="124"/><circle class="cls-8" cx="298.67" cy="33.93" r="2.5"/><polygon class="cls-9" points="313.88 88.21 302.94 99.14 300.79 96.99 308 89.33 287 89.33 287 86.33 308 86.33 300.47 79.11 302.63 76.96 313.88 88.21"/><rect class="cls-9" x="281" y="86.33" width="3" height="3"/><rect class="cls-9" x="276" y="86.33" width="3" height="3"/><rect class="cls-9" x="276" y="67.33" width="12" height="15"/><polygon class="cls-10" points="335 44.33 335 94.33 285 44.33 335 44.33"/><polygon class="cls-9" points="294 67.33 294 82.33 296 82.33 296 69.33 323 69.33 323 104.33 296 104.33 296 91.33 294 91.33 294 106.33 325 106.33 325 67.33 294 67.33"/><rect class="cls-1" x="155" y="12.33" width="87" height="169" rx="2.92" ry="2.92"/><rect class="cls-11" x="161" y="33.33" width="75" height="123"/><polygon class="cls-12" points="236 33.33 236 83.33 186 33.33 236 33.33"/><path class="cls-13" d="M210.14,24.17H187.52a2.36,2.36,0,0,1-2.19-2.5,2.36,2.36,0,0,1,2.19-2.5h22.62a2.36,2.36,0,0,1,2.19,2.5A2.36,2.36,0,0,1,210.14,24.17Z"/><polygon class="cls-14" points="226.25 88.9 230.01 92.66 207.5 115.17 196.33 104.01 200.09 100.25 207.5 107.65 226.25 88.9"/><rect class="cls-15" x="174" y="53.33" width="5" height="5"/><rect class="cls-15" x="183" y="53.33" width="41" height="5"/><rect class="cls-15" x="174" y="66.33" width="5" height="5"/><rect class="cls-15" x="183" y="66.33" width="41" height="5"/><rect class="cls-15" x="174" y="80.33" width="5" height="5"/><rect class="cls-15" x="183" y="80.33" width="41" height="5"/><rect class="cls-8" x="278" y="69.33" width="8" height="11"/></svg>