<svg xmlns="http://www.w3.org/2000/svg" viewBox="0 0 400 140"><defs><style>.cls-1{fill:gray;}.cls-2{fill:#2e2e2e;}.cls-3{fill:#1a1a1a;}.cls-4{fill:#333;}.cls-5{fill:#80bceb;}.cls-6{fill:#633ba3;}.cls-7{fill:#5c2d91;}.cls-8{fill:#fff;}.cls-9{fill:#aad2f2;}.cls-10{font-size:12px;font-family:SegoeUI, Segoe UI;}.cls-11{letter-spacing:-0.03em;}</style></defs><title>net-docs-web-4</title><g id="ICONS"><polygon class="cls-1" points="273.75 133 140.87 133 149.18 125 265.97 125 273.75 133"/><polygon class="cls-2" points="260.43 131 152.53 131 156.32 127 256.75 127 260.43 131"/><path class="cls-3" d="M268,137H146.38c-5.62,0-5.72-4-5.72-4H273.23S273.91,137,268,137Z"/><polygon class="cls-4" points="217.27 119.5 194.55 119.5 196.82 103.6 215 103.6 215.16 104.74 217.27 119.5"/><polygon class="cls-3" points="217.27 119.5 205.91 119.5 205.91 104.74 215.16 104.74 217.27 119.5"/><path class="cls-4" d="M288,10.09H122a4,4,0,0,0-4,4V30.79A40,40,0,0,1,118,90v11.93a4,4,0,0,0,4,4H288a4,4,0,0,0,4-4V14.09A4,4,0,0,0,288,10.09Z"/><path class="cls-4" d="M239.61,123H173.08a2.3,2.3,0,0,1-2.51-2s4.25-3,4.45-3h61.51c2.56,0,5.59,3,5.59,3A2.3,2.3,0,0,1,239.61,123Z"/><path class="cls-5" d="M124,16V37.65a39.92,39.92,0,0,1,0,45.45V100H286V16Z"/><circle class="cls-6" cx="91.06" cy="60.38" r="38.04"/><path class="cls-7" d="M64.7,33a38,38,0,1,0,53.77,53.77Z"/><path class="cls-8" d="M70.1,79.22a1.18,1.18,0,0,1-.88-.37,1.21,1.21,0,0,1-.36-.88,1.23,1.23,0,0,1,.36-.89,1.18,1.18,0,0,1,.88-.37,1.21,1.21,0,0,1,.89.37,1.22,1.22,0,0,1,.37.89,1.26,1.26,0,0,1-1.26,1.25Z"/><path class="cls-8" d="M86.17,79h-2.3L75.65,66.24a5.28,5.28,0,0,1-.51-1h-.07a16.44,16.44,0,0,1,.09,2.19V79H73.29V63h2.43l8,12.54q.5.78.65,1.07h0a16.92,16.92,0,0,1-.11-2.35V63h1.87Z"/><path class="cls-8" d="M97.23,79H88.76V63h8.11v1.69H90.63V70h5.77v1.68H90.63v5.59h6.6Z"/><path class="cls-8" d="M109.75,64.69h-4.61V79h-1.87V64.69h-4.6V63h11.09Z"/><path class="cls-8" d="M87.8,58.41H85.73L84,53.93H77.26l-1.59,4.48H73.58l6.13-16h1.94Zm-4.38-6.16-2.51-6.81a6.52,6.52,0,0,1-.25-1.07h0a6.07,6.07,0,0,1-.26,1.07l-2.49,6.81Z"/><path class="cls-8" d="M89.41,57.76V55.56a4.3,4.3,0,0,0,.91.6,7.35,7.35,0,0,0,1.11.45,8.81,8.81,0,0,0,1.18.28,6.55,6.55,0,0,0,1.09.1,4.28,4.28,0,0,0,2.58-.64,2.4,2.4,0,0,0,.57-3,3.21,3.21,0,0,0-.79-.87,7.9,7.9,0,0,0-1.19-.76L93.4,51q-.84-.42-1.56-.86a6.68,6.68,0,0,1-1.26-1A4,4,0,0,1,89.74,48a4.05,4.05,0,0,1,.17-3.45,4.1,4.1,0,0,1,1.26-1.33,5.73,5.73,0,0,1,1.78-.78,8.19,8.19,0,0,1,2-.26,7.81,7.81,0,0,1,3.44.57v2.11a6.24,6.24,0,0,0-3.63-1,5.94,5.94,0,0,0-1.23.13,3.45,3.45,0,0,0-1.09.42,2.42,2.42,0,0,0-.78.75,2,2,0,0,0-.3,1.11,2.28,2.28,0,0,0,.23,1.06,2.58,2.58,0,0,0,.67.81,6.69,6.69,0,0,0,1.09.71q.64.35,1.48.76t1.63.89a7.39,7.39,0,0,1,1.35,1,4.6,4.6,0,0,1,.92,1.26,3.55,3.55,0,0,1,.34,1.58,4,4,0,0,1-.46,2,3.78,3.78,0,0,1-1.25,1.33,5.43,5.43,0,0,1-1.81.74,10,10,0,0,1-2.16.23,8.68,8.68,0,0,1-.94-.06q-.56-.06-1.14-.18a9,9,0,0,1-1.1-.29A3.39,3.39,0,0,1,89.41,57.76Z"/><path class="cls-8" d="M103.24,52.37v6h-1.87v-16h4.39a5.79,5.79,0,0,1,4,1.25,4.45,4.45,0,0,1,1.41,3.52,4.84,4.84,0,0,1-1.57,3.72,6,6,0,0,1-4.23,1.45Zm0-8.25v6.55h2a4.38,4.38,0,0,0,3-.89,3.14,3.14,0,0,0,1-2.5q0-3.16-3.74-3.16Z"/><path class="cls-7" d="M213,30.3,191.32,52,177.47,41.24,172,44V71.32l5.47,2.74,13.85-10.77L213,85l14-5.47V35.77ZM177,65.85V49.44l8.68,8.21Zm21.57-8.2L213,46.4V68.89Z"/><polygon class="cls-9" points="286 16 286 76 226 16 286 16"/></g><g id="Titles"><text class="cls-10" transform="translate(0.33 -13.12)">ASP.NET Core in Visual <tspan class="cls-11" x="123.78" y="0">S</tspan><tspan x="129.77" y="0">tudio</tspan></text></g></svg>