<?xml version="1.0" encoding="utf-8"?>
<!-- Generator: Adobe Illustrator 20.1.0, SVG Export Plug-In . SVG Version: 6.00 Build 0)  -->
<svg version="1.1" xmlns="http://www.w3.org/2000/svg" xmlns:xlink="http://www.w3.org/1999/xlink" x="0px" y="0px"
	 viewBox="0 0 200 144" style="enable-background:new 0 0 200 144;" xml:space="preserve">
<style type="text/css">
	.st0{opacity:0.3;fill:#BAD80A;}
	.st1{fill:#BAD80A;}
	.st2{fill:#757575;}
	.st3{fill:#682A7A;}
	.st4{fill:#2E2E2E;}
	.st5{fill:#478AA9;}
	.st6{fill:#672A79;}
	.st7{fill:#334D63;}
	.st8{fill:#5D5F5E;}
	.st9{fill:#4889A8;}
	.st10{fill:#929090;}
	.st11{fill:#FAB516;}
	.st12{fill:#F5891F;}
	.st13{fill:#CB6D29;}
	.st14{fill:#96BBCD;}
	.st15{fill:#3A5C71;}
	.st16{opacity:0.3;fill:#008272;}
	.st17{clip-path:url(#SVGID_2_);}
	.st18{fill:#231F20;}
	.st19{fill:#5D605F;}
	.st20{fill:#ACACAC;}
	.st21{fill:#5D5D5D;}
	.st22{clip-path:url(#SVGID_4_);}
	.st23{fill:#474748;}
	.st24{fill:#929497;}
	.st25{fill:#1772B8;}
	.st26{fill:#767778;}
	.st27{fill:#A86527;}
	.st28{fill:#048273;}
	.st29{clip-path:url(#SVGID_6_);}
	.st30{fill:#C7C7C7;}
	.st31{fill:#909090;}
	.st32{opacity:0.3;fill:#B4A0FF;}
	.st33{fill:#344D63;}
	.st34{fill:#00BCF2;}
	.st35{opacity:0.3;fill:#00BCF2;}
	.st36{fill:#505050;}
	.st37{fill:#007ACC;}
	.st38{fill:#FFFFFF;}
	.st39{opacity:0.3;fill:#FFD565;}
	.st40{fill:#804998;}
	.st41{opacity:0.2;fill:#FFFFFF;enable-background:new    ;}
	.st42{fill:#70469E;}
	.st43{fill:#5C2D91;}
</style>
<g id="Layer_1">
	<rect class="st0" width="200" height="144"/>
	<g>
		<g>
			<polygon class="st36" points="111.2,92 87.6,51.1 111.2,10.2 158.4,10.2 182,51.1 158.4,92 			"/>
		</g>
		<g>
			<polygon class="st37" points="40.6,133.1 17,92.2 40.6,51.4 87.8,51.4 111.4,92.2 87.8,133.1 			"/>
			<g>
				<g>
					<path class="st38" d="M42.9,105.1l-2.9,7.9h-1l-2.9-7.9h1l2.2,6.3c0.1,0.2,0.1,0.5,0.2,0.7h0c0-0.2,0.1-0.5,0.2-0.7l2.2-6.3
						H42.9z"/>
					<path class="st38" d="M49.1,111.5c0,0.5-0.2,0.9-0.6,1.2c-0.4,0.3-1,0.5-1.5,0.5c-0.5,0-1-0.1-1.4-0.3v-1
						c0.4,0.3,0.9,0.5,1.5,0.5c0.7,0,1.1-0.3,1.1-0.8c0-0.2-0.1-0.4-0.2-0.5c-0.3-0.2-0.6-0.4-1-0.5c-0.4-0.1-0.8-0.4-1.1-0.7
						c-0.2-0.3-0.3-0.6-0.3-1c0-0.5,0.2-0.9,0.6-1.2c0.4-0.3,0.9-0.5,1.4-0.5c0.4,0,0.8,0.1,1.2,0.3v0.9c-0.4-0.3-0.8-0.4-1.3-0.4
						c-0.3,0-0.5,0.1-0.7,0.2c-0.2,0.1-0.3,0.3-0.3,0.6c0,0.2,0.1,0.4,0.2,0.6c0.3,0.2,0.6,0.4,0.9,0.5c0.4,0.2,0.8,0.4,1.1,0.7
						C49,110.9,49.2,111.2,49.1,111.5z"/>
					<path class="st38" d="M54.7,113.1h-0.9v-0.9l0,0c-0.3,0.7-1,1.1-1.7,1c-1.4,0-2-0.8-2-2.4v-3.4h0.9v3.2c0,1.2,0.5,1.8,1.4,1.8
						c0.4,0,0.8-0.2,1.1-0.5c0.3-0.4,0.4-0.8,0.4-1.3v-3.3h0.9L54.7,113.1z"/>
					<path class="st38" d="M60.1,113.1h-0.9v-0.9h0c-0.6,1-1.8,1.3-2.8,0.7c-0.1,0-0.2-0.1-0.2-0.2c-0.3-0.3-0.5-0.7-0.5-1.2
						c0-1.1,0.6-1.7,1.9-1.8l1.7-0.2c0-1-0.4-1.4-1.2-1.4c-0.7,0-1.3,0.2-1.8,0.7v-0.9c0.3-0.2,0.5-0.3,0.9-0.4
						c0.3-0.1,0.7-0.2,1.1-0.2c1.3,0,2,0.7,2,2.1L60.1,113.1z M59.2,110.2l-1.4,0.2c-0.4,0-0.7,0.1-1,0.3c-0.2,0.2-0.3,0.5-0.3,0.8
						c0,0.3,0.1,0.5,0.3,0.7c0.2,0.2,0.5,0.3,0.8,0.3c0.4,0,0.8-0.2,1.1-0.5c0.3-0.3,0.5-0.8,0.4-1.2V110.2z"/>
					<path class="st38" d="M62.3,113.1h-0.9v-8.4h0.9V113.1z"/>
					<path class="st38" d="M69.5,111.1c0,0.6-0.2,1.2-0.7,1.6c-0.6,0.4-1.2,0.6-1.9,0.6c-0.3,0-0.7-0.1-1-0.1
						c-0.3-0.1-0.5-0.2-0.8-0.3v-1.1c0.3,0.2,0.5,0.4,0.9,0.5c0.3,0.1,0.7,0.2,1,0.2c1,0,1.5-0.4,1.5-1.2c0-0.3-0.1-0.6-0.3-0.9
						c-0.4-0.4-0.8-0.7-1.3-0.9c-0.5-0.3-1-0.6-1.4-1c-0.3-0.3-0.4-0.8-0.4-1.2c0-0.6,0.2-1.2,0.7-1.5c0.5-0.4,1.2-0.6,1.8-0.6
						c0.5,0,1.1,0.1,1.6,0.3v1c-0.5-0.3-1-0.5-1.6-0.5c-0.4,0-0.8,0.1-1.1,0.3c-0.3,0.2-0.4,0.5-0.4,0.9c0,0.2,0,0.4,0.1,0.6
						c0.1,0.2,0.3,0.3,0.4,0.5c0.3,0.2,0.6,0.4,1,0.6c0.6,0.3,1,0.6,1.5,1.1C69.4,110.2,69.5,110.6,69.5,111.1z"/>
					<path class="st38" d="M73.1,113c-0.3,0.1-0.6,0.2-0.9,0.2c-1,0-1.5-0.6-1.5-1.7v-3.3h-1v-0.8h1V106l0.9-0.3v1.7h1.4v0.8h-1.4
						v3.2c0,0.3,0,0.6,0.2,0.8c0.2,0.2,0.4,0.3,0.7,0.2c0.2,0,0.4-0.1,0.6-0.2L73.1,113z"/>
					<path class="st38" d="M78.6,113.1h-0.9v-0.9h0c-0.3,0.7-1,1.1-1.7,1c-1.4,0-2-0.8-2-2.4v-3.4h0.9v3.2c0,1.2,0.5,1.8,1.4,1.8
						c0.4,0,0.8-0.2,1.1-0.5c0.3-0.4,0.4-0.8,0.4-1.3v-3.3h0.9L78.6,113.1z"/>
					<path class="st38" d="M84.8,113.1h-0.9v-1h0c-0.6,1.1-2,1.4-3.1,0.8c-0.2-0.1-0.4-0.3-0.5-0.4c-0.4-0.6-0.7-1.3-0.6-2.1
						c0-0.8,0.2-1.6,0.7-2.3c0.5-0.6,1.2-0.9,1.9-0.8c0.7,0,1.4,0.3,1.7,0.9h0v-3.5h0.9V113.1z M83.9,110.5v-0.8
						c0-0.4-0.2-0.9-0.5-1.2c-0.3-0.3-0.7-0.5-1.1-0.5c-0.5,0-1,0.2-1.3,0.6c-0.3,0.5-0.5,1.1-0.5,1.7c0,0.5,0.1,1.1,0.5,1.5
						c0.3,0.4,0.7,0.6,1.2,0.6c0.5,0,0.9-0.2,1.2-0.5C83.7,111.5,83.9,111,83.9,110.5L83.9,110.5z"/>
					<path class="st38" d="M93.6,110.2c0,0.8-0.2,1.6-0.8,2.2c-0.5,0.6-1.3,0.9-2,0.8c-0.8,0-1.5-0.3-2-0.8
						c-0.5-0.6-0.8-1.3-0.7-2.1c0-0.8,0.2-1.6,0.8-2.2c0.6-0.6,1.3-0.9,2.1-0.8c0.7,0,1.5,0.2,2,0.8
						C93.4,108.7,93.7,109.4,93.6,110.2z M92.7,110.2c0-0.6-0.1-1.2-0.5-1.6c-0.3-0.4-0.8-0.6-1.4-0.6c-0.5,0-1,0.2-1.4,0.6
						c-0.4,0.5-0.5,1.1-0.5,1.7c0,0.6,0.1,1.1,0.5,1.6c0.4,0.4,0.9,0.6,1.4,0.6c0.5,0,1-0.2,1.4-0.6
						C92.6,111.4,92.8,110.8,92.7,110.2L92.7,110.2z"/>
					<path class="st38" d="M44.7,105.5c0,0.2-0.1,0.3-0.2,0.4c-0.2,0.2-0.6,0.2-0.8,0c-0.1-0.1-0.2-0.3-0.2-0.4
						c0-0.2,0.1-0.3,0.2-0.4c0.1-0.1,0.3-0.2,0.4-0.2c0.2,0,0.3,0.1,0.4,0.2C44.7,105.2,44.7,105.4,44.7,105.5z M44.6,113.1h-0.9
						v-5.7h0.9L44.6,113.1z"/>
					<path class="st38" d="M87.2,105.5c0,0.2-0.1,0.3-0.2,0.4c-0.2,0.2-0.6,0.2-0.8,0c-0.1-0.1-0.2-0.3-0.2-0.4
						c0-0.2,0.1-0.3,0.2-0.4c0.1-0.1,0.3-0.2,0.4-0.2c0.2,0,0.3,0.1,0.4,0.2C87.1,105.2,87.2,105.4,87.2,105.5z M87.1,113.1h-0.9
						v-5.7h0.9L87.1,113.1z"/>
				</g>
				<path class="st38" d="M74.1,62.3L59.5,76.9l-9.3-7.2l-3.7,1.8v18.4l3.7,1.8l9.3-7.2l14.6,14.6l9.2-3.7V66L74.1,62.3z M50.2,86.2
					v-11l5.5,5.5L50.2,86.2z M64.4,80.7l9.7-7.6v15.1L64.4,80.7z"/>
			</g>
			<g>
				<path class="st38" d="M57.2,126.1c-0.4,0.2-1.2,0.4-2.1,0.4c-2.3,0-4-1.4-4-4.1c0-2.5,1.7-4.2,4.2-4.2c1,0,1.6,0.2,1.9,0.4
					l-0.3,0.9c-0.4-0.2-1-0.3-1.6-0.3c-1.9,0-3.2,1.2-3.2,3.3c0,2,1.1,3.3,3.1,3.3c0.6,0,1.3-0.1,1.7-0.3L57.2,126.1z"/>
				<path class="st38" d="M63.6,123.4c0,2.1-1.5,3.1-2.9,3.1c-1.6,0-2.8-1.2-2.8-3c0-1.9,1.3-3.1,2.9-3.1
					C62.5,120.4,63.6,121.6,63.6,123.4z M59,123.4c0,1.3,0.7,2.2,1.8,2.2c1,0,1.8-0.9,1.8-2.3c0-1-0.5-2.2-1.7-2.2
					C59.5,121.2,59,122.3,59,123.4z"/>
				<path class="st38" d="M69.9,117.8v7c0,0.5,0,1.1,0,1.5H69l0-1h0c-0.3,0.6-1,1.1-2,1.1c-1.4,0-2.5-1.2-2.5-3
					c0-1.9,1.2-3.1,2.6-3.1c0.9,0,1.5,0.4,1.8,0.9h0v-3.5H69.9z M68.9,122.9c0-0.1,0-0.3,0-0.4c-0.2-0.7-0.7-1.2-1.5-1.2
					c-1.1,0-1.7,1-1.7,2.2c0,1.2,0.6,2.1,1.7,2.1c0.7,0,1.4-0.5,1.5-1.3c0-0.1,0-0.3,0-0.5V122.9z"/>
				<path class="st38" d="M72.3,123.6c0,1.4,0.9,2,2,2c0.8,0,1.2-0.1,1.6-0.3l0.2,0.8c-0.4,0.2-1,0.4-1.9,0.4
					c-1.8,0-2.9-1.2-2.9-2.9s1-3.1,2.7-3.1c1.9,0,2.4,1.7,2.4,2.7c0,0.2,0,0.4,0,0.5H72.3z M75.4,122.9c0-0.7-0.3-1.7-1.5-1.7
					c-1.1,0-1.5,1-1.6,1.7H75.4z"/>
			</g>
		</g>
	</g>
	<path class="st38" d="M152.9,62.7c-0.7,1.6-1.5,3.1-2.5,4.5c-1.3,1.9-2.4,3.2-3.2,3.9c-1.3,1.2-2.7,1.8-4.1,1.8
		c-1.1,0-2.3-0.3-3.8-0.9c-1.5-0.6-2.9-0.9-4.1-0.9c-1.3,0-2.7,0.3-4.2,0.9c-1.5,0.6-2.7,0.9-3.7,1c-1.4,0.1-2.8-0.6-4.2-1.9
		c-0.9-0.8-2-2.1-3.4-4c-1.4-2-2.6-4.4-3.6-7.1c-1-2.9-1.5-5.7-1.5-8.4c0-3.1,0.7-5.8,2-8c1.1-1.8,2.5-3.2,4.2-4.3
		c1.8-1,3.7-1.6,5.7-1.6c1.1,0,2.6,0.3,4.4,1c1.8,0.7,3,1,3.5,1c0.4,0,1.7-0.4,3.9-1.2c2.1-0.8,3.8-1.1,5.3-0.9
		c3.9,0.3,6.8,1.9,8.8,4.6c-3.5,2.1-5.2,5.1-5.2,8.9c0,3,1.1,5.4,3.2,7.4c1,0.9,2,1.6,3.2,2.1C153.5,61.3,153.2,62,152.9,62.7
		L152.9,62.7z M143.9,27.4c0,2.3-0.8,4.5-2.5,6.5c-2,2.4-4.5,3.8-7.2,3.5c0-0.3-0.1-0.6-0.1-0.9c0-2.2,1-4.6,2.7-6.6
		c0.9-1,2-1.8,3.3-2.5c1.3-0.6,2.6-1,3.8-1.1C143.9,26.8,143.9,27.1,143.9,27.4L143.9,27.4z"/>
</g>
<g id="titles">
</g>
</svg>
