<svg id="ICONS" xmlns="http://www.w3.org/2000/svg" viewBox="0 0 400 140"><defs><style>.cls-1,.cls-6{fill:none;stroke-miterlimit:10;stroke-width:2px;}.cls-1{stroke:#aad2f2;}.cls-2{fill:#3e3e3e;}.cls-3{fill:#fff;}.cls-4{fill:#b8d432;}.cls-5{fill:#aad2f2;}.cls-6{stroke:#80bceb;}</style></defs><title>net-docs-cloud-2</title><path class="cls-1" d="M349,59c7.32,4,15.28,13.44,15.28,22.37a23.72,23.72,0,0,1-13.61,21.4l-.36.15a21.7,21.7,0,0,1-7,1.91l-.59.06c-3.06.27-7.21.32-13.78.32H260.34a21.35,21.35,0,0,1-5-.59C243.57,102.25,235,91.52,235,79.11s8.55-23,20.17-25.47C257.08,41.36,267.58,32,279.81,32a24.69,24.69,0,0,1,21,11.81,27.28,27.28,0,0,1,11.08-2.6C317,41,320.87,43.6,324,45"/><path class="cls-2" d="M242.34,54.21a31,31,0,0,0,.72-6.55,29.81,29.81,0,0,0-56.58-13.08,21.42,21.42,0,0,0-36.54,15.14,22.78,22.78,0,0,0,.54,4.87c-9.72,4-15.48,12.17-15.48,22.15,0,13.47,11,24,25,24h1.6a22.7,22.7,0,0,0,42.5,10.63,16.47,16.47,0,0,0,10.8,4,16.65,16.65,0,0,0,16.47-14.67h2.38c14,0,25-10.55,25-24,0-10.4-6.3-19-16.5-22.55"/><path class="cls-3" d="M232.67,65.44l1.82-4.32-.53-.46-4-3.46,0-3.49,4.49-4-1.77-4.34-.69,0-5.26.38-2.46-2.49.33-6-4.31-1.82-.46.53-3.46,4-3.5,0-4-4.48-4.34,1.76,0,.7.37,5.26-2.49,2.45-6-.33-1.82,4.32.53.46,4,3.46,0,3.5-4.48,4,1.76,4.34.7-.05,5.26-.37,2.46,2.49-.33,6,4.32,1.82.46-.53,3.46-4,3.5,0,4,4.49,4.34-1.76,0-.7-.37-5.26,2.49-2.46ZM210.85,64.2a9.59,9.59,0,1,1,12.56-5.1,9.58,9.58,0,0,1-12.56,5.1"/><path class="cls-3" d="M205.23,87.12V82.44l-.66-.21-5-1.64-1.33-3.23,2.58-5.44-3.31-3.31-.62.31-4.7,2.38L188.93,70l-2-5.67h-4.68l-.22.67-1.64,5-3.23,1.33-5.44-2.57L168.38,72l.31.62,2.38,4.71-1.34,3.22-5.67,2v4.68l.66.22,5,1.64,1.33,3.23-2.58,5.44,3.31,3.32.62-.32,4.71-2.39,3.22,1.34,2,5.67h4.68l.22-.66,1.64-5,3.23-1.33L197.6,101l3.32-3.31-.31-.62-2.39-4.7,1.34-3.23Zm-20.59,7.33a9.59,9.59,0,1,1,9.6-9.58,9.59,9.59,0,0,1-9.6,9.58"/><path class="cls-4" d="M220.32,57.79A6.22,6.22,0,1,1,217,49.63a6.22,6.22,0,0,1,3.31,8.16"/><path class="cls-4" d="M190.88,84.87a6.22,6.22,0,1,1-6.22-6.23,6.23,6.23,0,0,1,6.22,6.23"/><path class="cls-5" d="M325.86,99.46A10.11,10.11,0,0,0,324,96.41,14,14,0,0,0,320.18,93v-.34a11.34,11.34,0,0,0-11.33-11.19,11.13,11.13,0,0,0-6,1.68A15.16,15.16,0,0,0,290.67,77a14.92,14.92,0,0,0-15,14.68c0,.56.14,1,.14,1.54C271.52,95.32,269,99,269,103.57a12.39,12.39,0,0,0,12.06,12.27c.63,4.58,6.4,8.17,13.44,8.17,6,0,11.07-2.6,12.83-6.21a14,14,0,0,0,18.53-18.33Z"/><path class="cls-6" d="M76.19,117a3.26,3.26,0,0,0,3,2.24l6.84-.21a3.5,3.5,0,0,0,2.79-3.55l.39-8.38c.15-3.15,1.24-4.15,3.39-5.1,1.09-1,7-3.36,9.53-1.67l7.64,5.08a4,4,0,0,0,3.69-.36l5-5.55c.55-.5.64-2.6-.86-4.24l-6-6.57c-2-2.19-1.4-3.74-.81-5.29a23.77,23.77,0,0,0,1.25-4.14c.1-2.1,1.24-4.15,4.93-4.5l7.94-1.22A4.15,4.15,0,0,0,127.73,70L127,62.58a2.58,2.58,0,0,0-3-2.24L115.58,60c-3.15-.14-6.55-6.07-7.55-7.17a8.41,8.41,0,0,1,.29-6.29l5-6.6a3.79,3.79,0,0,0-.31-4.74l-5.6-3.93a3.19,3.19,0,0,0-4.19-.19l-6.08,6.55a5.35,5.35,0,0,1-5.84,1.31L86.7,37.12c-1.55-.59-3.1-1.19-4-4.38l-1.16-9a3.25,3.25,0,0,0-3-2.24l-7.39.72a2.58,2.58,0,0,0-2.24,3l-.94,8.89c-.14,3.14-5.53,6-6.63,7.05-2.14,1-3.74,1.4-6.29-.29l-7.1-5.57a4.08,4.08,0,0,0-4.24.85l-5,5.56c0,1-.64,2.59.86,4.24l6,6.57c2,2.19.16,7.89.06,10-.6,1.55-1.19,3.1-4.88,3.45l-8.48,1.72A3.27,3.27,0,0,0,30,70.8l.71,7.38a3.34,3.34,0,0,0,2.5,2.74l8.93-.12c3.14.14,4.14,1.24,4.6,2.83,1,2.14,3.8,8.58,2.66,10.63l-5.58,7.1a4.07,4.07,0,0,0,.85,4.24l5,4.43a3.19,3.19,0,0,0,4.19.19L60,103.66a5.34,5.34,0,0,1,5.84-1.31c1.55.6,7.74,3,8.65,6.17L76.19,117M96.78,69.09c.61,9.48-6.61,18.08-16.64,19.21S61.51,82.2,60.95,71.67C60.33,62.19,67.56,53.59,77,53A17.84,17.84,0,0,1,96.78,69.09"/><path class="cls-6" d="M331,70.73a1.35,1.35,0,0,0,1,1.17l2.78.51a1.45,1.45,0,0,0,1.44-1.19l.89-3.35a2,2,0,0,1,1.81-1.76c.53-.31,1.21-.35,1.75-.66a2.43,2.43,0,0,1,2.25.82L345.57,69a1.64,1.64,0,0,0,1.52.18l2.5-1.8a1.5,1.5,0,0,0,0-1.79l-1.85-3.18a1.76,1.76,0,0,1,.14-2.21,9.82,9.82,0,0,0,.87-1.56,1.91,1.91,0,0,1,2.39-1.39l3.31.2a1.72,1.72,0,0,0,1.44-1.19l.36-3a1.06,1.06,0,0,0-1-1.17l-3.35-.89c-1.26-.33-2.13-2.52-2.42-3.56a2.92,2.92,0,0,1,.67-2.51l2.61-2.22a1.57,1.57,0,0,0,.29-1.94l-1.92-2.08a1.32,1.32,0,0,0-1.68-.45l-3,2.11a2.21,2.21,0,0,1-2.47,0c-.57-.38-2.87-1.88-3-3.25l.32-3.73a1.34,1.34,0,0,0-1-1.17l-3-.36a1.07,1.07,0,0,0-1.17,1l-1.16,3.51c-.33,1.26-2.76,2-3.29,2.27a2.28,2.28,0,0,1-2.51-.67l-2.38-2.87a1.69,1.69,0,0,0-1.79,0s-3.54,2.22-2.53,3.59L324.25,42c.62,1.06-.63,3.2-.85,4-.38.57-.75,1.15-2.28,1L317.55,47a1.35,1.35,0,0,0-1.17,1l-.36,3a1.38,1.38,0,0,0,.77,1.33l3.62.74c1.26.33,1.77,2,2.15,3.71a2.37,2.37,0,0,1-.4,2.36l-2.87,2.38a1.68,1.68,0,0,0,0,1.78l1.65,2.23a1.32,1.32,0,0,0,1.68.45l3-2.11a2.21,2.21,0,0,1,2.47,0c.57.38,2.87,1.88,3,3.25L331,70.73m12.52-17.54a7.63,7.63,0,0,1-8.4,6.3,7.08,7.08,0,0,1-6.29-8.4,7.28,7.28,0,0,1,8.14-6.14,7.37,7.37,0,0,1,6.56,8.24"/></svg>