<?xml version="1.0" encoding="utf-8"?>
<!-- Generator: Adobe Illustrator 20.1.0, SVG Export Plug-In . SVG Version: 6.00 Build 0)  -->
<svg version="1.1" id="Layer_1" xmlns="http://www.w3.org/2000/svg" xmlns:xlink="http://www.w3.org/1999/xlink" x="0px" y="0px"
	 viewBox="0 0 200 144" style="enable-background:new 0 0 200 144;" xml:space="preserve">
<style type="text/css">
	.st0{opacity:0.3;fill:#FFB900;}
	.st1{clip-path:url(#SVGID_2_);}
	.st2{fill:#A8DCEB;}
	.st3{fill:#2F75BB;}
	.st4{fill:#549DD5;}
	.st5{fill:#5E5E5E;}
	.st6{fill:#2E2E2E;}
	.st7{fill:#221F1F;}
	.st8{fill:#FFFFFF;}
	.st9{fill:#5E615F;}
	.st10{fill:#ACACAC;}
	.st11{fill:none;stroke:#767676;stroke-width:0.199;stroke-miterlimit:10;}
	.st12{opacity:0.3;fill:#00B294;}
	.st13{fill:#0582AD;}
	.st14{fill:#109FC6;}
	.st15{fill:none;stroke:#231F20;stroke-width:6;stroke-miterlimit:10;}
	.st16{opacity:0.3;fill:#00BCF2;}
	.st17{fill:#6DA0B5;}
	.st18{fill:#7CABC2;}
	.st19{opacity:0.3;fill:#BAD80A;}
	.st20{fill:#A5A7AA;}
	.st21{fill:#B4A0FF;}
	.st22{fill:#B7ACF9;}
	.st23{fill:#3498DB;}
	.st24{fill:#505050;}
</style>
<rect x="0" y="0.2" class="st19" width="200" height="144"/>
<rect x="38" y="71.7" class="st8" width="49" height="54"/>
<g>
	<g>
		<path class="st6" d="M186.6,134.1H13.4c-1.1,0-2.1-0.9-2.1-2.1V13.9c0-1.1,0.9-2.1,2.1-2.1h173.3c1.1,0,2.1,0.9,2.1,2.1v118.1
			C188.7,133.2,187.8,134.1,186.6,134.1z"/>
		<rect x="21.8" y="20.7" class="st20" width="156.7" height="104.3"/>
		<rect x="21.8" y="20.7" class="st21" width="156.7" height="104.3"/>
		<polygon class="st20" points="181.8,74.7 185.9,75.2 185.9,71 181.8,71.5 		"/>
		<polygon class="st22" points="178.6,98.1 178.6,20.7 94.1,20.7 		"/>
	</g>
	<g>
		<g>
			<rect x="56.7" y="60.6" class="st8" width="42.5" height="47.9"/>
			<path class="st23" d="M117.6,79.1c-1.4-2.1-14.5-24.9-16.1-27.6s-3.9-3.7-6.9-3.7c-0.8,0-2.4,0-4.6,0c-6,0-17.1,0-23.5,0
				c-2.2,0-3.8,0-4.6,0c-3,0-5.3,0.9-6.9,3.7S40.2,77.1,38.8,79.1s-1.4,4.6,0.9,8.8c2.3,4.1,13.8,24.4,15.2,27c1.4,2.5,3.5,4,6.9,4
				c0.8,0,2.6,0,4.9,0c8.2,0,22.8,0,22.8,0c2.3,0,4.2,0,4.9,0c3.5,0,5.5-1.5,6.9-4c1.4-2.5,12.9-22.8,15.2-27
				C118.9,83.7,118.9,81.2,117.6,79.1z M96.1,101.8h-7.6L78.2,84l-10.3,17.8h-7.6l10.4-18.5L60.3,64.9h7.7l10.2,17.8l10.2-17.8h7.7
				L85.7,83.3L96.1,101.8z"/>
		</g>
		<g>
			<polygon class="st24" points="119.7,75.1 105.6,50.6 119.7,26.1 148,26.1 162.1,50.6 148,75.1 			"/>
			<path class="st8" d="M146.6,58c-0.5,1.1-1,2.1-1.7,3c-0.9,1.3-1.6,2.1-2.2,2.6c-0.9,0.8-1.8,1.2-2.8,1.2c-0.7,0-1.6-0.2-2.6-0.6
				c-1-0.4-1.9-0.6-2.8-0.6c-0.9,0-1.8,0.2-2.9,0.6c-1,0.4-1.8,0.6-2.5,0.7c-1,0-1.9-0.4-2.9-1.3c-0.6-0.5-1.4-1.4-2.3-2.7
				c-1-1.4-1.8-3-2.4-4.8c-0.7-2-1-3.9-1-5.7c0-2.1,0.5-3.9,1.4-5.5c0.7-1.2,1.7-2.2,2.9-2.9c1.2-0.7,2.5-1.1,3.9-1.1
				c0.8,0,1.8,0.2,3,0.7c1.2,0.5,2,0.7,2.4,0.7c0.3,0,1.1-0.3,2.6-0.8c1.4-0.5,2.6-0.7,3.6-0.6c2.6,0.2,4.6,1.3,6,3.1
				c-2.4,1.4-3.5,3.4-3.5,6c0,2,0.7,3.7,2.2,5c0.6,0.6,1.4,1.1,2.2,1.4C146.9,57.1,146.8,57.6,146.6,58L146.6,58z M140.5,34.2
				c0,1.6-0.6,3-1.7,4.4c-1.4,1.6-3.1,2.6-4.9,2.4c0-0.2,0-0.4,0-0.6c0-1.5,0.7-3.1,1.8-4.4c0.6-0.7,1.3-1.2,2.2-1.7
				c0.9-0.4,1.7-0.7,2.5-0.7C140.5,33.7,140.5,33.9,140.5,34.2L140.5,34.2z"/>
		</g>
	</g>
</g>
</svg>
