<?xml version="1.0" encoding="utf-8"?>
<!-- Generator: Adobe Illustrator 20.1.0, SVG Export Plug-In . SVG Version: 6.00 Build 0)  -->
<svg version="1.1" id="Layer_1" xmlns="http://www.w3.org/2000/svg" xmlns:xlink="http://www.w3.org/1999/xlink" x="0px" y="0px"
	 viewBox="0 0 200 144" style="enable-background:new 0 0 200 144;" xml:space="preserve">
<style type="text/css">
	.st0{opacity:0.3;fill:#FFB900;}
	.st1{clip-path:url(#SVGID_2_);}
	.st2{fill:#A8DCEB;}
	.st3{fill:#2F75BB;}
	.st4{fill:#549DD5;}
	.st5{fill:#5E5E5E;}
	.st6{fill:#2E2E2E;}
	.st7{fill:#221F1F;}
	.st8{fill:#FFFFFF;}
	.st9{fill:#5E615F;}
	.st10{fill:#ACACAC;}
	.st11{fill:none;stroke:#767676;stroke-width:0.199;stroke-miterlimit:10;}
	.st12{opacity:0.3;fill:#00B294;}
	.st13{fill:#0582AD;}
	.st14{fill:#109FC6;}
	.st15{fill:none;stroke:#231F20;stroke-width:6;stroke-miterlimit:10;}
	.st16{opacity:0.3;fill:#00BCF2;}
	.st17{fill:#6DA0B5;}
	.st18{fill:#7CABC2;}
	.st19{opacity:0.3;fill:#BAD80A;}
	.st20{fill:#A5A7AA;}
	.st21{fill:#B4A0FF;}
	.st22{fill:#B7ACF9;}
	.st23{fill:#3498DB;}
	.st24{fill:#505050;}
</style>
<g>
	<rect class="st0" width="200" height="144"/>
	<g>
		<defs>
			<rect id="SVGID_1_" y="-4" width="200" height="148"/>
		</defs>
		<clipPath id="SVGID_2_">
			<use xlink:href="#SVGID_1_"  style="overflow:visible;"/>
		</clipPath>
		<g class="st1">
			<path class="st2" d="M147.7,23.6c-8.3,0-16.3,1.6-23.5,4.5L-47.6,89.3l172.9,57c7,2.6,14.6,6.1,22.5,6.1
				c35,0,63.4-30.4,63.4-65.4S182.7,23.6,147.7,23.6z"/>
			<g>
				<rect x="40.8" y="39.2" class="st3" width="96.6" height="53"/>
				<polygon class="st4" points="137.4,67.3 137.4,38.4 108.5,38.4 				"/>
				<g>
					<polygon class="st5" points="110.6,103.8 68.9,103.8 71.3,101 108.2,101 					"/>
					<path class="st6" d="M108.9,105.3c-1.9,0-36.5,0-38.3,0c-1.8,0-1.8-1.6-1.8-1.6h41.8C110.6,103.8,110.8,105.3,108.9,105.3z"/>
					<polygon class="st6" points="98.8,102 80.7,102 82.2,93.7 97.3,93.7 					"/>
					<path class="st7" d="M138.3,38H40.9c-1.2,0-2.3,1-2.3,2.3v52c0,1.2,1,2.3,2.3,2.3h97.4c1.2,0,2.3-1,2.3-2.3v-52
						C140.5,39,139.5,38,138.3,38z M137.1,90.6H42V40.9h95.1V90.6z"/>
					<polygon class="st5" points="129.6,111.6 50.9,111.6 55.5,106.4 125,106.4 					"/>
					<polygon class="st6" points="122.4,110 58.1,110 60.4,107 120.2,107 					"/>
					<path class="st6" d="M126.5,113.6c-3.5,0-69,0-72.4,0c-3.3,0-3.4-2-3.4-2h78.9C129.6,111.6,130,113.6,126.5,113.6z"/>
				</g>
				<g>
					<polygon class="st8" points="85.6,65 85.6,53.8 73.9,55.3 73.9,65 					"/>
					<polygon class="st8" points="87,65 102.3,65 102.3,51.6 87,53.6 					"/>
					<polygon class="st8" points="87,66.3 87,77.8 102.3,79.9 102.3,66.3 					"/>
					<polygon class="st8" points="85.6,66.3 73.9,66.3 74,76 85.6,77.6 					"/>
				</g>
			</g>
			<g>
				<g>
					<path class="st7" d="M182.4,113V68.5c0-1-0.8-1.7-1.7-1.7h-61.7c-1,0-1.7,0.8-1.7,1.7V113H182.4z"/>
					<path class="st7" d="M187.8,118c-2,0-73.1,0-75.6,0s-2.9-2.6-2.9-2.6h81.5C190.7,115.3,189.7,118,187.8,118z"/>
					<rect x="149.5" y="68.3" class="st9" width="1" height="0.9"/>
					<rect x="149.1" y="108.2" class="st9" width="1.9" height="1.7"/>
					<g>
						<rect x="120.5" y="70.2" class="st3" width="58.5" height="36.3"/>
						<polygon class="st4" points="179,70.2 156.6,70.2 179,91.1 						"/>
					</g>
					<polygon class="st10" points="109.2,115.3 117.2,112.5 182.4,112.5 190.7,115.3 					"/>
					<polygon class="st5" points="118.6,114.1 120.9,113.1 178.5,113.1 180.9,114.1 					"/>
				</g>
				<g>
					<polygon class="st8" points="147.3,87.2 147.3,77.9 137.7,79.2 137.7,87.2 					"/>
					<polygon class="st8" points="148.5,87.2 161.1,87.2 161.1,76.1 148.5,77.8 					"/>
					<polygon class="st8" points="148.5,88.3 148.5,97.8 161.1,99.5 161.1,88.3 					"/>
					<polygon class="st8" points="147.3,88.3 137.7,88.3 137.7,96.3 147.3,97.6 					"/>
				</g>
			</g>
			<g>
				<path class="st7" d="M13.2,97.5L61,99.7c0.7,0,1.4-0.6,1.4-1.3V57.5c0-0.7-0.6-1.3-1.4-1.3l-47.8,2.2c-0.7,0-1.2,0.6-1.2,1.3
					v36.4C12,96.9,12.5,97.5,13.2,97.5z"/>
				<polygon class="st3" points="14.9,94 58.5,95.8 58.5,59.9 14.9,61.6 				"/>
				<polygon class="st4" points="58.5,76.2 58.5,59.9 42.8,60.5 				"/>
				<g>
					<polygon class="st8" points="34.4,77 34.4,68.4 25.4,69.6 25.4,77 					"/>
					<polygon class="st8" points="35.4,77 47.3,77 47.3,66.7 35.4,68.3 					"/>
					<polygon class="st8" points="35.4,78 35.4,86.9 47.3,88.5 47.3,78 					"/>
					<polygon class="st8" points="34.4,78 25.4,78 25.4,85.5 34.4,86.8 					"/>
				</g>
			</g>
			<g>
				<g>
					<path class="st6" d="M125.4,131.1h-20.3c-1.1,0-2-0.9-2-2v-43c0-1.1,0.9-2,2-2h20.3c1.1,0,2,0.9,2,2v43
						C127.4,130.3,126.5,131.1,125.4,131.1z"/>
					<path class="st6" d="M103.1,125v5c0,0.6,0.5,1.2,1.2,1.2h22c0.6,0,1.2-0.5,1.2-1.2v-5H103.1z"/>
					<rect x="104.9" y="89.8" class="st3" width="20.6" height="34.2"/>
					<g>
						<path class="st11" d="M118.3,87h-6.2c-0.3,0-0.6-0.3-0.6-0.6s0.3-0.6,0.6-0.6h6.2c0.3,0,0.6,0.3,0.6,0.6S118.6,87,118.3,87z"
							/>
					</g>
					<circle class="st10" cx="107.7" cy="127.6" r="0.7"/>
					<circle class="st10" cx="122.4" cy="127.6" r="0.7"/>
					<polygon class="st10" points="115.9,128.2 114.5,128.1 114.5,127 115.9,126.8 					"/>
				</g>
				<polygon class="st4" points="125.5,108.3 125.5,89.8 107.1,89.8 				"/>
				<g>
					<polygon class="st8" points="114.1,103 114.1,98 108.8,98.7 108.8,103 					"/>
					<polygon class="st8" points="114.7,103 121.6,103 121.6,97 114.7,97.9 					"/>
					<polygon class="st8" points="114.7,103.6 114.7,108.8 121.6,109.7 121.6,103.6 					"/>
					<polygon class="st8" points="114.1,103.6 108.8,103.6 108.9,108 114.1,108.7 					"/>
				</g>
			</g>
		</g>
	</g>
</g>
</svg>
