<?xml version="1.0" encoding="utf-8"?>
<!-- Generator: Adobe Illustrator 21.0.0, SVG Export Plug-In . SVG Version: 6.00 Build 0)  -->
<svg version="1.1" id="Layer_1" xmlns="http://www.w3.org/2000/svg" xmlns:xlink="http://www.w3.org/1999/xlink" x="0px" y="0px"
	 width="80px" height="80px" viewBox="0 0 80 80" enable-background="new 0 0 80 80" xml:space="preserve">
<g>
	<circle fill="#633BA3" cx="40" cy="40" r="35"/>
	<path fill="#5C2D91" d="M15.735,14.79C9.122,21.157,5,30.094,5,40c0,19.33,15.67,35,35,35c9.906,0,18.843-4.122,25.21-10.735
		L15.735,14.79z"/>
	<g>
		<path fill="#FFFFFF" d="M13.39,46.019c-0.41,0-0.759-0.144-1.046-0.431s-0.431-0.636-0.431-1.046c0-0.42,0.141-0.774,0.423-1.061
			s0.633-0.431,1.054-0.431c0.205,0,0.397,0.038,0.577,0.115s0.336,0.179,0.469,0.308s0.241,0.285,0.323,0.469
			s0.123,0.385,0.123,0.6c0,0.205-0.041,0.397-0.123,0.577s-0.19,0.336-0.323,0.469s-0.29,0.238-0.469,0.315
			S13.595,46.019,13.39,46.019z"/>
		<path fill="#FFFFFF" d="M33.24,45.711L20.997,28.008c-0.154-0.226-0.305-0.456-0.454-0.692s-0.269-0.467-0.361-0.692h-0.077
			c0.021,0.185,0.038,0.441,0.054,0.769s0.023,0.738,0.023,1.23v17.088h-2.046V23.655h2.261l12.043,17.488
			c0.185,0.277,0.351,0.536,0.5,0.777s0.285,0.464,0.408,0.669h0.077c-0.041-0.338-0.072-0.718-0.092-1.138s-0.031-0.887-0.031-1.4
			V23.655h2.061v22.056H33.24z"/>
		<path fill="#FFFFFF" d="M39.509,45.711V23.655h10.751v1.876h-8.706v8.09h8.06v1.846h-8.06v8.383h9.198v1.861H39.509z"/>
		<path fill="#FFFFFF" d="M61.719,25.532v20.18h-2.046v-20.18h-6.352v-1.876h14.766v1.876H61.719z"/>
		<path fill="#FFFFFF" d="M33.932,55.878c-0.6,0.311-1.346,0.467-2.238,0.467c-1.155,0-2.081-0.365-2.777-1.094
			c-0.696-0.73-1.044-1.687-1.044-2.872c0-1.274,0.391-2.303,1.175-3.088c0.783-0.785,1.773-1.177,2.969-1.177
			c0.77,0,1.409,0.109,1.916,0.327v1.311c-0.537-0.318-1.129-0.477-1.777-0.477c-0.863,0-1.562,0.275-2.096,0.827
			c-0.535,0.552-0.803,1.289-0.803,2.211c0,0.878,0.25,1.577,0.75,2.097s1.157,0.78,1.972,0.78c0.752,0,1.404-0.178,1.955-0.533
			V55.878z"/>
		<path fill="#FFFFFF" d="M37.82,56.345c-0.878,0-1.578-0.266-2.102-0.797c-0.524-0.531-0.786-1.236-0.786-2.113
			c0-0.955,0.273-1.701,0.819-2.239c0.546-0.537,1.282-0.805,2.208-0.805c0.889,0,1.581,0.261,2.077,0.783
			c0.496,0.523,0.744,1.247,0.744,2.172c0,0.907-0.267,1.634-0.802,2.18C39.443,56.071,38.724,56.345,37.82,56.345z M37.882,51.418
			c-0.504,0-0.901,0.176-1.194,0.528s-0.439,0.837-0.439,1.455c0,0.596,0.148,1.066,0.444,1.408s0.693,0.514,1.189,0.514
			c0.507,0,0.897-0.168,1.169-0.506c0.273-0.337,0.408-0.816,0.408-1.438c0-0.625-0.136-1.109-0.408-1.45
			C38.779,51.589,38.389,51.418,37.882,51.418z"/>
		<path fill="#FFFFFF" d="M45.391,51.751c-0.156-0.121-0.379-0.183-0.672-0.183c-0.382,0-0.7,0.173-0.955,0.516
			c-0.255,0.345-0.383,0.813-0.383,1.406v2.722h-1.289v-5.688h1.289v1.172h0.022c0.126-0.4,0.319-0.713,0.581-0.937
			c0.261-0.224,0.552-0.336,0.875-0.336c0.233,0,0.411,0.035,0.533,0.105V51.751z"/>
		<path fill="#FFFFFF" d="M51.017,53.718H47.14c0.015,0.526,0.177,0.931,0.486,1.216c0.309,0.285,0.734,0.428,1.274,0.428
			c0.607,0,1.165-0.182,1.672-0.545v1.039c-0.518,0.326-1.204,0.489-2.055,0.489c-0.837,0-1.493-0.258-1.969-0.775
			c-0.476-0.516-0.714-1.243-0.714-2.18c0-0.885,0.262-1.606,0.786-2.164c0.524-0.557,1.175-0.836,1.953-0.836
			s1.379,0.25,1.805,0.75c0.426,0.499,0.639,1.194,0.639,2.082V53.718z M49.773,52.807c-0.004-0.463-0.113-0.824-0.328-1.081
			s-0.511-0.385-0.889-0.385c-0.37,0-0.684,0.135-0.941,0.405c-0.258,0.27-0.416,0.624-0.475,1.061H49.773z"/>
	</g>
</g>
</svg>
