<?xml version="1.0" encoding="utf-8"?>
<!-- Generator: Adobe Illustrator 21.0.0, SVG Export Plug-In . SVG Version: 6.00 Build 0)  -->
<svg version="1.1" id="Layer_1" xmlns="http://www.w3.org/2000/svg" xmlns:xlink="http://www.w3.org/1999/xlink" x="0px" y="0px"
	 width="80px" height="80px" viewBox="0 0 80 80" enable-background="new 0 0 80 80" xml:space="preserve">
<g>
	<circle fill="#633BA3" cx="40" cy="40" r="35"/>
	<path fill="#5C2D91" d="M15.735,14.79C9.122,21.157,5,30.094,5,40c0,19.33,15.67,35,35,35c9.906,0,18.843-4.122,25.21-10.735
		L15.735,14.79z"/>
	<g>
		<path fill="#FFFFFF" d="M13.39,45.587c-0.41,0-0.759-0.144-1.046-0.431s-0.431-0.636-0.431-1.046c0-0.42,0.14-0.774,0.422-1.061
			s0.634-0.431,1.054-0.431c0.205,0,0.396,0.038,0.576,0.115s0.337,0.179,0.47,0.308s0.241,0.285,0.323,0.469s0.123,0.385,0.123,0.6
			c0,0.205-0.041,0.397-0.123,0.577s-0.19,0.336-0.323,0.469s-0.291,0.238-0.47,0.315S13.595,45.587,13.39,45.587z"/>
		<path fill="#FFFFFF" d="M33.24,45.279L20.997,27.576c-0.154-0.226-0.304-0.456-0.453-0.692s-0.27-0.467-0.362-0.692h-0.077
			c0.021,0.185,0.039,0.441,0.055,0.769s0.022,0.738,0.022,1.23v17.088h-2.046V23.223h2.261L32.44,40.711
			c0.185,0.277,0.352,0.536,0.501,0.777s0.284,0.464,0.407,0.669h0.077c-0.041-0.338-0.072-0.718-0.092-1.138
			s-0.031-0.887-0.031-1.4V23.223h2.061v22.056H33.24z"/>
		<path fill="#FFFFFF" d="M39.509,45.279V23.223H50.26v1.876h-8.706v8.09h8.06v1.846h-8.06v8.383h9.198v1.861H39.509z"/>
		<path fill="#FFFFFF" d="M61.719,25.099v20.18h-2.046v-20.18h-6.352v-1.876h14.766v1.876H61.719z"/>
		<path fill="#FFFFFF" d="M17.742,50.338h-2.748v2.21h2.533v1.031h-2.533v3.076h-1.22v-7.352h3.968V50.338z"/>
		<path fill="#FFFFFF" d="M21.94,52.537c-0.144-0.113-0.35-0.169-0.62-0.169c-0.352,0-0.646,0.159-0.882,0.477
			s-0.354,0.75-0.354,1.297v2.512h-1.189v-5.25h1.189v1.082h0.021c0.116-0.369,0.296-0.657,0.537-0.864s0.509-0.31,0.807-0.31
			c0.215,0,0.379,0.032,0.492,0.097V52.537z"/>
		<path fill="#FFFFFF" d="M26.81,56.654h-1.154v-0.82h-0.021c-0.362,0.629-0.894,0.943-1.594,0.943c-0.516,0-0.919-0.14-1.212-0.42
			s-0.439-0.651-0.439-1.113c0-0.991,0.571-1.569,1.712-1.733l1.559-0.22c0-0.749-0.355-1.123-1.066-1.123
			c-0.625,0-1.189,0.215-1.692,0.646v-1.041c0.554-0.328,1.193-0.492,1.917-0.492c1.326,0,1.989,0.653,1.989,1.958V56.654z
			 M25.662,54.075l-1.102,0.154c-0.342,0.044-0.598,0.127-0.771,0.249s-0.26,0.334-0.26,0.638c0,0.222,0.08,0.404,0.239,0.546
			s0.371,0.213,0.637,0.213c0.362,0,0.663-0.127,0.901-0.382s0.355-0.575,0.355-0.961V54.075z"/>
		<path fill="#FFFFFF" d="M36.111,56.654h-1.189v-2.861c0-0.55-0.077-0.948-0.232-1.195s-0.419-0.369-0.788-0.369
			c-0.311,0-0.574,0.156-0.791,0.467s-0.326,0.684-0.326,1.118v2.84h-1.195v-2.958c0-0.978-0.345-1.466-1.036-1.466
			c-0.321,0-0.584,0.147-0.791,0.441s-0.311,0.675-0.311,1.143v2.84h-1.189v-5.25h1.189v0.831h0.021
			c0.379-0.636,0.931-0.954,1.656-0.954c0.362,0,0.68,0.1,0.952,0.3s0.456,0.462,0.555,0.787c0.39-0.725,0.971-1.087,1.743-1.087
			c1.155,0,1.733,0.713,1.733,2.138V56.654z"/>
		<path fill="#FFFFFF" d="M42.007,54.352h-3.579c0.014,0.485,0.164,0.86,0.449,1.123s0.677,0.395,1.176,0.395
			c0.561,0,1.075-0.167,1.543-0.502v0.959c-0.479,0.301-1.111,0.451-1.897,0.451c-0.772,0-1.377-0.238-1.817-0.715
			s-0.66-1.148-0.66-2.012c0-0.817,0.243-1.483,0.726-1.997s1.083-0.772,1.801-0.772s1.273,0.231,1.666,0.692s0.59,1.102,0.59,1.923
			V54.352z M40.858,53.511c-0.003-0.427-0.104-0.76-0.302-0.997s-0.472-0.356-0.82-0.356c-0.342,0-0.631,0.125-0.868,0.374
			s-0.385,0.576-0.439,0.979H40.858z"/>
		<path fill="#FFFFFF" d="M50.2,51.404l-1.548,5.25h-1.246l-0.954-3.558c-0.038-0.137-0.062-0.291-0.072-0.461H46.36
			c-0.007,0.116-0.038,0.267-0.092,0.451l-1.036,3.568h-1.22l-1.543-5.25h1.23l0.954,3.784c0.031,0.113,0.051,0.263,0.062,0.451
			h0.036c0.01-0.144,0.038-0.297,0.082-0.461l1.061-3.773h1.118l0.943,3.799c0.031,0.12,0.053,0.27,0.067,0.451h0.036
			c0.007-0.126,0.032-0.277,0.077-0.451l0.933-3.799H50.2z"/>
		<path fill="#FFFFFF" d="M53.368,56.777c-0.81,0-1.456-0.245-1.94-0.736s-0.726-1.141-0.726-1.951c0-0.882,0.253-1.571,0.757-2.066
			s1.183-0.743,2.037-0.743c0.82,0,1.459,0.241,1.917,0.723s0.687,1.15,0.687,2.005c0,0.837-0.246,1.508-0.74,2.012
			S54.202,56.777,53.368,56.777z M53.424,52.229c-0.465,0-0.832,0.162-1.102,0.487s-0.405,0.772-0.405,1.343
			c0,0.55,0.137,0.984,0.41,1.3s0.639,0.474,1.097,0.474c0.468,0,0.829-0.156,1.08-0.467s0.376-0.754,0.376-1.328
			c0-0.578-0.125-1.024-0.376-1.338S53.893,52.229,53.424,52.229z"/>
		<path fill="#FFFFFF" d="M60.356,52.537c-0.144-0.113-0.35-0.169-0.62-0.169c-0.352,0-0.646,0.159-0.882,0.477
			s-0.354,0.75-0.354,1.297v2.512h-1.189v-5.25H58.5v1.082h0.021c0.116-0.369,0.296-0.657,0.537-0.864s0.509-0.31,0.807-0.31
			c0.215,0,0.379,0.032,0.492,0.097V52.537z"/>
		<path fill="#FFFFFF" d="M65.96,56.654h-1.507l-2.041-2.522h-0.021v2.522h-1.195v-7.772h1.195v4.927h0.021l1.928-2.405h1.43
			l-2.169,2.533L65.96,56.654z"/>
	</g>
</g>
</svg>
