<svg id="ICONS" xmlns="http://www.w3.org/2000/svg" viewBox="0 0 400 140"><defs><style>.cls-1{fill:none;stroke:#5d5f5e;stroke-miterlimit:10;stroke-dasharray:2 2;}.cls-2{fill:#fff;}.cls-3{fill:#3498db;}.cls-4{fill:#7e1b96;}.cls-5{fill:#721481;}.cls-6{fill:#0b9e0b;}.cls-7{fill:#05930c;}.cls-8{fill:#a4ca39;}</style></defs><title>net-docs-mobile-2</title><polyline class="cls-1" points="318.5 100 318.5 123.5 93.5 123.5 93.5 106"/><line class="cls-1" x1="228.5" y1="124" x2="228.5" y2="100"/><line class="cls-1" x1="192.5" y1="124" x2="192.5" y2="58"/><rect class="cls-2" x="64.99" y="33.83" width="59.13" height="66.71"/><path class="cls-3" d="M147.61,59.61c-1.92-2.89-20.2-34.63-22.44-38.48S119.71,16,115.54,16H70c-4.17,0-7.37,1.28-9.62,5.13S39.9,56.72,38,59.61,36.06,66,39.26,71.79s19.24,34,21.16,37.51,4.81,5.61,9.62,5.61h45.5c4.81,0,7.7-2.08,9.62-5.61s18-31.74,21.16-37.51S149.53,62.49,147.61,59.61ZM117.75,91.19H107.17L92.85,66.37,78.54,91.19H68L82.39,65.46,68,39.73H78.7L92.85,64.54,107,39.73h10.74L103.32,65.46Z"/><circle class="cls-4" cx="192" cy="46" r="23"/><path class="cls-5" d="M176.28,29.66a22.67,22.67,0,1,0,32.06,32.06Z"/><path class="cls-2" d="M181.42,37.55v7.18h7v1.61h-7V55h-1.77V35.93h9.29v1.62Z"/><path class="cls-2" d="M205.27,42.55h-3.53l-.93,4.29h3.76l-.29,1.22h-3.71l-1.16,5.29H198l1.14-5.29h-3.44l-1.13,5.29h-1.37l1.13-5.29h-3.61l.25-1.22h3.63l.9-4.29h-3.79l.27-1.22h3.77l1.14-5.4h1.37l-1.14,5.4h3.46l1.16-5.4h1.36L202,41.32h3.57Zm-8.35,0L196,46.84h3.47l.93-4.29Z"/><circle class="cls-6" cx="230" cy="82" r="23"/><path class="cls-7" d="M214.28,65.66a22.67,22.67,0,1,0,32.06,32.06Z"/><path class="cls-2" d="M228.44,90.28a11.71,11.71,0,0,1-5,1,9.17,9.17,0,0,1-3.67-.71,8.17,8.17,0,0,1-2.81-2,8.81,8.81,0,0,1-1.79-3,11.07,11.07,0,0,1-.63-3.8,11.84,11.84,0,0,1,.67-4,9.58,9.58,0,0,1,1.92-3.24,8.87,8.87,0,0,1,3-2.16,9.74,9.74,0,0,1,4-.78,11.92,11.92,0,0,1,4.35.74v1.89a9.64,9.64,0,0,0-4.37-1,8,8,0,0,0-3.28.64,6.81,6.81,0,0,0-2.42,1.77,7.86,7.86,0,0,0-1.5,2.68,10.6,10.6,0,0,0-.52,3.38,10.13,10.13,0,0,0,.47,3.1,7.47,7.47,0,0,0,1.38,2.54,6.53,6.53,0,0,0,2.27,1.73,7.32,7.32,0,0,0,3.15.64,9.82,9.82,0,0,0,4.84-1.16Z"/><path class="cls-2" d="M245.16,78.55h-3.53l-.93,4.29h3.76l-.29,1.22h-3.71l-1.16,5.29h-1.37l1.14-5.29h-3.44l-1.13,5.29h-1.37l1.13-5.29h-3.61l.25-1.22h3.63l.9-4.29h-3.79l.27-1.22h3.77l1.14-5.4h1.37l-1.14,5.4h3.46l1.16-5.4H243l-1.16,5.4h3.57Zm-8.35,0-.94,4.29h3.47l.93-4.29Z"/><polygon class="cls-8" points="295.3 103 273.4 65.07 295.3 27.14 339.1 27.14 361 65.07 339.1 103 295.3 103"/><rect class="cls-2" x="298" y="58" width="5" height="18" rx="2.5" ry="2.5"/><rect class="cls-2" x="331" y="58" width="5" height="18" rx="2.5" ry="2.5"/><rect class="cls-2" x="319" y="72" width="5" height="18" rx="2.5" ry="2.5"/><rect class="cls-2" x="310" y="72" width="5" height="18" rx="2.5" ry="2.5"/><path class="cls-2" d="M305,58V78a2,2,0,0,0,2,2h20a2,2,0,0,0,2-2V58Z"/><rect class="cls-2" x="308.73" y="40.72" width="2" height="8" rx="1" ry="1" transform="translate(10.12 135.09) rotate(-25)"/><rect class="cls-2" x="323.73" y="40.72" width="2" height="8" rx="1" ry="1" transform="translate(49.32 -133.05) rotate(25)"/><path class="cls-2" d="M329,56h0a12,12,0,0,0-24,0h24Z"/><circle class="cls-8" cx="311.5" cy="49.5" r="1.5"/><circle class="cls-8" cx="322.5" cy="49.5" r="1.5"/></svg>