<svg id="Layer_1" data-name="Layer 1" xmlns="http://www.w3.org/2000/svg" viewBox="0 0 400 140"><defs><style>.cls-1,.cls-2,.cls-3{fill:none;}.cls-1,.cls-2{stroke:#004b1c;}.cls-1,.cls-3{stroke-linejoin:round;}.cls-2{stroke-miterlimit:10;}.cls-3{stroke:#808285;stroke-linecap:round;stroke-width:1.31px;stroke-dasharray:1.31 2.62;}.cls-4{fill:#032937;}.cls-5{fill:#fff;}.cls-6{fill:#004b1c;}.cls-7{fill:#0b9e0b;}.cls-8{fill:#05930c;}</style></defs><title>net-docs-gaming-4</title><line class="cls-1" x1="243.85" y1="107.69" x2="289.29" y2="127"/><polygon class="cls-1" points="361.5 110.44 289.5 127 289.5 55.29 361.5 38.74 361.5 110.44"/><line class="cls-2" x1="315.56" y1="19.43" x2="361" y2="38.74"/><line class="cls-2" x1="315.56" y1="91.14" x2="361" y2="110.44"/><polygon class="cls-1" points="339.5 96.07 297.5 105.83 297.5 63.56 339.5 53.8 339.5 96.07"/><line class="cls-2" x1="262.42" y1="91.69" x2="296.86" y2="105.83"/><line class="cls-2" x1="304.69" y1="39.67" x2="339.13" y2="53.8"/><line class="cls-2" x1="304.69" y1="81.94" x2="339.13" y2="96.07"/><line class="cls-3" x1="150.26" y1="70" x2="246" y2="35"/><line class="cls-3" x1="144" y1="71.15" x2="250.26" y2="71.15"/><line class="cls-3" x1="149" y1="72" x2="241" y2="105"/><polygon class="cls-4" points="63.06 125 31.21 70.16 63.06 15 126.75 15 158.6 70.16 126.75 125 63.06 125"/><path class="cls-5" d="M96.82,64.38H94v6.49c0,1.67-.69,3-2.7,3s-2.57-1.35-2.57-3.09V64.38H85.94V71.5c0,2.06.73,5,4.58,5a3.79,3.79,0,0,0,3.66-1.93v1.56h2.64Z"/><path class="cls-5" d="M97.94,76.15h2.81V69.65c0-1.65.69-3,2.68-3S106,68,106,69.76v6.38h2.81V69.05c0-2.08-.73-5-4.56-5a3.83,3.83,0,0,0-3.66,1.93c0-.56,0-1,0-1.56H97.94Z"/><path class="cls-5" d="M109.85,62.8h2.81V60.29h-2.81Zm0,13.35h2.81V64.38h-2.81Z"/><path class="cls-5" d="M115.6,76.15h2.81v-9.6h2l-.83-2.16h-1.18V60.29H115.6v4.09h-1.95v2.16h1.95Z"/><path class="cls-5" d="M123.13,80.26h3l6.19-15.88h-3l-2.83,7.82-2.87-7.82h-3l4.43,11.31Z"/><path class="cls-5" d="M80.49,67.15,77.37,55.52,65.7,58.64l-1.73,3-3.5,0-8.54,8.51,8.54,8.51h0l3.5,0,1.73,3L77.37,84.8l3.13-11.63-1.77-3Zm-7.31-7.27-5.12,8.85H57.81l6.45-6.56ZM68.06,71.6l5.12,8.84-8.92-2.29L57.81,71.6Zm2.5-1.44,5.12-8.85,2.48,8.85L75.68,79Z"/><path class="cls-6" d="M271.7,52.7c-.09.32-.18.65-.28,1L296.67,64l.38-.93Z"/><path class="cls-6" d="M272.69,47.7c0,.34-.08.69-.14,1l16.54,7,.39-.92Z"/><path class="cls-6" d="M304.81,39.27a.5.5,0,0,0-.42-.1L272.83,46.5c0,.35-.08.7-.12,1.05L304,40.29V81.54l-41,9.53V68.35c-.33.35-.74.69-1,1V91.69a.3.3,0,0,0,.1.39.5.5,0,0,0,.31.11h.11l42.08-9.76a.5.5,0,0,0,.39-.49V39.67A.5.5,0,0,0,304.81,39.27Z"/><path class="cls-6" d="M315.87,19a.5.5,0,0,0-.42-.1L270.36,29.3c.13.31.25.62.37.94l44.32-10.18V90.74L244,107.07V79.12l-1,.21v28.37a.5.5,0,0,0,.5.5h.11l72.06-16.55a.5.5,0,0,0,.39-.49V19.43A.5.5,0,0,0,315.87,19Z"/><circle class="cls-7" cx="236" cy="43" r="35"/><path class="cls-8" d="M211.74,17.79a35,35,0,1,0,49.47,49.47Z"/><path class="cls-5" d="M233.6,55.78a18.07,18.07,0,0,1-7.77,1.6,14.14,14.14,0,0,1-5.66-1.1,12.6,12.6,0,0,1-4.34-3,13.59,13.59,0,0,1-2.77-4.63,17.09,17.09,0,0,1-1-5.87,18.27,18.27,0,0,1,1-6.22,14.79,14.79,0,0,1,3-5,13.7,13.7,0,0,1,4.67-3.33A15,15,0,0,1,226.89,27a18.39,18.39,0,0,1,6.71,1.15V31a14.88,14.88,0,0,0-6.75-1.58,12.36,12.36,0,0,0-5.07,1,10.5,10.5,0,0,0-3.73,2.74,12.14,12.14,0,0,0-2.32,4.14,16.35,16.35,0,0,0-.8,5.22,15.64,15.64,0,0,0,.72,4.79,11.52,11.52,0,0,0,2.12,3.93,10.07,10.07,0,0,0,3.5,2.67,11.3,11.3,0,0,0,4.86,1,15.15,15.15,0,0,0,7.46-1.78Z"/><path class="cls-5" d="M259.4,37.67h-5.46l-1.44,6.62h5.8l-.45,1.89h-5.72l-1.78,8.16h-2.11L250,46.18h-5.31l-1.74,8.16h-2.11l1.74-8.16H237l.39-1.89H243l1.39-6.62h-5.84l.41-1.89h5.82l1.76-8.33h2.11l-1.76,8.33h5.33L254,27.46h2.09l-1.78,8.33h5.52Zm-12.88,0-1.46,6.62h5.35l1.44-6.62Z"/></svg>