<svg id="ICONS" xmlns="http://www.w3.org/2000/svg" viewBox="0 0 400 140"><defs><style>.cls-1{fill:#b3b3b3;}.cls-2{fill:#333;}.cls-3{fill:#1a1a1a;}.cls-4{fill:gray;}.cls-5{fill:#80bceb;}.cls-6{fill:#aad2f2;}.cls-7{fill:#fff;}.cls-8{fill:#7e1b96;}.cls-9{fill:#721481;}</style></defs><title>net-docs-cloud-3</title><rect class="cls-1" x="215" y="104" width="3" height="3"/><path class="cls-2" d="M272,22H175.73A37,37,0,0,1,155,76.33V110a6,6,0,0,0,6,6H272a6,6,0,0,0,6-6V28A6,6,0,0,0,272,22Z"/><path class="cls-3" d="M288.09,121H144.6c-4.8,0-5.59-6-5.59-6H293S291.81,121,288.09,121Z"/><polygon class="cls-4" points="139 115 155 109 278 109 293 115 139 115"/><path class="cls-5" d="M177.81,26A37,37,0,0,1,159,74.81V103H274V26Z"/><polygon class="cls-6" points="274 26 274 58 242 26 274 26"/><path class="cls-7" d="M237.36,58.33a16.43,16.43,0,0,0-30.9,3.77,12.3,12.3,0,0,0-9.21,4.9h19.53a8,8,0,1,1,0,10H195a12.29,12.29,0,0,0,12.24,10.93h29.6S251.94,86,251.94,73.06A14.8,14.8,0,0,0,237.36,58.33Z"/><circle class="cls-7" cx="223.02" cy="72" r="5"/><path class="cls-7" d="M219.63,70H193a8,8,0,0,1-8.27-7.89A8.27,8.27,0,0,1,193,53.84h3.77a12.19,12.19,0,0,1,.87-2.76,5.47,5.47,0,0,0,.44-.94,10.94,10.94,0,0,1,9.5-5.44,11.06,11.06,0,0,1,8.85,4.43A15.89,15.89,0,0,1,220,47.89a14.63,14.63,0,0,0-26,2.25h-1a12.09,12.09,0,0,0-12,12A11.85,11.85,0,0,0,193,74h26.65Z"/><circle class="cls-8" cx="144" cy="41" r="35"/><path class="cls-9" d="M119.74,15.79a35,35,0,1,0,49.47,49.47Z"/><path class="cls-7" d="M127.67,28V39h10.75v2.48H127.67V54.87h-2.73V25.46h14.33V28Z"/><path class="cls-7" d="M164.48,35.67H159l-1.44,6.62h5.8l-.45,1.89h-5.72l-1.78,8.16h-2.11l1.76-8.16h-5.31L148,52.34h-2.11l1.74-8.16h-5.58l.39-1.89h5.6l1.39-6.62h-5.84l.41-1.89h5.82l1.76-8.33h2.11L152,33.78h5.33l1.78-8.33h2.09l-1.78,8.33h5.52Zm-12.88,0-1.46,6.62h5.35l1.44-6.62Z"/></svg>