<svg id="ICONS" xmlns="http://www.w3.org/2000/svg" viewBox="0 0 400 140"><defs><style>.cls-1{fill:#505050;}.cls-2{fill:#fff;}.cls-3{fill:none;stroke:#5d5f5e;stroke-miterlimit:10;stroke-dasharray:2 2;}.cls-4{fill:#3498db;}.cls-5{fill:#7e1b96;}.cls-6{fill:#721481;}.cls-7{fill:#0b9e0b;}.cls-8{fill:#05930c;}</style></defs><title>net-docs-mobile-1</title><polygon class="cls-1" points="295.3 102 273.4 64.07 295.3 26.14 339.1 26.14 361 64.07 339.1 102 295.3 102"/><path class="cls-2" d="M303.14,56.29a1.12,1.12,0,0,1-.81-.32,1.09,1.09,0,0,1-.33-.82A1.13,1.13,0,0,1,303.14,54a1.14,1.14,0,0,1,.82.33A1.15,1.15,0,0,1,304,56,1.13,1.13,0,0,1,303.14,56.29ZM304,70.08h-1.76v-11H304Z"/><path class="cls-2" d="M314,70.34a6.76,6.76,0,0,1-5.25-2.16,8,8,0,0,1-2-5.62,8.49,8.49,0,0,1,2-5.93,7,7,0,0,1,5.47-2.21,6.61,6.61,0,0,1,5.14,2.15,8,8,0,0,1,1.95,5.62,8.51,8.51,0,0,1-2,6A6.89,6.89,0,0,1,314,70.34Zm.13-14.29a5,5,0,0,0-3.94,1.75,6.78,6.78,0,0,0-1.51,4.6A6.83,6.83,0,0,0,310.16,67,4.82,4.82,0,0,0,314,68.72a5.06,5.06,0,0,0,4-1.65,6.76,6.76,0,0,0,1.46-4.63A7.06,7.06,0,0,0,318,57.72,4.86,4.86,0,0,0,314.14,56.05Z"/><path class="cls-2" d="M323.67,69.46V67.33a4.11,4.11,0,0,0,.88.58,7.14,7.14,0,0,0,1.07.44,8.65,8.65,0,0,0,1.13.27,6.32,6.32,0,0,0,1.05.1,4.12,4.12,0,0,0,2.49-.62,2.32,2.32,0,0,0,.55-2.86,3.1,3.1,0,0,0-.76-.84,7.4,7.4,0,0,0-1.14-.73l-1.42-.74q-.81-.41-1.5-.83a6.49,6.49,0,0,1-1.21-.92A3.85,3.85,0,0,1,324,60a3.9,3.9,0,0,1,.17-3.33,4,4,0,0,1,1.21-1.28,5.5,5.5,0,0,1,1.71-.75,7.82,7.82,0,0,1,2-.25,7.51,7.51,0,0,1,3.32.55v2a6,6,0,0,0-3.5-.95,5.78,5.78,0,0,0-1.18.12,3.35,3.35,0,0,0-1.05.4,2.34,2.34,0,0,0-.75.72,1.91,1.91,0,0,0-.29,1.07,2.22,2.22,0,0,0,.22,1,2.52,2.52,0,0,0,.65.78,6.46,6.46,0,0,0,1,.69q.62.33,1.42.73t1.57.86a7.16,7.16,0,0,1,1.3,1,4.43,4.43,0,0,1,.89,1.21,3.41,3.41,0,0,1,.33,1.53,3.87,3.87,0,0,1-.45,1.93,3.66,3.66,0,0,1-1.2,1.28,5.26,5.26,0,0,1-1.75.71,9.52,9.52,0,0,1-2.08.22,8.57,8.57,0,0,1-.9-.06q-.54-.06-1.1-.17a9.35,9.35,0,0,1-1.06-.28A3.32,3.32,0,0,1,323.67,69.46Z"/><polyline class="cls-3" points="318.5 99 318.5 122.5 93.5 122.5 93.5 105"/><line class="cls-3" x1="228.5" y1="123" x2="228.5" y2="99"/><line class="cls-3" x1="192.5" y1="123" x2="192.5" y2="57"/><rect class="cls-2" x="64.99" y="32.83" width="59.13" height="66.71"/><path class="cls-4" d="M147.61,58.61c-1.92-2.89-20.2-34.63-22.44-38.48S119.71,15,115.54,15H70c-4.17,0-7.37,1.28-9.62,5.13S39.9,55.72,38,58.61,36.06,65,39.26,70.79s19.24,34,21.16,37.51,4.81,5.61,9.62,5.61h45.5c4.81,0,7.7-2.08,9.62-5.61s18-31.74,21.16-37.51S149.53,61.49,147.61,58.61ZM117.75,90.19H107.17L92.85,65.37,78.54,90.19H68L82.39,64.46,68,38.73H78.7L92.85,63.54,107,38.73h10.74L103.32,64.46Z"/><circle class="cls-5" cx="192" cy="45" r="23"/><path class="cls-6" d="M176.28,28.66a22.67,22.67,0,1,0,32.06,32.06Z"/><path class="cls-2" d="M181.42,36.55v7.18h7v1.61h-7V54h-1.77V34.93h9.29v1.62Z"/><path class="cls-2" d="M205.27,41.55h-3.53l-.93,4.29h3.76l-.29,1.22h-3.71l-1.16,5.29H198l1.14-5.29h-3.44l-1.13,5.29h-1.37l1.13-5.29h-3.61l.25-1.22h3.63l.9-4.29h-3.79l.27-1.22h3.77l1.14-5.4h1.37l-1.14,5.4h3.46l1.16-5.4h1.36L202,40.32h3.57Zm-8.35,0L196,45.84h3.47l.93-4.29Z"/><circle class="cls-7" cx="230" cy="81" r="23"/><path class="cls-8" d="M214.28,64.66a22.67,22.67,0,1,0,32.06,32.06Z"/><path class="cls-2" d="M228.44,89.28a11.71,11.71,0,0,1-5,1,9.17,9.17,0,0,1-3.67-.71,8.17,8.17,0,0,1-2.81-2,8.81,8.81,0,0,1-1.79-3,11.07,11.07,0,0,1-.63-3.8,11.84,11.84,0,0,1,.67-4,9.58,9.58,0,0,1,1.92-3.24,8.87,8.87,0,0,1,3-2.16,9.74,9.74,0,0,1,4-.78,11.92,11.92,0,0,1,4.35.74v1.89a9.64,9.64,0,0,0-4.37-1,8,8,0,0,0-3.28.64,6.81,6.81,0,0,0-2.42,1.77,7.86,7.86,0,0,0-1.5,2.68,10.6,10.6,0,0,0-.52,3.38,10.13,10.13,0,0,0,.47,3.1,7.47,7.47,0,0,0,1.38,2.54,6.53,6.53,0,0,0,2.27,1.73,7.32,7.32,0,0,0,3.15.64,9.82,9.82,0,0,0,4.84-1.16Z"/><path class="cls-2" d="M245.16,77.55h-3.53l-.93,4.29h3.76l-.29,1.22h-3.71l-1.16,5.29h-1.37l1.14-5.29h-3.44l-1.13,5.29h-1.37l1.13-5.29h-3.61l.25-1.22h3.63l.9-4.29h-3.79l.27-1.22h3.77l1.14-5.4h1.37l-1.14,5.4h3.46l1.16-5.4H243l-1.16,5.4h3.57Zm-8.35,0-.94,4.29h3.47l.93-4.29Z"/></svg>