<?xml version="1.0" encoding="utf-8"?>
<!-- Generator: Adobe Illustrator 20.1.0, SVG Export Plug-In . SVG Version: 6.00 Build 0)  -->
<svg version="1.1" id="Layer_1" xmlns="http://www.w3.org/2000/svg" xmlns:xlink="http://www.w3.org/1999/xlink" x="0px" y="0px"
	 viewBox="0 0 80 80" style="enable-background:new 0 0 80 80;" xml:space="preserve">
<style type="text/css">
	.st0{fill:#73AA24;}
	.st1{fill:#05930C;}
	.st2{fill:#FFFFFF;}
	.st3{fill:#8B6AB1;}
	.st4{fill:#5C2D91;}
	.st5{fill:#2581BF;}
	.st6{fill:#004E8C;}
	.st7{fill:#9A37AF;}
	.st8{fill:#721481;}
	.st9{fill:#3498DB;}
</style>
<g>
	<circle class="st3" cx="40" cy="40" r="40"/>
	<path class="st4" d="M12.3,11.2C4.7,18.5,0,28.7,0,40c0,22.1,17.9,40,40,40c11.3,0,21.5-4.7,28.8-12.3L12.3,11.2z"/>
	<g>
		<path class="st2" d="M30,44.7l-12.4-18c-0.2-0.2-0.3-0.5-0.5-0.7c-0.2-0.2-0.3-0.5-0.4-0.7h-0.1c0,0.2,0,0.4,0.1,0.8
			c0,0.3,0,0.8,0,1.3v17.4h-2.1V22.3h2.3l12.2,17.8c0.2,0.3,0.4,0.5,0.5,0.8c0.2,0.2,0.3,0.5,0.4,0.7h0.1c0-0.3-0.1-0.7-0.1-1.2
			c0-0.4,0-0.9,0-1.4V22.3h2.1v22.4H30z"/>
		<path class="st2" d="M37.9,44.7V22.3h10.9v1.9H40v8.2h8.2v1.9H40v8.5h9.3v1.9H37.9z"/>
		<path class="st2" d="M60.5,24.2v20.5h-2.1V24.2H52v-1.9h15v1.9H60.5z"/>
		<path class="st2" d="M33.6,58.3c-0.7,0.4-1.5,0.5-2.5,0.5c-1.3,0-2.3-0.4-3.1-1.3c-0.8-0.8-1.2-1.9-1.2-3.3c0-1.5,0.4-2.6,1.3-3.5
			s2-1.3,3.3-1.3c0.9,0,1.6,0.1,2.1,0.4v1.1c-0.7-0.4-1.4-0.5-2.2-0.5c-1,0-1.9,0.3-2.5,1c-0.6,0.7-1,1.6-1,2.8c0,1.1,0.3,2,0.9,2.7
			s1.4,1,2.4,1c0.9,0,1.7-0.2,2.4-0.6V58.3z"/>
		<path class="st2" d="M38.1,58.8c-1,0-1.7-0.3-2.3-0.9s-0.9-1.4-0.9-2.4c0-1.1,0.3-1.9,0.9-2.6c0.6-0.6,1.4-0.9,2.4-0.9
			c1,0,1.7,0.3,2.3,0.9c0.5,0.6,0.8,1.4,0.8,2.5c0,1-0.3,1.9-0.9,2.5S39,58.8,38.1,58.8z M38.1,52.9c-0.7,0-1.2,0.2-1.6,0.7
			c-0.4,0.5-0.6,1.1-0.6,1.9c0,0.8,0.2,1.4,0.6,1.8c0.4,0.4,0.9,0.7,1.6,0.7c0.7,0,1.2-0.2,1.6-0.7c0.4-0.4,0.5-1.1,0.5-1.9
			c0-0.8-0.2-1.4-0.5-1.9C39.3,53.1,38.8,52.9,38.1,52.9z"/>
		<path class="st2" d="M46.3,53.2c-0.2-0.1-0.4-0.2-0.8-0.2c-0.4,0-0.8,0.2-1.1,0.6c-0.3,0.4-0.4,1-0.4,1.7v3.3h-1v-6.5h1v1.3h0
			c0.1-0.5,0.4-0.8,0.7-1.1s0.6-0.4,1-0.4c0.3,0,0.5,0,0.6,0.1V53.2z"/>
		<path class="st2" d="M52.7,55.7h-4.6c0,0.7,0.2,1.3,0.6,1.7c0.4,0.4,0.9,0.6,1.5,0.6c0.7,0,1.4-0.2,2-0.7v1
			c-0.6,0.4-1.3,0.6-2.3,0.6c-0.9,0-1.6-0.3-2.2-0.9c-0.5-0.6-0.8-1.4-0.8-2.5c0-1,0.3-1.8,0.9-2.5s1.3-1,2.1-1s1.5,0.3,2,0.8
			c0.5,0.5,0.7,1.3,0.7,2.3V55.7z M51.6,54.8c0-0.6-0.1-1.1-0.4-1.4c-0.3-0.3-0.7-0.5-1.2-0.5c-0.5,0-0.9,0.2-1.3,0.5
			c-0.3,0.4-0.6,0.8-0.6,1.4H51.6z"/>
	</g>
</g>
</svg>
