<?xml version="1.0" encoding="utf-8"?>
<!-- Generator: Adobe Illustrator 20.1.0, SVG Export Plug-In . SVG Version: 6.00 Build 0)  -->
<svg version="1.1" id="Layer_1" xmlns="http://www.w3.org/2000/svg" xmlns:xlink="http://www.w3.org/1999/xlink" x="0px" y="0px"
	 viewBox="0 0 200 144" style="enable-background:new 0 0 200 144;" xml:space="preserve">
<style type="text/css">
	.st0{opacity:0.3;fill:#00BCF2;}
	.st1{fill:#00B294;}
	.st2{clip-path:url(#SVGID_2_);}
	
		.st3{fill-rule:evenodd;clip-rule:evenodd;fill:none;stroke:#BAD80A;stroke-width:1.5437;stroke-linecap:round;stroke-linejoin:round;stroke-miterlimit:10;}
	.st4{fill:#464646;}
	.st5{fill:#231F20;}
	.st6{fill-rule:evenodd;clip-rule:evenodd;fill:#5C2D91;}
	.st7{fill-rule:evenodd;clip-rule:evenodd;fill:none;stroke:#5C2D91;stroke-width:0.721;stroke-miterlimit:10;}
	
		.st8{fill-rule:evenodd;clip-rule:evenodd;fill:none;stroke:#5C2D91;stroke-width:0.721;stroke-miterlimit:10;stroke-dasharray:0.721,0.721;}
	.st9{opacity:0.3;fill:#E3008C;}
	.st10{fill:#FFFFFF;}
	.st11{fill:#737373;}
	.st12{fill:#333333;}
	.st13{fill:none;stroke:#FFFFFF;stroke-width:0.1454;stroke-linecap:round;stroke-linejoin:round;stroke-miterlimit:10;}
	.st14{fill:#737374;}
	.st15{fill:#515050;}
	.st16{fill:none;stroke:#000000;stroke-width:0.2907;stroke-miterlimit:1;}
	.st17{fill:none;}
	.st18{opacity:0.3;fill:#BAD80A;}
	.st19{fill:#B4A0FF;}
	.st20{fill:#393939;}
	.st21{fill:#E73C00;}
	.st22{opacity:0.3;fill:#B4A0FF;}
	.st23{fill:#00BCF2;}
	.st24{fill:#019FB5;}
</style>
<rect class="st18" width="200" height="144"/>
<g>
	<g>
		<polygon class="st19" points="111.7,92.3 88.1,51.4 111.7,10.5 158.9,10.5 182.5,51.4 158.9,92.3 		"/>
	</g>
	<g>
		<polygon class="st10" points="41.1,133.5 17.5,92.6 41.1,51.7 88.3,51.7 111.9,92.6 88.3,133.5 		"/>
	</g>
	<g>
		<polygon class="st12" points="114.1,35.6 110.2,49.9 158.1,49.9 154.7,35.6 150.9,33 144.7,32.8 141.2,33.4 126.4,33.4 
			123.3,32.3 117.9,33.4 		"/>
		<polygon class="st13" points="114.1,35.6 110.2,49.9 158.1,49.9 154.7,35.6 150.9,33 144.7,32.8 141.2,33.4 126.4,33.4 
			123.3,32.3 117.9,33.4 		"/>
		<path d="M154.6,35.4c-0.1-0.4-0.4-1.1-0.4-1.3c-0.1-0.3-0.7-0.6-1.5-1.1c-0.8-0.4-3.7-1.8-4.7-2c-1.1-0.3-2-0.3-2.6-0.3
			c-0.6,0-1.2,0.2-1.6,0.4c-0.4,0.2-1.8,1.1-2.4,1.1l-7,0l-7,0c-0.6,0-2-0.9-2.4-1.1c-0.4-0.2-1-0.3-1.6-0.3c-0.6,0-1.6,0-2.6,0.3
			c-1.1,0.2-3.9,1.6-4.7,2c-0.9,0.4-1.4,0.8-1.5,1.1c-0.1,0.3-0.5,1.5-0.5,1.5c1.8-1.1,6.7-2.5,8.6-2.5c1.8,0,2.6,1.7,3.9,3.4
			c1.9,2.5,2.4,2.9,3.7,2.9l8,0c1.3,0,1.8-0.4,3.7-2.9c1.3-1.8,2.1-3.4,3.9-3.4c1.8,0,6.7,1.4,8.6,2.5L154.6,35.4z"/>
		<path class="st12" d="M156.4,37.2c-0.5-1.4-1.7-1.7-1.7-1.7s-0.1-0.1-0.1-0.2l-0.2,0.2c-1.8-1.1-6.7-2.5-8.6-2.5
			c-1.8,0-2.6,1.7-3.9,3.4c-1.8,2.5-2.4,2.9-3.7,2.9l-8,0c-1.3,0-1.8-0.3-3.7-2.9c-1.3-1.8-2.1-3.4-3.9-3.4c-1.8,0-6.7,1.4-8.6,2.5
			c0,0-1.1,0.3-1.7,1.7c-0.7,1.8-6.8,17.2-6.8,23.2c0,8,5.8,8.8,6.4,8.8c0.5,0,6.6-6.2,8.5-8.1c1.9-1.8,3.5-1.8,4.7-1.8l9.2,0l9.2,0
			c1.2,0,2.8,0,4.7,1.8c1.9,1.8,8,8.1,8.5,8.1c0.6,0,6.4-0.8,6.4-8.8C163.2,54.4,157.1,39,156.4,37.2"/>
		<path class="st14" d="M147.2,51.6c0,3-2.5,5.4-5.4,5.4c-3,0-5.4-2.5-5.4-5.4c0-3,2.5-5.4,5.4-5.4
			C144.8,46.2,147.2,48.6,147.2,51.6"/>
		<path class="st12" d="M146.5,51.6c0,2.6-2.1,4.7-4.7,4.7c-2.6,0-4.7-2.1-4.7-4.7c0-2.6,2.1-4.7,4.7-4.7
			C144.4,46.9,146.5,49,146.5,51.6"/>
		<path class="st14" d="M131.6,51.6c0,2.6-2.1,4.7-4.7,4.7c-2.6,0-4.7-2.1-4.7-4.7c0-2.6,2.1-4.7,4.7-4.7
			C129.5,46.9,131.6,49,131.6,51.6"/>
		<path d="M123.8,48c-1.1,0.9-1.7,2.2-1.7,3.6c0,2.6,2.1,4.7,4.7,4.7c1.4,0,2.7-0.6,3.6-1.7L123.8,48z"/>
		<path class="st15" d="M141.8,56.3c1.4,0,2.5-0.5,3.4-1.5l-6.7-6.7c-0.9,0.9-1.5,2.1-1.5,3.4C137,54.2,139.1,56.3,141.8,56.3"/>
		<path class="st14" d="M125,42.1c0,3.1-2.4,5.4-5.4,5.4c-3,0-5.4-2.4-5.4-5.4c0-3,2.5-5.4,5.4-5.4C122.6,36.7,125,39.2,125,42.1"/>
		<path class="st12" d="M124.3,42.1c0,2.6-2.1,4.7-4.7,4.7c-2.6,0-4.7-2.1-4.7-4.7c0-2.5,2.1-4.7,4.7-4.7
			C122.1,37.4,124.3,39.6,124.3,42.1"/>
		<path class="st15" d="M119.5,46.9c1.4,0,2.5-0.5,3.4-1.4l-6.7-6.7c-0.9,0.9-1.5,2.1-1.5,3.4C114.8,44.8,116.9,46.9,119.5,46.9"/>
		<path d="M151.1,46.3c0,1.2-1,2.2-2.1,2.2c-1.2,0-2.2-1-2.2-2.2c0-1.1,1-2.1,2.2-2.1C150.2,44.1,151.1,45.1,151.1,46.3"/>
		<path d="M151.1,38.6c0,1.1-1,2.1-2.1,2.1c-1.2,0-2.2-1-2.2-2.1c0-1.2,1-2.2,2.2-2.2C150.2,36.4,151.1,37.4,151.1,38.6"/>
		<path d="M154.8,42.5c0,1.2-1,2.2-2.1,2.2c-1.2,0-2.2-1-2.2-2.2c0-1.1,1-2.1,2.2-2.1C153.9,40.4,154.8,41.3,154.8,42.5"/>
		<path d="M147.5,42.5c0,1.2-1,2.2-2.2,2.2c-1.1,0-2.1-1-2.1-2.2c0-1.1,1-2.1,2.1-2.1C146.5,40.4,147.5,41.3,147.5,42.5"/>
		<path class="st15" d="M145,51.6c0,1.8-1.5,3.2-3.2,3.2c-1.8,0-3.2-1.5-3.2-3.2s1.4-3.2,3.2-3.2C143.5,48.4,145,49.8,145,51.6"/>
		<path d="M131.7,42.6c0,0.8-0.6,1.5-1.4,1.5s-1.4-0.7-1.4-1.5c0-0.8,0.6-1.4,1.4-1.4C131.1,41.2,131.7,41.8,131.7,42.6"/>
		<path d="M139.9,42.5c0,0.8-0.6,1.4-1.4,1.4c-0.8,0-1.4-0.6-1.4-1.4c0-0.8,0.6-1.4,1.4-1.4C139.3,41.1,139.9,41.7,139.9,42.5"/>
		<path class="st14" d="M130.6,50.2l-2.4,0l0-2.4c0-0.3-0.2-0.4-0.4-0.4l-2,0c-0.3,0-0.4,0.2-0.4,0.4l0,2.4l-2.4,0
			c-0.3,0-0.4,0.2-0.4,0.4l0,1.9c0,0.3,0.2,0.4,0.4,0.4l2.4,0l0,2.4c0,0.3,0.2,0.4,0.4,0.4l2,0c0.2,0,0.4-0.2,0.4-0.4l0-2.4l2.4,0
			c0.3,0,0.4-0.2,0.4-0.4l0-1.9C131.1,50.4,130.9,50.2,130.6,50.2"/>
		<path class="st14" d="M139.6,49.2c-0.6,0.6-1,1.5-1,2.4c0,1.8,1.4,3.2,3.2,3.2c1,0,1.8-0.4,2.4-1.1L139.6,49.2z"/>
		<path class="st15" d="M122.8,42.1c0,1.8-1.4,3.2-3.2,3.2c-1.8,0-3.2-1.4-3.2-3.2c0-1.8,1.4-3.2,3.2-3.2
			C121.4,39,122.8,40.4,122.8,42.1"/>
		<path class="st14" d="M117.3,39.9c-0.6,0.5-1,1.4-1,2.3c0,1.8,1.4,3.2,3.2,3.2c1,0,1.8-0.4,2.4-1.1L117.3,39.9z"/>
		<path class="st15" d="M130.6,50.2l-2.4,0l0-2.4c0-0.3-0.2-0.4-0.4-0.4l-2,0c-0.3,0-0.4,0.2-0.4,0.4l0,2.4l2.8,2.8l2.4,0
			c0.3,0,0.4-0.2,0.4-0.4l0-1.9C131.1,50.4,130.9,50.2,130.6,50.2"/>
		<circle class="st16" cx="141.8" cy="51.6" r="2.5"/>
		<path class="st16" d="M122.1,42.1c0,1.4-1.1,2.5-2.5,2.5c-1.4,0-2.5-1.1-2.5-2.5c0-1.3,1.1-2.5,2.5-2.5
			C120.9,39.7,122.1,40.8,122.1,42.1z"/>
		<rect x="105.7" y="30.8" class="st17" width="57.8" height="38.6"/>
	</g>
	<g>
		<g>
			<path class="st20" d="M43.7,116.3v-5.2l-2.2,5.2h-0.3l-2.2-5.2v5.2h-0.8V110h1.1l2,4.8l2-4.8h1.1v6.4H43.7z"/>
			<path class="st20" d="M48.3,116.5c-0.5,0-0.9-0.1-1.3-0.2c-0.4-0.2-0.7-0.4-1-0.7c-0.3-0.3-0.5-0.6-0.6-1
				c-0.2-0.4-0.2-0.8-0.2-1.3c0-0.5,0.1-0.9,0.2-1.3c0.2-0.4,0.4-0.8,0.6-1c0.3-0.3,0.6-0.5,1-0.7c0.4-0.2,0.8-0.2,1.3-0.2
				c0.5,0,0.9,0.1,1.3,0.2c0.4,0.2,0.7,0.4,1,0.7c0.3,0.3,0.5,0.6,0.6,1c0.2,0.4,0.2,0.8,0.2,1.3c0,0.5-0.1,0.9-0.2,1.3
				c-0.2,0.4-0.4,0.8-0.6,1c-0.3,0.3-0.6,0.5-1,0.7C49.2,116.4,48.8,116.5,48.3,116.5z M48.3,115.8c0.4,0,0.7-0.1,1-0.2
				c0.3-0.1,0.5-0.3,0.7-0.5c0.2-0.2,0.4-0.5,0.5-0.8c0.1-0.3,0.2-0.7,0.2-1c0-0.4-0.1-0.7-0.2-1c-0.1-0.3-0.3-0.6-0.5-0.8
				c-0.2-0.2-0.4-0.4-0.7-0.5c-0.3-0.1-0.6-0.2-1-0.2c-0.4,0-0.7,0.1-1,0.2c-0.3,0.1-0.5,0.3-0.7,0.5c-0.2,0.2-0.4,0.5-0.5,0.8
				c-0.1,0.3-0.2,0.7-0.2,1c0,0.4,0.1,0.7,0.2,1c0.1,0.3,0.3,0.6,0.5,0.8c0.2,0.2,0.5,0.4,0.7,0.5C47.7,115.7,48,115.8,48.3,115.8z"
				/>
			<path class="st20" d="M56.7,116.3l-3.7-5.1v5.1h-0.8V110H53l3.7,5v-5h0.8v6.4H56.7z"/>
			<path class="st20" d="M61.4,116.5c-0.5,0-0.9-0.1-1.3-0.2c-0.4-0.2-0.7-0.4-1-0.7c-0.3-0.3-0.5-0.6-0.6-1
				c-0.2-0.4-0.2-0.8-0.2-1.3c0-0.5,0.1-0.9,0.2-1.3c0.2-0.4,0.4-0.8,0.6-1c0.3-0.3,0.6-0.5,1-0.7c0.4-0.2,0.8-0.2,1.3-0.2
				c0.5,0,0.9,0.1,1.3,0.2c0.4,0.2,0.7,0.4,1,0.7c0.3,0.3,0.5,0.6,0.6,1c0.2,0.4,0.2,0.8,0.2,1.3c0,0.5-0.1,0.9-0.2,1.3
				c-0.2,0.4-0.4,0.8-0.6,1c-0.3,0.3-0.6,0.5-1,0.7C62.3,116.4,61.9,116.5,61.4,116.5z M61.4,115.8c0.4,0,0.7-0.1,1-0.2
				c0.3-0.1,0.5-0.3,0.7-0.5c0.2-0.2,0.4-0.5,0.5-0.8c0.1-0.3,0.2-0.7,0.2-1c0-0.4-0.1-0.7-0.2-1c-0.1-0.3-0.3-0.6-0.5-0.8
				c-0.2-0.2-0.4-0.4-0.7-0.5c-0.3-0.1-0.6-0.2-1-0.2c-0.4,0-0.7,0.1-1,0.2c-0.3,0.1-0.5,0.3-0.7,0.5c-0.2,0.2-0.4,0.5-0.5,0.8
				c-0.1,0.3-0.2,0.7-0.2,1c0,0.4,0.1,0.7,0.2,1c0.1,0.3,0.3,0.6,0.5,0.8c0.2,0.2,0.5,0.4,0.7,0.5C60.7,115.7,61,115.8,61.4,115.8z"
				/>
			<path class="st21" d="M68.5,116.5c-0.5,0-0.9-0.1-1.3-0.2c-0.4-0.2-0.8-0.4-1.1-0.7c-0.3-0.3-0.6-0.6-0.7-1
				c-0.2-0.4-0.3-0.9-0.3-1.4c0-0.5,0.1-1,0.3-1.4c0.2-0.4,0.4-0.8,0.7-1c0.3-0.3,0.7-0.5,1.1-0.7c0.4-0.2,0.8-0.2,1.3-0.2
				c0.3,0,0.6,0,0.9,0.1c0.3,0.1,0.5,0.2,0.7,0.3c0.2,0.1,0.4,0.3,0.6,0.5c0.2,0.2,0.3,0.4,0.4,0.5l-1.1,0.6
				c-0.1-0.2-0.3-0.4-0.6-0.6c-0.3-0.2-0.6-0.2-0.9-0.2c-0.3,0-0.6,0.1-0.8,0.2c-0.2,0.1-0.5,0.3-0.6,0.4c-0.2,0.2-0.3,0.4-0.4,0.7
				c-0.1,0.3-0.1,0.5-0.1,0.8c0,0.3,0,0.6,0.1,0.8c0.1,0.3,0.2,0.5,0.4,0.7c0.2,0.2,0.4,0.3,0.6,0.4c0.2,0.1,0.5,0.2,0.8,0.2
				c0.3,0,0.6-0.1,0.8-0.2c0.2-0.1,0.4-0.2,0.6-0.3V114h-1.7v-1.2h3v2.5c-0.3,0.4-0.7,0.7-1.2,0.9C69.6,116.4,69.1,116.5,68.5,116.5
				z"/>
			<path class="st21" d="M76.4,116.3l-0.4-1.1h-2.7l-0.4,1.1h-1.5l2.5-6.4h1.7l2.5,6.4H76.4z M74.7,111.3l-1,2.7h2L74.7,111.3z"/>
			<path class="st21" d="M83.9,116.3v-4.5l-1.8,4.5h-0.6l-1.8-4.5v4.5h-1.4V110h1.9l1.5,3.9l1.5-3.9h1.9v6.4H83.9z"/>
			<path class="st21" d="M86.2,116.3V110h4.5v1.2h-3.2v1.3h3.1v1.2h-3.1v1.4h3.2v1.2H86.2z"/>
		</g>
		<path class="st21" d="M85.2,83.1v-5.7c0-6.8-5.5-12.2-12.2-12.2c-3.3,0-6.3,1.3-8.5,3.4c-2.2-2.1-5.2-3.4-8.5-3.4
			c-6.8,0-12.2,5.5-12.2,12.2v17c0,6.8,5.5,12.2,12.2,12.2h17c6.8,0,12.2-5.5,12.2-12.2v-8.2H60.8v7.5h17v0.7c0,2.6-2.1,4.8-4.7,4.8
			H56c-2.6,0-4.7-2.1-4.7-4.8v-17c0-2.6,2.1-4.8,4.7-4.8c2.6,0,4.8,2.1,4.8,4.8v5.7h7.5v-5.7c0-2.6,2.1-4.8,4.8-4.8
			c2.6,0,4.7,2.1,4.7,4.8v5.7H85.2z"/>
	</g>
</g>
</svg>
