<?xml version="1.0" encoding="utf-8"?>
<!-- Generator: Adobe Illustrator 23.0.3, SVG Export Plug-In . SVG Version: 6.00 Build 0)  -->
<svg version="1.1" id="ICONS" xmlns="http://www.w3.org/2000/svg" xmlns:xlink="http://www.w3.org/1999/xlink" x="0px" y="0px"
	 viewBox="0 0 400 140" style="enable-background:new 0 0 400 140;" xml:space="preserve">
<style type="text/css">
	.st0{fill:#5C2D91;}
	.st1{opacity:0.1;fill:#FFFFFF;enable-background:new    ;}
	.st2{fill:#FFFFFF;}
	.st3{fill:#F2F2F2;}
</style>
<title>net-docs-web-1</title>
<g>
	<circle class="st0" cx="202.4" cy="69.1" r="64.1"/>
	<path class="st1" d="M158,23c-26.4,23.6-28.8,64.1-5.2,90.5s64.1,28.8,90.5,5.2c1.8-1.6,3.6-3.4,5.2-5.2L158,23z"/>
	<path class="st2" d="M153.2,79.6c-0.8,0-1.5-0.3-2-0.8c-0.5-0.5-0.8-1.3-0.8-2c0-0.8,0.3-1.5,0.8-2c0.5-0.6,1.2-0.9,2-0.9
		c0.8,0,1.5,0.3,2,0.9c0.5,0.5,0.8,1.2,0.8,2c0,0.8-0.3,1.5-0.8,2C154.6,79.3,153.9,79.6,153.2,79.6z"/>
	<path class="st2" d="M193,79.1h-5.2L169,50c-0.5-0.7-0.9-1.5-1.2-2.3h-0.2c0.2,1.7,0.2,3.3,0.2,5v26.4h-4.3V42.6h5.5l18.3,28.6
		c0.8,1.2,1.3,2,1.5,2.4h0.1c-0.2-1.8-0.3-3.6-0.3-5.4V42.6h4.3V79.1z"/>
	<path class="st2" d="M221.9,79.1h-19.4V42.6H221v3.9h-14.1v12.1H220v3.8h-13.2v12.7h15.1L221.9,79.1z"/>
	<path class="st2" d="M250.5,46.5h-10.6v32.7h-4.3V46.5h-10.5v-3.9h25.4V46.5z"/>
	<path class="st3" d="M190.7,104c-1.4,0.7-3,1-4.6,1c-2.2,0.1-4.3-0.7-5.7-2.3c-1.5-1.6-2.2-3.8-2.2-6c-0.1-2.4,0.8-4.8,2.4-6.5
		c1.6-1.7,3.9-2.6,6.2-2.5c1.4,0,2.7,0.2,4,0.7v2c-1.2-0.7-2.6-1-4-1c-1.8-0.1-3.5,0.7-4.7,2c-1.2,1.4-1.9,3.3-1.8,5.2
		c-0.1,1.8,0.5,3.6,1.7,4.9c1.1,1.2,2.8,1.9,4.4,1.8c1.5,0,3.1-0.3,4.4-1.1L190.7,104z"/>
	<path class="st3" d="M198.9,104.9c-1.6,0.1-3.2-0.6-4.3-1.8c-1.1-1.2-1.7-2.8-1.6-4.5c-0.1-1.7,0.5-3.4,1.7-4.7
		c1.2-1.2,2.8-1.8,4.5-1.7c1.6-0.1,3.1,0.5,4.2,1.7c1.1,1.3,1.6,2.9,1.5,4.6c0.1,1.7-0.5,3.3-1.6,4.6
		C202.1,104.3,200.5,105,198.9,104.9z M199,94c-1.1,0-2.2,0.4-2.9,1.3c-0.8,1-1.2,2.2-1.1,3.5c-0.1,1.2,0.3,2.4,1.1,3.4
		c0.7,0.8,1.8,1.3,2.9,1.2c1.1,0.1,2.1-0.4,2.9-1.2c0.7-1,1.1-2.2,1-3.4c0.1-1.2-0.3-2.5-1-3.5C201.2,94.4,200.1,93.9,199,94z"/>
	<path class="st3" d="M214.2,94.6c-0.4-0.3-0.9-0.4-1.5-0.4c-0.8,0-1.6,0.5-2,1.2c-0.6,0.9-0.9,2.1-0.8,3.2v6.1h-2v-12h2v2.5l0,0
		c0.2-0.8,0.7-1.5,1.3-2c0.5-0.5,1.2-0.7,1.9-0.7c0.4,0,0.8,0,1.1,0.2V94.6z"/>
	<path class="st3" d="M225.9,99.2h-8.5c-0.1,1.1,0.3,2.2,1,3.1c0.8,0.7,1.8,1.1,2.8,1.1c1.4,0,2.7-0.5,3.7-1.3v1.8
		c-1.2,0.8-2.7,1.2-4.2,1.1c-1.5,0.1-3-0.5-4-1.6c-1-1.3-1.6-2.9-1.5-4.6c-0.1-1.7,0.5-3.3,1.6-4.6c1-1.2,2.5-1.8,4-1.8
		c1.4-0.1,2.7,0.5,3.6,1.5c0.9,1.2,1.4,2.7,1.3,4.2L225.9,99.2z M223.9,97.5c0-0.9-0.2-1.8-0.8-2.6c-0.6-0.6-1.4-1-2.2-0.9
		c-0.9,0-1.7,0.3-2.3,1c-0.7,0.7-1.1,1.6-1.2,2.5L223.9,97.5z"/>
</g>
</svg>
