<svg id="ICONS" xmlns="http://www.w3.org/2000/svg" viewBox="0 0 400 140"><defs><style>.cls-1{fill:#333;}.cls-2{fill:#221f1f;}.cls-3{fill:#5e615f;}.cls-4{fill:#b4a0ff;}.cls-5{fill:#acacac;}.cls-6{fill:#5e5e5e;}.cls-7{fill:#c1b0ff;}.cls-8{fill:#4d4d4d;}.cls-9{fill:#fff;}.cls-10{fill:#2a6dcf;}.cls-11{fill:#666;}</style></defs><title>net-docs-desktop-4</title><path class="cls-1" d="M275,120V17a4,4,0,0,0-4.05-4H127.88A3.78,3.78,0,0,0,124,17V120Z"/><path class="cls-2" d="M286.77,131H113.23c-5.8,0-7.23-6-7.23-6H294S291.26,131,286.77,131Z"/><rect class="cls-3" x="197" y="110" width="5" height="5"/><polygon class="cls-4" points="268 20 268 107 131 107 131 20.05 213.02 20.02 268 20"/><polygon class="cls-5" points="106 125 124 118 275 118 294 125 106 125"/><polygon class="cls-6" points="127.94 123 133.08 120 265.57 120 271.1 123 127.94 123"/><polygon class="cls-7" points="268 20 268 75 213.02 20.02 268 20"/><polygon class="cls-8" points="223.57 74 210 50.5 223.57 27 250.7 27 264.27 50.5 250.7 74 223.57 74"/><path class="cls-9" d="M225.94,53h-1.12v-4a3,3,0,0,0-.36-1.68,1.36,1.36,0,0,0-1.21-.52,1.49,1.49,0,0,0-1.22.66,2.51,2.51,0,0,0-.5,1.57v4h-1.12V48.81q0-2.06-1.59-2.06a1.47,1.47,0,0,0-1.22.62,2.55,2.55,0,0,0-.48,1.61v4H216V46h1.12v1.11h0a2.38,2.38,0,0,1,2.17-1.27,2,2,0,0,1,2,1.45,2.5,2.5,0,0,1,2.32-1.45q2.31,0,2.31,2.85Z"/><path class="cls-9" d="M233.07,53h-1.12V51.87h0a2.35,2.35,0,0,1-2.15,1.26,2.3,2.3,0,0,1-1.64-.55,1.92,1.92,0,0,1-.59-1.47q0-2,2.31-2.28l2.1-.29q0-1.78-1.44-1.78a3.45,3.45,0,0,0-2.28.86V46.46a4.34,4.34,0,0,1,2.38-.66q2.47,0,2.47,2.61Zm-1.12-3.54-1.69.23a2.73,2.73,0,0,0-1.18.39,1.11,1.11,0,0,0-.4,1,1.07,1.07,0,0,0,.37.84,1.42,1.42,0,0,0,1,.32,1.8,1.8,0,0,0,1.38-.58,2.09,2.09,0,0,0,.54-1.48Z"/><path class="cls-9" d="M240,52.65a3.65,3.65,0,0,1-1.91.49,3.16,3.16,0,0,1-2.42-1,3.53,3.53,0,0,1-.92-2.53,3.88,3.88,0,0,1,1-2.78,3.47,3.47,0,0,1,2.65-1,3.69,3.69,0,0,1,1.63.34v1.15a2.85,2.85,0,0,0-1.67-.55,2.25,2.25,0,0,0-1.76.77,2.91,2.91,0,0,0-.69,2,2.77,2.77,0,0,0,.65,1.94,2.23,2.23,0,0,0,1.73.71,2.81,2.81,0,0,0,1.72-.61Z"/><path class="cls-9" d="M245.75,53.13a4.31,4.31,0,0,1-3.34-1.37,5.1,5.1,0,0,1-1.25-3.58,5.4,5.4,0,0,1,1.28-3.77A4.47,4.47,0,0,1,245.91,43a4.21,4.21,0,0,1,3.27,1.37,5.12,5.12,0,0,1,1.24,3.58,5.42,5.42,0,0,1-1.27,3.79A4.38,4.38,0,0,1,245.75,53.13Zm.08-9.09a3.16,3.16,0,0,0-2.51,1.11,5,5,0,0,0,0,5.84,3.07,3.07,0,0,0,2.45,1.1A3.22,3.22,0,0,0,248.29,51a4.3,4.3,0,0,0,.93-2.95,4.5,4.5,0,0,0-.9-3A3.09,3.09,0,0,0,245.83,44Z"/><path class="cls-9" d="M251.9,52.57V51.22a2.63,2.63,0,0,0,.56.37,4.55,4.55,0,0,0,.68.28,5.56,5.56,0,0,0,.72.17,4,4,0,0,0,.67.06,2.62,2.62,0,0,0,1.58-.39,1.47,1.47,0,0,0,.35-1.82,2,2,0,0,0-.48-.54,4.67,4.67,0,0,0-.73-.46l-.91-.47q-.51-.26-1-.53a4.17,4.17,0,0,1-.77-.59,2.45,2.45,0,0,1-.52-.73,2.48,2.48,0,0,1,.11-2.12,2.51,2.51,0,0,1,.77-.82,3.5,3.5,0,0,1,1.09-.48,5,5,0,0,1,1.25-.16,4.78,4.78,0,0,1,2.11.35v1.29a3.83,3.83,0,0,0-2.23-.6,3.71,3.71,0,0,0-.75.08,2.14,2.14,0,0,0-.67.26,1.48,1.48,0,0,0-.48.46,1.22,1.22,0,0,0-.18.68,1.42,1.42,0,0,0,.14.65,1.59,1.59,0,0,0,.41.5,4.16,4.16,0,0,0,.67.44l.91.46q.53.26,1,.55a4.57,4.57,0,0,1,.83.64,2.81,2.81,0,0,1,.56.77,2.16,2.16,0,0,1,.21,1,2.46,2.46,0,0,1-.28,1.23,2.34,2.34,0,0,1-.77.82,3.34,3.34,0,0,1-1.11.45,6.06,6.06,0,0,1-1.33.14,5.55,5.55,0,0,1-.57,0c-.23,0-.46-.06-.7-.11a6,6,0,0,1-.67-.18A2.13,2.13,0,0,1,251.9,52.57Z"/><rect class="cls-9" x="155.83" y="40.78" width="42.39" height="47.83"/><path class="cls-10" d="M215.06,59.26c-1.38-2.07-14.48-24.83-16.09-27.59S195.06,28,192.07,28H159.45c-3,0-5.29.92-6.9,3.68s-14.71,25.52-16.09,27.59-1.38,4.6.92,8.74,13.79,24.37,15.17,26.9a7.18,7.18,0,0,0,6.9,4h32.62a7.18,7.18,0,0,0,6.9-4c1.38-2.53,12.87-22.76,15.17-26.9S216.44,61.33,215.06,59.26ZM193.65,81.91h-7.59L175.8,64.11,165.54,81.91H158L168.3,63.46,158,45h7.7L175.8,62.8,186,45h7.7L183.31,63.46Z"/><rect class="cls-11" x="199" y="16" width="2" height="2"/></svg>