<?xml version="1.0" encoding="utf-8"?>
<!-- Generator: Adobe Illustrator 20.1.0, SVG Export Plug-In . SVG Version: 6.00 Build 0)  -->
<svg version="1.1" xmlns="http://www.w3.org/2000/svg" xmlns:xlink="http://www.w3.org/1999/xlink" x="0px" y="0px"
	 viewBox="0 0 200 144" style="enable-background:new 0 0 200 144;" xml:space="preserve">
<style type="text/css">
	.st0{opacity:0.3;fill:#BAD80A;}
	.st1{fill:#BAD80A;}
	.st2{fill:#757575;}
	.st3{fill:#682A7A;}
	.st4{fill:#2E2E2E;}
	.st5{fill:#478AA9;}
	.st6{fill:#672A79;}
	.st7{fill:#334D63;}
	.st8{fill:#5D5F5E;}
	.st9{fill:#4889A8;}
	.st10{fill:#929090;}
	.st11{fill:#FAB516;}
	.st12{fill:#F5891F;}
	.st13{fill:#CB6D29;}
	.st14{fill:#96BBCD;}
	.st15{fill:#3A5C71;}
	.st16{opacity:0.3;fill:#008272;}
	.st17{clip-path:url(#SVGID_2_);}
	.st18{fill:#231F20;}
	.st19{fill:#5D605F;}
	.st20{fill:#ACACAC;}
	.st21{fill:#5D5D5D;}
	.st22{clip-path:url(#SVGID_4_);}
	.st23{fill:#474748;}
	.st24{fill:#929497;}
	.st25{fill:#1772B8;}
	.st26{fill:#767778;}
	.st27{fill:#A86527;}
	.st28{fill:#048273;}
	.st29{clip-path:url(#SVGID_6_);}
	.st30{fill:#C7C7C7;}
	.st31{fill:#909090;}
	.st32{opacity:0.3;fill:#B4A0FF;}
	.st33{fill:#344D63;}
	.st34{fill:#00BCF2;}
	.st35{opacity:0.3;fill:#00BCF2;}
	.st36{fill:#505050;}
	.st37{fill:#007ACC;}
	.st38{fill:#FFFFFF;}
	.st39{opacity:0.3;fill:#FFD565;}
	.st40{fill:#804998;}
	.st41{opacity:0.2;fill:#FFFFFF;enable-background:new    ;}
	.st42{fill:#70469E;}
	.st43{fill:#5C2D91;}
	.st44{fill:none;}
</style>
<g id="Layer_1">
	<rect class="st0" width="200" height="144"/>
	<g>
		<g>
			<polygon class="st36" points="111.17,91.98 87.561,51.087 111.17,10.193 158.39,10.193 182,51.087 158.39,91.98 			"/>
		</g>
		<g>
			<polygon class="st37" points="40.61,133.14 17,92.247 40.61,51.353 87.83,51.353 111.439,92.247 87.83,133.14 			"/>
			<g>
				<g>
					<path class="st38" d="M42.915,105.135l-2.925,7.922h-1.017l-2.875-7.922h1.033l2.192,6.272c0.075,0.228,0.128,0.462,0.158,0.7
						h0.023c0.035-0.239,0.096-0.474,0.182-0.7l2.235-6.272H42.915z"/>
					<path class="st38" d="M49.143,111.545c0.009,0.46-0.199,0.898-0.561,1.182c-0.433,0.324-0.965,0.487-1.505,0.459
						c-0.488,0.015-0.972-0.099-1.403-0.33v-0.974c0.41,0.348,0.931,0.54,1.469,0.541c0.717,0,1.076-0.263,1.076-0.789
						c0.007-0.196-0.07-0.386-0.211-0.522c-0.291-0.225-0.612-0.408-0.954-0.545c-0.4-0.146-0.762-0.381-1.06-0.687
						c-0.221-0.281-0.331-0.633-0.31-0.99c-0.005-0.457,0.203-0.891,0.564-1.172c0.405-0.323,0.912-0.489,1.429-0.469
						c0.418-0.006,0.831,0.084,1.208,0.264v0.921c-0.372-0.27-0.821-0.411-1.281-0.403c-0.258-0.012-0.513,0.066-0.72,0.221
						c-0.177,0.135-0.278,0.346-0.274,0.568c-0.013,0.217,0.067,0.43,0.221,0.584c0.262,0.205,0.555,0.366,0.868,0.479
						c0.418,0.157,0.797,0.401,1.112,0.716C49.037,110.864,49.154,111.201,49.143,111.545z"/>
					<path class="st38" d="M54.679,113.057h-0.914v-0.895l0,0c-0.324,0.659-1.006,1.064-1.74,1.033
						c-1.351,0-2.027-0.804-2.027-2.413v-3.377h0.904v3.235c0,1.188,0.457,1.782,1.37,1.782c0.42,0.013,0.822-0.167,1.093-0.489
						c0.284-0.362,0.426-0.815,0.399-1.274v-3.255h0.904L54.679,113.057z"/>
					<path class="st38" d="M60.092,113.057h-0.904v-0.885h-0.023c-0.568,0.979-1.822,1.313-2.802,0.745
						c-0.086-0.05-0.167-0.105-0.245-0.167c-0.332-0.306-0.512-0.744-0.492-1.195c0-1.052,0.622-1.667,1.865-1.845l1.693-0.238
						c0-0.957-0.388-1.436-1.165-1.436c-0.678-0.002-1.334,0.244-1.845,0.69v-0.924c0.261-0.168,0.549-0.291,0.852-0.363
						c0.347-0.108,0.707-0.166,1.069-0.175c1.32,0,1.98,0.704,1.98,2.113L60.092,113.057z M59.188,110.199l-1.37,0.195
						c-0.353,0.022-0.695,0.135-0.99,0.33c-0.204,0.197-0.307,0.477-0.281,0.759c-0.01,0.262,0.102,0.515,0.304,0.683
						c0.22,0.177,0.497,0.269,0.779,0.257c0.422,0.011,0.829-0.162,1.112-0.475c0.301-0.326,0.462-0.758,0.446-1.201V110.199z"/>
					<path class="st38" d="M62.347,113.057h-0.904v-8.368h0.904V113.057z"/>
					<path class="st38" d="M69.513,111.06c0.028,0.605-0.235,1.188-0.706,1.568c-0.555,0.406-1.234,0.607-1.921,0.568
						c-0.335-0.006-0.668-0.055-0.99-0.145c-0.276-0.06-0.542-0.164-0.786-0.307v-1.099c0.255,0.222,0.55,0.394,0.868,0.508
						c0.326,0.128,0.673,0.198,1.023,0.205c1.017,0,1.525-0.396,1.525-1.188c0.004-0.316-0.114-0.621-0.33-0.852
						c-0.397-0.369-0.841-0.683-1.32-0.934c-0.517-0.262-0.982-0.618-1.37-1.05c-0.268-0.348-0.407-0.779-0.393-1.218
						c-0.016-0.589,0.242-1.153,0.7-1.525c0.515-0.406,1.16-0.612,1.815-0.581c0.534-0.036,1.07,0.061,1.558,0.281v1.036
						c-0.465-0.34-1.032-0.512-1.607-0.485c-0.385-0.016-0.763,0.101-1.073,0.33c-0.271,0.205-0.425,0.529-0.416,0.868
						c-0.009,0.217,0.034,0.433,0.125,0.63c0.106,0.184,0.25,0.344,0.423,0.469c0.315,0.232,0.646,0.441,0.99,0.627
						c0.552,0.276,1.05,0.649,1.469,1.102C69.371,110.204,69.519,110.626,69.513,111.06z"/>
					<path class="st38" d="M73.114,113.001c-0.264,0.132-0.557,0.194-0.852,0.182c-0.986,0-1.479-0.556-1.479-1.667v-3.344h-0.97
						v-0.766h0.97v-1.38l0.904-0.294v1.674h1.423v0.766h-1.423v3.192c-0.024,0.284,0.044,0.567,0.195,0.809
						c0.17,0.18,0.414,0.27,0.66,0.241c0.209,0.005,0.414-0.059,0.584-0.182L73.114,113.001z"/>
					<path class="st38" d="M78.583,113.057h-0.904v-0.895h-0.023c-0.324,0.659-1.006,1.064-1.74,1.033
						c-1.351,0-2.027-0.804-2.027-2.413v-3.377h0.904v3.235c0,1.188,0.457,1.782,1.37,1.782c0.42,0.013,0.822-0.167,1.093-0.489
						c0.29-0.358,0.44-0.81,0.419-1.271v-3.258h0.904L78.583,113.057z"/>
					<path class="st38" d="M84.792,113.057h-0.904v-0.961h-0.023c-0.648,1.074-2.043,1.42-3.117,0.772
						c-0.198-0.119-0.377-0.269-0.53-0.442c-0.447-0.589-0.672-1.318-0.634-2.056c-0.048-0.812,0.196-1.615,0.687-2.264
						c0.461-0.559,1.158-0.869,1.881-0.838c0.693-0.043,1.35,0.313,1.693,0.918h0.023v-3.496h0.924V113.057z M83.888,110.502v-0.835
						c0.013-0.436-0.156-0.858-0.465-1.165c-0.299-0.304-0.71-0.471-1.135-0.462c-0.504-0.019-0.987,0.206-1.297,0.604
						c-0.348,0.486-0.52,1.076-0.489,1.674c-0.031,0.549,0.129,1.093,0.452,1.538c0.293,0.373,0.747,0.583,1.221,0.564
						c0.469,0.012,0.918-0.187,1.225-0.541c0.325-0.383,0.493-0.875,0.472-1.376H83.888z"/>
					<path class="st38" d="M93.645,110.209c0.037,0.794-0.238,1.571-0.766,2.165c-0.533,0.556-1.28,0.854-2.05,0.819
						c-0.75,0.035-1.479-0.255-2-0.795c-0.51-0.577-0.775-1.33-0.736-2.099c-0.044-0.81,0.231-1.605,0.766-2.215
						c0.555-0.561,1.324-0.858,2.113-0.815c0.744-0.043,1.469,0.244,1.98,0.786C93.447,108.658,93.695,109.428,93.645,110.209z
						 M92.718,110.242c0.039-0.583-0.128-1.161-0.472-1.634c-0.337-0.389-0.836-0.599-1.35-0.568
						c-0.524-0.025-1.031,0.189-1.38,0.581c-0.367,0.469-0.548,1.056-0.508,1.65c-0.033,0.574,0.149,1.141,0.512,1.588
						c0.351,0.385,0.856,0.594,1.376,0.571c0.515,0.034,1.015-0.175,1.353-0.564c0.342-0.47,0.506-1.045,0.465-1.624H92.718z"/>
					<path class="st38" d="M44.717,105.544c0.004,0.16-0.061,0.314-0.178,0.423c-0.236,0.221-0.602,0.221-0.838,0
						c-0.116-0.112-0.179-0.268-0.172-0.429c0.001-0.151,0.061-0.296,0.168-0.403c0.11-0.115,0.263-0.179,0.423-0.175
						c0.16-0.004,0.314,0.058,0.426,0.172C44.657,105.24,44.719,105.389,44.717,105.544z M44.562,113.057h-0.904v-5.654h0.904
						L44.562,113.057z"/>
					<path class="st38" d="M87.205,105.544c0.004,0.16-0.061,0.314-0.178,0.423c-0.236,0.221-0.602,0.221-0.838,0
						c-0.116-0.112-0.179-0.268-0.172-0.429c-0.002-0.155,0.059-0.304,0.168-0.413c0.11-0.115,0.263-0.179,0.423-0.175
						c0.16-0.004,0.314,0.058,0.426,0.172C87.148,105.232,87.21,105.386,87.205,105.544z M87.05,113.057h-0.904v-5.654h0.904
						L87.05,113.057z"/>
				</g>
				<path class="st38" d="M74.067,62.293L59.479,76.89l-9.311-7.243l-3.677,1.838v18.383l3.677,1.838l9.311-7.243L74.067,99.06
					l9.192-3.677V65.97L74.067,62.293z M50.168,86.192v-11.03l5.515,5.515L50.168,86.192z M64.351,80.676l9.716-7.556v15.111
					L64.351,80.676z"/>
			</g>
			<g>
				<path class="st38" d="M57.205,126.071c-0.384,0.191-1.151,0.384-2.135,0.384c-2.279,0-3.994-1.439-3.994-4.09
					c0-2.53,1.715-4.246,4.222-4.246c1.008,0,1.644,0.216,1.919,0.36l-0.252,0.852c-0.396-0.192-0.959-0.336-1.631-0.336
					c-1.895,0-3.154,1.211-3.154,3.334c0,1.979,1.14,3.25,3.106,3.25c0.636,0,1.283-0.132,1.703-0.336L57.205,126.071z"/>
				<path class="st38" d="M63.601,123.385c0,2.146-1.487,3.082-2.891,3.082c-1.571,0-2.782-1.151-2.782-2.986
					c0-1.942,1.271-3.082,2.878-3.082C62.473,120.398,63.601,121.609,63.601,123.385z M58.996,123.444
					c0,1.271,0.731,2.231,1.763,2.231c1.008,0,1.763-0.948,1.763-2.255c0-0.983-0.491-2.231-1.738-2.231
					C59.535,121.189,58.996,122.341,58.996,123.444z"/>
				<path class="st38" d="M69.949,117.819v7.017c0,0.516,0.012,1.104,0.048,1.499h-0.947l-0.048-1.008h-0.024
					c-0.323,0.648-1.031,1.14-1.979,1.14c-1.403,0-2.482-1.188-2.482-2.95c-0.013-1.931,1.188-3.118,2.603-3.118
					c0.888,0,1.487,0.42,1.751,0.888h0.023v-3.467H69.949z M68.893,122.893c0-0.132-0.012-0.312-0.048-0.443
					c-0.155-0.672-0.731-1.224-1.523-1.224c-1.091,0-1.738,0.96-1.738,2.243c0,1.175,0.575,2.146,1.715,2.146
					c0.708,0,1.355-0.468,1.547-1.259c0.036-0.145,0.048-0.288,0.048-0.456V122.893z"/>
				<path class="st38" d="M72.291,123.624c0.024,1.428,0.936,2.016,1.991,2.016c0.756,0,1.211-0.132,1.607-0.3l0.18,0.755
					c-0.372,0.168-1.008,0.36-1.931,0.36c-1.787,0-2.854-1.176-2.854-2.927s1.031-3.13,2.723-3.13c1.895,0,2.398,1.667,2.398,2.734
					c0,0.216-0.024,0.384-0.036,0.491H72.291z M75.385,122.869c0.012-0.672-0.276-1.716-1.463-1.716
					c-1.067,0-1.535,0.984-1.619,1.716H75.385z"/>
			</g>
		</g>
	</g>
	<g>
		<path class="st38" d="M116.911,42.488c-0.337,0-0.629-0.118-0.875-0.355s-0.369-0.538-0.369-0.902
			c0-0.355,0.123-0.649,0.369-0.882S116.574,40,116.911,40c0.173,0,0.337,0.029,0.492,0.089s0.289,0.144,0.403,0.253
			s0.205,0.239,0.273,0.39s0.103,0.316,0.103,0.499c0,0.173-0.032,0.337-0.096,0.492s-0.155,0.289-0.273,0.403
			s-0.253,0.203-0.403,0.267S117.093,42.488,116.911,42.488z M116.049,60.029v-14h1.75v14H116.049z"/>
		<path class="st38" d="M130.583,60.371c-1.413,0-2.685-0.258-3.814-0.772s-2.09-1.219-2.878-2.112s-1.395-1.943-1.818-3.151
			s-0.636-2.504-0.636-3.89c0-1.531,0.212-2.933,0.636-4.204s1.041-2.36,1.853-3.268s1.805-1.613,2.98-2.119
			c1.176-0.506,2.516-0.759,4.02-0.759c1.386,0,2.63,0.248,3.732,0.745s2.042,1.185,2.816,2.064s1.369,1.921,1.784,3.124
			s0.622,2.511,0.622,3.924c0,1.485-0.203,2.864-0.608,4.136s-1.003,2.372-1.791,3.302s-1.759,1.659-2.912,2.188
			S132.087,60.371,130.583,60.371z M130.733,41.75c-1.185,0-2.235,0.226-3.151,0.677c-0.916,0.451-1.688,1.062-2.317,1.832
			s-1.105,1.673-1.429,2.707s-0.49,2.135-0.499,3.302c-0.009,1.112,0.135,2.176,0.431,3.192s0.743,1.914,1.34,2.693
			s1.352,1.401,2.263,1.866c0.911,0.465,1.978,0.697,3.199,0.697s2.295-0.212,3.22-0.636s1.697-1.012,2.317-1.764
			s1.087-1.647,1.401-2.687s0.472-2.174,0.472-3.404c0-1.148-0.139-2.237-0.417-3.268s-0.711-1.93-1.299-2.7
			s-1.338-1.381-2.249-1.832S132.009,41.75,130.733,41.75z"/>
		<path class="st38" d="M143.038,57.158c0.328,0.246,0.69,0.467,1.087,0.663s0.802,0.36,1.217,0.492s0.832,0.232,1.251,0.301
			s0.82,0.103,1.203,0.103c1.485,0,2.598-0.287,3.336-0.861s1.107-1.399,1.107-2.475c0-0.52-0.087-0.973-0.26-1.36
			s-0.442-0.75-0.807-1.087s-0.825-0.672-1.381-1.005s-1.212-0.709-1.969-1.128c-0.839-0.456-1.557-0.887-2.153-1.292
			s-1.085-0.82-1.463-1.244s-0.656-0.882-0.834-1.374s-0.267-1.053-0.267-1.682c0-0.793,0.169-1.504,0.506-2.133
			s0.793-1.164,1.367-1.606s1.246-0.781,2.017-1.019s1.593-0.355,2.468-0.355c1.54,0,2.83,0.214,3.869,0.643v2.01
			c-1.157-0.665-2.516-0.998-4.074-0.998c-0.583,0-1.133,0.07-1.647,0.212s-0.966,0.349-1.354,0.622s-0.692,0.613-0.916,1.019
			s-0.335,0.877-0.335,1.415c0,0.511,0.075,0.95,0.226,1.319s0.392,0.718,0.725,1.046s0.771,0.654,1.313,0.978
			s1.205,0.695,1.989,1.114c0.82,0.438,1.536,0.863,2.146,1.278s1.119,0.848,1.524,1.299s0.709,0.93,0.909,1.436
			s0.301,1.068,0.301,1.688c0,0.856-0.159,1.611-0.479,2.263s-0.766,1.191-1.34,1.62s-1.258,0.752-2.051,0.971
			s-1.663,0.328-2.611,0.328c-0.31,0-0.679-0.025-1.107-0.075s-0.861-0.123-1.299-0.219s-0.854-0.21-1.251-0.342
			s-0.718-0.275-0.964-0.431V57.158z"/>
	</g>
</g>
<g id="titles">
</g>
</svg>
