<?xml version="1.0" encoding="UTF-8" standalone="no"?>
<svg
   xmlns:dc="http://purl.org/dc/elements/1.1/"
   xmlns:cc="http://creativecommons.org/ns#"
   xmlns:rdf="http://www.w3.org/1999/02/22-rdf-syntax-ns#"
   xmlns:svg="http://www.w3.org/2000/svg"
   xmlns="http://www.w3.org/2000/svg"
   xmlns:sodipodi="http://sodipodi.sourceforge.net/DTD/sodipodi-0.dtd"
   xmlns:inkscape="http://www.inkscape.org/namespaces/inkscape"
   id="Layer_1"
   data-name="Layer 1"
   viewBox="0 0 64 64"
   version="1.1"
   sodipodi:docname="netspark.svg"
   inkscape:version="0.92.4 (5da689c313, 2019-01-14)">
  <title
     id="title31">.NET for Apache Spark badge</title>
  <metadata
     id="metadata41">
    <rdf:RDF>
      <cc:Work
         rdf:about="">
        <dc:format>image/svg+xml</dc:format>
        <dc:type
           rdf:resource="http://purl.org/dc/dcmitype/StillImage" />
        <dc:title>.NET for Apache Spark badge</dc:title>
      </cc:Work>
    </rdf:RDF>
  </metadata>
  <sodipodi:namedview
     pagecolor="#ffffff"
     bordercolor="#666666"
     borderopacity="1"
     objecttolerance="10"
     gridtolerance="10"
     guidetolerance="10"
     inkscape:pageopacity="0"
     inkscape:pageshadow="2"
     inkscape:window-width="1920"
     inkscape:window-height="1137"
     id="namedview39"
     showgrid="false"
     inkscape:zoom="10.429825"
     inkscape:cx="42.77837"
     inkscape:cy="32.352313"
     inkscape:window-x="-8"
     inkscape:window-y="-8"
     inkscape:window-maximized="1"
     inkscape:current-layer="Layer_1" />
  <defs
     id="defs4">
    <style
       id="style2">.cls-1{fill:#5c2d91;}.cls-2,.cls-3{fill:#fff;}.cls-2{opacity:0.1;}.cls-4{fill:#f2f2f2;}</style>
  </defs>
  <circle
     class="cls-1"
     cx="32"
     cy="32"
     r="32"
     id="circle8" />
  <path
     class="cls-2"
     d="M9.82,9A32,32,0,1,0,55,54.18Z"
     id="path10" />
  <path
     class="cls-3"
     d="M7.4,37.25a1.35,1.35,0,0,1-1-.42,1.38,1.38,0,0,1-.41-1,1.4,1.4,0,0,1,.41-1,1.34,1.34,0,0,1,1-.43,1.37,1.37,0,0,1,1,.43,1.39,1.39,0,0,1,.42,1,1.37,1.37,0,0,1-.42,1A1.38,1.38,0,0,1,7.4,37.25Z"
     id="path12" />
  <path
     class="cls-3"
     d="M27.27,37H24.65L15.28,22.46a6,6,0,0,1-.58-1.14h-.08a18.72,18.72,0,0,1,.1,2.5V37H12.59V18.77h2.77l9.12,14.28q.57.89.74,1.22h.05a19.28,19.28,0,0,1-.13-2.68V18.77h2.13Z"
     id="path14" />
  <path
     class="cls-3"
     d="M41.69,37H32V18.77h9.24V20.7H34.18v6.06h6.58v1.92H34.18V35h7.52Z"
     id="path16" />
  <path
     class="cls-3"
     d="M56,20.7H50.71V37H48.57V20.7H43.33V18.77H56Z"
     id="path18" />
  <g
     aria-label="Apache"
     transform="scale(1.0151198,0.9851054)"
     style="font-style:normal;font-weight:normal;font-size:10.32636261px;line-height:1.25;font-family:sans-serif;letter-spacing:0px;word-spacing:0px;fill:#000000;fill-opacity:1;stroke:none;stroke-width:0.96809649"
     id="text3752">
    <path
       d="M 21.017716,47.996033 20.1908,45.747225 h -3.136229 l -0.826916,2.248808 h -0.549597 l 2.727814,-7.230471 h 0.473964 l 2.69756,7.230471 z M 18.799161,41.94543 q -0.05546,-0.151265 -0.09076,-0.297488 -0.03529,-0.126055 -0.07563,-0.252109 h -0.02017 q -0.08572,0.332783 -0.166392,0.539512 l -1.215162,3.353043 h 2.788319 z"
       style="font-style:normal;font-variant:normal;font-weight:300;font-stretch:normal;font-size:10.32636261px;line-height:0em;font-family:'Segoe UI';-inkscape-font-specification:'Segoe UI Light';fill:#ffffff;stroke-width:0.96809649"
       id="path20" />
    <path
       d="m 23.185849,47.078358 h -0.02017 v 3.292536 H 22.7018 v -7.538043 h 0.46388 v 1.063898 h 0.02017 q 0.277319,-0.569765 0.79162,-0.877337 0.519344,-0.312615 1.13953,-0.312615 0.983223,0 1.53282,0.680693 0.554638,0.675651 0.554638,1.840392 0,1.295837 -0.635313,2.097542 -0.630271,0.796663 -1.668958,0.796663 -1.159699,0 -1.714337,-1.043729 z m -0.02017,-1.921067 v 0.65044 q 0,0.776494 0.48909,1.336175 0.489091,0.554639 1.285754,0.554639 0.79162,0 1.285753,-0.675651 0.494132,-0.680693 0.494132,-1.784928 0,-0.968096 -0.453795,-1.537861 -0.453795,-0.569766 -1.210121,-0.569766 -0.902548,0 -1.39668,0.605061 -0.494133,0.60506 -0.494133,1.421891 z"
       style="font-style:normal;font-variant:normal;font-weight:300;font-stretch:normal;font-size:10.32636261px;line-height:0em;font-family:'Segoe UI';-inkscape-font-specification:'Segoe UI Light';fill:#ffffff;stroke-width:0.96809649"
       id="path22" />
    <path
       d="m 31.576018,47.996033 v -1.033645 h -0.02017 q -0.247066,0.529428 -0.72103,0.847084 -0.468921,0.312615 -1.043729,0.312615 -0.736156,0 -1.164741,-0.413458 -0.428584,-0.413458 -0.428584,-1.043729 0,-1.351301 1.78997,-1.633663 l 1.588283,-0.236982 q 0,-1.663916 -1.250458,-1.663916 -0.852126,0 -1.658874,0.685735 v -0.55968 q 0.287404,-0.226898 0.776495,-0.388247 0.494132,-0.16135 0.927759,-0.16135 0.796662,0 1.230289,0.494133 0.438669,0.494132 0.438669,1.437018 v 3.358085 z m -1.421892,-2.571507 q -0.811789,0.11597 -1.13953,0.378163 -0.327741,0.257151 -0.327741,0.842042 0,0.458838 0.30253,0.756326 0.307573,0.297488 0.852127,0.297488 0.746241,0 1.240374,-0.549597 0.494132,-0.554638 0.494132,-1.426934 v -0.504217 z"
       style="font-style:normal;font-variant:normal;font-weight:300;font-stretch:normal;font-size:10.32636261px;line-height:0em;font-family:'Segoe UI';-inkscape-font-specification:'Segoe UI Light';fill:#ffffff;stroke-width:0.96809649"
       id="path24" />
    <path
       d="m 36.935843,47.769135 q -0.574807,0.352952 -1.37147,0.352952 -1.053813,0 -1.699211,-0.72103 -0.645397,-0.726073 -0.645397,-1.895856 0,-1.230289 0.726072,-2.011825 0.726072,-0.786579 1.865602,-0.786579 0.589934,0 1.144573,0.242024 v 0.524386 q -0.554639,-0.342868 -1.215163,-0.342868 -0.90759,0 -1.472313,0.655482 -0.564723,0.65044 -0.564723,1.689127 0,1.003392 0.514301,1.613494 0.519343,0.610103 1.366428,0.610103 0.776494,0 1.351301,-0.413458 z"
       style="font-style:normal;font-variant:normal;font-weight:300;font-stretch:normal;font-size:10.32636261px;line-height:0em;font-family:'Segoe UI';-inkscape-font-specification:'Segoe UI Light';fill:#ffffff;stroke-width:0.96809649"
       id="path26" />
    <path
       d="m 41.680526,47.996033 v -3.095892 q 0,-0.917675 -0.332783,-1.341217 -0.332784,-0.428585 -1.038687,-0.428585 -0.665567,0 -1.169784,0.519344 -0.504216,0.519343 -0.504216,1.48744 v 2.85891 h -0.46388 v -7.643929 h 0.46388 v 3.408507 h 0.02017 q 0.610103,-1.053814 1.774844,-1.053814 0.837,0 1.275669,0.539512 0.438668,0.539512 0.438668,1.547946 v 3.201778 z"
       style="font-style:normal;font-variant:normal;font-weight:300;font-stretch:normal;font-size:10.32636261px;line-height:0em;font-family:'Segoe UI';-inkscape-font-specification:'Segoe UI Light';fill:#ffffff;stroke-width:0.96809649"
       id="path28" />
    <path
       d="m 43.80832,45.434611 q 0,1.063897 0.489091,1.663916 0.494132,0.600018 1.351301,0.600018 0.867253,0 1.694169,-0.640356 v 0.494133 q -0.801705,0.569765 -1.78997,0.569765 -0.99835,0 -1.613494,-0.715988 -0.615145,-0.715988 -0.615145,-2.02191 0,-1.129446 0.640355,-1.900898 0.645398,-0.776494 1.674001,-0.776494 0.963054,0 1.477355,0.675651 0.514301,0.675651 0.514301,1.845434 v 0.206729 z m 3.337916,-0.423542 q -0.03025,-0.892464 -0.428584,-1.386597 -0.398332,-0.494133 -1.099193,-0.494133 -0.726072,0 -1.205078,0.489091 -0.473964,0.484048 -0.584892,1.391639 z"
       style="font-style:normal;font-variant:normal;font-weight:300;font-stretch:normal;font-size:10.32636261px;line-height:0em;font-family:'Segoe UI';-inkscape-font-specification:'Segoe UI Light';fill:#ffffff;stroke-width:0.96809649"
       id="path30" />
  </g>
  <g
     aria-label="Spark"
     style="font-style:normal;font-weight:normal;font-size:10.66666698px;line-height:1.25;font-family:sans-serif;letter-spacing:0px;word-spacing:0px;fill:#000000;fill-opacity:1;stroke:none"
     id="text3760">
    <path
       d="m 20.697838,57.657946 v -0.569765 q 0.776494,0.494132 1.573157,0.494132 0.847085,0 1.285753,-0.34791 0.438669,-0.352951 0.438669,-0.983223 0,-0.554638 -0.297488,-0.882379 -0.292446,-0.332783 -1.275669,-0.902548 -1.099193,-0.640356 -1.391638,-1.06894 -0.292446,-0.433627 -0.292446,-0.99835 0,-0.76641 0.594976,-1.30088 0.594976,-0.534469 1.588283,-0.534469 0.645398,0 1.290795,0.216813 v 0.524385 q -0.635313,-0.287403 -1.356343,-0.287403 -0.736157,0 -1.169783,0.37312 -0.428585,0.373121 -0.428585,0.947928 0,0.554639 0.292446,0.88238 0.297488,0.327741 1.275669,0.892464 1.013476,0.574807 1.346259,1.02356 0.337825,0.443711 0.337825,1.02356 0,0.831958 -0.579849,1.356344 -0.574807,0.524386 -1.628621,0.524386 -0.37312,0 -0.862211,-0.11597 -0.484048,-0.11597 -0.741199,-0.267235 z"
       style="font-style:normal;font-variant:normal;font-weight:300;font-stretch:normal;font-size:10.32636261px;font-family:'Segoe UI';-inkscape-font-specification:'Segoe UI Light';fill:#ffffff"
       id="path33" />
    <path
       d="m 26.450953,56.997421 h -0.02017 v 3.292537 h -0.46388 v -7.538043 h 0.46388 v 1.063898 h 0.02017 q 0.27732,-0.569765 0.791621,-0.877338 0.519343,-0.312614 1.13953,-0.312614 0.983223,0 1.53282,0.680693 0.554638,0.67565 0.554638,1.840391 0,1.295838 -0.635313,2.097543 -0.630271,0.796663 -1.668958,0.796663 -1.159699,0 -1.714338,-1.04373 z m -0.02017,-1.921066 v 0.65044 q 0,0.776494 0.48909,1.336175 0.489091,0.554638 1.285753,0.554638 0.791621,0 1.285753,-0.67565 0.494133,-0.680693 0.494133,-1.784928 0,-0.968097 -0.453795,-1.537862 -0.453795,-0.569765 -1.210121,-0.569765 -0.902548,0 -1.396681,0.60506 -0.494132,0.605061 -0.494132,1.421892 z"
       style="font-style:normal;font-variant:normal;font-weight:300;font-stretch:normal;font-size:10.32636261px;font-family:'Segoe UI';-inkscape-font-specification:'Segoe UI Light';fill:#ffffff"
       id="path35" />
    <path
       d="m 34.841123,57.915096 v -1.033644 h -0.02017 q -0.247067,0.529427 -0.721031,0.847084 -0.468921,0.312615 -1.043729,0.312615 -0.736156,0 -1.164741,-0.413458 -0.428584,-0.413458 -0.428584,-1.043729 0,-1.351302 1.78997,-1.633663 l 1.588283,-0.236982 q 0,-1.663916 -1.250458,-1.663916 -0.852126,0 -1.658873,0.685735 v -0.559681 q 0.287403,-0.226897 0.776494,-0.388247 0.494132,-0.161349 0.927759,-0.161349 0.796663,0 1.230289,0.494132 0.438669,0.494133 0.438669,1.437019 v 3.358084 z M 33.419232,55.34359 q -0.81179,0.11597 -1.139531,0.378163 -0.327741,0.25715 -0.327741,0.842042 0,0.458837 0.302531,0.756325 0.307572,0.297488 0.852126,0.297488 0.746241,0 1.240374,-0.549596 0.494132,-0.554639 0.494132,-1.426934 v -0.504217 z"
       style="font-style:normal;font-variant:normal;font-weight:300;font-stretch:normal;font-size:10.32636261px;font-family:'Segoe UI';-inkscape-font-specification:'Segoe UI Light';fill:#ffffff"
       id="path37" />
    <path
       d="m 39.293358,53.235963 q -0.23194,-0.166391 -0.544554,-0.166391 -0.610103,0 -1.023561,0.630271 -0.413457,0.630271 -0.413457,1.78997 v 2.425283 H 36.85799 v -5.163181 h 0.453796 v 1.144572 h 0.02017 q 0.176476,-0.589933 0.559681,-0.917674 0.383205,-0.327741 0.887422,-0.327741 0.287403,0 0.514301,0.09076 z"
       style="font-style:normal;font-variant:normal;font-weight:300;font-stretch:normal;font-size:10.32636261px;font-family:'Segoe UI';-inkscape-font-specification:'Segoe UI Light';fill:#ffffff"
       id="path39" />
    <path
       d="m 43.221208,57.915096 -2.470663,-2.551337 h -0.02017 v 2.551337 h -0.463879 v -7.643928 h 0.463879 v 4.926199 h 0.02017 l 2.344609,-2.445452 h 0.600018 l -2.450494,2.500916 2.647138,2.662265 z"
       style="font-style:normal;font-variant:normal;font-weight:300;font-stretch:normal;font-size:10.32636261px;font-family:'Segoe UI';-inkscape-font-specification:'Segoe UI Light';fill:#ffffff"
       id="path41" />
  </g>
</svg>
