<?xml version="1.0" encoding="UTF-8" standalone="no"?>
<svg
   xmlns:dc="http://purl.org/dc/elements/1.1/"
   xmlns:cc="http://creativecommons.org/ns#"
   xmlns:rdf="http://www.w3.org/1999/02/22-rdf-syntax-ns#"
   xmlns:svg="http://www.w3.org/2000/svg"
   xmlns="http://www.w3.org/2000/svg"
   xmlns:sodipodi="http://sodipodi.sourceforge.net/DTD/sodipodi-0.dtd"
   xmlns:inkscape="http://www.inkscape.org/namespaces/inkscape"
   id="Layer_1"
   data-name="Layer 1"
   viewBox="0 0 64 64"
   version="1.1"
   sodipodi:docname="netspark.svg"
   inkscape:version="0.92.4 (5da689c313, 2019-01-14)">
  <metadata
     id="metadata41">
    <rdf:RDF>
      <cc:Work
         rdf:about="">
        <dc:format>image/svg+xml</dc:format>
        <dc:type
           rdf:resource="http://purl.org/dc/dcmitype/StillImage" />
        <dc:title>logo_NETspark</dc:title>
      </cc:Work>
    </rdf:RDF>
  </metadata>
  <sodipodi:namedview
     pagecolor="#ffffff"
     bordercolor="#666666"
     borderopacity="1"
     objecttolerance="10"
     gridtolerance="10"
     guidetolerance="10"
     inkscape:pageopacity="0"
     inkscape:pageshadow="2"
     inkscape:window-width="1920"
     inkscape:window-height="1137"
     id="namedview39"
     showgrid="false"
     inkscape:zoom="10.429825"
     inkscape:cx="42.77837"
     inkscape:cy="32.352313"
     inkscape:window-x="1912"
     inkscape:window-y="-8"
     inkscape:window-maximized="1"
     inkscape:current-layer="Layer_1" />
  <defs
     id="defs4">
    <style
       id="style2">.cls-1{fill:#5c2d91;}.cls-2,.cls-3{fill:#fff;}.cls-2{opacity:0.1;}.cls-4{fill:#f2f2f2;}</style>
  </defs>
  <title
     id="title6">logo_NETspark</title>
  <circle
     class="cls-1"
     cx="32"
     cy="32"
     r="32"
     id="circle8" />
  <path
     class="cls-2"
     d="M9.82,9A32,32,0,1,0,55,54.18Z"
     id="path10" />
  <path
     class="cls-3"
     d="M7.4,37.25a1.35,1.35,0,0,1-1-.42,1.38,1.38,0,0,1-.41-1,1.4,1.4,0,0,1,.41-1,1.34,1.34,0,0,1,1-.43,1.37,1.37,0,0,1,1,.43,1.39,1.39,0,0,1,.42,1,1.37,1.37,0,0,1-.42,1A1.38,1.38,0,0,1,7.4,37.25Z"
     id="path12" />
  <path
     class="cls-3"
     d="M27.27,37H24.65L15.28,22.46a6,6,0,0,1-.58-1.14h-.08a18.72,18.72,0,0,1,.1,2.5V37H12.59V18.77h2.77l9.12,14.28q.57.89.74,1.22h.05a19.28,19.28,0,0,1-.13-2.68V18.77h2.13Z"
     id="path14" />
  <path
     class="cls-3"
     d="M41.69,37H32V18.77h9.24V20.7H34.18v6.06h6.58v1.92H34.18V35h7.52Z"
     id="path16" />
  <path
     class="cls-3"
     d="M56,20.7H50.71V37H48.57V20.7H43.33V18.77H56Z"
     id="path18" />
  <text
     xml:space="preserve"
     style="font-style:normal;font-weight:normal;font-size:10.66666698px;line-height:1.25;font-family:sans-serif;letter-spacing:0px;word-spacing:0px;fill:#000000;fill-opacity:1;stroke:none"
     x="9.2043734"
     y="50.768715"
     id="text3748"><tspan
       sodipodi:role="line"
       id="tspan3746"
       x="9.2043734"
       y="60.50024"
       style="font-style:normal;font-variant:normal;font-weight:normal;font-stretch:normal;font-family:'Segoe UI';-inkscape-font-specification:'Segoe UI'" /></text>
  <text
     xml:space="preserve"
     style="font-style:normal;font-weight:normal;font-size:10.32636261px;line-height:1.25;font-family:sans-serif;letter-spacing:0px;word-spacing:0px;fill:#000000;fill-opacity:1;stroke:none;stroke-width:0.96809649"
     x="15.38057"
     y="47.996033"
     id="text3752"
     transform="scale(1.0151198,0.9851054)"><tspan
       sodipodi:role="line"
       x="15.38057"
       y="47.996033"
       style="font-style:normal;font-variant:normal;font-weight:300;font-stretch:normal;font-size:10.32636261px;line-height:0em;font-family:'Segoe UI';-inkscape-font-specification:'Segoe UI Light';fill:#ffffff;stroke-width:0.96809649"
       id="tspan3754">Apache</tspan></text>
  <text
     xml:space="preserve"
     style="font-style:normal;font-weight:normal;font-size:10.66666698px;line-height:1.25;font-family:sans-serif;letter-spacing:0px;word-spacing:0px;fill:#000000;fill-opacity:1;stroke:none"
     x="19.996977"
     y="57.915096"
     id="text3760"><tspan
       sodipodi:role="line"
       id="tspan3758"
       x="19.996977"
       y="57.915096"
       style="font-style:normal;font-variant:normal;font-weight:300;font-stretch:normal;font-size:10.32636261px;font-family:'Segoe UI';-inkscape-font-specification:'Segoe UI Light';fill:#ffffff">Spark</tspan></text>
</svg>
