<svg xmlns="http://www.w3.org/2000/svg" viewBox="0 0 636 300"><title>swimlane-serverless-computing</title><path d="M141,271h71a4.141,4.141,0,0,1,4.192,3.643A4,4,0,0,1,212.209,279h-71.2a4.14,4.14,0,0,1-4.192-3.643A4,4,0,0,1,140.8,271" fill="#c8c8c8"/><path d="M93,289H66.6a6.355,6.355,0,0,1-6.719-6.529c0-3.137,2.119-6.471,6.046-6.471H117v3H65.929a3.277,3.277,0,0,0-3.276,3.472,3.475,3.475,0,0,0,.933,2.44A4.012,4.012,0,0,0,66.6,286H93Z" fill="#b2b2b2"/><rect x="96.347" y="284.625" width="8.249" height="1.859" fill="#d2d2d2"/><rect x="96.347" y="289.272" width="8.249" height="1.859" fill="#d2d2d2"/><path d="M98,283H87.712A1.713,1.713,0,0,0,86,284.712v6.576A1.713,1.713,0,0,0,87.712,293H98Z" fill="#c2c2c2"/><rect x="101.469" y="192.416" width="127.062" height="46.168" transform="translate(-50.721 380.212) rotate(-89.923)" fill="#e6e6e6"/><rect x="162.47" y="224.498" width="4.059" height="47.005" transform="translate(-83.707 412.187) rotate(-89.928)" fill="#b2b2b2"/><polygon points="188 170.058 188.006 166 142 165.939 142.019 151.633 113 165.009 112.834 279 142 279 142 263.618 142 267 188 267.058 188.005 263 142 262.941 142.058 218 188 218.058 188.005 214 142 214.255 142 202 188 202.058 188.006 198 142 197.941 142.016 186 188 186.059 188.006 182 142 182 142 169.421 141.999 170 188 170.058" fill="#b2b2b2"/><rect x="162.471" y="208.497" width="4.059" height="47.005" transform="translate(-67.703 396.213) rotate(-89.929)" fill="#b2b2b2"/><path d="M181.283,158.795a1.929,1.929,0,1,1-1.925-1.93,1.928,1.928,0,0,1,1.925,1.93" fill="#c8c8c8"/><path d="M173.988,158.785a1.929,1.929,0,1,1-1.926-1.93,1.927,1.927,0,0,1,1.926,1.93" fill="#c8c8c8"/><path d="M181.261,175.845a1.929,1.929,0,1,1-1.926-1.93,1.929,1.929,0,0,1,1.926,1.93" fill="#c8c8c8"/><path d="M173.965,175.836a1.928,1.928,0,1,1-1.925-1.931,1.928,1.928,0,0,1,1.925,1.931" fill="#c8c8c8"/><path d="M181.239,191.833a1.928,1.928,0,1,1-1.925-1.93,1.928,1.928,0,0,1,1.925,1.93" fill="#c8c8c8"/><path d="M173.945,191.824a1.929,1.929,0,1,1-1.926-1.931,1.931,1.931,0,0,1,1.926,1.931" fill="#c8c8c8"/><path d="M181.219,207.821a1.929,1.929,0,1,1-1.926-1.93,1.929,1.929,0,0,1,1.926,1.93" fill="#c8c8c8"/><path d="M173.923,207.812A1.929,1.929,0,1,1,172,205.881a1.928,1.928,0,0,1,1.926,1.931" fill="#c8c8c8"/><path d="M181.2,223.809a1.929,1.929,0,1,1-1.926-1.93,1.928,1.928,0,0,1,1.926,1.93" fill="#c8c8c8"/><path d="M173.9,223.8a1.929,1.929,0,1,1-1.926-1.931A1.927,1.927,0,0,1,173.9,223.8" fill="#c8c8c8"/><path d="M181.176,239.8a1.928,1.928,0,1,1-1.926-1.931,1.927,1.927,0,0,1,1.926,1.931" fill="#c8c8c8"/><path d="M173.881,239.788a1.929,1.929,0,1,1-1.926-1.931,1.928,1.928,0,0,1,1.926,1.931" fill="#c8c8c8"/><path d="M181.155,255.785a1.929,1.929,0,1,1-1.926-1.931,1.928,1.928,0,0,1,1.926,1.931" fill="#c8c8c8"/><path d="M173.86,255.776a1.929,1.929,0,1,1-1.926-1.931,1.928,1.928,0,0,1,1.926,1.931" fill="#c8c8c8"/><path d="M181.133,272.444a1.929,1.929,0,1,1-1.926-1.931,1.929,1.929,0,0,1,1.926,1.931" fill="#c8c8c8"/><path d="M173.838,272.435a1.929,1.929,0,1,1-1.926-1.931,1.928,1.928,0,0,1,1.926,1.931" fill="#c8c8c8"/><path d="M563.493,161.293A77.582,77.582,0,0,0,497.75,84.585,85.3,85.3,0,0,0,340.286,49.261a60.018,60.018,0,0,0-83.714,78.022,57.695,57.695,0,0,0,20.461,111.606c.324,0,.644-.019.967-.025V239H487v-.137A77.534,77.534,0,0,0,563.493,161.293Z" fill="#8fc3ec"/><polygon points="497.686 84.449 379.249 58.295 300.954 137.967 367.123 222.392 481.279 166.735 497.686 84.449" fill="none" stroke="#bfe1f7" stroke-miterlimit="10" stroke-width="1.112"/><polyline points="297.75 133.804 484.609 172.83 379.249 58.295 367.123 219.218" fill="none" stroke="#bfe1f7" stroke-miterlimit="10" stroke-width="1.112"/><line x1="499.39" y1="84.303" x2="297.75" y2="138.757" fill="none" stroke="#bfe1f7" stroke-miterlimit="10" stroke-width="1.112"/><line x1="367.123" y1="216.362" x2="497.686" y2="84.449" fill="none" stroke="#bfe1f7" stroke-miterlimit="10" stroke-width="1.112"/><path d="M367.175,105c0,.268-1.607.268-3.014.842l-2.279.9-1.475.576s-1.412.574.872.685h32.394c0-.111,2.077-.111.2-.878l-2.62-1.022a20.622,20.622,0,0,0-4.423-1.1Z" fill="#666"/><path d="M382,105V90H372v15Z" fill="#666"/><polygon points="372 94.461 382 102.515 382 105 372 105 372 94.461" fill="#8c8c8c"/><rect x="360" y="108" width="35" height="1"/><path d="M330.7,23S326,23,326,27.682V85.325S326,90,330.7,90h92.617S428,90,428,85.325V27.682S428,23,423.312,23Z" fill="#666"/><path d="M331.561,24S327,24,327,28.6V85.407S327,90,331.561,90h90.88S427,90,427,85.407V28.6s0-4.6-4.559-4.6Z"/><path d="M332.869,27A1.838,1.838,0,0,0,331,28.893v55.15A1.891,1.891,0,0,0,332.869,86h88.258A1.861,1.861,0,0,0,423,84.043V28.893A1.848,1.848,0,0,0,421.127,27Z" fill="#479cdf"/><rect x="333" y="31" width="88" height="52" fill="#d2d2d2"/><rect x="337" y="43" width="1" height="22" fill="#0872c4"/><rect x="333" y="30" width="88" height="13" fill="#106ebe"/><rect x="333" y="43" width="41" height="40" fill="#f3f3f3"/><rect x="357" y="38" width="31" height="24" fill="#fff"/><rect x="357" y="34" width="17" height="4" fill="#479cdf"/><rect x="357" y="46" width="31" height="7" fill="#ffcb40"/><rect x="339" y="48" width="19" height="3" fill="#d2d2d2"/><rect x="339" y="55" width="19" height="3" fill="#d2d2d2"/><rect x="347" y="62" width="22" height="3" fill="#d2d2d2"/><rect x="347" y="68" width="22" height="3" fill="#d2d2d2"/><polygon points="388 63 357 63 357 38 358 38 358 62 388 62 388 63" fill="#b2b2b2"/><path d="M282.4,160a4.813,4.813,0,0,0,4.739,4h75.232a4.813,4.813,0,0,0,4.739-4Z" fill="#8c8c8c"/><path d="M336.662,160H282.81a4.812,4.812,0,0,0,4.738,4h44.376A4.812,4.812,0,0,0,336.662,160Z" fill="#666"/><path d="M302.667,100.486H269a2.072,2.072,0,0,0-1.788,2.748l16.479,56.625h37.746L304.62,102.07A2.089,2.089,0,0,0,302.667,100.486Z" fill="#8c8c8c"/><path d="M305.838,100.486H272.172a2.071,2.071,0,0,0-1.788,2.748l16.478,56.625h37.746L307.791,102.07A2.088,2.088,0,0,0,305.838,100.486Z" fill="#3c3c3c"/><path d="M304.358,103.125H274.965c-1.128,0-1.363.818-1.014,2.015L289.367,157.7H321.7l-15.616-53.18A1.845,1.845,0,0,0,304.358,103.125Z" fill="#fff"/><rect x="470" y="62" width="60" height="44" fill="#fff"/><rect x="470" y="62" width="60" height="44" fill="#505050"/><rect x="470" y="61" width="60" height="6" fill="#479cdf"/><path d="M514,192V143.471A2.471,2.471,0,0,0,511.529,141H439.471A2.471,2.471,0,0,0,437,143.471V192Z" fill="#4b4a4b"/><rect x="428" y="192" width="95" height="2" fill="#4b4a4b"/><path d="M513.236,196H439.552C429,196,428,194.336,428,194h95C523,194.336,522,196,513.236,196Z" fill="#2e2e2e"/><rect x="441" y="145" width="69" height="44" fill="#666"/><path d="M467.26,192c.012.673.74,1,1.171,1h12.706c.863,0,1.159-.327,1.171-1Z" fill="#939393"/><circle cx="474.889" cy="142.81" r="0.805" fill="#767576"/><rect x="441" y="145" width="69" height="7" fill="#fff"/><rect x="441" y="145" width="69" height="4" fill="#106ebe"/><rect x="441" y="152" width="15" height="37" fill="#d2d2d2"/><rect x="456" y="177" width="54" height="12" fill="#333"/><rect x="461" y="157" width="13" height="2" fill="#e26c41"/><rect x="467" y="162" width="28" height="2" fill="#939393"/><rect x="468" y="166" width="23" height="2" fill="#939393"/><rect x="473" y="171" width="23" height="2" fill="#939393"/><rect x="475" y="70" width="24" height="3" fill="#939393"/><rect x="475" y="76" width="18" height="3" fill="#939393"/><rect x="483" y="81" width="24" height="3" fill="#939393"/><rect x="491" y="87" width="24" height="3" fill="#939393"/><rect x="475" y="70" width="14" height="3" fill="#e26c41"/><rect x="491" y="87" width="9" height="3" fill="#ffb900"/><rect x="491" y="92" width="18" height="3" fill="#939393"/><rect x="483" y="98" width="33" height="3" fill="#939393"/><path d="M346.073,245A1.072,1.072,0,0,1,345,243.927V193h-2.908c-.593-.349-1.073.131-1.092.724V250.6c.019.593,1.092,1.405,1.092,1.405h44.837A1.071,1.071,0,0,0,388,250.93l.008-5.93Z" fill="#f3f3f3"/><path d="M281.192,103.125h-6.227c-1.128,0-1.363.818-1.014,2.015L289.367,157.7H297.2Z" fill="#d2d2d2"/><path d="M276.866,115.079h32.315l-3.1-10.555a1.845,1.845,0,0,0-1.724-1.4H274.965c-1.128,0-1.363.818-1.014,2.015Z" fill="#939393"/><path d="M274.372,106.578h32.313l-.6-2.054a1.845,1.845,0,0,0-1.724-1.4H274.965c-1.128,0-1.363.818-1.014,2.015Z" fill="#ffb900"/><polygon points="298.509 119.714 289.394 119.714 290.047 121.938 299.161 121.938 298.509 119.714" fill="#e26c41"/><polygon points="309.825 124.163 290.699 124.163 291.352 126.388 310.478 126.388 309.825 124.163" fill="#d2d2d2"/><polygon points="305.812 128.613 294.658 128.613 295.311 130.838 306.464 130.838 305.812 128.613" fill="#d2d2d2"/><polygon points="311.139 133.062 299.13 133.062 299.782 135.287 311.792 135.287 311.139 133.062" fill="#d2d2d2"/><polygon points="309.941 137.512 300.435 137.512 301.088 139.737 310.594 139.737 309.941 137.512" fill="#d2d2d2"/><polygon points="313.62 141.961 295.919 141.961 296.572 144.186 314.272 144.186 313.62 141.961" fill="#d2d2d2"/><path d="M349.073,241A1.072,1.072,0,0,1,348,239.927V189h-2.477c-.593-.3-1.073.18-.523.773v56.871c-.55.593.523,1.356.523,1.356h44.406A1.071,1.071,0,0,0,391,246.93l.008-5.93Z" fill="#d2d2d2"/><path d="M378.542,185H349.073A1.072,1.072,0,0,0,348,186.073v56.854A1.072,1.072,0,0,0,349.073,244h44.854A1.073,1.073,0,0,0,395,242.93l.125-41.441Z" fill="#fff"/><path d="M394,200.942,378.028,185H378v14.927A1.072,1.072,0,0,0,379.073,201H394Z" fill="#ffb900"/><rect x="355" y="209" width="32" height="3" fill="#8fc3ec"/><rect x="355" y="216" width="32" height="3" fill="#8fc3ec"/><rect x="355" y="224" width="32" height="3" fill="#8fc3ec"/></svg>