<svg width="400" height="140" xmlns="http://www.w3.org/2000/svg">
 <title>swimlane-serverless-computing</title>

 <g>
  <title>background</title>
  <rect fill="none" id="canvas_background" height="142" width="402" y="-1" x="-1"/>
 </g>
 <g>
  <title>Layer 1</title>
  <g stroke="null" id="svg_96">
   <path stroke="null" id="svg_1" fill="#c8c8c8" d="m104.112937,125.836207l38.715395,0a2.258035,1.913103 0 0 1 2.285844,1.683032a2.181149,1.847963 0 0 1 -2.171879,2.012893l-38.824452,0a2.257489,1.912641 0 0 1 -2.285844,-1.683032a2.181149,1.847963 0 0 1 2.171879,-2.012893"/>
   <path stroke="null" id="svg_2" fill="#b2b2b2" d="m77.939149,134.152039l-14.395583,0a3.4653,2.935951 0 0 1 -3.663785,-3.016337c0,-1.449265 1.155464,-2.989542 3.296807,-2.989542l27.849456,0l0,1.385972l-27.848365,0a1.786906,1.513943 0 0 0 -1.786361,1.604032a1.894873,1.605418 0 0 0 0.508753,1.127257a2.187692,1.853507 0 0 0 1.643496,0.502646l14.395583,0l0,1.385972z"/>
   <rect stroke="null" id="svg_3" fill="#d2d2d2" height="0.858841" width="4.498075" y="132.13083" x="79.764226"/>
   <rect stroke="null" id="svg_4" fill="#d2d2d2" height="0.858841" width="4.498075" y="134.2777" x="79.764226"/>
   <path stroke="null" id="svg_5" fill="#c2c2c2" d="m80.665586,131.380095l-5.609915,0a0.934077,0.79139 0 0 0 -0.933532,0.790928l0,3.038051a0.934077,0.79139 0 0 0 0.933532,0.790928l5.609915,0l0,-4.619907z"/>
   <rect stroke="null" id="svg_6" fill="#e6e6e6" transform="matrix(0.0007328463481311021,-0.4619902372356248,0.5452867590127548,0.0006208987338026113,-207.71748171491691,156.6224525435425) " height="46.168" width="127.062" y="572.616369" x="59.406175"/>
   <rect stroke="null" id="svg_7" fill="#b2b2b2" transform="matrix(0.0006852146288668261,-0.4619902897096087,0.5452868209477619,0.0005805431063843252,-243.11971344034936,156.1521729785179) " height="47.005" width="4.059" y="636.674132" x="87.421176"/>
   <polygon stroke="null" id="svg_8" fill="#b2b2b2" points="129.74143981933594,79.20194244384766 129.7447052001953,77.32718658447266 104.6582260131836,77.29900360107422 104.66858673095703,70.68976593017578 88.84489440917969,76.86935424804688 88.75437927246094,129.53213500976562 104.6582260131836,129.53213500976562 104.6582260131836,122.42579650878906 104.6582260131836,123.98824310302734 129.74143981933594,124.01504516601562 129.74417114257812,122.1402816772461 104.6582260131836,122.11302947998047 104.68984985351562,101.35070037841797 129.74143981933594,101.37749481201172 129.74417114257812,99.50273895263672 104.6582260131836,99.62055206298828 104.6582260131836,93.95885467529297 129.74143981933594,93.98564910888672 129.7447052001953,92.11088562011719 104.6582260131836,92.08362579345703 104.66695404052734,86.56700134277344 129.74143981933594,86.5942611694336 129.7447052001953,84.71903991699219 104.6582260131836,84.71903991699219 104.6582260131836,78.90766143798828 104.65767669677734,79.1751480102539 129.74143981933594,79.20194244384766 "/>
   <rect stroke="null" id="svg_9" fill="#b2b2b2" transform="matrix(0.0006757028062417744,-0.46199029976614364,0.5452868328174831,0.0005724842839052193,-225.69414117591975,156.17849222108754) " height="47.005" width="4.059" y="604.699284" x="103.426174"/>
   <path stroke="null" id="svg_10" fill="#c8c8c8" d="m126.078744,73.998545a1.051859,0.89118 0 1 1 -1.049678,-0.891642a1.051314,0.890718 0 0 1 1.049678,0.891642"/>
   <path stroke="null" id="svg_11" fill="#c8c8c8" d="m122.100873,73.993926a1.051859,0.89118 0 1 1 -1.050223,-0.891642a1.050769,0.890256 0 0 1 1.050223,0.891642"/>
   <path stroke="null" id="svg_12" fill="#c8c8c8" d="m126.066747,81.875486a1.051859,0.89118 0 1 1 -1.050223,-0.891642a1.051859,0.89118 0 0 1 1.050223,0.891642"/>
   <path stroke="null" id="svg_13" fill="#c8c8c8" d="m122.088332,81.871328a1.051314,0.890718 0 1 1 -1.049678,-0.892104a1.051314,0.890718 0 0 1 1.049678,0.892104"/>
   <path stroke="null" id="svg_14" fill="#c8c8c8" d="m126.054751,89.261793a1.051314,0.890718 0 1 1 -1.049678,-0.891642a1.051314,0.890718 0 0 1 1.049678,0.891642"/>
   <path stroke="null" id="svg_15" fill="#c8c8c8" d="m122.077426,89.257635a1.051859,0.89118 0 1 1 -1.050223,-0.892104a1.05295,0.892104 0 0 1 1.050223,0.892104"/>
   <path stroke="null" id="svg_16" fill="#c8c8c8" d="m126.043845,96.648099a1.051859,0.89118 0 1 1 -1.050223,-0.891642a1.051859,0.89118 0 0 1 1.050223,0.891642"/>
   <path stroke="null" id="svg_17" fill="#c8c8c8" d="m122.06543,96.643941a1.051859,0.89118 0 1 1 -1.048587,-0.892104a1.051314,0.890718 0 0 1 1.050223,0.892104"/>
   <path stroke="null" id="svg_18" fill="#c8c8c8" d="m126.033485,104.034406a1.051859,0.89118 0 1 1 -1.050223,-0.891642a1.051314,0.890718 0 0 1 1.050223,0.891642"/>
   <path stroke="null" id="svg_19" fill="#c8c8c8" d="m122.052888,104.030248a1.051859,0.89118 0 1 1 -1.050223,-0.892104a1.050769,0.890256 0 0 1 1.050223,0.892104"/>
   <path stroke="null" id="svg_20" fill="#c8c8c8" d="m126.020398,111.422098a1.051314,0.890718 0 1 1 -1.050223,-0.892104a1.050769,0.890256 0 0 1 1.050223,0.892104"/>
   <path stroke="null" id="svg_21" fill="#c8c8c8" d="m122.042527,111.416555a1.051859,0.89118 0 1 1 -1.050223,-0.892104a1.051314,0.890718 0 0 1 1.050223,0.892104"/>
   <path stroke="null" id="svg_22" fill="#c8c8c8" d="m126.008947,118.807019a1.051859,0.89118 0 1 1 -1.050223,-0.892104a1.051314,0.890718 0 0 1 1.050223,0.892104"/>
   <path stroke="null" id="svg_23" fill="#c8c8c8" d="m122.031076,118.802861a1.051859,0.89118 0 1 1 -1.050223,-0.892104a1.051314,0.890718 0 0 1 1.050223,0.892104"/>
   <path stroke="null" id="svg_24" fill="#c8c8c8" d="m125.996951,126.503321a1.051859,0.89118 0 1 1 -1.050223,-0.892104a1.051859,0.89118 0 0 1 1.050223,0.892104"/>
   <path stroke="null" id="svg_25" fill="#c8c8c8" d="m122.01908,126.499163a1.051859,0.89118 0 1 1 -1.050223,-0.892104a1.051314,0.890718 0 0 1 1.050223,0.892104"/>
   <path stroke="null" id="svg_26" fill="#8fc3ec" d="m334.492984,75.152598a42.304476,35.842159 0 0 0 -35.84882,-35.438379a46.513003,39.407803 0 0 0 -85.863112,-16.319358a32.72705,27.727755 0 0 0 -45.648177,36.045435a31.460348,26.654551 0 0 0 11.157122,51.560929c0.176673,0 0.351165,-0.008778 0.527293,-0.01155l0,0.062831l113.965036,0l0,-0.063293a42.278302,35.819983 0 0 0 41.710658,-35.836615z"/>
   <polygon stroke="#bfe1f7" id="svg_27" stroke-width="1.112" stroke-miterlimit="10" fill="none" points="298.6092834472656,39.65138626098633 234.02706909179688,27.568483352661133 191.3338165283203,64.37620544433594 227.4149169921875,103.3797607421875 289.6627197265625,77.666748046875 298.6092834472656,39.65138626098633 "/>
   <polyline stroke="#bfe1f7" id="svg_28" stroke-width="1.112" stroke-miterlimit="10" fill="none" points="189.5867156982422,62.45293426513672 291.4785461425781,80.48258209228516 234.02706909179688,27.568483352661133 227.4149169921875,101.91340637207031 "/>
   <line stroke="#bfe1f7" id="svg_29" stroke-width="1.112" stroke-miterlimit="10" fill="none" y2="64.741177" x2="189.586714" y1="39.583938" x1="299.538435"/>
   <line stroke="#bfe1f7" id="svg_30" stroke-width="1.112" stroke-miterlimit="10" fill="none" y2="39.651388" x2="298.609266" y1="100.593962" x1="227.414927"/>
   <path stroke="null" id="svg_31" fill="#666" d="m227.443281,49.145758c0,0.123813 -0.876277,0.123813 -1.643496,0.388996l-1.24271,0.415792l-0.804299,0.266107s-0.769946,0.265183 0.47549,0.316464l17.664035,0c0,-0.051281 1.132562,-0.051281 0.109057,-0.405628l-1.428653,-0.472154a11.244914,9.527171 0 0 0 -2.411806,-0.50819l-10.717621,-0.001386z"/>
   <path stroke="null" id="svg_32" fill="#666" d="m235.527165,49.145758l0,-6.92986l-5.452873,0l0,6.92986l5.452873,0z"/>
   <polygon stroke="null" id="svg_33" fill="#8c8c8c" points="230.0742950439453,44.27683639526367 235.52716064453125,47.997711181640625 235.52716064453125,49.14575958251953 230.0742950439453,49.14575958251953 230.0742950439453,44.27683639526367 "/>
   <rect stroke="null" id="svg_34" height="0.461991" width="19.085054" y="50.53173" x="223.530845"/>
   <path stroke="null" id="svg_35" fill="#666" d="m207.553929,11.262525s-2.56285,0 -2.56285,2.16304l0,26.630527s0,2.159806 2.56285,2.159806l50.502869,0s2.55358,0 2.55358,-2.159806l0,-26.630527s0,-2.16304 -2.556307,-2.16304l-50.500143,0z"/>
   <path stroke="null" id="svg_36" d="m208.023421,11.724515s-2.487055,0 -2.487055,2.125157l0,26.244303s0,2.121923 2.487055,2.121923l49.555705,0s2.485965,0 2.485965,-2.121923l0,-26.244303s0,-2.125157 -2.485965,-2.125157l-49.555705,0z"/>
   <path stroke="null" id="svg_37" fill="#479cdf" d="m208.736657,13.110487a1.002238,0.849139 0 0 0 -1.019142,0.874548l0,25.478785a1.031138,0.873624 0 0 0 1.019142,0.904116l48.125962,0a1.01478,0.859765 0 0 0 1.021323,-0.904116l0,-25.478785a1.007691,0.853759 0 0 0 -1.021323,-0.874548l-48.125962,0z"/>
   <rect stroke="null" id="svg_38" fill="#d2d2d2" height="24.023514" width="47.985278" y="14.95845" x="208.80809"/>
   <rect stroke="null" id="svg_39" fill="#0872c4" height="10.163794" width="0.545287" y="20.502338" x="210.989239"/>
   <rect stroke="null" id="svg_40" fill="#106ebe" height="6.005879" width="47.985278" y="14.496459" x="208.80809"/>
   <rect stroke="null" id="svg_41" fill="#f3f3f3" height="18.479626" width="22.356777" y="20.502338" x="208.80809"/>
   <rect stroke="null" id="svg_42" fill="#fff" height="11.087776" width="16.903905" y="18.192384" x="221.894984"/>
   <rect stroke="null" id="svg_43" fill="#479cdf" height="1.847963" width="9.269883" y="16.344422" x="221.894984"/>
   <rect stroke="null" id="svg_44" fill="#ffcb40" height="3.233935" width="16.903905" y="21.88831" x="221.894984"/>
   <rect stroke="null" id="svg_45" fill="#d2d2d2" height="1.385972" width="10.360458" y="22.812291" x="212.079813"/>
   <rect stroke="null" id="svg_46" fill="#d2d2d2" height="1.385972" width="10.360458" y="26.046226" x="212.079813"/>
   <rect stroke="null" id="svg_47" fill="#d2d2d2" height="1.385972" width="11.99632" y="29.28016" x="216.442111"/>
   <rect stroke="null" id="svg_48" fill="#d2d2d2" height="1.385972" width="11.99632" y="32.052104" x="216.442111"/>
   <polygon stroke="null" id="svg_49" fill="#b2b2b2" points="238.79888916015625,29.742149353027344 221.89498901367188,29.742149353027344 221.89498901367188,18.192384719848633 222.44027709960938,18.192384719848633 222.44027709960938,29.28015899658203 238.79888916015625,29.28015899658203 238.79888916015625,29.742149353027344 "/>
   <path stroke="null" id="svg_50" fill="#8c8c8c" d="m181.216555,74.555244a2.624468,2.223561 0 0 0 2.584116,1.847963l41.023051,0a2.624468,2.223561 0 0 0 2.584116,-1.847963l-46.191283,0z"/>
   <path stroke="null" id="svg_51" fill="#666" d="m210.804932,74.555244l-29.364809,0a2.623922,2.223099 0 0 0 2.583571,1.847963l24.197667,0a2.623922,2.223099 0 0 0 2.583571,-1.847963z"/>
   <path stroke="null" id="svg_52" fill="#8c8c8c" d="m192.267891,47.060332l-18.358186,0a1.129835,0.957245 0 0 0 -0.974974,1.26955l8.985789,26.160221l20.582413,0l-9.170096,-26.697978a1.139105,0.965098 0 0 0 -1.064946,-0.731793z"/>
   <path stroke="null" id="svg_53" fill="#3c3c3c" d="m193.996997,47.060332l-18.357641,0a1.12929,0.956783 0 0 0 -0.974974,1.26955l8.985243,26.160221l20.582413,0l-9.170096,-26.697978a1.13856,0.964636 0 0 0 -1.064946,-0.731793z"/>
   <path stroke="null" id="svg_54" fill="#fff" d="m193.189972,48.279526l-16.027628,0c-0.615084,0 -0.743227,0.377908 -0.552921,0.930911l8.406148,24.282229l17.630773,0l-8.515206,-24.568663a1.006055,0.852373 0 0 0 -0.941166,-0.644477z"/>
   <rect stroke="null" id="svg_55" fill="#fff" height="20.327589" width="32.717235" y="29.28016" x="283.512443"/>
   <rect stroke="null" id="svg_56" fill="#505050" height="20.327589" width="32.717235" y="29.28016" x="283.512443"/>
   <rect stroke="null" id="svg_57" fill="#479cdf" height="2.771944" width="32.717235" y="28.818169" x="283.512443"/>
   <path stroke="null" id="svg_58" fill="#4b4a4b" d="m307.505082,89.338945l0,-22.419944a1.347405,1.141579 0 0 0 -1.347405,-1.141579l-39.292309,0a1.347405,1.141579 0 0 0 -1.347405,1.141579l0,22.419944l41.987118,0z"/>
   <rect stroke="null" id="svg_59" fill="#4b4a4b" height="0.923981" width="51.802289" y="89.338945" x="260.610379"/>
   <path stroke="null" id="svg_60" fill="#2e2e2e" d="m307.088483,91.186908l-40.178946,0c-5.753871,0 -6.299158,-0.768752 -6.299158,-0.923981l51.802289,0c0,0.155229 -0.545287,0.923981 -5.324185,0.923981z"/>
   <rect stroke="null" id="svg_61" fill="#666" height="20.327589" width="37.62482" y="67.625384" x="267.699113"/>
   <path stroke="null" id="svg_62" fill="#939393" d="m282.018356,89.338945c0.006543,0.31092 0.403513,0.461991 0.638531,0.461991l6.92842,0c0.470583,0 0.631988,-0.151071 0.638531,-0.461991l-8.205483,0z"/>
   <circle stroke="null" id="svg_63" fill="#767576" r="0.371903" cy="66.613625" cx="286.178352"/>
   <rect stroke="null" id="svg_64" fill="#fff" height="3.233935" width="37.62482" y="67.625384" x="267.699113"/>
   <rect stroke="null" id="svg_65" fill="#106ebe" height="1.847963" width="37.62482" y="67.625384" x="267.699113"/>
   <rect stroke="null" id="svg_66" fill="#d2d2d2" height="17.093654" width="8.179309" y="70.859319" x="267.699113"/>
   <rect stroke="null" id="svg_67" fill="#333" height="5.543888" width="29.445512" y="82.409085" x="275.878422"/>
   <rect stroke="null" id="svg_68" fill="#e26c41" height="0.923981" width="7.088734" y="73.169272" x="278.604858"/>
   <rect stroke="null" id="svg_69" fill="#939393" height="0.923981" width="15.268043" y="75.479226" x="281.876581"/>
   <rect stroke="null" id="svg_70" fill="#939393" height="0.923981" width="12.541607" y="77.327188" x="282.421869"/>
   <rect stroke="null" id="svg_71" fill="#939393" height="0.923981" width="12.541607" y="79.637141" x="285.148305"/>
   <rect stroke="null" id="svg_72" fill="#939393" height="1.385972" width="13.086894" y="32.976085" x="286.238879"/>
   <rect stroke="null" id="svg_73" fill="#939393" height="1.385972" width="9.815171" y="35.748029" x="286.238879"/>
   <rect stroke="null" id="svg_74" fill="#939393" height="1.385972" width="13.086894" y="38.057983" x="290.601177"/>
   <rect stroke="null" id="svg_75" fill="#939393" height="1.385972" width="13.086894" y="40.829926" x="294.963475"/>
   <rect stroke="null" id="svg_76" fill="#e26c41" height="1.385972" width="7.634022" y="32.976085" x="286.238879"/>
   <rect stroke="null" id="svg_77" fill="#ffb900" height="1.385972" width="4.907585" y="40.829926" x="294.963475"/>
   <rect stroke="null" id="svg_78" fill="#939393" height="1.385972" width="9.815171" y="43.13988" x="294.963475"/>
   <rect stroke="null" id="svg_79" fill="#939393" height="1.385972" width="17.994479" y="45.911824" x="290.601177"/>
   <path stroke="null" id="svg_80" fill="#f3f3f3" d="m215.93663,113.82445a0.584548,0.495254 0 0 1 -0.585093,-0.495716l0,-23.527798l-1.585695,0c-0.323355,-0.161235 -0.585093,0.060521 -0.595454,0.334481l0,26.27618c0.01036,0.27396 0.595454,0.649097 0.595454,0.649097l24.449044,0a0.584003,0.494792 0 0 0 0.584003,-0.49664l0.004362,-2.739605l-22.866621,0z"/>
   <path stroke="null" id="svg_81" fill="#d2d2d2" d="m180.557848,48.279526l-3.395504,0c-0.615084,0 -0.743227,0.377908 -0.552921,0.930911l8.406148,24.282229l4.271235,0l-8.728958,-25.21314z"/>
   <path stroke="null" id="svg_82" fill="#939393" d="m178.198935,53.802162l17.620958,0l-1.69039,-4.876311a1.006055,0.852373 0 0 0 -0.940075,-0.646787l-16.027083,0c-0.615084,0 -0.743227,0.377908 -0.552921,0.930911l1.589512,4.592187z"/>
   <path stroke="null" id="svg_83" fill="#ffb900" d="m176.838989,49.874779l17.619867,0l-0.327172,-0.948929a1.006055,0.852373 0 0 0 -0.940075,-0.646787l-16.029264,0c-0.615084,0 -0.743227,0.377908 -0.552921,0.930911l0.229566,0.664805z"/>
   <polygon stroke="null" id="svg_84" fill="#e26c41" points="190.00059509277344,55.94348907470703 185.03030395507812,55.94348907470703 185.38636779785156,56.9709587097168 190.3561248779297,56.9709587097168 190.00059509277344,55.94348907470703 "/>
   <polygon stroke="null" id="svg_85" fill="#d2d2d2" points="196.1710662841797,57.99888610839844 185.7418975830078,57.99888610839844 186.09796142578125,59.02681350708008 196.52713012695312,59.02681350708008 196.1710662841797,57.99888610839844 "/>
   <polygon stroke="null" id="svg_86" fill="#d2d2d2" points="193.9828338623047,60.05474853515625 187.9006805419922,60.05474853515625 188.2567596435547,61.082672119140625 194.33834838867188,61.082672119140625 193.9828338623047,60.05474853515625 "/>
   <polygon stroke="null" id="svg_87" fill="#d2d2d2" points="196.8875732421875,62.110137939453125 190.33921813964844,62.110137939453125 190.6947479248047,63.13806915283203 197.24363708496094,63.13806915283203 196.8875732421875,62.110137939453125 "/>
   <polygon stroke="null" id="svg_88" fill="#d2d2d2" points="196.23431396484375,64.1659927368164 191.05081176757812,64.1659927368164 191.40689086914062,65.19392395019531 196.5903778076172,65.19392395019531 196.23431396484375,64.1659927368164 "/>
   <polygon stroke="null" id="svg_89" fill="#d2d2d2" points="198.24041748046875,66.22139739990234 188.5883026123047,66.22139739990234 188.94436645507812,67.24932861328125 198.595947265625,67.24932861328125 198.24041748046875,66.22139739990234 "/>
   <path stroke="null" id="svg_90" fill="#d2d2d2" d="m217.572492,111.976487a0.584548,0.495254 0 0 1 -0.585093,-0.495716l0,-23.527798l-1.350677,0c-0.323355,-0.138597 -0.585093,0.083158 -0.285185,0.357119l0,26.273871c-0.299908,0.27396 0.285185,0.626459 0.285185,0.626459l24.214026,0a0.584003,0.494792 0 0 0 0.584003,-0.49433l0.004362,-2.739605l-22.866621,0z"/>
   <path stroke="null" id="svg_91" fill="#fff" d="m233.641562,86.105011l-16.06907,0a0.584548,0.495254 0 0 0 -0.585093,0.495716l0,26.266017a0.584548,0.495254 0 0 0 0.585093,0.495716l24.458314,0a0.585093,0.495716 0 0 0 0.585093,-0.49433l0.068161,-19.145355l-9.042498,-7.617764z"/>
   <path stroke="null" id="svg_92" fill="#ffb900" d="m242.070612,93.470066l-8.709328,-7.365055l-0.015268,0l0,6.896134a0.584548,0.495254 0 0 0 0.585093,0.495716l8.139503,0l0,-0.026795z"/>
   <rect stroke="null" id="svg_93" fill="#8fc3ec" height="1.385972" width="17.449192" y="97.192786" x="220.804409"/>
   <rect stroke="null" id="svg_94" fill="#8fc3ec" height="1.385972" width="17.449192" y="100.426721" x="220.804409"/>
   <rect stroke="null" id="svg_95" fill="#8fc3ec" height="1.385972" width="17.449192" y="104.122646" x="220.804409"/>
  </g>
 </g>
</svg>