<svg id="Layer_1" data-name="Layer 1" xmlns="http://www.w3.org/2000/svg" viewBox="0 0 400 140"><defs><style>.cls-1{fill:none;stroke:#5d5f5e;stroke-miterlimit:10;stroke-dasharray:2 2;}.cls-2{fill:#3498dc;}.cls-3{fill:#0b9e0b;}.cls-4{fill:#d2d3d4;}.cls-5{fill:#721481;}.cls-6{fill:#fff;}.cls-7{fill:#a4ca39;}</style></defs><polyline class="cls-1" points="304.96 26.45 341.5 50.71 376.92 75.44"/><polyline class="cls-1" points="259.64 97.45 286.01 59.01 269.03 28.65 221.64 44.21"/><polygon class="cls-1" points="341.5 50.71 342.8 100.47 297.39 105.49 300.32 82.63 286.01 59.01 341.5 50.71"/><polygon class="cls-1" points="87 48.85 142.23 78.89 129.04 36.65 87 48.85"/><line class="cls-1" x1="161.69" y1="33.49" x2="206.75" y2="107.24"/><polyline class="cls-1" points="142.23 78.89 85.06 100.17 48.87 81.24 38.04 37.63 87 48.85 48.87 81.24"/><polyline class="cls-1" points="223.57 43.95 259.64 97.45 206.75 107.24 142.23 78.89 161.69 33.49 183.96 15.62 223.57 43.95"/><path class="cls-2" d="M174.86,33.49a13.17,13.17,0,1,1-13.17-13.17,13.17,13.17,0,0,1,13.17,13.17h0"/><path class="cls-2" d="M276.59,28.87A7.56,7.56,0,1,0,269,36.43h0a7.55,7.55,0,0,0,7.56-7.55h0"/><path class="cls-3" d="M384.48,75.44A7.56,7.56,0,1,0,376.92,83h0a7.56,7.56,0,0,0,7.56-7.56h0"/><path class="cls-4" d="M306,82.63a5.68,5.68,0,1,0-5.68,5.68A5.68,5.68,0,0,0,306,82.63h0"/><path class="cls-4" d="M315.79,26.44A10.83,10.83,0,1,1,305,15.61h0a10.83,10.83,0,0,1,10.83,10.83h0"/><path class="cls-4" d="M59.7,81.23A10.83,10.83,0,1,1,48.86,70.41h0A10.82,10.82,0,0,1,59.7,81.23h0"/><path class="cls-5" d="M222.45,107a15.71,15.71,0,1,1-15.7-15.7h0a15.7,15.7,0,0,1,15.7,15.7h0"/><path class="cls-5" d="M189.64,15.37A5.68,5.68,0,1,0,184,21.05h0a5.68,5.68,0,0,0,5.68-5.68"/><path class="cls-5" d="M134.72,36.65A5.68,5.68,0,1,0,129,42.33h0a5.68,5.68,0,0,0,5.68-5.68"/><path class="cls-4" d="M362.75,101.2a20,20,0,1,1-19.95-20,19.95,19.95,0,0,1,19.95,20h0"/><path class="cls-6" d="M352.05,100a3.16,3.16,0,0,0-1.35.3c0-.1,0-.2,0-.3a6.3,6.3,0,0,0-12.57-.56,4.3,4.3,0,0,0-7,5l.06.07a4.74,4.74,0,0,0,3.45,2.15h17.36a3.54,3.54,0,0,0,3.08-3.64,3.14,3.14,0,0,0-3.08-3.07"/><path class="cls-2" d="M54.14,37.63A15.43,15.43,0,1,0,38.71,53.06,15.43,15.43,0,0,0,54.14,37.63h0"/><rect class="cls-6" x="32.7" y="44.16" width="3.78" height="3.92"/><rect class="cls-6" x="38.08" y="40.24" width="3.78" height="7.84"/><rect class="cls-6" x="43.54" y="35.2" width="3.78" height="12.88"/><polygon class="cls-6" points="35.73 25.91 35.21 28.46 38.34 29.09 27.48 35.74 28.84 37.96 39.68 31.32 38.78 34.58 41.29 35.27 43.45 27.46 35.73 25.91"/><path class="cls-7" d="M257.94,45.12a36.31,36.31,0,1,1-36.31-36.3,36.31,36.31,0,0,1,36.31,36.3"/><path class="cls-6" d="M202.67,41.85a2.6,2.6,0,0,0,2.25-1.3h4.61V44a2.6,2.6,0,1,0,3.55,1,2.55,2.55,0,0,0-1-1V38h-7.21a2.6,2.6,0,1,0-2.25,3.9"/><path class="cls-6" d="M235.26,33.1a2.61,2.61,0,0,0-1.47,4.76v7h-6.66a2.61,2.61,0,1,0,0,2.6h8l1.3-1.3V38.05a2.6,2.6,0,0,0-1.13-4.95"/><path class="cls-6" d="M241.9,41.36V30.85l-3.09-3.1h-6.58a2.61,2.61,0,1,0-1,3.56,2.65,2.65,0,0,0,1-.95h5.5l1.57,1.56v9.44a2.61,2.61,0,1,0,2.6,0"/><path class="cls-6" d="M229,37.52a2.6,2.6,0,1,1-2.24,3.9h-3.86l-1.29-1.29V34.58a2.6,2.6,0,1,1,2.59,0v4.25h2.56A2.61,2.61,0,0,1,229,37.52"/><path class="cls-6" d="M212.11,28a2.61,2.61,0,0,0,2.26-1.3h6.31a2.61,2.61,0,1,0,.95-3.56,2.7,2.7,0,0,0-.95.95h-6.32A2.6,2.6,0,1,0,212.12,28"/><path class="cls-6" d="M207.45,34.73a2.6,2.6,0,0,0,2.25-1.3h6.82V44a2.61,2.61,0,1,0,3.56,1,2.55,2.55,0,0,0-1-1V30.83h-9.44a2.6,2.6,0,1,0-2.24,3.9"/><path class="cls-6" d="M220.79,50a2.6,2.6,0,0,0-2.24,1.3h-9.4l-3.92-3.92a2.42,2.42,0,0,0,.05-.47,2.65,2.65,0,1,0-2.69,2.61,2.83,2.83,0,0,0,.95-.16l4.55,4.55h10.46A2.6,2.6,0,1,0,220.8,50"/><path class="cls-6" d="M230.73,52.56a2.61,2.61,0,0,0-5.21,0,2.62,2.62,0,0,0,1.31,2.27v7.84a2.61,2.61,0,1,0,2.6,0V54.81a2.6,2.6,0,0,0,1.3-2.25"/><path class="cls-6" d="M237.71,52.56a2.61,2.61,0,1,0-3.9,2.25v3.41a2.61,2.61,0,1,0,2.6,0V54.81a2.6,2.6,0,0,0,1.3-2.25"/><path class="cls-7" d="M111.13,49.77A23.8,23.8,0,1,1,87.33,26h0a23.8,23.8,0,0,1,23.8,23.8h0"/><path class="cls-6" d="M87,56.29c1.17,0,1.33,2.5,4,2.5,9.14,0,10.24-4.4,10.59-5.74.19-.74.31-1.26.37-1.57a.42.42,0,0,0-.29-.5A49.11,49.11,0,0,0,87,48.85h0A49.11,49.11,0,0,0,72.28,51a.42.42,0,0,0-.29.5c.06.31.18.83.37,1.57.35,1.34,1.45,5.74,10.59,5.74,2.7,0,2.86-2.5,4-2.5Z"/><path class="cls-6" d="M71.91,49.45V45.61a.36.36,0,0,1,.2-.32c1-.48,5.51-2.45,14.87-2.45s14,2.1,14.93,2.6a.34.34,0,0,1,.19.31v3.7a.26.26,0,0,1-.25.26h-.08a51.54,51.54,0,0,0-29.53,0,.25.25,0,0,1-.31-.18h0a.15.15,0,0,1,0-.07"/><path class="cls-6" d="M70.51,49.57V46.69a.26.26,0,0,0-.25-.27.3.3,0,0,0-.16,0,6.16,6.16,0,0,0-1.37,1.12v2.86a.27.27,0,0,0,.27.27l.1,0,.88-.35a.83.83,0,0,0,.53-.78"/><path class="cls-6" d="M70.85,51.82l.43,1.85a.1.1,0,0,1-.06.11h0a4.27,4.27,0,0,1-2.39-1.59.1.1,0,0,1,0-.13h0c.43-.18,1.08-.4,1.5-.53a.41.41,0,0,1,.51.26h0v0"/><path class="cls-6" d="M103.43,49.57V46.69a.26.26,0,0,1,.25-.27.28.28,0,0,1,.16,0,6.16,6.16,0,0,1,1.37,1.12v2.86a.27.27,0,0,1-.27.27l-.1,0-.88-.35a.83.83,0,0,1-.53-.78"/><path class="cls-6" d="M103.09,51.82l-.43,1.85a.1.1,0,0,0,.06.11h.06a4.28,4.28,0,0,0,2.38-1.59.1.1,0,0,0,0-.13h0c-.44-.18-1.09-.4-1.5-.53a.41.41,0,0,0-.52.27h0v0"/><path class="cls-2" d="M361.7,50.72a22.06,22.06,0,1,1-22.06-22.07A22.06,22.06,0,0,1,361.7,50.72h0"/><path class="cls-6" d="M352,46.41A4.79,4.79,0,0,0,348.4,48l-5.62-2.7,1.28-1.94c.11,0,.21,0,.32,0a2.9,2.9,0,1,0-2.73-3.84L335,40.5a2.55,2.55,0,1,0-4,3.16,2.62,2.62,0,0,0,.65.59l-.24,7.37a6.34,6.34,0,1,0,7.48,6.23,2,2,0,0,0,0-.24l9.29-3.55a4.8,4.8,0,0,0,7.69-5.73A4.75,4.75,0,0,0,352,46.4m-16.77,5.71a6.51,6.51,0,0,0-1.22-.42l.24-7.38.19-.1L339,46.39Zm2.26-9.33,4.24-.58-1.31,2Zm.73,12.28a6.2,6.2,0,0,0-.92-1.37l4-6.16,5.91,2.85a5.56,5.56,0,0,0-.08.82c0,.15,0,.28,0,.42Z"/><path class="cls-5" d="M302.59,58.87A16.57,16.57,0,1,0,286,75.44a16.57,16.57,0,0,0,16.57-16.57h0"/><path class="cls-6" d="M289.64,53.13,286,50.71l-3.72,2.42h-2.92v4.09a10.41,10.41,0,0,0,4.11,8.06l2.54,2,2.53-2a10.36,10.36,0,0,0,4.11-8.06V53.13Z"/><path class="cls-4" d="M173.1,78.86A29.91,29.91,0,1,1,143.19,49h0a29.91,29.91,0,0,1,29.91,29.9h0"/><path class="cls-6" d="M154.59,70.05c-5.16,0-9,3.53-12.5,7.31-3.53-3.77-7.29-7.31-12.41-7.31a9.7,9.7,0,0,0,0,19.4c4,0,7.18-2.17,10.06-4.92l-2.12-2.46c-2.46,2.37-5,4.13-7.93,4.13a6.45,6.45,0,0,1,0-12.9c3.85,0,7,3,10.19,6.46l2.22,2.38c3.55,3.79,7.33,7.31,12.5,7.31a9.7,9.7,0,0,0,.25-19.4h-.26m0,16.15c-3.92,0-7.07-3-10.29-6.44,3.23-3.46,6.38-6.46,10.29-6.46a6.45,6.45,0,0,1,.55,12.89h-.55"/><path class="cls-2" d="M278.66,96.11a19.11,19.11,0,1,0-19.1,19.11,19.11,19.11,0,0,0,19.1-19.11"/><path class="cls-6" d="M270.46,97.6v-3l-3.18-.52a8,8,0,0,0-.86-2l1.9-2.63-2.11-2.1-2.65,1.92a8.1,8.1,0,0,0-2-.82l-.51-3.25h-3l-.51,3.25a8.1,8.1,0,0,0-2,.82l-2.65-1.92-2.11,2.1,1.91,2.63a7.73,7.73,0,0,0-.87,2l-3.18.52v3l3.14.5a7.66,7.66,0,0,0,.85,2.12l-1.85,2.55,2.1,2.11,2.52-1.83a8,8,0,0,0,2.16.9l.49,3.07h3l.49-3.07a8,8,0,0,0,2.15-.9l2.53,1.83,2.11-2.11-1.85-2.54a8.5,8.5,0,0,0,.86-2.12Zm-10.91,2.87a4.28,4.28,0,1,1,4.28-4.27h0a4.27,4.27,0,0,1-4.28,4.27h0"/><path class="cls-7" d="M312.38,107.24a13.57,13.57,0,1,0-13.56,13.57h0a13.57,13.57,0,0,0,13.56-13.57"/><path class="cls-6" d="M293.13,107.24a5.7,5.7,0,0,1,3.52-5.26l-1.41,2,2.15,1.48,3.73-5.41-4.91-4.57-1.77,1.91,2,1.87a8.28,8.28,0,0,0-2,15l1.36-2.21a5.64,5.64,0,0,1-2.7-4.85"/><path class="cls-6" d="M307.11,107.24a8.28,8.28,0,0,0-3.67-6.89L302,102.51a5.7,5.7,0,0,1-1,10l1.32-1.91-2.13-1.49-3.69,5.29,4.72,4.45,1.79-1.89-1.86-1.75a8.3,8.3,0,0,0,5.94-8"/><path class="cls-2" d="M108.58,101.59a22.71,22.71,0,1,1-22.71-22.7h0a22.71,22.71,0,0,1,22.71,22.7h0"/><path class="cls-6" d="M90.4,104.32l-3.05,5.07-3.91-8.11-2.41,4H75.3a45,45,0,0,0,10.58,10.26s7.69-5.21,11.17-11.21Z"/><path class="cls-6" d="M79.91,103.32l3.71-6.15,3.92,8.16,1.8-2.71h8.55A9.36,9.36,0,0,0,98.73,99a6.49,6.49,0,0,0-6.67-6.28,6.69,6.69,0,0,0-6.18,3.88,6.71,6.71,0,0,0-6.17-3.88A6.49,6.49,0,0,0,73,99a10,10,0,0,0,1.15,4.35Z"/></svg>