<svg xmlns="http://www.w3.org/2000/svg" viewBox="0 0 636 300"><defs><style>.a{fill:#40cdf5}.b{fill:#fff}.c,.s,.v{fill:none}.c{stroke:#90c10c;stroke-width:2px}.c,.v{stroke-miterlimit:10}.d{fill:#323232}.e{fill:#505050}.f{fill:#737373}.g{fill:#00bcf2}.h{fill:#00b0e3}.i{fill:#006fc8}.j{fill:#2a3282}.k{fill:#0078d7}.l{fill:#b3d6f2}.m{fill:#004578}.n{fill:#2488d8}.o{fill:#ff8c00}.p{fill:#282828}.q{fill:#939393}.r{fill:#d2d2d2}.t{fill:#1c4768}.u{fill:#333}.v{stroke:#3c3c3c;stroke-width:3px}.w{fill:#b2b2b2}</style></defs><title>swimlane-cognitive-services</title><circle class="a" cx="282.154" cy="78.296" r="34.777"/><path class="b" d="M307.791 101.79a34.772 34.772 0 0 0-49.13-49.13z"/><path class="c" d="M151.5 210.395v67h113v15"/><path class="c" d="M215.5 86.395v183h58v23"/><path class="c" d="M237.5 126.395v136h45v30M298.5 292.395v-30h107v-99"/><path class="c" d="M306.5 292.395v-21h187v-83M290.5 292.395v-100"/><path class="d" d="M402.5 102.395h7v20h-7z"/><path class="e" d="M395.5 117.395h21v46h-21z"/><path class="f" d="M405.5 163.395h-11v-37.246l11 4.542v32.704z"/><path class="d" d="M381.5 164.395v-2h48v2"/><path class="g" d="M406.011 121.017a43.009 43.009 0 0 1-32.885-15.339A45.4 45.4 0 0 1 362.5 76.107v-16.66a5.052 5.052 0 0 1 5.052-5.052h77.383a4.565 4.565 0 0 1 4.565 4.565v17.887a44.33 44.33 0 0 1-10.056 28.493 43.318 43.318 0 0 1-32.558 15.668q-.438.01-.875.009zM368.5 61.4v15.531a39.14 39.14 0 0 0 8.633 24.882 36.5 36.5 0 0 0 29.123 13.657A37.308 37.308 0 0 0 442.5 78.247V61.4z"/><path class="d" d="M435.945 64.4h-60.89a1.555 1.555 0 0 1-1.555-1.56v-8.89a1.555 1.555 0 0 1 1.555-1.555h60.89a1.555 1.555 0 0 1 1.555 1.555v8.89a1.555 1.555 0 0 1-1.555 1.56z"/><path class="a" d="M377.5 77.443V36.236c0-15.284 11.983-28.227 27.261-28.621A28 28 0 0 1 433.5 35.606v42.466a28 28 0 0 1-28.741 27.991c-15.278-.394-27.259-13.337-27.259-28.62z"/><path class="h" d="M405.5 7.6v98.469a28 28 0 0 0 28-28V35.606a28 28 0 0 0-28-28.006z"/><path class="i" d="M426.655 36.4h-42.316a1.334 1.334 0 0 1-1.73-1.4 1.548 1.548 0 0 1 1.73-1.6h42.316a1.548 1.548 0 0 1 1.73 1.6 1.334 1.334 0 0 1-1.73 1.4zM426.655 45.4h-42.316a1.762 1.762 0 0 1-1.73-1.751c0-.956.775-1.73 1.73-1.249h42.316c.956-.481 1.73.294 1.73 1.249a1.761 1.761 0 0 1-1.73 1.751zM426.655 53.4h-42.316c-.956.632-1.73-.143-1.73-1.1a2.017 2.017 0 0 1 1.73-1.9h42.316a2.016 2.016 0 0 1 1.73 1.9c0 .952-.774 1.727-1.73 1.1zM426.655 62.4h-42.316a1.377 1.377 0 0 1-1.73-1.446 1.5 1.5 0 0 1 1.73-1.554h42.316a1.5 1.5 0 0 1 1.73 1.554 1.377 1.377 0 0 1-1.73 1.446zM426.655 71.4h-42.316a1.83 1.83 0 0 1-1.73-1.794c0-.956.775-1.73 1.73-1.206h42.316c.956-.524 1.73.251 1.73 1.206a1.829 1.829 0 0 1-1.73 1.794zM426.655 79.4h-42.316c-.956.588-1.73-.187-1.73-1.142a1.938 1.938 0 0 1 1.73-1.858h42.316a1.937 1.937 0 0 1 1.73 1.858c0 .95-.774 1.725-1.73 1.142z"/><path class="j" d="M371.434 124.4h-99.387a9.547 9.547 0 0 0-9.547 9.547v67.78a8.673 8.673 0 0 0 8.673 8.673h55.538l20.789 22.537.278-22.541H370.4a9.1 9.1 0 0 0 9.1-9.1v-68.835a8.066 8.066 0 0 0-8.066-8.061z"/><path class="b" d="M311.393 177.4l-5.613 17h-7.613l18.687-55h8.569l18.769 55h-7.857l-5.774-17zm17.907-6l-5.413-15.911c-1.231-3.609-2.05-6.89-2.871-10.089h-.164c-.82 3.281-1.723 6.644-2.789 10.006l-5.414 15.994z"/><path class="k" d="M150.682 112.544a50.182 50.182 0 1 0 50.182 50.182 50.182 50.182 0 0 0-50.182-50.182zm.433 70.947c-16.753 0-32.01-7.706-43.473-20.332 11.462-12.626 26.72-20.332 43.473-20.332s32.011 7.706 43.473 20.332c-11.462 12.626-26.72 20.332-43.473 20.332z"/><path class="l" d="M194.093 162.4c-11.406-12.366-26.461-19.9-42.978-19.9s-31.572 7.534-42.978 19.9z"/><circle class="m" cx="151.115" cy="163.159" r="16.872"/><circle class="n" cx="151.115" cy="163.159" r="7.592"/><path class="o" d="M150.819 29.4h78.2a7.48 7.48 0 0 1 7.48 7.48V81.6a6.8 6.8 0 0 1-6.795 6.795h-43.962L169.5 105.981l-.217-17.581h-17.655a7.128 7.128 0 0 1-7.128-7.128V35.714a6.319 6.319 0 0 1 6.319-6.314z"/><circle class="b" cx="170.064" cy="59.061" r="5.762"/><circle class="b" cx="190.215" cy="59.061" r="5.762"/><circle class="b" cx="210.367" cy="59.061" r="5.762"/><path class="e" d="M208.674 148.126l3.433 3.4c2.269 2.246 5.579 2.573 7.391.73l40.188-39.89c1.813-1.843 1.443-5.158-.826-7.4l-3.433-3.4c-2.269-2.246-5.579-2.573-7.391-.73l-40.188 39.89c-1.813 1.839-1.443 5.154.826 7.4z"/><path class="p" d="M259.356 105.51c1.815 2.21 2 5.156.331 6.855l-40.187 39.89c-1.671 1.7-4.61 1.55-6.837-.241"/><path class="q" d="M237.6 111.44l10.435-10.608.017-.016 11.648 11.531-.015.018-10.514 10.518z"/><path class="r" d="M248.053 100.816l8.058 7.979-10.544 10.6-8.142-8.025 10.611-10.542a.114.114 0 0 0 .017-.012z"/><path class="e" d="M246.046 77.388a36.721 36.721 0 1 0 36.481-36.96 36.612 36.612 0 0 0-36.481 36.96zm4.512-.031a32.209 32.209 0 1 1 32.417 32 32.245 32.245 0 0 1-32.417-32z"/><path class="s" d="M278.059 55.592a33.178 33.178 0 0 1 18.155-2.887 28.26 28.26 0 0 0-38.676 37.041 27.548 27.548 0 0 0 2.089 3.649 33.458 33.458 0 0 1 18.432-37.803z"/><path class="t" d="M151.115 185.491c-16.7 0-32.667-7.453-44.954-20.987l-1.221-1.345 1.221-1.345c12.286-13.534 28.252-20.988 44.954-20.988s32.667 7.454 44.953 20.988l1.221 1.345-1.221 1.345c-12.287 13.534-28.251 20.987-44.953 20.987zm-40.739-22.332c11.338 11.837 25.738 18.332 40.739 18.332s29.4-6.495 40.738-18.332c-11.337-11.837-25.737-18.333-40.738-18.333s-29.402 6.496-40.739 18.333z"/><path class="u" d="M530.081 189.4h-54.163a5.418 5.418 0 0 1-5.418-5.418V94.813a5.418 5.418 0 0 1 5.418-5.418h54.164a5.418 5.418 0 0 1 5.418 5.418v89.163a5.419 5.419 0 0 1-5.419 5.424z"/><path class="f" d="M517.081 189.4h-54.163a5.418 5.418 0 0 1-5.418-5.418V94.813a5.418 5.418 0 0 1 5.418-5.418h54.164a5.418 5.418 0 0 1 5.418 5.418v89.163a5.419 5.419 0 0 1-5.419 5.424z"/><circle class="v" cx="490.73" cy="156.116" r="24.219"/><circle class="u" cx="490.73" cy="156.116" r="18.683"/><circle class="w" cx="490.73" cy="156.116" r="7.006"/><path class="q" d="M522.5 142.456V94.813a5.418 5.418 0 0 0-5.418-5.418h-47.643z"/><circle class="u" cx="489.952" cy="109.41" r="9.908"/></svg>