<svg id="Layer_1" data-name="Layer 1" xmlns="http://www.w3.org/2000/svg" viewBox="0 0 400 140"><defs><style>.cls-1{fill:none;stroke:#5d5f5e;stroke-miterlimit:10;stroke-dasharray:2 2;}.cls-2{fill:#505050;}.cls-3{fill:#737373;}.cls-4{fill:#323232;}.cls-5{fill:#3498dc;}.cls-6{fill:#a4ca39;}.cls-7{fill:#fff;}.cls-8{fill:#721481;}</style></defs><path class="cls-1" d="M214.46,127.38V70.78"/><path class="cls-1" d="M143.33,127.38V58.21"/><path class="cls-2" d="M348.67,72.92h3.39v9.69h-3.39Z"/><path class="cls-2" d="M345.28,80.19h10.17v22.28H345.28Z"/><path class="cls-3" d="M350.12,102.47H344.8v-18l5.32,2.2Z"/><path class="cls-4" d="M338.5,103v-1h23.25v1"/><path class="cls-5" d="M350.37,81.94a20.82,20.82,0,0,1-15.93-7.43,22,22,0,0,1-5.14-14.32V52.12a2.45,2.45,0,0,1,2.44-2.45h37.49a2.21,2.21,0,0,1,2.21,2.22h0v8.66a21.48,21.48,0,0,1-4.87,13.8,21,21,0,0,1-15.77,7.59ZM332.2,53.07v7.52a19,19,0,0,0,4.18,12,17.72,17.72,0,0,0,14.11,6.62,18.08,18.08,0,0,0,17.56-18V53.07Z"/><path class="cls-2" d="M364.87,54.52H335.38a.76.76,0,0,1-.76-.75h0v-4.3a.75.75,0,0,1,.76-.75h29.49a.74.74,0,0,1,.75.75v4.3a.74.74,0,0,1-.75.76Z"/><path class="cls-5" d="M336.56,60.84v-20A13.77,13.77,0,0,1,349.77,27a13.57,13.57,0,0,1,13.91,13.2c0,.12,0,.24,0,.36V61.14a13.57,13.57,0,0,1-13.57,13.57h-.35A13.77,13.77,0,0,1,336.56,60.84Z"/><path class="cls-5" d="M350.12,27V74.7a13.57,13.57,0,0,0,13.57-13.56V40.57A13.56,13.56,0,0,0,350.13,27Z"/><path class="cls-6" d="M116.15,28.47h47.07a4.51,4.51,0,0,1,4.5,4.5V59.89A4.1,4.1,0,0,1,163.63,64H137.17L127.4,74.56,127.27,64H116.64a4.29,4.29,0,0,1-4.29-4.29h0V32.27A3.8,3.8,0,0,1,116.15,28.47Z"/><circle class="cls-7" cx="127.74" cy="46.32" r="3.47"/><circle class="cls-7" cx="139.86" cy="46.32" r="3.47"/><circle class="cls-7" cx="151.99" cy="46.32" r="3.47"/><path class="cls-2" d="M174.21,93.12l2.07,2c1.36,1.36,3.35,1.55,4.44.44l24.19-24c1.09-1.11.87-3.11-.5-4.46l-2.06-2c-1.37-1.36-3.36-1.55-4.45-.44l-24.19,24c-1.09,1.11-.87,3.11.5,4.46Z"/><path class="cls-2" d="M204.71,67.47a3.1,3.1,0,0,1,.2,4.13l-24.18,24a3.08,3.08,0,0,1-4.12-.14"/><path class="cls-2" d="M191.62,71l6.28-6.39h0l7,6.94v0l-6.33,6.33Z"/><path class="cls-2" d="M197.91,64.64l4.85,4.81-6.35,6.38L191.51,71l6.39-6.35Z"/><path class="cls-2" d="M196.7,50.54a22.18,22.18,0,1,0,0-.13Zm2.72,0a19.39,19.39,0,1,1,19.51,19.25,19.38,19.38,0,0,1-19.51-19.25Z"/><path class="cls-1" d="M59.26,112.65v14.73H350.12V102.47"/><circle class="cls-5" cx="59.02" cy="84.22" r="10.15"/><path class="cls-5" d="M58.76,53.76A30.2,30.2,0,1,0,89,84,30.2,30.2,0,0,0,58.76,53.76ZM59,97.66C49,97.66,39.36,93.18,32,85l-.74-.81.74-.81C39.36,75.27,49,70.78,59,70.78s19.66,4.49,27.06,12.63l.73.81-.73.81C78.68,93.18,69.08,97.66,59,97.66Z"/><path class="cls-8" d="M303.54,62.31H265a3.71,3.71,0,0,0-3.7,3.71h0V92.33a3.36,3.36,0,0,0,3.36,3.36h21.56l8.07,8.75.11-8.75h8.78a3.53,3.53,0,0,0,3.53-3.53h0V65.44A3.13,3.13,0,0,0,303.54,62.31Z"/><path class="cls-7" d="M280.23,82.88l-2.17,6.6h-3l7.25-21.35h3.33L293,89.48h-3.05l-2.25-6.6Zm6.95-2.33-2.1-6.17c-.47-1.4-.79-2.68-1.11-3.92h-.06c-.32,1.28-.67,2.58-1.09,3.89l-2.1,6.2Z"/><path class="cls-1" d="M284,127.38V95.69"/></svg>