<?xml version="1.0" encoding="UTF-8" standalone="no"?>
<svg
   xmlns:dc="http://purl.org/dc/elements/1.1/"
   xmlns:cc="http://creativecommons.org/ns#"
   xmlns:rdf="http://www.w3.org/1999/02/22-rdf-syntax-ns#"
   xmlns:svg="http://www.w3.org/2000/svg"
   xmlns="http://www.w3.org/2000/svg"
   xmlns:sodipodi="http://sodipodi.sourceforge.net/DTD/sodipodi-0.dtd"
   xmlns:inkscape="http://www.inkscape.org/namespaces/inkscape"
   id="Layer_1"
   data-name="Layer 1"
   viewBox="0 0 400 140"
   version="1.1"
   sodipodi:docname="swimlane-net-spark.svg"
   inkscape:version="0.92.4 (5da689c313, 2019-01-14)">
  <title
     id="title60">.Net for Apache Spark image</title>
  <metadata
     id="metadata4294">
    <rdf:RDF>
      <cc:Work
         rdf:about="">
        <dc:format>image/svg+xml</dc:format>
        <dc:type
           rdf:resource="http://purl.org/dc/dcmitype/StillImage" />
        <dc:title>.Net for Apache Spark image</dc:title>
      </cc:Work>
    </rdf:RDF>
  </metadata>
  <sodipodi:namedview
     pagecolor="#ffffff"
     bordercolor="#666666"
     borderopacity="1"
     objecttolerance="10"
     gridtolerance="10"
     guidetolerance="10"
     inkscape:pageopacity="0"
     inkscape:pageshadow="2"
     inkscape:window-width="1920"
     inkscape:window-height="1137"
     id="namedview4292"
     showgrid="false"
     inkscape:zoom="2.84"
     inkscape:cx="222.61156"
     inkscape:cy="22.257878"
     inkscape:window-x="-8"
     inkscape:window-y="-8"
     inkscape:window-maximized="1"
     inkscape:current-layer="Layer_1" />
  <defs
     id="defs4239">
    <style
       id="style4237">.cls-1{fill:none;stroke:#5d5f5e;stroke-miterlimit:10;stroke-dasharray:2 2;}.cls-2{fill:#505050;}.cls-3{fill:#737373;}.cls-4{fill:#323232;}.cls-5{fill:#3498dc;}.cls-6{fill:#a4ca39;}.cls-7{fill:#fff;}.cls-8{fill:#721481;}</style>
  </defs>
  <path
     class="cls-1"
     d="M 154.59761,128.08423 V 58.914225"
     id="path4243"
     inkscape:connector-curvature="0"
     style="fill:none;stroke:#5d5f5e;stroke-miterlimit:10;stroke-dasharray:2, 2" />
  <circle
     class="cls-7"
     cx="139.0076"
     cy="45.615776"
     r="3.47"
     id="circle4263"
     style="fill:#ffffff" />
  <circle
     class="cls-7"
     cx="151.12761"
     cy="45.615776"
     r="3.47"
     id="circle4265"
     style="fill:#ffffff" />
  <circle
     class="cls-7"
     cx="163.25761"
     cy="45.615776"
     r="3.47"
     id="circle4267"
     style="fill:#ffffff" />
  <path
     class="cls-1"
     d="M59.26,112.65v14.73H350.12V102.47"
     id="path4279" />
  <path
     class="cls-1"
     d="M 244.21127,127.38 V 95.69"
     id="path4289"
     inkscape:connector-curvature="0"
     style="fill:none;stroke:#5d5f5e;stroke-miterlimit:10;stroke-dasharray:2, 2" />
  <circle
     class="cls-5"
     cx="154.22536"
     cy="39.29578"
     r="23"
     id="circle5795"
     style="opacity:1;vector-effect:none;fill:#7e1b96;fill-opacity:1;stroke-width:1;stroke-linecap:butt;stroke-linejoin:miter;stroke-miterlimit:4;stroke-dasharray:none;stroke-dashoffset:0;stroke-opacity:1" />
  <path
     inkscape:connector-curvature="0"
     class="cls-6"
     d="m 138.50536,22.955775 a 22.67,22.67 0 1 0 32.06,32.06 z"
     id="path5797"
     style="opacity:1;vector-effect:none;fill:#7e1b96;fill-opacity:1;stroke-width:1;stroke-linecap:butt;stroke-linejoin:miter;stroke-miterlimit:4;stroke-dasharray:none;stroke-dashoffset:0;stroke-opacity:1" />
  <path
     inkscape:connector-curvature="0"
     class="cls-6"
     d="m 138.50536,22.955775 a 22.67,22.67 0 1 0 32.06,32.06 z"
     id="path5797-3"
     style="opacity:1;vector-effect:none;fill:#721481;fill-opacity:1;stroke-width:1;stroke-linecap:butt;stroke-linejoin:miter;stroke-miterlimit:4;stroke-dasharray:none;stroke-dashoffset:0;stroke-opacity:1" />
  <path
     inkscape:connector-curvature="0"
     class="cls-2"
     d="m 143.64536,30.845775 v 7.18 h 7 v 1.61 h -7 v 8.66 h -1.77 v -19.07 h 9.29 v 1.62 z"
     id="path5799"
     style="opacity:1;vector-effect:none;fill:#ffffff;fill-opacity:1;stroke-width:1;stroke-linecap:butt;stroke-linejoin:miter;stroke-miterlimit:4;stroke-dasharray:none;stroke-dashoffset:0;stroke-opacity:1" />
  <path
     inkscape:connector-curvature="0"
     class="cls-2"
     d="m 167.49536,35.845775 h -3.53 l -0.93,4.29 h 3.76 l -0.29,1.22 h -3.71 l -1.16,5.29 h -1.41 l 1.14,-5.29 h -3.44 l -1.13,5.29 h -1.37 l 1.13,-5.29 h -3.61 l 0.25,-1.22 h 3.63 l 0.9,-4.29 h -3.79 l 0.27,-1.22 h 3.77 l 1.14,-5.4 h 1.37 l -1.14,5.4 h 3.46 l 1.16,-5.4 h 1.36 l -1.1,5.39 h 3.57 z m -8.35,0 -0.92,4.29 h 3.47 l 0.93,-4.29 z"
     id="path5801"
     style="opacity:1;vector-effect:none;fill:#ffffff;fill-opacity:1;stroke-width:1;stroke-linecap:butt;stroke-linejoin:miter;stroke-miterlimit:4;stroke-dasharray:none;stroke-dashoffset:0;stroke-opacity:1" />
  <circle
     class="cls-7"
     cx="245.07042"
     cy="73.098595"
     r="23"
     id="circle5803"
     style="fill:#0b9e0b;font-variant-east_asian:normal;opacity:1;vector-effect:none;fill-opacity:1;stroke-width:1;stroke-linecap:butt;stroke-linejoin:miter;stroke-miterlimit:4;stroke-dasharray:none;stroke-dashoffset:0;stroke-opacity:1" />
  <path
     inkscape:connector-curvature="0"
     class="cls-8"
     d="m 229.35043,56.75859 a 22.67,22.67 0 1 0 32.06,32.06 z"
     id="path5805"
     style="fill:#05930c;font-variant-east_asian:normal;opacity:1;vector-effect:none;fill-opacity:1;stroke-width:1;stroke-linecap:butt;stroke-linejoin:miter;stroke-miterlimit:4;stroke-dasharray:none;stroke-dashoffset:0;stroke-opacity:1" />
  <path
     inkscape:connector-curvature="0"
     class="cls-2"
     d="m 243.51043,81.37859 a 11.71,11.71 0 0 1 -5,1 9.17,9.17 0 0 1 -3.67,-0.71 8.17,8.17 0 0 1 -2.81,-2 8.81,8.81 0 0 1 -1.79,-3 11.07,11.07 0 0 1 -0.63,-3.8 11.84,11.84 0 0 1 0.67,-4 9.58,9.58 0 0 1 1.92,-3.24 8.87,8.87 0 0 1 3,-2.16 9.74,9.74 0 0 1 4,-0.78 11.92,11.92 0 0 1 4.35,0.74 v 1.89 a 9.64,9.64 0 0 0 -4.37,-1 8,8 0 0 0 -3.28,0.64 6.81,6.81 0 0 0 -2.42,1.77 7.86,7.86 0 0 0 -1.5,2.68 10.6,10.6 0 0 0 -0.52,3.38 10.13,10.13 0 0 0 0.47,3.1 7.47,7.47 0 0 0 1.38,2.54 6.53,6.53 0 0 0 2.27,1.73 7.32,7.32 0 0 0 3.15,0.64 9.82,9.82 0 0 0 4.84,-1.16 z"
     id="path5807"
     style="fill:#ffffff;font-variant-east_asian:normal;opacity:1;vector-effect:none;fill-opacity:1;stroke-width:1;stroke-linecap:butt;stroke-linejoin:miter;stroke-miterlimit:4;stroke-dasharray:none;stroke-dashoffset:0;stroke-opacity:1" />
  <path
     inkscape:connector-curvature="0"
     class="cls-2"
     d="m 260.23043,69.64859 h -3.53 l -0.93,4.29 h 3.76 l -0.29,1.22 h -3.71 l -1.16,5.29 h -1.37 l 1.14,-5.29 h -3.44 l -1.13,5.29 h -1.37 l 1.13,-5.29 h -3.61 l 0.25,-1.22 h 3.63 l 0.9,-4.29 h -3.79 l 0.27,-1.22 h 3.77 l 1.14,-5.4 h 1.37 l -1.14,5.4 h 3.46 l 1.16,-5.4 h 1.33 l -1.16,5.4 h 3.57 z m -8.35,0 -0.94,4.29 h 3.47 l 0.93,-4.29 z"
     id="path5809"
     style="fill:#ffffff;font-variant-east_asian:normal;opacity:1;vector-effect:none;fill-opacity:1;stroke-width:1;stroke-linecap:butt;stroke-linejoin:miter;stroke-miterlimit:4;stroke-dasharray:none;stroke-dashoffset:0;stroke-opacity:1" />
  <polygon
     transform="translate(32.447888,-1.8869021)"
     class="cls-1"
     points="295.3,26.14 339.1,26.14 361,64.07 339.1,102 295.3,102 273.4,64.07 "
     id="polygon5777"
     style="opacity:1;vector-effect:none;fill:#3498dc;fill-opacity:1;stroke:#5d5f5e;stroke-width:1.62646949;stroke-linecap:butt;stroke-linejoin:miter;stroke-miterlimit:4;stroke-dasharray:none;stroke-dashoffset:0;stroke-opacity:1" />
  <g
     aria-label="Apache Spark"
     style="font-style:normal;font-variant:normal;font-weight:300;font-stretch:normal;font-size:16px;line-height:1.25;font-family:'Segoe UI';-inkscape-font-specification:'Segoe UI Light';text-align:center;letter-spacing:0px;word-spacing:0px;text-anchor:middle;fill:#ffffff;fill-opacity:1;stroke:none"
     id="text6049">
    <path
       d="m 332.76294,57.253521 -1.28125,-3.484375 h -4.85938 l -1.28125,3.484375 h -0.85156 l 4.22656,-11.203125 h 0.73438 l 4.17969,11.203125 z m -3.4375,-9.375 q -0.0859,-0.234375 -0.14063,-0.460938 -0.0547,-0.195312 -0.11718,-0.390625 h -0.0312 q -0.13282,0.515625 -0.25782,0.835938 l -1.88281,5.195312 h 4.32031 z"
       style=""
       id="path35" />
    <path
       d="m 336.12231,55.831646 h -0.0312 v 5.101562 h -0.71875 V 49.253521 h 0.71875 v 1.648437 h 0.0312 q 0.42969,-0.882812 1.22657,-1.359375 0.80468,-0.484375 1.76562,-0.484375 1.52344,0 2.375,1.054688 0.85938,1.046875 0.85938,2.851562 0,2.007813 -0.98438,3.25 -0.97656,1.234375 -2.58594,1.234375 -1.79687,0 -2.65625,-1.617187 z m -0.0312,-2.976563 v 1.007813 q 0,1.203125 0.75782,2.070312 0.75781,0.859375 1.99218,0.859375 1.22657,0 1.99219,-1.046875 0.76563,-1.054687 0.76563,-2.765625 0,-1.5 -0.70313,-2.382812 -0.70312,-0.882813 -1.875,-0.882813 -1.39844,0 -2.16406,0.9375 -0.76563,0.9375 -0.76563,2.203125 z"
       style=""
       id="path37" />
    <path
       d="m 349.12231,57.253521 v -1.601563 h -0.0312 q -0.38281,0.820313 -1.11718,1.3125 -0.72657,0.484375 -1.61719,0.484375 -1.14063,0 -1.80469,-0.640625 -0.66406,-0.640625 -0.66406,-1.617187 0,-2.09375 2.77344,-2.53125 l 2.46093,-0.367188 q 0,-2.578125 -1.9375,-2.578125 -1.32031,0 -2.57031,1.0625 v -0.867187 q 0.44531,-0.351563 1.20313,-0.601563 0.76562,-0.25 1.4375,-0.25 1.23437,0 1.90625,0.765625 0.67968,0.765625 0.67968,2.226563 v 5.203125 z m -2.20312,-3.984375 q -1.25781,0.179687 -1.76563,0.585937 -0.50781,0.398438 -0.50781,1.304688 0,0.710937 0.46875,1.171875 0.47656,0.460937 1.32031,0.460937 1.15625,0 1.92188,-0.851562 0.76562,-0.859375 0.76562,-2.210938 v -0.78125 z"
       style=""
       id="path39" />
    <path
       d="m 357.427,56.901958 q -0.89062,0.546875 -2.125,0.546875 -1.63281,0 -2.63281,-1.117187 -1,-1.125 -1,-2.9375 0,-1.90625 1.125,-3.117188 1.125,-1.21875 2.89062,-1.21875 0.91407,0 1.77344,0.375 v 0.8125 q -0.85937,-0.53125 -1.88281,-0.53125 -1.40625,0 -2.28125,1.015625 -0.875,1.007813 -0.875,2.617188 0,1.554687 0.79687,2.5 0.80469,0.945312 2.11719,0.945312 1.20313,0 2.09375,-0.640625 z"
       style=""
       id="path41" />
    <path
       d="m 364.77856,57.253521 v -4.796875 q 0,-1.421875 -0.51562,-2.078125 -0.51563,-0.664063 -1.60938,-0.664063 -1.03125,0 -1.8125,0.804688 -0.78125,0.804687 -0.78125,2.304687 v 4.429688 h -0.71875 v -11.84375 h 0.71875 v 5.28125 h 0.0312 q 0.94532,-1.632813 2.75,-1.632813 1.29688,0 1.97657,0.835938 0.67968,0.835937 0.67968,2.398437 v 4.960938 z"
       style=""
       id="path43" />
    <path
       d="m 368.07544,53.284771 q 0,1.648437 0.75781,2.578125 0.76563,0.929687 2.09375,0.929687 1.34375,0 2.625,-0.992187 v 0.765625 q -1.24219,0.882812 -2.77344,0.882812 -1.54687,0 -2.5,-1.109375 -0.95312,-1.109375 -0.95312,-3.132812 0,-1.75 0.99219,-2.945313 1,-1.203125 2.59375,-1.203125 1.49218,0 2.28906,1.046875 0.79687,1.046875 0.79687,2.859375 v 0.320313 z m 5.17187,-0.65625 q -0.0469,-1.382813 -0.66406,-2.148438 -0.61719,-0.765625 -1.70312,-0.765625 -1.125,0 -1.86719,0.757813 -0.73438,0.75 -0.90625,2.15625 z"
       style=""
       id="path45" />
    <path
       d="m 331.84888,76.855083 v -0.882812 q 1.20312,0.765625 2.4375,0.765625 1.3125,0 1.99218,-0.539063 0.67969,-0.546875 0.67969,-1.523437 0,-0.859375 -0.46094,-1.367188 -0.45312,-0.515625 -1.97656,-1.398437 -1.70312,-0.992188 -2.15625,-1.65625 -0.45312,-0.671875 -0.45312,-1.546875 0,-1.1875 0.92187,-2.015625 0.92188,-0.828125 2.46094,-0.828125 1,0 2,0.335937 v 0.8125 q -0.98438,-0.445312 -2.10156,-0.445312 -1.14063,0 -1.8125,0.578125 -0.66407,0.578125 -0.66407,1.46875 0,0.859375 0.45313,1.367187 0.46094,0.507813 1.97656,1.382813 1.57031,0.890625 2.08594,1.585937 0.52344,0.6875 0.52344,1.585938 0,1.289062 -0.89844,2.101562 -0.89063,0.8125 -2.52344,0.8125 -0.57812,0 -1.33594,-0.179687 -0.75,-0.179688 -1.14843,-0.414063 z"
       style=""
       id="path47" />
    <path
       d="m 340.76294,75.831646 h -0.0312 v 5.101562 h -0.71875 V 69.253521 h 0.71875 v 1.648437 h 0.0312 q 0.42969,-0.882812 1.22656,-1.359375 0.80469,-0.484375 1.76563,-0.484375 1.52343,0 2.375,1.054688 0.85937,1.046875 0.85937,2.851562 0,2.007813 -0.98437,3.25 -0.97657,1.234375 -2.58594,1.234375 -1.79688,0 -2.65625,-1.617187 z m -0.0312,-2.976563 v 1.007813 q 0,1.203125 0.75781,2.070312 0.75781,0.859375 1.99219,0.859375 1.22656,0 1.99219,-1.046875 0.76562,-1.054687 0.76562,-2.765625 0,-1.5 -0.70312,-2.382812 -0.70313,-0.882813 -1.875,-0.882813 -1.39844,0 -2.16407,0.9375 -0.76562,0.9375 -0.76562,2.203125 z"
       style=""
       id="path49" />
    <path
       d="m 353.76294,77.253521 v -1.601563 h -0.0312 q -0.38281,0.820313 -1.11719,1.3125 -0.72656,0.484375 -1.61719,0.484375 -1.14062,0 -1.80468,-0.640625 -0.66407,-0.640625 -0.66407,-1.617187 0,-2.09375 2.77344,-2.53125 l 2.46094,-0.367188 q 0,-2.578125 -1.9375,-2.578125 -1.32031,0 -2.57031,1.0625 v -0.867187 q 0.44531,-0.351563 1.20312,-0.601563 0.76563,-0.25 1.4375,-0.25 1.23438,0 1.90625,0.765625 0.67969,0.765625 0.67969,2.226563 v 5.203125 z m -2.20313,-3.984375 q -1.25781,0.179687 -1.76562,0.585937 -0.50781,0.398438 -0.50781,1.304688 0,0.710937 0.46875,1.171875 0.47656,0.460937 1.32031,0.460937 1.15625,0 1.92187,-0.851562 0.76563,-0.859375 0.76563,-2.210938 v -0.78125 z"
       style=""
       id="path51" />
    <path
       d="m 360.66138,70.003521 q -0.35938,-0.257813 -0.84375,-0.257813 -0.94532,0 -1.58594,0.976563 -0.64063,0.976562 -0.64063,2.773437 v 3.757813 h -0.70312 v -8 h 0.70312 v 1.773437 h 0.0312 q 0.27344,-0.914062 0.86719,-1.421875 0.59375,-0.507812 1.375,-0.507812 0.44531,0 0.79688,0.140625 z"
       style=""
       id="path53" />
    <path
       d="m 366.74731,77.253521 -3.82812,-3.953125 h -0.0312 v 3.953125 h -0.71875 v -11.84375 h 0.71875 v 7.632812 h 0.0312 l 3.63281,-3.789062 h 0.92969 l -3.79688,3.875 4.10157,4.125 z"
       style=""
       id="path55" />
  </g>
  <circle
     class="cls-1"
     cx="61.462971"
     cy="78.184921"
     r="32"
     id="circle8"
     style="fill:#5c2d91;stroke:none;stroke-miterlimit:4;stroke-dasharray:none;font-variant-east_asian:normal;opacity:1;vector-effect:none;fill-opacity:1;stroke-width:1;stroke-linecap:butt;stroke-linejoin:miter;stroke-dashoffset:0;stroke-opacity:1" />
  <path
     inkscape:connector-curvature="0"
     class="cls-2"
     d="m 39.28297,55.184916 a 32,32 0 1 0 45.18,45.180004 z"
     id="path10"
     style="fill:#ffffff;font-variant-east_asian:normal;opacity:0.1;vector-effect:none;fill-opacity:1;stroke-width:1;stroke-linecap:butt;stroke-linejoin:miter;stroke-miterlimit:4;stroke-dasharray:none;stroke-dashoffset:0;stroke-opacity:1" />
  <path
     inkscape:connector-curvature="0"
     class="cls-3"
     d="m 36.86297,87.434916 a 1.35,1.35 0 0 1 -1,-0.42 1.38,1.38 0 0 1 -0.41,-1 1.4,1.4 0 0 1 0.41,-1 1.34,1.34 0 0 1 1,-0.43 1.37,1.37 0 0 1 1,0.43 1.39,1.39 0 0 1 0.42,1 1.37,1.37 0 0 1 -0.42,1 1.38,1.38 0 0 1 -1,0.42 z"
     id="path12"
     style="fill:#ffffff" />
  <path
     inkscape:connector-curvature="0"
     class="cls-3"
     d="m 56.73297,87.184916 h -2.62 l -9.37,-14.54 a 6,6 0 0 1 -0.58,-1.14 h -0.08 a 18.72,18.72 0 0 1 0.1,2.5 v 13.18 h -2.13 v -18.23 h 2.77 l 9.12,14.28 q 0.57,0.89 0.74,1.22 h 0.05 a 19.28,19.28 0 0 1 -0.13,-2.68 v -12.82 h 2.13 z"
     id="path14"
     style="fill:#ffffff" />
  <path
     inkscape:connector-curvature="0"
     class="cls-3"
     d="m 71.15297,87.184916 h -9.69 v -18.23 h 9.24 v 1.93 h -7.06 v 6.06 h 6.58 v 1.92 h -6.58 v 6.32 h 7.52 z"
     id="path16"
     style="fill:#ffffff" />
  <path
     inkscape:connector-curvature="0"
     class="cls-3"
     d="m 85.46297,70.884916 h -5.29 v 16.3 h -2.14 v -16.3 h -5.24 v -1.93 h 12.67 z"
     id="path18"
     style="fill:#ffffff" />
</svg>
