<?xml version="1.0" encoding="UTF-8" standalone="no"?>
<svg
   xmlns:dc="http://purl.org/dc/elements/1.1/"
   xmlns:cc="http://creativecommons.org/ns#"
   xmlns:rdf="http://www.w3.org/1999/02/22-rdf-syntax-ns#"
   xmlns:svg="http://www.w3.org/2000/svg"
   xmlns="http://www.w3.org/2000/svg"
   xmlns:sodipodi="http://sodipodi.sourceforge.net/DTD/sodipodi-0.dtd"
   xmlns:inkscape="http://www.inkscape.org/namespaces/inkscape"
   id="Layer_1"
   data-name="Layer 1"
   viewBox="0 0 400 140"
   version="1.1"
   sodipodi:docname="swimlane-net-spark.svg"
   inkscape:version="0.92.4 (5da689c313, 2019-01-14)">
  <metadata
     id="metadata4294">
    <rdf:RDF>
      <cc:Work
         rdf:about="">
        <dc:format>image/svg+xml</dc:format>
        <dc:type
           rdf:resource="http://purl.org/dc/dcmitype/StillImage" />
        <dc:title></dc:title>
      </cc:Work>
    </rdf:RDF>
  </metadata>
  <sodipodi:namedview
     pagecolor="#ffffff"
     bordercolor="#666666"
     borderopacity="1"
     objecttolerance="10"
     gridtolerance="10"
     guidetolerance="10"
     inkscape:pageopacity="0"
     inkscape:pageshadow="2"
     inkscape:window-width="1920"
     inkscape:window-height="1137"
     id="namedview4292"
     showgrid="false"
     inkscape:zoom="2.84"
     inkscape:cx="222.61156"
     inkscape:cy="22.257878"
     inkscape:window-x="1912"
     inkscape:window-y="-8"
     inkscape:window-maximized="1"
     inkscape:current-layer="Layer_1" />
  <defs
     id="defs4239">
    <style
       id="style4237">.cls-1{fill:none;stroke:#5d5f5e;stroke-miterlimit:10;stroke-dasharray:2 2;}.cls-2{fill:#505050;}.cls-3{fill:#737373;}.cls-4{fill:#323232;}.cls-5{fill:#3498dc;}.cls-6{fill:#a4ca39;}.cls-7{fill:#fff;}.cls-8{fill:#721481;}</style>
  </defs>
  <path
     class="cls-1"
     d="M 154.59761,128.08423 V 58.914225"
     id="path4243"
     inkscape:connector-curvature="0"
     style="fill:none;stroke:#5d5f5e;stroke-miterlimit:10;stroke-dasharray:2, 2" />
  <circle
     class="cls-7"
     cx="139.0076"
     cy="45.615776"
     r="3.47"
     id="circle4263"
     style="fill:#ffffff" />
  <circle
     class="cls-7"
     cx="151.12761"
     cy="45.615776"
     r="3.47"
     id="circle4265"
     style="fill:#ffffff" />
  <circle
     class="cls-7"
     cx="163.25761"
     cy="45.615776"
     r="3.47"
     id="circle4267"
     style="fill:#ffffff" />
  <path
     class="cls-1"
     d="M59.26,112.65v14.73H350.12V102.47"
     id="path4279" />
  <path
     class="cls-7"
     d="M280.23,82.88l-2.17,6.6h-3l7.25-21.35h3.33L293,89.48h-3.05l-2.25-6.6Zm6.95-2.33-2.1-6.17c-.47-1.4-.79-2.68-1.11-3.92h-.06c-.32,1.28-.67,2.58-1.09,3.89l-2.1,6.2Z"
     id="path4287" />
  <path
     class="cls-1"
     d="M 244.21127,127.38 V 95.69"
     id="path4289"
     inkscape:connector-curvature="0"
     style="fill:none;stroke:#5d5f5e;stroke-miterlimit:10;stroke-dasharray:2, 2" />
  <circle
     class="cls-5"
     cx="154.22536"
     cy="39.29578"
     r="23"
     id="circle5795"
     style="opacity:1;vector-effect:none;fill:#7e1b96;fill-opacity:1;stroke-width:1;stroke-linecap:butt;stroke-linejoin:miter;stroke-miterlimit:4;stroke-dasharray:none;stroke-dashoffset:0;stroke-opacity:1" />
  <path
     inkscape:connector-curvature="0"
     class="cls-6"
     d="m 138.50536,22.955775 a 22.67,22.67 0 1 0 32.06,32.06 z"
     id="path5797"
     style="opacity:1;vector-effect:none;fill:#7e1b96;fill-opacity:1;stroke-width:1;stroke-linecap:butt;stroke-linejoin:miter;stroke-miterlimit:4;stroke-dasharray:none;stroke-dashoffset:0;stroke-opacity:1" />
  <path
     inkscape:connector-curvature="0"
     class="cls-6"
     d="m 138.50536,22.955775 a 22.67,22.67 0 1 0 32.06,32.06 z"
     id="path5797-3"
     style="opacity:1;vector-effect:none;fill:#721481;fill-opacity:1;stroke-width:1;stroke-linecap:butt;stroke-linejoin:miter;stroke-miterlimit:4;stroke-dasharray:none;stroke-dashoffset:0;stroke-opacity:1" />
  <path
     inkscape:connector-curvature="0"
     class="cls-2"
     d="m 143.64536,30.845775 v 7.18 h 7 v 1.61 h -7 v 8.66 h -1.77 v -19.07 h 9.29 v 1.62 z"
     id="path5799"
     style="opacity:1;vector-effect:none;fill:#ffffff;fill-opacity:1;stroke-width:1;stroke-linecap:butt;stroke-linejoin:miter;stroke-miterlimit:4;stroke-dasharray:none;stroke-dashoffset:0;stroke-opacity:1" />
  <path
     inkscape:connector-curvature="0"
     class="cls-2"
     d="m 167.49536,35.845775 h -3.53 l -0.93,4.29 h 3.76 l -0.29,1.22 h -3.71 l -1.16,5.29 h -1.41 l 1.14,-5.29 h -3.44 l -1.13,5.29 h -1.37 l 1.13,-5.29 h -3.61 l 0.25,-1.22 h 3.63 l 0.9,-4.29 h -3.79 l 0.27,-1.22 h 3.77 l 1.14,-5.4 h 1.37 l -1.14,5.4 h 3.46 l 1.16,-5.4 h 1.36 l -1.1,5.39 h 3.57 z m -8.35,0 -0.92,4.29 h 3.47 l 0.93,-4.29 z"
     id="path5801"
     style="opacity:1;vector-effect:none;fill:#ffffff;fill-opacity:1;stroke-width:1;stroke-linecap:butt;stroke-linejoin:miter;stroke-miterlimit:4;stroke-dasharray:none;stroke-dashoffset:0;stroke-opacity:1" />
  <circle
     class="cls-7"
     cx="245.07042"
     cy="73.098595"
     r="23"
     id="circle5803"
     style="fill:#0b9e0b;font-variant-east_asian:normal;opacity:1;vector-effect:none;fill-opacity:1;stroke-width:1;stroke-linecap:butt;stroke-linejoin:miter;stroke-miterlimit:4;stroke-dasharray:none;stroke-dashoffset:0;stroke-opacity:1" />
  <path
     inkscape:connector-curvature="0"
     class="cls-8"
     d="m 229.35043,56.75859 a 22.67,22.67 0 1 0 32.06,32.06 z"
     id="path5805"
     style="fill:#05930c;font-variant-east_asian:normal;opacity:1;vector-effect:none;fill-opacity:1;stroke-width:1;stroke-linecap:butt;stroke-linejoin:miter;stroke-miterlimit:4;stroke-dasharray:none;stroke-dashoffset:0;stroke-opacity:1" />
  <path
     inkscape:connector-curvature="0"
     class="cls-2"
     d="m 243.51043,81.37859 a 11.71,11.71 0 0 1 -5,1 9.17,9.17 0 0 1 -3.67,-0.71 8.17,8.17 0 0 1 -2.81,-2 8.81,8.81 0 0 1 -1.79,-3 11.07,11.07 0 0 1 -0.63,-3.8 11.84,11.84 0 0 1 0.67,-4 9.58,9.58 0 0 1 1.92,-3.24 8.87,8.87 0 0 1 3,-2.16 9.74,9.74 0 0 1 4,-0.78 11.92,11.92 0 0 1 4.35,0.74 v 1.89 a 9.64,9.64 0 0 0 -4.37,-1 8,8 0 0 0 -3.28,0.64 6.81,6.81 0 0 0 -2.42,1.77 7.86,7.86 0 0 0 -1.5,2.68 10.6,10.6 0 0 0 -0.52,3.38 10.13,10.13 0 0 0 0.47,3.1 7.47,7.47 0 0 0 1.38,2.54 6.53,6.53 0 0 0 2.27,1.73 7.32,7.32 0 0 0 3.15,0.64 9.82,9.82 0 0 0 4.84,-1.16 z"
     id="path5807"
     style="fill:#ffffff;font-variant-east_asian:normal;opacity:1;vector-effect:none;fill-opacity:1;stroke-width:1;stroke-linecap:butt;stroke-linejoin:miter;stroke-miterlimit:4;stroke-dasharray:none;stroke-dashoffset:0;stroke-opacity:1" />
  <path
     inkscape:connector-curvature="0"
     class="cls-2"
     d="m 260.23043,69.64859 h -3.53 l -0.93,4.29 h 3.76 l -0.29,1.22 h -3.71 l -1.16,5.29 h -1.37 l 1.14,-5.29 h -3.44 l -1.13,5.29 h -1.37 l 1.13,-5.29 h -3.61 l 0.25,-1.22 h 3.63 l 0.9,-4.29 h -3.79 l 0.27,-1.22 h 3.77 l 1.14,-5.4 h 1.37 l -1.14,5.4 h 3.46 l 1.16,-5.4 h 1.33 l -1.16,5.4 h 3.57 z m -8.35,0 -0.94,4.29 h 3.47 l 0.93,-4.29 z"
     id="path5809"
     style="fill:#ffffff;font-variant-east_asian:normal;opacity:1;vector-effect:none;fill-opacity:1;stroke-width:1;stroke-linecap:butt;stroke-linejoin:miter;stroke-miterlimit:4;stroke-dasharray:none;stroke-dashoffset:0;stroke-opacity:1" />
  <polygon
     transform="translate(32.447888,-1.8869021)"
     class="cls-1"
     points="295.3,26.14 339.1,26.14 361,64.07 339.1,102 295.3,102 273.4,64.07 "
     id="polygon5777"
     style="opacity:1;vector-effect:none;fill:#3498dc;fill-opacity:1;stroke:#5d5f5e;stroke-width:1.62646949;stroke-linecap:butt;stroke-linejoin:miter;stroke-miterlimit:4;stroke-dasharray:none;stroke-dashoffset:0;stroke-opacity:1" />
  <text
     xml:space="preserve"
     style="font-style:normal;font-variant:normal;font-weight:300;font-stretch:normal;font-size:16px;line-height:1.25;font-family:'Segoe UI';-inkscape-font-specification:'Segoe UI Light';text-align:center;letter-spacing:0px;word-spacing:0px;text-anchor:middle;fill:#ffffff;fill-opacity:1;stroke:none"
     x="349.37231"
     y="57.253521"
     id="text6049"><tspan
       sodipodi:role="line"
       id="tspan6047"
       x="351.55981"
       y="57.253521">Apache </tspan><tspan
       sodipodi:role="line"
       x="349.37231"
       y="77.253525"
       id="tspan6051">Spark</tspan></text>
  <circle
     class="cls-1"
     cx="61.462971"
     cy="78.184921"
     r="32"
     id="circle8"
     style="fill:#5c2d91;stroke:none;stroke-miterlimit:4;stroke-dasharray:none;font-variant-east_asian:normal;opacity:1;vector-effect:none;fill-opacity:1;stroke-width:1;stroke-linecap:butt;stroke-linejoin:miter;stroke-dashoffset:0;stroke-opacity:1" />
  <path
     inkscape:connector-curvature="0"
     class="cls-2"
     d="m 39.28297,55.184916 a 32,32 0 1 0 45.18,45.180004 z"
     id="path10"
     style="fill:#ffffff;font-variant-east_asian:normal;opacity:0.1;vector-effect:none;fill-opacity:1;stroke-width:1;stroke-linecap:butt;stroke-linejoin:miter;stroke-miterlimit:4;stroke-dasharray:none;stroke-dashoffset:0;stroke-opacity:1" />
  <path
     inkscape:connector-curvature="0"
     class="cls-3"
     d="m 36.86297,87.434916 a 1.35,1.35 0 0 1 -1,-0.42 1.38,1.38 0 0 1 -0.41,-1 1.4,1.4 0 0 1 0.41,-1 1.34,1.34 0 0 1 1,-0.43 1.37,1.37 0 0 1 1,0.43 1.39,1.39 0 0 1 0.42,1 1.37,1.37 0 0 1 -0.42,1 1.38,1.38 0 0 1 -1,0.42 z"
     id="path12"
     style="fill:#ffffff" />
  <path
     inkscape:connector-curvature="0"
     class="cls-3"
     d="m 56.73297,87.184916 h -2.62 l -9.37,-14.54 a 6,6 0 0 1 -0.58,-1.14 h -0.08 a 18.72,18.72 0 0 1 0.1,2.5 v 13.18 h -2.13 v -18.23 h 2.77 l 9.12,14.28 q 0.57,0.89 0.74,1.22 h 0.05 a 19.28,19.28 0 0 1 -0.13,-2.68 v -12.82 h 2.13 z"
     id="path14"
     style="fill:#ffffff" />
  <path
     inkscape:connector-curvature="0"
     class="cls-3"
     d="m 71.15297,87.184916 h -9.69 v -18.23 h 9.24 v 1.93 h -7.06 v 6.06 h 6.58 v 1.92 h -6.58 v 6.32 h 7.52 z"
     id="path16"
     style="fill:#ffffff" />
  <path
     inkscape:connector-curvature="0"
     class="cls-3"
     d="m 85.46297,70.884916 h -5.29 v 16.3 h -2.14 v -16.3 h -5.24 v -1.93 h 12.67 z"
     id="path18"
     style="fill:#ffffff" />
  <text
     xml:space="preserve"
     style="font-style:normal;font-weight:normal;font-size:10.66666698px;line-height:1.25;font-family:sans-serif;letter-spacing:0px;word-spacing:0px;fill:#000000;fill-opacity:1;stroke:none"
     x="38.667343"
     y="96.953636"
     id="text3748"><tspan
       sodipodi:role="line"
       id="tspan3746"
       x="38.667343"
       y="106.68516"
       style="font-style:normal;font-variant:normal;font-weight:normal;font-stretch:normal;font-family:'Segoe UI';-inkscape-font-specification:'Segoe UI'" /></text>
</svg>
