<svg xmlns="http://www.w3.org/2000/svg" viewBox="0 0 636 300"><defs><style>.a{fill:#b2b2b2}.b{fill:#d2d2d2}.c{fill:#ce9c5f}.d{fill:#f3f3f3}.e{fill:#002050}.f{fill:#ffcb40}.g{fill:#409ae1}.h{fill:#ffb900}.i{fill:#ff8c00}.j{fill:#0078d7}.k{fill:#0064b5}.l{fill:#282828}.m{fill:#ffa940}.n{fill:#001129}.o{fill:#c2c2c2}.p{fill:#a80000}.q,.s,.t,.w{fill:none;stroke-miterlimit:8}.q{stroke:#505050}.r{fill:#fff2e2}.s,.t{stroke:#fff}.s,.w{stroke-width:2px}.t{stroke-linecap:round}.u{fill:#004880}.v{fill:#e6a600}.w{stroke:#409ae1}.x{fill:#69afe5}.y{fill:#ffe3c0}.z{fill:#2139b5}.aa{fill:#ba8c57}.ab{fill:#301d19}.ac{fill:#fff}.ad{fill:#e81123}.ae{fill:#cb8c84}</style></defs><title>swimlane-azure-machine-learning</title><path class="a" d="M105.292 257.53a4.069 4.069 0 0 1-3.98-3.958 3.98 3.98 0 0 1 3.98-3.958c70.143 0 100.95-2 100.95-2a3.995 3.995 0 0 1 .148 7.986zM254.076 278.365a4.079 4.079 0 0 1-3.989-3.967 3.989 3.989 0 0 1 3.989-3.967c70.307 0 271.584-2 271.584-2a4 4 0 0 1 .148 8z"/><path class="b" d="M491.959 70.123c-1.62 11.067 6.71 21.47 18.512 23.019 11.8 1.328 22.445-6.64 24.065-17.928 1.388-11.067-6.942-21.47-18.512-22.8-11.801-1.547-22.446 6.421-24.065 17.709z"/><ellipse class="b" cx="459.268" cy="72.287" rx="20.045" ry="21"/><circle class="b" cx="405.283" cy="72.915" r="18.642"/><path class="c" d="M199.128 125.829c3.01-2.824 3.412-4.331 4.215-7.532.6-2.071 0-2.825-.8-2.26 1-1.695-.2-3.578-1-2.26.2-.565 0-1.695-.8-1.883-.8 0-1 1.13-1 1.695-.6-.565-1.606-.565-1.806.942a3.815 3.815 0 0 1-1 2.071c-.2-1.506-1-2.071-1.806-1.695 0 1.73-1.06 4.456-.744 6.746l-.059.221-5.619 7.156 6.824 1.506z"/><path class="d" d="M198.523 126.936l-6.826-4.873-1.648 1.907 6.827 4.872 1.647-1.906z"/><path class="e" d="M178.4 137.84a5.84 5.84 0 0 1 7.2-.74 4.308 4.308 0 0 1 1.059 6.471 5.9 5.9 0 0 1-7.415.74 4.124 4.124 0 0 1-.844-6.471z"/><path class="e" d="M196.828 128.787l-6.642-5.029-12 14.214 7.929 6.123 10.713-15.308z"/><path class="f" d="M239.969 113.85c-.4-.6-.792-1.4-1.188-2a1.82 1.82 0 0 1 .2-1 13.744 13.744 0 0 0-7.919-14.221 9.406 9.406 0 0 0-3.365-1 11.809 11.809 0 0 0-8.314 1.4 17.161 17.161 0 0 0-4.553-6.61 17.981 17.981 0 0 0-3.167-2.2 24.062 24.062 0 0 0-5.345-1.8 17.013 17.013 0 0 0-19 13.62v.4h-.2a13.417 13.417 0 0 0-15.243 11.417 13.723 13.723 0 0 0 1.584 8.412 16.545 16.545 0 0 0 3.365 1l51.668 7.811a10.547 10.547 0 0 0 6.137-1 10.658 10.658 0 0 0 6.137-8.212 12.348 12.348 0 0 0-.797-6.017z"/><path class="b" d="M244.312 96.43v-49.7a41.5 41.5 0 1 1 83 0v49.7z"/><path class="g" d="M285.312 3.524c-23.758 0-43 19.458-43 43.482V98.43h86V47.006c0-24.024-19.242-43.482-43-43.482zm.6 2.361a40.608 40.608 0 0 1 40.4 40.7V95.43h-81V46.587a40.648 40.648 0 0 1 40.6-40.7"/><circle class="h" cx="285.803" cy="44.952" r="34.742"/><ellipse class="f" cx="286.65" cy="44.952" rx="28.811" ry="27.963"/><path class="i" d="M350.454 230.43h75.764a5.235 5.235 0 0 0 5.453-5 5.357 5.357 0 0 0-5.453-5h-75.764a5.229 5.229 0 0 0-5.453 5c-.001 2.857 2.336 5 5.453 5z"/><path class="j" d="M345.551 229.5a6.354 6.354 0 0 0 6.06 4.933h77.38a6.014 6.014 0 0 0 0-12h-77.92c-3.556-.003-6.125 3.426-5.52 7.067z"/><path class="g" d="M415.452 276.43a2.786 2.786 0 0 1 2.619-1.7 2.731 2.731 0 0 1 2.465 1.7z"/><path class="k" d="M242.312 98.43h86v3h-86z"/><path class="j" d="M362.147 69.207c-3.967-3.777-9.52-3.777-10.313-3.777h-18.108a8.743 8.743 0 0 0-8.413-6.875V77.3a8.743 8.743 0 0 0 8.413-6.875h18.391a10.769 10.769 0 0 1 6.848 2.708c1.566 1.667 2.348 4.167 2.348 7.291v33.4c0 3-.8 5.4-2.4 7a10.159 10.159 0 0 1-6.986 2.6h-15.963c-4.59 0-8.183 1.4-10.778 4a14.345 14.345 0 0 0-3.593 9.4 8.818 8.818 0 0 0-6.586 8.6h18.243a8.717 8.717 0 0 0-6.51-8.5 10.96 10.96 0 0 1 2.367-5.93c1.579-1.779 3.946-2.57 7.1-2.57h15.625c.793 0 6.347.2 10.313-3.777 2.777-2.584 4.165-5.962 4.165-10.534V79.738c.002-4.371-1.386-7.948-4.163-10.531zM359.006 167.43a5.776 5.776 0 0 0-5.693 5.714v18.286h26.111a5.664 5.664 0 0 0 5.889-5.524V167.43z"/><circle class="l" cx="373.083" cy="179.685" r="8.474"/><path class="m" d="M373.312 186.429v-1.66a7.989 7.989 0 0 1-1.924-.847l.351-1.059a3.089 3.089 0 0 0 1.928.636 1.4 1.4 0 0 0 1.578-1.483 2.126 2.126 0 0 0-1.4-1.907c-1.4-.847-2.279-1.483-2.279-2.966 0-1.271.877-2.33 2.749-2.542v-2.171 1.75a3.349 3.349 0 0 1 1.666.438l-.334 1.312a2.77 2.77 0 0 0-1.666-.657 1.211 1.211 0 0 0-1.334 1.312c0 .875.5 1.312 1.5 1.969a3.6 3.6 0 0 1 2 3.281 2.826 2.826 0 0 1-2 2.844l-.166 1.75h-.666z"/><path class="g" d="M376.312 158.459v19.428a7.844 7.844 0 0 1 8 7.772v-19.252a7.993 7.993 0 0 0-8-7.948z"/><path class="g" d="M376.312 158.459v19.428a7.844 7.844 0 0 1 8 7.772v-19.252a7.993 7.993 0 0 0-8-7.948z"/><circle class="n" cx="395.115" cy="203.411" r="13.558"/><circle class="j" cx="395.115" cy="201.717" r="13.558"/><ellipse class="l" cx="394.267" cy="201.717" rx="11.016" ry="10.169"/><circle class="n" cx="424.773" cy="227.985" r="2.542"/><circle class="n" cx="417.994" cy="227.985" r="2.542"/><ellipse class="n" cx="410.367" cy="227.985" rx="1.695" ry="2.542"/><ellipse class="n" cx="403.588" cy="227.985" rx="1.695" ry="2.542"/><ellipse class="n" cx="396.809" cy="227.985" rx="1.695" ry="2.542"/><ellipse class="n" cx="390.03" cy="227.985" rx="1.695" ry="2.542"/><circle class="n" cx="382.404" cy="227.985" r="2.542"/><circle class="n" cx="375.625" cy="227.985" r="2.542"/><circle class="n" cx="368.846" cy="227.985" r="2.542"/><circle class="n" cx="362.067" cy="227.985" r="2.542"/><circle class="n" cx="355.288" cy="227.985" r="2.542"/><path class="g" d="M417.312 233.43h2v41h-2z"/><path class="g" d="M417.312 233.43h2v41h-2zM417.146 274.43h.2a3.891 3.891 0 0 1 3.19 2h-1.6a3.293 3.293 0 0 0-1.79-2z"/><path class="j" d="M283.312 81.431V219.86a3.833 3.833 0 0 1-3.9 3.768 3.888 3.888 0 0 1-4.1-3.768V179a10.506 10.506 0 0 0-21 .385v40.908a4 4 0 0 1-8 0v-22.341a11 11 0 0 0-22 0v22.636a3.854 3.854 0 0 1-4 3.966 3.982 3.982 0 0 1-4-3.966V186.7l12.4-18.838c.2-.2.4-.4.4-.595-.2-1.587-7.4-2.777-16.4-2.777-8.8 0-16 1.19-16.2 2.777 0 .2.2.4.4.595l12.4 18.838v33.22a11 11 0 0 0 22 0v-22.164a3.929 3.929 0 0 1 4.1-3.865 3.879 3.879 0 0 1 3.9 3.865v23.551a11.042 11.042 0 0 0 22-1.212v-41.132s1.124-3.768 3.124-3.768c2.2 0 3.876 3.768 3.876 3.768v40.9a11 11 0 0 0 22 0V81.43h-7z"/><ellipse class="k" cx="212.929" cy="166.974" rx="16.1" ry="2.542"/><path class="k" d="M324.819 137.43h-.6a10.509 10.509 0 0 1 6.2 8h3.4c0-4.444-4.199-8-9-8zM341.312 274.43h1.265a11.2 11.2 0 0 0 3.735-.1v-1.9h-5zM307.312 274.43h-1.872a7.313 7.313 0 0 1-3.128-.1v-1.9h5v2zM351.312 157.43h5v63h-5z"/><path class="k" d="M353.312 262.691s0 9.739-9.864 9.739h-38.074s-10.062 0-10.062-9.739V155.169s0-9.739 10.062-9.739h38.074s9.864 0 9.864 9.739z"/><path class="o" d="M323.837 157.788a18.655 18.655 0 0 0-18.545 18.642h37.285a18.7 18.7 0 0 0-18.74-18.642z"/><circle class="p" cx="324.782" cy="172.058" r="2.542"/><path class="p" d="M323.678 174.6l-1.438-1.873 13.558-9.99-12.12 11.863z"/><path class="i" d="M328.107 190.44a4.563 4.563 0 0 1-6.453-6.453 4.563 4.563 0 0 1 6.453 6.453z"/><path class="q" d="M328.107 190.44a4.563 4.563 0 0 1-6.453-6.453 4.563 4.563 0 0 1 6.453 6.453z"/><path class="i" d="M313.107 190.44a4.563 4.563 0 0 1-6.453-6.453 4.563 4.563 0 0 1 6.453 6.453z"/><path class="q" d="M313.107 190.44a4.563 4.563 0 0 1-6.453-6.453 4.563 4.563 0 0 1 6.453 6.453z"/><circle class="i" cx="340.035" cy="187.311" r="5.084"/><circle class="q" cx="340.043" cy="187.311" r="5.084" transform="rotate(-80.782 340.042 187.311)"/><path class="k" d="M334.312 68.716v-.6a10.1 10.1 0 0 1-8 6.2v3.4c4.445 0 8-4 8-9z"/><path class="r" d="M262.492 44.208A23.383 23.383 0 0 1 292.6 21.871a22.753 22.753 0 0 1 15.809 16.481 23.091 23.091 0 0 1-4.236 20.078 10.905 10.905 0 0 1-1.383 1.778c-2.173 2.765-6.125 8.494-6.125 14.222h-21.727c0-5.728-3.951-11.457-6.321-14.222-.4-.592-.987-1.185-1.383-1.778a23.659 23.659 0 0 1-4.742-14.222"/><path class="s" d="M262.492 44.208A23.383 23.383 0 0 1 292.6 21.871a22.753 22.753 0 0 1 15.809 16.481 23.091 23.091 0 0 1-4.236 20.078 10.905 10.905 0 0 1-1.383 1.778c-2.173 2.765-6.125 8.494-6.125 14.222h-21.727c0-5.728-3.951-11.457-6.322-14.222-.4-.593-.987-1.185-1.383-1.778a23.664 23.664 0 0 1-4.741-14.222"/><path class="s" d="M262.492 44.208A23.383 23.383 0 0 1 292.6 21.871a22.753 22.753 0 0 1 15.809 16.481 23.091 23.091 0 0 1-4.236 20.078 10.905 10.905 0 0 1-1.383 1.778c-2.173 2.765-6.125 8.494-6.125 14.222h-21.727c0-5.728-3.951-11.457-6.322-14.222-.4-.593-.987-1.185-1.383-1.778a23.664 23.664 0 0 1-4.741-14.222"/><path class="t" d="M270.55 46.647A17 17 0 0 1 287.5 29.7"/><path class="u" d="M416.5 80.624l-8.437-6.242a3.007 3.007 0 0 0 .375-1.208 3.215 3.215 0 0 0-1.125-2.416V62.7a1.5 1.5 0 1 0-3 0v8.054a3.126 3.126 0 0 0-1.125 1.611l-9.563 4.235a1.98 1.98 0 0 0-.75 2.014c.375.6.75 1.007 1.312 1.007a.66.66 0 0 0 .563-.2l9.562-4.027a3.426 3.426 0 0 0 1.5.6 2.259 2.259 0 0 0 1.875-1.007l8.437 6.443h.188c.188 0 .188 0 .375-.2a.777.777 0 0 0-.187-.606z"/><path class="k" d="M493.709 70.613A18.487 18.487 0 1 0 514.446 54.6a18.611 18.611 0 0 0-20.737 16.013zm40.475 5.206a22.321 22.321 0 1 1-19.34-25.028 22.246 22.246 0 0 1 19.34 25.028z"/><path class="u" d="M521.687 62.531l-7.709 7.856a3.084 3.084 0 0 0-1.25-.393 2.8 2.8 0 0 0-2.709.982l-5.834-5.7a1.708 1.708 0 0 0-2.292 0 1.479 1.479 0 0 0 0 2.161l6.876 5.7a8.715 8.715 0 0 0 2.5 2.161l2.917 10.41a1.745 1.745 0 0 0 2.084.982 1.266 1.266 0 0 0 1.042-1.179v-.589l-2.912-10.41a2.9 2.9 0 0 0 .833-1.571 2.817 2.817 0 0 0-.625-1.964l7.709-8.053v-.393a.4.4 0 0 0-.63 0z"/><path class="k" d="M441.221 73.014a18.294 18.294 0 1 0 18.294-18.376 18.259 18.259 0 0 0-18.294 18.376zm40.326 0a22.032 22.032 0 1 1-22.032-22.131 22 22 0 0 1 22.032 22.131zM386.989 73.014a18.294 18.294 0 1 0 18.294-18.376 18.259 18.259 0 0 0-18.294 18.376zm40.326 0a22.032 22.032 0 1 1-22.032-22.131 22 22 0 0 1 22.032 22.131z"/><path class="u" d="M458.583 60.031l1.094 10.4a2.131 2.131 0 0 0-1.094-.2 2.535 2.535 0 0 0-2.19 1.2h-7.3a1.509 1.509 0 0 0-1.46 1.6 1.463 1.463 0 0 0 1.46 1.4h7.3a2.662 2.662 0 0 0 1.642 1.2l-2.19 9a1.453 1.453 0 0 0 .912 1.8 1.324 1.324 0 0 0 1.46-.6.781.781 0 0 0 .182-.6l2.19-10.6a2.4 2.4 0 0 0 .548-1.6 2.984 2.984 0 0 0-.912-2.2l-.912-10.8v-.2c-.182-.2-.182-.2-.364-.2a.413.413 0 0 0-.366.4z"/><path class="h" d="M207.312 134l-1.412 1.326-.598-.884 2.193-2.012h.817v10h-1V134z"/><path class="f" d="M205.312 152.682l-.907 1.356-.798-.904 2.194-1.704h.511v10h-1v-8.748z"/><path class="h" d="M221.312 150.686l-1.654.941-.798-.565 2.393-1.632h1.059v8h-1v-6.744z"/><path class="v" d="M212.184 151.348c1.643 0 1.849-2.644 1.849-3.864s-.411-4.067-1.849-4.067c-1.643 0-2.054 2.847-2.054 4.067s.205 3.864 2.054 3.864zm0-8.948c2.671 0 3.287 2.847 3.287 5.084 0 2.034-.616 5.084-3.287 5.084-2.876 0-3.492-3.051-3.492-5.084 0-2.237.616-5.084 3.492-5.084zM215.471 165.11c1.7 0 1.907-2.2 1.907-3.22s-.212-3.22-1.907-3.22-1.907 2.2-1.907 3.22.212 3.22 1.907 3.22zm0-7.457c2.754 0 3.39 2.373 3.39 4.237s-.636 4.237-3.39 4.237-3.389-2.373-3.389-4.237.635-4.237 3.389-4.237z"/><path class="h" d="M198.626 153.247c1.643 0 1.849-2.847 1.849-4.067s-.205-3.864-1.849-3.864-1.849 2.644-1.849 3.864 0 4.067 1.849 4.067zm0-9.152c2.671 0 3.287 3.051 3.287 5.084 0 2.237-.616 5.084-3.287 5.084-2.876 0-3.492-2.847-3.492-5.084 0-2.034.616-5.079 3.492-5.079z"/><path class="v" d="M227.334 151.348c1.7 0 1.907-2.644 1.907-3.864s-.212-3.864-1.907-3.864-1.907 2.644-1.907 3.864.212 3.864 1.907 3.864zm0-8.948c2.754 0 3.39 3.051 3.39 5.084 0 2.237-.636 5.084-3.39 5.084s-3.39-2.847-3.39-5.084c0-2.033.636-5.084 3.39-5.084z"/><path class="h" d="M207.312 134l-1.412 1.326-.598-.884 2.193-2.012h.817v10h-1V134z"/><path class="f" d="M205.312 152.682l-.907 1.356-.798-.904 2.194-1.704h.511v10h-1v-8.748z"/><path class="h" d="M221.312 150.686l-1.654.941-.798-.565 2.393-1.632h1.059v8h-1v-6.744z"/><path class="v" d="M212.184 151.348c1.643 0 1.849-2.644 1.849-3.864s-.411-4.067-1.849-4.067c-1.643 0-2.054 2.847-2.054 4.067s.205 3.864 2.054 3.864zm0-8.948c2.671 0 3.287 2.847 3.287 5.084 0 2.034-.616 5.084-3.287 5.084-2.876 0-3.492-3.051-3.492-5.084 0-2.237.616-5.084 3.492-5.084zM215.471 165.11c1.7 0 1.907-2.2 1.907-3.22s-.212-3.22-1.907-3.22-1.907 2.2-1.907 3.22.212 3.22 1.907 3.22zm0-7.457c2.754 0 3.39 2.373 3.39 4.237s-.636 4.237-3.39 4.237-3.389-2.373-3.389-4.237.635-4.237 3.389-4.237z"/><path class="h" d="M198.626 153.247c1.643 0 1.849-2.847 1.849-4.067s-.205-3.864-1.849-3.864-1.849 2.644-1.849 3.864 0 4.067 1.849 4.067zm0-9.152c2.671 0 3.287 3.051 3.287 5.084 0 2.237-.616 5.084-3.287 5.084-2.876 0-3.492-2.847-3.492-5.084 0-2.034.616-5.079 3.492-5.079z"/><path class="v" d="M227.334 151.348c1.7 0 1.907-2.644 1.907-3.864s-.212-3.864-1.907-3.864-1.907 2.644-1.907 3.864.212 3.864 1.907 3.864zm0-8.948c2.754 0 3.39 3.051 3.39 5.084 0 2.237-.636 5.084-3.39 5.084s-3.39-2.847-3.39-5.084c0-2.033.636-5.084 3.39-5.084zM240.092 113.589a11.555 11.555 0 0 1 .777 5.756 10.244 10.244 0 0 1-6.024 7.866 10.574 10.574 0 0 1-6.024.959l-50.721-7.483a16.642 16.642 0 0 1-3.3-.959 13.063 13.063 0 0 0 9.522 6.523l50.721 7.483a9.925 9.925 0 0 0 5.83-.959 9.5 9.5 0 0 0 6.024-7.866 10.352 10.352 0 0 0-6.805-11.32z"/><path class="j" d="M480.052 223.748a61.39 61.39 0 0 1-20.536 6.447l14.954 58.221a11.014 11.014 0 0 0 7.377 7.62 9.722 9.722 0 0 0 5.782 0 10.4 10.4 0 0 0 7.776-12.7z"/><path class="n" d="M470.145 225.9a54.314 54.314 0 0 1-10.629 2.015l1.933 7.7a57.613 57.613 0 0 0 20.1-5.863l-2.126-7.7a69.186 69.186 0 0 1-9.278 3.848z"/><path class="b" d="M503.429 160.42a51.412 51.412 0 1 1-64.873-32.927 51.66 51.66 0 0 1 64.873 32.927z"/><path class="w" d="M503.429 160.42a51.412 51.412 0 1 1-64.873-32.927 51.66 51.66 0 0 1 64.873 32.927z"/><path class="x" d="M420.559 183.444a9.952 9.952 0 0 0 1.581 1.4 20.217 20.217 0 0 0 12.251 4.607 20.914 20.914 0 0 0 21.538-20.429 19.727 19.727 0 0 0-2.569-11.016 20.136 20.136 0 0 0-8.1-8.212 22.894 22.894 0 0 0-5.137-2 19.677 19.677 0 0 0-19.957 5.808 21.174 21.174 0 0 0 .393 29.842z"/><path class="j" d="M434.449 189.466a20.592 20.592 0 0 0 21.48-19.756c.2-3.874.088-7.507-1.617-10.673a22.381 22.381 0 0 0-8.312-8.889 40.252 40.252 0 0 0-5.06-2.361s-5.1 19.837-5.177 19.985l-.019.026c-13 16.066-13.51 17.214-13.51 17.214a20.542 20.542 0 0 0 12.215 4.454z"/><path class="g" d="M435.839 167.821l5.034-20.065a20.658 20.658 0 0 0-20.436 5.592z"/><path class="f" d="M458.312 208.258V180.6a2.318 2.318 0 0 0-2.406-2.172h-9.188a2.319 2.319 0 0 0-2.406 2.172v27.655a2.318 2.318 0 0 0 2.406 2.172h9.188a2.319 2.319 0 0 0 2.406-2.169z"/><path class="v" d="M454.418 178.43h-2.106v32h2.106c1.578 0 2.894-.988 2.894-2.172V180.6c0-1.182-1.312-2.17-2.894-2.17z"/><path class="f" d="M471.312 208.266v-32.671a2.291 2.291 0 0 0-2.095-2.164h-7.81a2.15 2.15 0 0 0-2.095 2.164v32.671a2 2 0 0 0 1.9 2.164h8a2.149 2.149 0 0 0 2.1-2.164z"/><path class="v" d="M469.416 173.43h-1.1v37h1.1a2.406 2.406 0 0 0 1.9-2.42v-32.922a1.472 1.472 0 0 0-1.9-1.658z"/><path class="f" d="M487.312 208.239v-42.618a2.3 2.3 0 0 0-2.222-2.191h-9.334a2.349 2.349 0 0 0-2.444 2.191v42.618a2.349 2.349 0 0 0 2.444 2.191h9.112a2.348 2.348 0 0 0 2.444-2.191z"/><path class="v" d="M483.663 163.43h-2.121l-.265 47h2.123c1.59 0 2.915-1 2.915-2.191v-42.618a2.557 2.557 0 0 0-2.652-2.191z"/><path class="l" d="M465.238 167.579l-13.988 5.327-.209-.615 13.988-5.531 14.197-12.497.626.41-14.614 12.906z"/><path class="l" d="M453.176 172.189a1.936 1.936 0 0 1 0 3.324 3.768 3.768 0 0 1-4.268-.2 1.938 1.938 0 0 1 0-3.324 3.768 3.768 0 0 1 4.268.2z"/><circle class="l" cx="465.447" cy="166.974" r="2.542"/><circle class="l" cx="479.852" cy="154.263" r="1.695"/><path class="y" d="M308.682 44.769a23.019 23.019 0 0 0-23.075-22.876c-.782 0-1.564.194-2.347.194a23 23 0 0 1 20.924 22.682 23.264 23.264 0 0 1-4.884 13.958c-.391.582-.978 1.163-1.369 1.745-2.151 2.714-6.258 8.336-6.258 13.958h4.693c0-5.622 3.911-11.244 6.062-13.958a10.6 10.6 0 0 0 1.369-1.745 22.063 22.063 0 0 0 4.89-13.958"/><path class="f" d="M201.312 127.034l-2.191 1.356-.598-1.13 2.193-1.83h1.596v10h-1v-8.396zM226.312 128.916l-1.732 1.326-.636-1.105 2.119-1.707h1.249v10h-1v-8.514zM217.063 137.79c1.849 0 1.849-2.644 1.849-3.864s-.205-3.864-1.849-3.864-1.849 2.644-1.849 3.864.205 3.864 1.849 3.864zm0-8.948c2.876 0 3.492 3.051 3.492 5.084 0 2.237-.616 5.084-3.492 5.084-2.671 0-3.287-2.847-3.287-5.084 0-2.033.616-5.084 3.287-5.084z"/><path class="f" d="M226.312 128.916l-1.732 1.326-.636-1.105 2.119-1.707h1.249v10h-1v-8.514zM217.063 137.79c1.849 0 1.849-2.644 1.849-3.864s-.205-3.864-1.849-3.864-1.849 2.644-1.849 3.864.205 3.864 1.849 3.864zm0-8.948c2.876 0 3.492 3.051 3.492 5.084 0 2.237-.616 5.084-3.492 5.084-2.671 0-3.287-2.847-3.287-5.084 0-2.033.616-5.084 3.287-5.084z"/><path class="e" d="M307.312 205.43h3v29h-3zM315.312 205.43h3v29h-3zM321.312 205.43h3v29h-3zM329.312 205.43h3v29h-3zM336.312 205.43h3v29h-3z"/><path class="h" d="M313.312 211.43h7v2h-7zM305.312 221.43h7v2h-7zM319.312 221.43h7v2h-7zM327.312 227.43h7v2h-7zM334.312 210.43h7v2h-7z"/><path class="m" d="M395.176 205.422c-1.479 0-3.513-1.992-3.513-1.992h4.649v-1h-5v-1h5v-1h-4.649s2.034-2.418 3.513-2.418a3.9 3.9 0 0 1 2.4.689l.924-1.034a5.412 5.412 0 0 0-3.328-1.034 5.055 5.055 0 0 0-4.992 3.8h-1.871v1h1v1h-1v1h1.871a5.217 5.217 0 0 0 4.992 3.371 5.542 5.542 0 0 0 3.328-1.204l-.924-.862a5.523 5.523 0 0 1-2.4.684z"/><path class="e" d="M302.312 250.43h44v2h-44zM302.312 254.43h44v2h-44z"/><path class="j" d="M297.293 74.43c0 .18 1.22.18 1.019 1.25v1.249c.2 0 .2 1.07-1.019.5h-22.981c0 .569-1.22.569-1-.5V75.68c-.22 0-.22-1.07 1-1.25z"/><path class="k" d="M297.113 78.43s1.2 0 1.2 1.75v1.75s0 1.5-1.2 1.5h-22.6s-1.2 0-1.2-1.5v-1.75s0-1.75 1.2-1.75zM297.293 86.43c0 .043 1.22.043 1.019 1.06v1.356c.2 0 .2 1.017-1.019.584h-22.981c0 .433-1.22.433-1-.584V87.49c-.22 0-.22-1.017 1-1.06z"/><path class="j" d="M297.293 83.43c0-.346 1.22-.346 1.019.671v1.356c.2 0 .2 1.017-1.019.973h-22.981c0 .044-1.22.044-1-.973V84.1c-.22 0-.22-1.017 1-.671z"/><path class="z" d="M169.712 183.268a6.53 6.53 0 0 1-6.673 6.392c-3.522 0-5.19-3.1-5.19-6.779.185-3.68 2.039-6.585 5.561-6.585a6.873 6.873 0 0 1 6.302 6.972z"/><path class="e" d="M167.744 211.885l-11.59-.209.656-28.602 12.902.418-1.968 28.393z"/><path class="e" d="M144.313 196.767c0-1 4.935-2.991 10.819-2.991s10.629 1.994 10.629 2.991l2.278-20.337h-23.727v20.337z"/><path class="e" d="M154.351 188.159l-15.144-1.441 3.029-20.173 3.245-23.671 4.111-4.529 9.952-1.029-2.596 43.432-2.597 7.411z"/><path class="e" d="M142.794 182.6a6.71 6.71 0 0 0 6.339 7.065c3.764.191 8.122-2.482 8.518-6.111.2-3.628-3.764-6.874-7.527-7.065a6.8 6.8 0 0 0-7.33 6.111z"/><path class="e" d="M140.902 211.268l11.073.617 4.179-27.782-14.626-1.029-.626 28.194z"/><path class="n" d="M149.375 249.17l-6.779-.435.399-8.039 6.181.217.199 8.257z"/><path class="l" d="M150.86 252.692l-6.5.212-.21-1.059a61.8 61.8 0 0 1-9.023 1.059c-1.679 0-4.406 0-5.665-.636a1.614 1.614 0 0 1-.42-.847c.21-2.754 10.7-3.813 13.429-6.991h.42c.63.636 1.469 2.118 3.147 2.118s3.357-1.483 3.987-2.118c1.045.848 1.045 8.262.835 8.262z"/><path class="e" d="M152.564 213.034a5.671 5.671 0 0 0-5.429-6.034 5.84 5.84 0 0 0-.6 11.662 5.973 5.973 0 0 0 6.029-5.628z"/><path class="e" d="M152.765 212.528l-10.841-.643-1.022 34.518 10.022 1.072 1.841-34.947z"/><path class="n" d="M156.154 247.681l6.58.223.199-8.474h-6.181l-.598 8.251z"/><path class="l" d="M156.346 252.284l5.948.207.384-.827c1.727.413 6.139 1.033 8.058 1.24 1.727 0 4.029 0 5.18-.62.192-.207.576-.62.384-.827-.192-2.687-9.785-3.927-12.087-7.027h-.384c-.576.62-1.343 2.067-2.878 2.067s-3.07-1.653-3.645-2.067c-.96.62-1.152 7.854-.96 7.854z"/><path class="e" d="M156.154 211.8a5.613 5.613 0 0 1 6.136-4.826c3.273 0 5.727 2.24 5.727 5a5.613 5.613 0 0 1-6.136 4.826c-3.068 0-5.727-2.244-5.727-5z"/><path class="e" d="M156.736 211.885l11.44.207-1.695 33.068-10.169.62.424-33.895zM184.965 145.348l-2.641-9.727-14.306 1.99 4.181 13.263 12.766-5.526z"/><path class="e" d="M172.64 151.365a6.688 6.688 0 0 1-8.518-4.215 6.845 6.845 0 0 1 4.358-8.63 6.612 6.612 0 0 1 8.52 4.215 6.847 6.847 0 0 1-4.36 8.63z"/><path class="e" d="M156.154 188.811l12.809 1.042 4.139-42.947-1.774-8.339-11.627-1.251-2.364 43.989-1.183 7.506z"/><path class="c" d="M163.993 137.673l.636-6.422-9.321-.714-.636 6.422c-.212 1.6.847 3.211 4.237 3.389 3.391.357 4.872-1.248 5.084-2.675z"/><path class="aa" d="M154.312 130.575c2.542 3.467 5.084 5.2 9.533 6.741l.636-6.548-10.169-1.926z"/><path class="c" d="M167.623 129.054c-1.185-1.18-1.975-4.328-1.975-4.328-.2-.393 0-.59.2-.59l.987-.393c.2-.2.4-.59.2-.787l-2.172-2.754a2.727 2.727 0 0 1-.592-.787l-1.777-4.131-13.624 2.951.4 1.967-1.58.393s.4 16.721 19.35 9.836a.9.9 0 0 0 .583-1.377z"/><path class="ab" d="M150.693 115.1a19.78 19.78 0 0 1 8.85-4.488c2.071-.408 4.143 0 4.519 2.244.565 3.06-2.448 3.672-3.766 3.876l-1.883.408a1.391 1.391 0 0 0-.753 1.836l1.883 4.284-.942.612a.337.337 0 0 1-.565 0c-.565-.816-1.7-2.244-3.013-1.428-1.318 1.02-.753 2.448 0 3.264.753.612 1.7.816 1.883 1.836.188.408 1.13 3.264-1.506 4.692a10.754 10.754 0 0 1-6.214-6.12 9.9 9.9 0 0 1 .188-9.18 4.419 4.419 0 0 1 1.319-1.836z"/><path d="M164.628 120.933a1.179 1.179 0 0 1-.726 1.13.838.838 0 0 1-.726-.847.555.555 0 0 1 .484-.847 1.209 1.209 0 0 1 .968.564z"/><path class="b" d="M159.37 140.182l-1.521 27.639 4.563-17.197 3.911-12.08-.435-1.228-6.518 2.866z"/><path class="ac" d="M159.544 139.594l-1.582 28.227-3.389-17.354-1.808-13.591.678-1.255 6.101 3.973z"/><path class="b" d="M159.544 139.947l-5.022-6.021-1.757 1.784 1.004 6.69 4.268-3.345 1.507.892z"/><path class="ac" d="M159.544 139.724l5.248-4.103 1.531 1.606-2.406 5.173-3.061-3.211-1.312.535z"/><path class="ad" d="M158.273 139.041l-.424.484.847 2.905h1.272l1.271-2.421-.424-.484-2.542-.484zM158.091 142.43l-1.937 22.632 1.211 4.484 1.695-2.562.484-24.554h-1.453z"/><path class="n" d="M168.018 140.289l-1.4 1.784.877.6c-2.981 8.325-9.643 28.543-9.643 28.543l.351-2.775c1.928-7.334 6.662-31.12 6.662-31.12zM149.375 138.235l1.38 1.81-1.182.6c1.971 8.847 7.882 30.563 7.882 30.563l.394-2.815c-.985-7.641-4.532-32.775-4.532-32.775zM142.312 187.785l12.757 1.32 1.7-7.704-.425 7.704 12.968 1.101v1.1l-12.968-.44-.85-1.761-.851 1.761-12.331.66v-3.741z"/><path class="u" d="M157.849 178.837a.881.881 0 0 1-.968.847c-.242 0-.726-.565-.726-.847.242-.565.484-.847.968-.847s.726.565.726.847z"/><path class="ae" d="M167.133 127.147l-4.2 1.13a12.66 12.66 0 0 0 5.084 0z"/><path class="ac" d="M167.324 127.147l-4.391 1.233a12.078 12.078 0 0 0 5.084-.308z"/><path class="e" d="M173.102 141.341l-2.91-9.109-19.122 4.025 2.91 12.922 19.122-7.838z"/><path class="e" d="M154 149.67a6.721 6.721 0 0 1-8.518-4.415 6.844 6.844 0 0 1 4.358-8.63 7 7 0 0 1 8.518 4.616A6.552 6.552 0 0 1 154 149.67z"/><path class="c" d="M187.957 118.47c2.6-3.051 2.972-4.678 3.715-8.338.371-2.237-.186-3.051-.929-2.237.929-2.034-.371-3.864-.929-2.644 0-.407-.186-1.627-.929-1.83-.557 0-.743 1.22-.743 1.83-.557-.61-1.486-.61-1.672 1.22a4.363 4.363 0 0 1-.929 2.237c-.186-1.627-.929-2.237-1.672-1.83 0 1.879-.743 4.843-.513 7.326l-.044.2-4.829 8.135 6.5 1.22z"/><path class="e" d="M167.988 133.659a5.108 5.108 0 1 1 1.457 7.076 4.894 4.894 0 0 1-1.457-7.076z"/><path class="e" d="M186.66 123.169l-7.412-4.495-11.23 14.985 8.535 5.352 10.107-15.842z"/><path class="d" d="M186.66 121.724l-5.68-4.745-1.099 2.034 5.68 4.745 1.099-2.034z"/></svg>