<svg id="Layer_1" data-name="Layer 1" xmlns="http://www.w3.org/2000/svg" viewBox="0 0 400 140"><defs><style>.cls-1{fill:#e6e6e6;}.cls-2{fill:#a4ca39;}.cls-3{fill:#d2d3d4;}.cls-4{fill:#edac28;}.cls-5{fill:#505050;}.cls-6{fill:#721481;}.cls-15,.cls-7{fill:#fff;}.cls-8{fill:#d2d2d2;}.cls-9{fill:#939393;}.cls-10{fill:none;stroke:#939393;stroke-miterlimit:10;stroke-width:0.97px;}.cls-11{fill:#b2b2b2;}.cls-12{fill:#3498db;}.cls-13{fill:#b8d432;}.cls-14{fill:#7fba00;}.cls-15{opacity:0.25;isolation:isolate;}</style></defs><path class="cls-1" d="M295.13,80.61h-2.68V48.73a9.63,9.63,0,0,0-9.63-9.62h-3V36.43h3a12.33,12.33,0,0,1,12.31,12.3Z"/><path class="cls-1" d="M319.28,78.93H316.6V46.49a7.38,7.38,0,0,0-7.37-7.37V36.44a10.06,10.06,0,0,1,10,10.05Z"/><path class="cls-2" d="M67.86,101.35H65.18V46.49a10.06,10.06,0,0,1,10-10.05H94.84A5.36,5.36,0,0,1,99,38.92a2.68,2.68,0,0,0,2.3,1.26,2.71,2.71,0,0,0,2.31-1.26v0a5.42,5.42,0,0,1,9.1,0,2.74,2.74,0,0,0,4.61,0,5.41,5.41,0,0,1,9.11,0A2.74,2.74,0,0,0,131,39a4.64,4.64,0,0,1,4.14-2.56H329a12.32,12.32,0,0,1,12.31,12.3V88.26h-2.68V48.73A9.63,9.63,0,0,0,329,39.11H135.12a2,2,0,0,0-1.77,1.11l-.08.15a5.4,5.4,0,0,1-9.11,0,2.74,2.74,0,0,0-4.61,0,5.41,5.41,0,0,1-9.12,0,2.74,2.74,0,0,0-4.61,0l0,0a5.37,5.37,0,0,1-4.54,2.47h0a5.38,5.38,0,0,1-4.55-2.49,2.7,2.7,0,0,0-2-1.25H75.23a7.38,7.38,0,0,0-7.37,7.37Z"/><path class="cls-3" d="M299.35,77.53H288.22a1.34,1.34,0,1,0,0,2.67h.19V112a5.38,5.38,0,1,0,10.76,0V80.2h.18a1.34,1.34,0,1,0,0-2.67Z"/><path class="cls-4" d="M289.78,93h8a0,0,0,0,1,0,0v19.12a4,4,0,0,1-4,4h0a4,4,0,0,1-4-4V93A0,0,0,0,1,289.78,93Z"/><rect class="cls-5" x="289.78" y="70.26" width="8.01" height="7.26"/><path class="cls-3" d="M323.5,77.53H312.37a1.34,1.34,0,0,0,0,2.67h.19V112a5.38,5.38,0,1,0,10.76,0V80.2h.18a1.34,1.34,0,1,0,0-2.67Z"/><path class="cls-6" d="M313.93,102.83h8a0,0,0,0,1,0,0v9.3a4,4,0,0,1-4,4h0a4,4,0,0,1-4-4v-9.3a0,0,0,0,1,0,0Z"/><rect class="cls-5" x="313.93" y="70.26" width="8.01" height="7.26"/><path class="cls-3" d="M345.49,77.53H334.37a1.34,1.34,0,1,0,0,2.67h.18V112a5.38,5.38,0,0,0,5.38,5.38h0a5.38,5.38,0,0,0,5.38-5.38V80.2h.18a1.34,1.34,0,1,0,0-2.67Z"/><path class="cls-2" d="M335.92,85.16h8a0,0,0,0,1,0,0v27a4,4,0,0,1-4,4h0a4,4,0,0,1-4-4v-27A0,0,0,0,1,335.92,85.16Z"/><path class="cls-7" d="M273.13,30.81a6.3,6.3,0,0,0-2.68.6,11.61,11.61,0,0,0-22.86-2.57,8,8,0,1,0-4.82,14.47h30.36a6.25,6.25,0,0,0,0-12.5Z"/><path class="cls-3" d="M75.22,77.52a5.55,5.55,0,0,1-3.32-5V55.78h.29a1.82,1.82,0,1,0,0-3.64H60.79a1.82,1.82,0,0,0,0,3.64h.29V72.47a5.46,5.46,0,0,1-3.22,5,21.4,21.4,0,1,0,17.36,0Z"/><path class="cls-7" d="M49,97.57a.89.89,0,0,1-.89-.88,18.43,18.43,0,0,1,14.61-18,1.36,1.36,0,0,0,1.11-1.33V60.76a.89.89,0,0,1,1.77,0V77.38a3.14,3.14,0,0,1-2.51,3.05A16.67,16.67,0,0,0,49.89,96.69.89.89,0,0,1,49,97.57Z"/><polygon class="cls-8" points="60.79 55.78 71.92 60.09 71.92 55.78 60.79 55.78"/><path class="cls-2" d="M48.59,101.92a18.52,18.52,0,0,0,35.53,0Z"/><path class="cls-7" d="M292.16,109.81a1.15,1.15,0,0,1-1.15-1.14V84.13a1.15,1.15,0,1,1,2.3,0v24.54A1.15,1.15,0,0,1,292.16,109.81Z"/><path class="cls-7" d="M316.26,109.81a1.15,1.15,0,0,1-1.15-1.14V91a1.15,1.15,0,0,1,2.29,0v17.71A1.14,1.14,0,0,1,316.26,109.81Z"/><path class="cls-7" d="M338.22,109.81a1.14,1.14,0,0,1-1.15-1.14V98.11a1.15,1.15,0,0,1,2.29,0v10.56A1.14,1.14,0,0,1,338.22,109.81Z"/><circle class="cls-5" cx="152.07" cy="36.5" r="13.86"/><circle class="cls-1" cx="152.07" cy="36.5" r="11.17"/><path class="cls-7" d="M152.07,25.33a11.18,11.18,0,0,0-9.21,17.5L158.4,27.3A11.12,11.12,0,0,0,152.07,25.33Z"/><circle class="cls-9" cx="152.07" cy="36.5" r="1.3"/><line class="cls-10" x1="152.07" y1="27.51" x2="152.07" y2="36.5"/><line class="cls-10" x1="152.07" y1="36.5" x2="156.21" y2="40.65"/><path class="cls-3" d="M99.52,76.61h23a6.87,6.87,0,0,0,6.85-6.85V59a6.87,6.87,0,0,0-6.85-6.85h-7V45.5l-6.68,6.68H99.52A6.87,6.87,0,0,0,92.67,59V69.76A6.87,6.87,0,0,0,99.52,76.61Z"/><rect class="cls-11" x="99.04" y="68.41" width="24.12" height="2.16" transform="translate(222.21 138.97) rotate(180)"/><rect class="cls-11" x="99.04" y="63.36" width="24.12" height="2.16" transform="translate(222.21 128.87) rotate(180)"/><rect class="cls-11" x="99.04" y="58.3" width="24.12" height="2.16" transform="translate(222.21 118.76) rotate(180)"/><path class="cls-12" d="M246.83,108.87l-34.6-53.29V29.21h.55a6.66,6.66,0,1,0,0-13.32H186.89a6.66,6.66,0,1,0,0,13.32h.56V55.58l-34.61,53.29c-3.38,5.85-.61,10.63,6.14,10.63H240.7C247.45,119.5,250.21,114.72,246.83,108.87Z"/><polygon class="cls-13" points="180.1 85.94 165.49 107.92 234.19 107.92 219.57 85.94 180.1 85.94"/><path class="cls-14" d="M201.47,94.86A6.18,6.18,0,0,0,207,85.94H195.89a6.14,6.14,0,0,0-.63,2.71A6.21,6.21,0,0,0,201.47,94.86Z"/><circle class="cls-14" cx="209.17" cy="99.65" r="3.05"/><path class="cls-15" d="M152.84,108.87l34.61-53.29V29.21h-.56a6.66,6.66,0,1,1,0-13.32h10.63V55.41L181.3,119.5H159C152.23,119.5,149.46,114.72,152.84,108.87Z"/></svg>