<svg xmlns="http://www.w3.org/2000/svg" viewBox="0 0 500 300"><title>swimlane-machine-learning-brain-lightbulb</title><path d="M218.747,297.767l-29.494-5.487c5.31-28.543,31.88-84.636,80.57-113.643l15.354,25.773C243.487,229.247,222.419,278.032,218.747,297.767Z" fill="#b2b2b2"/><path d="M291,229.523H131c-41.5,0-56.5-47.5-52.5-77s21.5-47.5,21.5-47.5,2-15.5,14-31c7.652-9.884,23.5-16,23.5-16s5.25-14.5,22.75-24.5,28.75-8,28.75-8,12.25-9.75,28.25-12.25C235.663,10.4,248,14.523,248,14.523s11.25-5.5,34.75-3.5,30.75,10.5,30.75,10.5,22-4,43.5,11,23.75,25.5,23.75,25.5,15,3.25,28.5,21.25,7.25,35.25,7.25,35.25,14.3,8.874,6,30.5c-14,36.5-67,33.5-67,33.5S350.5,229.523,291,229.523Z" fill="#c2c2c2"/><rect x="126" y="209.523" width="104.5" height="57" rx="28.5" ry="28.5" fill="#c2c2c2"/><path d="M141,117.857c-2.667,20.666,13.333,54.666,63,54.666,29.684,0,56.833.5,85,.5,32.667,0,38,30,38,30" fill="none" stroke="#b2b2b2" stroke-linecap="round" stroke-linejoin="round" stroke-width="4"/><path d="M312.5,179.523c13.5-2,22.5-16.5,22.5-16.5" fill="none" stroke="#b2b2b2" stroke-linecap="round" stroke-linejoin="round" stroke-width="4"/><path d="M355,168.023c-4-19.5-30.488-40.2-63-41-40.5-1-51-.5-68-.5s-35.5,8.5-35.5,8.5" fill="none" stroke="#b2b2b2" stroke-linecap="round" stroke-linejoin="round" stroke-width="4"/><path d="M184,98.19s14.5,22,32,29" fill="none" stroke="#b2b2b2" stroke-linecap="round" stroke-linejoin="round" stroke-width="4"/><path d="M130.5,153.523c-22.833,30.334,7.5,49,7.5,49" fill="none" stroke="#b2b2b2" stroke-linecap="round" stroke-linejoin="round" stroke-width="4"/><path d="M156.312,101.914a28.288,28.288,0,1,1,54.972-9.391" fill="none" stroke="#b2b2b2" stroke-linecap="round" stroke-linejoin="round" stroke-width="4"/><path d="M315,131.023c.5-13,14.5-31,14.5-31" fill="none" stroke="#b2b2b2" stroke-linecap="round" stroke-linejoin="round" stroke-width="4"/><path d="M393.5,109.523c-11.5-12-34.5-14.5-34.5-14.5a43.7,43.7,0,0,0-28-26c-22-7-39-.5-39-.5" fill="none" stroke="#b2b2b2" stroke-linecap="round" stroke-linejoin="round" stroke-width="4"/><path d="M271.5,28.523c31.5,31.5,19.5,77,19.5,77" fill="none" stroke="#b2b2b2" stroke-linecap="round" stroke-linejoin="round" stroke-width="4"/><path d="M344.5,75.023c11-7.5,7.5-31,7.5-31" fill="none" stroke="#b2b2b2" stroke-linecap="round" stroke-linejoin="round" stroke-width="4"/><path d="M205.5,29.523c52,12,46.5,53.5,46.5,53.5" fill="none" stroke="#b2b2b2" stroke-linecap="round" stroke-linejoin="round" stroke-width="4"/><line x1="137.5" y1="229.023" x2="220" y2="229.023" fill="none" stroke="#b2b2b2" stroke-linecap="round" stroke-linejoin="round" stroke-width="4"/><circle cx="188.033" cy="227.407" r="5.752" fill="#fff"/><circle cx="98.95" cy="152.107" r="5.752" fill="#fff"/><circle cx="351.917" cy="45.828" r="5.752" fill="#fff"/><circle cx="393.741" cy="107.524" r="5.752" fill="#fff"/><circle cx="331.175" cy="158.461" r="5.752" fill="#fff"/><circle cx="272.425" cy="27.64" r="5.752" fill="#fff"/><circle cx="325.525" cy="204.353" r="5.752" fill="#fff"/><circle cx="332.221" cy="102.269" r="5.752" fill="#fff"/><circle cx="207.479" cy="32.961" r="5.752" fill="#fff"/><circle cx="184.379" cy="96.494" r="5.752" fill="#fff"/><circle cx="139" cy="114.482" r="5.752" fill="#fff"/><circle cx="140.917" cy="201.44" r="5.752" fill="#fff"/><circle cx="192.604" cy="171.015" r="5.752" fill="#fff"/><path d="M187.916,226.94l-49.249-27.083L98.25,150.94,139,114.19s65.667-80.333,68.333-81.667,61.334-6,64.667-4.666,79.333,18,79.333,18l42.917,62.166L332,157.523l-6.667,49Z" fill="none" stroke="#fff" stroke-miterlimit="10"/><line x1="325.333" y1="206.523" x2="207.333" y2="32.523" fill="none" stroke="#fff" stroke-miterlimit="10"/><path d="M350.5,48.523,334,101.19,184.25,96.523s147.189,63.284,145.25,62" fill="none" stroke="#fff" stroke-miterlimit="10"/><polyline points="185.333 97.857 192.25 171.023 330.75 159.023" fill="none" stroke="#fff" stroke-miterlimit="10"/><polyline points="325.333 206.523 139 114.19 148.667 61.19 209.333 32.523" fill="none" stroke="#fff" stroke-miterlimit="10"/><line x1="332" y1="104.523" x2="331" y2="158.023" fill="none" stroke="#fff" stroke-miterlimit="10"/><circle cx="148.658" cy="63.098" r="5.752" fill="#fff"/><line x1="182.667" y1="94.857" x2="152" y2="64.523" fill="none" stroke="#fff" stroke-miterlimit="10"/><line x1="144.667" y1="65.19" x2="99.5" y2="151.023" fill="none" stroke="#fff" stroke-miterlimit="10"/><polyline points="329 202.023 394 108.023 334 101.19" fill="none" stroke="#fff" stroke-miterlimit="10"/><line x1="196" y1="167.523" x2="350" y2="46.523" fill="none" stroke="#fff" stroke-miterlimit="10"/><path d="M140.75,117.023c1.333,1.334,47.166,109.917,47.166,109.917l3.667-56.333-50.916,29.916L139,114.19l44.75-17.667,25.583-64,122.667,72L272,27.857l-78.667,142" fill="none" stroke="#fff" stroke-miterlimit="10"/><line x1="189.75" y1="226.023" x2="329.667" y2="104.857" fill="none" stroke="#fff" stroke-miterlimit="10"/><path d="M280.95,71.951h0l0,0a51.906,51.906,0,0,0-4.917-2.877L275.893,69q-.756-.386-1.528-.747l-.422-.2c-.5-.228-.993-.451-1.5-.665-.132-.057-.268-.11-.4-.165q-2.293-.951-4.708-1.7c-.305-.095-.61-.191-.918-.281q-.6-.174-1.2-.334-.548-.147-1.1-.283c-.371-.091-.742-.183-1.116-.267-.49-.11-.984-.21-1.479-.307-.292-.058-.582-.121-.876-.174q-1.083-.2-2.182-.35c-.283-.04-.568-.072-.852-.108-.531-.067-1.064-.129-1.6-.182-.3-.03-.6-.056-.9-.081-.559-.047-1.121-.084-1.685-.115-.265-.014-.528-.032-.794-.043-.826-.034-1.656-.056-2.494-.056a57.359,57.359,0,0,0-20.563,3.731q-2.351.9-4.571,2-1.11.549-2.184,1.144-2.148,1.19-4.15,2.558t-3.84,2.9A45.577,45.577,0,0,0,198,110.421a44.592,44.592,0,0,0,7.34,24.525q.585.9,1.211,1.764a47.8,47.8,0,0,0,4.117,4.959l.016.019c.034.033.067.068.1.1.285.3.575.593.868.885.093.1.182.2.275.293l.067.072h0c15.527,16.338,21.2,38.9,21.2,38.9h34.061s5.644-22.669,21.1-39.01a45.246,45.246,0,0,0,13.914-32.51C302.27,94.59,293.986,80.578,280.95,71.951Z" fill="#fff880"/><path d="M280.95,71.951h0l0,0a51.906,51.906,0,0,0-4.917-2.877L275.893,69q-.756-.386-1.528-.747l-.422-.2c-.5-.228-.993-.451-1.5-.665-.132-.057-.268-.11-.4-.165q-2.293-.951-4.708-1.7c-.305-.095-.61-.191-.918-.281q-.6-.174-1.2-.334-.548-.147-1.1-.283c-.371-.091-.742-.183-1.116-.267-.49-.11-.984-.21-1.479-.307-.292-.058-.582-.121-.876-.174q-1.083-.2-2.182-.35c-.283-.04-.568-.072-.852-.108-.531-.067-1.064-.129-1.6-.182-.3-.03-.6-.056-.9-.081-.559-.047-1.121-.084-1.685-.115-.265-.014-.528-.032-.794-.043-.826-.034-1.656-.056-2.494-.056a57.359,57.359,0,0,0-20.563,3.731q-2.351.9-4.571,2-1.11.549-2.184,1.144-2.148,1.19-4.15,2.558t-3.84,2.9A45.577,45.577,0,0,0,198,110.421a44.592,44.592,0,0,0,7.34,24.525q.585.9,1.211,1.764a47.8,47.8,0,0,0,4.117,4.959l.016.019c.034.033.067.068.1.1.285.3.575.593.868.885.093.1.182.2.275.293l.067.072h0c15.527,16.338,21.2,38.9,21.2,38.9h34.061s5.644-22.669,21.1-39.01a45.246,45.246,0,0,0,13.914-32.51C302.27,94.59,293.986,80.578,280.95,71.951Z" fill="#ffcb40"/><polygon points="257.368 222.161 242.973 222.161 234.631 212.106 265.71 212.106 257.368 222.161" fill="#939393"/><rect x="230.094" y="181.941" width="40.221" height="32.679" fill="#939393"/><rect x="230.094" y="191.996" width="35.193" height="5.028" fill="#505050"/><rect x="230.094" y="202.051" width="35.193" height="5.028" fill="#505050"/><path d="M264.989,106.789a1.011,1.011,0,0,0,.947.695l2.124-.066a1.088,1.088,0,0,0,.867-1.1l.119-2.6a1.508,1.508,0,0,1,1.053-1.584c.34-.31.836-.452,1.177-.763a1.826,1.826,0,0,1,1.785.244l2.374,1.576a1.233,1.233,0,0,0,1.147-.111l1.549-1.724a1.133,1.133,0,0,0-.266-1.319L276,97.987a1.327,1.327,0,0,1-.252-1.644l-.156-.17a1.769,1.769,0,0,0,.543-1.118c.029-.652.385-1.289,1.533-1.4l2.465-.381a1.29,1.29,0,0,0,.866-1.1l-.22-2.3a.8.8,0,0,0-.947-.7l-2.606-.119a1.554,1.554,0,0,1-1.583-1.051c-.311-.34-.452-.836-.762-1.176a2.613,2.613,0,0,1,.089-1.954l1.563-2.05a1.177,1.177,0,0,0-.095-1.474L274.7,80.14a.991.991,0,0,0-1.3-.059l-1.888,2.036a1.665,1.665,0,0,1-1.814.408,5.045,5.045,0,0,0-1.288-.385l-.156-.171a1.714,1.714,0,0,1-1.242-1.361l-.36-2.791a1.011,1.011,0,0,0-.947-.695l-2.3.223a.8.8,0,0,0-.695.947l-.292,2.761c-.043.976-.384,1.287-.881,1.428-.341.312-.836.452-1.178.764a1.712,1.712,0,0,1-1.953-.089l-2.2-1.731a1.268,1.268,0,0,0-1.317.265l-1.549,1.726a1.44,1.44,0,0,0,.267,1.317l1.864,2.042c.622.681.762,1.177.25,1.644-.015.326-.2.807-.23,1.459-.186.481-.371.962-1.518,1.073l-2.635.533a1.016,1.016,0,0,0-.7.948l.222,2.293a1.039,1.039,0,0,0,.777.852l2.776-.038c.976.045,1.286.384,1.427.88a14.63,14.63,0,0,1,.747,1.5,1.464,1.464,0,0,1,.08,1.8l-1.733,2.207a1.266,1.266,0,0,0,.265,1.315l1.569,1.377a.992.992,0,0,0,1.3.06l1.889-2.037a1.661,1.661,0,0,1,1.813-.408q.721.279,1.445.555c.65.03.962.371,1.242,1.362l.531,2.637m6.4-14.887a5.735,5.735,0,0,1-5.171,5.968,5.323,5.323,0,0,1-5.963-5.166,5.474,5.474,0,0,1,5-5.81,5.544,5.544,0,0,1,6.134,5.008" fill="#fff880"/><path d="M278.729,110.274a.819.819,0,0,1-.953.192c-.123.113-.337-.369-.439-.728l-.406-1.434c-.214-.482-.684-.5-.818-.154L275,109.162a1.264,1.264,0,0,1-.975.663l-.562-.615-1.011-1.108c-.337-.369-.7-.267-.83.08l-.659,1.5a3.457,3.457,0,0,1-.515.921,7.007,7.007,0,0,1-.808-.391l-1.392-.535c-.46-.257-.707-.033-.728.439l.046,1.536a1.134,1.134,0,0,1-.277.931,2.894,2.894,0,0,1-.831.081l-1.413-.064c-.47-.021-.717.2-.5.685l.641,1.445c.1.359.193.952.193.952a2.8,2.8,0,0,1-.841.317l-1.445.642c-.359.1-.494.45-.156.819l1.134.995a5.911,5.911,0,0,1,.551.851,5.884,5.884,0,0,1-.628.8l-1.108,1.012c-.246.224-.146.583.2.716l1.391.535c.349.134.809.391.8.626a3.124,3.124,0,0,1-.156.82l-.772,1.38c-.134.349.091.595.439.729l1.535-.048a2.31,2.31,0,0,1,1.055.165.89.89,0,0,1,.079.83l-.074,1.648c-.023.47.326.6.684.5l1.333-.765a1.189,1.189,0,0,1,1.066-.071c.123-.112.225.247.438.728l.4,1.434c.214.482.573.38.82.156l1.108-1.012a1.269,1.269,0,0,1,.976-.665l.562.616,1.011,1.108c.336.368.695.267.828-.081l.548-1.628a2.473,2.473,0,0,1,.626-.8,6.933,6.933,0,0,1,.809.39l1.391.535c.461.256.706.033.728-.439l-.169-1.424a2.5,2.5,0,0,1,.29-1.166l.942.042,1.413.064c.471.022.6-.327.5-.685l-.641-1.445c-.1-.359-.193-.953-.193-.953a1.806,1.806,0,0,1,.728-.439l1.559-.519c.358-.1.492-.449.154-.82l-1.133-1a3.65,3.65,0,0,1-.551-.851c-.113-.123.257-.461.5-.686l1.232-1.124a.421.421,0,0,0-.2-.717l-1.392-.535c-.348-.134-.921-.514-.8-.627-.112-.123.022-.471.156-.818l.772-1.381c.134-.348-.091-.595-.562-.617l-1.413-.063a6.6,6.6,0,0,1-1.055-.166,1.527,1.527,0,0,1-.192-.953l.188-1.525c.022-.47-.325-.6-.683-.5Zm-2.96,7.89a2.029,2.029,0,0,1-3.406,2.2,1.854,1.854,0,0,1,.712-2.681,2.009,2.009,0,0,1,2.694.476" fill="#fff880"/><path d="M253.558,105.059a.959.959,0,0,0,.058-1.266l-1.692-1.853a1.129,1.129,0,0,0-1.265-.058l-2.881,1.9c-.615-.41-1.352-.95-1.968-1.359l.925-3.512a.862.862,0,0,0-.461-1.035l-2.111-.984a.8.8,0,0,0-1.158.328l-2.045,3.08a7.387,7.387,0,0,0-2.257-.609l-.343-3.568a.866.866,0,0,0-.847-.927l-2.411.017c-.374-.143-.772.22-.915.594l-.8,3.643a7.469,7.469,0,0,0-2.3.4L229.327,96.6a1.277,1.277,0,0,0-1.122-.431l-2.327.91a.862.862,0,0,0-.552.99l.729,3.459c-.651.351-1.313.955-1.963,1.307l-2.814-2.283a.819.819,0,0,0-1.145.075L218.41,102.2a.822.822,0,0,0-.179,1.135l2.019,3.01a10.322,10.322,0,0,0-1.493,2.089l-3.5-1.173a1.109,1.109,0,0,0-1.169.581l-.986,2.114a1.1,1.1,0,0,0,.448,1.289l2.959,1.91c-.288.749-.324,1.508-.613,2.257l-3.568.346a1.1,1.1,0,0,0-.807.979l-.1,2.279a1.1,1.1,0,0,0,.713,1.048l3.656.546a14.815,14.815,0,0,0,.389,2.557l-3.254,1.755a.8.8,0,0,0-.432,1.124l.788,2.192a1.187,1.187,0,0,0,1.11.685l3.593-.853c.351.651.7,1.3,1.053,1.951l-2.288,2.816a1.192,1.192,0,0,0,.074,1.145l1.692,1.853a.96.96,0,0,0,1.133.178l3.013-2.021c.615.41,1.352.95,1.968,1.358l-.923,3.512a.861.861,0,0,0,.46,1.036l2.232,1.117a1.084,1.084,0,0,0,1.157-.33l1.913-2.958c.76.033,1.508.321,2.269.355l.21,3.69a1.1,1.1,0,0,0,.978.806l2.4.235a1.528,1.528,0,0,0,.927-.846l.67-3.522c.892-.088,1.665-.307,2.556-.393l1.634,3.119a.869.869,0,0,0,1.122.432l2.193-.788a1.031,1.031,0,0,0,.687-1.112l-.73-3.459a9.127,9.127,0,0,0,1.963-1.308l2.815,2.285a.846.846,0,0,0,1.266.057l1.723-1.572a.847.847,0,0,0,.058-1.266l-2.02-3.011a6.339,6.339,0,0,0,1.493-2.089l3.5,1.173a.86.86,0,0,0,1.036-.459l1.119-2.234a1.28,1.28,0,0,0-.327-1.158l-3.08-2.042a6.462,6.462,0,0,0,.481-2.136l3.7-.468c.386-.109.783-.472.795-.725l.117-2.533a.865.865,0,0,0-.846-.926l-3.523-.667a13.733,13.733,0,0,0-.268-2.424l3-1.768a.925.925,0,0,0,.565-1.242l-.787-2.193a.8.8,0,0,0-1.121-.432l-3.582.6q-.526-.976-1.053-1.952l2.155-2.7m-15.625,11.35a3.678,3.678,0,0,1-.244,5.319,3.641,3.641,0,0,1-5.187-.361,3.678,3.678,0,1,1,5.431-4.958" fill="#fff880"/></svg>