<svg width="400" height="140" xmlns="http://www.w3.org/2000/svg">
 <title>swimlane-web-app-tools-library</title>

 <g>
  <title>background</title>
  <rect fill="none" id="canvas_background" height="142" width="402" y="-1" x="-1"/>
 </g>
 <g>
  <title>Layer 1</title>
  <rect id="svg_2" fill="#737373" transform="rotate(180 1013,381) " height="117" width="29" y="513" x="1505"/>
  <rect id="svg_4" fill="#8867c8" transform="rotate(-180 865,371) " height="127" width="59" y="493" x="1268"/>
  <g stroke="null" id="svg_44">
   <path stroke="null" id="svg_1" fill="#c8c8c8" d="m201.086608,134.338177l51.956771,0a1.813557,1.924934 0 0 1 1.816022,1.50374a1.752925,1.860578 0 0 1 -1.781516,2.158815l-51.961207,0a1.811093,1.922318 0 0 1 -1.8106,-1.498508a1.753418,1.861101 0 0 1 1.78053,-2.164047"/>
   <rect stroke="null" id="svg_3" fill="#b4a0ff" height="66.449211" width="16.2673" y="56.901301" x="272.07119"/>
   <rect stroke="null" id="svg_5" fill="#c7b8ff" height="20.928885" width="15.774352" y="64.749633" x="272.564139"/>
   <rect stroke="null" id="svg_6" fill="#a996f0" height="15.696664" width="15.774352" y="67.365744" x="272.564139"/>
   <rect stroke="null" id="svg_7" fill="#f0ae00" height="61.21699" width="10.351918" y="62.133523" x="289.817336"/>
   <rect stroke="null" id="svg_8" fill="#db9d00" height="1.569666" width="10.351918" y="103.991293" x="289.817336"/>
   <circle stroke="null" id="svg_9" fill="#ffcb40" r="3.184827" cy="111.578014" cx="295.486244"/>
   <rect stroke="null" id="svg_10" fill="#f0ae00" height="61.21699" width="10.351918" y="62.133523" x="301.6481"/>
   <rect stroke="null" id="svg_11" fill="#db9d00" height="1.569666" width="10.351918" y="103.991293" x="301.6481"/>
   <circle stroke="null" id="svg_12" fill="#ffcb40" r="3.184827" cy="111.578014" cx="306.824059"/>
   <path stroke="null" id="svg_13" fill="#939393" d="m218.375297,21.470791l-3.761197,-9.880527a1.823909,1.935922 0 0 0 -1.438424,-1.172018l-0.551116,-0.120864l-1.105191,8.346439l-2.666851,3.296299l-4.424706,-0.583393l-1.767713,-4.119851l1.105191,-8.229238l-0.55506,-0.116679a1.889965,2.006034 0 0 0 -1.654828,0.70478l-6.20425,8.461025a1.990033,2.112248 0 0 0 -0.220841,1.887262l3.75676,9.873202a2.021089,2.145211 0 0 0 1.438917,1.291312l0.782802,0.115109l-7.428241,56.60531l8.418081,1.300207l7.420847,-56.728267l0.771957,0.115109a1.902288,2.019114 0 0 0 1.669617,-0.703734l6.192419,-8.34487a2.273478,2.4131 0 0 0 0.221827,-1.996616"/>
   <path stroke="null" id="svg_14" fill="#b2b2b2" d="m218.375297,21.470791l-3.099167,-8.345916l-0.770971,5.872645l-2.764948,3.411932l-2.887692,-0.4709l-4.424706,-0.583393l-1.767713,-4.119851l1.105191,-8.229238l-0.330275,2.464376l-5.210466,6.937925a2.306999,2.44868 0 0 0 -0.220348,2.003941l3.772535,9.874248a1.823909,1.935922 0 0 0 1.433987,1.172018l0.887307,0.234404l-7.75408,57.020225l5.431799,0.82983l7.743728,-57.142136l0.771957,0.115109a1.902288,2.019114 0 0 0 1.669617,-0.703734l6.192419,-8.34487a2.273478,2.4131 0 0 0 0.221827,-1.996616"/>
   <path stroke="null" id="svg_15" fill="#c8c8c8" d="m105.947549,125.443401l111.415232,0a1.813557,1.924934 0 0 1 1.816022,1.50374a1.752925,1.860578 0 0 1 -1.779544,2.158815l-111.615369,0a1.8106,1.921795 0 0 1 -1.808135,-1.498508a1.752925,1.860578 0 0 1 1.774615,-2.164047"/>
   <path stroke="null" id="svg_16" fill="#106ebe" d="m245.94492,67.748219l-0.104998,-25.423887c0,-1.485428 -2.903467,-2.689362 -4.305412,-2.689362l-5.869538,0a2.536713,2.692501 0 0 0 -2.536713,2.692501l0,25.452141l-13.309609,15.225764l0,42.961246l37.489226,0l1.649899,-43.008859l-13.012854,-15.209544z"/>
   <path stroke="null" id="svg_17" fill="#c2c2c2" d="m193.912728,18.987056c-4.322172,-13.04759 -20.924185,-10.222191 -20.924185,-10.222191l-0.108449,0l-4.771741,0.523222l-0.32929,0a1.292018,1.371365 0 0 1 -0.333233,0.523222l-0.075421,0c-3.489582,0.954357 -5.629472,2.154106 -5.743836,2.630761c-0.22577,1.555016 -1.133782,2.032718 -1.586801,2.150443a4.796882,5.091475 0 0 1 -2.590444,-0.477702a20.093566,21.327581 0 0 0 -3.939151,-0.837155l-1.465536,0.361546l-1.013502,0.357884l-0.281474,0a1.691306,1.795175 0 0 0 -1.228428,2.010743l2.007779,8.842454a1.610463,1.709367 0 0 0 1.889472,1.180912l0.221334,0l2.664387,-0.70635s1.99447,-1.17725 2.881777,-2.3545a5.478137,5.814568 0 0 1 2.119679,-1.659661a2.172917,2.306363 0 0 1 1.330961,0.349512l0,-0.065403l0.220841,0.824598a1.743559,1.850637 0 0 0 1.993977,1.300207l2.543121,-0.704257l7.08712,32.439772l5.641795,-1.528332l-7.079726,-32.335128l2.542628,-0.583393a1.668138,1.770584 0 0 0 1.108641,-2.110155l-0.110913,-0.588625c7.420354,-5.761199 16.168711,0.353698 17.163481,0.703734"/>
   <path stroke="null" id="svg_18" fill="#939393" d="m190.143151,82.447099a1.651377,1.752794 0 0 1 -1.213639,2.124282l-8.85927,2.229973a1.654335,1.755933 0 0 1 -1.993977,-1.288696l-10.629448,-47.694314a1.590252,1.687915 0 0 1 1.21709,-1.996616l8.859763,-2.22945a1.642504,1.743376 0 0 1 1.98954,1.287126l10.629941,47.567694z"/>
   <path stroke="null" id="svg_19" fill="#737373" d="m170.211765,35.46803l-1.547858,0.354221a1.590252,1.687915 0 0 0 -1.21709,1.996092l10.513112,46.83152a1.652856,1.754364 0 0 0 1.993977,1.288696l1.546379,-0.4709l-11.28852,-49.99963z"/>
   <path stroke="null" id="svg_20" fill="#939393" d="m154.392555,24.147596l-1.8875,-8.731531a1.679476,1.782618 0 0 1 1.109134,-2.130037l-1.443353,0.354221l-0.9997,0.356837l-0.222813,0a1.691306,1.795175 0 0 0 -1.228921,2.010219l2.007286,8.847686a1.608491,1.707274 0 0 0 1.888979,1.176203l0.222813,0l2.66488,-0.705303l-0.112392,0.119818a1.751446,1.859008 0 0 1 -1.996934,-1.297591"/>
   <polygon stroke="null" id="svg_21" fill="#939393" points="169.32691955566406,22.546533584594727 167.44631958007812,23.015867233276367 170.2112579345703,35.469078063964844 171.99081420898438,34.99817657470703 169.32691955566406,22.546533584594727 "/>
   <path stroke="null" id="svg_22" fill="#737373" d="m183.370039,122.82729a2.007286,2.130561 0 0 1 -2.001371,-2.124282l0,-64.800538a2.07482,2.202242 0 0 1 2.010737,-2.140502l43.914809,0a2.054609,2.18079 0 0 1 1.890457,2.140502l0,64.907275a1.951583,2.071436 0 0 1 -1.890457,2.017545l-43.924175,0z"/>
   <path stroke="null" id="svg_23" fill="#505050" d="m184.246994,122.82729a1.888979,2.004987 0 0 1 -1.892429,-2.001325l0,-64.923495a1.974259,2.095505 0 0 1 1.898838,-2.140502l44.0203,0a1.974259,2.095505 0 0 1 1.896866,2.140502l0,64.915124a1.896866,2.013359 0 0 1 -1.900316,2.009696l-44.023258,0z"/>
   <rect stroke="null" id="svg_24" fill="#8867c8" height="58.077657" width="36.478188" y="59.517412" x="187.776998"/>
   <polygon stroke="null" id="svg_25" fill="#969696" points="226.2136688232422,88.81785583496094 226.3236083984375,90.9107437133789 227.62252807617188,90.9107437133789 227.9493408203125,88.81785583496094 226.2136688232422,88.81785583496094 "/>
   <rect stroke="null" id="svg_26" fill="#fff" height="41.334549" width="30.562806" y="66.3193" x="190.734689"/>
   <path stroke="null" id="svg_27" fill="#f0ae00" d="m215.915977,64.226411l-5.56736,0a4.20978,4.468317 0 1 0 -8.416603,0l-5.814327,0a0.953855,1.012435 0 0 0 -0.946461,1.046444l0,3.703366a0.94794,1.006156 0 0 0 0.944982,1.005633l19.794347,0a0.95632,1.015051 0 0 0 0.950405,-1.046444l0,-3.703366a0.944982,1.003017 0 0 0 -0.944982,-1.005633zm-12.162518,0a2.29714,2.438215 0 1 1 4.592308,0l-4.592308,0z"/>
   <path stroke="null" id="svg_28" fill="#4393d4" d="m247.916714,67.79374l0,-25.466268a2.536713,2.692501 0 0 0 -2.536713,-2.692501l-3.961334,0a2.545586,2.701919 0 0 1 2.554459,2.692501l0,25.452141l13.309609,15.225764l0,0.057031l-73.449325,0l-14.295506,-16.734737l0,-16.228258l68.10182,0a3.311628,3.515006 0 0 0 3.332332,-2.987075a3.242122,3.441232 0 0 0 -3.278107,-3.814813l-68.156044,0l0,-0.970054a2.536713,2.692501 0 0 0 -2.536713,-2.692501l-9.622355,0a2.629387,2.790867 0 0 0 -2.629387,2.790867l0,29.541645l-8.380124,11.059346l0,46.602349l114.856998,0l0,-46.602349l-13.309609,-15.233089z"/>
   <polygon stroke="null" id="svg_29" fill="#1d77c4" points="248.1395263671875,129.62918090820312 217.5579833984375,83.06240844726562 209.71665954589844,83.06240844726562 240.75367736816406,129.62918090820312 248.1395263671875,129.62918090820312 "/>
   <path stroke="null" id="svg_30" fill="#505050" d="m250.07435,136.979402l-0.535835,-1.921795l1.188992,-0.384045l0.52992,1.984058a0.58858,0.624727 0 0 1 -0.380063,0.799483l0,0a0.630974,0.669724 0 0 1 -0.803013,-0.477702z"/>
   <polygon stroke="null" id="svg_31" fill="#ffb900" points="235.81581115722656,69.90127563476562 231.3866729736328,71.25433349609375 229.19747924804688,71.9319076538086 245.36375427246094,130.75985717773438 247.611083984375,130.0943145751953 251.98207092285156,128.72923278808594 235.81581115722656,69.90127563476562 "/>
   <polygon stroke="null" id="svg_32" fill="#505050" points="229.2837371826172,69.5057144165039 229.8881072998047,71.6980209350586 235.1355438232422,70.07603454589844 234.47251892089844,67.87797546386719 229.2837371826172,69.5057144165039 "/>
   <polygon stroke="null" id="svg_33" fill="#737373" points="251.48812866210938,135.7053680419922 251.98207092285156,128.72923278808594 245.36375427246094,130.75985717773438 249.36697387695312,136.33529663085938 251.48812866210938,135.7053680419922 "/>
   <polygon stroke="null" id="svg_34" fill="#db9d00" points="229.19747924804688,71.9319076538086 245.36375427246094,130.75985717773438 247.611083984375,130.0943145751953 231.3866729736328,71.25433349609375 229.19747924804688,71.9319076538086 "/>
   <path stroke="null" id="svg_35" fill="#db9d00" d="m234.070284,63.601161a0.985897,1.046444 0 0 0 -1.217583,-0.75501l-2.508615,0.807332c-0.246474,0.074298 -0.621608,0.184174 -0.995263,0.296667c-0.306614,0.062263 -0.679283,0.172663 -0.928222,0.246438l-0.317952,0.124004a1.018432,1.080977 0 0 0 -0.649213,1.304916l1.139697,4.114096l2.196578,-0.739313l4.374918,-1.360378l-1.094346,-4.038752z"/>
   <path stroke="null" id="svg_36" fill="#cc8e02" d="m230.720206,68.736063l-1.245681,-4.509652a0.382528,0.40602 0 0 0 -0.37612,-0.201441a5.560459,5.901946 0 0 1 -0.677804,0.172663l0,0a1.405889,1.49223 0 0 0 -0.908504,1.754364l0.966179,3.453266c0.080844,0.20301 0.23908,0.29876 0.374148,0.201441l1.619829,-0.482411a0.319431,0.339048 0 0 0 0.247953,-0.388231z"/>
   <polygon stroke="null" id="svg_37" fill="#ffb900" points="248.97604370117188,117.66361236572266 246.61582946777344,109.2303237915039 247.49771118164062,108.9106216430664 249.7948455810547,117.3946762084961 248.97604370117188,117.66361236572266 "/>
   <polygon stroke="null" id="svg_38" fill="#ffb900" points="248.97604370117188,117.66361236572266 246.61582946777344,109.2303237915039 247.12405395507812,109.02312469482422 249.47738647460938,117.51606750488281 248.97604370117188,117.66361236572266 "/>
   <path stroke="null" id="svg_39" fill="#106ebe" d="m165.101368,67.79374l0,-25.466791a2.535727,2.691455 0 0 0 -2.53622,-2.691978l-5.771934,0a2.536713,2.692501 0 0 0 -2.536713,2.692501l0,25.466268l-13.309609,15.232566l0,46.602872l37.464085,0l0,-46.602872l-13.309609,-15.232566zm7.542112,-2.413624a3.302755,3.505588 0 1 1 3.302755,-3.505588a3.302755,3.505588 0 0 1 -3.302755,3.505588"/>
   <rect stroke="null" id="svg_40" fill="#d2d2d2" height="4.185777" width="3.943588" y="73.121187" x="194.185329"/>
   <rect stroke="null" id="svg_41" fill="#d2d2d2" height="4.185777" width="3.943588" y="78.876631" x="194.185329"/>
   <rect stroke="null" id="svg_42" fill="#d2d2d2" height="1.569666" width="16.2673" y="74.167632" x="200.593659"/>
   <rect stroke="null" id="svg_43" fill="#d2d2d2" height="1.569666" width="16.2673" y="79.923075" x="200.593659"/>
  </g>
 </g>
</svg>