<svg xmlns="http://www.w3.org/2000/svg" viewBox="0 0 636 300"><title>swimlane-web-app-tools-library</title><path d="M317,270H422.4a3.679,3.679,0,0,1,3.684,2.874A3.556,3.556,0,0,1,422.47,277H317.061a3.674,3.674,0,0,1-3.673-2.864A3.557,3.557,0,0,1,317,270" fill="#c8c8c8"/><rect x="492" y="132" width="29" height="117" transform="translate(1013 381) rotate(180)" fill="#737373"/><rect x="461" y="122" width="33" height="127" fill="#b4a0ff"/><rect x="403" y="122" width="59" height="127" transform="translate(865 371) rotate(-180)" fill="#8867c8"/><rect x="462" y="137" width="32" height="40" fill="#c7b8ff"/><rect x="462" y="142" width="32" height="30" fill="#a996f0"/><rect x="497" y="132" width="21" height="117" fill="#f0ae00"/><rect x="497" y="212" width="21" height="3" fill="#db9d00"/><circle cx="508.5" cy="226.5" r="6.5" fill="#ffcb40"/><rect x="521" y="132" width="21" height="117" fill="#f0ae00"/><rect x="521" y="212" width="21" height="3" fill="#db9d00"/><circle cx="531.5" cy="226.5" r="6.5" fill="#ffcb40"/><path d="M352.072,54.284,344.442,35.4a3.7,3.7,0,0,0-2.918-2.24l-1.118-.231-2.242,15.952-5.41,6.3-8.976-1.115-3.586-7.874,2.242-15.728-1.126-.223a3.834,3.834,0,0,0-3.357,1.347L305.365,47.759a4.037,4.037,0,0,0-.448,3.607l7.621,18.87a4.1,4.1,0,0,0,2.919,2.468l1.588.22L301.976,181.11l17.077,2.485L334.107,75.174l1.566.22a3.859,3.859,0,0,0,3.387-1.345L351.622,58.1a4.612,4.612,0,0,0,.45-3.816" fill="#939393"/><path d="M352.072,54.284l-6.287-15.951-1.564,11.224-5.609,6.521-5.858-.9-8.976-1.115-3.586-7.874,2.242-15.728-.67,4.71-10.57,13.26a4.68,4.68,0,0,0-.447,3.83L318.4,71.133a3.7,3.7,0,0,0,2.909,2.24l1.8.448L307.379,182.8l11.019,1.586L334.107,75.174l1.566.22a3.859,3.859,0,0,0,3.387-1.345L351.622,58.1a4.612,4.612,0,0,0,.45-3.816" fill="#b2b2b2"/><path d="M124,253H350.018a3.679,3.679,0,0,1,3.684,2.874,3.556,3.556,0,0,1-3.61,4.126H123.668A3.673,3.673,0,0,1,120,257.136,3.556,3.556,0,0,1,123.6,253" fill="#c8c8c8"/><path d="M408,142.731l-.213-48.591c0-2.839-5.89-5.14-8.734-5.14H387.146A5.146,5.146,0,0,0,382,94.146v48.645l-27,29.1V254h76.051l3.347-82.2Z" fill="#106ebe"/><path d="M302.447,49.537C293.679,24.6,260,30,260,30h-.22L250.1,31h-.668a2.621,2.621,0,0,1-.676,1h-.153c-7.079,1.824-11.42,4.117-11.652,5.028-.458,2.972-2.3,3.885-3.219,4.11a9.731,9.731,0,0,1-5.255-.913,40.762,40.762,0,0,0-7.991-1.6l-2.973.691L215.457,40h-.571a3.431,3.431,0,0,0-2.492,3.843l4.073,16.9A3.267,3.267,0,0,0,220.3,63h.449l5.405-1.35S230.2,59.4,232,57.15a11.113,11.113,0,0,1,4.3-3.172,4.408,4.408,0,0,1,2.7.668v-.125l.448,1.576a3.537,3.537,0,0,0,4.045,2.485l5.159-1.346,14.377,62,11.445-2.921-14.362-61.8L265.27,53.4a3.384,3.384,0,0,0,2.249-4.033l-.225-1.125c15.053-11.011,32.8.676,34.818,1.345" fill="#c2c2c2"/><path d="M294.8,170.824a3.35,3.35,0,0,1-2.462,4.06l-17.972,4.262a3.356,3.356,0,0,1-4.045-2.463L248.758,85.528a3.226,3.226,0,0,1,2.469-3.816L269.2,77.451a3.332,3.332,0,0,1,4.036,2.46Z" fill="#939393"/><path d="M254.367,81.036l-3.14.677a3.226,3.226,0,0,0-2.469,3.815l21.327,89.506a3.353,3.353,0,0,0,4.045,2.463l3.137-.9Z" fill="#737373"/><path d="M222.276,59.4l-3.829-16.688a3.407,3.407,0,0,1,2.25-4.071l-2.928.677L215.741,40h-.452a3.431,3.431,0,0,0-2.493,3.842l4.072,16.91A3.263,3.263,0,0,0,220.7,63h.452l5.406-1.348-.228.229a3.553,3.553,0,0,1-4.051-2.48" fill="#939393"/><polygon points="252.572 56.34 248.757 57.237 254.366 81.038 257.976 80.138 252.572 56.34" fill="#939393"/><path d="M281.06,248a4.072,4.072,0,0,1-4.06-4.06V120.091A4.209,4.209,0,0,1,281.079,116h89.086A4.168,4.168,0,0,1,374,120.091V244.144A3.959,3.959,0,0,1,370.165,248Z" fill="#737373"/><path d="M282.839,248A3.832,3.832,0,0,1,279,244.175V120.091A4.005,4.005,0,0,1,282.852,116h89.3A4.005,4.005,0,0,1,376,120.091V244.159A3.848,3.848,0,0,1,372.145,248Z" fill="#505050"/><rect x="290" y="127" width="74" height="111" fill="#8867c8"/><polygon points="367.973 183 368.196 187 370.831 187 371.494 183 367.973 183" fill="#969696"/><rect x="296" y="140" width="62" height="79" fill="#fff"/><path d="M347.083,136H335.789a8.54,8.54,0,1,0-17.074,0H306.92a1.935,1.935,0,0,0-1.92,2v7.078A1.923,1.923,0,0,0,306.917,147h40.155A1.94,1.94,0,0,0,349,145v-7.078A1.917,1.917,0,0,0,347.083,136Zm-24.673,0a4.66,4.66,0,1,1,9.316,0Z" fill="#f0ae00"/><path d="M412,142.818V94.146A5.146,5.146,0,0,0,406.854,89h-8.036A5.164,5.164,0,0,1,404,94.146v48.645l27,29.1V172H282l-29-31.984V109H391.152a6.718,6.718,0,0,0,6.76-5.709A6.577,6.577,0,0,0,391.262,96H253V94.146A5.146,5.146,0,0,0,247.854,89h-19.52A5.334,5.334,0,0,0,223,94.334v56.461l-17,21.137V261H439V171.932Z" fill="#4393d4"/><polygon points="412.452 261 350.414 172 334.507 172 397.469 261 412.452 261" fill="#1d77c4"/><path d="M416.377,275.048l-1.087-3.673,2.412-.734,1.075,3.792a1.194,1.194,0,0,1-.771,1.528h0A1.28,1.28,0,0,1,416.377,275.048Z" fill="#505050"/><polygon points="387.452 146.846 378.467 149.432 374.026 150.727 406.821 263.161 411.38 261.889 420.247 259.28 387.452 146.846" fill="#ffb900"/><polygon points="374.201 146.09 375.427 150.28 386.072 147.18 384.727 142.979 374.201 146.09" fill="#505050"/><polygon points="419.245 272.613 420.247 259.28 406.821 263.161 414.942 273.817 419.245 272.613" fill="#737373"/><polygon points="374.026 150.727 406.821 263.161 411.38 261.889 378.467 149.432 374.026 150.727" fill="#db9d00"/><path d="M383.911,134.805a2,2,0,0,0-2.47-1.443l-5.089,1.543c-.5.142-1.261.352-2.019.567-.622.119-1.378.33-1.883.471l-.645.237a2.066,2.066,0,0,0-1.317,2.494l2.312,7.863,4.456-1.413,8.875-2.6Z" fill="#db9d00"/><path d="M377.115,144.619,374.588,136a.776.776,0,0,0-.763-.385,11.28,11.28,0,0,1-1.375.33h0a2.852,2.852,0,0,0-1.843,3.353l1.96,6.6c.164.388.485.571.759.385l3.286-.922A.648.648,0,0,0,377.115,144.619Z" fill="#cc8e02"/><polygon points="414.149 238.131 409.361 222.013 411.15 221.402 415.81 237.617 414.149 238.131" fill="#ffb900"/><polygon points="414.149 238.131 409.361 222.013 410.392 221.617 415.166 237.849 414.149 238.131" fill="#ffb900"/><path d="M244,142.818V94.145A5.144,5.144,0,0,0,238.855,89H227.146A5.146,5.146,0,0,0,222,94.146v48.672l-27,29.113V261h76V171.931Zm-11.7-33.726a6.7,6.7,0,1,1,6.7-6.7,6.7,6.7,0,0,1-6.7,6.7" fill="#106ebe"/><rect x="303" y="153" width="8" height="8" fill="#d2d2d2"/><rect x="303" y="164" width="8" height="8" fill="#d2d2d2"/><rect x="316" y="155" width="33" height="3" fill="#d2d2d2"/><rect x="316" y="166" width="33" height="3" fill="#d2d2d2"/></svg>