<svg id="Layer_1" data-name="Layer 1" xmlns="http://www.w3.org/2000/svg" viewBox="0 0 64 64"><defs><style>.cls-1{fill:#3498db;}</style></defs><title>logo_xamarin</title><path class="cls-1" d="M18.47,2a5.08,5.08,0,0,0-4.29,2.48L.64,28a5.11,5.11,0,0,0,0,5L14.18,56.46a5.08,5.08,0,0,0,4.29,2.48H45.53a5.08,5.08,0,0,0,4.29-2.48L63.36,33a5.11,5.11,0,0,0,0-5L49.82,4.48A5.08,5.08,0,0,0,45.53,2Zm.3,13.7h4.76A.61.61,0,0,1,24,16l7.89,14.06a.61.61,0,0,1,.07.23.61.61,0,0,1,.07-.23L39.94,16a.61.61,0,0,1,.53-.3h4.65a.64.64,0,0,1,.53.89l-7.7,13.77,7.7,13.75a.64.64,0,0,1-.53.91H40.47a.62.62,0,0,1-.53-.32L32.07,30.64a.61.61,0,0,1-.07-.23.6.6,0,0,1-.07.23L24,44.7a.61.61,0,0,1-.51.32H18.88a.64.64,0,0,1-.53-.91l7.7-13.75-7.7-13.77a.63.63,0,0,1,.41-.89Z"/></svg>