<?xml version="1.0" encoding="utf-8"?>
<!-- Generator: Adobe Illustrator 20.1.0, SVG Export Plug-In . SVG Version: 6.00 Build 0)  -->
<svg version="1.1" id="Layer_1" xmlns="http://www.w3.org/2000/svg" xmlns:xlink="http://www.w3.org/1999/xlink" x="0px" y="0px"
	 viewBox="0 0 200 144" style="enable-background:new 0 0 200 144;" xml:space="preserve">
<style type="text/css">
	.st0{opacity:0.3;fill:#00BCF2;}
	.st1{fill:#00B294;}
	.st2{clip-path:url(#SVGID_2_);}
	
		.st3{fill-rule:evenodd;clip-rule:evenodd;fill:none;stroke:#BAD80A;stroke-width:1.5437;stroke-linecap:round;stroke-linejoin:round;stroke-miterlimit:10;}
	.st4{fill:#464646;}
	.st5{fill:#231F20;}
	.st6{fill-rule:evenodd;clip-rule:evenodd;fill:#5C2D91;}
	.st7{fill-rule:evenodd;clip-rule:evenodd;fill:none;stroke:#5C2D91;stroke-width:0.721;stroke-miterlimit:10;}
	
		.st8{fill-rule:evenodd;clip-rule:evenodd;fill:none;stroke:#5C2D91;stroke-width:0.721;stroke-miterlimit:10;stroke-dasharray:0.721,0.721;}
	.st9{opacity:0.3;fill:#E3008C;}
	.st10{fill:#FFFFFF;}
	.st11{fill:#737373;}
	.st12{fill:#333333;}
	.st13{fill:none;stroke:#FFFFFF;stroke-width:0.1454;stroke-linecap:round;stroke-linejoin:round;stroke-miterlimit:10;}
	.st14{fill:#737374;}
	.st15{fill:#515050;}
	.st16{fill:none;stroke:#000000;stroke-width:0.2907;stroke-miterlimit:1;}
	.st17{fill:none;}
	.st18{opacity:0.3;fill:#BAD80A;}
	.st19{fill:#B4A0FF;}
	.st20{fill:#393939;}
	.st21{fill:#E73C00;}
	.st22{opacity:0.3;fill:#B4A0FF;}
	.st23{fill:#00BCF2;}
	.st24{fill:#019FB5;}
</style>
<g>
	<rect class="st9" width="200" height="144"/>
	<g>
		<g>
			<polygon class="st10" points="111.7,92.3 88.1,51.4 111.7,10.5 158.9,10.5 182.5,51.4 158.9,92.3 			"/>
		</g>
		<g>
			<polygon class="st11" points="41.1,133.5 17.5,92.6 41.1,51.7 88.3,51.7 111.9,92.6 88.3,133.5 			"/>
		</g>
		<g>
			<g>
				<path class="st10" d="M68.4,80.8c1,0,1.8-0.2,2.7-0.4c2-0.5,3.8-1.4,5.4-2.7c0.3-0.2,0.5-0.5,0.8-0.8c0.3-0.3,0.3-0.6,0.1-0.9
					c-0.5-0.6-0.9-1.3-1.4-1.9c-2.5-2.7-5.6-4.5-9.2-5.5c-0.5-0.1-1-0.3-1.5-0.4c0.8,0.1,1.7,0.2,2.5,0.3c3.3,0.5,6.3,1.6,9.1,3.5
					c1.3,0.8,2.4,1.8,3.4,3c0.3,0.3,0.5,0.7,0.6,1.1c0.2,0.3,0.1,0.6-0.1,0.9c-0.4,0.5-0.8,1-1.2,1.4c-2.6,2.5-5.7,4-9.3,4.6
					c-2.2,0.4-4.5,0.4-6.7-0.1c-1.3-0.3-2.4-0.7-3.5-1.5c-1.9-1.3-2.7-3.2-2.6-5.4c0.1-3.1,2.2-5.4,5.3-6c3.3-0.6,6.7,1.9,7.2,5.2
					c0.3,1.9-0.3,3.7-1.5,5.2C68.5,80.6,68.5,80.7,68.4,80.8z M67.4,76.4c0-2-1.6-3.6-3.6-3.6c-2,0-3.6,1.6-3.6,3.6
					c0,2,1.6,3.6,3.6,3.6C65.9,79.9,67.4,78.3,67.4,76.4z"/>
				<path class="st10" d="M60.9,83.4c-3.7-0.3-7.3-1.2-10.5-3.2c-1.2-0.7-2.3-1.6-3.1-2.7c-0.7-0.9-0.7-1.3,0-2.2
					c0.9-1.2,2-2.1,3.3-3c3.2-2.2,6.8-3.5,10.6-4c0.2,0,0.5,0,0.7-0.1c-0.9,0.3-1.9,0.6-2.8,1c-3,1.3-5.6,3.1-7.8,5.6
					c-0.3,0.3-0.5,0.7-0.8,1.1c-0.2,0.3-0.2,0.6,0,0.8c0.3,0.5,0.7,1.1,1.1,1.6c1.3,1.4,2.8,2.4,4.5,3.2c1.5,0.7,3,1.3,4.5,1.7
					C60.7,83.4,60.8,83.4,60.9,83.4z"/>
				<path class="st10" d="M61.5,102.4c-0.3,0-0.5,0-0.8,0c0-2.6,0-5.3,0-7.9c0.2,0,0.5,0,0.7,0c0.1,0,0.2,0.1,0.3,0.2
					c1.4,2,2.9,3.9,4.3,5.9c0.1,0.1,0.2,0.2,0.3,0.4c0-2.2,0-4.3,0-6.5c0.3,0,0.5,0,0.8,0c0,2.6,0,5.3,0,7.9c-0.2,0-0.5,0-0.7,0
					c-0.1,0-0.2-0.1-0.2-0.2c-1.4-2-2.9-3.9-4.3-5.9c-0.1-0.1-0.2-0.2-0.3-0.4C61.5,98.1,61.5,100.2,61.5,102.4z"/>
				<path class="st10" d="M86,95.9c0,1.2,0,2.2,0,3.3c0,1.1,0,2.1,0,3.2c-0.3,0-0.6,0-0.8,0c0-2.6,0-5.2,0-7.9
					c0.5-0.2,0.8-0.1,1.1,0.3c1.4,1.9,2.8,3.9,4.2,5.8c0.1,0.1,0.1,0.2,0.2,0.3c0-2.2,0-4.3,0-6.4c0.3,0,0.5,0,0.8,0
					c0,2.6,0,5.2,0,7.9c-0.2,0-0.5,0-0.7,0c-0.1,0-0.2-0.1-0.3-0.2c-1.4-2-2.9-4-4.3-5.9C86.2,96.2,86.1,96.1,86,95.9z"/>
				<path class="st10" d="M77,98.9c-0.9,0-1.7,0-2.7,0c0.2-0.3,0.3-0.6,0.5-0.8c0,0,0.1-0.1,0.1-0.1c1,0,1.9,0,2.9,0
					c0.2,1.5-0.6,3.5-2.6,4.2c-1.9,0.7-3.9-0.1-4.9-1.8c-1-1.7-0.5-3.9,1.1-5.1c1.5-1.2,3.7-1.1,5,0.1c-0.1,0.1-0.1,0.2-0.2,0.4
					c-0.1,0.1-0.1,0.2-0.2,0.3c-1.6-1-3-1-4.2,0c-1.1,0.9-1.3,2.5-0.7,3.7c0.6,1.3,2,1.9,3.4,1.7C75.8,101.3,76.9,100.2,77,98.9z"/>
				<path class="st10" d="M36.7,94.5c0.3,0,0.5,0,0.7,0c0.9,0,1.8,0,2.7,0.1c1.7,0.2,2.5,2.3,1.4,3.6c-0.3,0.4-0.7,0.6-1.2,0.7
					c-0.1,0-0.2,0.1-0.3,0.1c0.7,1.1,1.4,2.2,2.2,3.4c-0.4,0-0.7,0-1,0c-0.1,0-0.2-0.1-0.2-0.2c-0.6-1-1.2-1.9-1.8-2.9
					c-0.1-0.2-0.2-0.2-0.4-0.2c-0.4,0-0.8,0-1.2,0c0,1.1,0,2.2,0,3.3c-0.3,0-0.6,0-0.8,0C36.7,99.8,36.7,97.2,36.7,94.5z M37.6,98.3
					c0.6,0,1.2,0,1.8,0c0.2,0,0.3,0,0.5-0.1c0.8-0.1,1.2-0.6,1.2-1.3c0-0.9-0.3-1.5-1.1-1.6c-0.8-0.1-1.6-0.1-2.4-0.1
					C37.6,96.3,37.6,97.3,37.6,98.3z"/>
				<path class="st10" d="M33.9,100.5c0.2,0.2,0.4,0.4,0.6,0.5c-0.6,0.9-2.3,1.7-4,1.3c-1.7-0.4-2.9-1.9-3-3.6
					c-0.1-1.7,0.9-3.3,2.5-4c1.5-0.6,3.4-0.2,4.5,1c-0.2,0.2-0.3,0.5-0.5,0.7c-1.4-1.6-3.5-1.4-4.7-0.2c-1.2,1.2-1.2,3.1-0.1,4.3
					C30.3,101.8,32.4,102.1,33.9,100.5z"/>
				<path class="st10" d="M50.7,94.5c-0.7,1.2-1.4,2.3-2.1,3.4c-0.9,1.4-1.7,2.8-2.6,4.2c-0.2,0.3-0.3,0.4-0.7,0.4
					c-0.1,0-0.2,0-0.4,0c0.1-0.1,0.1-0.2,0.2-0.3c0.6-0.9,1.1-1.8,1.7-2.7c0.1-0.2,0.1-0.4,0-0.6c-0.8-1.3-1.6-2.7-2.4-4
					c-0.1-0.1-0.1-0.2-0.2-0.3c0.3,0,0.6,0,0.8,0c0.1,0,0.1,0.1,0.2,0.1c0.8,1.2,1.5,2.5,2.3,3.7c0.7-1.2,1.4-2.3,2.1-3.5
					c0.2-0.3,0.3-0.4,0.6-0.4C50.3,94.5,50.5,94.5,50.7,94.5z"/>
				<path class="st10" d="M80.8,94.5c0.3,0,0.5,0,0.8,0c0,2.6,0,5.3,0,7.9c-0.3,0-0.5,0-0.8,0C80.8,99.8,80.8,97.2,80.8,94.5z"/>
				<path class="st10" d="M100.3,97.9c0,0.3,0,0.5,0,0.7c-1.8,0-3.6,0-5.4,0c0-0.2,0-0.5,0-0.7C96.7,97.9,98.5,97.9,100.3,97.9z"/>
				<path class="st10" d="M57.7,97.9c0,0.3,0,0.5,0,0.8c-1.8,0-3.6,0-5.4,0c0-0.3,0-0.5,0-0.8C54.2,97.9,55.9,97.9,57.7,97.9z"/>
				<path class="st10" d="M57.8,101.7c0,0.2,0,0.5,0,0.7c-1.8,0-3.6,0-5.4,0c0-0.2,0-0.5,0-0.7C54.1,101.7,55.9,101.7,57.8,101.7z"
					/>
				<path class="st10" d="M94.9,102.4c0-0.2,0-0.5,0-0.7c1.8,0,3.6,0,5.4,0c0,0.2,0,0.5,0,0.7C98.5,102.4,96.8,102.4,94.9,102.4z"/>
				<path class="st10" d="M94.9,95.2c0-0.2,0-0.5,0-0.7c1.8,0,3.6,0,5.4,0c0,0.2,0,0.5,0,0.7C98.5,95.2,96.8,95.2,94.9,95.2z"/>
				<path class="st10" d="M57.7,94.5c0,0,0,0.1,0,0.1c0,0.2,0,0.4,0,0.6c-1.5,0-3,0-4.6,0c0.2-0.2,0.3-0.5,0.4-0.7
					c0-0.1,0.1-0.1,0.2-0.1C55.1,94.5,56.4,94.5,57.7,94.5C57.7,94.5,57.7,94.5,57.7,94.5z"/>
			</g>
			<g>
				<path class="st10" d="M102.8,95.3c-0.3,0-0.5-0.1-0.7-0.3c-0.2-0.2-0.3-0.4-0.3-0.7c0-0.3,0.1-0.5,0.3-0.7
					c0.2-0.2,0.4-0.3,0.7-0.3c0.3,0,0.5,0.1,0.7,0.3c0.2,0.2,0.3,0.4,0.3,0.7c0,0.3-0.1,0.5-0.3,0.7
					C103.3,95.2,103.1,95.3,102.8,95.3z M102.8,93.5c-0.2,0-0.4,0.1-0.6,0.2c-0.1,0.1-0.2,0.3-0.2,0.6c0,0.2,0.1,0.4,0.2,0.6
					c0.2,0.1,0.3,0.2,0.6,0.2c0.2,0,0.4-0.1,0.6-0.2c0.2-0.2,0.2-0.3,0.2-0.6c0-0.2-0.1-0.4-0.2-0.6C103.2,93.6,103,93.5,102.8,93.5
					z M103.3,94.9H103l-0.1-0.3c0-0.1-0.1-0.2-0.1-0.2h-0.1v0.5h-0.3v-1.2h0.4c0.3,0,0.5,0.1,0.5,0.3c0,0.2-0.1,0.3-0.3,0.3v0
					c0.1,0,0.1,0.1,0.2,0.2L103.3,94.9z M102.7,93.9v0.3h0.1c0.1,0,0.2,0,0.2-0.1C103,94,102.9,93.9,102.7,93.9L102.7,93.9z"/>
			</g>
		</g>
		<g>
			<polygon class="st12" points="115,35.6 111.1,49.9 159,49.9 155.6,35.6 151.8,33 145.6,32.8 142.1,33.4 127.3,33.4 124.2,32.3 
				118.8,33.4 			"/>
			<polygon class="st13" points="115,35.6 111.1,49.9 159,49.9 155.6,35.6 151.8,33 145.6,32.8 142.1,33.4 127.3,33.4 124.2,32.3 
				118.8,33.4 			"/>
			<path d="M155.5,35.4c-0.1-0.4-0.4-1.1-0.4-1.3c-0.1-0.3-0.7-0.6-1.5-1.1c-0.8-0.4-3.7-1.8-4.7-2c-1.1-0.3-2-0.3-2.6-0.3
				c-0.6,0-1.2,0.2-1.6,0.4c-0.4,0.2-1.8,1.1-2.4,1.1l-7,0l-7,0c-0.6,0-2-0.9-2.4-1.1c-0.4-0.2-1-0.3-1.6-0.3c-0.6,0-1.6,0-2.6,0.3
				c-1.1,0.2-3.9,1.6-4.7,2c-0.9,0.4-1.4,0.8-1.5,1.1c-0.1,0.3-0.5,1.5-0.5,1.5c1.8-1.1,6.7-2.5,8.6-2.5c1.8,0,2.6,1.7,3.9,3.4
				c1.9,2.5,2.4,2.9,3.7,2.9l8,0c1.3,0,1.8-0.4,3.7-2.9c1.3-1.8,2.1-3.4,3.9-3.4c1.8,0,6.7,1.4,8.6,2.5L155.5,35.4z"/>
			<path class="st12" d="M157.3,37.2c-0.5-1.4-1.7-1.7-1.7-1.7s-0.1-0.1-0.1-0.2l-0.2,0.2c-1.8-1.1-6.7-2.5-8.6-2.5
				c-1.8,0-2.6,1.7-3.9,3.4c-1.8,2.5-2.4,2.9-3.7,2.9l-8,0c-1.3,0-1.8-0.3-3.7-2.9c-1.3-1.8-2.1-3.4-3.9-3.4c-1.8,0-6.7,1.4-8.6,2.5
				c0,0-1.1,0.3-1.7,1.7c-0.7,1.8-6.8,17.2-6.8,23.2c0,8,5.8,8.8,6.4,8.8c0.5,0,6.6-6.2,8.5-8.1c1.9-1.8,3.5-1.8,4.7-1.8l9.2,0
				l9.2,0c1.2,0,2.8,0,4.7,1.8c1.9,1.8,8,8.1,8.5,8.1c0.6,0,6.4-0.8,6.4-8.8C164.1,54.4,158,39,157.3,37.2"/>
			<path class="st14" d="M148.1,51.6c0,3-2.5,5.4-5.4,5.4c-3,0-5.4-2.5-5.4-5.4c0-3,2.5-5.4,5.4-5.4
				C145.7,46.2,148.1,48.6,148.1,51.6"/>
			<path class="st12" d="M147.4,51.6c0,2.6-2.1,4.7-4.7,4.7c-2.6,0-4.7-2.1-4.7-4.7c0-2.6,2.1-4.7,4.7-4.7
				C145.3,46.9,147.4,49,147.4,51.6"/>
			<path class="st14" d="M132.5,51.6c0,2.6-2.1,4.7-4.7,4.7c-2.6,0-4.7-2.1-4.7-4.7c0-2.6,2.1-4.7,4.7-4.7
				C130.4,46.9,132.5,49,132.5,51.6"/>
			<path d="M124.7,48c-1.1,0.9-1.7,2.2-1.7,3.6c0,2.6,2.1,4.7,4.7,4.7c1.4,0,2.7-0.6,3.6-1.7L124.7,48z"/>
			<path class="st15" d="M142.7,56.3c1.4,0,2.5-0.5,3.4-1.5l-6.7-6.7c-0.9,0.9-1.5,2.1-1.5,3.4C137.9,54.2,140,56.3,142.7,56.3"/>
			<path class="st14" d="M125.9,42.1c0,3.1-2.4,5.4-5.4,5.4c-3,0-5.4-2.4-5.4-5.4c0-3,2.5-5.4,5.4-5.4
				C123.5,36.7,125.9,39.2,125.9,42.1"/>
			<path class="st12" d="M125.2,42.1c0,2.6-2.1,4.7-4.7,4.7c-2.6,0-4.7-2.1-4.7-4.7c0-2.5,2.1-4.7,4.7-4.7
				C123,37.4,125.2,39.6,125.2,42.1"/>
			<path class="st15" d="M120.4,46.9c1.4,0,2.5-0.5,3.4-1.4l-6.7-6.7c-0.9,0.9-1.5,2.1-1.5,3.4C115.7,44.8,117.8,46.9,120.4,46.9"/>
			<path d="M152,46.3c0,1.2-1,2.2-2.1,2.2c-1.2,0-2.2-1-2.2-2.2c0-1.1,1-2.1,2.2-2.1C151.1,44.1,152,45.1,152,46.3"/>
			<path d="M152,38.6c0,1.1-1,2.1-2.1,2.1c-1.2,0-2.2-1-2.2-2.1c0-1.2,1-2.2,2.2-2.2C151.1,36.4,152,37.4,152,38.6"/>
			<path d="M155.7,42.5c0,1.2-1,2.2-2.1,2.2c-1.2,0-2.2-1-2.2-2.2c0-1.1,1-2.1,2.2-2.1C154.8,40.4,155.7,41.3,155.7,42.5"/>
			<path d="M148.4,42.5c0,1.2-1,2.2-2.2,2.2c-1.1,0-2.1-1-2.1-2.2c0-1.1,1-2.1,2.1-2.1C147.4,40.4,148.4,41.3,148.4,42.5"/>
			<path class="st15" d="M145.9,51.6c0,1.8-1.5,3.2-3.2,3.2c-1.8,0-3.2-1.5-3.2-3.2s1.4-3.2,3.2-3.2
				C144.4,48.4,145.9,49.8,145.9,51.6"/>
			<path d="M132.6,42.6c0,0.8-0.6,1.5-1.4,1.5s-1.4-0.7-1.4-1.5c0-0.8,0.6-1.4,1.4-1.4C132,41.2,132.6,41.8,132.6,42.6"/>
			<path d="M140.8,42.5c0,0.8-0.6,1.4-1.4,1.4c-0.8,0-1.4-0.6-1.4-1.4c0-0.8,0.6-1.4,1.4-1.4C140.2,41.1,140.8,41.7,140.8,42.5"/>
			<path class="st14" d="M131.5,50.2l-2.4,0l0-2.4c0-0.3-0.2-0.4-0.4-0.4l-2,0c-0.3,0-0.4,0.2-0.4,0.4l0,2.4l-2.4,0
				c-0.3,0-0.4,0.2-0.4,0.4l0,1.9c0,0.3,0.2,0.4,0.4,0.4l2.4,0l0,2.4c0,0.3,0.2,0.4,0.4,0.4l2,0c0.2,0,0.4-0.2,0.4-0.4l0-2.4l2.4,0
				c0.3,0,0.4-0.2,0.4-0.4l0-1.9C132,50.4,131.8,50.2,131.5,50.2"/>
			<path class="st14" d="M140.5,49.2c-0.6,0.6-1,1.5-1,2.4c0,1.8,1.4,3.2,3.2,3.2c1,0,1.8-0.4,2.4-1.1L140.5,49.2z"/>
			<path class="st15" d="M123.7,42.1c0,1.8-1.4,3.2-3.2,3.2c-1.8,0-3.2-1.4-3.2-3.2c0-1.8,1.4-3.2,3.2-3.2
				C122.3,39,123.7,40.4,123.7,42.1"/>
			<path class="st14" d="M118.2,39.9c-0.6,0.5-1,1.4-1,2.3c0,1.8,1.4,3.2,3.2,3.2c1,0,1.8-0.4,2.4-1.1L118.2,39.9z"/>
			<path class="st15" d="M131.5,50.2l-2.4,0l0-2.4c0-0.3-0.2-0.4-0.4-0.4l-2,0c-0.3,0-0.4,0.2-0.4,0.4l0,2.4l2.8,2.8l2.4,0
				c0.3,0,0.4-0.2,0.4-0.4l0-1.9C132,50.4,131.8,50.2,131.5,50.2"/>
			<circle class="st16" cx="142.7" cy="51.6" r="2.5"/>
			<path class="st16" d="M123,42.1c0,1.4-1.1,2.5-2.5,2.5c-1.4,0-2.5-1.1-2.5-2.5c0-1.3,1.1-2.5,2.5-2.5
				C121.8,39.7,123,40.8,123,42.1z"/>
			<rect x="106.6" y="30.8" class="st17" width="57.8" height="38.6"/>
		</g>
	</g>
</g>
</svg>
