<?xml version="1.0" encoding="utf-8"?>
<!-- Generator: Adobe Illustrator 20.1.0, SVG Export Plug-In . SVG Version: 6.00 Build 0)  -->
<svg version="1.1" id="Layer_1" xmlns="http://www.w3.org/2000/svg" xmlns:xlink="http://www.w3.org/1999/xlink" x="0px" y="0px"
	 viewBox="0 0 200 144" style="enable-background:new 0 0 200 144;" xml:space="preserve">
<style type="text/css">
	.st0{opacity:0.3;fill:#B4A0FF;}
	.st1{fill:#E6E6E6;}
	.st2{fill:#2E2E2E;}
	.st3{fill:#08BBF1;}
	.st4{fill:#5D5F5E;}
	.st5{fill:#0BC8F4;}
	.st6{fill:#FFFFFF;}
	.st7{opacity:0.3;fill:#FFF100;}
	.st8{fill:#721481;}
	.st9{fill:#00BCF2;}
	.st10{opacity:0.3;fill:#00BCF2;}
	.st11{fill:#3E3E3E;}
	.st12{fill:#B8D432;}
	.st13{fill:#59B4D9;}
	.st14{opacity:0.3;fill:#BAD80A;}
	.st15{fill:#4889A8;}
	.st16{fill:#929090;}
	.st17{fill:#96BBCD;}
	.st18{fill:#3A5C71;}
	.st19{fill:#FAB516;}
	.st20{fill:#F5891F;}
	.st21{fill:#CB6D29;}
	.st22{fill:#757575;stroke:#757575;stroke-width:2;stroke-miterlimit:10;}
</style>
<rect class="st14" width="200" height="144"/>
<g>
	<g>
		<g>
			<rect x="111.6" y="43.5" class="st16" width="4" height="19.9"/>
		</g>
		<g>
			<rect x="179.1" y="43.5" class="st16" width="4" height="19.9"/>
		</g>
	</g>
	<g>
		<g>
			<rect x="104" y="36.7" class="st17" width="24.2" height="24.2"/>
		</g>
		<g>
			<rect x="127.8" y="36.7" class="st15" width="63.2" height="24.2"/>
		</g>
		<rect x="105.3" y="48.2" class="st15" width="20.8" height="1.4"/>
		<rect x="105.3" y="52.8" class="st15" width="20.8" height="1.4"/>
		<rect x="105.4" y="43.6" class="st15" width="20.8" height="1.4"/>
		<g>
			<polygon class="st18" points="131,38.3 129.8,38.3 129.8,38.9 131,40.4 131,59.1 132.5,59.1 132.5,38.3 			"/>
			<polygon class="st18" points="144.9,59.1 146.4,59.1 146.4,38.3 144.9,38.3 143.6,38.3 143.6,38.9 144.9,40.4 			"/>
			<polygon class="st18" points="158.8,59.1 160.3,59.1 160.3,38.3 158.8,38.3 157.5,38.3 157.5,38.9 158.8,40.4 			"/>
			<polygon class="st18" points="172.7,59.1 174.2,59.1 174.2,38.3 172.7,38.3 171.4,38.3 171.4,38.9 172.7,40.4 			"/>
			<polygon class="st18" points="186.6,38.3 185.3,38.3 185.3,38.9 186.6,40.4 186.6,59.1 188,59.1 188,38.3 			"/>
		</g>
	</g>
</g>
<g>
	<g>
		<g>
			<rect x="111.7" y="17.1" class="st16" width="4" height="19.9"/>
		</g>
		<g>
			<rect x="179.1" y="17.1" class="st16" width="4" height="19.9"/>
		</g>
	</g>
	<g>
		<g>
			<rect x="104" y="10.3" class="st17" width="24.2" height="24.2"/>
		</g>
		<g>
			<rect x="127.8" y="10.3" class="st15" width="63.2" height="24.2"/>
		</g>
		<rect x="105.4" y="21.8" class="st15" width="20.8" height="1.4"/>
		<rect x="105.4" y="26.4" class="st15" width="20.8" height="1.4"/>
		<rect x="105.4" y="17.3" class="st15" width="20.8" height="1.4"/>
		<g>
			<polygon class="st18" points="131,12 129.8,12 129.8,12.5 131,14 131,32.8 132.5,32.8 132.5,12 			"/>
			<polygon class="st18" points="144.9,32.8 146.4,32.8 146.4,12 144.9,12 143.7,12 143.7,12.5 144.9,14 			"/>
			<polygon class="st18" points="158.8,32.8 160.3,32.8 160.3,12 158.8,12 157.5,12 157.5,12.5 158.8,14 			"/>
			<polygon class="st18" points="172.7,32.8 174.2,32.8 174.2,12 172.7,12 171.4,12 171.4,12.5 172.7,14 			"/>
			<polygon class="st18" points="186.6,12 185.3,12 185.3,12.5 186.6,14 186.6,32.8 188.1,32.8 188.1,12 			"/>
		</g>
	</g>
</g>
<g>
	<g>
		<g>
			<rect x="111.6" y="95.8" class="st16" width="4" height="19.9"/>
		</g>
		<g>
			<rect x="179.1" y="95.8" class="st16" width="4" height="19.9"/>
		</g>
	</g>
	<g>
		<g>
			<rect x="104" y="89" class="st17" width="24.2" height="24.2"/>
		</g>
		<g>
			<rect x="127.8" y="89" class="st15" width="63.2" height="24.2"/>
		</g>
		<rect x="105.3" y="100.5" class="st15" width="20.8" height="1.4"/>
		<rect x="105.3" y="105.1" class="st15" width="20.8" height="1.4"/>
		<rect x="105.4" y="95.9" class="st15" width="20.8" height="1.4"/>
		<g>
			<polygon class="st18" points="131,90.6 129.8,90.6 129.8,91.2 131,92.7 131,111.4 132.5,111.4 132.5,90.6 			"/>
			<polygon class="st18" points="144.9,111.4 146.4,111.4 146.4,90.6 144.9,90.6 143.6,90.6 143.6,91.2 144.9,92.7 			"/>
			<polygon class="st18" points="158.8,111.4 160.3,111.4 160.3,90.6 158.8,90.6 157.5,90.6 157.5,91.2 158.8,92.7 			"/>
			<polygon class="st18" points="172.7,111.4 174.2,111.4 174.2,90.6 172.7,90.6 171.4,90.6 171.4,91.2 172.7,92.7 			"/>
			<polygon class="st18" points="186.6,90.6 185.3,90.6 185.3,91.2 186.6,92.7 186.6,111.4 188,111.4 188,90.6 			"/>
		</g>
	</g>
</g>
<g>
	<g>
		<g>
			<rect x="111.6" y="122.1" class="st16" width="4" height="19.9"/>
		</g>
		<g>
			<rect x="179.1" y="122.1" class="st16" width="4" height="19.9"/>
		</g>
	</g>
	<g>
		<g>
			<rect x="104" y="115.3" class="st17" width="24.2" height="24.2"/>
		</g>
		<g>
			<rect x="127.8" y="115.3" class="st15" width="63.2" height="24.2"/>
		</g>
		<rect x="105.3" y="126.8" class="st15" width="20.8" height="1.4"/>
		<rect x="105.3" y="131.4" class="st15" width="20.8" height="1.4"/>
		<rect x="105.4" y="122.3" class="st15" width="20.8" height="1.4"/>
		<g>
			<polygon class="st18" points="131,117 129.8,117 129.8,117.5 131,119 131,137.8 132.5,137.8 132.5,117 			"/>
			<polygon class="st18" points="144.9,137.8 146.4,137.8 146.4,117 144.9,117 143.6,117 143.6,117.5 144.9,119 			"/>
			<polygon class="st18" points="158.8,137.8 160.3,137.8 160.3,117 158.8,117 157.5,117 157.5,117.5 158.8,119 			"/>
			<polygon class="st18" points="172.7,137.8 174.2,137.8 174.2,117 172.7,117 171.4,117 171.4,117.5 172.7,119 			"/>
			<polygon class="st18" points="186.6,117 185.3,117 185.3,117.5 186.6,119 186.6,137.8 188,137.8 188,117 			"/>
		</g>
	</g>
</g>
<g>
	<g>
		<g>
			<rect x="111.6" y="69.7" class="st16" width="4" height="19.9"/>
		</g>
		<g>
			<rect x="179.1" y="69.7" class="st16" width="4" height="19.9"/>
		</g>
	</g>
	<g>
		<g>
			<rect x="104" y="62.9" class="st19" width="24.2" height="24.2"/>
		</g>
		<g>
			<rect x="127.8" y="62.9" class="st20" width="63.2" height="24.2"/>
		</g>
		<rect x="105.3" y="74.4" class="st20" width="20.8" height="1.4"/>
		<rect x="105.3" y="79" class="st20" width="20.8" height="1.4"/>
		<rect x="105.4" y="69.8" class="st20" width="20.8" height="1.4"/>
		<g>
			<polygon class="st21" points="131,64.5 129.8,64.5 129.8,65.1 131,66.6 131,85.3 132.5,85.3 132.5,64.5 			"/>
			<polygon class="st21" points="144.9,85.3 146.4,85.3 146.4,64.5 144.9,64.5 143.6,64.5 143.6,65.1 144.9,66.6 			"/>
			<polygon class="st21" points="158.8,85.3 160.3,85.3 160.3,64.5 158.8,64.5 157.5,64.5 157.5,65.1 158.8,66.6 			"/>
			<polygon class="st21" points="172.7,85.3 174.2,85.3 174.2,64.5 172.7,64.5 171.4,64.5 171.4,65.1 172.7,66.6 			"/>
			<polygon class="st21" points="186.6,64.5 185.3,64.5 185.3,65.1 186.6,66.6 186.6,85.3 188,85.3 188,64.5 			"/>
		</g>
	</g>
</g>
<g>
	<g>
		<g>
			<rect x="16.7" y="95.8" class="st16" width="4" height="19.9"/>
		</g>
		<g>
			<rect x="84.1" y="95.8" class="st16" width="4" height="19.9"/>
		</g>
	</g>
	<g>
		<g>
			<rect x="9" y="89" class="st17" width="24.2" height="24.2"/>
		</g>
		<g>
			<rect x="32.8" y="89" class="st15" width="63.2" height="24.2"/>
		</g>
		<rect x="10.4" y="100.5" class="st15" width="20.8" height="1.4"/>
		<rect x="10.4" y="105.1" class="st15" width="20.8" height="1.4"/>
		<rect x="10.4" y="95.9" class="st15" width="20.8" height="1.4"/>
		<g>
			<polygon class="st18" points="36,90.6 34.8,90.6 34.8,91.2 36,92.7 36,111.4 37.5,111.4 37.5,90.6 			"/>
			<polygon class="st18" points="49.9,111.4 51.4,111.4 51.4,90.6 49.9,90.6 48.7,90.6 48.7,91.2 49.9,92.7 			"/>
			<polygon class="st18" points="63.8,111.4 65.3,111.4 65.3,90.6 63.8,90.6 62.5,90.6 62.5,91.2 63.8,92.7 			"/>
			<polygon class="st18" points="77.7,111.4 79.2,111.4 79.2,90.6 77.7,90.6 76.4,90.6 76.4,91.2 77.7,92.7 			"/>
			<polygon class="st18" points="91.6,90.6 90.3,90.6 90.3,91.2 91.6,92.7 91.6,111.4 93.1,111.4 93.1,90.6 			"/>
		</g>
	</g>
</g>
<g>
	<g>
		<g>
			<rect x="16.7" y="122.1" class="st16" width="4" height="19.9"/>
		</g>
		<g>
			<rect x="84.1" y="122.1" class="st16" width="4" height="19.9"/>
		</g>
	</g>
	<g>
		<g>
			<rect x="9" y="115.3" class="st17" width="24.2" height="24.2"/>
		</g>
		<g>
			<rect x="32.8" y="115.3" class="st15" width="63.2" height="24.2"/>
		</g>
		<rect x="10.4" y="126.8" class="st15" width="20.8" height="1.4"/>
		<rect x="10.4" y="131.4" class="st15" width="20.8" height="1.4"/>
		<rect x="10.4" y="122.3" class="st15" width="20.8" height="1.4"/>
		<g>
			<polygon class="st18" points="36,117 34.8,117 34.8,117.5 36,119 36,137.8 37.5,137.8 37.5,117 			"/>
			<polygon class="st18" points="49.9,137.8 51.4,137.8 51.4,117 49.9,117 48.7,117 48.7,117.5 49.9,119 			"/>
			<polygon class="st18" points="63.8,137.8 65.3,137.8 65.3,117 63.8,117 62.5,117 62.5,117.5 63.8,119 			"/>
			<polygon class="st18" points="77.7,137.8 79.2,137.8 79.2,117 77.7,117 76.4,117 76.4,117.5 77.7,119 			"/>
			<polygon class="st18" points="91.6,117 90.3,117 90.3,117.5 91.6,119 91.6,137.8 93.1,137.8 93.1,117 			"/>
		</g>
	</g>
</g>
<rect x="52.7" y="1" class="st22" width="1" height="17.2"/>
<g>
	<g>
		<g>
			<rect x="16.7" y="24.1" class="st16" width="4" height="19.9"/>
		</g>
		<g>
			<rect x="84.1" y="24.1" class="st16" width="4" height="19.9"/>
		</g>
	</g>
	<g>
		<g>
			<rect x="9" y="17.3" class="st19" width="24.2" height="24.2"/>
		</g>
		<g>
			<rect x="32.8" y="17.3" class="st20" width="63.2" height="24.2"/>
		</g>
		<rect x="10.4" y="28.8" class="st20" width="20.8" height="1.4"/>
		<rect x="10.4" y="33.4" class="st20" width="20.8" height="1.4"/>
		<rect x="10.4" y="24.3" class="st20" width="20.8" height="1.4"/>
		<g>
			<polygon class="st21" points="36,19 34.8,19 34.8,19.5 36,21 36,39.8 37.5,39.8 37.5,19 			"/>
			<polygon class="st21" points="49.9,39.8 51.4,39.8 51.4,19 49.9,19 48.7,19 48.7,19.5 49.9,21 			"/>
			<polygon class="st21" points="63.8,39.8 65.3,39.8 65.3,19 63.8,19 62.5,19 62.5,19.5 63.8,21 			"/>
			<polygon class="st21" points="77.7,39.8 79.2,39.8 79.2,19 77.7,19 76.4,19 76.4,19.5 77.7,21 			"/>
			<polygon class="st21" points="91.6,19 90.3,19 90.3,19.5 91.6,21 91.6,39.8 93.1,39.8 93.1,19 			"/>
		</g>
	</g>
</g>
</svg>
