<svg width="636" height="300" viewBox="0 0 636 300" fill="none" xmlns="http://www.w3.org/2000/svg">
<path d="M453.48 118.22V40.66C453.48 38.89 452.39 37.36 451.03 37.24L357.59 29.11C356.01 28.97 354.73 30.42 354.73 32.34V116.43L453.48 118.22Z" fill="#B3AFAB"/>
<path d="M455.48 118.22V40.66C455.48 38.89 454.39 37.36 453.03 37.24L359.59 29.11C358.01 28.97 356.73 30.42 356.73 32.34V116.43L455.48 118.22Z" fill="#6D6A66"/>
<path d="M371.67 108.05L362.62 107.82V36.51L371.67 37.24V108.05Z" fill="#908D89"/>
<path d="M450.99 110.03L371.67 108.05V37.24L450.99 43.7V110.03Z" fill="#F7B548"/>
<path d="M369.09 50.44L364.57 50.12V44.58L369.09 44.92V50.44Z" fill="#B3AFAB"/>
<path d="M369.09 58.32L364.57 58.03V52.49L369.09 52.8V58.32Z" fill="#B3AFAB"/>
<path d="M369.09 65.41L364.57 65.15V59.61L369.09 59.9V65.41Z" fill="#B3AFAB"/>
<path d="M369.09 73.3L364.57 73.06V67.52L369.09 67.78V73.3Z" fill="#B3AFAB"/>
<path d="M369.09 80.39L364.57 80.18V74.64L369.09 74.88V80.39Z" fill="#B3AFAB"/>
<path d="M369.09 88.28L364.57 88.09V82.55L369.09 82.76V88.28Z" fill="#B3AFAB"/>
<path d="M356.74 116.3V117.6C356.74 118.05 357.05 118.43 357.47 118.51L401.96 127.6C403.02 127.79 405.12 127.96 406.21 127.95L499.58 128.67C499.79 128.67 499.96 128.55 499.96 128.41V125.88C499.96 125.72 499.79 125.59 499.56 125.58L372.8 118.32L356.74 116.3Z" fill="#9C9894"/>
<path d="M356.9 116.34L402.58 124.63C404.06 124.88 405.58 124.99 407.1 124.98L499.67 125.59L455.4 118.14L356.9 116.34Z" fill="#CCCAC7"/>
<path d="M418.66 85.81C417.86 85.8 417.3 85.75 417.32 87.42C417.35 89.72 417.41 91.48 416.92 95.05C416.43 98.63 417.03 100.12 418.87 100.41C420.98 100.74 421.88 98.9 423.68 97.53C425.12 96.44 426.75 95.21 427.55 94.7C428.34 94.19 428.41 93.08 427.03 91.71C425.85 90.55 425.15 89.92 425.1 88.18C425.06 86.44 424.44 86.01 423.83 87.13C423.21 88.25 422.15 89.42 420.74 88.97C419.69 88.64 419.48 87.88 419.51 87.02C419.53 86.17 419.21 85.82 418.66 85.81Z" fill="white"/>
<path d="M416.42 92.41L415.84 97.97C415.84 97.97 413.74 97.7 412.39 97.65C411.04 97.6 408.69 97.7 408.69 97.7L408.58 95.24C408.58 95.24 410.82 95.87 413.02 94.91C415.22 93.95 416.42 92.41 416.42 92.41Z" fill="white"/>
<path d="M403.3 85.45C403.3 85.45 405.91 90.45 406.48 91.39C407.37 92.84 408.51 90.98 407 89.35C404.97 87.18 403.3 85.45 403.3 85.45Z" fill="white"/>
<path d="M395.72 88.01C397.54 87.36 397.86 87.66 399.45 85.22C401.04 82.79 401.67 84.24 402.71 86C403.74 87.76 406.62 93.04 407.36 94.43C408.11 95.82 408.08 97.87 407.1 98.8C406.12 99.72 405.22 100.62 402.88 99.27C400.52 97.91 397.64 97.26 396.52 96.9C395.4 96.54 394.69 96.16 394.88 94.21C395.07 92.26 395.15 91.12 395.01 90C394.86 88.89 394.77 88.35 395.72 88.01Z" fill="white"/>
<path d="M409.73 62.29C409.77 62.4 409.65 62.57 409.45 62.67C409.26 62.77 409.07 62.76 409.03 62.65C408.99 62.54 409.11 62.37 409.31 62.27C409.51 62.17 409.69 62.18 409.73 62.29Z" fill="white"/>
<path d="M419.94 85.21C419.9 85.25 419.87 85.27 419.84 85.3C420.03 85.56 420.17 86 420.1 86.77C420 87.82 420.62 88.43 421.43 88.29C422.67 88.08 423.39 86.49 423.62 85.91C422.32 84.75 420.37 84.83 419.94 85.21Z" fill="white"/>
<path d="M413.97 63.32C413.76 63.2 413.56 63.08 413.37 62.97C414.39 62.35 414.46 60.95 413.67 60.2C412.96 59.52 412.3 60.2 412.23 60.92C412.19 61.36 412.2 61.89 412.25 62.32C411.53 61.91 410.91 61.64 410.25 61.63C409.9 61.63 409.43 61.84 408.96 62.14C409.05 60.14 408.59 59.46 407.81 59.77C407.02 60.08 407.19 61.7 408.13 62.78C407.8 63.07 407.51 63.38 407.32 63.64C406.71 64.47 406.53 64.98 407.64 66.55C408.97 68.42 410.27 69.1 412.04 68.02C414.03 66.8 414.96 66.17 415.01 65.11C415.05 64.04 414.54 63.65 413.97 63.32ZM413.29 60.46C413.37 60.38 413.54 60.49 413.68 60.7C413.82 60.91 413.86 61.14 413.79 61.22C413.71 61.3 413.54 61.19 413.4 60.98C413.26 60.77 413.21 60.54 413.29 60.46ZM410.8 62.34C410.83 62.23 411.02 62.21 411.22 62.3C411.42 62.39 411.56 62.56 411.53 62.67C411.5 62.78 411.31 62.8 411.11 62.71C410.91 62.62 410.77 62.46 410.8 62.34ZM408.25 60.04C408.34 59.99 408.49 60.16 408.58 60.4C408.67 60.65 408.66 60.88 408.56 60.93C408.47 60.98 408.32 60.81 408.23 60.57C408.15 60.32 408.16 60.09 408.25 60.04ZM413.99 65.16C412.92 65.93 410.86 67.28 409.79 67.07C408.72 66.86 407.88 66.32 407.34 65.65C406.92 65.12 406.94 64.76 407.41 65.25C407.88 65.74 408.58 66.27 409.74 66.46C410.9 66.64 412.75 65.27 413.83 64.69C414.54 64.3 415.05 64.39 413.99 65.16Z" fill="white"/>
<path d="M420.65 70.54C417.93 66 418.09 63.42 417.89 60.08C417.69 56.74 416.69 51.07 410.74 51.17C405.16 51.27 405.85 58.21 406.04 61.43C406.22 64.66 406.62 67.34 404.81 69.9C403 72.47 400.84 77.1 400.13 79.36C399.28 82.08 399.53 83.9 399.53 83.9C399.53 83.9 399.98 83.16 401 83.15C401.24 83.15 401.46 83.2 401.65 83.27C400.84 80.44 402.6 76.14 403.2 75.23C403.46 74.84 403.6 74.61 403.39 75.18C402.63 77.21 401.36 80.41 402.16 83.57C402.44 83.8 402.6 84.03 402.6 84.03C402.6 84.03 402.18 79.3 404.75 74.93C405.41 73.8 406.67 73.47 406.67 73.47C406.67 73.47 404.45 72.89 406.47 69.95C407.41 68.59 407.06 66.45 407.06 66.45C407.06 66.45 406.36 65.92 406.36 64.67C406.36 63.43 407.3 62.73 407.3 62.73C407.3 62.73 406.55 61.27 406.95 59.38C407.35 57.5 408.49 57.51 409.28 58.81C410.07 60.1 409.65 61.06 409.65 61.06L411.28 61.16C411.28 61.16 411.1 59.91 411.4 59.24C411.7 58.57 412.21 57.85 413.14 57.86C414.07 57.86 415.22 58.97 415.24 60.64C415.26 62.31 414.87 63.2 414.87 63.2C414.87 63.2 415.84 63.98 415.44 65.31C415.05 66.64 415.18 66.85 415.32 67.29C415.46 67.73 416.42 70.43 418.14 75.55C419.85 80.66 419.3 84.93 419.3 84.93C419.3 84.93 419.52 84.95 419.73 85.15C419.75 85.12 419.76 85.09 419.78 85.06C419.85 84.94 420.18 84.73 420.65 84.61C422.99 79.48 420.3 75.95 419.41 75.09C419.03 74.72 419.25 74.9 419.44 75.03C422.05 76.89 422.48 80.82 421.19 84.52C421.95 84.48 422.9 84.72 423.81 85.68C424.07 85.72 424.63 85.76 424.77 85.33C426.01 81.6 423.36 75.07 420.65 70.54ZM414.26 55.14C413.84 55.46 413.6 54.75 413.6 54.53C413.6 53.75 414.16 53.4 414.5 53.94C414.85 54.49 414.67 54.82 414.26 55.14ZM417.81 67.74C417.33 68.31 416.6 67.93 416.29 66.62C416.15 66.04 416.29 65.76 416.87 66.17C417.44 66.57 418.29 67.17 417.81 67.74Z" fill="white"/>
<path d="M265.11 148.28V43.5C265.11 41.12 263.4 39.06 261.29 38.91L110.96 27.83C108.35 27.64 106.23 29.64 106.23 32.3C106.23 32.3 106.23 139.19 106.23 141.64C106.23 144.08 108.22 145.31 108.22 145.31L265.11 148.28Z" fill="#B3AFAB"/>
<path d="M191.31 40.04L188.79 39.87V37.17L191.31 37.35V40.04Z" fill="#848484"/>
<path fill-rule="evenodd" clip-rule="evenodd" d="M114.63 129.8C114.63 131.08 115.74 132.23 116.99 132.23L256.31 132.9C257.42 132.91 258.31 131.9 258.31 130.66V50.36C258.31 49.12 257.41 48.05 256.31 47.98L117.21 38.69C115.79 38.6 114.64 39.7 114.64 41.15V129.38" fill="#848484"/>
<path d="M267.11 148.28V43.5C267.11 41.12 265.4 39.06 263.29 38.91L112.96 27.83C110.35 27.64 108.23 29.64 108.23 32.3V146.9L267.11 148.28Z" fill="#625F5B"/>
<path d="M193.31 40.04L190.79 39.87V37.17L193.31 37.35V40.04Z" fill="#B3AFAB"/>
<path fill-rule="evenodd" clip-rule="evenodd" d="M116.63 129.8C116.63 131.08 117.74 132.23 118.99 132.23L258.31 132.9C259.42 132.91 260.31 131.9 260.31 130.66V50.36C260.31 49.12 259.41 48.05 258.31 47.98L119.21 38.69C117.79 38.6 116.64 39.7 116.64 41.15V129.38" fill="#29C3E5"/>
<path d="M108.21 145.39V147.49C108.21 148.22 108.73 148.83 109.45 148.96L175.98 160.34C177.78 160.64 181.37 160.93 183.22 160.9L343 158.74L342.81 155.18L126.64 145.93L108.21 145.39Z" fill="#9C9894"/>
<path d="M108.21 145.13L177.35 156.11C179.87 156.51 182.46 156.69 185.04 156.67L343.56 155.1L266.49 144.64L108.21 145.13Z" fill="#CCCAC7"/>
<path d="M396.99 96.68L225.98 90.72C221.96 90.58 218.68 94.07 218.68 98.51V223.5V224.99V239.51C218.68 243.31 221.49 246.19 224.94 245.92L397.01 234.49C399.65 234.29 401.78 231.45 401.78 228.14V215.52L402.56 103.87C402.56 100.01 400.07 96.79 396.99 96.68Z" fill="#B3AFAB"/>
<path d="M294.18 235.94L290.18 257.88C289.8 262.6 293.37 266.79 297.96 268.01L310.16 272.97C315.07 274.45 319.67 274.66 323.82 274.16L362.83 269.82C366.76 269.65 366.48 265.98 361.31 265.51L336.91 262.68C333.07 262.25 329.45 259.21 330.17 255.15L334.17 231.93L294.18 235.94Z" fill="#BBB8B4"/>
<path d="M404.35 215.52L405.13 103.87C405.13 100.01 402.64 96.79 399.56 96.69L228.55 90.73C224.53 90.59 221.25 94.08 221.25 98.52V225C221.25 225.64 221.72 226.12 222.3 226.09L403.56 216.58C403.99 216.54 404.35 216.07 404.35 215.52Z" fill="#625F5B"/>
<path d="M221.24 223.5V239.52C221.24 243.33 224.05 246.2 227.5 245.93L399.57 234.5C402.21 234.3 404.34 231.46 404.34 228.15V214.23L221.24 223.5Z" fill="#DDDBDA"/>
<path d="M322.04 226.88C322.04 228.91 320.64 230.66 318.91 230.78C317.18 230.9 315.77 229.34 315.77 227.3C315.77 225.26 317.18 223.51 318.91 223.4C320.65 223.29 322.04 224.85 322.04 226.88Z" fill="#C8C6C4"/>
<path d="M396.64 207.75L230.35 215.08V102.17L397.42 106.63L396.64 207.75Z" fill="#8DBCF4"/>
<path d="M397.42 105.86L230.35 101.29V105.67L397.42 109.71V105.86Z" fill="#C7E0F4"/>
<path d="M365.62 199.74L267.86 203.43C267.05 203.47 266.39 204.25 266.39 205.17V212.88L366.89 208.37V201.23C366.89 200.37 366.33 199.71 365.62 199.74Z" fill="#3085E9"/>
<path d="M295.68 209.5L292.41 209.67C292.03 209.69 291.73 209.35 291.73 208.92V205.13C291.73 204.7 292.03 204.33 292.41 204.31L295.68 204.15C296.05 204.13 296.36 204.47 296.36 204.9V208.67C296.35 209.11 296.05 209.48 295.68 209.5Z" fill="#8DBCF4"/>
<path d="M286.72 207.39C286.72 208.96 285.61 210.3 284.23 210.37C282.85 210.44 281.73 209.22 281.73 207.64C281.73 206.06 282.85 204.72 284.23 204.66C285.6 204.59 286.72 205.81 286.72 207.39Z" fill="#8DBCF4"/>
<path d="M306.34 206.26C306.34 207.81 305.26 209.13 303.93 209.2C302.59 209.27 301.51 208.06 301.51 206.51C301.51 204.96 302.6 203.64 303.93 203.57C305.26 203.5 306.34 204.71 306.34 206.26Z" fill="#8DBCF4"/>
<path d="M316.26 205.9C316.26 207.44 315.2 208.74 313.88 208.81C312.56 208.88 311.49 207.68 311.49 206.14C311.49 204.6 312.56 203.29 313.88 203.23C315.19 203.16 316.26 204.36 316.26 205.9Z" fill="#8DBCF4"/>
<path d="M324.93 208.42L321.8 208.58C321.44 208.6 321.15 208.27 321.15 207.85V204.15C321.15 203.73 321.44 203.37 321.8 203.35L324.93 203.2C325.29 203.18 325.58 203.51 325.58 203.93V207.62C325.58 208.04 325.29 208.4 324.93 208.42Z" fill="#8DBCF4"/>
<path d="M343.18 207.56L340.14 207.72C339.79 207.74 339.51 207.41 339.51 207V203.35C339.51 202.93 339.79 202.58 340.14 202.56L343.18 202.41C343.53 202.39 343.81 202.72 343.81 203.13V206.77C343.81 207.19 343.52 207.55 343.18 207.56Z" fill="#8DBCF4"/>
<path d="M276.51 210.37L271.74 210.62V205.18L276.51 204.95V210.37Z" fill="#8DBCF4"/>
<path d="M361.92 206.39L358.96 206.54C358.62 206.56 358.35 206.24 358.35 205.83V202.23C358.35 201.82 358.62 201.47 358.96 201.46L361.92 201.32C362.26 201.3 362.53 201.62 362.53 202.03V205.62C362.53 206.03 362.26 206.38 361.92 206.39Z" fill="#8DBCF4"/>
<path d="M334.67 205.13C334.67 206.65 333.64 207.93 332.36 208C331.08 208.07 330.04 206.89 330.04 205.36C330.04 203.84 331.08 202.55 332.36 202.49C333.64 202.43 334.67 203.61 334.67 205.13Z" fill="#8DBCF4"/>
<path d="M353.41 204.47C353.41 205.97 352.41 207.23 351.16 207.3C349.92 207.37 348.91 206.2 348.91 204.7C348.91 203.2 349.92 201.93 351.16 201.87C352.4 201.81 353.41 202.98 353.41 204.47Z" fill="#8DBCF4"/>
<path d="M514.28 178.56L478.42 179.19C475.93 179.17 473.91 177.15 473.91 174.66V97.36C473.91 94.78 476.05 92.73 478.63 92.83L514.49 94.28C516.92 94.38 518.84 96.38 518.84 98.81V174.03C518.84 176.54 516.79 178.58 514.28 178.56Z" fill="#605D5A"/>
<path d="M513.44 175.46L479.27 176.1C477.92 176.09 476.83 175 476.83 173.65V98.23C476.83 96.84 477.99 95.72 479.38 95.78L513.55 97.16C514.86 97.21 515.9 98.29 515.9 99.61V173.01C515.91 174.37 514.8 175.47 513.44 175.46Z" fill="#3E8EED"/>
<path d="M515.91 104.97V99.61C515.91 98.29 514.87 97.21 513.56 97.16L479.39 95.78C478 95.72 476.84 96.84 476.84 98.23V103.59L515.91 104.97Z" fill="#605D5A"/>
<path d="M508.67 111.58L483.17 110.76C482.52 110.73 482.09 110.15 482.03 109.53C481.98 108.98 482.61 108.37 483.26 108.39L508.76 109.21C509.41 109.24 509.92 109.79 509.9 110.44C509.87 111.09 509.32 111.6 508.67 111.58Z" fill="#98C2F5"/>
<path d="M496.76 170.96C499.356 170.96 501.46 168.856 501.46 166.26C501.46 163.664 499.356 161.56 496.76 161.56C494.164 161.56 492.06 163.664 492.06 166.26C492.06 168.856 494.164 170.96 496.76 170.96Z" fill="#98C2F5"/>
<path d="M512.55 157.24H480.78V115.88L512.55 116.82V157.24Z" fill="#98C2F5"/>
<path d="M180.53 85.82L180.68 65.2L160.09 67L159.95 85.05L180.53 85.82Z" fill="white"/>
<path d="M183.91 85.94L210.47 86.93L210.63 62.58L184.06 64.91L183.91 85.94Z" fill="white"/>
<path d="M183.88 89.51L183.73 110.7L210.28 115.14L210.45 90.44L183.88 89.51Z" fill="white"/>
<path d="M180.5 89.39L159.93 88.68V106.73L180.35 110.14L180.5 89.39Z" fill="white"/>
<path d="M290.49 149.94C288.1 149.95 286.78 151.35 286.1 152.54C285.38 150.92 283.93 149.98 282.09 149.99C280.52 150 279.19 150.75 278.29 152.1C278.28 151.43 278.25 150.86 278.25 150.76L278.23 150.39L276.19 150.4L276.2 150.8C276.22 152.02 276.22 153.48 276.21 154.82L276.15 166.82L278.22 166.78L278.26 157.8C278.27 155.15 279.24 152.31 281.91 152.29C283.81 152.28 284.68 153.54 284.67 156.27L284.62 166.67L286.64 166.64L286.68 157.31C286.69 154.15 288.01 152.25 290.2 152.24C292.54 152.22 293.02 154.36 293.01 156.16L292.96 166.53L294.98 166.5L295.03 155.96C295.07 150.35 291.57 149.93 290.49 149.94Z" fill="white"/>
<path d="M308.38 162.98L308.41 155.06C308.42 151.6 306.74 149.86 303.38 149.88C299.19 149.9 298.41 153.16 298.27 154.56L298.23 154.99L300.2 154.97L300.27 154.68C300.56 153.46 300.89 152.07 303.35 152.05C306.09 152.03 306.44 153.74 306.43 155.23V156.41L304.24 156.43C298.78 156.49 297.62 159.39 297.6 161.81C297.59 164.3 299.06 166.79 302.35 166.74C304.54 166.7 305.77 165.72 306.45 164.76C306.49 165.35 306.55 165.76 306.63 166.04L306.7 166.3L308.61 166.27L308.54 165.82C308.46 165.3 308.37 164.25 308.38 162.98ZM304.17 158.51L306.44 158.48V158.65C306.43 162.25 305.75 164.5 302.41 164.55C300.75 164.58 299.68 163.46 299.68 161.72C299.69 159.54 301.08 158.55 304.17 158.51Z" fill="white"/>
<path d="M320.38 161.1C319.73 163.28 318.67 164.27 316.95 164.3C314.08 164.35 313.07 161.04 313.09 158.19C313.11 154.38 314.66 152.01 317.13 151.99C318.84 151.98 319.94 153.03 320.4 155.11L320.46 155.39L322.4 155.37L322.35 154.94C322.1 152.56 320.59 149.78 317.16 149.8C312.96 149.82 311.05 154.07 311.03 158.27C311.01 163.32 313.33 166.55 316.94 166.48C319.63 166.43 321.54 164.59 322.32 161.29L322.43 160.81L320.45 160.84L320.38 161.1Z" fill="white"/>
<path d="M333.07 143.77C328 143.78 324.55 148.3 324.53 155.03C324.51 161.76 327.85 166.23 332.82 166.14C338.62 166.04 341.22 160.33 341.24 154.72C341.25 148.17 337.98 143.76 333.07 143.77ZM339.13 154.77C339.12 156.88 338.65 163.79 332.89 163.88C328.59 163.95 326.64 159.28 326.66 154.91C326.67 150.81 328.35 146.02 333.01 146.01C337.26 146.01 339.15 150.41 339.13 154.77Z" fill="white"/>
<path d="M350.08 153.07C346.88 152.15 345.96 151.31 345.96 149.33C345.97 147.17 347.24 145.98 349.55 145.98C351.85 145.97 353.16 147.12 353.58 149.49L353.63 149.78L355.61 149.77L355.58 149.36C355.36 146.77 353.67 143.75 349.64 143.75C345.41 143.75 343.9 146.81 343.89 149.43C343.88 152.96 346.09 154.32 349.41 155.28C353.15 156.35 353.86 157.69 353.85 159.79C353.84 162.22 352.39 163.58 349.76 163.63C347.17 163.67 345.65 162.35 345.13 159.59L345.08 159.3L343.06 159.33L343.11 159.75C343.32 161.6 344.38 165.89 349.7 165.8C354.27 165.72 355.89 162.44 355.9 159.65C355.89 157.1 355.2 154.55 350.08 153.07Z" fill="white"/>
</svg>
