<svg width="240" height="258" viewBox="0 0 240 258" fill="none" xmlns="http://www.w3.org/2000/svg">
<path d="M195.517 52.37C195.497 52.35 195.487 52.35 195.477 52.33C195.477 23.54 171.957 0 143.157 0C124.057 0 107.327 10.01 98.1967 25.29C92.0467 21.23 84.6867 18.87 76.7767 18.87C55.2667 18.87 37.8367 36.3 37.8367 57.81C37.8367 67.07 41.0767 75.57 46.4667 82.25C41.8367 79.2 36.2967 77.43 30.3367 77.43C14.1167 77.42 0.956665 90.58 0.956665 106.81C0.956665 123.04 14.1167 136.2 30.3467 136.2C30.5867 136.2 30.8267 136.19 31.0667 136.18C31.3167 136.24 31.5867 136.27 31.8767 136.27C31.8767 136.27 31.8767 136.27 197.387 136.27C220.407 136.27 239.567 117.59 239.567 94.54C239.577 70.38 219.357 51.32 195.517 52.37Z" fill="url(#paint0_linear)"/>
<path d="M121.516 131.19L117.506 126.55C125.486 119.53 129.076 114.2 129.006 109.5C128.946 104.92 135.046 102.76 135.136 109.35C135.226 116.18 131.156 122.72 121.516 131.19Z" fill="#8A6FE8"/>
<path d="M115.737 130.3L109.937 129.97C108.397 129.87 107.227 128.54 107.327 126.99C107.427 125.45 108.757 124.28 110.307 124.38L116.247 124.72L115.737 130.3Z" fill="#8A6FE8"/>
<path d="M119.377 133.88L116.247 138.77C115.407 140.07 113.667 140.43 112.367 139.59C111.067 138.75 110.707 137.01 111.547 135.71L114.757 130.7L119.377 133.88Z" fill="#8A6FE8"/>
<path d="M122.697 132.64L120.867 138.15C120.367 139.62 118.777 140.4 117.317 139.9C115.847 139.4 115.067 137.81 115.567 136.35L117.447 130.7L122.697 132.64Z" fill="#8A6FE8"/>
<path d="M116.107 131.9L112.077 136.08C110.997 137.19 109.217 137.21 108.117 136.13C107.007 135.05 106.987 133.27 108.067 132.17L112.197 127.88L116.107 131.9Z" fill="#8A6FE8"/>
<path d="M117.407 136.2C120.643 136.2 123.267 133.576 123.267 130.34C123.267 127.104 120.643 124.48 117.407 124.48C114.17 124.48 111.547 127.104 111.547 130.34C111.547 133.576 114.17 136.2 117.407 136.2Z" fill="url(#paint1_radial)"/>
<path d="M71.2967 165.15C75.3367 163.38 79.2567 159.6 83.3967 153.53L79.3267 150.76C75.3967 156.53 71.9267 159.82 68.5167 160.97L71.2967 165.15Z" fill="#C7E0F4"/>
<path d="M71.2567 168.85C74.587 168.85 77.2867 166.15 77.2867 162.82C77.2867 159.49 74.587 156.79 71.2567 156.79C67.9264 156.79 65.2267 159.49 65.2267 162.82C65.2267 166.15 67.9264 168.85 71.2567 168.85Z" fill="url(#paint2_radial)"/>
<path d="M51.2969 105.99H14.9269V131.83C19.4069 134.6 24.6969 136.2 30.3469 136.2C30.5869 136.2 30.8269 136.19 31.0669 136.18C31.3169 136.24 31.5869 136.27 31.8769 136.27C31.8769 136.27 31.8769 136.27 51.2969 136.27V105.99Z" fill="#F7B548"/>
<path d="M60.8465 136.28V106H51.2965V136.28C54.0665 136.28 57.2265 136.28 60.8465 136.28Z" fill="#BF8F68"/>
<path d="M190.177 136.28C192.547 136.28 194.947 136.28 197.387 136.28C208.617 136.28 218.927 131.82 226.547 124.58V103.2H190.177V136.28Z" fill="#72ACF1"/>
<path d="M236.097 111.05V103.2H226.547V124.58C230.567 120.76 233.847 116.17 236.097 111.05Z" fill="#3E8EED"/>
<path d="M55.3468 136.28C64.1068 136.28 75.8868 136.28 91.7168 136.28V106H55.3468V136.28Z" fill="#7BDDEF"/>
<path d="M91.7164 136.28C94.7464 136.28 97.9264 136.28 101.266 136.28V106H91.7164V136.28Z" fill="#28C2D1"/>
<path d="M61.7065 71.2H27.0065V105.9H61.7065V71.2Z" fill="#72ACF1"/>
<path d="M61.6987 105.894H70.8087V71.1938H61.6987V105.894Z" fill="#3E8EED"/>
<path d="M57.3465 215.58L54.7165 231.21C54.5065 232.46 53.7165 233.53 52.5965 234.11L41.1465 239.96L38.8365 237.07L49.4765 230.28C50.0565 229.91 50.3965 229.27 50.3965 228.58L50.7165 214.35L57.3465 215.58Z" fill="url(#paint3_linear)"/>
<path d="M59.9967 210.66H65.9967L64.0667 246.34H59.9967V210.66Z" fill="url(#paint4_linear)"/>
<path d="M57.3468 218.18C66.2994 218.18 73.5568 210.923 73.5568 201.97C73.5568 193.017 66.2994 185.76 57.3468 185.76C48.3943 185.76 41.1368 193.017 41.1368 201.97C41.1368 210.923 48.3943 218.18 57.3468 218.18Z" fill="#106EBE"/>
<path d="M48.3366 177.07C57.2891 177.07 64.5466 169.812 64.5466 160.86C64.5466 151.907 57.2891 144.65 48.3366 144.65C39.3841 144.65 32.1266 151.907 32.1266 160.86C32.1266 169.812 39.3841 177.07 48.3366 177.07Z" fill="url(#paint5_linear)"/>
<path d="M76.0865 203.81L74.5865 161.15C74.4065 159.42 72.7565 158.22 71.0565 158.6L27.2465 168.21C25.5465 168.58 24.5465 170.36 25.1065 172.01L40.8365 211.58C41.3165 212.99 42.7765 213.81 44.2265 213.49L73.8065 206.98C75.2565 206.65 76.2365 205.29 76.0865 203.81Z" fill="url(#paint6_radial)"/>
<path d="M55.4667 154.1L55.0967 152.43C54.8167 151.15 53.5567 150.34 52.2767 150.62L33.2767 154.86C32.4267 156.99 32.0367 159.32 32.1667 161.7L53.6567 156.91C54.9367 156.65 55.7467 155.38 55.4667 154.1Z" fill="#106EBE"/>
<path d="M51.2865 156.63C52.6396 156.63 53.7365 155.533 53.7365 154.18C53.7365 152.827 52.6396 151.73 51.2865 151.73C49.9335 151.73 48.8365 152.827 48.8365 154.18C48.8365 155.533 49.9335 156.63 51.2865 156.63Z" fill="white"/>
<path d="M58.8066 154.72C60.1597 154.72 61.2566 153.623 61.2566 152.27C61.2566 150.917 60.1597 149.82 58.8066 149.82C57.4535 149.82 56.3566 150.917 56.3566 152.27C56.3566 153.623 57.4535 154.72 58.8066 154.72Z" fill="white"/>
<path d="M61.2369 257.08H71.0269C71.7869 257.08 72.3769 256.39 72.2269 255.64C71.1869 250.11 66.9469 245.71 61.5069 244.42C60.7469 244.24 60.0169 244.83 60.0169 245.61V255.86C60.0069 256.54 60.5569 257.08 61.2369 257.08Z" fill="#2B88D8"/>
<path d="M42.2165 236.61C43.9765 241.92 42.4665 247.83 38.3065 251.63C37.7465 252.15 36.8465 252.01 36.4465 251.37L31.2965 243.05C30.9465 242.48 31.1165 241.72 31.6965 241.37L40.4165 235.98C41.0765 235.55 41.9665 235.86 42.2165 236.61Z" fill="#2B88D8"/>
<path d="M103.224 172.79L132.934 149.811L109.955 120.101L80.2452 143.08L103.224 172.79Z" fill="#F7B548"/>
<path d="M80.2465 143.07L109.956 120.09L98.2165 121.32L68.5065 144.3L80.2465 143.07Z" fill="#FFD590"/>
<path d="M80.2469 143.07L68.6569 144.19L91.6269 173.9L103.227 172.78L80.2469 143.07Z" fill="#BF8F68"/>
<path d="M64.9765 181.05C59.1465 181.05 53.5165 177.45 48.2565 173.47L51.2265 169.54C58.1365 174.77 62.5365 176.64 66.4065 176.01C70.2665 175.38 74.1565 172.02 78.6365 165.45L82.7065 168.22C77.4165 175.98 72.4865 180 67.2065 180.87C66.4565 181 65.7065 181.05 64.9765 181.05Z" fill="#C7E0F4"/>
<path d="M45.2464 174.98C48.5767 174.98 51.2764 172.28 51.2764 168.95C51.2764 165.62 48.5767 162.92 45.2464 162.92C41.9162 162.92 39.2164 165.62 39.2164 168.95C39.2164 172.28 41.9162 174.98 45.2464 174.98Z" fill="url(#paint7_radial)"/>
<path d="M86.9069 149.58C87.1469 149.96 87.1569 150.45 86.9069 150.78C86.4469 151.38 84.8869 152.57 84.2069 153.08L83.1769 158.2C83.0769 158.72 82.5969 158.99 82.1169 158.8C81.6369 158.62 81.3269 158.05 81.4369 157.54L82.5369 152.09C82.5769 151.87 82.6969 151.69 82.8569 151.57C83.7769 150.89 85.2069 149.77 85.5069 149.39C85.8069 149 86.3669 149 86.7569 149.39C86.8069 149.44 86.8569 149.51 86.9069 149.58Z" fill="#106EBE"/>
<path d="M95.0669 153.12C95.2969 153.47 95.3169 153.94 95.1069 154.27L92.5069 158.25C92.4669 158.31 92.4269 158.36 92.3769 158.4L87.7269 162.68C87.3769 163.01 86.8069 162.91 86.4669 162.48C86.1369 162.05 86.1369 161.42 86.4869 161.1L91.0669 156.88L93.6169 152.98C93.8869 152.57 94.4369 152.52 94.8469 152.87C94.9369 152.95 95.0069 153.03 95.0669 153.12Z" fill="#106EBE"/>
<path d="M92.0567 150.94C92.2567 151.26 92.3067 151.67 92.1467 151.99L89.6867 157.02C89.6567 157.08 89.6267 157.13 89.5867 157.17L86.0967 161.55C85.7967 161.93 85.2367 161.93 84.8467 161.54C84.4567 161.15 84.3967 160.52 84.6967 160.14L88.1367 155.83L90.5567 150.88C90.7767 150.43 91.3167 150.31 91.7567 150.61C91.8767 150.71 91.9767 150.82 92.0567 150.94Z" fill="#106EBE"/>
<path d="M78.6668 166.94L81.1268 168.9C81.5268 169.22 82.0368 169.16 82.2968 168.76L83.6068 166.71C83.6468 166.64 83.7068 166.58 83.7668 166.53L88.2968 162.81C88.7368 162.45 88.6768 161.68 88.1868 161.27L82.2368 156.36C81.7368 155.94 81.0768 156.15 80.9368 156.77L79.5268 163.33C79.5068 163.41 79.4768 163.49 79.4468 163.56L78.3568 165.63C78.1368 166.05 78.2768 166.63 78.6668 166.94Z" fill="#106EBE"/>
<path d="M145.707 134.67C144.787 129.76 143.727 119.79 147.327 111.44L152.817 114.45C149.557 122.02 150.767 130.86 151.557 134.71C151.617 135.03 148.697 135.32 145.707 134.67Z" fill="url(#paint8_linear)"/>
<path d="M151.927 136.28L151.537 134.66L149.317 134.65L145.707 134.63C145.747 135.11 145.737 135.66 145.657 136.27C147.707 136.28 149.797 136.28 151.927 136.28Z" fill="#512BD4"/>
<path d="M164.797 134.78C164.027 129.87 161.667 119.9 155.187 111.5L150.727 114.46C156.597 122.07 158.417 130.91 158.957 134.76C159.007 135.09 162.037 135.4 164.797 134.78Z" fill="url(#paint9_linear)"/>
<path d="M164.797 134.75L158.947 134.72C158.947 134.72 158.997 135.24 159.017 136.27C161.067 136.27 163.137 136.27 165.247 136.27C164.927 135.27 164.797 134.75 164.797 134.75Z" fill="#512BD4"/>
<path d="M125.106 106.48C121.296 99.2401 121.146 92.7801 121.146 92.7801L119.336 93.2001L119.286 93.1801C118.576 78.4201 128.466 64.7901 143.366 61.3001C160.156 57.3701 176.956 67.8001 180.886 84.5901C184.816 101.38 174.386 118.18 157.596 122.11C144.346 125.21 131.096 119.37 124.156 108.52C123.916 108.05 123.716 107.14 125.106 106.48Z" fill="url(#paint10_radial)"/>
<path d="M127.797 113.25L180.307 100.96C179.597 103.23 178.627 105.41 177.437 107.46L133.257 117.8C131.277 116.5 129.447 114.98 127.797 113.25Z" fill="#D8CFF7"/>
<path d="M135.854 118.981L145.687 116.585L143.568 107.89L133.736 110.285L135.854 118.981Z" fill="#512BD4"/>
<path d="M136.786 115.33C136.716 115.35 136.656 115.34 136.606 115.3C136.546 115.27 136.516 115.22 136.496 115.16C136.476 115.1 136.486 115.04 136.526 114.98C136.566 114.92 136.616 114.89 136.676 114.87C136.746 114.85 136.806 114.86 136.856 114.9C136.916 114.93 136.946 114.98 136.966 115.04C136.976 115.1 136.966 115.16 136.936 115.22C136.896 115.27 136.846 115.31 136.786 115.33Z" fill="white"/>
<path d="M139.387 114.66L138.957 114.76L137.407 113.26C137.367 113.22 137.337 113.18 137.307 113.14H137.297C137.317 113.19 137.347 113.3 137.387 113.47L137.767 115.05L137.387 115.14L136.807 112.73L137.257 112.62L138.757 114.09C138.817 114.15 138.857 114.19 138.877 114.22H138.887C138.857 114.16 138.827 114.05 138.797 113.9L138.427 112.35L138.797 112.26L139.387 114.66Z" fill="white"/>
<path d="M141.227 114.22L139.907 114.54L139.327 112.13L140.587 111.83L140.667 112.17L139.787 112.38L139.947 113.06L140.757 112.87L140.837 113.21L140.027 113.4L140.197 114.11L141.127 113.89L141.227 114.22Z" fill="white"/>
<path d="M142.597 111.7L141.927 111.86L142.427 113.93L142.037 114.02L141.537 111.95L140.867 112.11L140.787 111.77L142.527 111.35L142.597 111.7Z" fill="white"/>
<path d="M125.037 106.49C121.267 99.34 121.087 92.95 121.077 92.79L152.627 85.41C152.627 85.41 154.567 84.74 154.997 86.56C155.417 88.37 156.547 93.52 157.877 99.2C158.147 100.37 157.327 101.15 156.577 101.33C156.567 101.33 126.127 107.57 125.037 106.49Z" fill="url(#paint11_radial)"/>
<path d="M143.867 102.1C143.867 102.1 138.117 99.3901 137.007 98.9101C135.897 98.4301 135.057 98.5801 134.367 99.5301C133.677 100.48 129.707 105.42 129.707 105.42L143.867 102.1Z" fill="#A08BE8"/>
<path d="M124.367 108.88C124.367 108.88 123.067 107.44 125.037 106.5C125.037 106.49 156.047 99.2202 156.047 99.2202C156.767 99.0502 157.597 98.4002 157.517 97.6802C157.637 98.1802 157.747 98.6902 157.867 99.2002C158.117 100.26 157.457 101 156.777 101.26C156.707 101.28 156.637 101.31 156.567 101.33L154.447 101.83L124.367 108.88Z" fill="#512BD4"/>
<path d="M147.745 98.0945C149.061 97.807 149.736 95.7762 149.252 93.5585C148.768 91.3408 147.308 89.7761 145.991 90.0635C144.675 90.351 144 92.3818 144.484 94.5995C144.968 96.8171 146.428 98.3819 147.745 98.0945Z" fill="#512BD4"/>
<path d="M128.699 102.544C130.006 102.217 130.62 100.168 130.07 97.9653C129.52 95.763 128.015 94.2425 126.707 94.569C125.4 94.8955 124.786 96.9454 125.336 99.1477C125.886 101.35 127.392 102.87 128.699 102.544Z" fill="#512BD4"/>
<path d="M146.417 92.08C145.817 91.71 145.117 91.65 144.487 91.85C144.277 92.63 144.257 93.6 144.477 94.6C144.617 95.23 144.827 95.8 145.097 96.29C145.897 96.33 146.697 95.94 147.147 95.21C147.817 94.15 147.487 92.74 146.417 92.08Z" fill="#8065E0"/>
<path d="M127.237 96.4301C126.637 96.0601 125.927 96.0001 125.307 96.2001C125.067 97.0201 125.057 98.0601 125.327 99.1401C125.467 99.6901 125.667 100.2 125.897 100.65C126.707 100.69 127.507 100.31 127.967 99.5701C128.637 98.5001 128.307 97.0901 127.237 96.4301Z" fill="#8065E0"/>
<path d="M171.637 127.27C172.067 126.96 182.297 119.62 183.077 108.76C183.527 102.49 180.787 96.4899 174.927 90.9399L170.937 95.1499C175.467 99.4399 177.607 103.87 177.297 108.31C176.737 116.42 168.367 122.47 168.287 122.53L171.637 127.27Z" fill="url(#paint12_linear)"/>
<path d="M171.287 96.75C174.451 96.75 177.017 94.1846 177.017 91.02C177.017 87.8554 174.451 85.29 171.287 85.29C168.122 85.29 165.557 87.8554 165.557 91.02C165.557 94.1846 168.122 96.75 171.287 96.75Z" fill="url(#paint13_radial)"/>
<path d="M162.557 119.26L170.927 116.99C172.377 116.6 173.877 117.45 174.267 118.91L174.287 118.99C174.677 120.44 173.827 121.94 172.367 122.33L163.997 124.6C162.547 124.99 161.047 124.14 160.657 122.68L160.637 122.6C160.247 121.15 161.107 119.65 162.557 119.26Z" fill="#8A6FE8"/>
<path d="M178.487 124.43L178.447 130.2C178.427 131.74 177.167 132.97 175.627 132.95C174.087 132.93 172.857 131.67 172.877 130.13L172.917 124.21L178.487 124.43Z" fill="#8A6FE8"/>
<path d="M176.136 126.48L172.796 133.7C172.146 135.09 170.486 135.69 169.096 135.04C167.706 134.39 167.106 132.73 167.756 131.34L170.226 125.96L176.136 126.48Z" fill="#8A6FE8"/>
<path d="M173.507 124.32L168.607 130.6C167.667 131.81 165.917 132.03 164.697 131.09C163.487 130.15 163.267 128.4 164.207 127.18L169.197 120.78L173.507 124.32Z" fill="#8A6FE8"/>
<path d="M173.187 128.36C176.406 128.36 179.017 125.75 179.017 122.53C179.017 119.31 176.406 116.7 173.187 116.7C169.967 116.7 167.357 119.31 167.357 122.53C167.357 125.75 169.967 128.36 173.187 128.36Z" fill="url(#paint14_radial)"/>
<path d="M145.887 58.89L140.207 60.2L138.727 49.69L142.807 48.75L145.887 58.89Z" fill="#8A6FE8"/>
<path d="M140.687 53.5199C142.887 53.5799 144.727 51.8599 144.797 49.6799C144.877 47.4999 143.157 45.6899 140.967 45.6299C138.767 45.5699 136.927 47.2899 136.857 49.4699C136.787 51.6499 138.497 53.4599 140.687 53.5199Z" fill="#D8CFF7"/>
<path d="M148.846 61.9199C149.096 61.8599 149.266 61.5899 149.176 61.3499C148.276 58.7499 145.516 57.19 142.746 57.83C139.966 58.47 138.146 61.07 138.446 63.81C138.476 64.07 138.726 64.24 138.986 64.18L148.846 61.9199Z" fill="#522CD5"/>
<defs>
<linearGradient id="paint0_linear" x1="120.265" y1="0" x2="120.265" y2="136.277" gradientUnits="userSpaceOnUse">
<stop offset="0.2512" stop-color="#98C2F5"/>
<stop offset="0.6745" stop-color="#CAE0FA"/>
</linearGradient>
<radialGradient id="paint1_radial" cx="0" cy="0" r="1" gradientUnits="userSpaceOnUse" gradientTransform="translate(119.974 127.27) rotate(37.3523) scale(9.15417)">
<stop stop-color="#8065E0"/>
<stop offset="1" stop-color="#512BD4"/>
</radialGradient>
<radialGradient id="paint2_radial" cx="0" cy="0" r="1" gradientUnits="userSpaceOnUse" gradientTransform="translate(72.4799 160.086) rotate(161.507) scale(7.5961)">
<stop offset="0.2011" stop-color="#3E8EED"/>
<stop offset="1" stop-color="#106EBE"/>
</radialGradient>
<linearGradient id="paint3_linear" x1="48.0871" y1="239.965" x2="48.0871" y2="214.36" gradientUnits="userSpaceOnUse">
<stop offset="0.6283" stop-color="#72ACF1"/>
<stop offset="0.6693" stop-color="#69A7F0"/>
<stop offset="0.8306" stop-color="#4A95EE"/>
<stop offset="0.9205" stop-color="#3E8EED"/>
</linearGradient>
<linearGradient id="paint4_linear" x1="62.9961" y1="246.339" x2="62.9961" y2="210.659" gradientUnits="userSpaceOnUse">
<stop offset="0.6283" stop-color="#72ACF1"/>
<stop offset="0.6693" stop-color="#69A7F0"/>
<stop offset="0.8306" stop-color="#4A95EE"/>
<stop offset="0.9205" stop-color="#3E8EED"/>
</linearGradient>
<linearGradient id="paint5_linear" x1="35.7375" y1="169.321" x2="62.654" y2="151.243" gradientUnits="userSpaceOnUse">
<stop offset="0.6886" stop-color="#3E8EED"/>
<stop offset="0.7056" stop-color="#4290ED"/>
<stop offset="0.8867" stop-color="#65A4F0"/>
<stop offset="0.9841" stop-color="#72ACF1"/>
</linearGradient>
<radialGradient id="paint6_radial" cx="0" cy="0" r="1" gradientUnits="userSpaceOnUse" gradientTransform="translate(59.671 169.489) rotate(167.632) scale(74.7409)">
<stop offset="0.204" stop-color="#72ACF1"/>
<stop offset="0.2915" stop-color="#69A7F0"/>
<stop offset="0.6359" stop-color="#4A95EE"/>
<stop offset="0.828" stop-color="#3E8EED"/>
</radialGradient>
<radialGradient id="paint7_radial" cx="0" cy="0" r="1" gradientUnits="userSpaceOnUse" gradientTransform="translate(46.4646 166.225) rotate(161.507) scale(7.5961)">
<stop offset="0.2011" stop-color="#3E8EED"/>
<stop offset="1" stop-color="#106EBE"/>
</radialGradient>
<linearGradient id="paint8_linear" x1="149.078" y1="111.815" x2="144.496" y2="134.443" gradientUnits="userSpaceOnUse">
<stop offset="0.252" stop-color="#522CD5"/>
<stop offset="0.5558" stop-color="#8A6FE8"/>
</linearGradient>
<linearGradient id="paint9_linear" x1="153.582" y1="111.844" x2="158.618" y2="136.073" gradientUnits="userSpaceOnUse">
<stop offset="0.258" stop-color="#522CD5"/>
<stop offset="0.5602" stop-color="#8A6FE8"/>
</linearGradient>
<radialGradient id="paint10_radial" cx="0" cy="0" r="1" gradientUnits="userSpaceOnUse" gradientTransform="translate(140.901 81.6136) rotate(-13.1677) scale(31.1003)">
<stop offset="0.4744" stop-color="#A08BE8"/>
<stop offset="0.8618" stop-color="#8065E0"/>
</radialGradient>
<radialGradient id="paint11_radial" cx="0" cy="0" r="1" gradientUnits="userSpaceOnUse" gradientTransform="translate(120.619 87.5472) rotate(-13.1677) scale(32.2298)">
<stop offset="0.0933" stop-color="#E1DFDD"/>
<stop offset="0.6573" stop-color="white"/>
</radialGradient>
<linearGradient id="paint12_linear" x1="182.89" y1="97.0524" x2="164.159" y2="121.583" gradientUnits="userSpaceOnUse">
<stop offset="0.2495" stop-color="#967FE6"/>
<stop offset="1" stop-color="#8A6FE8"/>
</linearGradient>
<radialGradient id="paint13_radial" cx="0" cy="0" r="1" gradientUnits="userSpaceOnUse" gradientTransform="translate(171.867 88.8735) rotate(166.832) scale(5.73575)">
<stop stop-color="#8065E0"/>
<stop offset="1" stop-color="#512BD4"/>
</radialGradient>
<radialGradient id="paint14_radial" cx="0" cy="0" r="1" gradientUnits="userSpaceOnUse" gradientTransform="translate(172.994 120.231) rotate(172.421) scale(5.82842)">
<stop stop-color="#8065E0"/>
<stop offset="1" stop-color="#512BD4"/>
</radialGradient>
</defs>
</svg>
