<svg width="271" height="208" viewBox="0 0 271 208" fill="none" xmlns="http://www.w3.org/2000/svg">
<path d="M245.887 72.83C245.917 72.21 245.977 71.6 245.977 70.97C245.977 54.08 233.797 40.15 217.997 37.91C209.107 18.62 190.037 5.28003 167.937 5.28003C154.287 5.28003 141.817 10.39 132.167 18.82C125.307 13.88 116.987 10.96 107.987 10.96C91.9566 10.96 78.0066 20.15 70.8466 33.7C67.5566 32.54 64.0366 31.88 60.3566 31.88C42.4466 31.88 27.9366 46.84 27.9366 65.29C27.9366 67.49 28.1566 69.63 28.5466 71.71C12.2766 77.06 0.496643 92.74 0.496643 111.26C0.496643 134.19 18.5366 152.78 40.7866 152.78C43.3266 152.78 47.7366 152.78 53.5666 152.78C52.3966 155.14 51.7266 157.81 51.7266 160.64V161.52C51.7266 171.09 59.2566 178.86 68.5566 178.86H135.757L152.397 205.94C153.057 207.02 154.207 207.67 155.447 207.67H204.347C205.767 207.67 206.647 206.06 205.897 204.81L184.897 169.63C176.477 155.75 184.797 153.09 188.767 152.75C207.697 152.75 223.087 152.76 230.667 152.78C252.917 152.78 270.957 134.19 270.957 111.26C270.967 93.88 260.587 79.02 245.887 72.83Z" fill="#B1E9EE"/>
<path d="M63.0566 63.76C62.6866 63.76 62.3066 63.62 62.0166 63.34C61.4166 62.76 61.3966 61.82 61.9766 61.22L76.2066 46.43C76.4866 46.14 76.8766 45.97 77.2866 45.97H109.657C110.487 45.97 111.157 46.64 111.157 47.47C111.157 48.3 110.487 48.97 109.657 48.97H77.9266L64.1466 63.3C63.8466 63.61 63.4566 63.76 63.0566 63.76Z" fill="white"/>
<path d="M214.817 74.57H60.9668C50.7568 74.57 42.4468 66.26 42.4468 56.05C42.4468 55.22 43.1168 54.55 43.9468 54.55C44.7768 54.55 45.4468 55.22 45.4468 56.05C45.4468 64.61 52.4068 71.57 60.9668 71.57H214.817C215.647 71.57 216.317 72.24 216.317 73.07C216.317 73.9 215.647 74.57 214.817 74.57Z" fill="white"/>
<path d="M179.986 38.6H151.796C150.966 38.6 150.296 37.93 150.296 37.1V21.76C150.296 20.93 150.966 20.26 151.796 20.26H172.356C185.676 20.26 196.326 25.18 202.356 34.11C202.816 34.8 202.636 35.73 201.956 36.19C201.266 36.65 200.336 36.47 199.876 35.79C194.416 27.71 184.646 23.26 172.356 23.26H153.296V35.6H179.986C180.816 35.6 181.486 36.27 181.486 37.1C181.486 37.93 180.816 38.6 179.986 38.6Z" fill="white"/>
<path d="M230.947 87.78H55.3366C54.5066 87.78 53.8366 88.45 53.8366 89.28C53.8366 90.11 54.5066 90.78 55.3366 90.78H71.1366V108.92H60.7366C59.9066 108.92 59.2366 109.59 59.2366 110.42C59.2366 111.25 59.9066 111.92 60.7366 111.92H91.2366V129.02C91.2366 129.5 91.4666 129.92 91.8166 130.19H42.8266V112.07C42.8266 111.24 42.1566 110.57 41.3266 110.57C40.4966 110.57 39.8266 111.24 39.8266 112.07V130.16C29.2566 129.82 20.7466 121.14 20.7466 110.48C20.7466 99.61 29.5866 90.77 40.4566 90.77C41.2866 90.77 41.9566 90.1 41.9566 89.27C41.9566 88.44 41.2866 87.77 40.4566 87.77C27.9366 87.77 17.7466 97.96 17.7466 110.48C17.7466 123 27.9366 133.19 40.4566 133.19H213.887C214.717 133.19 215.387 132.52 215.387 131.69C215.387 130.86 214.717 130.19 213.887 130.19H93.6566C94.0066 129.92 94.2366 129.49 94.2366 129.02V110.42C94.2366 109.59 93.5666 108.92 92.7366 108.92H74.1366V90.78H198.297V109.91C198.297 110.74 198.967 111.41 199.797 111.41H230.867C231.697 111.41 232.367 110.74 232.367 109.91C232.367 109.08 231.697 108.41 230.867 108.41H201.297V90.78H230.947C241.817 90.78 250.657 99.62 250.657 110.49C250.657 121.36 241.817 130.2 230.947 130.2C230.117 130.2 229.447 130.87 229.447 131.7C229.447 132.53 230.117 133.2 230.947 133.2C243.467 133.2 253.657 123.01 253.657 110.49C253.657 97.97 243.467 87.78 230.947 87.78Z" fill="white"/>
<path d="M43.8065 58.9601C45.5518 58.9601 46.9665 57.5454 46.9665 55.8001C46.9665 54.0549 45.5518 52.6401 43.8065 52.6401C42.0613 52.6401 40.6465 54.0549 40.6465 55.8001C40.6465 57.5454 42.0613 58.9601 43.8065 58.9601Z" fill="#63D3DE"/>
<path d="M62.9667 64.6301C64.7119 64.6301 66.1267 63.2153 66.1267 61.4701C66.1267 59.7248 64.7119 58.3101 62.9667 58.3101C61.2215 58.3101 59.8067 59.7248 59.8067 61.4701C59.8067 63.2153 61.2215 64.6301 62.9667 64.6301Z" fill="#63D3DE"/>
<path d="M54.2265 92.7199C55.9717 92.7199 57.3865 91.3051 57.3865 89.5599C57.3865 87.8147 55.9717 86.3999 54.2265 86.3999C52.4812 86.3999 51.0665 87.8147 51.0665 89.5599C51.0665 91.3051 52.4812 92.7199 54.2265 92.7199Z" fill="#63D3DE"/>
<path d="M40.6366 92.54C42.3818 92.54 43.7966 91.1252 43.7966 89.38C43.7966 87.6347 42.3818 86.22 40.6366 86.22C38.8914 86.22 37.4766 87.6347 37.4766 89.38C37.4766 91.1252 38.8914 92.54 40.6366 92.54Z" fill="#63D3DE"/>
<path d="M59.8065 113.75C61.5518 113.75 62.9665 112.335 62.9665 110.59C62.9665 108.845 61.5518 107.43 59.8065 107.43C58.0613 107.43 56.6465 108.845 56.6465 110.59C56.6465 112.335 58.0613 113.75 59.8065 113.75Z" fill="#63D3DE"/>
<path d="M41.1967 114.49C42.9419 114.49 44.3567 113.075 44.3567 111.33C44.3567 109.585 42.9419 108.17 41.1967 108.17C39.4515 108.17 38.0367 109.585 38.0367 111.33C38.0367 113.075 39.4515 114.49 41.1967 114.49Z" fill="#63D3DE"/>
<path d="M92.1767 113.75C93.9219 113.75 95.3367 112.335 95.3367 110.59C95.3367 108.845 93.9219 107.43 92.1767 107.43C90.4314 107.43 89.0167 108.845 89.0167 110.59C89.0167 112.335 90.4314 113.75 92.1767 113.75Z" fill="#63D3DE"/>
<path d="M77.1068 50.79C78.8521 50.79 80.2668 49.3752 80.2668 47.63C80.2668 45.8848 78.8521 44.47 77.1068 44.47C75.3616 44.47 73.9468 45.8848 73.9468 47.63C73.9468 49.3752 75.3616 50.79 77.1068 50.79Z" fill="#63D3DE"/>
<path d="M214.037 134.96C215.782 134.96 217.197 133.545 217.197 131.8C217.197 130.055 215.782 128.64 214.037 128.64C212.291 128.64 210.877 130.055 210.877 131.8C210.877 133.545 212.291 134.96 214.037 134.96Z" fill="#63D3DE"/>
<path d="M230.037 135.05C231.782 135.05 233.197 133.635 233.197 131.89C233.197 130.145 231.782 128.73 230.037 128.73C228.291 128.73 226.877 130.145 226.877 131.89C226.877 133.635 228.291 135.05 230.037 135.05Z" fill="#63D3DE"/>
<path d="M231.147 113.19C232.892 113.19 234.307 111.775 234.307 110.03C234.307 108.285 232.892 106.87 231.147 106.87C229.402 106.87 227.987 108.285 227.987 110.03C227.987 111.775 229.402 113.19 231.147 113.19Z" fill="#63D3DE"/>
<path d="M200.267 113C202.012 113 203.426 111.585 203.426 109.84C203.426 108.095 202.012 106.68 200.267 106.68C198.521 106.68 197.107 108.095 197.107 109.84C197.107 111.585 198.521 113 200.267 113Z" fill="#63D3DE"/>
<path d="M214.777 76.35C216.522 76.35 217.937 74.9353 217.937 73.19C217.937 71.4448 216.522 70.03 214.777 70.03C213.032 70.03 211.617 71.4448 211.617 73.19C211.617 74.9353 213.032 76.35 214.777 76.35Z" fill="#63D3DE"/>
<path d="M201.197 38.03C202.942 38.03 204.357 36.6152 204.357 34.87C204.357 33.1247 202.942 31.71 201.197 31.71C199.451 31.71 198.037 33.1247 198.037 34.87C198.037 36.6152 199.451 38.03 201.197 38.03Z" fill="#63D3DE"/>
<path d="M179.796 188.43L153.376 143.21C153.106 142.75 152.616 142.47 152.086 142.47H84.1564C74.0564 142.47 65.5264 151.58 65.5264 162.36C65.5264 163.19 66.1964 163.86 67.0264 163.86C67.8564 163.86 68.5264 163.19 68.5264 162.36C68.5264 153.2 75.6864 145.47 84.1564 145.47H129.366V159.94H88.6364C87.8064 159.94 87.1364 160.61 87.1364 161.44C87.1364 162.27 87.8064 162.94 88.6364 162.94H130.866C131.696 162.94 132.366 162.27 132.366 161.44V145.47H151.216L168.496 175.04H152.086C151.256 175.04 150.586 175.71 150.586 176.54C150.586 177.37 151.256 178.04 152.086 178.04H170.256L177.216 189.95C177.496 190.43 177.996 190.69 178.516 190.69C178.776 190.69 179.036 190.62 179.276 190.48C179.976 190.07 180.216 189.15 179.796 188.43Z" fill="white"/>
<path d="M152.267 179.79C154.012 179.79 155.426 178.375 155.426 176.63C155.426 174.885 154.012 173.47 152.267 173.47C150.521 173.47 149.107 174.885 149.107 176.63C149.107 178.375 150.521 179.79 152.267 179.79Z" fill="#63D3DE"/>
<path d="M193.387 131.15L183.617 116.35" stroke="white" stroke-width="3" stroke-miterlimit="10" stroke-linecap="round" stroke-linejoin="round"/>
<path d="M180.827 40.12C182.572 40.12 183.987 38.7053 183.987 36.96C183.987 35.2148 182.572 33.8 180.827 33.8C179.081 33.8 177.667 35.2148 177.667 36.96C177.667 38.7053 179.081 40.12 180.827 40.12Z" fill="#63D3DE"/>
<path d="M152.087 25.33C153.832 25.33 155.247 23.9152 155.247 22.17C155.247 20.4248 153.832 19.01 152.087 19.01C150.342 19.01 148.927 20.4248 148.927 22.17C148.927 23.9152 150.342 25.33 152.087 25.33Z" fill="#63D3DE"/>
<path d="M183.057 118.82C184.802 118.82 186.217 117.405 186.217 115.66C186.217 113.915 184.802 112.5 183.057 112.5C181.311 112.5 179.897 113.915 179.897 115.66C179.897 117.405 181.311 118.82 183.057 118.82Z" fill="#7BDDEF"/>
<path d="M193.107 134.44C194.852 134.44 196.267 133.025 196.267 131.28C196.267 129.535 194.852 128.12 193.107 128.12C191.362 128.12 189.947 129.535 189.947 131.28C189.947 133.025 191.362 134.44 193.107 134.44Z" fill="#63D3DE"/>
<path d="M212.907 50.98H112.457C111.627 50.98 110.957 51.65 110.957 52.48C110.957 53.31 111.627 53.98 112.457 53.98H186.517L196.507 64.11C196.797 64.41 197.187 64.56 197.577 64.56C197.957 64.56 198.337 64.42 198.627 64.13C199.217 63.55 199.227 62.6 198.637 62.01L190.727 53.99H212.917C221.387 53.99 228.547 61.72 228.547 70.88C228.547 71.71 229.217 72.38 230.047 72.38C230.877 72.38 231.547 71.71 231.547 70.88C231.537 60.08 223.007 50.98 212.907 50.98Z" fill="white"/>
<path d="M197.427 66.0002C199.172 66.0002 200.587 64.5854 200.587 62.8402C200.587 61.095 199.172 59.6802 197.427 59.6802C195.681 59.6802 194.267 61.095 194.267 62.8402C194.267 64.5854 195.681 66.0002 197.427 66.0002Z" fill="#63D3DE"/>
<path d="M127.807 30.4799H108.937V20.1699C108.937 19.3399 108.267 18.6699 107.437 18.6699C106.607 18.6699 105.937 19.3399 105.937 20.1699V30.4799H84.1768C83.3468 30.4799 82.6768 31.1499 82.6768 31.9799C82.6768 32.8099 83.3468 33.4799 84.1768 33.4799H127.807C128.637 33.4799 129.307 32.8099 129.307 31.9799C129.307 31.1499 128.627 30.4799 127.807 30.4799Z" fill="white"/>
<path d="M107.427 21.9299C109.172 21.9299 110.587 20.5151 110.587 18.7699C110.587 17.0246 109.172 15.6099 107.427 15.6099C105.681 15.6099 104.267 17.0246 104.267 18.7699C104.267 20.5151 105.681 21.9299 107.427 21.9299Z" fill="#63D3DE"/>
<path d="M230.217 76.54C231.962 76.54 233.377 75.1252 233.377 73.38C233.377 71.6347 231.962 70.22 230.217 70.22C228.471 70.22 227.057 71.6347 227.057 73.38C227.057 75.1252 228.471 76.54 230.217 76.54Z" fill="#63D3DE"/>
<path d="M87.3368 164.7C89.082 164.7 90.4968 163.285 90.4968 161.54C90.4968 159.795 89.082 158.38 87.3368 158.38C85.5916 158.38 84.1768 159.795 84.1768 161.54C84.1768 163.285 85.5916 164.7 87.3368 164.7Z" fill="#63D3DE"/>
<path d="M67.2465 165.44C68.9917 165.44 70.4065 164.025 70.4065 162.28C70.4065 160.535 68.9917 159.12 67.2465 159.12C65.5013 159.12 64.0865 160.535 64.0865 162.28C64.0865 164.025 65.5013 165.44 67.2465 165.44Z" fill="#63D3DE"/>
<path d="M83.9867 35.2399C85.7319 35.2399 87.1467 33.8251 87.1467 32.0799C87.1467 30.3347 85.7319 28.9199 83.9867 28.9199C82.2415 28.9199 80.8267 30.3347 80.8267 32.0799C80.8267 33.8251 82.2415 35.2399 83.9867 35.2399Z" fill="#63D3DE"/>
<path d="M130.496 164.54C132.242 164.54 133.656 163.125 133.656 161.38C133.656 159.635 132.242 158.22 130.496 158.22C128.751 158.22 127.336 159.635 127.336 161.38C127.336 163.125 128.751 164.54 130.496 164.54Z" fill="#63D3DE"/>
<path d="M178.496 192.44C180.242 192.44 181.656 191.025 181.656 189.28C181.656 187.535 180.242 186.12 178.496 186.12C176.751 186.12 175.336 187.535 175.336 189.28C175.336 191.025 176.751 192.44 178.496 192.44Z" fill="#63D3DE"/>
<path d="M120.137 126.46L160.587 116.31L158.637 108.5L118.137 118.62C116.067 119.14 114.617 121.3 115.047 123.41C115.487 125.52 117.887 127.02 120.137 126.46Z" fill="url(#paint0_linear)"/>
<path d="M175.766 126.6L135.316 116.45L137.266 108.64L177.766 118.76C179.836 119.28 181.286 121.44 180.856 123.55C180.416 125.66 178.006 127.16 175.766 126.6Z" fill="url(#paint1_linear)"/>
<path d="M174.147 112.17C180.067 108.52 187.157 100.42 188.097 89.6701C188.757 82.2101 185.717 71.7901 174.217 62.3101L168.917 68.5201C176.237 74.4001 180.467 82.3801 179.957 89.0401C179.397 96.2501 174.487 102.36 169.857 105.22L174.147 112.17Z" fill="#8A6FE8"/>
<path d="M136.227 102.21C158.925 102.21 177.327 83.8089 177.327 61.11C177.327 38.4111 158.925 20.01 136.227 20.01C113.528 20.01 95.1265 38.4111 95.1265 61.11C95.1265 83.8089 113.528 102.21 136.227 102.21Z" fill="url(#paint2_radial)"/>
<path d="M100.787 81.9199H171.667C170.077 84.6199 168.187 87.1199 166.037 89.3899H106.417C104.277 87.1299 102.387 84.6199 100.787 81.9199Z" fill="#D8CFF7"/>
<path d="M140.147 17.8001H132.197L133.317 9.64014H139.027L140.147 17.8001Z" fill="#8A6FE8"/>
<path d="M143.186 22.7802C143.546 22.7802 143.826 22.4702 143.786 22.1102C143.366 18.3402 140.166 15.4102 136.286 15.4102C132.406 15.4102 129.206 18.3402 128.786 22.1102C128.746 22.4702 129.036 22.7802 129.386 22.7802H143.186Z" fill="url(#paint3_radial)"/>
<path d="M150.897 78.9302H137.637V92.1902H150.897V78.9302Z" fill="#512BD4"/>
<path d="M140.007 87.4103C139.917 87.4103 139.837 87.3803 139.767 87.3203C139.697 87.2603 139.667 87.1802 139.667 87.0902C139.667 87.0002 139.697 86.9203 139.767 86.8603C139.837 86.8003 139.917 86.7603 140.007 86.7603C140.107 86.7603 140.187 86.7903 140.247 86.8603C140.317 86.9203 140.347 87.0002 140.347 87.0902C140.347 87.1802 140.317 87.2503 140.247 87.3203C140.177 87.3803 140.097 87.4103 140.007 87.4103Z" fill="white"/>
<path d="M143.757 87.3501H143.147L141.537 84.8201C141.497 84.7601 141.467 84.6901 141.437 84.6201H141.427C141.437 84.6901 141.447 84.8501 141.447 85.0901V87.3501H140.907V83.9001H141.557L143.107 86.3701C143.177 86.4701 143.217 86.5401 143.237 86.5801H143.247C143.227 86.4901 143.227 86.3301 143.227 86.1201V83.9001H143.767V87.3501H143.757Z" fill="white"/>
<path d="M146.377 87.3501H144.487V83.9001H146.297V84.3901H145.047V85.3701H146.207V85.8501H145.047V86.8701H146.377V87.3501V87.3501Z" fill="white"/>
<path d="M149.056 84.3901H148.086V87.3501H147.526V84.3901H146.566V83.9001H149.056V84.3901Z" fill="white"/>
<path d="M168.267 93.5599L178.387 100.34C179.897 101.35 180.307 103.41 179.287 104.92L178.857 105.55C177.847 107.06 175.787 107.47 174.277 106.45L164.157 99.6699C162.647 98.6599 162.237 96.5999 163.257 95.0899L163.687 94.4599C164.697 92.9499 166.747 92.5399 168.267 93.5599Z" fill="#8A6FE8"/>
<path d="M123.737 95.1001L113.187 101.19C111.607 102.1 111.067 104.12 111.977 105.7L112.357 106.36C113.267 107.94 115.287 108.48 116.867 107.57L127.417 101.48C128.997 100.57 129.537 98.5501 128.627 96.9701L128.247 96.3101C127.327 94.7301 125.307 94.1901 123.737 95.1001Z" fill="#8A6FE8"/>
<path d="M114.067 109.9C107.147 109.23 97.2166 105.09 91.6266 95.8499C87.7466 89.4499 85.8766 78.7499 92.0266 65.1699L99.5266 68.4099C95.5566 76.9199 95.2666 85.9399 98.6666 91.6899C102.347 97.9199 109.447 101.24 114.857 101.76L114.067 109.9Z" fill="#8A6FE8"/>
<path d="M96.6868 73.0399C100.857 73.0399 104.237 69.6597 104.237 65.4899C104.237 61.3202 100.857 57.9399 96.6868 57.9399C92.517 57.9399 89.1368 61.3202 89.1368 65.4899C89.1368 69.6597 92.517 73.0399 96.6868 73.0399Z" fill="url(#paint4_radial)"/>
<path d="M118.387 127.34L154.757 136.43L156.987 127.71L120.587 118.57C118.337 118.01 115.737 119.59 115.077 121.83C114.417 124.07 115.957 126.73 118.387 127.34Z" fill="url(#paint5_linear)"/>
<path d="M151.787 135.73L153.377 128.82L194.257 120.34L188.627 144.93C188.387 145.99 187.347 146.58 186.307 146.27L151.787 135.73Z" fill="#522CD5"/>
<path d="M185.957 111.77C187.087 110.69 188.727 110.98 190.147 111.41L194.507 112.74C195.287 112.98 195.777 113.82 195.587 114.62L193.587 123.32C193.377 124.22 192.497 124.73 191.607 124.46L187.047 123.28C185.407 122.78 184.317 122.69 182.787 124.12C173.767 132.54 163.437 135.68 152.347 133.28L153.807 126.95C159.577 127.8 171.067 125.98 185.957 111.77Z" fill="url(#paint6_linear)"/>
<path d="M195.596 114.62C195.776 113.83 195.296 112.98 194.516 112.75L190.156 111.42C189.226 111.14 188.196 110.92 187.286 111.11L184.526 123.07C185.316 122.85 186.086 123 187.056 123.29L191.616 124.47C192.496 124.74 193.386 124.23 193.596 123.33L195.596 114.62Z" fill="url(#paint7_radial)"/>
<path d="M177.166 127.34L140.796 136.43L138.566 127.71L174.966 118.57C177.216 118.01 179.816 119.59 180.476 121.83C181.136 124.07 179.606 126.73 177.166 127.34Z" fill="url(#paint8_linear)"/>
<path d="M143.766 135.73L142.176 128.82L101.296 120.34L106.926 144.93C107.166 145.99 108.206 146.58 109.246 146.27L143.766 135.73Z" fill="#522CD5"/>
<path d="M109.597 111.77C108.467 110.69 106.827 110.98 105.407 111.41L101.047 112.74C100.267 112.98 99.7768 113.82 99.9668 114.62L101.967 123.32C102.177 124.22 103.057 124.73 103.947 124.46L108.507 123.28C110.147 122.78 111.237 122.69 112.767 124.12C121.787 132.54 132.117 135.68 143.207 133.28L141.747 126.95C135.977 127.8 124.487 125.98 109.597 111.77Z" fill="url(#paint9_linear)"/>
<path d="M99.9666 114.62C99.7866 113.83 100.267 112.98 101.047 112.75L105.407 111.42C106.337 111.14 107.367 110.92 108.277 111.11L111.037 123.07C110.247 122.85 109.477 123 108.507 123.29L103.947 124.47C103.067 124.74 102.177 124.23 101.967 123.33L99.9666 114.62Z" fill="url(#paint10_radial)"/>
<path d="M147.346 93.71H150.036L169.386 90.13L167.616 88.27C167.616 88.27 154.316 90.69 149.806 91.51C148.356 91.77 147.656 92.57 147.276 93.22C146.896 92.57 145.866 91.51 144.406 91.51C142.596 91.51 125.816 91.51 125.816 91.51L124.566 93.68L146.846 93.72H147.086L147.346 93.71Z" fill="white"/>
<path d="M170.147 121.1L149.847 124.79H124.377C123.597 124.79 122.967 124.16 122.967 123.38V94.5302C122.967 93.7502 123.597 93.1202 124.377 93.1202H144.467L147.557 95.4702L150.047 93.0602L170.137 89.4302C170.917 89.4302 171.547 90.0602 171.547 90.8402V119.69C171.557 120.47 170.927 121.1 170.147 121.1Z" fill="#F7B548"/>
<path d="M150.077 93.05C147.267 94.4 144.477 93.11 144.477 93.11C144.477 93.11 144.457 115.23 144.477 124.9C147.707 126.4 150.057 124.9 150.057 124.9C150.057 124.9 150.057 110.21 150.077 93.05Z" fill="#FFD590"/>
<path d="M176.447 115.06L169.767 118.84C167.977 119.84 165.727 119.19 164.727 117.41C163.727 115.62 164.377 113.37 166.157 112.37L173.007 108.49L176.447 115.06Z" fill="#8A6FE8"/>
<path d="M172.517 113.71L161.976 114.65C159.936 114.82 158.146 113.31 157.976 111.27C157.806 109.23 159.316 107.44 161.356 107.27L169.196 106.55L172.517 113.71Z" fill="#8A6FE8"/>
<path d="M173.257 109.25L162.767 107.77C160.737 107.49 159.327 105.62 159.607 103.59C159.887 101.56 161.757 100.15 163.787 100.43L174.467 101.94L173.257 109.25Z" fill="#8A6FE8"/>
<path d="M175.117 115.44C179.397 115.44 182.867 111.97 182.867 107.69C182.867 103.41 179.397 99.9399 175.117 99.9399C170.837 99.9399 167.367 103.41 167.367 107.69C167.367 111.97 170.837 115.44 175.117 115.44Z" fill="url(#paint11_radial)"/>
<path d="M116.316 115.06L122.996 118.84C124.786 119.84 127.036 119.19 128.036 117.41C129.036 115.62 128.386 113.37 126.606 112.37L119.756 108.49L116.316 115.06Z" fill="#8A6FE8"/>
<path d="M120.237 113.71L130.777 114.65C132.817 114.82 134.607 113.31 134.777 111.27C134.947 109.23 133.437 107.44 131.397 107.27L123.557 106.55L120.237 113.71Z" fill="#8A6FE8"/>
<path d="M119.497 109.25L129.987 107.77C132.017 107.49 133.427 105.62 133.147 103.59C132.867 101.56 130.997 100.15 128.967 100.43L118.287 101.94L119.497 109.25Z" fill="#8A6FE8"/>
<path d="M117.647 115.44C121.927 115.44 125.397 111.97 125.397 107.69C125.397 103.41 121.927 99.9399 117.647 99.9399C113.366 99.9399 109.897 103.41 109.897 107.69C109.897 111.97 113.366 115.44 117.647 115.44Z" fill="url(#paint12_radial)"/>
<path d="M136.277 11.32C139.403 11.32 141.937 8.78593 141.937 5.66C141.937 2.53407 139.403 0 136.277 0C133.151 0 130.617 2.53407 130.617 5.66C130.617 8.78593 133.151 11.32 136.277 11.32Z" fill="#D0C5F3"/>
<path d="M174.867 61.17C174.867 65.63 174.007 69.89 172.447 73.8C172.067 74.75 171.157 75.37 170.137 75.37H117.867C116.847 75.37 115.927 74.75 115.557 73.8C113.997 69.89 113.137 65.63 113.137 61.17C113.137 59.35 113.287 57.56 113.567 55.81C113.757 54.61 114.807 53.74 116.017 53.74H171.997C173.207 53.74 174.257 54.61 174.447 55.81C174.717 57.56 174.867 59.35 174.867 61.17Z" fill="white"/>
<path d="M156.337 72.4999C156.337 72.4999 149.767 67.2999 148.477 66.3299C147.187 65.3599 146.067 65.3099 144.897 66.3299C143.717 67.3499 137.137 72.4999 137.137 72.4999H156.337Z" fill="#A08BE8"/>
<path d="M174.437 55.81C174.247 54.61 173.197 53.74 171.987 53.74H169.117C170.327 53.74 171.377 54.61 171.567 55.81C171.847 57.56 171.997 59.35 171.997 61.17C171.997 63.8 171.687 66.36 171.127 68.82C170.957 69.52 170.777 70.23 170.567 70.93C170.277 71.91 169.277 72.5 168.257 72.5H116.717C115.767 72.5 114.897 72.03 114.607 71.12C114.397 70.44 114.037 69.03 114.037 69.03C115.127 74.97 116.167 75.38 117.427 75.38H117.717H167.257H170.127C171.147 75.38 172.067 74.76 172.437 73.81C173.997 69.9 174.857 65.64 174.857 61.18C174.867 59.35 174.717 57.56 174.437 55.81Z" fill="#512BD4"/>
<path d="M131.866 67.9929C133.622 67.9667 135.01 65.5549 134.966 62.606C134.922 59.6571 133.463 57.2878 131.707 57.3139C129.951 57.3401 128.563 59.7519 128.607 62.7008C128.651 65.6497 130.11 68.019 131.866 67.9929Z" fill="#512BD4"/>
<path d="M134.927 63.29C134.377 62.66 133.567 62.25 132.657 62.25C130.987 62.25 129.627 63.6 129.627 65.28C129.627 66.3 130.137 67.2 130.917 67.75C131.217 67.9 131.527 68 131.857 68C133.477 67.97 134.767 65.92 134.927 63.29Z" fill="#8065E0"/>
<path d="M160.587 67.9934C162.343 67.9672 163.731 65.5554 163.687 62.6065C163.643 59.6576 162.184 57.2883 160.428 57.3144C158.672 57.3406 157.284 59.7524 157.328 62.7013C157.372 65.6502 158.831 68.0195 160.587 67.9934Z" fill="#512BD4"/>
<path d="M163.647 63.29C163.097 62.66 162.287 62.25 161.377 62.25C159.707 62.25 158.347 63.6 158.347 65.28C158.347 66.3 158.857 67.2 159.637 67.75C159.937 67.9 160.247 68 160.577 68C162.197 67.97 163.487 65.92 163.647 63.29Z" fill="#8065E0"/>
<defs>
<linearGradient id="paint0_linear" x1="160.675" y1="117.437" x2="115.064" y2="117.435" gradientUnits="userSpaceOnUse">
<stop stop-color="#522CD5"/>
<stop offset="0.4397" stop-color="#8A6FE8"/>
</linearGradient>
<linearGradient id="paint1_linear" x1="135.225" y1="117.754" x2="180.836" y2="117.752" gradientUnits="userSpaceOnUse">
<stop stop-color="#522CD5"/>
<stop offset="0.4397" stop-color="#8A6FE8"/>
</linearGradient>
<radialGradient id="paint2_radial" cx="0" cy="0" r="1" gradientUnits="userSpaceOnUse" gradientTransform="translate(146.898 36.2334) scale(55.924)">
<stop offset="0.186" stop-color="#A08BE8"/>
<stop offset="0.7272" stop-color="#8065E0"/>
</radialGradient>
<radialGradient id="paint3_radial" cx="0" cy="0" r="1" gradientUnits="userSpaceOnUse" gradientTransform="translate(136.543 17.3397) scale(9.9847)">
<stop stop-color="#8065E0"/>
<stop offset="1" stop-color="#512BD4"/>
</radialGradient>
<radialGradient id="paint4_radial" cx="0" cy="0" r="1" gradientUnits="userSpaceOnUse" gradientTransform="translate(92.7541 61.0816) scale(12.7338)">
<stop stop-color="#8065E0"/>
<stop offset="1" stop-color="#512BD4"/>
</radialGradient>
<linearGradient id="paint5_linear" x1="114.925" y1="127.438" x2="156.993" y2="127.438" gradientUnits="userSpaceOnUse">
<stop stop-color="#522CD5"/>
<stop offset="0.4397" stop-color="#8A6FE8"/>
</linearGradient>
<linearGradient id="paint6_linear" x1="150.767" y1="128.734" x2="195.844" y2="115.766" gradientUnits="userSpaceOnUse">
<stop stop-color="#522CD5"/>
<stop offset="0.4397" stop-color="#8A6FE8"/>
</linearGradient>
<radialGradient id="paint7_radial" cx="0" cy="0" r="1" gradientUnits="userSpaceOnUse" gradientTransform="translate(178.443 115.374) rotate(-77.0213) scale(14.4597)">
<stop offset="0.034" stop-color="#522CD5"/>
<stop offset="0.9955" stop-color="#8A6FE8"/>
</radialGradient>
<linearGradient id="paint8_linear" x1="180.632" y1="127.438" x2="138.565" y2="127.438" gradientUnits="userSpaceOnUse">
<stop stop-color="#522CD5"/>
<stop offset="0.4397" stop-color="#8A6FE8"/>
</linearGradient>
<linearGradient id="paint9_linear" x1="144.665" y1="128.719" x2="99.5883" y2="115.751" gradientUnits="userSpaceOnUse">
<stop stop-color="#522CD5"/>
<stop offset="0.4397" stop-color="#8A6FE8"/>
</linearGradient>
<radialGradient id="paint10_radial" cx="0" cy="0" r="1" gradientUnits="userSpaceOnUse" gradientTransform="translate(117.001 115.46) rotate(-102.979) scale(14.4597)">
<stop offset="0.034" stop-color="#522CD5"/>
<stop offset="0.9955" stop-color="#8A6FE8"/>
</radialGradient>
<radialGradient id="paint11_radial" cx="0" cy="0" r="1" gradientUnits="userSpaceOnUse" gradientTransform="translate(177.536 106.028) rotate(-127.488) scale(7.75434)">
<stop stop-color="#8065E0"/>
<stop offset="1" stop-color="#512BD4"/>
</radialGradient>
<radialGradient id="paint12_radial" cx="0" cy="0" r="1" gradientUnits="userSpaceOnUse" gradientTransform="translate(115.142 105.933) rotate(-52.5125) scale(7.75434)">
<stop stop-color="#8065E0"/>
<stop offset="1" stop-color="#512BD4"/>
</radialGradient>
</defs>
</svg>
