<svg width="272" height="201" viewBox="0 0 272 201" fill="none" xmlns="http://www.w3.org/2000/svg">
<path d="M178.517 140.56L176.357 132.34C191.217 128.43 198.067 125.64 201.187 124C197.587 123.01 189.637 121.67 172.247 120.98L172.587 112.49C204.797 113.77 211.237 117.13 211.867 122.86C212.467 128.35 207.197 133.01 178.517 140.56Z" fill="url(#paint0_linear)"/>
<path d="M107.537 147.21C100.877 146.99 90.6769 146.17 82.0069 144.53C68.6869 142.01 62.2969 138.36 61.2969 132.71C60.0769 125.83 67.1869 119.81 85.0569 112.6L88.2369 120.48C72.6569 126.77 70.1269 130.42 69.7369 131.25C70.2569 131.86 72.9769 134.29 84.7369 136.38C92.6969 137.8 101.877 138.51 107.817 138.7L107.537 147.21Z" fill="url(#paint1_linear)"/>
<path d="M81.1365 78.2803C80.5065 77.7303 65.6065 63.3303 66.1965 46.1303C66.5365 36.2003 70.6465 26.5103 80.7865 18.7603L86.3565 26.0403C78.5165 32.0303 75.6465 40.5203 75.3965 47.5603C74.9265 60.4003 87.0765 71.2903 87.1965 71.4003L81.1365 78.2803Z" fill="url(#paint2_linear)"/>
<path d="M85.1169 106.93C84.4869 107.49 68.2669 120.38 51.2969 117.56C41.4869 115.93 32.4269 110.59 26.0569 99.5302L33.9969 94.9502C38.9169 103.5 46.9569 107.45 53.9069 108.62C66.5769 110.75 78.9569 100.13 79.0769 100.02L85.1169 106.93Z" fill="url(#paint3_linear)"/>
<path d="M179.057 81.1701L179.747 71.9401C188.297 72.5801 194.657 70.4501 197.667 65.9501C201.247 60.6101 200.297 51.8601 195.007 41.3001L203.287 37.1501C212.077 54.6701 209.267 65.2901 205.367 71.1001C200.407 78.4901 191.067 82.0701 179.057 81.1701Z" fill="url(#paint4_linear)"/>
<path d="M230.297 62.5501L221.487 59.6101C217.207 69.5601 211.427 77.2901 204.217 81.5601C197.877 85.3101 190.287 86.8901 181.677 86.2501L180.167 94.9001C196.187 96.0901 217.877 91.4601 230.297 62.5501Z" fill="url(#paint5_linear)"/>
<path d="M238.576 116.95L179.136 107.97L180.436 99.3301L239.856 108.31L238.576 116.95Z" fill="url(#paint6_linear)"/>
<path d="M174.227 86.3502C169.437 86.3502 165.547 82.4602 165.547 77.6702C165.547 72.8802 169.437 68.9902 174.227 68.9902C179.017 68.9902 182.907 72.8802 182.907 77.6702C182.907 82.4702 179.017 86.3502 174.227 86.3502Z" fill="url(#paint7_radial)"/>
<path d="M175.857 98.5802C171.067 98.5802 167.177 94.6902 167.177 89.9002C167.177 85.1102 171.067 81.2202 175.857 81.2202C180.647 81.2202 184.537 85.1102 184.537 89.9002C184.537 94.7002 180.647 98.5802 175.857 98.5802Z" fill="url(#paint8_radial)"/>
<path d="M174.756 110.65C169.966 110.65 166.076 106.76 166.076 101.97C166.076 97.18 169.966 93.29 174.756 93.29C179.546 93.29 183.436 97.18 183.436 101.97C183.436 106.77 179.556 110.65 174.756 110.65Z" fill="url(#paint9_radial)"/>
<path d="M169.177 122.73C164.387 122.73 160.497 118.84 160.497 114.05C160.497 109.26 164.387 105.37 169.177 105.37C173.967 105.37 177.857 109.26 177.857 114.05C177.857 118.85 173.977 122.73 169.177 122.73Z" fill="url(#paint10_radial)"/>
<path d="M154.747 162.91C154.827 155.41 153.767 140.2 146.027 127.46L138.457 132.05C145.477 143.61 146.007 157.09 145.837 162.98C145.827 163.47 150.367 163.91 154.747 162.91Z" fill="url(#paint11_linear)"/>
<path d="M145.846 162.9L152.856 162.87L159.396 200.34L145.336 200.4C144.266 200.4 143.456 199.54 143.526 198.47L145.846 162.9Z" fill="#522CD5"/>
<path d="M174.387 190.48C175.597 191.44 175.577 192.83 175.487 194.29L175.197 198.78C175.147 199.58 174.447 200.24 173.637 200.25L158.987 200.32C158.077 200.32 157.387 199.59 157.447 198.68L157.547 194.03C157.657 192.34 157.087 191.72 155.777 190.13C153.537 187.41 146.907 172.57 147.537 162.9L154.757 162.87C155.227 168.6 162.797 181.34 174.387 190.48Z" fill="url(#paint12_linear)"/>
<path d="M175.486 194.29C175.556 193.27 175.576 192.29 175.166 191.46L156.886 191.54C157.396 192.28 157.606 192.93 157.536 194.02L157.436 198.67C157.376 199.58 158.066 200.32 158.976 200.31L173.626 200.24C174.426 200.24 175.126 199.58 175.186 198.77L175.486 194.29Z" fill="url(#paint13_radial)"/>
<path d="M117.777 163.08C117.627 155.59 118.557 140.36 126.177 127.55L133.787 132.08C126.877 143.7 126.467 157.19 126.687 163.07C126.697 163.55 122.167 164.04 117.777 163.08Z" fill="url(#paint14_linear)"/>
<path d="M110.116 193.29C110.106 192.29 110.256 191.41 110.676 189.95C117.216 172.06 117.776 163.04 117.776 163.04L126.696 163C126.696 163 127.306 171.85 134.016 189.67C134.546 190.94 134.606 192.1 134.676 193.17L134.716 198.89C134.716 199.75 134.016 200.46 133.156 200.47H132.726L112.146 200.56H111.716C110.846 200.56 110.146 199.87 110.136 199L110.116 193.29Z" fill="url(#paint15_linear)"/>
<path d="M110.116 193.29C110.116 193.13 110.116 192.97 110.126 192.81C110.176 192.31 110.396 191.75 111.486 191.75L133.496 191.65C134.286 191.68 134.556 192.29 134.636 192.67C134.646 192.84 134.656 193.01 134.676 193.18L134.716 198.9C134.716 199.44 134.446 199.92 134.026 200.2C133.776 200.37 133.476 200.47 133.156 200.47H132.726L112.146 200.56H111.716C111.286 200.56 110.886 200.39 110.606 200.11C110.326 199.83 110.146 199.44 110.146 199L110.116 193.29Z" fill="url(#paint16_radial)"/>
<path d="M132.786 137.68C158.987 137.68 180.226 116.441 180.226 90.2403C180.226 64.0399 158.987 42.8003 132.786 42.8003C106.586 42.8003 85.3464 64.0399 85.3464 90.2403C85.3464 116.441 106.586 137.68 132.786 137.68Z" fill="url(#paint17_radial)"/>
<path d="M91.8865 114.26H173.696C171.856 117.38 169.676 120.27 167.196 122.88H98.3765C95.9065 120.27 93.7165 117.38 91.8865 114.26Z" fill="#D8CFF7"/>
<path d="M137.306 40.2501H128.136L129.426 30.8301H136.016L137.306 40.2501Z" fill="url(#paint18_linear)"/>
<path d="M140.817 46.0002C141.227 46.0002 141.557 45.6402 141.517 45.2302C141.027 40.8802 137.347 37.4902 132.857 37.4902C128.377 37.4902 124.687 40.8702 124.197 45.2302C124.147 45.6402 124.477 46.0002 124.897 46.0002H140.817Z" fill="url(#paint19_radial)"/>
<path d="M149.727 110.81H134.417V126.12H149.727V110.81Z" fill="#512BD4"/>
<path d="M137.147 120.59C137.037 120.59 136.947 120.55 136.867 120.48C136.787 120.41 136.757 120.32 136.757 120.22C136.757 120.12 136.797 120.03 136.867 119.95C136.947 119.88 137.037 119.84 137.147 119.84C137.257 119.84 137.347 119.88 137.427 119.95C137.507 120.02 137.547 120.11 137.547 120.22C137.547 120.32 137.507 120.41 137.427 120.48C137.347 120.56 137.257 120.59 137.147 120.59Z" fill="white"/>
<path d="M141.467 120.53H140.767L138.917 117.61C138.867 117.54 138.827 117.46 138.797 117.38H138.777C138.787 117.47 138.797 117.65 138.797 117.93V120.54H138.177V116.56H138.927L140.717 119.41C140.797 119.53 140.837 119.61 140.867 119.65H140.877C140.857 119.54 140.847 119.37 140.847 119.11V116.55H141.467V120.53Z" fill="white"/>
<path d="M144.497 120.53H142.317V116.55H144.407V117.11H142.957V118.24H144.287V118.8H142.957V119.98H144.487V120.53H144.497Z" fill="white"/>
<path d="M147.597 117.11H146.487V120.53H145.847V117.11H144.737V116.55H147.607V117.11H147.597Z" fill="white"/>
<path d="M132.837 32.7702C136.443 32.7702 139.367 29.8466 139.367 26.2402C139.367 22.6338 136.443 19.7102 132.837 19.7102C129.23 19.7102 126.307 22.6338 126.307 26.2402C126.307 29.8466 129.23 32.7702 132.837 32.7702Z" fill="#D0C5F3"/>
<path d="M44.5464 72.5C41.7664 69.6 39.4464 66.71 37.5164 64.03C29.1864 52.38 26.4564 41.98 26.3464 41.54L35.3864 39.23C35.4064 39.31 37.8864 48.63 45.3164 58.9C55.1364 72.47 68.5564 81.25 85.2064 84.99L83.1564 94.09C65.3164 90.07 52.8864 81.22 44.5464 72.5Z" fill="url(#paint20_linear)"/>
<path d="M85.9468 20.3901L94.9768 20.8801C97.3768 21.0301 99.2068 23.0901 99.0668 25.5001C98.9168 27.9001 96.8568 29.7301 94.4468 29.5901L85.1868 29.1001L85.9468 20.3901Z" fill="url(#paint21_linear)"/>
<path d="M84.1264 29.87C89.1264 29.19 92.6264 24.59 91.9464 19.59C91.2664 14.59 86.6664 11.09 81.6664 11.77C76.6664 12.45 73.1664 17.05 73.8464 22.05C74.5264 27.05 79.1264 30.55 84.1264 29.87Z" fill="url(#paint22_radial)"/>
<path d="M79.2966 15.5401L79.8666 6.52011C80.0366 4.11011 82.1166 2.31011 84.5266 2.48011C86.9366 2.65011 88.7366 4.73011 88.5666 7.14011L87.9766 16.3901L79.2966 15.5401Z" fill="url(#paint23_linear)"/>
<path d="M84.5867 16.84L88.4967 8.69002C89.5567 6.53002 92.1667 5.63002 94.3267 6.69002C96.4867 7.75002 97.3867 10.36 96.3267 12.52L92.3167 20.87L84.5867 16.84Z" fill="#D0C5F3"/>
<path d="M73.7566 16.8801L79.0766 26.9301C79.7666 28.2401 81.3966 28.7401 82.7066 28.0401L104.357 16.5701C105.667 15.8801 106.167 14.2501 105.467 12.9401L100.147 2.90008C99.4566 1.59008 97.8266 1.09008 96.5166 1.79008L74.8766 13.2601C73.5666 13.9501 73.0666 15.5701 73.7566 16.8801Z" fill="#505050"/>
<path d="M98.8467 4.50011C98.7767 4.56011 98.6967 4.62011 98.6367 4.70011L98.1567 5.38011C97.7967 5.89011 97.7467 6.56011 98.0367 7.11011L100.927 12.5701C101.217 13.1201 101.797 13.4601 102.417 13.4501L103.247 13.4301C103.347 13.4301 103.437 13.4001 103.527 13.3701L103.947 14.1601C104.147 14.5301 103.997 14.9901 103.637 15.1901L81.7767 26.7701C81.4067 26.9701 80.9467 26.8201 80.7467 26.4601L75.2267 16.0401C75.0267 15.6701 75.1767 15.2101 75.5367 15.0101L97.4067 3.42011C97.7767 3.22011 98.2367 3.37011 98.4367 3.73011L98.8467 4.50011Z" fill="#F7B548"/>
<path d="M85.1865 24.9602L81.7865 26.7602C81.4165 26.9602 80.9565 26.8102 80.7565 26.4502L75.2365 16.0302C75.0365 15.6602 75.1865 15.2002 75.5465 15.0002L78.9465 13.2002L85.1865 24.9602Z" fill="#969696"/>
<path d="M96.8669 15.2302L97.3569 16.1602C97.6569 16.7302 98.3669 16.9502 98.9369 16.6502L99.6469 16.2802C100.217 15.9802 100.437 15.2702 100.137 14.7002L99.6469 13.7702C99.3469 13.2002 98.6369 12.9802 98.0669 13.2802L97.3569 13.6502C96.7869 13.9502 96.5669 14.6602 96.8669 15.2302Z" fill="#FFD590"/>
<path d="M94.9567 11.6101L95.4467 12.5401C95.7467 13.1101 96.4567 13.3301 97.0267 13.0301L97.7367 12.6601C98.3067 12.3601 98.5267 11.6501 98.2267 11.0801L97.7367 10.1501C97.4367 9.58009 96.7267 9.36009 96.1567 9.66009L95.4467 10.0301C94.8667 10.3401 94.6567 11.0501 94.9567 11.6101Z" fill="#FFD590"/>
<path d="M93.5065 17.01L93.9965 17.94C94.2965 18.51 95.0065 18.73 95.5765 18.43L96.2865 18.06C96.8565 17.76 97.0765 17.05 96.7765 16.48L96.2865 15.55C95.9865 14.98 95.2765 14.76 94.7065 15.06L93.9965 15.43C93.4265 15.73 93.2065 16.44 93.5065 17.01Z" fill="#FFD590"/>
<path d="M91.5969 13.3901L92.0869 14.3201C92.3869 14.8901 93.0969 15.1101 93.6669 14.8101L94.3769 14.4401C94.9469 14.1401 95.1669 13.4301 94.8669 12.8601L94.3769 11.9301C94.0769 11.3601 93.3669 11.1401 92.7969 11.4401L92.0869 11.8101C91.5169 12.1101 91.2969 12.8301 91.5969 13.3901Z" fill="#FFD590"/>
<path d="M90.1564 18.7903L90.6464 19.7203C90.9464 20.2903 91.6564 20.5103 92.2264 20.2103L92.9364 19.8403C93.5064 19.5403 93.7264 18.8303 93.4264 18.2603L92.9364 17.3303C92.6364 16.7603 91.9264 16.5403 91.3564 16.8403L90.6464 17.2103C90.0664 17.5103 89.8464 18.2203 90.1564 18.7903Z" fill="#FFD590"/>
<path d="M88.2365 15.1701L88.7265 16.1001C89.0265 16.6701 89.7365 16.8901 90.3065 16.5901L91.0165 16.2201C91.5865 15.9201 91.8065 15.2101 91.5065 14.6401L91.0165 13.7101C90.7165 13.1401 90.0065 12.9201 89.4365 13.2201L88.7265 13.5901C88.1565 13.8901 87.9265 14.6001 88.2365 15.1701Z" fill="#FFD590"/>
<path d="M93.0368 8.00022L93.5268 8.93022C93.8268 9.50022 94.5368 9.72022 95.1068 9.42022L95.8168 9.05022C96.3868 8.75022 96.6068 8.04022 96.3068 7.47022L95.8168 6.54022C95.5168 5.97022 94.8068 5.75022 94.2368 6.05022L93.5268 6.42022C92.9568 6.72022 92.7368 7.43022 93.0368 8.00022Z" fill="#FFD590"/>
<path d="M89.6764 9.78001L90.1664 10.71C90.4664 11.28 91.1764 11.5 91.7464 11.2L92.4564 10.83C93.0264 10.53 93.2464 9.82001 92.9464 9.25001L92.4564 8.32001C92.1564 7.75001 91.4464 7.53001 90.8764 7.83001L90.1664 8.20001C89.5964 8.49001 89.3764 9.21001 89.6764 9.78001Z" fill="#FFD590"/>
<path d="M86.3268 11.5603L86.8168 12.4903C87.1168 13.0603 87.8268 13.2803 88.3968 12.9803L89.1068 12.6103C89.6768 12.3103 89.8968 11.6003 89.5968 11.0303L89.1068 10.1003C88.8068 9.53028 88.0968 9.31028 87.5268 9.61028L86.8168 9.98028C86.2368 10.2703 86.0268 10.9903 86.3268 11.5603Z" fill="#FFD590"/>
<path d="M70.3967 10.8301L70.9467 14.6101C71.2867 16.9801 73.4967 18.6201 75.8667 18.2801C78.2367 17.9401 79.8767 15.7301 79.5367 13.3601L78.9867 9.58009C78.6467 7.21009 76.4367 5.57009 74.0667 5.91009C71.6967 6.26009 70.0467 8.46009 70.3967 10.8301Z" fill="url(#paint24_linear)"/>
<path d="M76.8469 6.40016L77.3969 10.1802C77.7369 12.5502 79.9469 14.1902 82.3169 13.8502C84.6869 13.5102 86.3269 11.3002 85.9869 8.93016L85.4369 5.15016C85.0969 2.78016 82.8869 1.14016 80.5169 1.48016C78.1469 1.82016 76.4969 4.02016 76.8469 6.40016Z" fill="url(#paint25_linear)"/>
<path d="M180.937 34.1099L191.397 41.7199C193.267 43.0799 195.867 42.6599 197.227 40.7999C198.587 38.9299 198.167 36.3299 196.307 34.9699L185.847 27.3599C183.977 25.9999 181.377 26.4199 180.017 28.2799C178.667 30.1499 179.077 32.7599 180.937 34.1099Z" fill="url(#paint26_linear)"/>
<path d="M206.317 39.9601L212.677 34.0301C214.357 32.4401 214.437 29.7802 212.847 28.1002C211.257 26.4202 208.597 26.3402 206.917 27.9302L200.397 34.0101L206.317 39.9601Z" fill="#D0C5F3"/>
<path d="M206.187 35.2601L210.777 24.1801C211.657 22.0301 210.627 19.5901 208.487 18.7001C206.337 17.8201 203.897 18.8501 203.007 20.9901L199.567 29.2101L206.187 35.2601Z" fill="#D0C5F3"/>
<path d="M201.107 34.5401L203.067 22.7001C203.447 20.4101 201.907 18.2501 199.627 17.8701C197.337 17.4901 195.177 19.0301 194.797 21.3101L192.797 33.3701L201.107 34.5401Z" fill="#D0C5F3"/>
<path d="M198.807 44.81C203.657 44.81 207.597 40.88 207.597 36.02C207.597 31.17 203.667 27.23 198.807 27.23C193.957 27.23 190.017 31.16 190.017 36.02C190.017 40.87 193.947 44.81 198.807 44.81Z" fill="url(#paint27_radial)"/>
<path d="M87.8165 86.3502C92.6065 86.3502 96.4965 82.4602 96.4965 77.6702C96.4965 72.8802 92.6065 68.9902 87.8165 68.9902C83.0265 68.9902 79.1365 72.8802 79.1365 77.6702C79.1365 82.4702 83.0165 86.3502 87.8165 86.3502Z" fill="url(#paint28_radial)"/>
<path d="M86.1768 98.5802C90.9668 98.5802 94.8568 94.6902 94.8568 89.9002C94.8568 85.1102 90.9668 81.2202 86.1768 81.2202C81.3868 81.2202 77.4968 85.1102 77.4968 89.9002C77.5068 94.7002 81.3868 98.5802 86.1768 98.5802Z" fill="url(#paint29_radial)"/>
<path d="M87.2764 110.65C92.0664 110.65 95.9564 106.76 95.9564 101.97C95.9564 97.18 92.0664 93.29 87.2764 93.29C82.4864 93.29 78.5964 97.18 78.5964 101.97C78.5964 106.77 82.4864 110.65 87.2764 110.65Z" fill="url(#paint30_radial)"/>
<path d="M247.827 110.38L253.917 104C255.527 102.29 255.447 99.5902 253.737 97.9802C252.027 96.3702 249.327 96.4502 247.717 98.1602L241.467 104.7L247.827 110.38Z" fill="url(#paint31_linear)"/>
<path d="M241.757 118.97L249.267 123.6C251.277 124.82 253.897 124.18 255.107 122.17C256.327 120.16 255.687 117.54 253.677 116.33L245.977 111.58L241.757 118.97Z" fill="url(#paint32_linear)"/>
<path d="M244.977 113.75L252.597 118.18C254.637 119.35 257.237 118.64 258.407 116.6C259.577 114.56 258.867 111.96 256.827 110.79L249.007 106.24L244.977 113.75Z" fill="url(#paint33_linear)"/>
<path d="M237.366 120.04L243.826 126.04C245.556 127.62 248.256 127.51 249.836 125.78C251.416 124.05 251.306 121.35 249.576 119.77L242.946 113.61L237.366 120.04Z" fill="url(#paint34_linear)"/>
<path d="M242.977 122.16C247.897 122.16 251.887 118.17 251.887 113.25C251.887 108.33 247.897 104.34 242.977 104.34C238.057 104.34 234.067 108.33 234.067 113.25C234.067 118.17 238.057 122.16 242.977 122.16Z" fill="url(#paint35_radial)"/>
<path d="M91.8565 122.73C96.6465 122.73 100.537 118.84 100.537 114.05C100.537 109.26 96.6465 105.37 91.8565 105.37C87.0665 105.37 83.1765 109.26 83.1765 114.05C83.1765 118.85 87.0665 122.73 91.8565 122.73Z" fill="url(#paint36_radial)"/>
<path d="M37.0168 46.2802L42.2168 39.1502C43.6068 37.2602 46.2768 36.8602 48.1668 38.2602C50.0568 39.6502 50.4568 42.3202 49.0568 44.2102L43.7268 51.5202L37.0168 46.2802Z" fill="#D0C5F3"/>
<path d="M32.1865 48.6602L23.3865 48.0102C21.0465 47.8202 19.2965 45.7702 19.4865 43.4302C19.6765 41.0902 21.7265 39.3402 24.0665 39.5302L33.0865 40.2002L32.1865 48.6602Z" fill="#D0C5F3"/>
<path d="M33.1365 45.4802L27.4265 38.7602C25.9165 36.9602 26.1565 34.2702 27.9665 32.7602C29.7665 31.2502 32.4565 31.4902 33.9665 33.3002L39.8165 40.2002L33.1365 45.4802Z" fill="#D0C5F3"/>
<path d="M33.2264 56.4401L24.4464 55.6401C22.1064 55.4101 20.3964 53.3301 20.6264 50.9901C20.8564 48.6502 22.9364 46.9401 25.2764 47.1701L34.2764 47.9901L33.2264 56.4401Z" fill="url(#paint37_linear)"/>
<path d="M30.0268 56.0102C33.9368 59.0002 39.5268 58.2502 42.5068 54.3402C45.4968 50.4302 44.7468 44.8402 40.8368 41.8602C36.9268 38.8702 31.3368 39.6202 28.3568 43.5302C25.3668 47.4302 26.1168 53.0202 30.0268 56.0102Z" fill="url(#paint38_radial)"/>
<path d="M63.9065 50.8401H9.84645C1.92645 50.9801 1.32646 49.8501 1.11646 49.5801H70.7165C70.5165 49.8101 70.0865 50.9801 63.9065 50.8401Z" fill="#505050"/>
<path d="M63.6965 48.6602V13.2102C63.6965 11.6802 62.4565 10.4402 60.9265 10.4402H10.9265C9.39649 10.4402 8.15649 11.6802 8.15649 13.2102V48.6602H63.6965V48.6602Z" fill="#505050"/>
<path d="M59.6768 43.6502H12.1667C11.3367 43.6502 10.6667 42.9802 10.6667 42.1502V14.2102C10.6667 13.3802 11.3367 12.7102 12.1667 12.7102H59.6768C60.5068 12.7102 61.1768 13.3802 61.1768 14.2102V42.1602C61.1668 42.9802 60.5068 43.6502 59.6768 43.6502Z" fill="#72ACF1"/>
<path d="M70.6367 49.5803H1.19665C0.84665 49.5803 0.56665 49.3003 0.56665 48.9503C0.56665 48.6003 0.84665 48.3203 1.19665 48.3203H70.6367C70.9867 48.3203 71.2666 48.6003 71.2666 48.9503C71.2766 49.3003 70.9867 49.5803 70.6367 49.5803Z" fill="#969696"/>
<path d="M12.1666 43.6501H30.8766C30.6966 39.7701 27.4966 36.6801 23.5866 36.6801C22.0066 36.6801 20.5266 37.1901 19.3366 38.0501C18.8066 33.1601 15.3066 29.1601 10.6766 27.8701V42.1501C10.6666 42.9801 11.3366 43.6501 12.1666 43.6501Z" fill="#A7CBF6"/>
<path d="M31.0764 43.6503H34.6764C33.3764 43.0603 32.1064 43.1403 31.0764 43.6503Z" fill="#7BDDEF"/>
<path d="M22.0068 33.8403C21.7168 33.8403 21.4768 33.7503 21.2668 33.5503C21.0668 33.3503 20.9568 33.1203 20.9568 32.8403C20.9568 32.5603 21.0568 32.3303 21.2668 32.1203C21.4668 31.9203 21.7168 31.8203 22.0068 31.8203C22.2968 31.8203 22.5468 31.9203 22.7568 32.1203C22.9668 32.3203 23.0668 32.5503 23.0668 32.8403C23.0668 33.1103 22.9568 33.3503 22.7568 33.5503C22.5568 33.7503 22.3068 33.8403 22.0068 33.8403Z" fill="white"/>
<path d="M33.6266 33.6803H31.7366L26.7666 25.8403C26.6366 25.6403 26.5366 25.4403 26.4566 25.2203H26.4066C26.4466 25.4503 26.4666 25.9403 26.4666 26.6803V33.6703H24.7966V23.0103H26.8066L31.6166 30.6703C31.8166 30.9903 31.9466 31.2003 32.0066 31.3303H32.0366C31.9866 31.0503 31.9666 30.5703 31.9666 29.8903V23.0103H33.6266V33.6803Z" fill="white"/>
<path d="M41.7567 33.6803H35.9167V23.0103H41.5267V24.5103H37.6468V27.5303H41.2267V29.0303H37.6468V32.1903H41.7668V33.6803H41.7567Z" fill="white"/>
<path d="M50.0565 24.5103H47.0665V33.6803H45.3365V24.5103H42.3665V23.0103H50.0665L50.0565 24.5103Z" fill="white"/>
<path d="M206.947 32.5001H185.477C183.407 32.5001 181.717 30.8201 181.717 28.7401V9.64013C181.717 7.57013 183.397 5.88013 185.477 5.88013H206.947C209.017 5.88013 210.707 7.56013 210.707 9.64013V28.7401C210.707 30.8201 209.027 32.5001 206.947 32.5001Z" fill="#28C2D1"/>
<path d="M206.776 17.4401L197.136 8.59012C196.906 8.38012 196.546 8.38012 196.316 8.59012L193.396 11.2601C193.006 11.6101 192.376 11.3401 192.376 10.8101V10.2301C192.376 9.90012 192.106 9.62012 191.766 9.62012H190.266C189.936 9.62012 189.656 9.89012 189.656 10.2301V14.4201C189.656 14.5901 189.586 14.7501 189.466 14.8701L186.676 17.4401C186.266 17.8101 186.536 18.5001 187.086 18.5001H187.516C187.846 18.5001 188.126 18.7701 188.126 19.1101V27.6801C188.126 28.0101 188.396 28.2901 188.736 28.2901H204.716C205.046 28.2901 205.326 28.0201 205.326 27.6801V19.1001C205.326 18.7701 205.596 18.4901 205.936 18.4901H206.366C206.916 18.4901 207.176 17.8101 206.776 17.4401Z" fill="white"/>
<path d="M194.876 18.1901V16.2801C194.876 15.2301 195.736 14.3701 196.786 14.3701C197.836 14.3701 198.696 15.2301 198.696 16.2801V18.1901H199.976V16.2801C199.976 14.5201 198.546 13.1001 196.796 13.1001C195.046 13.1001 193.616 14.5301 193.616 16.2801V18.1901H194.876Z" fill="#969696"/>
<path d="M200.267 25.25H193.177C192.217 25.25 191.437 24.47 191.437 23.5V19.54C191.437 18.58 192.217 17.79 193.177 17.79H200.267C201.227 17.79 202.007 18.57 202.007 19.54V23.5C202.007 24.48 201.227 25.25 200.267 25.25Z" fill="#969696"/>
<path d="M197.617 20.8302C197.617 20.3202 197.207 19.9102 196.697 19.9102C196.187 19.9102 195.777 20.3202 195.777 20.8302C195.777 21.2002 195.997 21.5302 196.317 21.6702L196.117 23.3102H197.317L197.117 21.6602C197.407 21.5002 197.617 21.1902 197.617 20.8302Z" fill="white"/>
<path d="M206.517 1.04007C211.427 1.03007 215.457 4.98007 215.487 9.87007C215.487 9.92007 215.477 9.98007 215.477 10.0401L216.517 10.0301L216.527 10.0201C216.577 4.48007 212.047 -0.0199336 206.507 6.64094e-05L206.517 1.04007Z" fill="#C7E0F4"/>
<path d="M206.547 4.58008L206.557 5.62008C208.927 5.63008 210.867 7.54008 210.887 9.91008C210.887 9.96008 210.877 10.0201 210.877 10.0801L211.917 10.0701L211.927 10.0601C211.997 7.05008 209.557 4.58008 206.547 4.58008Z" fill="#C7E0F4"/>
<path d="M206.537 2.29004L206.547 3.33004C210.187 3.33004 213.177 6.26004 213.197 9.89004C213.197 9.94004 213.187 10 213.187 10.06L214.227 10.05L214.237 10.04C214.297 5.76004 210.807 2.29004 206.537 2.29004Z" fill="#C7E0F4"/>
<path d="M207.586 10.8902C208.536 10.8902 209.306 10.1202 209.306 9.1702C209.306 8.2202 208.536 7.4502 207.586 7.4502C206.636 7.4502 205.866 8.2202 205.866 9.1702C205.866 10.1202 206.636 10.8902 207.586 10.8902Z" fill="#C7E0F4"/>
<path d="M214.847 26.0401C213.257 24.4301 210.677 24.3801 209.017 25.9101L205.617 29.0601C203.927 30.6401 203.847 33.3001 205.427 34.9901C207.007 36.6801 209.667 36.7601 211.357 35.1801L214.717 32.0701C216.457 30.4601 216.517 27.7201 214.847 26.0401Z" fill="url(#paint39_linear)"/>
<path d="M211.857 18.6302C210.267 17.0202 207.687 16.9702 206.027 18.5002L202.627 21.6502C200.937 23.2302 200.857 25.8902 202.437 27.5802C204.017 29.2702 206.677 29.3502 208.367 27.7702L211.727 24.6602C213.467 23.0502 213.527 20.3202 211.857 18.6302Z" fill="url(#paint40_linear)"/>
<path d="M47.0364 96.17L36.5764 103.78C34.7064 105.14 32.1064 104.72 30.7464 102.86C29.3864 100.99 29.8064 98.39 31.6664 97.03L42.1264 89.42C43.9964 88.06 46.5964 88.48 47.9564 90.34C49.3064 92.21 48.9064 94.82 47.0364 96.17Z" fill="url(#paint41_linear)"/>
<path d="M29.1765 106.87C34.0265 106.87 37.9665 102.94 37.9665 98.0803C37.9665 93.2303 34.0365 89.2903 29.1765 89.2903C24.3165 89.2903 20.3865 93.2203 20.3865 98.0803C20.3965 102.94 24.3265 106.87 29.1765 106.87Z" fill="url(#paint42_radial)"/>
<path d="M22.0268 94.63H43.4968C45.5668 94.63 47.2568 92.95 47.2568 90.87V71.76C47.2568 69.69 45.5768 68 43.4968 68H22.0268C19.9568 68 18.2668 69.68 18.2668 71.76V90.86C18.2668 92.94 19.9468 94.63 22.0268 94.63Z" fill="#28C2D1"/>
<path d="M34.4065 78.5102H38.6065V76.7402H34.4065V78.5102Z" fill="#FEFFFF"/>
<path d="M35.9368 82.0602H37.0968V78.4202H35.9368V82.0602Z" fill="white"/>
<path d="M24.5368 72.21H40.6268C41.3368 72.21 41.9168 72.79 41.9168 73.5V76.43C41.9168 77.14 41.3368 77.72 40.6268 77.72H31.9568C31.2468 77.72 30.6668 78.3 30.6668 79.01V86.84C30.6668 87.84 31.4768 88.65 32.4768 88.65H41.9068V89.84C41.9068 90.54 41.3468 91.1 40.6468 91.1H29.3768H24.7468H24.5368C23.8268 91.1 23.2468 90.52 23.2468 89.81V89.6V88.66V73.5C23.2568 72.79 23.8268 72.21 24.5368 72.21Z" fill="#505050"/>
<path d="M37.1768 74.5401H39.0468C39.3168 74.5401 39.5368 74.3201 39.5368 74.0501C39.5368 73.7801 39.3168 73.5601 39.0468 73.5601H37.1768C36.9068 73.5601 36.6868 73.7801 36.6868 74.0501C36.6868 74.3201 36.9068 74.5401 37.1768 74.5401Z" fill="#B3AFAB"/>
<path d="M25.0269 76.6902H29.0369C29.2969 76.6902 29.5069 76.4802 29.5069 76.2202V74.1702C29.5069 73.9102 29.2969 73.7002 29.0369 73.7002H25.0269C24.7669 73.7002 24.5569 73.9102 24.5569 74.1702V76.2202C24.5569 76.4802 24.7669 76.6902 25.0269 76.6902Z" fill="#72ACF1"/>
<path d="M28.3666 79.5502C28.8166 79.5502 29.1866 79.1802 29.1866 78.7302C29.1866 78.2802 28.8166 77.9102 28.3666 77.9102C27.9166 77.9102 27.5466 78.2802 27.5466 78.7302C27.5466 79.1902 27.9066 79.5502 28.3666 79.5502Z" fill="#77D672"/>
<path d="M25.6269 79.5502C26.0769 79.5502 26.4469 79.1802 26.4469 78.7302C26.4469 78.2802 26.0769 77.9102 25.6269 77.9102C25.1769 77.9102 24.8069 78.2802 24.8069 78.7302C24.8169 79.1902 25.1769 79.5502 25.6269 79.5502Z" fill="#F7B548"/>
<path d="M32.4965 82.6901L33.5765 88.1401C33.6365 88.4501 33.9065 88.6701 34.2165 88.6701H38.9065C39.2165 88.6701 39.4865 88.4501 39.5465 88.1401L39.7965 86.9001H41.0765C41.8165 86.9001 42.4065 86.3001 42.4065 85.5701V84.3901C42.4065 83.6501 41.8065 83.0601 41.0765 83.0601H40.5565L40.6265 82.6901C40.7065 82.2801 40.3965 81.9101 39.9865 81.9101H33.1365C32.7365 81.9001 32.4165 82.2801 32.4965 82.6901Z" fill="white"/>
<path d="M39.9368 86.23L40.4268 83.73H41.0868C41.4568 83.73 41.7468 84.02 41.7468 84.39V85.57C41.7468 85.94 41.4568 86.23 41.0868 86.23H39.9368Z" fill="white"/>
<path d="M22.6967 63.6302C17.7867 63.6202 13.7567 67.5702 13.7267 72.4602C13.7267 72.5102 13.7367 72.5702 13.7367 72.6302L12.6967 72.6202L12.6867 72.6102C12.6367 67.0702 17.1667 62.5702 22.7067 62.5902L22.6967 63.6302Z" fill="#C7E0F4"/>
<path d="M22.6766 67.1702L22.6666 68.2002C20.2966 68.2102 18.3566 70.1202 18.3366 72.4902C18.3366 72.5402 18.3466 72.6002 18.3466 72.6602L17.3066 72.6502L17.2966 72.6402C17.2266 69.6402 19.6666 67.1702 22.6766 67.1702Z" fill="#C7E0F4"/>
<path d="M22.6868 64.8801L22.6768 65.9201C19.0368 65.9201 16.0468 68.8501 16.0268 72.4801C16.0268 72.5301 16.0368 72.5901 16.0368 72.6501L14.9968 72.6401L14.9868 72.6301C14.9268 68.3601 18.4168 64.8801 22.6868 64.8801Z" fill="#C7E0F4"/>
<path d="M21.6367 73.4903C22.5867 73.4903 23.3567 72.7203 23.3567 71.7703C23.3567 70.8203 22.5867 70.0503 21.6367 70.0503C20.6867 70.0503 19.9167 70.8203 19.9167 71.7703C19.9167 72.7203 20.6867 73.4903 21.6367 73.4903Z" fill="#C7E0F4"/>
<path d="M13.1266 88.1002C14.7166 86.4902 17.2966 86.4402 18.9566 87.9702L22.3566 91.1202C24.0466 92.7002 24.1266 95.3602 22.5466 97.0502C20.9666 98.7402 18.3066 98.8202 16.6166 97.2402L13.2566 94.1302C11.5166 92.5202 11.4566 89.7802 13.1266 88.1002Z" fill="url(#paint43_linear)"/>
<path d="M16.1167 80.6902C17.7067 79.0802 20.2867 79.0302 21.9467 80.5602L25.3467 83.7102C27.0367 85.2902 27.1167 87.9502 25.5367 89.6402C23.9567 91.3302 21.2967 91.4102 19.6067 89.8302L16.2467 86.7202C14.5167 85.1102 14.4567 82.3802 16.1167 80.6902Z" fill="url(#paint44_linear)"/>
<path d="M218.236 115.63L221.096 116.06C221.546 116.13 221.967 115.82 222.027 115.37L223.587 105.03C223.657 104.58 223.346 104.16 222.896 104.1L220.036 103.67C219.586 103.6 219.166 103.91 219.106 104.36L217.546 114.7C217.476 115.14 217.796 115.56 218.236 115.63Z" fill="#F7B548"/>
<path d="M218.437 112.99L221.697 113.48C221.827 113.5 221.947 113.41 221.957 113.28L222.907 106.99C222.927 106.86 222.837 106.74 222.707 106.73L219.447 106.24C219.317 106.22 219.197 106.31 219.187 106.44L218.237 112.73C218.207 112.85 218.307 112.97 218.437 112.99Z" fill="#505050"/>
<path d="M218.967 110.71L218.877 111.29L221.897 111.75L221.987 111.17L218.967 110.71Z" fill="#969696"/>
<path d="M218.817 111.68L218.727 112.26L221.747 112.72L221.837 112.14L218.817 111.68Z" fill="#969696"/>
<path d="M220.787 109.8C220.057 109.8 219.467 109.2 219.467 108.48C219.467 107.76 220.067 107.16 220.787 107.16C221.507 107.16 222.107 107.76 222.107 108.48C222.107 109.2 221.517 109.8 220.787 109.8Z" fill="#969696"/>
<path d="M226.517 67.37L235.957 68.83C238.477 69.2 240.817 67.46 241.187 64.94C241.557 62.42 239.817 60.08 237.297 59.71L227.617 58.21L226.517 67.37Z" fill="url(#paint45_linear)"/>
<path d="M239.217 43.6401C238.857 43.6401 238.557 43.9301 238.557 44.3001V55.5901C238.557 55.9501 238.847 56.2501 239.217 56.2501H263.857C264.217 56.2501 264.517 55.9601 264.517 55.5901V44.2901C264.517 43.9301 264.227 43.6301 263.857 43.6301H239.217V43.6401Z" fill="#7BDDEF"/>
<path d="M231.697 51.6802C231.697 51.6802 232.677 60.5802 234.197 63.2002C234.717 64.1002 235.677 64.6402 236.717 64.6402H266.937C267.977 64.6402 268.937 64.0902 269.457 63.2002C270.977 60.5802 271.957 51.6802 271.957 51.6802C271.957 51.6802 270.977 42.7802 269.457 40.1602C268.937 39.2602 267.977 38.7202 266.937 38.7202H236.717C235.677 38.7202 234.717 39.2702 234.197 40.1602C232.687 42.7702 231.697 51.6802 231.697 51.6802Z" fill="#E5E5E1"/>
<path d="M234.207 63.2002C234.727 64.1002 235.687 64.6402 236.727 64.6402H266.947C267.987 64.6402 268.947 64.0902 269.467 63.2002C270.987 60.5802 271.967 51.6802 271.967 51.6802H231.707C231.697 51.6802 232.687 60.5802 234.207 63.2002Z" fill="#969696"/>
<path d="M263.857 58.1103H239.217C237.817 58.1103 236.687 56.9703 236.687 55.5803V44.2903C236.687 42.8903 237.827 41.7603 239.217 41.7603H263.857C265.257 41.7603 266.387 42.9003 266.387 44.2903V55.5803C266.397 56.9803 265.257 58.1103 263.857 58.1103Z" fill="#505050"/>
<path d="M243.017 62.2199C243.646 62.2199 244.157 61.7095 244.157 61.0799C244.157 60.4503 243.646 59.9399 243.017 59.9399C242.387 59.9399 241.877 60.4503 241.877 61.0799C241.877 61.7095 242.387 62.2199 243.017 62.2199Z" fill="#505050"/>
<path d="M248.736 62.2199C249.366 62.2199 249.876 61.7095 249.876 61.0799C249.876 60.4503 249.366 59.9399 248.736 59.9399C248.107 59.9399 247.596 60.4503 247.596 61.0799C247.596 61.7095 248.107 62.2199 248.736 62.2199Z" fill="#505050"/>
<path d="M254.466 62.2199C255.096 62.2199 255.606 61.7095 255.606 61.0799C255.606 60.4503 255.096 59.9399 254.466 59.9399C253.837 59.9399 253.326 60.4503 253.326 61.0799C253.326 61.7095 253.837 62.2199 254.466 62.2199Z" fill="#505050"/>
<path d="M260.187 62.2199C260.816 62.2199 261.327 61.7095 261.327 61.0799C261.327 60.4503 260.816 59.9399 260.187 59.9399C259.557 59.9399 259.047 60.4503 259.047 61.0799C259.047 61.7095 259.557 62.2199 260.187 62.2199Z" fill="#505050"/>
<path d="M239.217 43.6401C238.857 43.6401 238.557 43.9301 238.557 44.3001V55.5901C238.557 55.9501 238.847 56.2501 239.217 56.2501H263.857C264.217 56.2501 264.517 55.9601 264.517 55.5901V44.2901C264.517 43.9301 264.227 43.6301 263.857 43.6301H239.217V43.6401Z" fill="#72ACF1"/>
<path d="M242.507 43.6401H239.217C238.857 43.6401 238.557 43.9301 238.557 44.3001V55.5901C238.557 55.9501 238.847 56.2501 239.217 56.2501H247.797L242.507 43.6401Z" fill="#A7CBF6"/>
<path d="M255.747 46.6201V47.2301L252.767 53.4601H251.807L254.777 47.4101V47.3901H251.427V46.6201H255.747V46.6201Z" fill="white"/>
<path d="M258.707 47.4801H258.687L257.497 48.1201L257.317 47.4201L258.807 46.6201H259.597V53.4601H258.707V47.4801V47.4801Z" fill="white"/>
<path d="M262.317 49.01C261.567 49.01 260.947 48.4 260.947 47.64C260.947 46.89 261.557 46.27 262.317 46.27C263.067 46.27 263.687 46.88 263.687 47.64C263.677 48.4 263.067 49.01 262.317 49.01ZM262.317 46.94C261.927 46.94 261.607 47.26 261.607 47.65C261.607 48.04 261.927 48.36 262.317 48.36C262.707 48.36 263.027 48.04 263.027 47.65C263.027 47.26 262.707 46.94 262.317 46.94Z" fill="white"/>
<path d="M228.787 57.5601L234.027 49.5701C235.407 47.4301 234.797 44.5801 232.657 43.2001C230.517 41.8201 227.667 42.4301 226.287 44.5701L219.127 55.2401L228.787 57.5601Z" fill="url(#paint46_linear)"/>
<path d="M226.097 70.76C231.426 70.76 235.747 66.4395 235.747 61.11C235.747 55.7804 231.426 51.46 226.097 51.46C220.767 51.46 216.447 55.7804 216.447 61.11C216.447 66.4395 220.767 70.76 226.097 70.76Z" fill="url(#paint47_radial)"/>
<path d="M121.497 140.71L128.347 133.48C130.157 131.54 130.057 128.5 128.117 126.69C126.177 124.88 123.137 124.98 121.327 126.92L114.297 134.34L121.497 140.71Z" fill="url(#paint48_linear)"/>
<path d="M166.447 135.63L157.917 130.49C155.647 129.11 154.937 126.14 156.337 123.88C157.717 121.61 160.687 120.9 162.947 122.29L171.697 127.57L166.447 135.63Z" fill="url(#paint49_linear)"/>
<path d="M167.506 134.22C163.986 125.2 159.826 121.8 155.746 122.29C153.256 122.58 129.766 125.37 127.276 125.67C123.186 126.15 119.866 130.44 118.396 140.05C116.916 149.66 119.146 155.6 124.166 155.01C127.906 154.57 131.446 148.57 135.496 146.71C138.126 145.49 143.526 145.04 143.526 145.04C143.526 145.04 149.456 144.15 152.276 144.72C156.626 145.59 161.366 150.6 165.116 150.16C170.146 149.55 171.026 143.24 167.506 134.22Z" fill="url(#paint50_radial)"/>
<path d="M126.237 128.22C128.957 127.9 154.577 124.86 157.297 124.54C159.337 124.3 161.387 124.88 163.367 126.43C160.917 123.22 158.317 121.98 155.737 122.28C153.247 122.57 129.757 125.36 127.267 125.66C124.697 125.97 122.427 127.78 120.727 131.48C122.337 129.52 124.197 128.47 126.237 128.22Z" fill="#605D5A"/>
<path d="M113.127 137.34L113.457 136.78C114.717 134.65 117.457 133.94 119.577 135.2L127.847 140.25C129.977 141.51 130.677 144.25 129.427 146.37L129.097 146.93C127.837 149.06 125.097 149.77 122.977 148.51L114.707 143.46C112.577 142.21 111.877 139.47 113.127 137.34Z" fill="url(#paint51_linear)"/>
<path d="M112.387 143.66C113.727 141.37 116.677 140.62 118.957 141.96L124.017 144.95C126.307 146.29 127.057 149.24 125.717 151.52C124.377 153.81 121.427 154.56 119.147 153.22L114.087 150.23C111.797 148.89 111.037 145.94 112.387 143.66Z" fill="url(#paint52_linear)"/>
<path d="M108.797 148.63C109.937 146.24 112.797 145.21 115.197 146.36L119.037 148.19C121.427 149.33 122.457 152.19 121.307 154.59C120.167 156.98 117.307 158.01 114.907 156.86L111.067 155.03C108.687 153.89 107.657 151.03 108.797 148.63Z" fill="url(#paint53_linear)"/>
<path d="M112.457 152.9C118.017 152.9 122.517 148.39 122.517 142.84C122.517 137.28 118.007 132.78 112.457 132.78C106.907 132.78 102.397 137.29 102.397 142.84C102.397 148.39 106.907 152.9 112.457 152.9Z" fill="url(#paint54_radial)"/>
<path d="M172.357 130.44L171.887 129.99C170.107 128.27 167.277 128.33 165.557 130.1L159.297 135.99C157.577 137.77 157.637 140.6 159.407 142.32L159.877 142.77C161.657 144.49 164.487 144.43 166.207 142.66L172.467 136.77C174.177 134.99 174.127 132.16 172.357 130.44Z" fill="url(#paint55_linear)"/>
<path d="M174.837 135.69C172.927 133.85 169.887 133.9 168.047 135.81L163.957 140.04C162.117 141.95 162.167 144.99 164.077 146.83C165.987 148.67 169.027 148.62 170.867 146.71L174.957 142.48C176.797 140.57 176.747 137.53 174.837 135.69Z" fill="url(#paint56_linear)"/>
<path d="M179.187 140.11C177.457 138.1 174.417 137.88 172.417 139.62L169.207 142.4C167.197 144.13 166.977 147.17 168.717 149.17C170.447 151.18 173.487 151.4 175.487 149.66L178.697 146.88C180.707 145.15 180.927 142.12 179.187 140.11Z" fill="url(#paint57_linear)"/>
<path d="M174.827 146.44C180.387 146.44 184.887 141.93 184.887 136.38C184.887 130.82 180.377 126.32 174.827 126.32C169.277 126.32 164.767 130.83 164.767 136.38C164.767 141.93 169.277 146.44 174.827 146.44Z" fill="url(#paint58_radial)"/>
<path d="M143.247 125.11L143.137 124.13C143.067 123.47 142.397 123.02 141.647 123.11L140.707 123.22C139.957 123.31 139.417 123.91 139.487 124.56L139.597 125.54L143.247 125.11Z" fill="#33312D"/>
<path d="M134.897 126.04L134.877 125.88C134.807 125.24 134.327 124.76 133.817 124.82L126.397 125.68C125.887 125.74 125.537 126.31 125.607 126.95L125.627 127.11L134.897 126.04Z" fill="#33312D"/>
<path d="M157.137 123.34L157.117 123.18C157.047 122.54 156.567 122.06 156.057 122.12L148.637 122.98C148.127 123.04 147.777 123.61 147.847 124.25L147.867 124.41L157.137 123.34Z" fill="#33312D"/>
<path d="M176.557 90.3701C176.557 95.6101 175.547 100.61 173.717 105.2C173.277 106.31 172.197 107.04 170.997 107.04H109.607C108.407 107.04 107.337 106.31 106.887 105.2C105.057 100.61 104.047 95.6101 104.047 90.3701C104.047 88.2301 104.217 86.1201 104.547 84.0701C104.767 82.6601 106.007 81.6401 107.427 81.6401H173.177C174.607 81.6401 175.837 82.6701 176.057 84.0701C176.387 86.1301 176.557 88.2301 176.557 90.3701Z" fill="white"/>
<path d="M154.797 103.68C154.797 103.68 147.077 97.57 145.567 96.44C144.057 95.31 142.737 95.25 141.357 96.44C139.977 97.63 132.247 103.68 132.247 103.68H154.797Z" fill="#A08BE8"/>
<path d="M176.057 84.0801C175.837 82.6701 174.597 81.6501 173.177 81.6501H169.797C171.227 81.6501 172.457 82.6801 172.677 84.0801C173.007 86.1301 173.177 88.2301 173.177 90.3801C173.177 93.4701 172.817 96.4701 172.157 99.3601C171.957 100.19 171.737 101.02 171.497 101.84C171.157 102.99 169.977 103.68 168.777 103.68H108.247C107.127 103.68 106.107 103.13 105.767 102.05C105.527 101.25 105.107 99.5901 105.107 99.5901C106.387 106.57 107.607 107.05 109.087 107.05H109.437H167.617H170.997C172.197 107.05 173.267 106.32 173.717 105.21C175.547 100.62 176.557 95.6201 176.557 90.3801C176.557 88.2301 176.387 86.1301 176.057 84.0801Z" fill="#512BD4"/>
<path d="M124.219 98.2731C126.268 98.2426 127.887 95.4243 127.836 91.9784C127.784 88.5325 126.082 85.7638 124.033 85.7943C121.984 85.8249 120.365 88.6431 120.416 92.089C120.468 95.5349 122.17 98.3036 124.219 98.2731Z" fill="#512BD4"/>
<path d="M161.334 92.0611C161.386 88.6152 159.766 85.797 157.718 85.7665C155.669 85.7359 153.966 88.5047 153.915 91.9506C153.864 95.3965 155.483 98.2147 157.532 98.2452C159.58 98.2757 161.283 95.507 161.334 92.0611Z" fill="#512BD4"/>
<path d="M121.287 94.9602C121.287 95.8402 121.617 96.6402 122.147 97.2602C122.747 97.9102 123.457 98.2801 124.217 98.2701C126.057 98.2401 127.547 95.9602 127.797 93.0002C127.157 92.0402 126.077 91.4102 124.837 91.4102C122.877 91.4102 121.287 93.0002 121.287 94.9602Z" fill="#8065E0"/>
<path d="M161.267 93.1001C160.637 92.0801 159.527 91.4001 158.247 91.4001C156.287 91.4001 154.697 92.9901 154.697 94.9501C154.697 95.6601 154.907 96.3101 155.267 96.8701C155.887 97.7101 156.667 98.2201 157.537 98.2401C159.377 98.2701 160.927 96.0501 161.267 93.1001Z" fill="#8065E0"/>
<defs>
<linearGradient id="paint0_linear" x1="172.247" y1="126.518" x2="211.907" y2="126.518" gradientUnits="userSpaceOnUse">
<stop offset="0.2495" stop-color="#967FE6"/>
<stop offset="1" stop-color="#8A6FE8"/>
</linearGradient>
<linearGradient id="paint1_linear" x1="61.1631" y1="129.902" x2="107.812" y2="129.902" gradientUnits="userSpaceOnUse">
<stop offset="0.2495" stop-color="#967FE6"/>
<stop offset="1" stop-color="#8A6FE8"/>
</linearGradient>
<linearGradient id="paint2_linear" x1="67.3966" y1="26.9039" x2="93.9293" y2="70.4867" gradientUnits="userSpaceOnUse">
<stop offset="0.2495" stop-color="#967FE6"/>
<stop offset="1" stop-color="#8A6FE8"/>
</linearGradient>
<linearGradient id="paint3_linear" x1="32.3961" y1="113.874" x2="79.059" y2="93.2351" gradientUnits="userSpaceOnUse">
<stop offset="0.2495" stop-color="#967FE6"/>
<stop offset="1" stop-color="#8A6FE8"/>
</linearGradient>
<linearGradient id="paint4_linear" x1="174.065" y1="72.5704" x2="211.3" y2="50.952" gradientUnits="userSpaceOnUse">
<stop offset="0.2495" stop-color="#967FE6"/>
<stop offset="1" stop-color="#8A6FE8"/>
</linearGradient>
<linearGradient id="paint5_linear" x1="178.766" y1="91.9489" x2="232.03" y2="66.0542" gradientUnits="userSpaceOnUse">
<stop offset="0.2495" stop-color="#967FE6"/>
<stop offset="1" stop-color="#8A6FE8"/>
</linearGradient>
<linearGradient id="paint6_linear" x1="179.136" y1="108.14" x2="239.858" y2="108.14" gradientUnits="userSpaceOnUse">
<stop offset="0.2495" stop-color="#967FE6"/>
<stop offset="1" stop-color="#8A6FE8"/>
</linearGradient>
<radialGradient id="paint7_radial" cx="0" cy="0" r="1" gradientUnits="userSpaceOnUse" gradientTransform="translate(175.607 72.8411) rotate(178.212) scale(8.67958)">
<stop stop-color="#8065E0"/>
<stop offset="1" stop-color="#512BD4"/>
</radialGradient>
<radialGradient id="paint8_radial" cx="0" cy="0" r="1" gradientUnits="userSpaceOnUse" gradientTransform="translate(177.241 85.0739) rotate(178.212) scale(8.67958)">
<stop stop-color="#8065E0"/>
<stop offset="1" stop-color="#512BD4"/>
</radialGradient>
<radialGradient id="paint9_radial" cx="0" cy="0" r="1" gradientUnits="userSpaceOnUse" gradientTransform="translate(176.142 97.1407) rotate(178.212) scale(8.67958)">
<stop stop-color="#8065E0"/>
<stop offset="1" stop-color="#512BD4"/>
</radialGradient>
<radialGradient id="paint10_radial" cx="0" cy="0" r="1" gradientUnits="userSpaceOnUse" gradientTransform="translate(173.579 111.671) rotate(-135.142) scale(8.68021)">
<stop stop-color="#8065E0"/>
<stop offset="1" stop-color="#512BD4"/>
</radialGradient>
<linearGradient id="paint11_linear" x1="143.308" y1="128.068" x2="150.807" y2="163.784" gradientUnits="userSpaceOnUse">
<stop offset="0.252" stop-color="#522CD5"/>
<stop offset="0.5558" stop-color="#8A6FE8"/>
</linearGradient>
<linearGradient id="paint12_linear" x1="149.151" y1="161.958" x2="171.428" y2="201.676" gradientUnits="userSpaceOnUse">
<stop stop-color="#522CD5"/>
<stop offset="0.4397" stop-color="#8A6FE8"/>
</linearGradient>
<radialGradient id="paint13_radial" cx="0" cy="0" r="1" gradientUnits="userSpaceOnUse" gradientTransform="translate(165.758 183.993) rotate(-0.260741) scale(15.4394)">
<stop offset="0.034" stop-color="#522CD5"/>
<stop offset="0.9955" stop-color="#8A6FE8"/>
</radialGradient>
<linearGradient id="paint14_linear" x1="128.726" y1="128.062" x2="121.552" y2="163.843" gradientUnits="userSpaceOnUse">
<stop offset="0.258" stop-color="#522CD5"/>
<stop offset="0.5602" stop-color="#8A6FE8"/>
</linearGradient>
<linearGradient id="paint15_linear" x1="122.21" y1="163.022" x2="122.38" y2="200.523" gradientUnits="userSpaceOnUse">
<stop stop-color="#522CD5"/>
<stop offset="0.4397" stop-color="#8A6FE8"/>
</linearGradient>
<radialGradient id="paint16_radial" cx="0" cy="0" r="1" gradientUnits="userSpaceOnUse" gradientTransform="translate(122.846 184.151) rotate(179.739) scale(16.9266)">
<stop offset="0.034" stop-color="#522CD5"/>
<stop offset="0.9955" stop-color="#8A6FE8"/>
</radialGradient>
<radialGradient id="paint17_radial" cx="0" cy="0" r="1" gradientUnits="userSpaceOnUse" gradientTransform="translate(135.782 59.0953) scale(50.8747)">
<stop offset="0.186" stop-color="#A08BE8"/>
<stop offset="0.7272" stop-color="#8065E0"/>
</radialGradient>
<linearGradient id="paint18_linear" x1="128.138" y1="35.5411" x2="137.306" y2="35.5411" gradientUnits="userSpaceOnUse">
<stop offset="0.2495" stop-color="#967FE6"/>
<stop offset="1" stop-color="#8A6FE8"/>
</linearGradient>
<radialGradient id="paint19_radial" cx="0" cy="0" r="1" gradientUnits="userSpaceOnUse" gradientTransform="translate(133.149 39.7207) scale(11.5245)">
<stop stop-color="#8065E0"/>
<stop offset="1" stop-color="#512BD4"/>
</radialGradient>
<linearGradient id="paint20_linear" x1="88.6151" y1="75.286" x2="22.1486" y2="55.9248" gradientUnits="userSpaceOnUse">
<stop offset="0.2495" stop-color="#967FE6"/>
<stop offset="1" stop-color="#8A6FE8"/>
</linearGradient>
<linearGradient id="paint21_linear" x1="85.1851" y1="24.9906" x2="99.0704" y2="24.9906" gradientUnits="userSpaceOnUse">
<stop offset="0.2495" stop-color="#967FE6"/>
<stop offset="1" stop-color="#8A6FE8"/>
</linearGradient>
<radialGradient id="paint22_radial" cx="0" cy="0" r="1" gradientUnits="userSpaceOnUse" gradientTransform="translate(86.6302 22.4129) rotate(81.7109) scale(10.1639)">
<stop stop-color="#8065E0"/>
<stop offset="1" stop-color="#512BD4"/>
</radialGradient>
<linearGradient id="paint23_linear" x1="79.3002" y1="9.43241" x2="88.5873" y2="9.43241" gradientUnits="userSpaceOnUse">
<stop offset="0.2495" stop-color="#967FE6"/>
<stop offset="1" stop-color="#8A6FE8"/>
</linearGradient>
<linearGradient id="paint24_linear" x1="70.3478" y1="12.0954" x2="79.5747" y2="12.0954" gradientUnits="userSpaceOnUse">
<stop offset="0.2495" stop-color="#967FE6"/>
<stop offset="1" stop-color="#8A6FE8"/>
</linearGradient>
<linearGradient id="paint25_linear" x1="76.8012" y1="7.66116" x2="86.0299" y2="7.66116" gradientUnits="userSpaceOnUse">
<stop offset="0.2495" stop-color="#967FE6"/>
<stop offset="1" stop-color="#8A6FE8"/>
</linearGradient>
<linearGradient id="paint26_linear" x1="179.22" y1="34.5448" x2="198.024" y2="34.5448" gradientUnits="userSpaceOnUse">
<stop offset="0.2495" stop-color="#967FE6"/>
<stop offset="1" stop-color="#8A6FE8"/>
</linearGradient>
<radialGradient id="paint27_radial" cx="0" cy="0" r="1" gradientUnits="userSpaceOnUse" gradientTransform="translate(198.754 31.1451) rotate(-30.1393) scale(12.2148)">
<stop stop-color="#8065E0"/>
<stop offset="1" stop-color="#512BD4"/>
</radialGradient>
<radialGradient id="paint28_radial" cx="0" cy="0" r="1" gradientUnits="userSpaceOnUse" gradientTransform="translate(86.4314 72.8407) rotate(1.78779) scale(8.67958)">
<stop stop-color="#8065E0"/>
<stop offset="1" stop-color="#512BD4"/>
</radialGradient>
<radialGradient id="paint29_radial" cx="0" cy="0" r="1" gradientUnits="userSpaceOnUse" gradientTransform="translate(84.7991 85.0736) rotate(1.78779) scale(8.67958)">
<stop stop-color="#8065E0"/>
<stop offset="1" stop-color="#512BD4"/>
</radialGradient>
<radialGradient id="paint30_radial" cx="0" cy="0" r="1" gradientUnits="userSpaceOnUse" gradientTransform="translate(85.8964 97.1416) rotate(1.78779) scale(8.67958)">
<stop stop-color="#8065E0"/>
<stop offset="1" stop-color="#512BD4"/>
</radialGradient>
<linearGradient id="paint31_linear" x1="241.47" y1="103.604" x2="255.071" y2="103.604" gradientUnits="userSpaceOnUse">
<stop offset="0.2495" stop-color="#967FE6"/>
<stop offset="1" stop-color="#8A6FE8"/>
</linearGradient>
<linearGradient id="paint32_linear" x1="241.757" y1="117.891" x2="255.727" y2="117.891" gradientUnits="userSpaceOnUse">
<stop offset="0.2495" stop-color="#967FE6"/>
<stop offset="1" stop-color="#8A6FE8"/>
</linearGradient>
<linearGradient id="paint33_linear" x1="244.98" y1="112.499" x2="258.977" y2="112.499" gradientUnits="userSpaceOnUse">
<stop offset="0.2495" stop-color="#967FE6"/>
<stop offset="1" stop-color="#8A6FE8"/>
</linearGradient>
<linearGradient id="paint34_linear" x1="237.371" y1="120.391" x2="250.958" y2="120.391" gradientUnits="userSpaceOnUse">
<stop offset="0.2495" stop-color="#967FE6"/>
<stop offset="1" stop-color="#8A6FE8"/>
</linearGradient>
<radialGradient id="paint35_radial" cx="0" cy="0" r="1" gradientUnits="userSpaceOnUse" gradientTransform="translate(238.457 112.127) rotate(103.35) scale(12.567)">
<stop stop-color="#8065E0"/>
<stop offset="1" stop-color="#512BD4"/>
</radialGradient>
<radialGradient id="paint36_radial" cx="0" cy="0" r="1" gradientUnits="userSpaceOnUse" gradientTransform="translate(87.462 111.671) rotate(-44.8583) scale(8.68021)">
<stop stop-color="#8065E0"/>
<stop offset="1" stop-color="#512BD4"/>
</radialGradient>
<linearGradient id="paint37_linear" x1="20.5994" y1="51.7937" x2="34.2714" y2="51.7937" gradientUnits="userSpaceOnUse">
<stop offset="0.2495" stop-color="#967FE6"/>
<stop offset="1" stop-color="#8A6FE8"/>
</linearGradient>
<radialGradient id="paint38_radial" cx="0" cy="0" r="1" gradientUnits="userSpaceOnUse" gradientTransform="translate(35.6737 46.4858) rotate(129.382) scale(12.5667)">
<stop stop-color="#8065E0"/>
<stop offset="1" stop-color="#512BD4"/>
</radialGradient>
<linearGradient id="paint39_linear" x1="204.292" y1="30.5526" x2="216.061" y2="30.5526" gradientUnits="userSpaceOnUse">
<stop offset="0.2495" stop-color="#967FE6"/>
<stop offset="1" stop-color="#8A6FE8"/>
</linearGradient>
<linearGradient id="paint40_linear" x1="201.297" y1="23.1509" x2="213.071" y2="23.1509" gradientUnits="userSpaceOnUse">
<stop offset="0.2495" stop-color="#967FE6"/>
<stop offset="1" stop-color="#8A6FE8"/>
</linearGradient>
<linearGradient id="paint41_linear" x1="29.9497" y1="96.6043" x2="48.7541" y2="96.6043" gradientUnits="userSpaceOnUse">
<stop offset="0.2495" stop-color="#967FE6"/>
<stop offset="1" stop-color="#8A6FE8"/>
</linearGradient>
<radialGradient id="paint42_radial" cx="0" cy="0" r="1" gradientUnits="userSpaceOnUse" gradientTransform="translate(29.1625 93.1895) rotate(-149.861) scale(12.2147)">
<stop stop-color="#8065E0"/>
<stop offset="1" stop-color="#512BD4"/>
</radialGradient>
<linearGradient id="paint43_linear" x1="11.9128" y1="92.612" x2="23.6821" y2="92.612" gradientUnits="userSpaceOnUse">
<stop offset="0.2495" stop-color="#967FE6"/>
<stop offset="1" stop-color="#8A6FE8"/>
</linearGradient>
<linearGradient id="paint44_linear" x1="14.9084" y1="85.2103" x2="26.6776" y2="85.2103" gradientUnits="userSpaceOnUse">
<stop offset="0.2495" stop-color="#967FE6"/>
<stop offset="1" stop-color="#8A6FE8"/>
</linearGradient>
<linearGradient id="paint45_linear" x1="226.52" y1="63.5426" x2="241.245" y2="63.5426" gradientUnits="userSpaceOnUse">
<stop offset="0.2495" stop-color="#967FE6"/>
<stop offset="1" stop-color="#8A6FE8"/>
</linearGradient>
<linearGradient id="paint46_linear" x1="219.114" y1="50.0105" x2="234.761" y2="50.0105" gradientUnits="userSpaceOnUse">
<stop offset="0.2495" stop-color="#967FE6"/>
<stop offset="1" stop-color="#8A6FE8"/>
</linearGradient>
<radialGradient id="paint47_radial" cx="0" cy="0" r="1" gradientUnits="userSpaceOnUse" gradientTransform="translate(222.06 55.3188) rotate(54.134) scale(13.6142)">
<stop stop-color="#8065E0"/>
<stop offset="1" stop-color="#512BD4"/>
</radialGradient>
<linearGradient id="paint48_linear" x1="114.285" y1="133.053" x2="129.635" y2="133.053" gradientUnits="userSpaceOnUse">
<stop offset="0.2495" stop-color="#967FE6"/>
<stop offset="1" stop-color="#8A6FE8"/>
</linearGradient>
<linearGradient id="paint49_linear" x1="155.617" y1="128.61" x2="171.68" y2="128.61" gradientUnits="userSpaceOnUse">
<stop offset="0.2495" stop-color="#967FE6"/>
<stop offset="1" stop-color="#8A6FE8"/>
</linearGradient>
<radialGradient id="paint50_radial" cx="0" cy="0" r="1" gradientUnits="userSpaceOnUse" gradientTransform="translate(141.964 157.269) scale(39.2562)">
<stop offset="0.2667" stop-color="#605D5A"/>
<stop offset="1" stop-color="#33312D"/>
</radialGradient>
<linearGradient id="paint51_linear" x1="112.509" y1="141.865" x2="130.059" y2="141.865" gradientUnits="userSpaceOnUse">
<stop offset="0.2495" stop-color="#967FE6"/>
<stop offset="1" stop-color="#8A6FE8"/>
</linearGradient>
<linearGradient id="paint52_linear" x1="111.718" y1="147.595" x2="126.384" y2="147.595" gradientUnits="userSpaceOnUse">
<stop offset="0.2495" stop-color="#967FE6"/>
<stop offset="1" stop-color="#8A6FE8"/>
</linearGradient>
<linearGradient id="paint53_linear" x1="108.331" y1="151.607" x2="121.774" y2="151.607" gradientUnits="userSpaceOnUse">
<stop offset="0.2495" stop-color="#967FE6"/>
<stop offset="1" stop-color="#8A6FE8"/>
</linearGradient>
<radialGradient id="paint54_radial" cx="0" cy="0" r="1" gradientUnits="userSpaceOnUse" gradientTransform="translate(108.046 139.978) rotate(120.537) scale(10.0604)">
<stop stop-color="#8065E0"/>
<stop offset="1" stop-color="#512BD4"/>
</radialGradient>
<linearGradient id="paint55_linear" x1="158.049" y1="136.382" x2="173.72" y2="136.382" gradientUnits="userSpaceOnUse">
<stop offset="0.2495" stop-color="#967FE6"/>
<stop offset="1" stop-color="#8A6FE8"/>
</linearGradient>
<linearGradient id="paint56_linear" x1="162.617" y1="141.257" x2="176.301" y2="141.257" gradientUnits="userSpaceOnUse">
<stop offset="0.2495" stop-color="#967FE6"/>
<stop offset="1" stop-color="#8A6FE8"/>
</linearGradient>
<linearGradient id="paint57_linear" x1="167.546" y1="144.646" x2="180.362" y2="144.646" gradientUnits="userSpaceOnUse">
<stop offset="0.2495" stop-color="#967FE6"/>
<stop offset="1" stop-color="#8A6FE8"/>
</linearGradient>
<radialGradient id="paint58_radial" cx="0" cy="0" r="1" gradientUnits="userSpaceOnUse" gradientTransform="translate(178.324 132.524) rotate(44.0032) scale(10.0604)">
<stop stop-color="#8065E0"/>
<stop offset="1" stop-color="#512BD4"/>
</radialGradient>
</defs>
</svg>
