<svg width="273" height="273" viewBox="0 0 273 273" fill="none" xmlns="http://www.w3.org/2000/svg">
<path d="M203.894 162.022H24.3646V166.488H203.894V162.022Z" fill="#B3AFAB"/>
<path d="M4.07945 158.695C3.7991 158.695 3.57101 158.467 3.57101 158.187V4.37355C3.57101 4.0932 3.7991 3.86511 4.07945 3.86511H229.445C230.78 3.86511 231.863 4.94851 231.863 6.28374V158.182C231.863 158.463 231.635 158.691 231.355 158.691H4.07945V158.695Z" fill="white"/>
<path d="M228.542 7.19148V155.369H6.8972V7.19148H228.542ZM229.449 0.539062H4.07943C1.96016 0.539062 0.244781 2.25444 0.244781 4.37371V158.182C0.244781 160.302 1.96016 162.017 4.07943 162.017H231.355C233.474 162.017 235.189 160.302 235.189 158.182V6.2839C235.194 3.10975 232.623 0.539062 229.449 0.539062Z" fill="#E1EFF9"/>
<path d="M25.6903 36.9849C22.2691 36.9849 19.9265 36.3766 19.5131 34.2003C18.786 30.3942 19.4703 23.7703 19.5036 23.4899C19.5606 22.9673 20.0262 22.5919 20.5489 22.6441C21.0716 22.7012 21.4518 23.1668 21.3947 23.6895C21.39 23.756 20.7105 30.3134 21.3852 33.844C21.7179 35.6021 27.4342 35.0984 32.4805 34.6518C35.2128 34.4094 38.0353 34.1623 40.7771 34.1291C67.9712 33.8107 98.0592 33.6349 103.814 33.6016L103.348 19.0043C100.91 19.2942 94.5096 19.9119 86.8973 19.584C58.4535 18.3628 20.7057 20.0972 20.3256 20.1162C19.7982 20.14 19.3563 19.7361 19.3325 19.2134C19.3087 18.6907 19.7126 18.244 20.2353 18.2203C20.6155 18.2013 58.444 16.4669 86.9781 17.6881C96.4863 18.0967 104.051 16.9991 104.127 16.9896C104.393 16.9516 104.669 17.0276 104.873 17.1987C105.082 17.3745 105.206 17.6263 105.215 17.8972L105.733 34.5235C105.743 34.7801 105.648 35.0271 105.467 35.2125C105.287 35.3978 105.044 35.5023 104.788 35.5023C104.45 35.5023 70.8508 35.6829 40.7913 36.0345C38.1256 36.0678 35.3363 36.3101 32.6421 36.5477C30.0667 36.7758 27.6955 36.9849 25.6903 36.9849Z" fill="#86D3CD"/>
<path d="M24.5166 53.8963C24.26 53.8963 24.0082 53.7917 23.8276 53.6017L20.1165 49.71C19.7554 49.3299 19.7696 48.7312 20.1498 48.3653C20.5299 47.9994 21.1334 48.0184 21.4945 48.3985L24.3551 51.3969C25.4907 49.5865 27.9236 45.8944 30.2139 43.6088C30.5846 43.2382 31.1881 43.2382 31.5587 43.6088C31.9293 43.9794 31.9293 44.5829 31.5587 44.9535C28.6744 47.8378 25.3719 53.3736 25.3387 53.4306C25.1866 53.6872 24.9253 53.8583 24.6307 53.8915C24.5879 53.8915 24.5499 53.8963 24.5166 53.8963Z" fill="#C8C6C4"/>
<path d="M43.4332 46.9967C42.9201 46.9967 42.4972 46.5881 42.4829 46.0749C42.4686 45.5522 42.882 45.115 43.4047 45.096C62.1218 44.5733 94.0392 44.7397 94.3575 44.7444C94.8802 44.7492 95.3031 45.1768 95.3031 45.6995C95.2984 46.2222 94.8755 46.6451 94.3528 46.6451H94.348C94.0297 46.6451 62.1456 46.474 43.457 46.9967C43.4523 46.9967 43.4428 46.9967 43.4332 46.9967Z" fill="#C8C6C4"/>
<path d="M49.5392 53.5351C44.7875 53.5351 40.4539 53.4115 39.8125 53.0837C39.3468 52.8413 39.1662 52.2711 39.4038 51.8007C39.6319 51.3588 40.1641 51.1735 40.6107 51.3588C42.0505 51.7152 58.6151 51.7674 62.4069 51.2923C62.9344 51.2257 63.4048 51.5964 63.4666 52.1191C63.5331 52.6418 63.1625 53.1169 62.6398 53.1787C61.124 53.3688 55.0513 53.5351 49.5392 53.5351Z" fill="#C8C6C4"/>
<path d="M25.5763 74.7564C25.3482 74.7564 25.1248 74.6756 24.949 74.5188L20.5299 70.6271C20.1355 70.2802 20.0975 69.6815 20.4444 69.2871C20.7913 68.8927 21.39 68.8547 21.7844 69.2016L25.0916 72.1144C25.8328 69.9429 27.5482 65.9704 30.5988 64.3073C31.0598 64.0555 31.6395 64.2265 31.8865 64.6874C32.1384 65.1484 31.9673 65.7233 31.5064 65.9752C28.0377 67.8664 26.5076 73.9676 26.4933 74.0293C26.4126 74.3525 26.1702 74.6091 25.8566 74.7088C25.7663 74.7421 25.6713 74.7564 25.5763 74.7564Z" fill="#C8C6C4"/>
<path d="M67.5055 67.5479C66.6787 67.5479 65.8282 67.5337 64.9681 67.5051C63.6186 67.4576 62.1741 67.3293 60.5062 67.182C55.7355 66.7591 49.7958 66.2364 41.2332 67.144C40.7105 67.201 40.2448 66.8209 40.1878 66.2982C40.1308 65.7755 40.5109 65.3099 41.0336 65.2528C49.7768 64.3262 56.0776 64.8822 60.6725 65.2861C62.3166 65.4334 63.7327 65.5569 65.0346 65.5997C70.0382 65.7755 74.9467 65.3431 74.9942 65.3384C75.5217 65.2908 75.9779 65.6757 76.0254 66.1984C76.0729 66.7211 75.688 67.182 75.1653 67.2296C75.1225 67.2438 71.6348 67.5479 67.5055 67.5479Z" fill="#C8C6C4"/>
<path d="M37.3843 112.143C31.5397 112.143 26.9305 112.124 26.3555 112.057C24.4453 111.844 24.4738 108.755 24.5261 103.143C24.5451 100.972 24.5689 98.7241 24.4501 96.6713C24.0937 90.4703 24.949 83.3617 24.987 83.0624C25.044 82.5872 25.4479 82.2261 25.9326 82.2261C26.6311 82.2261 35.4361 82.0455 43.9512 81.8745C52.8654 81.6939 61.2855 81.5228 62.003 81.5228C64.2743 81.5228 65.429 85.7709 65.429 94.1434C65.429 101.651 65.6048 111.007 65.6048 111.098C65.6096 111.354 65.5145 111.597 65.334 111.782C65.1582 111.962 64.9111 112.067 64.6592 112.067C62.2501 112.076 47.8333 112.143 37.3843 112.143ZM26.8402 110.299H26.845H26.8402ZM26.7737 110.181C29.2683 110.285 49.5582 110.233 63.6851 110.166C63.6424 107.577 63.5236 100.249 63.5236 94.1387C63.5236 86.2603 62.3831 83.7324 61.946 83.4188C60.9386 83.4283 52.3237 83.6041 43.9844 83.7704C36.4435 83.9225 29.2541 84.0698 26.7832 84.1125C26.5694 86.1748 26.0752 91.7296 26.3508 96.5573C26.4696 98.6718 26.4506 100.953 26.4316 103.157C26.403 105.771 26.3698 109.297 26.7737 110.181Z" fill="#86D3CD"/>
<path d="M69.0736 103.576C69.0451 103.576 69.0118 103.576 68.9833 103.571C66.8403 103.366 51.9151 103.305 26.9638 103.395L25.7568 103.4C25.2341 103.4 24.8065 102.972 24.8065 102.449C24.8065 101.927 25.2341 101.499 25.7568 101.499L26.959 101.494C44.6545 101.433 66.3413 101.409 69.1639 101.68C69.6866 101.727 70.0715 102.193 70.0192 102.716C69.9717 103.21 69.5535 103.576 69.0736 103.576Z" fill="#6ECFC3"/>
<path d="M144.132 222.953C144.023 213.074 145.429 193.022 155.626 176.229L165.596 182.283C156.344 197.513 155.65 215.289 155.864 223.044C155.883 223.685 149.905 224.265 144.132 222.953Z" fill="url(#paint0_linear)"/>
<path d="M155.859 222.934L146.627 222.891L138.007 272.271L156.539 272.357C157.95 272.362 159.019 271.226 158.924 269.815L155.859 222.934Z" fill="#522CD5"/>
<path d="M118.249 259.285C116.648 260.549 116.676 262.378 116.8 264.308L117.185 270.223C117.256 271.283 118.178 272.153 119.238 272.157L138.549 272.243C139.751 272.248 140.658 271.278 140.578 270.081L140.449 263.951C140.302 261.723 141.053 260.905 142.778 258.805C145.733 255.217 154.472 235.664 153.64 222.925L144.132 222.882C143.5 230.447 133.521 247.239 118.249 259.285Z" fill="url(#paint1_linear)"/>
<path d="M116.8 264.307C116.71 262.958 116.686 261.666 117.213 260.573L141.3 260.682C140.635 261.661 140.354 262.516 140.445 263.946L140.573 270.076C140.654 271.278 139.741 272.248 138.544 272.238L119.233 272.153C118.173 272.148 117.251 271.278 117.18 270.219L116.8 264.307Z" fill="url(#paint2_radial)"/>
<path d="M201.314 230.333L213.099 228.869L206.47 175.559L194.681 177.028L201.314 230.333Z" fill="url(#paint3_linear)"/>
<path d="M212.248 222.544L202.906 222.502L200.321 272.433L219.071 272.518C220.497 272.523 221.438 271.373 221.167 269.948L212.248 222.544Z" fill="#522CD5"/>
<path d="M185.097 259.48C183.657 260.782 183.69 262.454 184.061 264.407L185.187 270.39C185.386 271.459 186.432 272.338 187.501 272.343L214.315 272.466C215.531 272.471 216.33 271.492 216.102 270.276L215.147 264.075C214.724 261.822 215.051 261.157 215.009 258.268C214.928 252.851 212.429 235.412 210.005 222.535L200.383 222.492C200.682 230.138 197.361 248.361 185.097 259.48Z" fill="url(#paint4_linear)"/>
<path d="M215.142 264.075L216.097 270.276C216.325 271.487 215.527 272.471 214.31 272.466L187.496 272.343C186.422 272.338 185.382 271.459 185.182 270.39L184.056 264.407C183.79 262.991 183.709 261.722 184.227 260.634L214.952 260.772C214.904 261.874 214.876 262.663 215.142 264.075Z" fill="url(#paint5_radial)"/>
<path d="M141.77 147.819L141.96 136.415C127.596 136.172 116.943 131.91 110.304 123.742C98.273 108.94 102.497 85.9371 102.545 85.7043L91.3449 83.5613C91.1264 84.7159 86.1133 112.057 101.457 130.931C110.319 141.837 123.885 147.52 141.77 147.819Z" fill="#8A6FE8"/>
<path d="M252.666 204.635L244.949 213.307C242.878 215.602 239.338 215.783 237.038 213.711C234.743 211.639 234.562 208.099 236.634 205.8L246.142 195.346L252.666 204.635Z" fill="#8A6FE8"/>
<path d="M123.985 143.433C122.516 127.192 127.202 115.198 127.202 115.198L123.538 114.59L123.457 114.504C133.45 86.8114 162.074 69.325 192.153 74.3286C226.042 79.9641 248.95 112.005 243.315 145.894C237.679 179.784 205.638 202.692 171.749 197.056C145.006 192.609 125.111 171.72 120.673 146.455C120.601 145.4 120.924 143.585 123.985 143.433Z" fill="url(#paint6_radial)"/>
<path d="M123.88 157.973L229.696 175.569C226.65 179.209 223.205 182.473 219.442 185.32L130.433 170.518C127.786 166.607 125.586 162.402 123.88 157.973Z" fill="#D8CFF7"/>
<path d="M264.755 200.606L266.598 212.067C267.069 215.122 264.973 217.983 261.913 218.453C258.858 218.924 255.997 216.828 255.527 213.768L253.636 202.017L264.755 200.606Z" fill="#8A6FE8"/>
<path d="M257.318 201.898L258.872 213.402C259.266 216.472 257.095 219.276 254.025 219.67C250.956 220.064 248.152 217.893 247.758 214.823L246.166 203.029L257.318 201.898Z" fill="#8A6FE8"/>
<path d="M267.634 197.18L271.787 208.019C272.875 210.912 271.407 214.143 268.513 215.232C265.619 216.32 262.388 214.851 261.3 211.958L257.038 200.843L267.634 197.18Z" fill="#8A6FE8"/>
<path d="M259.917 201.913C264.541 192.466 267.24 176.315 259.618 161.875C254.99 153.108 244.845 141.989 222.792 138.795L220.991 149.91C234.377 151.848 245.315 158.876 250.034 167.809C255.142 177.484 254.044 189.468 250.433 196.852L259.917 201.913Z" fill="url(#paint7_linear)"/>
<path d="M218.544 154.476C224.853 154.476 229.967 149.362 229.967 143.053C229.967 136.744 224.853 131.63 218.544 131.63C212.235 131.63 207.121 136.744 207.121 143.053C207.121 149.362 212.235 154.476 218.544 154.476Z" fill="url(#paint8_radial)"/>
<path d="M256.715 208.028C263.189 208.028 268.437 202.78 268.437 196.306C268.437 189.831 263.189 184.583 256.715 184.583C250.241 184.583 244.992 189.831 244.992 196.306C244.992 202.78 250.241 208.028 256.715 208.028Z" fill="url(#paint9_radial)"/>
<path d="M123.985 143.433C122.535 127.391 127.083 115.502 127.197 115.213L190.86 125.799C190.86 125.799 194.937 126.061 194.329 129.724C193.721 133.388 191.849 143.713 189.943 155.165C189.554 157.522 187.434 158.334 185.919 158.083C185.919 158.078 130.39 148.836 123.985 143.433Z" fill="url(#paint10_radial)"/>
<path d="M162.326 149.838C162.326 149.838 153.825 140.458 152.153 138.71C150.48 136.961 148.822 136.6 146.817 137.821C144.811 139.042 133.735 145.082 133.735 145.082L162.326 149.838Z" fill="#A08BE8"/>
<path d="M120.806 147.206C120.806 147.206 119.651 143.652 123.989 143.433C123.989 143.414 186.589 153.792 186.589 153.792C188.047 154.034 190.062 153.478 190.461 152.091C190.29 153.103 190.119 154.124 189.948 155.16C189.592 157.299 187.819 158.163 186.361 158.116C186.213 158.111 186.071 158.102 185.923 158.078L181.642 157.365L120.806 147.206Z" fill="#512BD4"/>
<path d="M138.224 130.902C138.898 126.433 137.291 122.486 134.634 122.084C131.977 121.683 129.276 124.98 128.601 129.449C127.926 133.917 129.534 137.865 132.191 138.266C134.848 138.667 137.549 135.37 138.224 130.902Z" fill="#512BD4"/>
<path d="M134.177 125.913C135.641 127.957 135.165 130.798 133.122 132.262C131.72 133.264 129.948 133.355 128.499 132.656C128.399 131.649 128.427 130.565 128.594 129.444C128.926 127.253 129.744 125.348 130.803 124.017C132.11 124.117 133.36 124.768 134.177 125.913Z" fill="#8065E0"/>
<path d="M176.841 137.5C177.649 133.054 176.16 129.06 173.516 128.58C170.872 128.1 168.074 131.315 167.267 135.761C166.459 140.207 167.948 144.201 170.592 144.681C173.236 145.161 176.034 141.946 176.841 137.5Z" fill="#512BD4"/>
<path d="M172.766 132.599C174.229 134.642 173.754 137.484 171.711 138.948C170.319 139.941 168.556 140.04 167.116 139.356C167.002 138.24 167.04 137.023 167.268 135.764C167.634 133.744 168.413 131.986 169.402 130.708C170.699 130.803 171.949 131.454 172.766 132.599Z" fill="#8065E0"/>
<path d="M134.334 174.579L154.434 177.827L157.307 160.048L137.206 156.801L134.334 174.579Z" fill="#512BD4"/>
<path d="M138.915 168.513C138.781 168.489 138.677 168.427 138.596 168.323C138.515 168.218 138.487 168.099 138.511 167.976C138.53 167.848 138.596 167.748 138.705 167.672C138.815 167.596 138.934 167.567 139.067 167.591C139.204 167.615 139.309 167.676 139.39 167.786C139.47 167.895 139.499 168.009 139.48 168.137C139.461 168.261 139.394 168.365 139.285 168.441C139.171 168.508 139.048 168.532 138.915 168.513Z" fill="white"/>
<path d="M144.27 169.311L143.4 169.168L141.704 165.182C141.661 165.082 141.628 164.977 141.609 164.873L141.59 164.868C141.59 164.977 141.561 165.201 141.504 165.548L140.977 168.769L140.207 168.641L141.015 163.728L141.941 163.88L143.576 167.767C143.647 167.928 143.69 168.037 143.709 168.099H143.723C143.723 167.966 143.747 167.743 143.799 167.434L144.317 164.269L145.082 164.393L144.27 169.311Z" fill="white"/>
<path d="M148.009 169.929L145.32 169.487L146.128 164.573L148.713 164.996L148.599 165.69L146.812 165.396L146.584 166.788L148.233 167.059L148.119 167.748L146.47 167.477L146.232 168.931L148.128 169.24L148.009 169.929Z" fill="white"/>
<path d="M152.528 166.336L151.15 166.108L150.456 170.328L149.663 170.199L150.357 165.98L148.983 165.757L149.098 165.063L152.642 165.643L152.528 166.336Z" fill="white"/>
<path d="M197.304 70.6081L185.448 68.6361L189.14 56.7426L197.655 58.1538L197.304 70.6081Z" fill="#8577E5"/>
<path d="M194.348 59.2989C199.077 59.2989 202.911 55.4653 202.911 50.7363C202.911 46.0073 199.077 42.1737 194.348 42.1737C189.619 42.1737 185.786 46.0073 185.786 50.7363C185.786 55.4653 189.619 59.2989 194.348 59.2989Z" fill="#D8CFF7"/>
<path d="M200.602 78.8048C201.138 78.8951 201.642 78.5007 201.671 77.959C201.98 72.2237 197.936 67.0538 192.139 66.0892C186.342 65.1246 180.844 68.7074 179.281 74.2337C179.133 74.7564 179.485 75.2886 180.017 75.3788L200.602 78.8048Z" fill="url(#paint11_radial)"/>
<path d="M87.3773 80.9193L83.9465 69.8335C83.0532 66.8732 84.7306 63.7465 87.6909 62.8532C90.6512 61.9599 93.7778 63.6373 94.6712 66.5976L98.1875 77.9685L87.3773 80.9193Z" fill="#8A6FE8"/>
<path d="M84.9064 89.4202L79.3801 79.2135C77.9261 76.4812 78.962 73.0932 81.6894 71.6392C84.4217 70.1852 87.8097 71.2211 89.2637 73.9485L94.9325 84.4166L84.9064 89.4202Z" fill="#8A6FE8"/>
<path d="M94.0677 83.0957L90.7082 57.2273C90.3423 54.1576 92.5376 51.3684 95.6073 51.0072C98.6769 50.6414 101.466 52.8367 101.827 55.9063L105.225 82.0646L94.0677 83.0957Z" fill="#8A6FE8"/>
<path d="M86.636 45.115L81.1192 42.169C80.7344 41.9646 80.2544 42.0312 79.9408 42.3353C79.6272 42.6394 79.5464 43.1146 79.7412 43.509L82.5163 49.1112C82.5638 49.2063 82.6255 49.2918 82.6968 49.3678L117.893 85.6473C118.283 86.0464 118.919 86.056 119.318 85.6711L122.055 83.0148C122.455 82.6252 122.464 81.9885 122.079 81.5893L86.8831 45.3004C86.8118 45.2243 86.7263 45.1626 86.636 45.115Z" fill="#FAF9F8"/>
<path d="M85.2865 48.3937L79.9408 42.3304C79.6272 42.6346 79.5464 43.1097 79.7412 43.5041L82.5163 49.1064C82.5638 49.2014 82.6255 49.287 82.6968 49.363L117.893 85.6425C118.283 86.0416 118.919 86.0511 119.318 85.6662L120.283 84.7301L85.2865 48.3937Z" fill="#E1DFDD"/>
<path d="M95.2461 85.6663L107.225 67.0301C108.955 64.4689 112.438 63.7894 114.999 65.5238C117.565 67.2534 118.24 70.7364 116.505 73.2976L104.365 92.1762L95.2461 85.6663Z" fill="#8A6FE8"/>
<path d="M96.282 98.9046C102.756 98.9046 108.005 93.6563 108.005 87.1821C108.005 80.7079 102.756 75.4596 96.282 75.4596C89.8078 75.4596 84.5595 80.7079 84.5595 87.1821C84.5595 93.6563 89.8078 98.9046 96.282 98.9046Z" fill="url(#paint12_radial)"/>
<path d="M68.6269 154.115H37.332V161.955H68.6269V154.115Z" fill="#B3AFAB"/>
<path d="M68.6269 156.282H37.332V161.955H68.6269V156.282Z" fill="#797673"/>
<path d="M110.157 157.546H74.2815V161.955H110.157V157.546Z" fill="white"/>
<path d="M83.9465 157.546H74.2815V161.955H83.9465V157.546Z" fill="#6ECFC3"/>
<path d="M86.7738 45.2148C86.7263 45.1815 86.6883 45.1387 86.636 45.1102L81.5612 42.397L79.8743 40.5866C79.6795 40.3775 79.3516 40.368 79.1425 40.5628L78.2967 41.3516C78.0876 41.5464 78.0781 41.8743 78.273 42.0834L79.9028 43.832L82.5163 49.1017L86.7738 45.2148Z" fill="#B3AFAB"/>
<defs>
<linearGradient id="paint0_linear" x1="159.109" y1="176.992" x2="149.226" y2="224.063" gradientUnits="userSpaceOnUse">
<stop offset="0.1342" stop-color="#522CD5"/>
<stop offset="0.53" stop-color="#8A6FE8"/>
</linearGradient>
<linearGradient id="paint1_linear" x1="151.488" y1="221.694" x2="122.128" y2="274.039" gradientUnits="userSpaceOnUse">
<stop stop-color="#522CD5"/>
<stop offset="0.4397" stop-color="#8A6FE8"/>
</linearGradient>
<radialGradient id="paint2_radial" cx="0" cy="0" r="1" gradientUnits="userSpaceOnUse" gradientTransform="translate(129.613 250.735) rotate(-179.739) scale(20.3479)">
<stop offset="0.034" stop-color="#522CD5"/>
<stop offset="0.9955" stop-color="#8A6FE8"/>
</radialGradient>
<linearGradient id="paint3_linear" x1="209.573" y1="176.22" x2="198.21" y2="229.675" gradientUnits="userSpaceOnUse">
<stop offset="0.1194" stop-color="#522CD5"/>
<stop offset="0.5181" stop-color="#8A6FE8"/>
</linearGradient>
<linearGradient id="paint4_linear" x1="215.728" y1="225.617" x2="190.265" y2="274.137" gradientUnits="userSpaceOnUse">
<stop stop-color="#522CD5"/>
<stop offset="0.4397" stop-color="#8A6FE8"/>
</linearGradient>
<radialGradient id="paint5_radial" cx="0" cy="0" r="1" gradientUnits="userSpaceOnUse" gradientTransform="translate(198.811 250.697) rotate(-179.739) scale(22.1452 22.1218)">
<stop offset="0.034" stop-color="#522CD5"/>
<stop offset="0.9955" stop-color="#8A6FE8"/>
</radialGradient>
<radialGradient id="paint6_radial" cx="0" cy="0" r="1" gradientUnits="userSpaceOnUse" gradientTransform="translate(175.003 123.191) rotate(-170.561) scale(61.9522)">
<stop offset="0.4744" stop-color="#A08BE8"/>
<stop offset="0.8618" stop-color="#8065E0"/>
</radialGradient>
<linearGradient id="paint7_linear" x1="220.99" y1="170.353" x2="264.404" y2="170.353" gradientUnits="userSpaceOnUse">
<stop offset="0.2296" stop-color="#9780E6"/>
<stop offset="0.9374" stop-color="#8A6FE8"/>
</linearGradient>
<radialGradient id="paint8_radial" cx="0" cy="0" r="1" gradientUnits="userSpaceOnUse" gradientTransform="translate(218.919 139.115) rotate(180) scale(11.4254)">
<stop stop-color="#8065E0"/>
<stop offset="1" stop-color="#512BD4"/>
</radialGradient>
<radialGradient id="paint9_radial" cx="0" cy="0" r="1" gradientUnits="userSpaceOnUse" gradientTransform="translate(257.338 187.554) rotate(180) scale(22.7821)">
<stop stop-color="#8065E0"/>
<stop offset="1" stop-color="#512BD4"/>
</radialGradient>
<radialGradient id="paint10_radial" cx="0" cy="0" r="1" gradientUnits="userSpaceOnUse" gradientTransform="translate(131.383 112.016) rotate(-170.561) scale(48.26)">
<stop offset="0.0933" stop-color="#E1DFDD"/>
<stop offset="0.8998" stop-color="white"/>
</radialGradient>
<radialGradient id="paint11_radial" cx="0" cy="0" r="1" gradientUnits="userSpaceOnUse" gradientTransform="translate(191.646 69.3536) rotate(9.43878) scale(8.94482)">
<stop stop-color="#8065E0"/>
<stop offset="1" stop-color="#512BD4"/>
</radialGradient>
<radialGradient id="paint12_radial" cx="0" cy="0" r="1" gradientUnits="userSpaceOnUse" gradientTransform="translate(96.1603 81.6591) scale(17.5764)">
<stop stop-color="#8065E0"/>
<stop offset="1" stop-color="#512BD4"/>
</radialGradient>
</defs>
</svg>
