<svg width="636" height="300" viewBox="0 0 636 300" fill="none" xmlns="http://www.w3.org/2000/svg">
<path d="M456.88 223.29L421.16 223.35V199.88L456.88 200.29V223.29Z" fill="#CEDB59"/>
<path d="M452.41 206.85L421.16 206.61V199.88L456.88 200.29L452.41 206.85Z" fill="#9EAE2B"/>
<path d="M460.73 201.87L417.14 201.4V192.82L460.73 193.5V201.87Z" fill="#CEDB59"/>
<path d="M391.98 70.73H345.01V86.47H391.98C395.96 86.47 399.21 89.71 399.21 93.7C399.21 97.69 395.97 100.93 391.98 100.93H379.48C366.82 100.93 356.51 111.23 356.51 123.9V198.19H372.25V123.9C372.25 119.92 375.49 116.67 379.48 116.67H391.98C404.64 116.67 414.95 106.37 414.95 93.7C414.95 81.03 404.64 70.73 391.98 70.73Z" fill="#CCCAC7"/>
<path d="M305.8 139.07C339.197 139.07 366.27 111.997 366.27 78.6C366.27 45.2033 339.197 18.13 305.8 18.13C272.403 18.13 245.33 45.2033 245.33 78.6C245.33 111.997 272.403 139.07 305.8 139.07Z" fill="#CEDB59"/>
<path d="M216.35 273.44C201.18 273.9 188.66 263.65 188.66 250.58V174.2L206.29 174.55V250.26C206.29 255.01 210.82 258.77 216.35 258.64C221.85 258.51 226.31 254.59 226.31 249.89V199.4C226.31 186.57 238.36 176.37 252.98 176.65H253.2C267.59 176.92 279.15 187.3 279.15 199.78V212.87C279.15 217.44 283.35 221.15 288.49 221.13C293.64 221.11 297.78 217.41 297.78 212.88V76.8101L313.55 77.9501V212.89C313.55 225.15 302.41 235.25 288.53 235.4C274.41 235.56 262.8 225.46 262.8 212.87V199.67C262.8 195.06 258.51 191.25 253.21 191.19H252.99C247.66 191.13 243.3 194.87 243.3 199.53V249.59C243.29 262.28 231.3 272.99 216.35 273.44Z" fill="#CCCAC7"/>
<path d="M158.74 167.6L187.68 202.07C187.68 202.07 197.88 204.69 207.16 202.18C212.31 195.98 236.25 169.35 236.25 169.35L158.74 167.6Z" fill="#B3AFAB"/>
<path d="M236.25 169.35C236.25 170.86 219.42 171.73 198.25 171.28C176.62 170.82 158.75 169.17 158.75 167.6C158.75 166.03 176.63 165.18 198.25 165.7C219.41 166.21 236.25 167.84 236.25 169.35Z" fill="#797673"/>
<path d="M180.9 170.62C186.16 170.92 192.04 171.15 198.25 171.28C202.61 171.37 206.78 171.41 210.66 171.39L212.79 166.02L202.13 155.43L186.11 157.71L180.9 170.62Z" fill="#CEDB59"/>
<path d="M547.77 164.8C554.14 181.95 545.92 200.95 529.16 207.48C512.05 214.14 492.4 205.38 485.54 187.68C478.63 169.83 487.53 150.22 505.14 144.12C522.38 138.15 541.35 147.51 547.77 164.8Z" fill="white"/>
<path d="M523.82 211.14L542.24 259.86C543.37 262.83 546.66 264.21 549.57 262.95C552.47 261.69 553.91 258.28 552.8 255.32L534.67 206.92L523.82 211.14Z" fill="#B3AFAB"/>
<path d="M522.06 184.92L482.33 184.24L483.2 163.98L491.08 150.18L522.06 151.33V184.92Z" fill="#F7B548"/>
<path d="M489.93 168.73L482.33 168.53V178.02L489.93 178.18V168.73Z" fill="white"/>
<path d="M499.31 159.57L491.79 159.33V178.22L499.31 178.38V159.57Z" fill="white"/>
<path d="M508.59 164.72L501.15 164.5V178.41L508.59 178.57V164.72Z" fill="white"/>
<path d="M517.77 155.58L510.41 155.33V178.61L517.77 178.76V155.58Z" fill="white"/>
<path d="M543.49 182.65C543.49 193.13 535.16 201.57 524.78 201.5C514.26 201.42 505.64 192.67 505.64 181.94C505.64 171.22 514.26 162.78 524.78 163.1C535.17 163.42 543.49 172.17 543.49 182.65Z" fill="#1DACCC"/>
<path d="M524.78 182.94L538.33 195.72C541.53 192.34 543.5 187.75 543.5 182.66C543.5 172.18 535.17 163.43 524.79 163.11V182.94H524.78Z" fill="#70D6E0"/>
<path d="M524.78 182.94L538.33 195.72C541.39 192.48 543.31 188.12 543.47 183.28L524.78 182.94Z" fill="#0B7891"/>
<path d="M530.24 211.6C511.08 219.11 488.95 209.32 481.23 189.45C473.44 169.41 483.5 147.32 503.29 140.53C522.62 133.89 543.9 144.45 551.06 163.78C558.16 182.95 548.96 204.27 530.24 211.6ZM505.3 145.85C488.5 151.68 479.99 170.46 486.58 187.49C493.12 204.39 511.94 212.78 528.28 206.44C544.31 200.22 552.19 182 546.1 165.61C539.96 149.09 521.77 140.14 505.3 145.85Z" fill="#CCCAC7"/>
<path d="M538.11 216.03L527.31 220.29L542.25 259.86C543.38 262.83 546.67 264.21 549.58 262.95C552.48 261.69 553.92 258.28 552.81 255.32L538.11 216.03Z" fill="#797673"/>
<path d="M103.08 210.88C107.15 206.62 114.69 197.32 116.97 185.96L110.04 184.65C107.98 194.96 101.05 202.98 97.79 206.28C97.51 206.54 99.95 209.16 103.08 210.88Z" fill="url(#paint0_linear)"/>
<path d="M103.08 210.88C107.15 206.62 114.69 197.32 116.97 185.96L110.04 184.65C107.98 194.96 101.05 202.98 97.79 206.28C97.51 206.54 99.95 209.16 103.08 210.88Z" fill="url(#paint1_linear)"/>
<path d="M97.8299 206.22L101.98 209.86L92.1799 240.43L77.3899 227.49C76.7599 226.93 76.7399 226.01 77.3599 225.44L97.8299 206.22Z" fill="#522CD5"/>
<path d="M101.26 238.05C101.57 239.21 100.74 240.2 99.8999 240.99L97.3199 243.42C96.8599 243.85 96.0899 243.87 95.6099 243.45L90.3899 238.87C89.8499 238.4 89.8399 237.61 90.3599 237.12L92.9199 234.5C93.8899 233.59 94.3699 232.89 93.9699 231.33C91.6199 222.15 93.4099 214.05 99.3099 207.51L103.11 210.84C100.31 214.39 97.1699 222.78 101.26 238.05Z" fill="url(#paint2_linear)"/>
<path d="M95.6099 243.45C96.0899 243.87 96.8499 243.86 97.3199 243.42L99.8999 240.99C100.45 240.47 100.99 239.86 101.21 239.18L94.0299 232.88C93.8799 233.49 93.4799 233.95 92.9099 234.49L90.3499 237.11C89.8299 237.6 89.8399 238.38 90.3799 238.86L95.6099 243.45Z" fill="url(#paint3_radial)"/>
<path d="M127.79 212.79C128.62 206.97 129.31 195.15 124.44 185.23L117.94 188.77C122.36 197.77 121.41 208.24 120.69 212.81C120.62 213.19 124.19 213.55 127.79 212.79Z" fill="url(#paint4_linear)"/>
<path d="M127.79 212.79C128.62 206.97 129.31 195.15 124.44 185.23L117.94 188.77C122.36 197.77 121.41 208.24 120.69 212.81C120.62 213.19 124.19 213.55 127.79 212.79Z" fill="url(#paint5_linear)"/>
<path d="M120.69 212.75H126.28L136.36 241.84L116.47 241.87C115.62 241.87 115.06 241.2 115.22 240.37L120.69 212.75Z" fill="#522CD5"/>
<path d="M142.43 234.16C143.38 234.82 143.28 236.1 143.06 237.23L142.37 240.72C142.25 241.34 141.62 241.85 140.98 241.85H133.95C133.22 241.85 132.75 241.28 132.89 240.57L133.44 236.96C133.7 235.65 133.68 234.82 132.43 233.92C125.03 228.63 121.7 221.45 122.68 212.75H127.8C127.59 217.21 129.98 225.48 142.43 234.16Z" fill="url(#paint6_linear)"/>
<path d="M140.98 241.85C141.62 241.85 142.25 241.34 142.37 240.72L143.06 237.23C143.21 236.48 143.29 235.68 143.07 235.03H133.4C133.64 235.58 133.59 236.18 133.43 236.96L132.88 240.57C132.74 241.28 133.22 241.85 133.94 241.85H140.98Z" fill="url(#paint7_radial)"/>
<path d="M115.785 189.791L123.285 189.791L123.285 188.841L115.785 188.841L115.785 189.791Z" fill="#A08BE8"/>
<path d="M115.785 180.62L123.285 180.62L123.285 179.67L115.785 179.67L115.785 180.62Z" fill="#A08BE8"/>
<path d="M164.29 128.26C162.74 133.73 153.55 144.38 145.08 147.48C139.94 149.36 137.26 143.55 142.51 141.63C148.19 139.55 156.48 130.75 157.7 126.48L164.29 128.26Z" fill="#8A6FE8"/>
<path d="M152.57 120.48L154.23 129.65C154.53 131.28 156.13 132.38 157.81 132.09C159.49 131.8 160.61 130.24 160.32 128.61L158.66 119.44C158.36 117.81 156.76 116.71 155.08 117C153.39 117.29 152.27 118.84 152.57 120.48Z" fill="#8A6FE8"/>
<path d="M165.32 133.7L171.13 131C172.67 130.27 173.32 128.46 172.57 126.96C171.82 125.46 169.96 124.83 168.42 125.56L162.46 128.33L165.32 133.7Z" fill="#8A6FE8"/>
<path d="M166.28 130.45L171.99 123.84C173.09 122.56 172.91 120.65 171.59 119.58C170.27 118.51 168.31 118.68 167.22 119.97L162.96 124.88L166.28 130.45Z" fill="#8A6FE8"/>
<path d="M162.86 128.86L166.88 121.15C167.66 119.66 167.05 117.84 165.52 117.09C163.99 116.33 162.12 116.92 161.34 118.41L157.25 126.26L162.86 128.86Z" fill="#8A6FE8"/>
<path d="M160.9 135.7C164.49 135.7 167.4 132.866 167.4 129.37C167.4 125.874 164.49 123.04 160.9 123.04C157.31 123.04 154.4 125.874 154.4 129.37C154.4 132.866 157.31 135.7 160.9 135.7Z" fill="url(#paint8_radial)"/>
<path d="M153.26 154.66C152.53 144.82 148.44 138.11 148.44 138.11L150.63 137.39L150.67 137.33C141.75 121.77 122.43 114.13 104.47 120.07C84.2399 126.75 73.4099 148.13 80.2799 167.82C87.1499 187.51 109.12 198.05 129.35 191.36C145.31 186.09 155.42 171.66 155.6 156.14C155.53 155.51 155.15 154.46 153.26 154.66Z" fill="url(#paint9_radial)"/>
<path d="M153.26 154.66C152.53 144.94 148.55 138.28 148.45 138.12L131.53 143.64C131.53 143.64 129.05 144.2 129.8 146.32C130.54 148.45 132.73 154.43 135.05 161.08C135.52 162.46 153.29 156.06 153.26 154.66Z" fill="url(#paint10_radial)"/>
<path d="M153.25 154.62C153.22 154.25 153.19 153.88 153.15 153.52C152.96 151.69 152.66 149.98 152.31 148.42C151.46 148.39 150.78 148.82 150.16 149.69C149.31 150.9 145.04 157.33 145.04 157.33L153.25 154.62Z" fill="#A08BE8"/>
<path d="M155.59 156.61C155.59 156.61 155.94 154.37 153.26 154.67C153.26 154.66 153.26 154.65 153.26 154.64L136.97 159.95C136.1 160.24 134.81 160.1 134.42 159.31C134.63 159.9 134.83 160.49 135.04 161.09C135.47 162.33 136.65 162.67 137.54 162.5C137.63 162.48 137.72 162.46 137.8 162.43L140.35 161.59L155.59 156.61Z" fill="#512BD4"/>
<path d="M154.78 163.34L91.6199 184.21C93.8599 186.09 96.2999 187.7 98.8899 189.03L152.02 171.47C153.26 168.88 154.18 166.15 154.78 163.34Z" fill="#D8CFF7"/>
<path d="M150.93 173.61C153.08 169.73 154.53 165.5 155.19 161.09L147.46 163.65L150.93 173.61Z" fill="#512BD4"/>
<path d="M106.41 117.9L99.3199 120.2L97.8999 112.79L102.99 111.14L106.41 117.9Z" fill="#8A6FE8"/>
<path d="M110.6 121.36C110.92 121.26 111.08 120.9 110.94 120.61C109.45 117.45 105.72 115.83 102.25 116.95C98.78 118.07 96.8 121.54 97.54 124.94C97.61 125.26 97.96 125.45 98.28 125.34L110.6 121.36Z" fill="url(#paint11_radial)"/>
<path d="M144.404 154.052C145.986 153.525 146.567 150.991 145.701 148.392C144.835 145.793 142.851 144.114 141.268 144.641C139.686 145.168 139.105 147.702 139.971 150.301C140.837 152.9 142.822 154.579 144.404 154.052Z" fill="#512BD4"/>
<path d="M141.96 146.87C141.26 148.23 141.82 149.88 143.22 150.57C144.18 151.04 145.28 150.93 146.1 150.38C146.06 149.77 145.94 149.12 145.73 148.47C145.32 147.19 144.63 146.13 143.85 145.43C143.06 145.61 142.35 146.11 141.96 146.87Z" fill="#8065E0"/>
<path d="M99.2899 113.65C102.272 113.65 104.69 111.3 104.69 108.4C104.69 105.501 102.272 103.15 99.2899 103.15C96.3076 103.15 93.8899 105.501 93.8899 108.4C93.8899 111.3 96.3076 113.65 99.2899 113.65Z" fill="#D8CFF7"/>
<path d="M168.8 155.2L163.44 150.46C157.81 156.04 152.58 160.84 146.81 163.05C135.32 167.45 123.34 158.92 120.17 156.37L114.49 162.81C124.37 168.77 143.85 182.89 168.8 155.2Z" fill="url(#paint12_linear)"/>
<path d="M166.95 148.85L167.45 142.14C167.57 140.35 166.13 138.9 164.24 138.9C162.35 138.9 160.72 140.35 160.6 142.14L160.09 149.02L166.95 148.85Z" fill="#8A6FE8"/>
<path d="M116.01 165.25C119.931 165.25 123.11 162.156 123.11 158.34C123.11 154.524 119.931 151.43 116.01 151.43C112.089 151.43 108.91 154.524 108.91 158.34C108.91 162.156 112.089 165.25 116.01 165.25Z" fill="url(#paint13_radial)"/>
<path d="M186.14 133.38C192.259 133.38 197.22 128.549 197.22 122.59C197.22 116.631 192.259 111.8 186.14 111.8C180.021 111.8 175.06 116.631 175.06 122.59C175.06 128.549 180.021 133.38 186.14 133.38Z" fill="#CEDB59"/>
<path d="M185.99 146.23L166.5 151.66C166.02 151.79 165.53 151.52 165.4 151.06L159.5 131C159.37 130.54 159.64 130.06 160.12 129.93L179.61 124.5C180.09 124.37 180.58 124.64 180.71 125.1L186.61 145.16C186.75 145.62 186.47 146.1 185.99 146.23Z" fill="#F7B548"/>
<path d="M166.76 159.16L173.56 156.76C175.37 156.11 176.31 154.25 175.66 152.62C175.01 150.98 173.02 150.18 171.21 150.84L164.23 153.3L166.76 159.16Z" fill="#8A6FE8"/>
<path d="M168.79 152.01L173.06 146.32C174.19 144.8 173.9 142.75 172.42 141.75C170.94 140.75 168.83 141.17 167.7 142.69L163.33 148.52L168.79 152.01Z" fill="#8A6FE8"/>
<path d="M169.38 155.27L175.24 151.13C176.79 150.02 177.17 147.99 176.07 146.59C174.98 145.19 172.83 144.96 171.28 146.08L165.28 150.32L169.38 155.27Z" fill="#8A6FE8"/>
<path d="M157.89 151.09C159.27 147.53 163.41 145.52 167.15 146.61C170.89 147.7 172.81 151.47 171.43 155.03C170.05 158.59 165.91 160.6 162.17 159.51C158.43 158.42 156.51 154.65 157.89 151.09Z" fill="url(#paint14_radial)"/>
<path d="M183.07 117.78L168.4 132.32C167.47 133.24 165.87 132.87 165.47 131.64L158.97 111.6C158.55 110.31 159.76 109.09 161.1 109.43L182.28 114.94C183.57 115.27 184.01 116.85 183.07 117.78Z" fill="#29C3E5"/>
<path d="M507.9 233.56H504.1V273.37H507.9V233.56Z" fill="#A7A4A0"/>
<path d="M496.75 233.56H492.95V273.37H496.75V233.56Z" fill="#A7A4A0"/>
<path d="M511.51 237.56H348.56C344.55 237.56 341.29 234.31 341.29 230.29C341.29 226.28 344.54 223.02 348.56 223.02H511.51C515.52 223.02 518.78 226.27 518.78 230.29C518.78 234.31 515.52 237.56 511.51 237.56Z" fill="#797672"/>
<path d="M331.65 236.64C328.15 236.64 325.31 233.8 325.31 230.3C325.31 226.8 328.15 223.96 331.65 223.96H494.6C498.1 223.96 500.94 226.8 500.94 230.3C500.94 233.8 498.1 236.64 494.6 236.64H331.65Z" fill="#605D5A"/>
<path d="M494.6 224.88C497.58 224.88 500.01 227.31 500.01 230.29C500.01 233.27 497.58 235.7 494.6 235.7H331.65C328.67 235.7 326.24 233.27 326.24 230.29C326.24 227.31 328.67 224.88 331.65 224.88H494.6ZM494.6 223.03H331.65C327.64 223.03 324.38 226.28 324.38 230.3C324.38 234.31 327.63 237.57 331.65 237.57H494.6C498.61 237.57 501.87 234.32 501.87 230.3C501.87 226.28 498.61 223.03 494.6 223.03Z" fill="#A7A4A0"/>
<path d="M332.03 233.7C333.869 233.7 335.36 232.209 335.36 230.37C335.36 228.531 333.869 227.04 332.03 227.04C330.191 227.04 328.7 228.531 328.7 230.37C328.7 232.209 330.191 233.7 332.03 233.7Z" fill="#9C9894"/>
<path d="M358.98 233.7C360.819 233.7 362.31 232.209 362.31 230.37C362.31 228.531 360.819 227.04 358.98 227.04C357.141 227.04 355.65 228.531 355.65 230.37C355.65 232.209 357.141 233.7 358.98 233.7Z" fill="#9C9894"/>
<path d="M385.93 233.7C387.769 233.7 389.26 232.209 389.26 230.37C389.26 228.531 387.769 227.04 385.93 227.04C384.091 227.04 382.6 228.531 382.6 230.37C382.6 232.209 384.091 233.7 385.93 233.7Z" fill="#9C9894"/>
<path d="M412.89 233.7C414.729 233.7 416.22 232.209 416.22 230.37C416.22 228.531 414.729 227.04 412.89 227.04C411.051 227.04 409.56 228.531 409.56 230.37C409.56 232.209 411.051 233.7 412.89 233.7Z" fill="#9C9894"/>
<path d="M439.84 233.7C441.679 233.7 443.17 232.209 443.17 230.37C443.17 228.531 441.679 227.04 439.84 227.04C438.001 227.04 436.51 228.531 436.51 230.37C436.51 232.209 438.001 233.7 439.84 233.7Z" fill="#9C9894"/>
<path d="M466.8 233.7C468.639 233.7 470.13 232.209 470.13 230.37C470.13 228.531 468.639 227.04 466.8 227.04C464.961 227.04 463.47 228.531 463.47 230.37C463.47 232.209 464.961 233.7 466.8 233.7Z" fill="#9C9894"/>
<path d="M493.75 233.7C495.589 233.7 497.08 232.209 497.08 230.37C497.08 228.531 495.589 227.04 493.75 227.04C491.911 227.04 490.42 228.531 490.42 230.37C490.42 232.209 491.911 233.7 493.75 233.7Z" fill="#9C9894"/>
<path d="M407.08 273.27V156.63C407.08 151.42 402.85 147.19 397.64 147.19H331.31C326.1 147.19 321.87 151.42 321.87 156.63V273.27H407.08Z" fill="#1DACCC"/>
<path d="M333.8 70.52C333.8 54.91 321.15 42.26 305.54 42.26C289.93 42.26 277.28 54.91 277.28 70.52C277.28 76.71 279.29 82.41 282.67 87.07H282.65C294.48 102.32 295.01 114.94 295.01 114.94H301.13H310H316.12C316.12 114.94 316.11 103.01 327.94 87.76H327.88C331.58 82.99 333.8 77.02 333.8 70.52Z" fill="white"/>
<path d="M407.08 201.9V150.85C407.08 148.83 405.44 147.19 403.42 147.19H325.54C323.52 147.19 321.88 148.83 321.88 150.85V201.9H407.08Z" fill="#0B7891"/>
<path d="M366.76 192.46H392.38C393.5 192.46 394.41 191.55 394.41 190.43V164.81C394.41 163.69 393.5 162.78 392.38 162.78H366.76C365.64 162.78 364.73 163.69 364.73 164.81V190.43C364.72 191.55 365.63 192.46 366.76 192.46Z" fill="white"/>
<path d="M335.21 176.22C338.712 176.22 341.55 173.382 341.55 169.88C341.55 166.379 338.712 163.54 335.21 163.54C331.709 163.54 328.87 166.379 328.87 169.88C328.87 173.382 331.709 176.22 335.21 176.22Z" fill="white"/>
<path d="M353.13 176.22C356.632 176.22 359.47 173.382 359.47 169.88C359.47 166.379 356.632 163.54 353.13 163.54C349.629 163.54 346.79 166.379 346.79 169.88C346.79 173.382 349.629 176.22 353.13 176.22Z" fill="white"/>
<path d="M359.47 186.56H353.13V189.56H359.47V186.56Z" fill="#CEDB59"/>
<path d="M347.82 186.56H341.48V189.56H347.82V186.56Z" fill="#29C3E5"/>
<path d="M336.17 186.56H329.83V189.56H336.17V186.56Z" fill="#F7B548"/>
<path d="M394.4 175.32H389.22L387.35 170.58L381.85 170.5L379.02 165.25L375.28 176.76L372.41 171.32L369.67 175.32H364.72V177.12H370.62L372.21 174.78L375.68 181.35L379.43 169.78L380.78 172.27L386.12 172.35L388 177.12H394.4V175.32Z" fill="#CCCAC7"/>
<path d="M364.72 184.22V190.43C364.72 191.55 365.63 192.46 366.75 192.46H392.37C393.49 192.46 394.4 191.55 394.4 190.43V184.22H364.72Z" fill="#CCCAC7"/>
<path d="M353.13 176.22C356.63 176.22 359.47 173.38 359.47 169.88H346.8C346.8 173.38 349.63 176.22 353.13 176.22Z" fill="#D5D3D0"/>
<path d="M335.21 176.22C338.71 176.22 341.55 173.38 341.55 169.88H328.88C328.87 173.38 331.71 176.22 335.21 176.22Z" fill="#D5D3D0"/>
<path d="M335.5 171.7C335.16 171.7 334.83 171.5 334.68 171.17L332.47 166.17C332.27 165.72 332.47 165.19 332.93 164.99C333.38 164.79 333.91 164.99 334.11 165.45L336.32 170.45C336.52 170.9 336.32 171.43 335.86 171.63C335.74 171.67 335.62 171.7 335.5 171.7Z" fill="#B3AFAB"/>
<path d="M352.97 171.74C352.77 171.74 352.57 171.67 352.4 171.53C352.02 171.21 351.97 170.65 352.28 170.27L355.87 165.93C356.19 165.55 356.75 165.5 357.13 165.81C357.51 166.13 357.56 166.69 357.25 167.07L353.66 171.41C353.48 171.63 353.22 171.74 352.97 171.74Z" fill="#B3AFAB"/>
<path d="M299.56 52.28C298.67 52.6 297.78 52.97 296.91 53.42C295.72 54.03 294.62 54.74 293.6 55.54L295.43 59.77C294.42 60.68 293.53 61.7 292.79 62.81L287.95 62.29C286.86 64.36 286.12 66.59 285.78 68.88L290.08 70.81C289.99 72.34 290.12 73.89 290.49 75.41C289.44 76.15 287.68 77.34 286.56 78.09C286.85 78.96 287.19 79.82 287.61 80.66C288.18 81.82 288.86 82.89 289.62 83.88L294.01 82.04C294.97 83.09 296.05 83.99 297.24 84.72L296.46 89.47C298.53 90.48 300.77 91.12 303.09 91.37L305.35 87C306.65 87 307.96 86.84 309.26 86.5L311.86 90.36C312.8 90.04 313.73 89.64 314.65 89.17C315.9 88.53 317.05 87.78 318.11 86.94L316.22 82.73C317.26 81.78 318.16 80.71 318.91 79.55L323.57 80.36C324.73 78.18 325.49 75.82 325.82 73.39C324.46 72.89 322.55 72.17 321.48 71.74C321.56 70.35 321.46 68.94 321.16 67.55L325.16 64.98C324.85 63.94 324.45 62.92 323.95 61.92C323.34 60.69 322.62 59.55 321.8 58.51L317.59 60.58C316.59 59.47 315.43 58.53 314.18 57.77L315.21 53.16C313.21 52.17 311.05 51.52 308.82 51.25L306.94 55.6C305.36 55.53 303.76 55.69 302.17 56.11L299.56 52.28ZM313.79 67.17C315.95 71.52 314.11 76.89 309.69 79.17C305.27 81.45 299.93 79.77 297.77 75.42C295.61 71.07 297.45 65.7 301.87 63.42C306.29 61.14 311.63 62.82 313.79 67.17Z" fill="#B3AFAB"/>
<path d="M316.12 114.87H294.97V130.65H298.68L300.27 133.69H310.73L312.33 130.65H316.12V114.87Z" fill="#848484"/>
<path d="M316.12 124.79H294.97V126.13H316.12V124.79Z" fill="#CCCAC7"/>
<path d="M316.12 119.48H294.97V120.82H316.12V119.48Z" fill="#CCCAC7"/>
<path d="M71.4 273.18H146.39V241.57L101.56 242.15L105.53 257.55L68.62 258.4L71.4 273.18Z" fill="#CCCAC7"/>
<defs>
<linearGradient id="paint0_linear" x1="115.405" y1="184.632" x2="100.954" y2="209.232" gradientUnits="userSpaceOnUse">
<stop stop-color="#522CD5"/>
<stop offset="0.4397" stop-color="#8A6FE8"/>
</linearGradient>
<linearGradient id="paint1_linear" x1="115.405" y1="184.632" x2="100.954" y2="209.232" gradientUnits="userSpaceOnUse">
<stop stop-color="#522CD5"/>
<stop offset="0.4397" stop-color="#8A6FE8"/>
</linearGradient>
<linearGradient id="paint2_linear" x1="103.175" y1="208.161" x2="95.0785" y2="243.227" gradientUnits="userSpaceOnUse">
<stop stop-color="#522CD5"/>
<stop offset="0.4397" stop-color="#8A6FE8"/>
</linearGradient>
<radialGradient id="paint3_radial" cx="0" cy="0" r="1" gradientUnits="userSpaceOnUse" gradientTransform="translate(101.736 231.923) rotate(41.2543) scale(11.2589 11.2227)">
<stop offset="0.034" stop-color="#522CD5"/>
<stop offset="0.9955" stop-color="#8A6FE8"/>
</radialGradient>
<linearGradient id="paint4_linear" x1="122.061" y1="185.397" x2="127.495" y2="212.544" gradientUnits="userSpaceOnUse">
<stop stop-color="#522CD5"/>
<stop offset="0.4397" stop-color="#8A6FE8"/>
</linearGradient>
<linearGradient id="paint5_linear" x1="122.061" y1="185.397" x2="127.495" y2="212.544" gradientUnits="userSpaceOnUse">
<stop stop-color="#522CD5"/>
<stop offset="0.4397" stop-color="#8A6FE8"/>
</linearGradient>
<linearGradient id="paint6_linear" x1="126.41" y1="210.811" x2="142.274" y2="241.345" gradientUnits="userSpaceOnUse">
<stop stop-color="#522CD5"/>
<stop offset="0.4397" stop-color="#8A6FE8"/>
</linearGradient>
<radialGradient id="paint7_radial" cx="0" cy="0" r="1" gradientUnits="userSpaceOnUse" gradientTransform="translate(138.916 229.191) scale(11.3948 11.0884)">
<stop offset="0.034" stop-color="#522CD5"/>
<stop offset="0.9955" stop-color="#8A6FE8"/>
</radialGradient>
<radialGradient id="paint8_radial" cx="0" cy="0" r="1" gradientUnits="userSpaceOnUse" gradientTransform="translate(155.849 130.03) rotate(-108.011) scale(21.2745 21.7504)">
<stop stop-color="#8065E0"/>
<stop offset="0.8628" stop-color="#512BD4"/>
</radialGradient>
<radialGradient id="paint9_radial" cx="0" cy="0" r="1" gradientUnits="userSpaceOnUse" gradientTransform="translate(109.449 137.168) rotate(-28.4607) scale(32.7259 32.256)">
<stop offset="0.4744" stop-color="#A08BE8"/>
<stop offset="0.8618" stop-color="#8065E0"/>
</radialGradient>
<radialGradient id="paint10_radial" cx="0" cy="0" r="1" gradientUnits="userSpaceOnUse" gradientTransform="translate(140.756 147.186) rotate(-28.4607) scale(25.1415 24.7805)">
<stop offset="0.2022" stop-color="#E1DFDD"/>
<stop offset="0.7337" stop-color="white"/>
</radialGradient>
<radialGradient id="paint11_radial" cx="0" cy="0" r="1" gradientUnits="userSpaceOnUse" gradientTransform="translate(103.028 120.819) rotate(-28.4607) scale(5.66595 5.5846)">
<stop stop-color="#8065E0"/>
<stop offset="0.8628" stop-color="#512BD4"/>
</radialGradient>
<linearGradient id="paint12_linear" x1="119.479" y1="143.935" x2="162.824" y2="171.183" gradientUnits="userSpaceOnUse">
<stop offset="0.3344" stop-color="#9780E6"/>
<stop offset="0.8488" stop-color="#8A6FE8"/>
</linearGradient>
<radialGradient id="paint13_radial" cx="0" cy="0" r="1" gradientUnits="userSpaceOnUse" gradientTransform="translate(115.31 155.505) rotate(-18.4515) scale(10.5203 10.2954)">
<stop stop-color="#8065E0"/>
<stop offset="0.8628" stop-color="#512BD4"/>
</radialGradient>
<radialGradient id="paint14_radial" cx="0" cy="0" r="1" gradientUnits="userSpaceOnUse" gradientTransform="translate(162.602 149.8) rotate(153.515) scale(12.2625 11.2619)">
<stop stop-color="#8065E0"/>
<stop offset="0.8628" stop-color="#512BD4"/>
</radialGradient>
</defs>
</svg>
