<svg width="272" height="223" viewBox="0 0 272 223" fill="none" xmlns="http://www.w3.org/2000/svg">
<path d="M257.76 133.27H70.3599C67.0899 133.27 64.45 130.63 64.45 127.36V15.2C64.45 11.93 67.0899 9.29004 70.3599 9.29004H257.76C261.03 9.29004 263.67 11.93 263.67 15.2V127.36C263.66 130.61 261.03 133.27 257.76 133.27Z" fill="#A3C9F6"/>
<path d="M263.66 29.6499V13.3499C263.66 10.0799 261.02 7.43994 257.75 7.43994H70.3599C67.0899 7.43994 64.45 10.0799 64.45 13.3499V29.6499H263.66Z" fill="#549BEF"/>
<path d="M186.16 96.04L187.57 88.33C197.29 90.11 205.04 88.67 210.62 84.06C220.73 75.71 220.99 59.63 220.99 59.47L228.83 59.54C228.82 60.35 228.51 79.46 215.62 90.11C208.17 96.26 198.26 98.25 186.16 96.04Z" fill="#8A6FE8"/>
<path d="M208.51 57.3397L216.27 66.9597C217.51 68.4997 219.77 68.7397 221.31 67.4997L221.69 67.1897C223.23 65.9497 223.47 63.6897 222.23 62.1497L214.47 52.5297C213.23 50.9897 210.97 50.7497 209.43 51.9897L209.05 52.2997C207.51 53.5397 207.27 55.7997 208.51 57.3397Z" fill="#8A6FE8"/>
<path d="M230.65 64.64L235.29 58.15C236.52 56.41 236.1 54.01 234.36 52.78C232.62 51.55 230.22 51.97 228.99 53.71L224.23 60.37L230.65 64.64Z" fill="#8A6FE8"/>
<path d="M229.69 60.4298L231.81 49.6298C232.21 47.5398 230.85 45.5198 228.76 45.1198C226.67 44.7198 224.65 46.0798 224.25 48.1698L222.65 56.1898L229.69 60.4298Z" fill="#8A6FE8"/>
<path d="M224.99 60.7099L224.61 49.6999C224.54 47.5699 222.76 45.9099 220.64 45.9799C218.51 46.0499 216.85 47.8299 216.92 49.9499L217.31 61.1599L224.99 60.7099Z" fill="#8A6FE8"/>
<path d="M223.18 70.5099C227.632 70.5099 231.24 66.9013 231.24 62.4499C231.24 57.9985 227.632 54.3899 223.18 54.3899C218.729 54.3899 215.12 57.9985 215.12 62.4499C215.12 66.9013 218.729 70.5099 223.18 70.5099Z" fill="url(#paint0_radial)"/>
<path d="M165.78 141.59C167.19 134.94 168.95 121.24 164.34 108.54L156.8 111.28C160.98 122.8 159.05 134.87 157.86 140.07C157.76 140.49 161.71 141.69 165.78 141.59Z" fill="url(#paint1_linear)"/>
<path d="M131.42 134.86C132.62 128.17 136.15 114.81 145.2 104.79L151.15 110.16C142.94 119.25 140.18 131.17 139.33 136.43C139.26 136.87 135.15 136.49 131.42 134.86Z" fill="url(#paint2_linear)"/>
<path d="M195.37 97.51C200.27 87.3 200.14 78.37 200.14 78.37L202.67 78.86L202.74 78.82C202.97 58.38 188.61 40.05 167.83 35.98C144.42 31.4 121.73 46.67 117.15 70.08C112.57 93.49 127.84 116.18 151.25 120.76C169.72 124.37 187.75 115.62 196.78 100.27C197.1 99.61 197.33 98.35 195.37 97.51Z" fill="url(#paint3_radial)"/>
<path d="M192 107.01L118.8 92.7C119.9 95.81 121.34 98.77 123.1 101.54L184.69 113.58C187.36 111.67 189.81 109.47 192 107.01Z" fill="#D8CFF7"/>
<path d="M167.485 112.604L181.225 115.29L183.6 103.141L169.861 100.454L167.485 112.604Z" fill="#512BD4"/>
<path d="M170.76 108.54C170.67 108.52 170.6 108.48 170.55 108.4C170.5 108.32 170.48 108.24 170.5 108.16C170.52 108.07 170.56 108 170.64 107.95C170.72 107.9 170.8 107.88 170.89 107.9C170.98 107.92 171.06 107.97 171.11 108.04C171.16 108.12 171.18 108.2 171.16 108.28C171.14 108.37 171.1 108.43 171.02 108.48C170.94 108.54 170.85 108.56 170.76 108.54Z" fill="white"/>
<path d="M174.42 109.21L173.83 109.09L172.75 106.31C172.72 106.24 172.7 106.17 172.69 106.1H172.68C172.68 106.17 172.65 106.33 172.61 106.56L172.17 108.76L171.64 108.66L172.31 105.3L172.94 105.43L173.97 108.14C174.01 108.25 174.04 108.33 174.05 108.37H174.06C174.06 108.28 174.08 108.13 174.13 107.91L174.56 105.75L175.08 105.85L174.42 109.21Z" fill="white"/>
<path d="M176.98 109.72L175.14 109.36L175.81 106L177.58 106.35L177.49 106.82L176.27 106.58L176.08 107.53L177.21 107.75L177.12 108.22L175.99 108L175.79 108.99L177.08 109.25L176.98 109.72Z" fill="white"/>
<path d="M180.16 107.35L179.22 107.16L178.65 110.04L178.11 109.93L178.68 107.05L177.74 106.86L177.83 106.39L180.25 106.87L180.16 107.35Z" fill="white"/>
<path d="M195.46 97.5199C200.3 87.4399 200.24 78.5999 200.23 78.3899L156.25 69.7899C156.25 69.7899 153.53 68.9699 153.04 71.4999C152.55 74.0299 151.25 81.1999 149.7 89.1099C149.38 90.7399 150.56 91.7799 151.61 91.9899C151.62 91.9899 194.02 99.0599 195.46 97.5199Z" fill="url(#paint4_radial)"/>
<path d="M169.22 92.41C169.22 92.41 177.03 88.38 178.54 87.65C180.05 86.92 181.22 87.09 182.23 88.37C183.24 89.65 188.97 96.27 188.97 96.27L169.22 92.41Z" fill="#A08BE8"/>
<path d="M196.51 100.78C196.51 100.78 198.23 98.72 195.46 97.52C195.47 97.51 152.23 89.03 152.23 89.03C151.22 88.83 150.05 87.98 150.12 86.98C149.98 87.68 149.85 88.39 149.71 89.1C149.42 90.58 150.37 91.57 151.33 91.9C151.43 91.93 151.52 91.96 151.62 91.98L154.58 92.56L196.51 100.78Z" fill="#512BD4"/>
<path d="M167.998 82.0744C168.554 78.987 167.515 76.216 165.678 75.8852C163.841 75.5544 161.901 77.7891 161.345 80.8765C160.789 83.9639 161.828 86.7349 163.665 87.0657C165.502 87.3965 167.442 85.1618 167.998 82.0744Z" fill="#512BD4"/>
<path d="M194.686 87.3857C195.333 84.3165 194.378 81.5159 192.552 81.1305C190.725 80.745 188.719 82.9206 188.072 85.9898C187.424 89.059 188.379 91.8596 190.206 92.2451C192.032 92.6305 194.038 90.4549 194.686 87.3857Z" fill="#512BD4"/>
<path d="M165.19 78.6798C166 78.1398 166.97 78.0198 167.84 78.2698C168.17 79.3398 168.25 80.6798 168 82.0798C167.84 82.9498 167.57 83.7498 167.23 84.4498C166.12 84.5398 165 84.0498 164.34 83.0698C163.36 81.6198 163.74 79.6598 165.19 78.6798Z" fill="#8065E0"/>
<path d="M191.91 83.7201C192.72 83.1701 193.69 83.0601 194.56 83.3101C194.93 84.4301 195 85.8701 194.68 87.3801C194.52 88.1501 194.27 88.8601 193.96 89.4901C192.85 89.5901 191.72 89.1001 191.05 88.1101C190.08 86.6601 190.47 84.6901 191.91 83.7201Z" fill="#8065E0"/>
<path d="M97.9501 112.45C97.8701 111.72 96.1601 94.39 106.73 83.67C112.83 77.48 121.57 74.85 132.68 75.87L131.95 83.86C123.36 83.07 116.81 84.89 112.47 89.28C104.56 97.27 105.91 111.48 105.93 111.62L97.9501 112.45Z" fill="url(#paint5_linear)"/>
<path d="M130.75 86.4201C135.13 86.4201 138.68 82.8697 138.68 78.4901C138.68 74.1104 135.13 70.5601 130.75 70.5601C126.37 70.5601 122.82 74.1104 122.82 78.4901C122.82 82.8697 126.37 86.4201 130.75 86.4201Z" fill="url(#paint6_radial)"/>
<path d="M117.61 109.39L105.92 105.39C104.05 104.75 102.01 105.75 101.37 107.62L101.21 108.08C100.57 109.95 101.57 111.99 103.44 112.63L115.13 116.63C117 117.27 119.04 116.27 119.68 114.4L119.84 113.94C120.48 112.07 119.48 110.03 117.61 109.39Z" fill="#8A6FE8"/>
<path d="M94.9801 115.02L94.5101 122.99C94.4001 125.11 96.0301 126.92 98.1601 127.03C100.28 127.14 102.09 125.51 102.2 123.38L102.68 115.21L94.9801 115.02Z" fill="#8A6FE8"/>
<path d="M98.04 118.06L102 128.33C102.77 130.31 105.01 131.29 106.99 130.52C108.97 129.75 109.95 127.51 109.18 125.53L106.26 117.89L98.04 118.06Z" fill="#8A6FE8"/>
<path d="M101.87 115.33L108.06 124.44C109.25 126.2 111.65 126.66 113.41 125.47C115.17 124.28 115.63 121.88 114.44 120.12L108.13 110.84L101.87 115.33Z" fill="#8A6FE8"/>
<path d="M102.46 120.94C106.912 120.94 110.52 117.331 110.52 112.88C110.52 108.428 106.912 104.82 102.46 104.82C98.0087 104.82 94.4001 108.428 94.4001 112.88C94.4001 117.331 98.0087 120.94 102.46 120.94Z" fill="url(#paint7_radial)"/>
<path d="M164.23 32.7899L172.15 34.3099L173.66 19.7099L167.97 18.6199L164.23 32.7899Z" fill="#8A6FE8"/>
<path d="M171.14 25.09C168.11 25.28 165.48 23 165.26 19.99C165.04 16.98 167.32 14.39 170.35 14.2C173.38 14.01 176.01 16.29 176.23 19.3C176.44 22.31 174.17 24.9 171.14 25.09Z" fill="#D8CFF7"/>
<path d="M160.28 37.13C159.93 37.06 159.69 36.7 159.8 36.36C160.91 32.72 164.64 30.43 168.51 31.17C172.38 31.91 175.03 35.42 174.76 39.22C174.73 39.58 174.39 39.83 174.04 39.76L160.28 37.13Z" fill="#522CD5"/>
<path d="M183.16 172.2H144.47L147.61 141.55H180.02L183.16 172.2Z" fill="url(#paint8_radial)"/>
<path d="M260.86 0H66.7601C61.0101 0 56.3601 4.66 56.3601 10.4V132.25C56.3601 137.99 61.0201 142.65 66.7601 142.65H260.86C266.6 142.65 271.26 137.99 271.26 132.25V10.4C271.26 4.66 266.61 0 260.86 0ZM261.77 127.64C261.77 130.08 259.79 132.07 257.34 132.07H69.7801C67.3401 132.07 65.3501 130.09 65.3501 127.64V13.17C65.3501 10.73 67.3301 8.74 69.7801 8.74H257.34C259.78 8.74 261.77 10.72 261.77 13.17V127.64Z" fill="url(#paint9_radial)"/>
<path d="M205.31 180.63H122.48C120.71 180.63 119.28 179.2 119.28 177.43V175.36C119.28 173.59 120.71 172.16 122.48 172.16H205.31C207.08 172.16 208.51 173.59 208.51 175.36V177.43C208.5 179.19 207.07 180.63 205.31 180.63Z" fill="#605E5B"/>
<path d="M119.043 113.714L5.71777 137.426L22.9619 219.841L136.287 196.129L119.043 113.714Z" fill="#A3C9F6"/>
<path d="M119.037 113.715L5.71191 137.427L9.42699 155.182L122.752 131.471L119.037 113.715Z" fill="#549BEF"/>
<path d="M260.99 111.74H220.08V191.99H260.99V111.74Z" fill="#A3C9F6"/>
<path d="M260.99 111.74H220.08V129.78H260.99V111.74Z" fill="#549BEF"/>
<path d="M86.21 177.76L86.04 173C92.04 172.78 96.45 170.92 99.15 167.46C104.05 161.18 102.1 151.61 102.08 151.52L106.74 150.54C106.84 151.02 109.15 162.39 102.9 170.4C99.3 175.01 93.68 177.49 86.21 177.76Z" fill="#8A6FE8"/>
<path d="M94.5302 151.98L100.16 156.49C101.16 157.29 102.63 157.13 103.43 156.13C104.23 155.13 104.07 153.66 103.07 152.86L97.4402 148.35C96.4402 147.55 94.9702 147.71 94.1702 148.71C93.3702 149.71 93.5302 151.17 94.5302 151.98Z" fill="#8A6FE8"/>
<path d="M108.5 153.32L110.41 148.86C110.91 147.67 110.35 146.3 109.16 145.8C107.97 145.3 106.6 145.86 106.1 147.05L104.15 151.62L108.5 153.32Z" fill="#8A6FE8"/>
<path d="M107.38 150.95L107.23 144.27C107.2 142.98 106.12 141.96 104.83 141.99C103.54 142.02 102.52 143.1 102.55 144.39L102.65 149.36L107.38 150.95Z" fill="#8A6FE8"/>
<path d="M104.63 151.73L102.96 145.25C102.64 144 101.37 143.24 100.12 143.56C98.8701 143.88 98.1101 145.15 98.4301 146.4L100.13 153L104.63 151.73Z" fill="#8A6FE8"/>
<path d="M103.79 157.9C106.496 157.9 108.69 155.706 108.69 153C108.69 150.294 106.496 148.1 103.79 148.1C101.084 148.1 98.8901 150.294 98.8901 153C98.8901 155.706 101.084 157.9 103.79 157.9Z" fill="url(#paint10_radial)"/>
<path d="M80.08 207.44C80.05 203.31 79.3 194.95 74.9 188.02L70.79 190.63C74.77 196.91 75.21 204.33 75.18 207.57C75.18 207.84 77.68 208.03 80.08 207.44Z" fill="url(#paint11_linear)"/>
<path d="M58.8201 207.94C58.6601 203.82 59.0101 195.43 63.0701 188.3L67.3001 190.71C63.6201 197.18 63.5401 204.6 63.7201 207.84C63.7401 208.11 61.2501 208.42 58.8201 207.94Z" fill="url(#paint12_linear)"/>
<path d="M91.8701 177.43C93.4401 170.74 92.2001 165.45 92.2001 165.45L93.7701 165.41L93.8101 165.38C91.2801 153.22 80.3601 144.23 67.5001 144.53C53.0101 144.88 41.5501 156.9 41.9001 171.38C42.2501 185.86 54.2701 197.33 68.7501 196.98C80.1801 196.71 89.7301 189.16 93.0801 178.88C93.1701 178.45 93.1401 177.67 91.8701 177.43Z" fill="url(#paint13_radial)"/>
<path d="M91.1101 183.5L45.8201 184.58C46.8801 186.28 48.1201 187.85 49.5201 189.26L87.6301 188.35C88.9701 186.88 90.1401 185.25 91.1101 183.5Z" fill="#D8CFF7"/>
<path d="M77.3058 190.026L85.8032 189.824L85.6242 182.306L77.1268 182.508L77.3058 190.026Z" fill="#512BD4"/>
<path d="M78.71 187.19C78.65 187.19 78.6 187.17 78.56 187.14C78.52 187.1 78.5 187.06 78.5 187C78.5 186.95 78.52 186.9 78.56 186.86C78.6 186.82 78.65 186.8 78.7 186.8C78.76 186.8 78.81 186.82 78.85 186.85C78.89 186.89 78.91 186.93 78.91 186.99C78.91 187.04 78.89 187.09 78.85 187.13C78.82 187.17 78.77 187.19 78.71 187.19Z" fill="white"/>
<path d="M80.97 187.11L80.6 187.12L79.6 185.61C79.57 185.57 79.55 185.53 79.54 185.49H79.53C79.54 185.53 79.54 185.63 79.55 185.78L79.58 187.14L79.25 187.15L79.21 185.07L79.6 185.06L80.57 186.53C80.61 186.59 80.64 186.63 80.65 186.66H80.66C80.65 186.61 80.64 186.51 80.64 186.38L80.61 185.04L80.93 185.03L80.97 187.11Z" fill="white"/>
<path d="M82.5601 187.07L81.4201 187.09L81.3801 185.01L82.4701 184.99L82.4801 185.28L81.7201 185.3L81.7301 185.89L82.4301 185.88L82.4401 186.17L81.7401 186.18L81.7501 186.79L82.5501 186.77L82.5601 187.07Z" fill="white"/>
<path d="M84.1401 185.25L83.5601 185.26L83.6001 187.05L83.2601 187.06L83.2201 185.27L82.6401 185.28L82.6301 184.99L84.1301 184.96L84.1401 185.25Z" fill="white"/>
<path d="M91.9301 177.42C93.4901 170.81 92.2901 165.57 92.2601 165.45L65.0501 166.1C65.0501 166.1 63.3301 165.97 63.3701 167.53C63.4101 169.09 63.5801 173.52 63.6901 178.41C63.7101 179.42 64.5501 179.88 65.2001 179.87C65.2001 179.87 91.2701 178.53 91.9301 177.42Z" fill="url(#paint14_radial)"/>
<path d="M75.7 177.82C75.7 177.82 79.8099 174.41 80.6099 173.78C81.4099 173.15 82.1299 173.1 82.8899 173.73C83.6499 174.36 87.9199 177.54 87.9199 177.54L75.7 177.82Z" fill="#A08BE8"/>
<path d="M92.9802 179.22C92.9802 179.22 93.7302 177.77 91.9302 177.42C91.9302 177.41 65.1802 178.04 65.1802 178.04C64.5602 178.05 63.7502 177.7 63.6602 177.1C63.6702 177.53 63.6802 177.97 63.6902 178.41C63.7102 179.32 64.4002 179.79 65.0102 179.86C65.0702 179.87 65.1302 179.87 65.1902 179.87L67.0202 179.83L92.9802 179.22Z" fill="#512BD4"/>
<path d="M71.6938 175.371C72.8251 175.327 73.6824 173.749 73.6087 171.845C73.5349 169.941 72.5581 168.433 71.4268 168.477C70.2955 168.521 69.4382 170.1 69.5119 172.003C69.5857 173.907 70.5625 175.415 71.6938 175.371Z" fill="#512BD4"/>
<path d="M88.1244 174.987C89.2566 174.977 90.1606 173.424 90.1437 171.518C90.1267 169.613 89.1951 168.077 88.0629 168.087C86.9308 168.097 86.0267 169.65 86.0437 171.555C86.0606 173.46 86.9922 174.997 88.1244 174.987Z" fill="#512BD4"/>
<path d="M71.51 170.21C71.92 169.78 72.48 169.58 73.03 169.62C73.37 170.21 73.59 170.99 73.62 171.86C73.64 172.4 73.58 172.91 73.47 173.37C72.83 173.57 72.1 173.43 71.57 172.93C70.81 172.19 70.78 170.97 71.51 170.21Z" fill="#8065E0"/>
<path d="M88.02 169.7C88.43 169.27 88.99 169.07 89.54 169.11C89.9 169.73 90.13 170.57 90.14 171.51C90.14 171.99 90.09 172.44 89.99 172.86C89.34 173.07 88.61 172.92 88.08 172.42C87.32 171.68 87.29 170.47 88.02 169.7Z" fill="#8065E0"/>
<path d="M36.04 199.02C35.9 198.6 32.62 188.54 37.48 180.8C40.29 176.33 45.13 173.63 51.85 172.78L52.46 177.61C47.26 178.27 43.61 180.2 41.61 183.37C37.96 189.14 40.62 197.39 40.65 197.48L36.04 199.02Z" fill="url(#paint15_linear)"/>
<path d="M51.06 179.41C53.722 179.41 55.88 177.252 55.88 174.59C55.88 171.928 53.722 169.77 51.06 169.77C48.398 169.77 46.24 171.928 46.24 174.59C46.24 177.252 48.398 179.41 51.06 179.41Z" fill="url(#paint16_radial)"/>
<path d="M47.15 194.62L39.99 193.81C38.71 193.67 37.56 194.58 37.42 195.86C37.28 197.14 38.19 198.29 39.47 198.43L46.63 199.24C47.91 199.38 49.06 198.47 49.2 197.19C49.35 195.92 48.43 194.77 47.15 194.62Z" fill="#8A6FE8"/>
<path d="M34.6201 200.94L35.3801 205.73C35.5901 207 36.8001 207.86 38.0701 207.65C39.3401 207.44 40.2001 206.23 39.9901 204.96L39.2101 200.05L34.6201 200.94Z" fill="#8A6FE8"/>
<path d="M36.8301 202.34L40.5201 207.91C41.2401 208.98 42.6901 209.27 43.7601 208.56C44.8301 207.84 45.1201 206.39 44.4101 205.32L41.6801 201.17L36.8301 202.34Z" fill="#8A6FE8"/>
<path d="M38.74 200.22L43.6 204.81C44.54 205.7 46.02 205.66 46.91 204.72C47.8 203.78 47.76 202.3 46.82 201.41L41.87 196.73L38.74 200.22Z" fill="#8A6FE8"/>
<path d="M38.7701 203.59C41.4763 203.59 43.6701 201.396 43.6701 198.69C43.6701 195.984 41.4763 193.79 38.7701 193.79C36.0639 193.79 33.8701 195.984 33.8701 198.69C33.8701 201.396 36.0639 203.59 38.7701 203.59Z" fill="url(#paint17_radial)"/>
<path d="M64.9402 143.11L69.8402 142.97L68.8202 134.11L65.3002 134.2L64.9402 143.11Z" fill="#8A6FE8"/>
<path d="M68.03 137.64C66.26 138.15 64.4 137.14 63.88 135.38C63.36 133.62 64.37 131.79 66.14 131.28C67.91 130.77 69.77 131.78 70.29 133.54C70.82 135.3 69.8 137.13 68.03 137.64Z" fill="#D8CFF7"/>
<path d="M63.17 146.2C62.95 146.2 62.76 146.02 62.79 145.8C62.98 143.49 64.89 141.65 67.28 141.58C69.67 141.52 71.7 143.25 72.04 145.54C72.07 145.76 71.9 145.95 71.68 145.95L63.17 146.2Z" fill="#522CD5"/>
<path d="M123.75 115.75C123.16 112.99 120.45 111.23 117.69 111.82L4.34007 135.93C1.58007 136.52 -0.179935 139.23 0.410065 141.99L16.7101 219.15C17.1401 221.18 19.1401 222.48 21.1701 222.05L137.16 197.38C139.19 196.95 140.48 194.96 140.05 192.93L123.75 115.75ZM26.5101 214.94L10.6301 140.33L113.73 118.38L129.61 192.99L26.5101 214.94Z" fill="#605D5A"/>
<path d="M246.92 170.7L246.3 167.14C250.78 166.36 253.9 164.51 255.58 161.63C258.62 156.41 256.17 149.43 256.15 149.36L259.55 148.14C259.68 148.49 262.58 156.79 258.71 163.45C256.46 167.29 252.5 169.73 246.92 170.7Z" fill="#8A6FE8"/>
<path d="M250.32 150.37L255.38 153.4C256.11 153.84 257.06 153.6 257.5 152.87L257.73 152.49C258.17 151.76 257.93 150.81 257.2 150.37L252.14 147.34C251.41 146.9 250.46 147.14 250.02 147.87L249.79 148.25C249.36 148.98 249.59 149.93 250.32 150.37Z" fill="#8A6FE8"/>
<path d="M261.14 150.05L262.11 146.51C262.36 145.56 261.8 144.59 260.86 144.34C259.91 144.09 258.94 144.65 258.69 145.59L257.69 149.22L261.14 150.05Z" fill="#8A6FE8"/>
<path d="M260.06 148.39L259.26 143.39C259.1 142.42 258.19 141.77 257.22 141.93C256.25 142.09 255.6 143 255.76 143.97L256.34 147.69L260.06 148.39Z" fill="#8A6FE8"/>
<path d="M258.07 149.25L256.15 144.56C255.78 143.65 254.75 143.22 253.84 143.58C252.93 143.95 252.5 144.98 252.86 145.89L254.81 150.67L258.07 149.25Z" fill="#8A6FE8"/>
<path d="M257.57 154.01C259.619 154.01 261.28 152.349 261.28 150.3C261.28 148.251 259.619 146.59 257.57 146.59C255.521 146.59 253.86 148.251 253.86 150.3C253.86 152.349 255.521 154.01 257.57 154.01Z" fill="url(#paint18_radial)"/>
<path d="M237.02 191.7C237.55 188.62 238.11 182.28 235.76 176.52L232.34 177.92C234.47 183.14 233.8 188.73 233.35 191.14C233.31 191.34 235.15 191.82 237.02 191.7Z" fill="url(#paint19_linear)"/>
<path d="M221.09 189.23C221.52 186.13 222.9 179.92 226.89 175.15L229.73 177.51C226.12 181.84 225.06 187.37 224.77 189.81C224.74 190.01 222.84 189.91 221.09 189.23Z" fill="url(#paint20_linear)"/>
<path d="M249.84 170.89C251.91 166.11 251.69 162 251.69 162L252.86 162.18L252.89 162.16C252.63 152.75 245.69 144.58 236.06 143.09C229.61 142.09 223.4 144.31 219.07 148.56C218.87 154.5 219.57 173.97 219.5 177.33C222.31 179.93 225.9 181.76 229.97 182.39C238.53 183.72 246.67 179.37 250.54 172.14C250.67 171.83 250.75 171.24 249.84 170.89Z" fill="url(#paint21_radial)"/>
<path d="M248.45 175.32L219.07 170.77L219.05 174.42L245.2 178.47C246.4 177.55 247.49 176.5 248.45 175.32Z" fill="#D8CFF7"/>
<path d="M237.293 178.33L243.657 179.316L244.53 173.684L238.166 172.697L237.293 178.33Z" fill="#512BD4"/>
<path d="M238.71 176.41C238.67 176.4 238.63 176.38 238.61 176.35C238.58 176.32 238.58 176.28 238.58 176.24C238.59 176.2 238.61 176.17 238.64 176.14C238.67 176.12 238.71 176.11 238.75 176.11C238.79 176.12 238.83 176.14 238.85 176.17C238.88 176.2 238.89 176.24 238.88 176.28C238.87 176.32 238.85 176.35 238.82 176.38C238.79 176.41 238.76 176.42 238.71 176.41Z" fill="white"/>
<path d="M240.41 176.65L240.13 176.61L239.59 175.35C239.58 175.32 239.57 175.29 239.56 175.25H239.55C239.55 175.28 239.54 175.36 239.52 175.47L239.36 176.49L239.12 176.45L239.37 174.89L239.66 174.94L240.18 176.17C240.2 176.22 240.22 176.26 240.22 176.27C240.22 176.23 240.23 176.16 240.24 176.06L240.4 175.06L240.64 175.1L240.41 176.65Z" fill="white"/>
<path d="M241.59 176.84L240.74 176.71L240.99 175.15L241.81 175.28L241.78 175.5L241.21 175.41L241.14 175.85L241.66 175.93L241.63 176.15L241.11 176.07L241.04 176.53L241.64 176.62L241.59 176.84Z" fill="white"/>
<path d="M243.02 175.7L242.58 175.63L242.37 176.97L242.12 176.93L242.33 175.59L241.89 175.52L241.92 175.3L243.04 175.48L243.02 175.7Z" fill="white"/>
<path d="M249.88 170.9C251.93 166.18 251.74 162.11 251.73 162.01L231.34 158.85C231.34 158.85 230.08 158.52 229.89 159.69C229.71 160.86 229.24 164.19 228.67 167.85C228.55 168.6 229.11 169.06 229.6 169.14C229.61 169.14 249.24 171.63 249.88 170.9Z" fill="url(#paint22_radial)"/>
<path d="M237.71 169.02C237.71 169.02 241.23 167.02 241.91 166.66C242.59 166.3 243.13 166.35 243.62 166.92C244.11 167.49 246.86 170.43 246.86 170.43L237.71 169.02Z" fill="#A08BE8"/>
<path d="M250.42 172.38C250.42 172.38 251.17 171.4 249.88 170.9C249.88 170.89 229.84 167.78 229.84 167.78C229.37 167.71 228.82 167.34 228.83 166.88C228.78 167.2 228.73 167.53 228.68 167.86C228.57 168.54 229.03 168.98 229.47 169.12C229.51 169.13 229.56 169.14 229.61 169.15L230.98 169.36L250.42 172.38Z" fill="#512BD4"/>
<path d="M236.968 164.286C237.168 162.853 236.639 161.595 235.785 161.476C234.932 161.356 234.078 162.422 233.878 163.855C233.677 165.288 234.207 166.546 235.06 166.665C235.913 166.785 236.768 165.72 236.968 164.286Z" fill="#512BD4"/>
<path d="M249.341 166.25C249.584 164.823 249.092 163.55 248.243 163.405C247.393 163.26 246.508 164.299 246.265 165.726C246.022 167.152 246.513 168.426 247.363 168.571C248.212 168.715 249.098 167.676 249.341 166.25Z" fill="#512BD4"/>
<path d="M235.61 162.78C235.97 162.51 236.42 162.44 236.82 162.54C236.99 163.03 237.05 163.64 236.96 164.29C236.9 164.69 236.79 165.07 236.65 165.4C236.14 165.46 235.62 165.26 235.3 164.82C234.82 164.16 234.96 163.25 235.61 162.78Z" fill="#8065E0"/>
<path d="M247.99 164.61C248.35 164.34 248.8 164.27 249.2 164.37C249.39 164.88 249.45 165.54 249.33 166.24C249.27 166.6 249.17 166.93 249.04 167.22C248.53 167.29 248 167.08 247.68 166.64C247.21 166 247.35 165.09 247.99 164.61Z" fill="#8065E0"/>
<path d="M234.34 141.68L238.01 142.23L238.44 135.49L235.8 135.09L234.34 141.68Z" fill="#8A6FE8"/>
<path d="M237.38 138.02C235.99 138.16 234.74 137.16 234.58 135.78C234.43 134.4 235.43 133.17 236.82 133.03C238.21 132.89 239.46 133.89 239.62 135.27C239.77 136.64 238.77 137.88 237.38 138.02Z" fill="#D8CFF7"/>
<path d="M232.6 143.75C232.44 143.72 232.32 143.56 232.37 143.4C232.82 141.7 234.49 140.58 236.28 140.86C238.08 141.13 239.36 142.7 239.3 144.45C239.29 144.62 239.14 144.74 238.98 144.71L232.6 143.75Z" fill="#522CD5"/>
<path d="M264.89 189.56V115.05C264.88 111.22 261.35 108.25 257.52 108.26L223.25 108.36C219.42 108.37 216.32 111.49 216.33 115.32L216.55 189.7C216.56 193.53 219.68 196.63 223.51 196.62L257.78 196.52C261.61 196.5 264.9 193.39 264.89 189.56ZM222.55 189.66L222.1 114.94L258.97 114.83L259.05 189.66H222.55Z" fill="#605D5A"/>
<defs>
<radialGradient id="paint0_radial" cx="0" cy="0" r="1" gradientUnits="userSpaceOnUse" gradientTransform="translate(223.99 58.7497) rotate(11.3212) scale(8.05945)">
<stop stop-color="#8065E0"/>
<stop offset="1" stop-color="#512BD4"/>
</radialGradient>
<linearGradient id="paint1_linear" x1="161.881" y1="108.554" x2="162.19" y2="141.62" gradientUnits="userSpaceOnUse">
<stop offset="0.252" stop-color="#522CD5"/>
<stop offset="0.5558" stop-color="#8A6FE8"/>
</linearGradient>
<linearGradient id="paint2_linear" x1="147.417" y1="105.709" x2="134.68" y2="136.222" gradientUnits="userSpaceOnUse">
<stop offset="0.258" stop-color="#522CD5"/>
<stop offset="0.5602" stop-color="#8A6FE8"/>
</linearGradient>
<radialGradient id="paint3_radial" cx="0" cy="0" r="1" gradientUnits="userSpaceOnUse" gradientTransform="translate(172.237 64.1569) rotate(-168.936) scale(43.0164)">
<stop offset="0.4744" stop-color="#A08BE8"/>
<stop offset="0.8618" stop-color="#8065E0"/>
</radialGradient>
<radialGradient id="paint4_radial" cx="0" cy="0" r="1" gradientUnits="userSpaceOnUse" gradientTransform="translate(200.572 71.3287) rotate(-168.936) scale(44.5788)">
<stop offset="0.0933" stop-color="#E1DFDD"/>
<stop offset="0.6573" stop-color="white"/>
</radialGradient>
<linearGradient id="paint5_linear" x1="119.068" y1="73.1363" x2="110.688" y2="114.994" gradientUnits="userSpaceOnUse">
<stop offset="0.2495" stop-color="#967FE6"/>
<stop offset="1" stop-color="#8A6FE8"/>
</linearGradient>
<radialGradient id="paint6_radial" cx="0" cy="0" r="1" gradientUnits="userSpaceOnUse" gradientTransform="translate(129.833 75.585) rotate(11.0638) scale(7.93349)">
<stop stop-color="#8065E0"/>
<stop offset="1" stop-color="#512BD4"/>
</radialGradient>
<radialGradient id="paint7_radial" cx="0" cy="0" r="1" gradientUnits="userSpaceOnUse" gradientTransform="translate(102.912 109.709) rotate(11.3212) scale(8.06095)">
<stop stop-color="#8065E0"/>
<stop offset="1" stop-color="#512BD4"/>
</radialGradient>
<radialGradient id="paint8_radial" cx="0" cy="0" r="1" gradientUnits="userSpaceOnUse" gradientTransform="translate(191.388 128.639) scale(65.3144)">
<stop stop-color="#969696"/>
<stop offset="1" stop-color="#505050"/>
</radialGradient>
<radialGradient id="paint9_radial" cx="0" cy="0" r="1" gradientUnits="userSpaceOnUse" gradientTransform="translate(85.7107 158.217) scale(91.1954)">
<stop stop-color="#969696"/>
<stop offset="1" stop-color="#505050"/>
</radialGradient>
<radialGradient id="paint10_radial" cx="0" cy="0" r="1" gradientUnits="userSpaceOnUse" gradientTransform="translate(103.789 150.696) rotate(-1.10589) scale(4.89523)">
<stop stop-color="#8065E0"/>
<stop offset="1" stop-color="#512BD4"/>
</radialGradient>
<linearGradient id="paint11_linear" x1="73.5375" y1="188.343" x2="78.0421" y2="207.914" gradientUnits="userSpaceOnUse">
<stop offset="0.252" stop-color="#522CD5"/>
<stop offset="0.5558" stop-color="#8A6FE8"/>
</linearGradient>
<linearGradient id="paint12_linear" x1="64.5009" y1="188.57" x2="60.9341" y2="208.334" gradientUnits="userSpaceOnUse">
<stop offset="0.258" stop-color="#522CD5"/>
<stop offset="0.5602" stop-color="#8A6FE8"/>
</linearGradient>
<radialGradient id="paint13_radial" cx="0" cy="0" r="1" gradientUnits="userSpaceOnUse" gradientTransform="translate(73.7777 160.666) rotate(178.636) scale(26.1266)">
<stop offset="0.4744" stop-color="#A08BE8"/>
<stop offset="0.8618" stop-color="#8065E0"/>
</radialGradient>
<radialGradient id="paint14_radial" cx="0" cy="0" r="1" gradientUnits="userSpaceOnUse" gradientTransform="translate(91.5217 161.216) rotate(178.636) scale(27.0754)">
<stop offset="0.0933" stop-color="#E1DFDD"/>
<stop offset="0.6573" stop-color="white"/>
</radialGradient>
<linearGradient id="paint15_linear" x1="43.4346" y1="172.943" x2="43.935" y2="198.867" gradientUnits="userSpaceOnUse">
<stop offset="0.2495" stop-color="#967FE6"/>
<stop offset="1" stop-color="#8A6FE8"/>
</linearGradient>
<radialGradient id="paint16_radial" cx="0" cy="0" r="1" gradientUnits="userSpaceOnUse" gradientTransform="translate(50.1308 172.986) rotate(-1.36379) scale(4.81852)">
<stop stop-color="#8065E0"/>
<stop offset="1" stop-color="#512BD4"/>
</radialGradient>
<radialGradient id="paint17_radial" cx="0" cy="0" r="1" gradientUnits="userSpaceOnUse" gradientTransform="translate(38.6321 196.748) rotate(-1.10589) scale(4.89613)">
<stop stop-color="#8065E0"/>
<stop offset="1" stop-color="#512BD4"/>
</radialGradient>
<radialGradient id="paint18_radial" cx="0" cy="0" r="1" gradientUnits="userSpaceOnUse" gradientTransform="translate(257.348 148.563) rotate(-8.89907) scale(3.71053)">
<stop stop-color="#8065E0"/>
<stop offset="1" stop-color="#512BD4"/>
</radialGradient>
<linearGradient id="paint19_linear" x1="234.696" y1="176.541" x2="235.436" y2="191.745" gradientUnits="userSpaceOnUse">
<stop offset="0.252" stop-color="#522CD5"/>
<stop offset="0.5558" stop-color="#8A6FE8"/>
</linearGradient>
<linearGradient id="paint20_linear" x1="227.916" y1="175.505" x2="222.608" y2="189.771" gradientUnits="userSpaceOnUse">
<stop offset="0.258" stop-color="#522CD5"/>
<stop offset="0.5602" stop-color="#8A6FE8"/>
</linearGradient>
<radialGradient id="paint21_radial" cx="0" cy="0" r="1" gradientUnits="userSpaceOnUse" gradientTransform="translate(240.08 156.244) rotate(-171.188) scale(18.9577)">
<stop offset="0.4744" stop-color="#A08BE8"/>
<stop offset="0.8618" stop-color="#8065E0"/>
</radialGradient>
<radialGradient id="paint22_radial" cx="0" cy="0" r="1" gradientUnits="userSpaceOnUse" gradientTransform="translate(251.758 158.8) rotate(-171.188) scale(20.5225)">
<stop offset="0.0933" stop-color="#E1DFDD"/>
<stop offset="0.6573" stop-color="white"/>
</radialGradient>
</defs>
</svg>
