<svg width="260" height="256" viewBox="0 0 260 256" fill="none" xmlns="http://www.w3.org/2000/svg">
<path d="M77.5002 119.379L76.7902 120.459L119.94 148.899L120.65 147.819L77.5002 119.379Z" fill="#C8C6C4"/>
<path d="M71.7902 110.499V131.379L89.8602 119.549L89.7402 98.709L71.7902 110.499Z" fill="#3E8EED"/>
<path d="M71.79 110.529V131.299L54.51 119.899L54.39 98.9287L71.79 110.529Z" fill="#72ACF1"/>
<path d="M67.8601 113.099V122.209C67.8601 122.309 67.8301 122.399 67.7801 122.479C67.7301 122.559 67.6601 122.629 67.5801 122.679C67.5001 122.729 67.4001 122.749 67.3101 122.739C67.2101 122.739 67.1201 122.709 67.0401 122.649L59.4601 117.649C59.3901 117.599 59.3301 117.539 59.2901 117.459C59.2501 117.379 59.2301 117.299 59.2301 117.209L59.1801 108.009C59.1801 107.909 59.2101 107.819 59.2501 107.739C59.3001 107.659 59.3701 107.589 59.4501 107.539C59.5301 107.489 59.6301 107.469 59.7301 107.479C59.8301 107.479 59.9201 107.519 60.0001 107.569L67.6401 112.659C67.7101 112.709 67.7701 112.769 67.8101 112.849C67.8401 112.929 67.8601 113.009 67.8601 113.099Z" fill="#3E8EED"/>
<path d="M71.75 110.559L89.7 98.7188L72.44 87.3088L54.39 98.9088L71.75 110.559Z" fill="#7BC0EF"/>
<path d="M61.2601 113.429C61.3601 113.519 61.4301 113.639 61.4801 113.759C61.5301 113.879 61.5501 114.019 61.5401 114.149C61.5301 114.279 61.5001 114.409 61.4401 114.529C61.3801 114.649 61.2901 114.749 61.1901 114.839L56.6601 117.739C56.4001 117.859 56.1101 117.889 55.8401 117.819C55.5701 117.749 55.3201 117.579 55.1601 117.339C55.0701 117.249 54.9901 117.129 54.9401 117.009C54.8901 116.889 54.8701 116.749 54.8801 116.619C54.8901 116.489 54.9201 116.359 54.9801 116.239C55.0401 116.119 55.1301 116.019 55.2301 115.929L59.7601 113.029C60.0201 112.909 60.3101 112.879 60.5801 112.949C60.8501 113.019 61.0901 113.189 61.2601 113.429Z" fill="#A7CBF6"/>
<path d="M66.4102 116.229C66.5002 116.319 66.5802 116.439 66.6302 116.559C66.6802 116.679 66.7002 116.819 66.6902 116.949C66.6802 117.079 66.6502 117.209 66.5902 117.329C66.5302 117.449 66.4402 117.549 66.3402 117.639L61.8102 120.539C61.5502 120.659 61.2602 120.689 60.9902 120.619C60.7202 120.549 60.4702 120.379 60.3102 120.139C60.2102 120.049 60.1402 119.929 60.0902 119.809C60.0402 119.689 60.0202 119.549 60.0302 119.419C60.0402 119.289 60.0702 119.159 60.1302 119.039C60.1902 118.919 60.2802 118.819 60.3802 118.729L64.9102 115.829C65.1702 115.709 65.4602 115.679 65.7302 115.749C66.0102 115.819 66.2502 115.989 66.4102 116.229Z" fill="#A7CBF6"/>
<path d="M157.15 68.3388L149.59 66.2688C146.98 75.7988 142.32 82.1588 135.75 85.1888C123.84 90.6788 109.24 83.9288 109.09 83.8588L105.75 90.9488C106.48 91.2888 123.83 99.2988 139.03 92.2988C147.8 88.2588 153.9 80.1988 157.15 68.3388Z" fill="#8A6FE8"/>
<path d="M109.8 70.419L117.54 80.049C118.78 81.589 118.53 83.849 116.99 85.089L116.61 85.399C115.07 86.639 112.81 86.389 111.57 84.849L103.83 75.219C102.59 73.679 102.84 71.419 104.38 70.179L104.76 69.869C106.3 68.639 108.56 68.879 109.8 70.419Z" fill="#8A6FE8"/>
<path d="M112.2 93.619L104.87 96.769C102.91 97.599 100.65 96.679 99.8302 94.719C99.0002 92.759 99.9203 90.499 101.88 89.679L109.4 86.449L112.2 93.619Z" fill="#8A6FE8"/>
<path d="M108.3 91.779L97.3 91.549C95.17 91.499 93.49 89.729 93.55 87.599C93.6 85.469 95.37 83.789 97.5 83.849L105.68 83.999L108.3 91.779Z" fill="#8A6FE8"/>
<path d="M109.57 87.249L98.9001 84.519C96.8401 83.999 95.5901 81.899 96.1101 79.839C96.6301 77.779 98.7301 76.529 100.79 77.049L111.66 79.829L109.57 87.249Z" fill="#8A6FE8"/>
<path d="M111.66 93.9088C116.112 93.9088 119.72 90.3002 119.72 85.8488C119.72 81.3974 116.112 77.7888 111.66 77.7888C107.209 77.7888 103.6 81.3974 103.6 85.8488C103.6 90.3002 107.209 93.9088 111.66 93.9088Z" fill="url(#paint0_radial)"/>
<path d="M162.95 126.729C161.33 119.939 159.16 106.149 163.55 94.6289L171.36 98.8189C167.38 109.269 169.68 121.489 171.04 126.819C171.16 127.259 167.13 127.649 162.95 126.729Z" fill="url(#paint1_linear)"/>
<path d="M171.02 126.739L164.66 126.689L166.46 160.619L167.54 160.439L177.55 154.229C178.7 153.639 178.85 152.719 178.56 151.749L171.02 126.739Z" fill="#522CD5"/>
<path d="M150.83 151.649C149.93 152.509 150.23 153.769 150.62 155.099L151.81 159.169C152.02 159.899 152.79 160.499 153.52 160.499L166.82 160.599C167.65 160.609 168.12 159.939 167.88 159.119L166.83 154.899C166.38 153.369 166.77 152.809 167.63 151.369C169.1 148.909 172.05 135.479 169.49 126.729L162.94 126.679C163.69 131.879 159.46 143.399 150.83 151.649Z" fill="url(#paint2_linear)"/>
<path d="M150.62 155.099C150.35 154.169 150.13 153.279 150.32 152.529L166.91 152.659C166.61 153.329 166.55 153.919 166.83 154.899L167.88 159.119C168.12 159.949 167.65 160.609 166.82 160.599L153.52 160.499C152.79 160.489 152.02 159.889 151.81 159.169L150.62 155.099Z" fill="url(#paint3_radial)"/>
<path d="M197.19 124.759C195.78 117.969 191.8 104.169 182.24 92.5388L176.28 96.6188C184.95 107.169 188.1 119.389 189.11 124.719C189.2 125.169 193.41 125.619 197.19 124.759Z" fill="url(#paint4_linear)"/>
<path d="M210.37 152.159C210.17 151.249 209.86 150.459 209.17 149.129C199.55 132.909 197.19 124.729 197.19 124.729L189.09 124.669C189.09 124.669 190.36 132.679 187.96 148.819C187.74 149.969 187.93 151.019 188.08 151.989L189.23 157.169C189.4 157.949 190.19 158.599 190.97 158.599H191.36L210.04 158.739H210.43C211.22 158.749 211.71 158.109 211.54 157.329L210.37 152.159Z" fill="url(#paint5_linear)"/>
<path d="M210.37 152.159C210.34 152.009 210.3 151.869 210.26 151.729C210.12 151.279 209.79 150.769 208.8 150.759L188.82 150.609C188.11 150.629 187.99 151.179 188 151.529C188.02 151.679 188.05 151.839 188.07 151.989L189.22 157.169C189.33 157.659 189.68 158.089 190.11 158.349C190.37 158.509 190.67 158.599 190.96 158.599H191.35L210.03 158.739H210.42C210.81 158.739 211.13 158.589 211.33 158.329C211.53 158.069 211.61 157.719 211.52 157.329L210.37 152.159Z" fill="url(#paint6_radial)"/>
<path d="M136.99 81.4188C132.8 70.8988 133.55 61.9888 133.55 61.9888L130.99 62.3088L130.92 62.2688C132.1 41.8588 147.7 24.5588 168.71 21.9488C192.38 18.9988 213.96 35.7988 216.91 59.4788C219.86 83.1588 203.06 104.729 179.38 107.679C160.7 110.009 143.33 100.029 135.38 84.0888C135.13 83.3988 134.98 82.1288 136.99 81.4188Z" fill="url(#paint7_radial)"/>
<path d="M139.7 91.1287L213.71 81.9087C212.4 84.9387 210.75 87.7887 208.81 90.4287L146.53 98.1887C144.01 96.1087 141.71 93.7487 139.7 91.1287Z" fill="#D8CFF7"/>
<path d="M149.994 100.234L163.858 98.2878L162.137 86.0279L148.273 87.9739L149.994 100.234Z" fill="#512BD4"/>
<path d="M151.77 95.3285C151.68 95.3385 151.6 95.3185 151.52 95.2685C151.45 95.2185 151.4 95.1485 151.39 95.0585C151.38 94.9685 151.4 94.8885 151.46 94.8185C151.52 94.7485 151.59 94.7085 151.68 94.6885C151.77 94.6785 151.86 94.6985 151.93 94.7485C152 94.7985 152.05 94.8785 152.06 94.9585C152.07 95.0485 152.05 95.1285 151.99 95.1985C151.94 95.2685 151.87 95.3085 151.77 95.3285Z" fill="white"/>
<path d="M155.45 94.7687L154.85 94.8487L152.93 92.5787C152.88 92.5187 152.84 92.4587 152.8 92.3987H152.79C152.81 92.4687 152.84 92.6287 152.87 92.8587L153.18 95.0787L152.65 95.1487L152.18 91.7587L152.82 91.6687L154.68 93.8887C154.76 93.9787 154.81 94.0487 154.83 94.0787H154.84C154.81 93.9887 154.78 93.8387 154.75 93.6287L154.45 91.4487L154.98 91.3787L155.45 94.7687Z" fill="white"/>
<path d="M158.04 94.4086L156.18 94.6686L155.71 91.2786L157.49 91.0286L157.56 91.5086L156.33 91.6786L156.46 92.6386L157.6 92.4786L157.67 92.9586L156.53 93.1186L156.67 94.1186L157.98 93.9386L158.04 94.4086Z" fill="white"/>
<path d="M160.27 91.1287L159.32 91.2587L159.72 94.1687L159.17 94.2487L158.77 91.3387L157.82 91.4687L157.75 90.9887L160.2 90.6487L160.27 91.1287Z" fill="white"/>
<path d="M136.9 81.4289C132.76 71.0389 133.44 62.2289 133.46 62.0089L177.93 56.4689C177.93 56.4689 180.7 55.8389 181.02 58.3989C181.34 60.9589 182.13 68.1989 183.13 76.1989C183.33 77.8389 182.09 78.8089 181.03 78.9389C181.02 78.9389 138.24 83.0689 136.9 81.4289Z" fill="url(#paint8_radial)"/>
<path d="M163.43 78.1489C163.43 78.1489 155.92 73.5889 154.46 72.7489C153 71.9189 151.83 72.0089 150.73 73.2089C149.64 74.4189 143.46 80.6289 143.46 80.6289L163.43 78.1489Z" fill="#A08BE8"/>
<path d="M135.63 84.6088C135.63 84.6088 134.06 82.4288 136.9 81.4288C136.9 81.4188 180.62 75.9488 180.62 75.9488C181.64 75.8188 182.87 75.0488 182.86 74.0488C182.95 74.7588 183.03 75.4688 183.12 76.1988C183.31 77.6888 182.3 78.6188 181.32 78.8788C181.22 78.8988 181.12 78.9288 181.02 78.9388L178.03 79.3088L135.63 84.6088Z" fill="#512BD4"/>
<path d="M169.356 73.2028C171.212 72.9997 172.439 70.3071 172.098 67.1886C171.757 64.0701 169.976 61.7067 168.12 61.9098C166.264 62.1129 165.037 64.8056 165.378 67.9241C165.719 71.0425 167.5 73.4059 169.356 73.2028Z" fill="#512BD4"/>
<path d="M142.521 76.5229C144.37 76.2645 145.516 73.5365 145.082 70.4296C144.648 67.3228 142.797 65.0136 140.949 65.272C139.1 65.5303 137.953 68.2584 138.387 71.3652C138.821 74.4721 140.672 76.7813 142.521 76.5229Z" fill="#512BD4"/>
<path d="M168.41 64.7291C167.64 64.1291 166.68 63.9391 165.8 64.1391C165.4 65.1891 165.23 66.5091 165.38 67.9291C165.48 68.8091 165.69 69.6291 165.99 70.3491C167.09 70.5191 168.24 70.1091 168.97 69.1691C170.03 67.7891 169.78 65.7991 168.41 64.7291Z" fill="#8065E0"/>
<path d="M141.4 67.909C140.63 67.309 139.67 67.119 138.78 67.319C138.34 68.409 138.17 69.849 138.38 71.369C138.49 72.149 138.69 72.879 138.95 73.529C140.05 73.709 141.22 73.299 141.95 72.349C143.02 70.969 142.77 68.979 141.4 67.909Z" fill="#8065E0"/>
<path d="M233.15 103.069C233.28 102.349 236.18 85.179 226.38 73.749C220.72 67.149 212.19 63.929 201.03 64.179L201.21 72.199C209.83 72.009 216.25 74.279 220.27 78.949C227.6 87.459 225.28 101.549 225.25 101.689L233.15 103.069Z" fill="url(#paint9_linear)"/>
<path d="M202.77 74.8488C207.15 74.8488 210.7 71.2984 210.7 66.9188C210.7 62.5391 207.15 58.9888 202.77 58.9888C198.391 58.9888 194.84 62.5391 194.84 66.9188C194.84 71.2984 198.391 74.8488 202.77 74.8488Z" fill="url(#paint10_radial)"/>
<path d="M172.53 19.0089L164.52 19.9789L164.03 5.29888L169.78 4.59888L172.53 19.0089Z" fill="#8A6FE8"/>
<path d="M166.18 10.8589C169.19 11.2589 171.97 9.15886 172.4 6.17886C172.83 3.18886 170.73 0.448863 167.72 0.0488635C164.71 -0.351137 161.93 1.74886 161.5 4.72886C161.07 7.71886 163.17 10.4589 166.18 10.8589Z" fill="#D8CFF7"/>
<path d="M176.17 23.6089C176.53 23.5589 176.79 23.2189 176.7 22.8689C175.84 19.1589 172.28 16.6189 168.36 17.0889C164.44 17.5589 161.56 20.8789 161.57 24.6889C161.57 25.0489 161.9 25.3189 162.25 25.2789L176.17 23.6089Z" fill="#522CD5"/>
<path d="M97.1302 75.6188L97.0602 96.4588L115.13 84.6288L115.01 63.7888L97.1302 75.6188Z" fill="#F7B548"/>
<path d="M97.17 75.739L97.04 96.529L79.77 85.309L79.65 63.999L97.17 75.739Z" fill="#FFD590"/>
<path d="M97.17 75.6989L114.92 63.9289L97.78 52.6089L79.66 63.9989L97.17 75.6989Z" fill="#FFE5B9"/>
<path d="M122.32 198.209L57.3002 155.129L39.3002 166.539L38.6102 165.449L57.3202 153.589L123.04 197.129L122.32 198.209Z" fill="#C8C6C4"/>
<path d="M47.1901 237.209L46.4801 236.129L78.8101 215.019L107.46 233.759L162.49 196.829L163.21 197.899L107.47 235.309L78.8101 216.559L47.1901 237.209Z" fill="#C8C6C4"/>
<path d="M229.39 148.479L182.06 179.519L182.77 180.599L230.1 149.559L229.39 148.479Z" fill="#C8C6C4"/>
<path d="M229.19 221.319L181.13 189.979L181.83 188.899L229.19 219.789V221.319Z" fill="#C8C6C4"/>
<path d="M144.83 157.899V178.779L162.9 166.949L162.78 146.109L144.83 157.899Z" fill="#969696"/>
<path d="M145.24 157.959L162.87 146.249L145.72 134.939L127.97 146.449L145.24 157.959Z" fill="#E5E5E1"/>
<path d="M127.55 189.569V210.449L145.62 198.619L145.6 178.169L127.55 189.569Z" fill="#969696"/>
<path d="M127.63 189.629L145.26 177.919L128.11 166.609L110.36 178.119L127.63 189.629Z" fill="#C2C2C2"/>
<path d="M180.18 177.809L180.19 198.749L198.26 186.919L198.14 166.079L180.18 177.809Z" fill="#969696"/>
<path d="M180.18 177.779L198.14 166.069L180.72 154.899L162.85 166.679L180.18 177.779Z" fill="#E5E5E1"/>
<path d="M127.55 169.459V190.339L145.62 178.339L145.5 157.669L127.55 169.459Z" fill="#F7B548"/>
<path d="M127.55 169.479V190.249L110.26 178.849L110.14 157.879L127.55 169.479Z" fill="#FFD590"/>
<path d="M127.61 169.519L145.24 157.809L128.09 146.499L110.34 157.999L127.61 169.519Z" fill="#B2B2B2"/>
<path d="M127.55 149.069V169.949L145.62 158.119L145.5 137.279L127.55 149.069Z" fill="#28C2D1"/>
<path d="M127.55 149.089V169.859L110.26 158.459L110.14 137.489L127.55 149.089Z" fill="#7BDDEF"/>
<path d="M123.62 151.669V160.779C123.62 160.879 123.59 160.969 123.54 161.049C123.49 161.129 123.42 161.199 123.34 161.249C123.26 161.299 123.16 161.319 123.07 161.309C122.97 161.309 122.88 161.279 122.8 161.219L115.22 156.219C115.15 156.169 115.09 156.109 115.05 156.029C115.01 155.949 114.99 155.869 114.99 155.779L114.94 146.579C114.94 146.479 114.96 146.389 115.01 146.309C115.06 146.229 115.13 146.159 115.21 146.109C115.29 146.059 115.39 146.039 115.49 146.049C115.59 146.049 115.68 146.089 115.76 146.139L123.4 151.229C123.47 151.279 123.53 151.339 123.57 151.419C123.6 151.499 123.62 151.579 123.62 151.669Z" fill="#28C2D1"/>
<path d="M110.26 201.229V222.109L127.66 210.339L127.54 190.269L110.26 201.229Z" fill="#3E8EED"/>
<path d="M110.26 201.259V222.029L92.9802 210.629L92.8602 189.659L110.26 201.259Z" fill="#72ACF1"/>
<path d="M110.07 201.289L127.66 190.259L110.28 178.839L92.8002 189.769L110.07 201.289Z" fill="#A7CBF6"/>
<path d="M162.12 189.479L162.89 210.259L180.19 198.729L180.18 177.779L162.12 189.479Z" fill="#3E8EED"/>
<path d="M162.9 189.509V210.279L145.62 198.879L145.6 178.329L162.9 189.509Z" fill="#72ACF1"/>
<path d="M162.84 189.789L180.22 177.829L162.91 166.649L145.57 178.309L162.84 189.789Z" fill="#A7CBF6"/>
<path d="M163.11 182.079L169.95 177.539C170.05 177.479 170.13 177.389 170.18 177.289C170.23 177.189 170.26 177.069 170.26 176.959C170.26 176.839 170.23 176.729 170.18 176.629C170.12 176.529 170.05 176.439 169.95 176.379L163.33 172.009C163.22 171.939 163.08 171.899 162.95 171.899C162.82 171.899 162.68 171.939 162.57 172.009L155.69 176.479C155.59 176.539 155.51 176.629 155.46 176.729C155.4 176.829 155.37 176.949 155.37 177.059C155.37 177.179 155.4 177.289 155.45 177.389C155.5 177.489 155.58 177.579 155.68 177.639L162.35 182.089C162.46 182.169 162.6 182.209 162.74 182.209C162.86 182.199 162.99 182.159 163.11 182.079Z" fill="#3E8EED"/>
<path d="M116.97 151.829C117.06 151.919 117.14 152.039 117.19 152.159C117.24 152.279 117.26 152.419 117.25 152.549C117.24 152.679 117.21 152.809 117.15 152.929C117.09 153.049 117 153.149 116.9 153.239L112.37 156.139C112.11 156.259 111.82 156.289 111.55 156.219C111.28 156.149 111.04 155.979 110.87 155.739C110.78 155.649 110.7 155.529 110.65 155.409C110.6 155.289 110.58 155.149 110.59 155.019C110.6 154.889 110.63 154.759 110.69 154.639C110.75 154.519 110.84 154.419 110.94 154.329L115.47 151.429C115.73 151.309 116.02 151.279 116.29 151.349C116.57 151.429 116.81 151.599 116.97 151.829Z" fill="#C3F2F4"/>
<path d="M122.13 154.629C122.22 154.719 122.3 154.839 122.35 154.959C122.4 155.079 122.42 155.219 122.41 155.349C122.4 155.479 122.37 155.609 122.31 155.729C122.25 155.849 122.16 155.949 122.06 156.029L117.53 158.929C117.27 159.049 116.98 159.079 116.71 159.009C116.44 158.939 116.19 158.769 116.03 158.529C115.93 158.439 115.86 158.319 115.81 158.199C115.76 158.079 115.74 157.939 115.75 157.809C115.76 157.679 115.79 157.549 115.85 157.429C115.91 157.309 116 157.209 116.1 157.119L120.63 154.219C120.89 154.099 121.18 154.069 121.46 154.139C121.72 154.229 121.96 154.399 122.13 154.629Z" fill="#C3F2F4"/>
<path d="M17.9201 148.789L18.1201 169.849L0.840093 158.449L0.720093 137.479L17.9201 148.789Z" fill="#BEBEBC"/>
<path d="M17.8801 148.809L35.7501 137.399L18.6001 126.089L0.700073 137.489L17.8801 148.809Z" fill="#E5E5E1"/>
<path d="M34.9601 160.339V181.219L53.0301 169.389L52.9101 148.549L34.9601 160.339Z" fill="#3E8EED"/>
<path d="M35.1202 160.289L52.9002 148.559L35.6102 137.259L17.8602 148.779L35.1202 160.289Z" fill="#A7CBF6"/>
<path d="M35.1002 153.359L41.9402 148.819C42.0402 148.759 42.1202 148.669 42.1702 148.569C42.2302 148.469 42.2502 148.349 42.2502 148.239C42.2502 148.119 42.2202 148.009 42.1702 147.909C42.1202 147.809 42.0402 147.719 41.9402 147.659L35.3202 143.289C35.2102 143.219 35.0702 143.179 34.9402 143.179C34.8102 143.179 34.6702 143.219 34.5602 143.289L27.6702 147.759C27.5702 147.819 27.4902 147.909 27.4402 148.009C27.3802 148.109 27.3502 148.229 27.3502 148.339C27.3502 148.459 27.3802 148.569 27.4302 148.669C27.4902 148.769 27.5602 148.859 27.6602 148.919L34.3302 153.369C34.4402 153.449 34.5802 153.489 34.7202 153.489C34.8602 153.479 34.9902 153.439 35.1002 153.359Z" fill="#3E8EED"/>
<path d="M17.7301 171.839V192.719L35.1001 181.189L35.0901 160.289L17.7301 171.839Z" fill="#F7B548"/>
<path d="M17.6802 171.869V192.639L0.400151 181.239L0.280151 160.269L17.6802 171.869Z" fill="#FFD590"/>
<path d="M17.6601 171.899L35.1001 160.289L17.8601 148.789L0.260132 160.299L17.6601 171.899Z" fill="#FFE5B9"/>
<path d="M57.3002 234.099L57.4302 255.249L75.5002 243.509L75.3802 222.669L57.3002 234.099Z" fill="#28C2D1"/>
<path d="M57.4201 234.429V255.259L40.1401 243.859L40.0201 222.889L57.4201 234.429Z" fill="#7BDDEF"/>
<path d="M53.5002 237.069V246.179C53.5002 246.279 53.4702 246.369 53.4302 246.449C53.3802 246.529 53.3102 246.599 53.2302 246.649C53.1502 246.699 53.0502 246.719 52.9502 246.709C52.8502 246.709 52.7602 246.679 52.6802 246.619L45.1002 241.619C45.0302 241.569 44.9702 241.509 44.9302 241.429C44.8902 241.349 44.8702 241.269 44.8702 241.179L44.8202 231.979C44.8202 231.879 44.8502 231.789 44.8902 231.709C44.9402 231.629 45.0102 231.559 45.0902 231.509C45.1702 231.459 45.2702 231.439 45.3702 231.449C45.4702 231.449 45.5602 231.489 45.6402 231.539L53.2802 236.629C53.3502 236.679 53.4102 236.739 53.4502 236.819C53.4802 236.889 53.5002 236.979 53.5002 237.069Z" fill="#28C2D1"/>
<path d="M57.4201 234.449L75.3901 222.679L58.0401 211.499L40.0201 222.889L57.4201 234.449Z" fill="#C3F2F4"/>
<path d="M47.0601 237.389C47.1501 237.479 47.2301 237.599 47.2801 237.719C47.3301 237.839 47.3501 237.979 47.3401 238.109C47.3301 238.239 47.3001 238.369 47.2401 238.489C47.1801 238.609 47.0901 238.709 46.9901 238.799L42.4601 241.699C42.2001 241.819 41.9101 241.849 41.6401 241.779C41.3701 241.709 41.1201 241.539 40.9601 241.299C40.8701 241.209 40.7901 241.089 40.7401 240.969C40.6901 240.849 40.6701 240.709 40.6801 240.579C40.6901 240.449 40.7201 240.319 40.7801 240.199C40.8401 240.079 40.9301 239.979 41.0301 239.889L45.5601 236.989C45.8201 236.869 46.1101 236.839 46.3801 236.909C46.6501 236.989 46.8901 237.149 47.0601 237.389Z" fill="#C3F2F4"/>
<path d="M52.21 240.189C52.3 240.279 52.38 240.399 52.43 240.519C52.48 240.639 52.5 240.779 52.49 240.909C52.48 241.039 52.45 241.169 52.39 241.289C52.33 241.409 52.24 241.509 52.14 241.599L47.61 244.499C47.35 244.619 47.06 244.649 46.79 244.579C46.51 244.509 46.27 244.339 46.11 244.099C46.02 244.009 45.94 243.889 45.89 243.769C45.84 243.649 45.82 243.509 45.83 243.379C45.84 243.249 45.87 243.119 45.93 242.999C45.99 242.879 46.08 242.779 46.18 242.689L50.71 239.789C50.97 239.669 51.26 239.639 51.53 239.709C51.81 239.789 52.05 239.959 52.21 240.189Z" fill="#C3F2F4"/>
<path d="M255.71 124.429L255.83 145.269L237.76 157.099V136.219L255.71 124.429Z" fill="#28C2D1"/>
<path d="M220.36 124.639L220.48 145.609L237.76 157.009V136.239L220.36 124.639Z" fill="#7BDDEF"/>
<path d="M220.34 124.659L238.38 113.259L255.71 124.439L237.77 136.339L220.34 124.659Z" fill="#C3F2F4"/>
<path d="M127.63 149.129L145.26 137.409L128.11 126.099L110.36 137.609L127.63 149.129Z" fill="#C3F2F4"/>
<path d="M160.21 171.429H160C159.41 171.429 158.92 171.909 158.92 172.509V178.389C158.92 178.979 159.4 179.469 160 179.469H160.21C160.8 179.469 161.29 178.989 161.29 178.389V172.509C161.29 171.909 160.81 171.429 160.21 171.429Z" fill="#72ACF1"/>
<path d="M164.97 168.009H164.76C164.17 168.009 163.68 168.489 163.68 169.089V174.969C163.68 175.559 164.16 176.049 164.76 176.049H164.97C165.56 176.049 166.05 175.569 166.05 174.969V169.089C166.04 168.489 165.56 168.009 164.97 168.009Z" fill="#72ACF1"/>
<path d="M32.5301 142.689H32.3201C31.7301 142.689 31.2401 143.169 31.2401 143.769V149.649C31.2401 150.239 31.7201 150.729 32.3201 150.729H32.5301C33.1201 150.729 33.6101 150.249 33.6101 149.649V143.769C33.6001 143.169 33.1201 142.689 32.5301 142.689Z" fill="#72ACF1"/>
<path d="M37.2801 139.279H37.0701C36.4801 139.279 35.9901 139.759 35.9901 140.359V146.239C35.9901 146.829 36.4701 147.319 37.0701 147.319H37.2801C37.8701 147.319 38.3601 146.839 38.3601 146.239V140.359C38.3601 139.759 37.8801 139.279 37.2801 139.279Z" fill="#72ACF1"/>
<path d="M241.48 214.059L241.96 234.809L259.55 223.109L259.57 202.349L241.48 214.059Z" fill="#969696"/>
<path d="M241.73 214.119L259.61 202.399L242.46 191.089L224.71 202.599L241.73 214.119Z" fill="#E5E5E1"/>
<path d="M224.6 225.429L224.19 246.349L206.91 234.949L206.79 213.979L224.6 225.429Z" fill="#72ACF1"/>
<path d="M242.45 207.249L249.29 202.709C249.39 202.649 249.47 202.559 249.52 202.459C249.57 202.359 249.6 202.239 249.6 202.129C249.6 202.019 249.57 201.899 249.52 201.799C249.46 201.699 249.39 201.609 249.29 201.549L242.67 197.179C242.56 197.109 242.42 197.069 242.29 197.069C242.16 197.069 242.02 197.109 241.91 197.179L235.03 201.649C234.93 201.709 234.85 201.799 234.8 201.899C234.74 201.999 234.71 202.119 234.71 202.229C234.71 202.349 234.74 202.459 234.79 202.559C234.84 202.659 234.92 202.749 235.02 202.809L241.69 207.259C241.8 207.339 241.94 207.379 242.08 207.379C242.2 207.369 242.33 207.329 242.45 207.249Z" fill="#969696"/>
<path d="M239.62 196.459H239.41C238.82 196.459 238.33 196.939 238.33 197.539V203.419C238.33 204.009 238.81 204.499 239.41 204.499H239.62C240.21 204.499 240.7 204.019 240.7 203.419V197.539C240.7 196.939 240.22 196.459 239.62 196.459Z" fill="#BEBEBC"/>
<path d="M244.38 193.039H244.17C243.58 193.039 243.09 193.519 243.09 194.119V199.999C243.09 200.589 243.57 201.079 244.17 201.079H244.38C244.97 201.079 245.46 200.599 245.46 199.999V194.119C245.45 193.529 244.97 193.039 244.38 193.039Z" fill="#BEBEBC"/>
<path d="M224.4 225.529L224.2 246.429L242.27 234.599L242.04 213.909L224.4 225.529Z" fill="#3E8EED"/>
<path d="M224.4 225.619L242.03 213.899L224.86 202.549L206.87 214.019L224.4 225.619Z" fill="#A7CBF6"/>
<path d="M214.73 108.839L222.87 99.5489C224.17 98.0589 226.44 97.9089 227.93 99.2189L228.3 99.5389C229.79 100.839 229.94 103.109 228.63 104.599L220.49 113.889C219.19 115.379 216.92 115.529 215.43 114.219L215.06 113.899C213.57 112.599 213.42 110.329 214.73 108.839Z" fill="#8A6FE8"/>
<path d="M237.15 102.459L241.52 109.139C242.67 110.929 242.16 113.309 240.37 114.459C238.58 115.609 236.2 115.099 235.05 113.309L230.57 106.469L237.15 102.459Z" fill="#8A6FE8"/>
<path d="M236.01 106.619L237.69 117.499C238.01 119.599 236.56 121.559 234.46 121.879C232.36 122.199 230.4 120.749 230.08 118.649L228.81 110.569L236.01 106.619Z" fill="#8A6FE8"/>
<path d="M231.33 106.149L230.49 117.129C230.33 119.249 228.49 120.839 226.37 120.689C224.25 120.529 222.66 118.689 222.81 116.569L223.66 105.379L231.33 106.149Z" fill="#8A6FE8"/>
<path d="M229.6 112.389C234.052 112.389 237.66 108.78 237.66 104.329C237.66 99.8774 234.052 96.2688 229.6 96.2688C225.149 96.2688 221.54 99.8774 221.54 104.329C221.54 108.78 225.149 112.389 229.6 112.389Z" fill="url(#paint11_radial)"/>
<defs>
<radialGradient id="paint0_radial" cx="0" cy="0" r="1" gradientUnits="userSpaceOnUse" gradientTransform="translate(107.852 85.834) rotate(91.02) scale(8.05947)">
<stop stop-color="#8065E0"/>
<stop offset="1" stop-color="#512BD4"/>
</radialGradient>
<linearGradient id="paint1_linear" x1="166.114" y1="95.0466" x2="159.824" y2="125.991" gradientUnits="userSpaceOnUse">
<stop offset="0.252" stop-color="#522CD5"/>
<stop offset="0.5558" stop-color="#8A6FE8"/>
</linearGradient>
<linearGradient id="paint2_linear" x1="167.899" y1="125.879" x2="151.13" y2="159.423" gradientUnits="userSpaceOnUse">
<stop stop-color="#522CD5"/>
<stop offset="0.4397" stop-color="#8A6FE8"/>
</linearGradient>
<radialGradient id="paint3_radial" cx="0" cy="0" r="1" gradientUnits="userSpaceOnUse" gradientTransform="translate(157.297 145.805) rotate(-179.556) scale(14.0149 13.9647)">
<stop offset="0.034" stop-color="#522CD5"/>
<stop offset="0.9955" stop-color="#8A6FE8"/>
</radialGradient>
<linearGradient id="paint4_linear" x1="180.005" y1="92.9907" x2="186.998" y2="126.855" gradientUnits="userSpaceOnUse">
<stop offset="0.258" stop-color="#522CD5"/>
<stop offset="0.5602" stop-color="#8A6FE8"/>
</linearGradient>
<linearGradient id="paint5_linear" x1="193.258" y1="124.702" x2="192.995" y2="158.621" gradientUnits="userSpaceOnUse">
<stop stop-color="#522CD5"/>
<stop offset="0.4397" stop-color="#8A6FE8"/>
</linearGradient>
<radialGradient id="paint6_radial" cx="0" cy="0" r="1" gradientUnits="userSpaceOnUse" gradientTransform="translate(197.039 143.845) rotate(0.444212) scale(15.365 15.3099)">
<stop offset="0.034" stop-color="#522CD5"/>
<stop offset="0.9955" stop-color="#8A6FE8"/>
</radialGradient>
<radialGradient id="paint7_radial" cx="0" cy="0" r="1" gradientUnits="userSpaceOnUse" gradientTransform="translate(162.358 49.7004) rotate(-7.10014) scale(43.0156)">
<stop offset="0.4744" stop-color="#A08BE8"/>
<stop offset="0.8618" stop-color="#8065E0"/>
</radialGradient>
<radialGradient id="paint8_radial" cx="0" cy="0" r="1" gradientUnits="userSpaceOnUse" gradientTransform="translate(133.595 54.8963) rotate(-7.10014) scale(44.578)">
<stop offset="0.0933" stop-color="#E1DFDD"/>
<stop offset="0.6573" stop-color="white"/>
</radialGradient>
<linearGradient id="paint9_linear" x1="214.774" y1="62.3939" x2="220.243" y2="104.734" gradientUnits="userSpaceOnUse">
<stop offset="0.2495" stop-color="#967FE6"/>
<stop offset="1" stop-color="#8A6FE8"/>
</linearGradient>
<radialGradient id="paint10_radial" cx="0" cy="0" r="1" gradientUnits="userSpaceOnUse" gradientTransform="translate(203.906 64.0778) rotate(172.9) scale(7.93335)">
<stop stop-color="#8065E0"/>
<stop offset="1" stop-color="#512BD4"/>
</radialGradient>
<radialGradient id="paint11_radial" cx="0" cy="0" r="1" gradientUnits="userSpaceOnUse" gradientTransform="translate(227.653 101.821) rotate(138.807) scale(8.06134)">
<stop stop-color="#8065E0"/>
<stop offset="1" stop-color="#512BD4"/>
</radialGradient>
</defs>
</svg>
