<svg data-name="Layer 1" xmlns="http://www.w3.org/2000/svg" viewBox="0 0 64 64"><circle cx="32" cy="32" r="31" transform="rotate(-45 32.002 31.994)" fill="#721481"/><path d="M53.92 10.08a31 31 0 010 43.84L10.08 10.08a31 31 0 0143.84 0z" fill="#7e1b96"/><path d="M17.23 20.37v10.55h10.23v2.36H17.23V46h-2.6V18h13.66v2.38zm34.06 7.35h-5.2L44.73 34h5.53l-.43 1.8h-5.45l-1.7 7.77h-2l1.68-7.77h-5.07l-1.66 7.8h-2l1.66-7.77H30l.37-1.8h5.33l1.3-6.31h-5.57l.39-1.8h5.55L39 18h2l-1.68 7.93h5.08L46.15 18h2l-1.7 7.93h5.25zm-12.29 0L37.64 34h5.1l1.37-6.31z" fill="#fff"/></svg>