<svg data-name="Layer 1" xmlns="http://www.w3.org/2000/svg" viewBox="0 0 64 64"><circle cx="32" cy="32" r="31" transform="rotate(-45 32.002 31.994)" fill="#05930c"/><path d="M53.92 10.08a31 31 0 010 43.84L10.08 10.08a31 31 0 0143.84 0z" fill="#0b9e0b"/><path d="M30.46 45a17.21 17.21 0 01-7.4 1.52 13.47 13.47 0 01-5.39-1 12 12 0 01-4.13-2.9 12.93 12.93 0 01-2.64-4.41 16.26 16.26 0 01-.9-5.67 17.38 17.38 0 011-5.93 14.07 14.07 0 012.82-4.77 13 13 0 014.44-3.17 14.31 14.31 0 015.85-1.15 17.51 17.51 0 016.39 1.09v2.77a14.17 14.17 0 00-6.5-1.49 11.77 11.77 0 00-4.82.94 10 10 0 00-3.55 2.61 11.56 11.56 0 00-2.21 3.95 15.57 15.57 0 00-.76 5 14.88 14.88 0 00.68 4.56 11 11 0 002 3.74 9.6 9.6 0 003.33 2.54 10.76 10.76 0 004.63.94 14.43 14.43 0 007.11-1.7zM54 27.72h-5.2L47.47 34H53l-.43 1.8h-5.45l-1.7 7.77h-2l1.68-7.77H40l-1.63 7.8h-2L38 35.82h-5.3l.37-1.8h5.33l1.33-6.31h-5.56l.39-1.8h5.55L41.79 18h2l-1.68 7.93h5.08l1.7-7.93h2l-1.7 7.93h5.25zm-12.26 0L40.38 34h5.1l1.37-6.31z" fill="#fff"/></svg>