<svg data-name="Layer 1" xmlns="http://www.w3.org/2000/svg" viewBox="0 0 64 64"><circle cx="32" cy="32" r="31" transform="rotate(-45 32.002 31.994)" fill="#004e8c"/><path d="M53.92 10.08a31 31 0 010 43.84L10.08 10.08a31 31 0 0143.84 0z" fill="#025d9b"/><path d="M21.3 46h-2.54L8.57 18h2.91l7.93 22.38q.21.63.38 1.26a11.92 11.92 0 01.26 1.36h.08q.1-.55.27-1.2t.45-1.42L29.11 18h2.81zm13.83 0V18h7.66a9.82 9.82 0 013.13.47 7 7 0 012.38 1.32 5.72 5.72 0 011.51 2 6.39 6.39 0 01.53 2.62A7.52 7.52 0 0150 26.7a6.76 6.76 0 01-1 1.92 6.36 6.36 0 01-1.53 1.5 7.69 7.69 0 01-2.06 1v.08a7.65 7.65 0 012.59.7 6.45 6.45 0 012 1.43 6.23 6.23 0 011.27 2.06 7.24 7.24 0 01.44 2.61 8 8 0 01-.64 3.25 7.45 7.45 0 01-1.81 2.54 8.22 8.22 0 01-2.76 1.65A10.22 10.22 0 0143 46zm2.6-25.62v9.94h3.63a8.4 8.4 0 002.58-.37 5.65 5.65 0 002-1.07 4.72 4.72 0 001.26-1.7 5.51 5.51 0 00.44-2.25q0-4.55-5.66-4.55zm0 12.29v11h4.82a7.05 7.05 0 004.78-1.46A5.18 5.18 0 0049 38.05q0-5.39-7.32-5.39z" fill="#fff"/></svg>