<?xml version="1.0" encoding="utf-8"?>
<!-- Generator: Adobe Illustrator 18.1.0, SVG Export Plug-In . SVG Version: 6.00 Build 0)  -->
<!DOCTYPE svg PUBLIC "-//W3C//DTD SVG 1.1//EN" "http://www.w3.org/Graphics/SVG/1.1/DTD/svg11.dtd">
<svg version="1.1" id="Layer_1" xmlns="http://www.w3.org/2000/svg" xmlns:xlink="http://www.w3.org/1999/xlink" x="0px" y="0px"
	 viewBox="0 0 216 216" enable-background="new 0 0 216 216" xml:space="preserve">
<g>
	<path fill-rule="evenodd" clip-rule="evenodd" fill="#DD5900" d="M109,86.3c-11.8,0-21.5,9.6-21.5,21.4c0,11.8,9.6,21.4,21.5,21.4
		c11.8,0,21.5-9.6,21.5-21.4C130.4,95.9,120.8,86.3,109,86.3L109,86.3z M92.5,107.7c0-3.6,1.2-6.9,3.2-9.7l22.9,22.9
		c-2.7,2-6,3.2-9.7,3.2C99.9,124.1,92.5,116.7,92.5,107.7L92.5,107.7z M122.2,117.3L99.3,94.5c2.7-2,6-3.2,9.7-3.2
		c9,0,16.4,7.4,16.4,16.4C125.4,111.3,124.2,114.6,122.2,117.3L122.2,117.3z"/>
</g>
</svg>
