<svg id="Layer_1" data-name="Layer 1" xmlns="http://www.w3.org/2000/svg" viewBox="0 0 64 64"><defs><style>.cls-1{fill:#fff;}.cls-2{fill:#007acc;}</style></defs><title>logo_TS</title><rect class="cls-1" x="12.29" y="25.14" width="46.29" height="34.29"/><path class="cls-2" d="M2,32V62H62V2H2Zm46.46-2.7a8.22,8.22,0,0,1,5.65,2.47,9.88,9.88,0,0,1,1.44,1.92c0,.08-2.59,1.83-4.17,2.81-.06,0-.29-.21-.54-.59A3.4,3.4,0,0,0,48,34.22c-1.82-.12-3,.83-3,2.42a2.2,2.2,0,0,0,.26,1.12c.4.83,1.14,1.32,3.48,2.33,4.3,1.85,6.13,3.07,7.28,4.8a8.71,8.71,0,0,1,.7,7.31c-1,2.5-3.31,4.19-6.64,4.75a18.4,18.4,0,0,1-4.57,0,11,11,0,0,1-6.1-3.18,10.6,10.6,0,0,1-1.56-2.31,4.48,4.48,0,0,1,.55-.35l2.23-1.29,1.72-1,.36.53A8.05,8.05,0,0,0,45,51.5c1.91,1,4.54.87,5.84-.3a2.61,2.61,0,0,0,.33-3.32c-.47-.67-1.42-1.23-4.12-2.4C44,44.14,42.62,43.31,41.4,42a7.91,7.91,0,0,1-1.65-3,12,12,0,0,1-.1-3.83C40.45,31.42,43.79,29.1,48.46,29.3ZM36,35H28V57H23V35H15V30H36Z"/></svg>