<svg id="Layer_1" data-name="Layer 1" xmlns="http://www.w3.org/2000/svg" viewBox="0 0 64 64"><defs><style>.cls-1{fill:#b4079c;}.cls-2,.cls-3{fill:#fff;}.cls-2{opacity:0.1;}.cls-4{fill:#f2f2f2;}</style></defs><title>logo_Cplusplus</title><circle class="cls-1" cx="32" cy="32" r="32"/><path class="cls-2" d="M9.82,9A32,32,0,1,0,55,54.18Z"/><path class="cls-3" d="M32.07,43.55a14.78,14.78,0,0,1-7,1.48,11.23,11.23,0,0,1-8.61-3.46,12.78,12.78,0,0,1-3.23-9.09A13.39,13.39,0,0,1,16.9,22.7,12.35,12.35,0,0,1,26.13,19a14.8,14.8,0,0,1,5.94,1v3.15a12,12,0,0,0-6-1.51,9.17,9.17,0,0,0-7,2.9,10.93,10.93,0,0,0-2.7,7.75,10.4,10.4,0,0,0,2.52,7.34,8.58,8.58,0,0,0,6.62,2.73,12.42,12.42,0,0,0,6.57-1.69Z"/><polygon class="cls-4" points="43 32 39 32 39 28 37 28 37 32 33 32 33 34 37 34 37 38 39 38 39 34 43 34 43 32"/><polygon class="cls-4" points="55 32 51 32 51 28 49 28 49 32 45 32 45 34 49 34 49 38 51 38 51 34 55 34 55 32"/></svg>