<svg id="Layer_1" data-name="Layer 1" xmlns="http://www.w3.org/2000/svg" viewBox="0 0 64 64"><defs><style>.cls-1{fill:#394d54;}.cls-1,.cls-11,.cls-6,.cls-7,.cls-8{fill-rule:evenodd;}.cls-2{fill:#00aada;}.cls-3{fill:#24b8eb;}.cls-4{fill:#008bb8;}.cls-5{fill:#039bc6;}.cls-6{fill:#00acd3;}.cls-7{fill:#20c2ef;}.cls-10,.cls-8{fill:#d4edf1;}.cls-9{fill:#bfdbe0;}.cls-11{fill:#484848;}</style></defs><title>logo_docker</title><path id="outline" class="cls-1" d="M37,11h6v6h2.54a7.41,7.41,0,0,0,4-.37,10.18,10.18,0,0,0,1.93-.87,7.18,7.18,0,0,1-1.34-3.7,7.81,7.81,0,0,1,1.4-5.51l.6-.7.72.58a9.11,9.11,0,0,1,3.59,5.79,8.75,8.75,0,0,1,6.64.62l.79.45-.41.81c-1.62,3.16-5,4.14-8.32,4-5,12.34-15.74,18.19-28.83,18.19-6.76,0-13-2.53-16.49-8.52l-.06-.1-.51-1A16.6,16.6,0,0,1,7.9,18.16L8,17h5V11h6V6H30V0h7Z"/><g id="body_colors" data-name="body colors"><path class="cls-2" d="M55.46,13.36c.38-3-1.85-5.33-3.23-6.44-1.6,1.84-1.84,6.68.66,8.71A12,12,0,0,1,45.54,18H8.85a15.46,15.46,0,0,0,1.52,8.52l.42.76a14.14,14.14,0,0,0,.86,1.3h0q2.26.15,4.17.1h0a20.46,20.46,0,0,0,6.09-.89.44.44,0,1,1,.29.83l-.64.2h0a19.15,19.15,0,0,1-4.21.69c.1,0-.1,0-.1,0h-.19c-.66,0-1.38,0-2.11,0s-1.59,0-2.47-.06h0C15.52,33,20.3,35,26.29,35,39,35,49.72,29.42,54.48,16.81c3.38.35,6.63-.51,8.1-3.4A8,8,0,0,0,55.46,13.36Z"/><path class="cls-3" d="M55.46,13.36c.38-3-1.85-5.33-3.23-6.44-1.6,1.84-1.84,6.68.66,8.71A12,12,0,0,1,45.54,18H11c-.15,4.82,1.64,8.47,4.8,10.69h0a20.46,20.46,0,0,0,6.09-.89.44.44,0,1,1,.29.83l-.64.2h0a20.13,20.13,0,0,1-4.32.72l0,0c4.31,2.21,10.57,2.21,17.74-.55A49.86,49.86,0,0,0,55.69,13.25Z"/><path class="cls-4" d="M8.92,22a14.67,14.67,0,0,0,1.45,4.7l.42.76a14.11,14.11,0,0,0,.86,1.3q2.26.15,4.17.1A20.46,20.46,0,0,0,21.91,28a.44.44,0,1,1,.29.83l-.64.2h0a20.13,20.13,0,0,1-4.31.7H17c-.66,0-1.37.06-2.1.06s-1.62,0-2.5-.06c3.06,3.44,7.87,5.5,13.86,5.5,10.85,0,20.3-4.12,25.78-13.22Z"/><path class="cls-5" d="M11.36,22a11,11,0,0,0,4.47,6.86A20.46,20.46,0,0,0,21.91,28a.44.44,0,1,1,.29.83l-.64.2h0a20.43,20.43,0,0,1-4.34.7c4.31,2.21,10.55,2.18,17.72-.57A46.85,46.85,0,0,0,47.2,22Z"/></g><g id="Containers"><path class="cls-6" d="M17,13h0v4h0Zm0,0h0v4h0Zm-1,0H15v4h1Zm0,0H15v4h1Zm-2,0h0v4h0Zm0-1h5v5H14Z"/><path class="cls-6" d="M24,7H23v4h1Zm0,0H23v4h1ZM22,7h0v4h0Zm0,0h0v4h0ZM21,7H20v4h1Zm0,0H20v4h1ZM20,7h5v4H20Z"/><path class="cls-7" d="M24,13H23v4h1Zm0,0H23v4h1Zm-2,0h0v4h0Zm0,0h0v4h0Zm-1,0H20v4h1Zm0,0H20v4h1Zm-1-1h5v5H20Z"/><path class="cls-6" d="M30,13h0v4h0Zm-1,0H28v4h1Zm0,0H28v4h1Zm-2,0h0v4h0Zm0,0h0v4h0Zm-1-1H25v5h1Zm-1,0h5v5H25Z"/><path class="cls-7" d="M30,7h0v4h0ZM29,7H28v4h1Zm0,0H28v4h1ZM27,7h0v4h0Zm0,0h0v4h0ZM26,7H25v4h1ZM25,7h5v4H25Z"/><path class="cls-7" d="M35,13h0v4h0Zm0,0h0v4h0Zm-1,0H33v4h1Zm0,0H33v4h1Zm-2,0h0v4h0Zm0,0h0v4h0Zm-1-1h5v5H31Z"/><path class="cls-6" d="M35,7h0v4h0Zm0,0h0v4h0ZM34,7H33v4h1Zm0,0H33v4h1ZM32,7h0v4h0Zm0,0h0v4h0ZM31,7h5v4H31Z"/><path class="cls-7" d="M35,1h0V5h0Zm0,0h0V5h0ZM34,1H33V5h1Zm0,0H33V5h1ZM32,1h0V5h0Zm0,0h0V5h0ZM31,1h5V6H31Z"/><path class="cls-6" d="M40,13h0v4h0Zm0,0h0v4h0Zm-1,0H38v4h1Zm0,0H38v4h1Zm-2,0h0v4h0Zm0-1h5v5H37Z"/></g><path class="cls-8" d="M24.21,25.4a1.37,1.37,0,1,1-1.37,1.37,1.37,1.37,0,0,1,1.37-1.37"/><path class="cls-1" d="M24.21,25.79a1,1,0,0,1,.35.07.4.4,0,1,0,.55.54,1,1,0,1,1-.91-.6"/><path class="cls-1" d="M0,23H63.66c-1.39-.35-4.39-.83-3.89-2.64-2.52,2.92-8.6,2-10.13.61C47.93,23.44,38,22.5,37.29,20.57c-2.14,2.51-8.78,2.51-10.92,0C25.68,22.5,15.73,23.44,14,21c-1.53,1.44-7.61,2.31-10.13-.61C4.39,22.17,1.39,22.65,0,23"/><path class="cls-9" d="M27.84,35.27a12.05,12.05,0,0,1-6.28-6.18,21,21,0,0,1-4.53.69q-1,.06-2.09.06-1.26,0-2.66-.07c3.11,3.11,6.93,5.5,14,5.54Z"/><path class="cls-10" d="M22.82,31.29a11.87,11.87,0,0,1-1.26-2.2,21,21,0,0,1-4.53.69A14.42,14.42,0,0,0,22.82,31.29Z"/><path id="docker" class="cls-11" d="M47.39,50.32l4.31-3.71c.49-.42,1-.86,1.52-1.31a3.84,3.84,0,0,0-1.6-1.06,3.83,3.83,0,0,0-5.11,3.86,3.4,3.4,0,0,0,.5,1.7,4.53,4.53,0,0,0,.38.51m1.67,1.17a4.54,4.54,0,0,0,2.24.09A5,5,0,0,1,53,51.06H53l.05,0a1.09,1.09,0,0,1,.52.47.93.93,0,0,1-.37,1.31L53,53a5.53,5.53,0,0,1-5.63-.08,5.22,5.22,0,0,1-2-2l-.12-.2a5.48,5.48,0,0,1,.31-6.14,5.31,5.31,0,0,1,1.76-1.6l.27-.15A5.47,5.47,0,0,1,53,42.7a5.25,5.25,0,0,1,2.27,2.1l.1.17c.39.67-.11,1.26-.63,1.66s-1.21,1-1.79,1.52Zm13.79-9.31H63a.92.92,0,0,1,1,1c0,.8-.77,1-1.43,1a3.48,3.48,0,0,0-2.3,1.12A3.69,3.69,0,0,0,59.19,48v4.7a.89.89,0,0,1-.89,1h-.15a.89.89,0,0,1-.89-1v-5a5.45,5.45,0,0,1,2.48-4.55A5.33,5.33,0,0,1,62.84,42.18ZM38.66,45.51c.75-.75,1.51-1.51,2.27-2.25.21-.21,1-1.08,1.34-1.08h.39a.86.86,0,0,1,.77.85v.19c0,.32-.38.7-.59.92-.45.47-.91.93-1.37,1.39l-2.34,2.38q1.51,1.52,3,3l.83.85a2.12,2.12,0,0,1,.32.37.79.79,0,0,1,.14.44v.25a.92.92,0,0,1-.88.8h-.15c-.32,0-.68-.36-.9-.57-.45-.43-.89-.88-1.33-1.31l-1.49-1.46v2.34a.89.89,0,0,1-.89,1h-.15a.89.89,0,0,1-.89-1V39.49a.89.89,0,0,1,.89-1h.15a.89.89,0,0,1,.89,1ZM32.37,44.2a3.74,3.74,0,0,0-4.64,2.09,3.55,3.55,0,0,0-.35,1.56,3.74,3.74,0,0,0,2.36,3.53,4.42,4.42,0,0,0,1.83.31,4.81,4.81,0,0,0,1.72-.54l.08,0h.4a.86.86,0,0,1,.77.85v.19c0,1.18-2.16,1.45-3,1.51a5.48,5.48,0,0,1-5.91-4.17A5,5,0,0,1,25.45,48v-.38a5.45,5.45,0,0,1,2.85-4.84A5.31,5.31,0,0,1,31,42.06h.38a4.94,4.94,0,0,1,2.84.88l.07,0,0,.07a1,1,0,0,1,.17.51v.19a.88.88,0,0,1-.82.85h-.15A4.37,4.37,0,0,1,32.37,44.2ZM14.69,47.88a3.73,3.73,0,0,0,2,3.32,3.59,3.59,0,0,0,1.91.52,3.71,3.71,0,0,0,3.28-2,3.61,3.61,0,0,0,.52-1.91,3.69,3.69,0,0,0-1.79-3.18A3.61,3.61,0,0,0,18.53,44,3.69,3.69,0,0,0,15,46.32,3.55,3.55,0,0,0,14.69,47.88Zm3.65-5.78h.27a5.5,5.5,0,0,1,5,3.05,5.21,5.21,0,0,1,.66,2.54v.38a5.43,5.43,0,0,1-2.85,4.84,5.37,5.37,0,0,1-2.74.75h-.38a5.44,5.44,0,0,1-4.84-2.85,5.34,5.34,0,0,1-.75-2.74v-.38a5.45,5.45,0,0,1,2.85-4.84A5.31,5.31,0,0,1,18.34,42.1ZM2,47.88a3.68,3.68,0,0,0,2.07,3.39,3.59,3.59,0,0,0,1.74.45,3.74,3.74,0,0,0,3.36-2,3.64,3.64,0,0,0,.52-1.91A3.7,3.7,0,0,0,8,44.74,3.62,3.62,0,0,0,5.82,44a3.69,3.69,0,0,0-3.5,2.28A3.56,3.56,0,0,0,2,47.88Zm7.68-4.33v-4.1a.89.89,0,0,1,.89-1h.15a.89.89,0,0,1,.89,1v8.62a5.43,5.43,0,0,1-2.85,4.84A5.35,5.35,0,0,1,6,53.67H5.63A5.44,5.44,0,0,1,.79,50.82,5.34,5.34,0,0,1,0,48.08v-.38a5.44,5.44,0,0,1,2.85-4.84,5.33,5.33,0,0,1,2.74-.75H6A5.41,5.41,0,0,1,9.67,43.55Z"/></svg>