<svg id="Layer_1" data-name="Layer 1" xmlns="http://www.w3.org/2000/svg" viewBox="0 0 64 64"><defs><style>.cls-1{fill:#004b1c;}.cls-2,.cls-3{fill:#fff;}.cls-2{opacity:0.1;}</style></defs><title>logo_REST</title><circle class="cls-1" cx="32" cy="32" r="32"/><path class="cls-2" d="M9.84,9A32,32,0,1,0,55,54.16Z"/><path class="cls-3" d="M22.13,39.47H19.42l-2.24-3.75a7.86,7.86,0,0,0-.59-.88,3.58,3.58,0,0,0-.59-.6,2,2,0,0,0-.65-.34,2.71,2.71,0,0,0-.79-.11h-.94v5.68H11.31v-14h4.61a6.67,6.67,0,0,1,1.82.23,4.22,4.22,0,0,1,1.45.71,3.31,3.31,0,0,1,1,1.18,3.72,3.72,0,0,1,.35,1.66,4.05,4.05,0,0,1-.22,1.36,3.54,3.54,0,0,1-.62,1.1,3.82,3.82,0,0,1-1,.83,4.9,4.9,0,0,1-1.28.53v0a3.59,3.59,0,0,1,.66.47c.19.17.37.35.54.53a6.43,6.43,0,0,1,.5.62q.25.35.55.81ZM13.63,27.35V31.9h1.93a2.87,2.87,0,0,0,1-.17,2.27,2.27,0,0,0,.79-.48,2.16,2.16,0,0,0,.52-.76,2.61,2.61,0,0,0,.19-1,2,2,0,0,0-.63-1.57,2.65,2.65,0,0,0-1.83-.57Z"/><path class="cls-3" d="M31.63,39.47H23.77v-14h7.55v2H26.09v4H30.9v2H26.09V37.5h5.54Z"/><path class="cls-3" d="M33.47,38.91V36.52a3.7,3.7,0,0,0,.77.53,5.91,5.91,0,0,0,.94.4,7.43,7.43,0,0,0,1,.25,5.31,5.31,0,0,0,.92.09,3.92,3.92,0,0,0,2.18-.49A1.61,1.61,0,0,0,40,35.87a1.55,1.55,0,0,0-.24-.86,2.51,2.51,0,0,0-.67-.67,7,7,0,0,0-1-.58l-1.25-.58q-.71-.38-1.33-.77a5.74,5.74,0,0,1-1.07-.86,3.61,3.61,0,0,1-.71-1.07,3.48,3.48,0,0,1-.26-1.4,3.23,3.23,0,0,1,.44-1.71,3.74,3.74,0,0,1,1.17-1.2,5.39,5.39,0,0,1,1.66-.7,7.84,7.84,0,0,1,1.89-.23,7.65,7.65,0,0,1,3.2.5V28a5.11,5.11,0,0,0-3.07-.86,5.47,5.47,0,0,0-1,.1,3.08,3.08,0,0,0-.92.32,2,2,0,0,0-.66.58,1.41,1.41,0,0,0-.25.85,1.61,1.61,0,0,0,.2.81,2.08,2.08,0,0,0,.57.63,5.85,5.85,0,0,0,.92.55q.54.27,1.25.58t1.38.8a6.54,6.54,0,0,1,1.14.93,4.09,4.09,0,0,1,.78,1.13,3.31,3.31,0,0,1,.29,1.41,3.5,3.5,0,0,1-.43,1.8,3.45,3.45,0,0,1-1.16,1.19,5.16,5.16,0,0,1-1.67.66,9.44,9.44,0,0,1-2,.21,8.43,8.43,0,0,1-.86-.05q-.51-.05-1-.16a9.66,9.66,0,0,1-1-.25A3.2,3.2,0,0,1,33.47,38.91Z"/><path class="cls-3" d="M54,27.44H50v12H47.64v-12h-4v-2H54Z"/></svg>