<svg id="Layer_1" data-name="Layer 1" xmlns="http://www.w3.org/2000/svg" viewBox="0 0 64 64"><defs><style>.cls-1{fill:#333;}.cls-2{fill:#5e5e5e;}</style></defs><title>logo_linux</title><path class="cls-1" d="M43.14,45.42c-1.28,0-2.15,0-2.12,2.12a43.81,43.81,0,0,1-.62,9.71c-.77,4.56.18,6.43,3.1,6.72,3.36.33,4.79-2,7.67-3.87,2.3-1.46,4.93-3.1,6.21-3.8s1.39-2.12-.84-3.8c-1.89-1.43-3-2.19-3.1-4.42s-1.06-2.74-2-1.28-2.68,3-4.93,2.52a2.12,2.12,0,0,1-2-2.41C44.53,45.82,44,45.4,43.14,45.42Z"/><path class="cls-1" d="M39.6,53.93,38.69,61s-3.32-.26-5.44-.26-5.81.22-5.81.22l-.18-3.1a14.18,14.18,0,0,0,7-.62A15.44,15.44,0,0,0,39.6,53.93Z"/><path class="cls-1" d="M19,45.82s4.07,6.15,5,7.3c1.39,1.79,3.18-.62.8-2.59C21.61,47.9,19,45.82,19,45.82Z"/><path class="cls-1" d="M7.32,49.44c2.8-.91,3.29-.55,5.73-3.69s3.43-1.35,5,.8,6.1,8.65,7.27,10.37,1.13,4.31-.4,5.51-2.92,2.37-6.57.77a52.09,52.09,0,0,0-9.82-2.7c-1.72-.4-2.81-.84-2.52-3.29A19.09,19.09,0,0,0,6.23,52C6,50.57,5.86,49.91,7.32,49.44Z"/><ellipse class="cls-2" cx="28.45" cy="16.45" rx="0.6" ry="0.27" transform="translate(-4.27 13.36) rotate(-24.64)"/><path class="cls-1" d="M45.19,44.58,45,44.7a2.2,2.2,0,0,1,.42,1.85,1.65,1.65,0,0,0,2.12,1.86c2-.34,3.13-2.41,3.49-3.16C49,43.86,45.87,44.08,45.19,44.58Z"/><path class="cls-1" d="M35.66,17.16l-.94-.4c1.61-.87,1.71-2.65.47-3.54a1.41,1.41,0,0,0-2.26,1A7.4,7.4,0,0,0,33,16a7.43,7.43,0,0,0-3.14-.71,5,5,0,0,0-2,.75c.14-2.53-.58-3.36-1.81-2.9s-1,2.49.51,3.77a8.88,8.88,0,0,0-1.27,1.15c-.95,1.1-1.24,1.75.51,3.65,2.08,2.26,4.13,3,6.9,1.53,3.14-1.69,4.6-2.56,4.67-3.91S36.56,17.54,35.66,17.16Zm-1.07-3.57c.12-.1.4,0,.61.27s.29.54.17.65-.4,0-.61-.27S34.46,13.7,34.59,13.59Zm-3.92,2.58c0-.14.34-.18.66-.08s.54.3.49.44-.34.18-.66.08S30.62,16.32,30.67,16.17Zm-4-2.71c.15-.07.38.13.51.43s.12.6,0,.67-.38-.13-.51-.43S26.52,13.53,26.66,13.47Zm9,6c-1.68,1.06-4.93,2.92-6.61,2.74a6.53,6.53,0,0,1-3.83-1.61c-.66-.63-.62-1.1.11-.51A6.36,6.36,0,0,0,29,21.47c1.83.15,4.74-1.74,6.43-2.56C36.57,18.37,37.37,18.44,35.7,19.5Z"/><path class="cls-1" d="M46.28,25.85c-4.35-5.59-4.09-8.87-4.42-13.11S39.95,1.38,30.55,2c-8.73.62-7.63,9.31-7.34,13.36s.91,7.41-1.9,10.77a54.27,54.27,0,0,0-7.23,12.2,11.88,11.88,0,0,0-.91,5.73,3,3,0,0,1,2.26-1,3.11,3.11,0,0,1,1,.12c-1.27-3.5,1.46-9,2.39-10.2.4-.51.62-.8.29-.07-1.17,2.6-3.14,6.69-1.88,10.62a3,3,0,0,1,.68.55,18.4,18.4,0,0,1,3.32-11.57,5.9,5.9,0,0,1,3-2s-3.47-.58-.33-4.42a6,6,0,0,0,.91-4.45,2.51,2.51,0,0,1-1.1-2.19A3.34,3.34,0,0,1,25.18,17a5.61,5.61,0,0,1-.55-4.2c.62-2.41,2.41-2.48,3.65-.91a2.65,2.65,0,0,1,.58,2.81h2.56a4.62,4.62,0,0,1,.18-2.45,3.24,3.24,0,0,1,2.74-1.9,3.38,3.38,0,0,1,3.32,3.36A7.26,7.26,0,0,1,37.08,17,2.2,2.2,0,0,1,38,19.61c-.62,1.72-.4,2-.18,2.52S39.57,26,42.3,32.42a23.54,23.54,0,0,1,1.86,11.87,1.34,1.34,0,0,1,.68.26l.08-.11a3,3,0,0,1,1.39-.62c3.72-6.68-.58-11-2-12-.6-.44-.25-.23.05-.07,4.17,2.2,4.87,7.18,2.81,12A5.78,5.78,0,0,1,51.39,45c.41,0,1.32.06,1.54-.5C54.89,39.61,50.63,31.44,46.28,25.85ZM36.1,6.75c-.66.44-1-.44-1-.71,0-1,.88-1.48,1.42-.82S36.75,6.32,36.1,6.75Zm5.66,15.74c-.77.77-1.92.33-2.41-1.31-.22-.73,0-1.1.91-.62S42.52,21.72,41.76,22.49Z"/></svg>