<svg id="Layer_1" data-name="Layer 1" xmlns="http://www.w3.org/2000/svg" xmlns:xlink="http://www.w3.org/1999/xlink" viewBox="0 0 64 64"><defs><style>.cls-1{fill:url(#linear-gradient);}.cls-2{fill:#246abf;}</style><linearGradient id="linear-gradient" x1="11.32" y1="7.69" x2="54.05" y2="38.94" gradientUnits="userSpaceOnUse"><stop offset="0" stop-color="#b8bbbe"/><stop offset="1" stop-color="#929198"/></linearGradient></defs><title>logo_R</title><path class="cls-1" d="M64,22.81c0,12-14.33,21.81-32,21.81S0,34.86,0,22.81,14.33,1,32,1,64,10.77,64,22.81ZM36.64,9.47c-13.14,0-23.8,6.69-23.8,14.94S23.5,39.36,36.64,39.36c16.69,0,23.8-6.69,23.8-14.94S51.88,9.47,36.64,9.47Z"/><path class="cls-2" d="M26.78,14.93s15,.18,21.77,0a9.77,9.77,0,0,1,5.74,1.62A8.54,8.54,0,0,1,58.15,23a11.89,11.89,0,0,1-.6,5.6,9.32,9.32,0,0,1-5.31,5.32,13.14,13.14,0,0,1-3.13.91,2.16,2.16,0,0,0-.33.13c.53.18,1,.31,1.38.48,3.61,1.44,4.58,3.7,5.5,5.38,1.16,2.12,4.7,8.32,5.79,10.21,0,.07.07.14.12.26l-.36,0H49.84a.58.58,0,0,1-.59-.37c-.87-1.68-4.81-9.16-5.92-11.21a6.4,6.4,0,0,0-1.81-2.32,3.18,3.18,0,0,0-1.68-.75H37.22V51.5H26.78Zm10.45,7.84v6.1s4.86,0,7,0a2.67,2.67,0,0,0,1.72-.5,3.23,3.23,0,0,0,1.26-2.84,2.75,2.75,0,0,0-3-2.75Z"/></svg>