<svg id="Layer_1" data-name="Layer 1" xmlns="http://www.w3.org/2000/svg" viewBox="0 0 64 64"><defs><style>.cls-1{fill:#721481;}.cls-2,.cls-3{fill:#fff;}.cls-2{opacity:0.1;}</style></defs><title>logo_Fsharp</title><circle class="cls-1" cx="32" cy="32" r="32"/><path class="cls-2" d="M55,54.18A32,32,0,1,1,9.82,9Z"/><path class="cls-3" d="M29.43,22.07H19.58v8.72h9.11v2.65H19.58V44.6h-3V19.4h12.8Z"/><path class="cls-3" d="M51.4,26.46,51,28.33H46.41L45.3,33.6h4.94l-.47,1.86H44.93l-1.55,7H41.17l1.51-7H38.29l-1.48,7h-2.2l1.48-7H31.48l.35-1.86h4.66l1.07-5.27H32.7l.37-1.86h4.87l1.48-7.07h2.21l-1.48,7.07h4.43l1.51-7.07h2.16l-1.48,7.07Zm-7.17,1.86H39.8L38.64,33.6H43.1Z"/></svg>