<svg id="Layer_1" data-name="Layer 1" xmlns="http://www.w3.org/2000/svg" viewBox="0 0 64 64"><defs><style>.cls-1{fill:#fff;}.cls-2{fill:#a4c439;}</style></defs><title>logo_android</title><path class="cls-1" d="M40.86,6.42l2.8-5.12a.56.56,0,1,0-1-.54L39.85,5.93a19.57,19.57,0,0,0-15.71,0L21.31.77a.56.56,0,1,0-1,.53l2.8,5.11a16.4,16.4,0,0,0-9.23,14.46H50.07A16.4,16.4,0,0,0,40.86,6.42m-17.1,7.91a1.52,1.52,0,1,1,1.52-1.52,1.52,1.52,0,0,1-1.52,1.52m16.47,0a1.52,1.52,0,1,1,1.51-1.52,1.51,1.51,0,0,1-1.51,1.52"/><path class="cls-2" d="M40.86,6.42l2.8-5.12a.56.56,0,1,0-1-.54L39.86,5.94a19.56,19.56,0,0,0-15.72,0L21.31.77a.56.56,0,1,0-1,.53l2.8,5.11A16.49,16.49,0,0,0,14,21H50A16.52,16.52,0,0,0,40.86,6.42m-17.1,7.91a1.52,1.52,0,1,1,1.52-1.52,1.52,1.52,0,0,1-1.52,1.52m16.47,0a1.52,1.52,0,1,1,1.51-1.52,1.52,1.52,0,0,1-1.51,1.52M14,22V49a3.81,3.81,0,0,0,4,4h3v7a4,4,0,0,0,8,0V53h6v7a4,4,0,0,0,8,0V53h3a3.81,3.81,0,0,0,4-4V22Zm45,4a4,4,0,0,0-8,0V42a4,4,0,0,0,8,0ZM13,26a4,4,0,0,0-8,0V42a4,4,0,0,0,8,0Z"/></svg>