<?xml version="1.0" encoding="utf-8"?>
<!-- Generator: Adobe Illustrator 20.1.0, SVG Export Plug-In . SVG Version: 6.00 Build 0)  -->
<svg version="1.1" id="Layer_1" xmlns="http://www.w3.org/2000/svg" xmlns:xlink="http://www.w3.org/1999/xlink" x="0px" y="0px"
	 viewBox="0 0 80 80" style="enable-background:new 0 0 80 80;" xml:space="preserve">
<style type="text/css">
	.st0{fill:#73AA24;}
	.st1{fill:#05930C;}
	.st2{fill:#FFFFFF;}
	.st3{fill:#8B6AB1;}
	.st4{fill:#5C2D91;}
	.st5{fill:#2581BF;}
	.st6{fill:#004E8C;}
	.st7{fill:#9A37AF;}
	.st8{fill:#721481;}
	.st9{fill:#3498DB;}
</style>
<g id="Page-1" >
	<g id="xamagon" >
		<path id="Logo" class="st9" d="M23.1,4.4c-2.2,0-4.3,1.2-5.4,3.1L0.8,36.9c-1.1,1.9-1.1,4.3,0,6.2
			l16.9,29.4c1.1,1.9,3.2,3.1,5.4,3.1h33.8c2.2,0,4.3-1.2,5.4-3.1l16.9-29.4c1.1-1.9,1.1-4.3,0-6.2L62.3,7.5
			c-1.1-1.9-3.2-3.1-5.4-3.1H23.1L23.1,4.4z M23.4,21.6c0,0,0.1,0,0.1,0h5.8c0.3,0,0.5,0.2,0.6,0.4l9.9,17.6c0,0.1,0.1,0.2,0.1,0.3
			c0-0.1,0-0.2,0.1-0.3L50,22c0.1-0.2,0.4-0.4,0.7-0.4h5.8c0.5,0,0.9,0.7,0.7,1.1L47.5,40l9.7,17.3c0.3,0.5-0.1,1.1-0.7,1.1h-5.8
			c-0.3,0-0.5-0.2-0.7-0.4l-9.9-17.6c0-0.1-0.1-0.2-0.1-0.3c0,0.1,0,0.2-0.1,0.3L30,58c-0.1,0.2-0.4,0.4-0.6,0.4h-5.8
			c-0.5,0-0.9-0.7-0.7-1.1L32.5,40l-9.7-17.3C22.6,22.3,22.9,21.7,23.4,21.6L23.4,21.6z"/>
	</g>
</g>
</svg>
