<?xml version="1.0" encoding="utf-8"?>
<!-- Generator: Adobe Illustrator 20.1.0, SVG Export Plug-In . SVG Version: 6.00 Build 0)  -->
<svg version="1.1" id="Layer_1" xmlns="http://www.w3.org/2000/svg" xmlns:xlink="http://www.w3.org/1999/xlink" x="0px" y="0px"
	 viewBox="0 0 80 80" style="enable-background:new 0 0 80 80;" xml:space="preserve">
<style type="text/css">
	.st0{fill:#73AA24;}
	.st1{fill:#05930C;}
	.st2{fill:#FFFFFF;}
	.st3{fill:#8B6AB1;}
	.st4{fill:#5C2D91;}
	.st5{fill:#2581BF;}
	.st6{fill:#004E8C;}
	.st7{fill:#9A37AF;}
	.st8{fill:#721481;}
	.st9{fill:#3498DB;}
</style>
<g>
	<circle class="st3" cx="40" cy="40" r="40"/>
	<path class="st4" d="M12.3,11.2C4.7,18.5,0,28.7,0,40c0,22.1,17.9,40,40,40c11.3,0,21.5-4.7,28.8-12.3L12.3,11.2z"/>
	<g>
		<path class="st2" d="M30,44.7l-12.4-18c-0.2-0.2-0.3-0.5-0.5-0.7c-0.2-0.2-0.3-0.5-0.4-0.7h-0.1c0,0.2,0,0.4,0.1,0.8
			c0,0.3,0,0.8,0,1.3v17.4h-2.1V22.3h2.3l12.2,17.8c0.2,0.3,0.4,0.5,0.5,0.8c0.2,0.2,0.3,0.5,0.4,0.7h0.1c0-0.3-0.1-0.7-0.1-1.2
			c0-0.4,0-0.9,0-1.4V22.3h2.1v22.4H30z"/>
		<path class="st2" d="M37.9,44.7V22.3h10.9v1.9H40v8.2h8.2v1.9H40v8.5h9.3v1.9H37.9z"/>
		<path class="st2" d="M60.5,24.2v20.5h-2.1V24.2H52v-1.9h15v1.9H60.5z"/>
		<path class="st2" d="M13.8,50.6h-3.6v3.1h3.3v1h-3.3v4H9.2v-9.1h4.6V50.6z"/>
		<path class="st2" d="M18.8,53.2C18.6,53.1,18.3,53,18,53c-0.4,0-0.8,0.2-1.1,0.6c-0.3,0.4-0.4,1-0.4,1.7v3.3h-1v-6.5h1v1.3h0
			c0.1-0.5,0.4-0.8,0.7-1.1s0.6-0.4,1-0.4c0.3,0,0.5,0,0.6,0.1V53.2z"/>
		<path class="st2" d="M24.6,58.7h-1v-1h0c-0.5,0.8-1.1,1.2-2,1.2c-0.6,0-1.2-0.2-1.5-0.5c-0.4-0.3-0.5-0.8-0.5-1.4
			c0-1.2,0.7-1.9,2.1-2.1l1.9-0.3c0-1.1-0.4-1.7-1.3-1.7c-0.8,0-1.5,0.3-2.1,0.8v-1.1c0.6-0.4,1.4-0.6,2.2-0.6
			c1.5,0,2.3,0.8,2.3,2.4V58.7z M23.5,55.4L22,55.6c-0.5,0.1-0.8,0.2-1.1,0.4c-0.2,0.2-0.4,0.5-0.4,0.9c0,0.3,0.1,0.6,0.3,0.8
			s0.5,0.3,0.9,0.3c0.5,0,0.9-0.2,1.3-0.5c0.3-0.4,0.5-0.8,0.5-1.4V55.4z"/>
		<path class="st2" d="M35.8,58.7h-1V55c0-0.7-0.1-1.2-0.3-1.6c-0.2-0.3-0.6-0.5-1.1-0.5c-0.4,0-0.8,0.2-1.1,0.6
			c-0.3,0.4-0.5,0.9-0.5,1.5v3.7h-1v-3.9c0-1.3-0.5-1.9-1.5-1.9c-0.5,0-0.8,0.2-1.1,0.6c-0.3,0.4-0.4,0.9-0.4,1.5v3.7h-1v-6.5h1v1h0
			c0.5-0.8,1.1-1.2,2-1.2c0.4,0,0.8,0.1,1.2,0.4c0.3,0.2,0.6,0.6,0.7,1c0.5-0.9,1.2-1.3,2.2-1.3c1.4,0,2.1,0.9,2.1,2.6V58.7z"/>
		<path class="st2" d="M43,55.7h-4.6c0,0.7,0.2,1.3,0.6,1.7c0.4,0.4,0.9,0.6,1.5,0.6c0.7,0,1.4-0.2,2-0.7v1
			c-0.6,0.4-1.3,0.6-2.3,0.6c-0.9,0-1.6-0.3-2.2-0.9c-0.5-0.6-0.8-1.4-0.8-2.5c0-1,0.3-1.8,0.9-2.5s1.3-1,2.1-1s1.5,0.3,2,0.8
			c0.5,0.5,0.7,1.3,0.7,2.3V55.7z M41.9,54.8c0-0.6-0.1-1.1-0.4-1.4c-0.3-0.3-0.7-0.5-1.2-0.5c-0.5,0-0.9,0.2-1.3,0.5
			c-0.3,0.4-0.6,0.8-0.6,1.4H41.9z"/>
		<path class="st2" d="M52.7,52.2l-1.9,6.5h-1.1L48.3,54c-0.1-0.2-0.1-0.4-0.1-0.6h0c0,0.2-0.1,0.3-0.1,0.6l-1.5,4.7h-1l-2-6.5h1.1
			l1.3,4.9c0,0.1,0.1,0.3,0.1,0.6h0.1c0-0.2,0.1-0.4,0.1-0.6l1.5-4.9h1l1.3,4.9c0,0.2,0.1,0.4,0.1,0.6h0.1c0-0.2,0-0.4,0.1-0.6
			l1.3-4.9H52.7z"/>
		<path class="st2" d="M56.6,58.8c-1,0-1.7-0.3-2.3-0.9c-0.6-0.6-0.9-1.4-0.9-2.4c0-1.1,0.3-1.9,0.9-2.6c0.6-0.6,1.4-0.9,2.4-0.9
			c1,0,1.7,0.3,2.3,0.9c0.5,0.6,0.8,1.4,0.8,2.5c0,1-0.3,1.9-0.9,2.5C58.4,58.5,57.6,58.8,56.6,58.8z M56.7,52.9
			c-0.7,0-1.2,0.2-1.6,0.7c-0.4,0.5-0.6,1.1-0.6,1.9c0,0.8,0.2,1.4,0.6,1.8c0.4,0.4,0.9,0.7,1.6,0.7c0.7,0,1.2-0.2,1.6-0.7
			c0.4-0.4,0.5-1.1,0.5-1.9c0-0.8-0.2-1.4-0.5-1.9C57.9,53.1,57.4,52.9,56.7,52.9z"/>
		<path class="st2" d="M64.9,53.2c-0.2-0.1-0.4-0.2-0.8-0.2c-0.4,0-0.8,0.2-1.1,0.6c-0.3,0.4-0.4,1-0.4,1.7v3.3h-1v-6.5h1v1.3h0
			c0.1-0.5,0.4-0.8,0.7-1.1s0.6-0.4,1-0.4c0.3,0,0.5,0,0.6,0.1V53.2z"/>
		<path class="st2" d="M71.5,58.7H70l-2.9-3.1h0v3.1h-1v-9.6h1v6.1h0l2.7-3h1.4l-3,3.1L71.5,58.7z"/>
	</g>
</g>
</svg>
