<?xml version="1.0" encoding="utf-8"?>
<!-- Generator: Adobe Illustrator 20.1.0, SVG Export Plug-In . SVG Version: 6.00 Build 0)  -->
<svg version="1.1" id="Layer_1" xmlns="http://www.w3.org/2000/svg" xmlns:xlink="http://www.w3.org/1999/xlink" x="0px" y="0px"
	 viewBox="0 0 80 80" style="enable-background:new 0 0 80 80;" xml:space="preserve">
<style type="text/css">
	.st0{fill:#73AA24;}
	.st1{fill:#05930C;}
	.st2{fill:#FFFFFF;}
	.st3{fill:#8B6AB1;}
	.st4{fill:#5C2D91;}
	.st5{fill:#2581BF;}
	.st6{fill:#004E8C;}
	.st7{fill:#9A37AF;}
	.st8{fill:#721481;}
	.st9{fill:#3498DB;}
</style>
<g>
	<circle class="st3" cx="40" cy="40" r="40"/>
	<path class="st4" d="M12.3,11.2C4.7,18.5,0,28.7,0,40c0,22.1,17.9,40,40,40c11.3,0,21.5-4.7,28.8-12.3L12.3,11.2z"/>
	<g>
		<path class="st2" d="M27.4,52.7L12.6,31.3c-0.2-0.3-0.4-0.6-0.5-0.8c-0.2-0.3-0.3-0.6-0.4-0.8h-0.1c0,0.2,0,0.5,0.1,0.9
			c0,0.4,0,0.9,0,1.5v20.6H9.2V26.1h2.7l14.5,21.1c0.2,0.3,0.4,0.6,0.6,0.9c0.2,0.3,0.3,0.6,0.5,0.8h0.1c0-0.4-0.1-0.9-0.1-1.4
			c0-0.5,0-1.1,0-1.7V26.1H30v26.6H27.4z"/>
		<path class="st2" d="M36.9,52.7V26.1h13v2.3H39.3v9.8h9.7v2.2h-9.7v10.1h11.1v2.2H36.9z"/>
		<path class="st2" d="M63.7,28.3v24.3h-2.5V28.3h-7.7v-2.3h17.8v2.3H63.7z"/>
	</g>
</g>
</svg>
