<?xml version="1.0" encoding="utf-8"?>
<!-- Generator: Adobe Illustrator 20.1.0, SVG Export Plug-In . SVG Version: 6.00 Build 0)  -->
<svg version="1.1" id="Layer_1" xmlns="http://www.w3.org/2000/svg" xmlns:xlink="http://www.w3.org/1999/xlink" x="0px" y="0px"
	 viewBox="0 0 80 80" style="enable-background:new 0 0 80 80;" xml:space="preserve">
<style type="text/css">
	.st0{fill:#73AA24;}
	.st1{fill:#05930C;}
	.st2{fill:#FFFFFF;}
	.st3{fill:#8B6AB1;}
	.st4{fill:#5C2D91;}
	.st5{fill:#2581BF;}
	.st6{fill:#004E8C;}
	.st7{fill:#9A37AF;}
	.st8{fill:#721481;}
	.st9{fill:#3498DB;}
</style>
<g>
	<circle class="st5" cx="40" cy="40" r="40"/>
	<path class="st6" d="M12.3,11.2C4.7,18.5,0,28.7,0,40c0,22.1,17.9,40,40,40c11.3,0,21.5-4.7,28.8-12.3L12.3,11.2z"/>
	<g>
		<path class="st2" d="M28.8,55.6h-3L13.5,22H17l9.5,26.9c0.2,0.5,0.3,1,0.5,1.5s0.2,1,0.3,1.6h0.1c0.1-0.4,0.2-0.9,0.3-1.4
			s0.3-1.1,0.5-1.7L38.2,22h3.4L28.8,55.6z"/>
		<path class="st2" d="M46.6,55.6V22h9.2c1.4,0,2.6,0.2,3.8,0.6s2.1,0.9,2.9,1.6s1.4,1.5,1.8,2.4s0.6,2,0.6,3.1c0,1-0.1,1.9-0.4,2.7
			s-0.6,1.6-1.1,2.3s-1.1,1.3-1.8,1.8s-1.6,0.9-2.5,1.2v0.1c1.1,0.1,2.1,0.4,3.1,0.8s1.7,1,2.4,1.7c0.7,0.7,1.2,1.5,1.5,2.5
			s0.5,2,0.5,3.1c0,1.4-0.3,2.7-0.8,3.9s-1.2,2.2-2.2,3s-2,1.5-3.3,2s-2.7,0.7-4.2,0.7H46.6z M49.7,24.8v11.9h4.4
			c1.1,0,2.2-0.1,3.1-0.4s1.7-0.7,2.4-1.3s1.2-1.2,1.5-2s0.5-1.7,0.5-2.7c0-3.6-2.3-5.5-6.8-5.5H49.7z M49.7,39.6v13.2h5.8
			c2.5,0,4.4-0.6,5.7-1.7s2-2.8,2-5c0-4.3-2.9-6.5-8.8-6.5H49.7z"/>
	</g>
</g>
</svg>
