<?xml version="1.0" encoding="utf-8"?>
<!-- Generator: Adobe Illustrator 20.1.0, SVG Export Plug-In . SVG Version: 6.00 Build 0)  -->
<svg version="1.1" id="Layer_1" xmlns="http://www.w3.org/2000/svg" xmlns:xlink="http://www.w3.org/1999/xlink" x="0px" y="0px"
	 viewBox="0 0 80 80" style="enable-background:new 0 0 80 80;" xml:space="preserve">
<style type="text/css">
	.st0{fill:#73AA24;}
	.st1{fill:#05930C;}
	.st2{fill:#FFFFFF;}
	.st3{fill:#8B6AB1;}
	.st4{fill:#5C2D91;}
	.st5{fill:#2581BF;}
	.st6{fill:#004E8C;}
	.st7{fill:#9A37AF;}
	.st8{fill:#721481;}
	.st9{fill:#3498DB;}
</style>
<g>
	<circle class="st7" cx="40" cy="40" r="40"/>
	<path class="st8" d="M12.3,11.2C4.7,18.5,0,28.7,0,40c0,22.1,17.9,40,40,40c11.3,0,21.5-4.7,28.8-12.3L12.3,11.2z"/>
	<g>
		<path class="st2" d="M21.3,25.1v12.7h12.3v2.8H21.3v15.3h-3.1V22.2h16.4v2.9H21.3z"/>
		<path class="st2" d="M63.4,33.9h-6.2l-1.6,7.6h6.6l-0.5,2.2h-6.5l-2,9.3h-2.4l2-9.3h-6.1l-2,9.3h-2.4l2-9.3h-6.4l0.4-2.2h6.4
			l1.6-7.6h-6.7l0.5-2.2h6.7l2-9.5h2.4l-2,9.5h6.1l2-9.5h2.4l-2,9.5h6.3L63.4,33.9z M48.7,33.9L47,41.5h6.1l1.6-7.6H48.7z"/>
	</g>
</g>
</svg>
