<?xml version="1.0" encoding="utf-8"?>
<!-- Generator: Adobe Illustrator 20.1.0, SVG Export Plug-In . SVG Version: 6.00 Build 0)  -->
<svg version="1.1" id="Layer_1" xmlns="http://www.w3.org/2000/svg" xmlns:xlink="http://www.w3.org/1999/xlink" x="0px" y="0px"
	 viewBox="0 0 80 80" style="enable-background:new 0 0 80 80;" xml:space="preserve">
<style type="text/css">
	.st0{fill:#73AA24;}
	.st1{fill:#05930C;}
	.st2{fill:#FFFFFF;}
	.st3{fill:#8B6AB1;}
	.st4{fill:#5C2D91;}
	.st5{fill:#2581BF;}
	.st6{fill:#004E8C;}
	.st7{fill:#9A37AF;}
	.st8{fill:#721481;}
	.st9{fill:#3498DB;}
</style>
<g>
	<circle class="st0" cx="40" cy="40" r="40"/>
	<path class="st1" d="M12.3,11.2C4.7,18.5,0,28.7,0,40c0,22.1,17.9,40,40,40c11.3,0,21.5-4.7,28.8-12.3L12.3,11.2z"/>
	<g>
		<path class="st2" d="M37.3,54.6c-2.6,1.2-5.6,1.8-8.9,1.8c-2.4,0-4.5-0.4-6.5-1.3c-1.9-0.8-3.6-2-5-3.5c-1.4-1.5-2.4-3.3-3.2-5.3
			c-0.7-2-1.1-4.3-1.1-6.7c0-2.5,0.4-4.9,1.2-7.1c0.8-2.2,1.9-4.1,3.4-5.7c1.5-1.6,3.2-2.9,5.3-3.8s4.4-1.4,7-1.4
			c2.9,0,5.4,0.4,7.7,1.3v3.3c-2.4-1.2-5-1.8-7.7-1.8c-2.2,0-4.1,0.4-5.8,1.1s-3.1,1.8-4.3,3.1c-1.2,1.3-2,2.9-2.6,4.7
			s-0.9,3.8-0.9,6c0,1.9,0.3,3.8,0.8,5.5c0.5,1.7,1.4,3.2,2.4,4.5c1.1,1.3,2.4,2.3,4,3s3.4,1.1,5.6,1.1c3.2,0,6.1-0.7,8.5-2V54.6z"
			/>
		<path class="st2" d="M66.7,33.9h-6.2l-1.6,7.6h6.6L65,43.6h-6.5l-2,9.3H54l2-9.3h-6.1l-2,9.3h-2.4l2-9.3h-6.4l0.4-2.2H48l1.6-7.6
			h-6.7l0.5-2.2H50l2-9.5h2.4l-2,9.5h6.1l2-9.5H63l-2,9.5h6.3L66.7,33.9z M52,33.9l-1.7,7.6h6.1l1.6-7.6H52z"/>
	</g>
</g>
</svg>
