<?xml version="1.0" encoding="utf-8"?>
<!-- Generator: Adobe Illustrator 26.2.1, SVG Export Plug-In . SVG Version: 6.00 Build 0)  -->
<svg version="1.1" id="Layer_1" xmlns="http://www.w3.org/2000/svg" xmlns:xlink="http://www.w3.org/1999/xlink" x="0px" y="0px"
	 viewBox="0 0 612 792" style="enable-background:new 0 0 612 792;" xml:space="preserve">
<style type="text/css">
	.st0{fill:none;stroke:#A6A8AB;stroke-width:0.5;stroke-miterlimit:10;}
	.st1{fill:#33312D;}
	.st2{fill:#B3AFAB;}
	.st3{fill:#79A9DA;}
	.st4{fill:#3985C6;}
	.st5{fill:#7A7775;}
	.st6{fill:#B4B0AC;}
	.st7{fill:#33322E;}
	.st8{fill:#FFFFFF;}
	.st9{fill:#C8C6C4;}
	.st10{fill:#2D589C;}
	.st11{fill:#F7B547;}
	.st12{fill:#FFD590;}
	.st13{fill:#E1DFDD;}
	.st14{fill:#958EC4;}
	.st15{fill:#BEB8DC;}
	.st16{fill:#6866AE;}
	.st17{fill:#797674;}
	.st18{fill:#737474;}
	.st19{fill:#FDB813;}
	.st20{fill:#FFE5B9;}
	.st21{fill:#D1D3D4;}
	.st22{fill:#5388C7;}
	.st23{fill:none;stroke:#5388C7;stroke-width:2.5;stroke-linecap:round;stroke-linejoin:round;}
	.st24{fill:#F2C816;}
	.st25{fill:#CCC8D7;}
	.st26{fill:#B2ACC2;}
	.st27{fill:#665986;}
	.st28{fill:#4C3D71;}
	.st29{fill:none;stroke:#FFFFFF;stroke-miterlimit:10;}
	.st30{fill:#E5E3EB;}
	.st31{fill:#9990AE;}
	.st32{fill:url(#SVGID_1_);}
	.st33{fill:url(#SVGID_00000061432659828913245990000017652742001406342273_);}
	.st34{fill:url(#SVGID_00000056412192139009878520000008156169436563262895_);}
	.st35{fill:url(#SVGID_00000142855376692644937430000005727559481298888107_);}
	.st36{fill:#F65163;}
	.st37{fill:#F7B548;}
	.st38{fill:#7F759A;}
	.st39{fill:url(#SVGID_00000093162958916055128790000000664552620404391063_);}
	.st40{fill:url(#SVGID_00000036219417691364407760000010390734048937459855_);}
	.st41{fill:url(#SVGID_00000029764397561938350910000000268823140374714506_);}
	.st42{fill:url(#SVGID_00000155144913790831534390000004568208431426001033_);}
	.st43{fill:url(#SVGID_00000035492522559948731630000002606016785434856587_);}
	.st44{fill:url(#SVGID_00000161606384153597219860000000478013231868045498_);}
	.st45{fill:url(#SVGID_00000026148733634082505280000016782554725769158591_);}
	.st46{fill:url(#SVGID_00000064330675846454067410000015504438452841980607_);}
	.st47{fill:url(#SVGID_00000121279531231114029390000008108053159322163867_);}
	.st48{fill:url(#SVGID_00000049187270811916160530000009769226602321715606_);}
	.st49{fill:url(#SVGID_00000137131774121702875140000008765140601083825800_);}
	.st50{fill:url(#SVGID_00000119086778508799761960000015781322507310932378_);}
	.st51{fill:url(#SVGID_00000039111703783752153050000004074263466433145500_);}
	.st52{fill:url(#SVGID_00000022519552143323912270000003649571487969530538_);}
	.st53{fill:#190649;}
	.st54{fill:url(#SVGID_00000142890639800450280320000009656417216641019786_);}
	.st55{fill:url(#SVGID_00000127749332459345858160000009495605384922806695_);}
	.st56{fill:url(#SVGID_00000162329210631796855440000014641512913792776578_);}
	.st57{fill:url(#SVGID_00000088098333240706095850000008403780248829504645_);}
	.st58{fill:url(#SVGID_00000010296160157068393130000008930422390747617715_);}
	.st59{fill:url(#SVGID_00000121252241491667228010000003860125517324786104_);}
	.st60{fill:url(#SVGID_00000114063094583757394890000004763596088523089047_);}
	.st61{fill:url(#SVGID_00000144311496587307825310000011253989934835769505_);}
	.st62{fill:url(#SVGID_00000052817633837019211450000012362529145470352046_);}
	.st63{fill:url(#SVGID_00000028288844312156232020000013288725165804279973_);}
	.st64{fill:url(#SVGID_00000173863308216035760530000004109269607666592175_);}
	.st65{fill:url(#SVGID_00000116217651705230986540000007126527940262433680_);}
	.st66{fill:url(#SVGID_00000176747354090870251270000005656505997540907931_);}
	.st67{fill:#706D6E;}
	.st68{fill:url(#SVGID_00000152962643557963788800000008186428209260842917_);}
	.st69{fill:url(#SVGID_00000115510637620806745530000013043097695384886964_);}
	.st70{fill:url(#SVGID_00000178162964353323132720000014584505298721196977_);}
	.st71{fill:url(#SVGID_00000049904743258753091270000014436227516641031058_);}
	.st72{fill:url(#SVGID_00000068637669944123029240000000346547388787211414_);}
	.st73{fill:url(#SVGID_00000172434040886424784130000005902207830596029062_);}
	.st74{fill:url(#SVGID_00000024711943995262680840000000194281531997837469_);}
	.st75{fill:url(#SVGID_00000149378097980019136720000012444813853391242169_);}
	.st76{fill:url(#SVGID_00000143611461482772115010000003381755908606455480_);}
	.st77{fill:url(#SVGID_00000016791740386335203210000005557647482124453509_);}
	.st78{fill:url(#SVGID_00000119823587892735621960000004866754083620436914_);}
	.st79{fill:url(#SVGID_00000045587457113791927370000001716828883375838625_);}
	.st80{fill:url(#SVGID_00000160910355956704454370000012155508363691281043_);}
	.st81{fill:url(#SVGID_00000053520683317585640160000000719863642322330006_);}
	.st82{fill:url(#SVGID_00000056429135376631788910000001273730750807675266_);}
	.st83{fill:url(#SVGID_00000159431100113388734880000009861788932524432308_);}
	.st84{fill:#F1511B;}
	.st85{fill:#80CC28;}
	.st86{fill:#00ADEF;}
	.st87{fill:#FBBC09;}
</style>
<g>
	<path d="M612,0H0v792h612V0z"/>
	<path class="st8" d="M532.7,26.3v11.4h-1.9v-8.9h0l-3.5,8.9H526l-3.5-8.9h0v8.9h-1.8V26.3h2.8l3.2,8.5h0l3.4-8.5H532.7z
		 M534.3,27.2c0-0.3,0.1-0.6,0.3-0.8c0.2-0.2,0.5-0.3,0.8-0.3c0.3,0,0.6,0.1,0.8,0.3c0.2,0.2,0.3,0.5,0.3,0.8s-0.1,0.6-0.3,0.8
		c-0.2,0.2-0.5,0.3-0.8,0.3s-0.6-0.1-0.8-0.3C534.5,27.7,534.3,27.5,534.3,27.2z M536.4,29.5v8.2h-1.9v-8.2H536.4z M542.1,36.3
		c0.3,0,0.6-0.1,0.9-0.2c0.3-0.1,0.6-0.3,0.9-0.5v1.8c-0.3,0.2-0.6,0.3-1,0.4s-0.8,0.1-1.3,0.1c-1.2,0-2.1-0.4-2.9-1.1
		c-0.7-0.8-1.1-1.7-1.1-2.9c0-1.3,0.4-2.4,1.1-3.2s1.8-1.3,3.2-1.3c0.4,0,0.7,0.1,1.1,0.1c0.4,0.1,0.6,0.2,0.9,0.3v1.8
		c-0.3-0.2-0.6-0.4-0.9-0.5c-0.3-0.1-0.6-0.2-0.9-0.2c-0.7,0-1.3,0.2-1.8,0.7c-0.5,0.5-0.7,1.2-0.7,2c0,0.8,0.2,1.5,0.7,1.9
		C540.8,36.1,541.4,36.3,542.1,36.3z M549.3,29.4c0.1,0,0.3,0,0.4,0c0.1,0,0.2,0,0.3,0.1v2c-0.1-0.1-0.2-0.2-0.4-0.2
		c-0.2-0.1-0.4-0.1-0.7-0.1c-0.5,0-0.8,0.2-1.2,0.6s-0.5,1-0.5,1.8v4.1h-1.9v-8.2h1.9v1.3h0c0.2-0.5,0.4-0.8,0.8-1
		C548.4,29.5,548.8,29.4,549.3,29.4z M550.1,33.7c0-1.3,0.4-2.4,1.1-3.2c0.7-0.8,1.8-1.2,3.1-1.2c1.2,0,2.2,0.4,2.9,1.1s1,1.8,1,3.1
		c0,1.3-0.4,2.4-1.1,3.2c-0.7,0.8-1.8,1.2-3,1.2c-1.2,0-2.2-0.4-3-1.1C550.5,36,550.1,35,550.1,33.7z M552.1,33.7
		c0,0.9,0.2,1.5,0.6,2c0.4,0.5,0.9,0.7,1.6,0.7c0.7,0,1.2-0.2,1.6-0.7c0.4-0.5,0.5-1.1,0.5-2c0-0.9-0.2-1.5-0.5-2
		c-0.4-0.4-0.9-0.7-1.6-0.7c-0.7,0-1.2,0.2-1.6,0.7C552.3,32.1,552.1,32.8,552.1,33.7z M561.1,31.7c0,0.3,0.1,0.5,0.3,0.6
		s0.5,0.3,1.1,0.6c0.8,0.3,1.3,0.7,1.6,1s0.5,0.8,0.5,1.4c0,0.8-0.3,1.4-0.9,1.9c-0.6,0.5-1.4,0.7-2.3,0.7c-0.3,0-0.7,0-1.1-0.1
		c-0.4-0.1-0.7-0.2-1-0.3v-1.9c0.3,0.2,0.7,0.4,1.1,0.6s0.8,0.2,1.1,0.2c0.4,0,0.7-0.1,0.9-0.2c0.2-0.1,0.3-0.3,0.3-0.6
		c0-0.3-0.1-0.5-0.3-0.7c-0.2-0.2-0.6-0.4-1.2-0.6c-0.7-0.3-1.2-0.6-1.5-1c-0.3-0.4-0.4-0.8-0.4-1.4c0-0.7,0.3-1.3,0.9-1.8
		c0.6-0.5,1.3-0.7,2.2-0.7c0.3,0,0.6,0,0.9,0.1c0.4,0.1,0.6,0.1,0.9,0.2v1.8c-0.2-0.2-0.5-0.3-0.9-0.4c-0.3-0.1-0.7-0.2-1-0.2
		c-0.4,0-0.6,0.1-0.8,0.2C561.2,31.2,561.1,31.4,561.1,31.7z M565.3,33.7c0-1.3,0.4-2.4,1.1-3.2c0.7-0.8,1.8-1.2,3.1-1.2
		c1.2,0,2.2,0.4,2.9,1.1c0.7,0.8,1.1,1.8,1.1,3.1c0,1.3-0.4,2.4-1.1,3.2c-0.7,0.8-1.8,1.2-3,1.2c-1.2,0-2.2-0.4-3-1.1
		C565.7,36,565.3,35,565.3,33.7z M567.3,33.7c0,0.9,0.2,1.5,0.6,2c0.4,0.5,0.9,0.7,1.6,0.7c0.7,0,1.2-0.2,1.6-0.7
		c0.4-0.5,0.5-1.1,0.5-2c0-0.9-0.2-1.5-0.6-2c-0.4-0.4-0.9-0.7-1.6-0.7c-0.7,0-1.2,0.2-1.6,0.7C567.5,32.1,567.3,32.8,567.3,33.7z
		 M579.8,31.1H577v6.6h-1.9v-6.6h-1.3v-1.6h1.3v-1.1c0-0.9,0.3-1.6,0.8-2.1c0.5-0.6,1.2-0.8,2.1-0.8c0.2,0,0.4,0,0.6,0
		c0.2,0,0.3,0.1,0.5,0.1v1.7c-0.1,0-0.2-0.1-0.3-0.1c-0.2,0-0.3-0.1-0.5-0.1c-0.4,0-0.7,0.1-0.9,0.4c-0.2,0.2-0.3,0.6-0.3,1.1v1h2.8
		v-1.8l1.9-0.6v2.4h1.9v1.6h-1.9v3.8c0,0.5,0.1,0.9,0.3,1.1c0.2,0.2,0.5,0.3,0.8,0.3c0.1,0,0.2,0,0.4-0.1c0.2-0.1,0.3-0.1,0.4-0.2
		v1.6c-0.1,0.1-0.3,0.1-0.6,0.2c-0.3,0.1-0.5,0.1-0.8,0.1c-0.8,0-1.4-0.2-1.8-0.6c-0.4-0.4-0.6-1.1-0.6-2L579.8,31.1z"/>
	<g>
		<path class="st8" d="M324.1,675.1h-1.2v-7c0-0.6,0-1.2,0.1-2h0c-0.1,0.5-0.2,0.8-0.3,1l-3.6,8.1h-0.6l-3.6-8
			c-0.1-0.2-0.2-0.6-0.3-1.1h0c0,0.4,0.1,1.1,0.1,2.1v7h-1.2v-10.5h1.6l3.2,7.3c0.2,0.6,0.4,1,0.5,1.3h0c0.2-0.6,0.4-1,0.5-1.3
			l3.3-7.3h1.5V675.1z"/>
		<path class="st8" d="M327.3,665.7c-0.2,0-0.4-0.1-0.5-0.2s-0.2-0.3-0.2-0.6s0.1-0.4,0.2-0.6c0.2-0.1,0.3-0.2,0.5-0.2
			c0.2,0,0.4,0.1,0.6,0.2c0.2,0.1,0.2,0.3,0.2,0.6c0,0.2-0.1,0.4-0.2,0.5C327.8,665.6,327.6,665.7,327.3,665.7z M327.9,675.1h-1.2
			v-7.5h1.2V675.1z"/>
		<path class="st8" d="M335.5,674.8c-0.6,0.3-1.3,0.5-2.1,0.5c-1.1,0-1.9-0.3-2.6-1c-0.7-0.7-1-1.6-1-2.7c0-1.2,0.4-2.2,1.1-3
			c0.7-0.7,1.7-1.1,2.8-1.1c0.7,0,1.2,0.1,1.7,0.4v1.2c-0.6-0.4-1.2-0.6-1.8-0.6c-0.8,0-1.4,0.3-1.9,0.8c-0.5,0.5-0.7,1.3-0.7,2.2
			c0,0.9,0.2,1.6,0.7,2.1c0.5,0.5,1.1,0.8,1.9,0.8c0.7,0,1.3-0.2,1.8-0.7V674.8z"/>
		<path class="st8" d="M343.5,675.1h-1.2v-4.3c0-1.6-0.6-2.3-1.7-2.3c-0.6,0-1.1,0.2-1.5,0.7c-0.4,0.5-0.6,1-0.6,1.7v4.2h-1.2V664
			h1.2v4.8h0c0.6-0.9,1.4-1.4,2.5-1.4c1.7,0,2.5,1,2.5,3.1V675.1z"/>
		<path class="st8" d="M351.2,675.1H350v-1.2h0c-0.5,0.9-1.3,1.3-2.3,1.3c-0.7,0-1.3-0.2-1.8-0.6c-0.4-0.4-0.6-0.9-0.6-1.6
			c0-1.4,0.8-2.2,2.5-2.4l2.2-0.3c0-1.3-0.5-1.9-1.5-1.9c-0.9,0-1.7,0.3-2.4,0.9v-1.2c0.7-0.5,1.6-0.7,2.5-0.7
			c1.8,0,2.6,0.9,2.6,2.8V675.1z M350,671.3l-1.8,0.2c-0.6,0.1-1,0.2-1.3,0.4c-0.3,0.2-0.4,0.5-0.4,1.1c0,0.4,0.1,0.7,0.4,0.9
			c0.3,0.2,0.6,0.3,1,0.3c0.6,0,1.1-0.2,1.5-0.6c0.4-0.4,0.6-0.9,0.6-1.6V671.3z"/>
		<path class="st8" d="M359.4,671.7h-5.3c0,0.8,0.2,1.5,0.7,1.9s1,0.7,1.8,0.7c0.8,0,1.6-0.3,2.3-0.8v1.1c-0.7,0.5-1.5,0.7-2.6,0.7
			c-1.1,0-1.9-0.3-2.5-1c-0.6-0.7-0.9-1.6-0.9-2.9c0-1.2,0.3-2.1,1-2.9c0.7-0.7,1.5-1.1,2.5-1.1s1.7,0.3,2.3,1s0.8,1.5,0.8,2.6
			V671.7z M358.2,670.6c0-0.7-0.2-1.2-0.5-1.6c-0.3-0.4-0.8-0.6-1.4-0.6c-0.6,0-1,0.2-1.4,0.6s-0.6,0.9-0.7,1.6H358.2z"/>
		<path class="st8" d="M362.5,675.1h-1.2V664h1.2V675.1z"/>
		<path class="st8" d="M368.7,674.7v-1.5c0.2,0.1,0.4,0.3,0.6,0.4c0.2,0.1,0.5,0.2,0.7,0.3c0.3,0.1,0.5,0.1,0.8,0.2s0.5,0.1,0.7,0.1
			c0.8,0,1.3-0.1,1.7-0.4c0.4-0.3,0.6-0.7,0.6-1.2c0-0.3-0.1-0.5-0.2-0.7c-0.1-0.2-0.3-0.4-0.5-0.6c-0.2-0.2-0.5-0.3-0.8-0.5
			c-0.3-0.2-0.6-0.3-1-0.5c-0.4-0.2-0.7-0.4-1-0.6s-0.6-0.4-0.8-0.6s-0.4-0.5-0.6-0.8c-0.1-0.3-0.2-0.6-0.2-1c0-0.5,0.1-0.9,0.3-1.2
			c0.2-0.4,0.5-0.6,0.8-0.9s0.7-0.4,1.2-0.5c0.4-0.1,0.9-0.2,1.3-0.2c1,0,1.8,0.1,2.3,0.4v1.4c-0.6-0.4-1.4-0.6-2.4-0.6
			c-0.3,0-0.5,0-0.8,0.1c-0.3,0.1-0.5,0.1-0.7,0.3s-0.4,0.3-0.5,0.5s-0.2,0.4-0.2,0.7c0,0.3,0.1,0.5,0.2,0.7
			c0.1,0.2,0.2,0.4,0.4,0.5s0.4,0.3,0.7,0.5c0.3,0.2,0.6,0.3,1,0.5c0.4,0.2,0.7,0.4,1.1,0.6s0.6,0.4,0.9,0.7
			c0.3,0.2,0.5,0.5,0.6,0.8c0.1,0.3,0.2,0.6,0.2,1c0,0.5-0.1,1-0.3,1.3c-0.2,0.4-0.5,0.7-0.8,0.9c-0.3,0.2-0.7,0.4-1.2,0.5
			c-0.4,0.1-0.9,0.2-1.4,0.2c-0.2,0-0.4,0-0.6,0c-0.2,0-0.5-0.1-0.7-0.1c-0.3-0.1-0.5-0.1-0.7-0.2
			C369,674.9,368.8,674.8,368.7,674.7z"/>
		<path class="st8" d="M380,675c-0.3,0.2-0.7,0.2-1.1,0.2c-1.3,0-2-0.7-2-2.2v-4.4h-1.3v-1h1.3v-1.8l1.2-0.4v2.2h1.9v1h-1.9v4.2
			c0,0.5,0.1,0.9,0.3,1.1s0.5,0.3,0.8,0.3c0.3,0,0.6-0.1,0.8-0.2V675z"/>
		<path class="st8" d="M384.7,675.3c-1.1,0-2-0.3-2.7-1.1c-0.7-0.7-1-1.6-1-2.8c0-1.3,0.3-2.2,1-3c0.7-0.7,1.6-1.1,2.8-1.1
			c1.1,0,2,0.3,2.6,1c0.6,0.7,0.9,1.6,0.9,2.9c0,1.2-0.3,2.2-1,2.9C386.8,674.9,385.8,675.3,384.7,675.3z M384.8,668.4
			c-0.8,0-1.4,0.3-1.8,0.8c-0.4,0.5-0.7,1.2-0.7,2.2c0,0.9,0.2,1.6,0.7,2.1c0.5,0.5,1.1,0.8,1.8,0.8c0.8,0,1.4-0.3,1.8-0.8
			c0.4-0.5,0.6-1.2,0.6-2.1c0-0.9-0.2-1.7-0.6-2.2C386.2,668.7,385.6,668.4,384.8,668.4z"/>
		<path class="st8" d="M396.6,675.1h-1.2v-4.3c0-1.6-0.6-2.4-1.7-2.4c-0.6,0-1.1,0.2-1.5,0.7c-0.4,0.5-0.6,1-0.6,1.7v4.3h-1.2v-7.5
			h1.2v1.2h0c0.6-0.9,1.4-1.4,2.5-1.4c0.8,0,1.4,0.3,1.9,0.8c0.4,0.5,0.7,1.3,0.7,2.3V675.1z"/>
		<path class="st8" d="M399.5,665.7c-0.2,0-0.4-0.1-0.5-0.2s-0.2-0.3-0.2-0.6s0.1-0.4,0.2-0.6c0.2-0.1,0.3-0.2,0.5-0.2
			c0.2,0,0.4,0.1,0.6,0.2c0.2,0.1,0.2,0.3,0.2,0.6c0,0.2-0.1,0.4-0.2,0.5C399.9,665.6,399.7,665.7,399.5,665.7z M400.1,675.1h-1.2
			v-7.5h1.2V675.1z"/>
		<path class="st8" d="M402,674.8v-1.3c0.7,0.5,1.4,0.7,2.2,0.7c1.1,0,1.6-0.4,1.6-1.1c0-0.2,0-0.4-0.1-0.5
			c-0.1-0.1-0.2-0.3-0.4-0.4c-0.2-0.1-0.3-0.2-0.5-0.3c-0.2-0.1-0.4-0.2-0.7-0.3c-0.3-0.1-0.6-0.3-0.9-0.4c-0.3-0.1-0.5-0.3-0.6-0.5
			c-0.2-0.2-0.3-0.4-0.4-0.6c-0.1-0.2-0.1-0.5-0.1-0.8c0-0.4,0.1-0.7,0.2-0.9c0.2-0.3,0.4-0.5,0.6-0.7c0.3-0.2,0.6-0.3,0.9-0.4
			c0.3-0.1,0.7-0.1,1.1-0.1c0.6,0,1.2,0.1,1.7,0.3v1.2c-0.6-0.4-1.2-0.5-1.9-0.5c-0.2,0-0.4,0-0.6,0.1c-0.2,0.1-0.3,0.1-0.5,0.2
			c-0.1,0.1-0.2,0.2-0.3,0.3c-0.1,0.1-0.1,0.3-0.1,0.4c0,0.2,0,0.4,0.1,0.5c0.1,0.1,0.2,0.2,0.3,0.4s0.3,0.2,0.5,0.3
			s0.4,0.2,0.7,0.3c0.3,0.1,0.6,0.3,0.9,0.4c0.3,0.1,0.5,0.3,0.7,0.5c0.2,0.2,0.3,0.4,0.4,0.6c0.1,0.2,0.1,0.5,0.1,0.8
			c0,0.4-0.1,0.7-0.2,1c-0.2,0.3-0.4,0.5-0.7,0.7s-0.6,0.3-0.9,0.4s-0.7,0.1-1.1,0.1C403.3,675.3,402.6,675.1,402,674.8z"/>
	</g>
	<g>
		<path class="st8" d="M100.4,134.1h-16V104h15.3v3.2H88v10h10.9v3.2H88v10.5h12.4V134.1z"/>
		<path class="st8" d="M123.4,134.1H120v-12.3c0-4.5-1.7-6.8-5-6.8c-1.7,0-3.1,0.6-4.3,1.9c-1.1,1.3-1.7,2.9-1.7,4.9v12.3h-3.4
			v-21.5h3.4v3.6h0.1c1.6-2.7,4-4.1,7.1-4.1c2.4,0,4.2,0.8,5.4,2.3c1.2,1.5,1.9,3.7,1.9,6.6V134.1z"/>
		<path class="st8" d="M139.6,133.9c-0.8,0.5-1.9,0.7-3.2,0.7c-3.8,0-5.6-2.1-5.6-6.3v-12.7h-3.7v-2.9h3.7v-5.2l3.4-1.1v6.4h5.4v2.9
			h-5.4v12.1c0,1.4,0.2,2.5,0.7,3.1c0.5,0.6,1.3,0.9,2.5,0.9c0.9,0,1.6-0.2,2.2-0.7V133.9z"/>
		<path class="st8" d="M161.1,124.2H146c0.1,2.4,0.7,4.3,1.9,5.6c1.2,1.3,2.9,1.9,5.1,1.9c2.4,0,4.7-0.8,6.7-2.4v3.2
			c-1.9,1.4-4.4,2.1-7.5,2.1c-3.1,0-5.5-1-7.2-3c-1.7-2-2.6-4.7-2.6-8.2c0-2.1,0.4-4.1,1.3-5.8c0.9-1.8,2-3.1,3.6-4.1s3.2-1.4,5-1.4
			c2.8,0,5,0.9,6.5,2.7c1.6,1.8,2.3,4.3,2.3,7.6V124.2z M157.6,121.3c0-2-0.5-3.5-1.4-4.6c-0.9-1.1-2.2-1.6-3.9-1.6
			c-1.6,0-3,0.6-4.1,1.7c-1.1,1.1-1.8,2.7-2.1,4.6H157.6z"/>
		<path class="st8" d="M177.2,116.1c-0.6-0.5-1.5-0.7-2.6-0.7c-1.5,0-2.8,0.7-3.7,2.2c-1,1.4-1.4,3.3-1.4,5.6v11H166v-21.5h3.4v4.4
			h0.1c0.5-1.5,1.2-2.7,2.2-3.5c1-0.9,2.1-1.3,3.4-1.3c0.9,0,1.6,0.1,2.1,0.3V116.1z"/>
		<path class="st8" d="M200.5,122.7c0,3.6-0.9,6.5-2.7,8.7c-1.8,2.2-4.2,3.2-7.1,3.2c-2.8,0-5-1.2-6.4-3.6h-0.1v13h-3.4v-31.4h3.4
			v3.8h0.1c1.7-2.9,4.2-4.3,7.4-4.3c2.7,0,4.8,1,6.4,2.9C199.7,116.9,200.5,119.4,200.5,122.7z M197,122.7c0-2.3-0.5-4.2-1.6-5.6
			s-2.6-2.1-4.5-2.1c-2,0-3.6,0.7-4.8,2.1c-1.2,1.4-1.8,3.1-1.8,5.2v3c0,1.8,0.6,3.3,1.8,4.5s2.6,1.8,4.4,1.8c2.1,0,3.7-0.8,4.9-2.4
			C196.4,127.7,197,125.5,197,122.7z"/>
		<path class="st8" d="M216.9,116.1c-0.6-0.5-1.5-0.7-2.6-0.7c-1.5,0-2.8,0.7-3.7,2.2c-1,1.4-1.4,3.3-1.4,5.6v11h-3.4v-21.5h3.4v4.4
			h0.1c0.5-1.5,1.2-2.7,2.2-3.5c1-0.9,2.1-1.3,3.4-1.3c0.9,0,1.6,0.1,2.1,0.3V116.1z"/>
		<path class="st8" d="M224.4,104.9c0,0.6-0.2,1.2-0.7,1.6c-0.4,0.4-1,0.6-1.6,0.6c-0.6,0-1.2-0.2-1.6-0.6c-0.4-0.4-0.7-1-0.7-1.6
			c0-0.6,0.2-1.1,0.6-1.6c0.4-0.4,1-0.7,1.6-0.7c0.6,0,1.2,0.2,1.6,0.7C224.2,103.8,224.4,104.3,224.4,104.9z M223.8,134.1h-3.4
			v-21.5h3.4V134.1z"/>
		<path class="st8" d="M242.3,128.4c0,1.9-0.7,3.4-2.2,4.5c-1.4,1.2-3.3,1.7-5.7,1.7c-2,0-3.8-0.4-5.3-1.3v-3.7
			c1.7,1.4,3.6,2.1,5.6,2.1c2.7,0,4.1-1,4.1-3c0-0.8-0.3-1.5-0.8-2c-0.5-0.5-1.7-1.2-3.6-2.1c-1.9-0.8-3.2-1.7-4-2.6
			c-0.8-0.9-1.2-2.2-1.2-3.7c0-1.8,0.7-3.3,2.1-4.5c1.4-1.2,3.2-1.8,5.4-1.8c1.7,0,3.2,0.3,4.6,1v3.5c-1.4-1-3-1.5-4.9-1.5
			c-1.1,0-2,0.3-2.7,0.8c-0.7,0.6-1,1.3-1,2.2c0,1,0.3,1.7,0.8,2.2c0.5,0.5,1.6,1.1,3.3,1.8c2,0.9,3.5,1.8,4.3,2.7
			C241.9,125.7,242.3,126.9,242.3,128.4z"/>
		<path class="st8" d="M264.3,124.2h-15.2c0.1,2.4,0.7,4.3,1.9,5.6c1.2,1.3,2.9,1.9,5.1,1.9c2.4,0,4.7-0.8,6.7-2.4v3.2
			c-1.9,1.4-4.4,2.1-7.5,2.1c-3.1,0-5.5-1-7.2-3c-1.7-2-2.6-4.7-2.6-8.2c0-2.1,0.4-4.1,1.3-5.8c0.9-1.8,2-3.1,3.6-4.1s3.2-1.4,5-1.4
			c2.8,0,5,0.9,6.5,2.7c1.6,1.8,2.3,4.3,2.3,7.6V124.2z M260.8,121.3c0-2-0.5-3.5-1.4-4.6c-0.9-1.1-2.2-1.6-3.9-1.6
			c-1.6,0-3,0.6-4.1,1.7c-1.1,1.1-1.8,2.7-2.1,4.6H260.8z"/>
		<path class="st8" d="M302.7,134.1h-3.9l-3.2-8.4h-12.8l-3,8.4h-3.9l11.5-30.1h3.7L302.7,134.1z M294.5,122.5l-5.2-14.1h-0.1
			l-5.1,14.1H294.5z"/>
		<path class="st8" d="M326.2,122.7c0,3.6-0.9,6.5-2.7,8.7c-1.8,2.2-4.2,3.2-7.1,3.2c-2.8,0-5-1.2-6.4-3.6h-0.1v13h-3.4v-31.4h3.4
			v3.8h0.1c1.7-2.9,4.2-4.3,7.4-4.3c2.7,0,4.8,1,6.4,2.9C325.4,116.9,326.2,119.4,326.2,122.7z M322.7,122.7c0-2.3-0.5-4.2-1.6-5.6
			s-2.6-2.1-4.5-2.1c-2,0-3.6,0.7-4.8,2.1c-1.2,1.4-1.8,3.1-1.8,5.2v3c0,1.8,0.6,3.3,1.8,4.5s2.6,1.8,4.4,1.8c2.1,0,3.7-0.8,4.9-2.4
			C322.1,127.7,322.7,125.5,322.7,122.7z"/>
		<path class="st8" d="M351.1,122.7c0,3.6-0.9,6.5-2.7,8.7c-1.8,2.2-4.2,3.2-7.1,3.2c-2.8,0-5-1.2-6.4-3.6h-0.1v13h-3.4v-31.4h3.4
			v3.8h0.1c1.7-2.9,4.2-4.3,7.4-4.3c2.7,0,4.8,1,6.4,2.9C350.3,116.9,351.1,119.4,351.1,122.7z M347.6,122.7c0-2.3-0.5-4.2-1.6-5.6
			s-2.6-2.1-4.5-2.1c-2,0-3.6,0.7-4.8,2.1c-1.2,1.4-1.8,3.1-1.8,5.2v3c0,1.8,0.6,3.3,1.8,4.5s2.6,1.8,4.4,1.8c2.1,0,3.7-0.8,4.9-2.4
			C347,127.7,347.6,125.5,347.6,122.7z"/>
		<path class="st8" d="M359.7,134.1h-3.4v-31.8h3.4V134.1z"/>
		<path class="st8" d="M370.5,104.9c0,0.6-0.2,1.2-0.7,1.6c-0.4,0.4-1,0.6-1.6,0.6c-0.6,0-1.2-0.2-1.6-0.6c-0.4-0.4-0.7-1-0.7-1.6
			c0-0.6,0.2-1.1,0.6-1.6c0.4-0.4,1-0.7,1.6-0.7c0.6,0,1.2,0.2,1.6,0.7C370.3,103.8,370.5,104.3,370.5,104.9z M369.9,134.1h-3.4
			v-21.5h3.4V134.1z"/>
		<path class="st8" d="M391.2,133.1c-1.7,1-3.6,1.5-5.9,1.5c-2,0-3.7-0.5-5.3-1.4c-1.6-0.9-2.8-2.2-3.6-3.8
			c-0.9-1.7-1.3-3.5-1.3-5.6c0-3.6,1-6.4,3.1-8.6c2-2.2,4.7-3.2,8.1-3.2c1.9,0,3.5,0.4,5,1.1v3.5c-1.6-1.1-3.3-1.7-5.1-1.7
			c-2.2,0-4,0.8-5.4,2.4c-1.4,1.6-2.1,3.6-2.1,6.2c0,2.5,0.7,4.5,2,5.9c1.3,1.5,3.1,2.2,5.3,2.2c1.9,0,3.6-0.6,5.3-1.8V133.1z"/>
		<path class="st8" d="M411.4,134.1h-3.4v-3.4h-0.1c-1.5,2.6-3.7,3.9-6.6,3.9c-2.1,0-3.7-0.6-5-1.7c-1.2-1.1-1.9-2.6-1.9-4.5
			c0-4,2.4-6.3,7.1-7l6.4-0.9c0-3.6-1.5-5.5-4.4-5.5c-2.6,0-4.9,0.9-7,2.6v-3.5c0.6-0.5,1.7-0.9,3.2-1.4c1.5-0.4,2.9-0.7,4.1-0.7
			c5.1,0,7.6,2.7,7.6,8V134.1z M407.9,123.2l-5.2,0.7c-1.8,0.3-3,0.7-3.7,1.3c-0.7,0.6-1.1,1.6-1.1,2.9c0,1.1,0.4,1.9,1.2,2.6
			c0.8,0.7,1.8,1,3,1c1.7,0,3.1-0.6,4.2-1.8c1.1-1.2,1.7-2.7,1.7-4.5V123.2z"/>
		<path class="st8" d="M427.6,133.9c-0.8,0.5-1.9,0.7-3.2,0.7c-3.8,0-5.6-2.1-5.6-6.3v-12.7h-3.7v-2.9h3.7v-5.2l3.4-1.1v6.4h5.4v2.9
			h-5.4v12.1c0,1.4,0.2,2.5,0.7,3.1c0.5,0.6,1.3,0.9,2.5,0.9c0.9,0,1.6-0.2,2.2-0.7V133.9z"/>
		<path class="st8" d="M436.1,104.9c0,0.6-0.2,1.2-0.7,1.6c-0.4,0.4-1,0.6-1.6,0.6c-0.6,0-1.2-0.2-1.6-0.6c-0.4-0.4-0.7-1-0.7-1.6
			c0-0.6,0.2-1.1,0.6-1.6c0.4-0.4,1-0.7,1.6-0.7c0.6,0,1.2,0.2,1.6,0.7C435.8,103.8,436.1,104.3,436.1,104.9z M435.5,134.1H432
			v-21.5h3.4V134.1z"/>
		<path class="st8" d="M461.7,123.3c0,3.4-1,6.2-2.9,8.2c-1.9,2.1-4.5,3.1-7.8,3.1c-3.2,0-5.7-1-7.6-3c-1.9-2-2.8-4.7-2.8-8
			c0-3.6,1-6.4,2.9-8.4c1.9-2.1,4.6-3.1,8-3.1c3.2,0,5.7,1,7.5,3C460.8,117.1,461.7,119.8,461.7,123.3z M458.2,123.4
			c0-2.7-0.6-4.8-1.8-6.2c-1.2-1.4-2.9-2.2-5.1-2.2c-2.2,0-4,0.7-5.2,2.2c-1.3,1.5-1.9,3.6-1.9,6.2c0,2.6,0.6,4.6,1.9,6
			c1.3,1.4,3,2.2,5.2,2.2c2.2,0,4-0.7,5.1-2.1S458.2,126.1,458.2,123.4z"/>
		<path class="st8" d="M484.7,134.1h-3.4v-12.3c0-4.5-1.7-6.8-5-6.8c-1.7,0-3.1,0.6-4.3,1.9c-1.1,1.3-1.7,2.9-1.7,4.9v12.3h-3.4
			v-21.5h3.4v3.6h0.1c1.6-2.7,4-4.1,7.1-4.1c2.4,0,4.2,0.8,5.4,2.3c1.2,1.5,1.9,3.7,1.9,6.6V134.1z"/>
		<path class="st8" d="M102.9,178c0,2.9-1,5.3-3,7c-2,1.8-4.6,2.7-7.9,2.7h-4v11.4h-3.5V169h8.3c3.2,0,5.7,0.8,7.5,2.4
			C102,172.9,102.9,175.2,102.9,178z M99.2,178.2c0-4-2.4-6-7.1-6H88v12.3h3.7c2.4,0,4.3-0.5,5.6-1.6
			C98.5,181.8,99.2,180.2,99.2,178.2z"/>
		<path class="st8" d="M121.7,199.1h-3.4v-3.4h-0.1c-1.5,2.6-3.7,3.9-6.6,3.9c-2.1,0-3.7-0.6-5-1.7c-1.2-1.1-1.9-2.6-1.9-4.5
			c0-4,2.4-6.3,7.1-7l6.4-0.9c0-3.6-1.5-5.5-4.4-5.5c-2.6,0-4.9,0.9-7,2.6v-3.5c0.6-0.5,1.7-0.9,3.2-1.4c1.5-0.4,2.9-0.7,4.1-0.7
			c5.1,0,7.6,2.7,7.6,8V199.1z M118.3,188.2l-5.2,0.7c-1.8,0.3-3,0.7-3.7,1.3c-0.7,0.6-1.1,1.6-1.1,2.9c0,1.1,0.4,1.9,1.2,2.6
			c0.8,0.7,1.8,1,3,1c1.7,0,3.1-0.6,4.2-1.8c1.1-1.2,1.7-2.7,1.7-4.5V188.2z"/>
		<path class="st8" d="M138,198.9c-0.8,0.5-1.9,0.7-3.2,0.7c-3.8,0-5.6-2.1-5.6-6.3v-12.7h-3.7v-2.9h3.7v-5.2l3.4-1.1v6.4h5.4v2.9
			h-5.4v12.1c0,1.4,0.2,2.5,0.7,3.1c0.5,0.6,1.3,0.9,2.5,0.9c0.9,0,1.6-0.2,2.2-0.7V198.9z"/>
		<path class="st8" d="M152.3,198.9c-0.8,0.5-1.9,0.7-3.2,0.7c-3.8,0-5.6-2.1-5.6-6.3v-12.7h-3.7v-2.9h3.7v-5.2l3.4-1.1v6.4h5.4v2.9
			h-5.4v12.1c0,1.4,0.2,2.5,0.7,3.1c0.5,0.6,1.3,0.9,2.5,0.9c0.9,0,1.6-0.2,2.2-0.7V198.9z"/>
		<path class="st8" d="M173.8,189.2h-15.2c0.1,2.4,0.7,4.3,1.9,5.6c1.2,1.3,2.9,1.9,5.1,1.9c2.4,0,4.7-0.8,6.7-2.4v3.2
			c-1.9,1.4-4.4,2.1-7.5,2.1c-3.1,0-5.5-1-7.2-3c-1.7-2-2.6-4.7-2.6-8.2c0-2.1,0.4-4.1,1.3-5.8c0.9-1.8,2-3.1,3.6-4.1s3.2-1.4,5-1.4
			c2.8,0,5,0.9,6.5,2.7c1.6,1.8,2.3,4.3,2.3,7.6V189.2z M170.3,186.3c0-2-0.5-3.5-1.4-4.6c-0.9-1.1-2.2-1.6-3.9-1.6
			c-1.6,0-3,0.6-4.1,1.7c-1.1,1.1-1.8,2.7-2.1,4.6H170.3z"/>
		<path class="st8" d="M189.9,181.1c-0.6-0.5-1.5-0.7-2.6-0.7c-1.5,0-2.8,0.7-3.7,2.2c-1,1.4-1.4,3.3-1.4,5.6v11h-3.4v-21.5h3.4v4.4
			h0.1c0.5-1.5,1.2-2.7,2.2-3.5c1-0.9,2.1-1.3,3.4-1.3c0.9,0,1.6,0.1,2.1,0.3V181.1z"/>
		<path class="st8" d="M211.2,199.1h-3.4v-12.3c0-4.5-1.7-6.8-5-6.8c-1.7,0-3.1,0.6-4.3,1.9c-1.1,1.3-1.7,2.9-1.7,4.9v12.3h-3.4
			v-21.5h3.4v3.6h0.1c1.6-2.7,4-4.1,7.1-4.1c2.4,0,4.2,0.8,5.4,2.3c1.2,1.5,1.9,3.7,1.9,6.6V199.1z"/>
		<path class="st8" d="M229.2,193.4c0,1.9-0.7,3.4-2.2,4.5c-1.4,1.2-3.3,1.7-5.7,1.7c-2,0-3.8-0.4-5.3-1.3v-3.7
			c1.7,1.4,3.6,2.1,5.6,2.1c2.7,0,4.1-1,4.1-3c0-0.8-0.3-1.5-0.8-2c-0.5-0.5-1.7-1.2-3.6-2.1c-1.9-0.8-3.2-1.7-4-2.6
			c-0.8-0.9-1.2-2.2-1.2-3.7c0-1.8,0.7-3.3,2.1-4.5c1.4-1.2,3.2-1.8,5.4-1.8c1.7,0,3.2,0.3,4.6,1v3.5c-1.4-1-3-1.5-4.9-1.5
			c-1.1,0-2,0.3-2.7,0.8c-0.7,0.6-1,1.3-1,2.2c0,1,0.3,1.7,0.8,2.2c0.5,0.5,1.6,1.1,3.3,1.8c2,0.9,3.5,1.8,4.3,2.7
			C228.8,190.7,229.2,191.9,229.2,193.4z"/>
		<path class="st8" d="M261.2,199.1h-3.4v-3.4h-0.1c-1.4,2.6-3.6,3.9-6.6,3.9c-5.1,0-7.7-3.1-7.7-9.2v-12.8h3.4v12.3
			c0,4.5,1.7,6.8,5.2,6.8c1.7,0,3.1-0.6,4.2-1.9c1.1-1.2,1.6-2.9,1.6-4.8v-12.4h3.4V199.1z"/>
		<path class="st8" d="M279.7,193.4c0,1.9-0.7,3.4-2.2,4.5c-1.4,1.2-3.3,1.7-5.7,1.7c-2,0-3.8-0.4-5.3-1.3v-3.7
			c1.7,1.4,3.6,2.1,5.6,2.1c2.7,0,4.1-1,4.1-3c0-0.8-0.3-1.5-0.8-2c-0.5-0.5-1.7-1.2-3.6-2.1c-1.9-0.8-3.2-1.7-4-2.6
			c-0.8-0.9-1.2-2.2-1.2-3.7c0-1.8,0.7-3.3,2.1-4.5c1.4-1.2,3.2-1.8,5.4-1.8c1.7,0,3.2,0.3,4.6,1v3.5c-1.4-1-3-1.5-4.9-1.5
			c-1.1,0-2,0.3-2.7,0.8c-0.7,0.6-1,1.3-1,2.2c0,1,0.3,1.7,0.8,2.2c0.5,0.5,1.6,1.1,3.3,1.8c2,0.9,3.5,1.8,4.3,2.7
			C279.3,190.7,279.7,191.9,279.7,193.4z"/>
		<path class="st8" d="M288.6,169.9c0,0.6-0.2,1.2-0.7,1.6c-0.4,0.4-1,0.6-1.6,0.6c-0.6,0-1.2-0.2-1.6-0.6c-0.4-0.4-0.7-1-0.7-1.6
			c0-0.6,0.2-1.1,0.6-1.6c0.4-0.4,1-0.7,1.6-0.7c0.6,0,1.2,0.2,1.6,0.7C288.4,168.8,288.6,169.3,288.6,169.9z M288,199.1h-3.4v-21.5
			h3.4V199.1z"/>
		<path class="st8" d="M312.6,199.1h-3.4v-12.3c0-4.5-1.7-6.8-5-6.8c-1.7,0-3.1,0.6-4.3,1.9c-1.1,1.3-1.7,2.9-1.7,4.9v12.3h-3.4
			v-21.5h3.4v3.6h0.1c1.6-2.7,4-4.1,7.1-4.1c2.4,0,4.2,0.8,5.4,2.3c1.2,1.5,1.9,3.7,1.9,6.6V199.1z"/>
		<path class="st8" d="M337.1,197.4c0,7.9-3.8,11.8-11.3,11.8c-2.6,0-5-0.5-7-1.5v-3.4c2.4,1.3,4.7,2,6.9,2c5.3,0,8-2.8,8-8.4v-2.4
			h-0.1c-1.6,2.8-4.1,4.1-7.4,4.1c-1.7,0-3.3-0.4-4.6-1.3s-2.4-2.1-3.1-3.7c-0.7-1.6-1.1-3.5-1.1-5.6c0-3.7,0.9-6.6,2.7-8.7
			c1.8-2.2,4.2-3.2,7.2-3.2c2.9,0,5,1.2,6.4,3.5h0.1v-3h3.4V197.4z M333.6,189.4v-3.2c0-1.7-0.6-3.2-1.8-4.4
			c-1.2-1.2-2.6-1.8-4.3-1.8c-2.1,0-3.8,0.8-5,2.3c-1.2,1.6-1.8,3.7-1.8,6.5c0,2.4,0.6,4.2,1.7,5.7c1.1,1.4,2.7,2.2,4.6,2.2
			s3.5-0.7,4.7-2C333,193.3,333.6,191.5,333.6,189.4z"/>
	</g>
	<g>
		<g>
			<path class="st8" d="M79.4,263c0,0.6-0.2,1.2-0.7,1.7c-0.5,0.5-1,0.7-1.7,0.7c-0.6,0-1.2-0.2-1.6-0.7c-0.4-0.5-0.7-1-0.7-1.7
				c0-0.7,0.2-1.2,0.7-1.7c0.5-0.5,1-0.7,1.6-0.7c0.6,0,1.2,0.2,1.7,0.7C79.2,261.8,79.4,262.3,79.4,263z"/>
			<path class="st8" d="M109.7,264.9h-4.3l-16.3-25.2h-0.1v25.2h-3.5v-30.1H90l16.1,25.2h0.1v-25.2h3.5V264.9z"/>
			<path class="st8" d="M133.3,264.9h-16v-30.1h15.3v3.2h-11.7v10h10.9v3.2h-10.9v10.5h12.4V264.9z"/>
			<path class="st8" d="M156.7,238H148v26.9h-3.5V238h-8.7v-3.2h20.9V238z"/>
			<path class="st8" d="M201.8,264.9h-3.5v-24.5h-0.1l-10.9,24.5h-1.7l-11-24.6h-0.1v24.6h-3.4v-30.1h4.7l10.6,24.1h0.1l10.9-24.1
				h4.4V264.9z"/>
			<path class="st8" d="M232.8,264.9h-3.9l-3.2-8.4h-12.8l-3,8.4H206l11.5-30.1h3.7L232.8,264.9z M224.5,253.3l-5.2-14.1h-0.1
				l-5.1,14.1H224.5z"/>
			<path class="st8" d="M258.4,252.7c0,8.5-3.8,12.7-11.4,12.7c-7.3,0-11-4.1-11-12.2v-18.4h3.5V253c0,6.2,2.6,9.2,7.8,9.2
				c5,0,7.5-3,7.5-8.9v-18.5h3.5V252.7z"/>
			<path class="st8" d="M269.3,264.9h-3.5v-30.1h3.5V264.9z"/>
		</g>
		<g>
			<path class="st38" d="M91.7,385.6v94L236,441.5c7.3-1.9,12.4-6.6,12.6-11.4l3-87.5L91.7,385.6z"/>
			<path class="st27" d="M204.1,480.6l-17.6-4.6c-1.6-0.4-3.3-0.4-4.9,0l-55.7,15c-3.5,0.8-3.2,2.3-0.3,2.9l16.6,4.5
				c1.9,0.5,3.8,0.5,5.7,0l56.4-15C207,482.9,206.9,481.4,204.1,480.6z"/>
			<path class="st53" d="M125.6,494l16.6,4.5c1.9,0.5,3.8,0.5,5.7,0l56.4-15c1.3-0.3,2-0.8,2-1.3l0,0c0,0.7,0,1.2,0,1.9
				c0,0.5-0.7,1-2,1.3l-56.4,15c-1.9,0.5-3.8,0.5-5.7,0l-16.6-4.5c-1.5-0.3-2.2-0.9-2.2-1.5c0-0.7,0-1.2,0-1.8
				C123.4,493.2,124.2,493.7,125.6,494z"/>
			<path class="st28" d="M152,488.9l23.2-6.2c0.8-0.2,1.4-0.8,1.6-1.6l6.9-26.7l-26,7l-6.8,26.5C150.7,488.5,151.3,489.1,152,488.9z
				"/>
			<path class="st53" d="M154.5,462.3l3.1-0.8l-6.8,26.3c-0.1,0.5,0.2,0.9,0.6,1.1l0,0l-2.4-0.7c-0.6-0.1-1-0.7-0.8-1.3L154.5,462.3
				z"/>
			<path class="st53" d="M87.8,380.9V475c0,4.7,3.8,7.5,8.6,6.3l149-39.9c4.7-1.3,8.6-6.1,8.6-10.8v-94.1c0-4.7-3.8-7.5-8.6-6.3
				l-149,39.9C91.7,371.3,87.8,376.2,87.8,380.9z M93.9,382.1c0-3.2,2.1-6,5.2-6.8l144.9-39c2.2-0.6,4.3,1.1,4.3,3.3v90.2
				c0,3.3-2.2,6.2-5.4,7L98.3,475.3c-2.2,0.6-4.4-1.1-4.4-3.4V382.1z"/>
			<radialGradient id="SVGID_1_" cx="116.6285" cy="376.0013" r="48.3453" gradientUnits="userSpaceOnUse">
				<stop  offset="0.1473" style="stop-color:#968CB5"/>
				<stop  offset="0.9883" style="stop-color:#665986"/>
			</radialGradient>
			<path class="st32" d="M93.4,368.3l147-39.4c1-0.3,2.4-0.5,4.7,0.1c2.2,0.6,3.1,0.8,4.4,1.2c0,0,0,0,0,0c-1.2-0.3-2.6-0.4-4.1,0
				l-149,39.9c-4.7,1.3-8.6,6.1-8.6,10.8V475c0,2.8,1.4,4.9,3.4,5.9c0,0,0.1,0,0.1,0.1c0.2,0.1,0.5,0.2,0.7,0.3
				c-0.4-0.1-1.7-0.4-2.8-0.7c-2.7-0.7-4.5-3.1-4.5-6.3v-95.1C84.9,374.4,88.7,369.5,93.4,368.3z"/>
			<path class="st28" d="M99.1,375.2l144.9-39c2.2-0.6,4.3,1.1,4.3,3.3v6.9L93.9,387.8v-5.8C93.9,378.9,96,376.1,99.1,375.2z"/>
			<path class="st28" d="M202.9,393.3L138,411.9c-1.1,0.3-2.6-0.3-3-0.4c-0.9-0.3-1.5-1.1-1.5-2.2v-21.2c0-1.6,1.3-3.3,3-3.8
				l65.5-17.6c0.5-0.1,1.7-0.5,2.4-0.2c0.9,0.3,1.7,0.7,2.2,1.1l-0.7,21.8C205.9,391.2,204.6,392.9,202.9,393.3L202.9,393.3z"/>
			
				<radialGradient id="SVGID_00000032607152370416091950000011439146471800457395_" cx="-1473.3545" cy="801.0009" r="0.4371" gradientTransform="matrix(-16.2657 102.1207 165.0416 26.2877 -155990.875 129766.8438)" gradientUnits="userSpaceOnUse">
				<stop  offset="0.2766" style="stop-color:#FFFFFF"/>
				<stop  offset="1" style="stop-color:#AEA2CC"/>
			</radialGradient>
			<path style="fill:url(#SVGID_00000032607152370416091950000011439146471800457395_);" d="M204.4,394.1L138,411.9
				c-1.6,0.4-3-0.5-3-2.2v-20.8c0-1.6,1.3-3.3,3-3.8l66.4-17.8c1.6-0.4,3,0.5,3,2.2v20.8C207.4,391.9,206.1,393.7,204.4,394.1
				L204.4,394.1z"/>
			
				<radialGradient id="SVGID_00000152984123799106130500000016201503612822915771_" cx="-1467.7942" cy="807.8381" r="0.5736" gradientTransform="matrix(-0.1399 44.5434 89.3072 0.2806 -72209.5938 65563.1953)" gradientUnits="userSpaceOnUse">
				<stop  offset="0.11" style="stop-color:#FDCC7A"/>
				<stop  offset="0.59" style="stop-color:#F7B548"/>
			</radialGradient>
			<path style="fill:url(#SVGID_00000152984123799106130500000016201503612822915771_);" d="M165,427.8l-46.4,12.4
				c-1.5,0.4-2.7-0.5-2.7-2v-7.8c0-1.5,1.2-3,2.7-3.4l46.4-12.4c1.5-0.4,2.7,0.5,2.7,2v7.8C167.7,425.9,166.5,427.4,165,427.8z"/>
			
				<radialGradient id="SVGID_00000087391305341994269100000016805255820796564358_" cx="-1467.5081" cy="807.3164" r="0.5736" gradientTransform="matrix(-0.1399 44.5434 89.3072 0.2806 -72100.2109 65533.6523)" gradientUnits="userSpaceOnUse">
				<stop  offset="0.11" style="stop-color:#FDCC7A"/>
				<stop  offset="0.59" style="stop-color:#F7B548"/>
			</radialGradient>
			<path style="fill:url(#SVGID_00000087391305341994269100000016805255820796564358_);" d="M228.2,410.8l-46.4,12.4
				c-1.5,0.4-2.7-0.5-2.7-2v-7.8c0-1.5,1.2-3,2.7-3.4l46.4-12.4c1.5-0.4,2.7,0.5,2.7,2v7.8C230.9,408.9,229.7,410.4,228.2,410.8z"/>
			<polygon class="st37" points="143.2,426.4 143,426.4 143.4,427.8 206.1,411.1 206.1,428.1 207.5,428.1 207.5,409.2 			"/>
			
				<radialGradient id="SVGID_00000054256405277958391730000001128065298663355556_" cx="-1474.0637" cy="807.3478" r="0.5736" gradientTransform="matrix(-8.8675 44.8788 88.7889 17.5436 -84547.0703 52408.2812)" gradientUnits="userSpaceOnUse">
				<stop  offset="0.2766" style="stop-color:#FFFFFF"/>
				<stop  offset="1" style="stop-color:#AEA2CC"/>
			</radialGradient>
			<path style="fill:url(#SVGID_00000054256405277958391730000001128065298663355556_);" d="M229.9,433.4l-46.4,12.4
				c-1.5,0.4-2.7-0.5-2.7-2v-7.8c0-1.5,1.2-3,2.7-3.4l46.4-12.4c1.5-0.4,2.7,0.5,2.7,2v7.8C232.6,431.5,231.4,433,229.9,433.4z"/>
			
				<radialGradient id="SVGID_00000043447714070304216900000003491447614993197719_" cx="208.8257" cy="324.9688" r="122.0442" gradientUnits="userSpaceOnUse">
				<stop  offset="0.1488" style="stop-color:#FFFFFF;stop-opacity:0.3"/>
				<stop  offset="1" style="stop-color:#FFFFFF;stop-opacity:0"/>
			</radialGradient>
			<path style="fill:url(#SVGID_00000043447714070304216900000003491447614993197719_);" d="M87.8,380.9V475c0,4.7,3.8,7.5,8.6,6.3
				l149-39.9c4.7-1.3,8.6-6.1,8.6-10.8v-94.1c0-4.7-3.8-7.5-8.6-6.3l-149,39.9C91.7,371.3,87.8,376.2,87.8,380.9z"/>
		</g>
		
			<radialGradient id="SVGID_00000121983287484268116130000012428360744619843986_" cx="263.5954" cy="405.0311" r="46.504" gradientUnits="userSpaceOnUse">
			<stop  offset="0.1473" style="stop-color:#968CB5"/>
			<stop  offset="0.9883" style="stop-color:#665986"/>
		</radialGradient>
		<path style="fill:url(#SVGID_00000121983287484268116130000012428360744619843986_);" d="M323.7,381.2l-81,21.7
			c-3.3,0.9-6,4.3-6,7.6v56.2c0,3.3,3.6,6.3,6.9,5.4l80.1-22.7c3.3-0.9,6-4.3,6-7.6l1.6-56.6C331.3,381.9,327,380.3,323.7,381.2z"/>
		<path class="st38" d="M325,448.3l-80.1,21.5c-1.5,0.4-2.8-0.5-2.8-2v-57.9c0-1.5,1.2-3.1,2.8-3.5l80.1-21.5c1.5-0.4,2.8,0.5,2.8,2
			v57.9C327.7,446.3,326.5,447.9,325,448.3z"/>
		<path class="st25" d="M242,408.4v6.7l86-23.1v-6.7c-0.3-0.7-1-1-1.8-0.8l-82.4,22.1C242.9,406.8,242.2,407.6,242,408.4z"/>
		<g>
			<path class="st53" d="M325.5,382.2l-81,21.7c-3.3,0.9-6,4.3-6,7.6v56.2c0,3.3,2.7,5.3,6,4.4l81-21.7c3.3-0.9,6-4.3,6-7.6v-56.2
				C331.5,383.2,328.8,381.3,325.5,382.2z M324.9,443.3c0,0.9-0.8,1.9-1.7,2.2l-76.3,20.4c-0.9,0.3-1.7-0.3-1.7-1.3V411
				c0-0.9,0.8-1.9,1.7-2.2l76.3-20.4c0.9-0.3,1.7,0.3,1.7,1.3V443.3z"/>
			
				<ellipse transform="matrix(0.6585 -0.7526 0.7526 0.6585 -247.5552 370.9068)" class="st27" cx="284.9" cy="458.2" rx="1.2" ry="1"/>
		</g>
		<g>
			<g>
				<polygon class="st37" points="296.1,412.8 297.1,412.5 297.1,425.8 284.6,429.2 284.6,428.1 296.1,425 				"/>
			</g>
			<path class="st25" d="M296.3,434.1l0.6-0.2c1.7-0.5,3.1,0.6,3.1,2.3v0.6c0,1.7-1.4,3.5-3.1,3.9l-0.6,0.2
				c-1.7,0.5-3.1-0.6-3.1-2.3V438C293.2,436.3,294.6,434.6,296.3,434.1z"/>
			<path class="st25" d="M284.2,437.3l0.6-0.2c1.7-0.5,3.1,0.6,3.1,2.3v0.6c0,1.7-1.4,3.5-3.1,3.9l-0.6,0.2
				c-1.7,0.5-3.1-0.6-3.1-2.3v-0.6C281.2,439.6,282.5,437.8,284.2,437.3z"/>
			<path class="st25" d="M272.2,440.6l0.6-0.2c1.7-0.5,3.1,0.6,3.1,2.3v0.6c0,1.7-1.4,3.5-3.1,3.9l-0.6,0.2
				c-1.7,0.5-3.1-0.6-3.1-2.3v-0.6C269.1,442.8,270.5,441,272.2,440.6z"/>
			<path class="st25" d="M272.2,428.5l0.6-0.2c1.7-0.5,3.1,0.6,3.1,2.3v0.6c0,1.7-1.4,3.5-3.1,3.9l-0.6,0.2
				c-1.7,0.5-3.1-0.6-3.1-2.3v-0.6C269.1,430.8,270.5,429,272.2,428.5z"/>
			<g>
				<path class="st37" d="M296.5,422l0.2-0.1c1.8-0.5,3.3,0.6,3.3,2.4v0.2c0,1.8-1.5,3.7-3.3,4.2l-0.2,0.1c-1.8,0.5-3.3-0.6-3.3-2.4
					v-0.2C293.2,424.4,294.6,422.5,296.5,422z"/>
				<path class="st37" d="M284.4,425.3l0.2-0.1c1.8-0.5,3.3,0.6,3.3,2.4v0.2c0,1.8-1.5,3.7-3.3,4.2l-0.2,0.1
					c-1.8,0.5-3.3-0.6-3.3-2.4v-0.2C281.2,427.6,282.6,425.7,284.4,425.3z"/>
				<path class="st37" d="M296.5,410l0.2-0.1c1.8-0.5,3.3,0.6,3.3,2.4v0.2c0,1.8-1.5,3.7-3.3,4.2l-0.2,0.1c-1.8,0.5-3.3-0.6-3.3-2.4
					v-0.2C293.2,412.4,294.6,410.5,296.5,410z"/>
			</g>
			<path class="st25" d="M284.2,413.3l0.6-0.2c1.7-0.5,3.1,0.6,3.1,2.3v0.6c0,1.7-1.4,3.5-3.1,3.9l-0.6,0.2
				c-1.7,0.5-3.1-0.6-3.1-2.3v-0.6C281.2,415.5,282.5,413.7,284.2,413.3z"/>
			<path class="st25" d="M272.2,416.5l0.6-0.2c1.7-0.5,3.1,0.6,3.1,2.3v0.6c0,1.7-1.4,3.5-3.1,3.9l-0.6,0.2
				c-1.7,0.5-3.1-0.6-3.1-2.3v-0.6C269.1,418.7,270.5,417,272.2,416.5z"/>
		</g>
		
			<radialGradient id="SVGID_00000127748999864259505460000002826130811055048578_" cx="309.5368" cy="400.6239" r="66.6508" gradientUnits="userSpaceOnUse">
			<stop  offset="0.1473" style="stop-color:#FFFFFF;stop-opacity:0.3"/>
			<stop  offset="1" style="stop-color:#FFFFFF;stop-opacity:0"/>
		</radialGradient>
		<path style="fill:url(#SVGID_00000127748999864259505460000002826130811055048578_);" d="M325.5,382.2l-81,21.7
			c-3.3,0.9-6,4.3-6,7.6v56.2c0,3.3,2.7,5.3,6,4.4l81-21.7c3.3-0.9,6-4.3,6-7.6v-56.2C331.5,383.2,328.8,381.3,325.5,382.2z"/>
		
			<ellipse transform="matrix(0.6585 -0.7526 0.7526 0.6585 -247.5552 370.9068)" class="st27" cx="284.9" cy="458.2" rx="1.2" ry="1"/>
		<g>
			<polygon class="st38" points="402.3,553 287.8,583.6 287.8,515 402.3,484.3 			"/>
			<polygon class="st26" points="401.6,486.8 288,517.2 288,507.2 401.6,476.8 			"/>
			
				<radialGradient id="SVGID_00000147917891302921071540000005661996013930454935_" cx="307.28" cy="497.397" r="38.4282" fx="288.5536" fy="495.3777" gradientUnits="userSpaceOnUse">
				<stop  offset="0.1473" style="stop-color:#968CB5"/>
				<stop  offset="0.9883" style="stop-color:#665986"/>
			</radialGradient>
			<path style="fill:url(#SVGID_00000147917891302921071540000005661996013930454935_);" d="M287.1,506.1l116.5-31.2
				c-0.2-0.3-0.5-0.5-0.9-0.8c-1.2-0.9-4.3-2.2-8.8-1l-103.2,27.7c-4.9,1.3-8.7,6.5-8.7,10.8v70.6c0,3.5,1.7,6.5,5.1,6.8V506.1z"/>
			<path class="st27" d="M402.9,559.1L285,589c0.1,1,0.1,1.7,0.2,2.3c0,0.3,0.3,0.7,0.8,1l47.6,12.9c2.3,0.9,5.9,1.3,9.6,0.3
				l110.8-30c1.2-0.3,1.9-1.6,1.9-2.6c0-0.7,0-1.4-0.1-2.3l-48.7-11.3C405.9,558.7,404.4,558.7,402.9,559.1z"/>
			<path class="st53" d="M398.1,473.8l-106.6,28.6c-4.2,1.1-7.7,5.5-7.7,9.7v72.4c0,4.2,3.4,6.8,7.7,5.6l106.6-28.6
				c4.2-1.1,7.7-5.5,7.7-9.7v-72.4C405.8,475.2,402.3,472.6,398.1,473.8z M400,549.2c0,1.3-1,2.6-2.3,2.9l-105.3,28.2
				c-1.3,0.3-2.3-0.4-2.3-1.7v-68.2c0-1.3,1-2.6,2.3-2.9l105.3-28.2c1.3-0.3,2.3,0.4,2.3,1.7V549.2z"/>
			
				<linearGradient id="SVGID_00000119839775268939494040000004533390947195280776_" gradientUnits="userSpaceOnUse" x1="419.9775" y1="719.506" x2="362.9179" y2="558.4768">
				<stop  offset="0.6335" style="stop-color:#7F759A"/>
				<stop  offset="1" style="stop-color:#CCC8D7"/>
				<stop  offset="1" style="stop-color:#FFFFFF;stop-opacity:0"/>
			</linearGradient>
			<path style="fill:url(#SVGID_00000119839775268939494040000004533390947195280776_);" d="M402.9,556.5l-117.1,31.4
				c-0.8,0.2-1.1,1.3-0.4,1.6l48.9,13.4c2.3,0.9,5,1.1,7.7,0.3l112-30.3c1.8-0.5,2.5-3,1-3.7l-47.9-12.5
				C405.9,556.2,404.4,556.1,402.9,556.5z"/>
			<g>
				
					<radialGradient id="SVGID_00000011003989461959411000000006273722758764645262_" cx="-1465.8977" cy="809.8558" r="0.4384" gradientTransform="matrix(-0.1399 44.5434 89.3072 0.2806 -72209.5938 65585.0938)" gradientUnits="userSpaceOnUse">
					<stop  offset="0.11" style="stop-color:#FDCC7A"/>
					<stop  offset="0.59" style="stop-color:#F7B548"/>
				</radialGradient>
				<path style="fill:url(#SVGID_00000011003989461959411000000006273722758764645262_);" d="M337,532l-30.8,8.3
					c-1.3,0.4-2.4-0.4-2.4-1.7v-6.9c0-1.3,1.1-2.7,2.4-3l30.8-8.3c1.3-0.4,2.4,0.4,2.4,1.7v6.9C339.4,530.3,338.4,531.7,337,532z"/>
				
					<radialGradient id="SVGID_00000008129280929268952780000007646658710767047855_" cx="-1465.505" cy="809.1395" r="0.4381" gradientTransform="matrix(-0.1399 44.5434 89.3072 0.2806 -72100.2109 65555.5469)" gradientUnits="userSpaceOnUse">
					<stop  offset="0.11" style="stop-color:#FDCC7A"/>
					<stop  offset="0.59" style="stop-color:#F7B548"/>
				</radialGradient>
				<path style="fill:url(#SVGID_00000008129280929268952780000007646658710767047855_);" d="M382.8,519.7l-30.8,8.3
					c-1.3,0.4-2.4-0.4-2.4-1.7v-6.9c0-1.3,1.1-2.7,2.4-3l30.8-8.3c1.3-0.4,2.4,0.4,2.4,1.7v6.9C385.1,518,384.1,519.4,382.8,519.7z"
					/>
				<polygon class="st37" points="311.8,532.4 311.6,532.4 312,533.6 367.3,518.9 367.3,533.9 368.6,533.9 368.6,517.3 				"/>
				
					<radialGradient id="SVGID_00000057115106712507775870000000775819612085665464_" cx="-1472.8188" cy="809.2966" r="0.4253" fx="-1473.1003" fy="809.2809" gradientTransform="matrix(-8.8675 44.8788 88.7889 17.5436 -84547.0703 52430.1758)" gradientUnits="userSpaceOnUse">
					<stop  offset="0.2766" style="stop-color:#FFFFFF"/>
					<stop  offset="1" style="stop-color:#AEA2CC"/>
				</radialGradient>
				<path style="fill:url(#SVGID_00000057115106712507775870000000775819612085665464_);" d="M384.2,539.7l-30.8,8.3
					c-1.3,0.4-2.4-0.4-2.4-1.7v-6.9c0-1.3,1.1-2.7,2.4-3l30.8-8.3c1.3-0.4,2.4,0.4,2.4,1.7v6.9C386.6,538,385.5,539.3,384.2,539.7z"
					/>
			</g>
			
				<radialGradient id="SVGID_00000044138254682491200250000015391792504767007898_" cx="372.0742" cy="496.303" r="74.015" gradientUnits="userSpaceOnUse">
				<stop  offset="0.1473" style="stop-color:#FFFFFF;stop-opacity:0.3"/>
				<stop  offset="1" style="stop-color:#FFFFFF;stop-opacity:0"/>
			</radialGradient>
			<path style="fill:url(#SVGID_00000044138254682491200250000015391792504767007898_);" d="M398.1,473.8l-106.6,28.6
				c-4.2,1.1-7.7,5.5-7.7,9.7v72.4c0,4.2,3.4,6.8,7.7,5.6l106.6-28.6c4.2-1.1,7.7-5.5,7.7-9.7v-72.4
				C405.8,475.2,402.3,472.6,398.1,473.8z"/>
		</g>
		<g>
			<path class="st27" d="M449,525.8c0-3.2,0-70.5,0-74c0-3.6,1.9-5.9,7.2-7.1c5.3-1.2,29.1-7.5,30.9-7.9c1.2-0.3,2.3,0.3,3,1.5
				c-0.1-1.3-0.3-2.5-1.5-2.8c-2.3-0.6-3.9-1.2-5.4-0.8l-30.7,8.2c-3.5,0.9-6.3,4.5-6.3,7.9v76.1c0,2.9,1.9,3.9,4.2,4.6
				C449.8,530.4,449,528.2,449,525.8z"/>
			<g>
				<path class="st38" d="M487.1,437.3l-34.9,9.4c-1.2,0.3-2.2,1.8-2.2,3.2v77.6c0,1.5,1,2.4,2.2,2.1l34.9-9.4
					c1.2-0.3,2.2-1.8,2.2-3.2v-77.6C489.3,437.9,488.3,437,487.1,437.3z"/>
				<path class="st25" d="M488.3,437l-37.4,10c-0.5,0.1-0.9,0.7-0.9,1.2v9.6l39.3-10.5v-9.6C489.3,437.2,488.9,436.9,488.3,437z"/>
				<g>
					<path class="st37" d="M486.3,476l-33.8,9.1v6.8l33.8-9.1V476z"/>
					<path class="st37" d="M486.3,487.6l-33.8,9.1v6.8l33.8-9.1V487.6z"/>
					<path class="st31" d="M454.9,477.7c2,0.8,4.1-1.9,2.8-3.5c-0.1-0.1-0.2-0.1-0.3-0.2c-2-0.8-4.1,1.9-2.8,3.5
						C454.8,477.6,454.8,477.6,454.9,477.7z"/>
					<path class="st31" d="M468.5,474.1c2,0.8,4.1-1.9,2.8-3.5c-0.1-0.1-0.2-0.1-0.3-0.2c-2-0.8-4.1,1.9-2.8,3.5
						C468.3,473.9,468.4,474,468.5,474.1z"/>
					<path class="st31" d="M481.5,456.4l-23.6,6.3c-0.5,0.1-0.9,0.6-0.9,1.1l0,0c0,0.5,0.4,0.8,0.9,0.6l23.6-6.3
						c0.5-0.1,0.9-0.6,0.9-1.1l0,0C482.3,456.6,481.9,456.3,481.5,456.4z"/>
					<path class="st31" d="M481.4,470.6c2,0.8,4.1-1.9,2.8-3.5c-0.1-0.1-0.2-0.1-0.3-0.2c-2-0.8-4.1,1.9-2.8,3.5
						C481.2,470.5,481.3,470.5,481.4,470.6z"/>
				</g>
				<g>
					<path class="st27" d="M476.4,521.6l-13.8,3.7c-0.2,0.1-0.4-0.1-0.4-0.3c0-0.2,0.2-0.5,0.4-0.5l13.8-3.7
						c0.2-0.1,0.4,0.1,0.4,0.3S476.7,521.6,476.4,521.6z"/>
				</g>
			</g>
			<g>
				
					<radialGradient id="SVGID_00000060751195751936794470000012777464404297043641_" cx="450.9297" cy="457.2651" r="26.0946" gradientUnits="userSpaceOnUse">
					<stop  offset="0.1473" style="stop-color:#968CB5"/>
					<stop  offset="0.9883" style="stop-color:#665986"/>
				</radialGradient>
				<path style="fill:url(#SVGID_00000060751195751936794470000012777464404297043641_);" d="M449,525.8c0-3.2,0-70.5,0-74
					c0-3.6,1.9-5.9,7.2-7.1c5.3-1.2,29.1-7.5,30.9-7.9c1.2-0.3,2.3,0.3,3,1.5c-0.1-1.3,0.3-2.7-0.8-3.2c-2.3-1-4.6-0.8-6.2-0.5
					l-30.7,8.2c-3.5,0.9-6.3,4.5-6.3,7.9v76.1c0,2.9,1.9,3.9,4.2,4.6C449.8,530.4,449,528.2,449,525.8z"/>
				<g>
					<path class="st53" d="M486.6,435.2l-33.9,9.1c-2.8,0.7-5,3.6-5,6.4V527c0,3.5,2.8,5.5,6.3,4.6l31.5-8.4
						c3.5-0.9,6.3-4.5,6.3-7.9v-76.4C491.7,436.1,489.4,434.4,486.6,435.2z M489.1,515.6c0,2.2-1.7,4.4-3.9,4.9l-31,8.3
						c-2.2,0.6-3.9-0.7-3.9-2.9v-75.7c0-1.5,1.2-3,2.7-3.4l6.2-1.6v1.7c0,0.7,0.6,1.1,1.3,0.9l18.9-5.1c0.7-0.2,1.3-0.9,1.3-1.6
						v-1.7l5.9-1.6c1.5-0.4,2.7,0.5,2.7,1.9V515.6z"/>
					
						<ellipse transform="matrix(0.6585 -0.7526 0.7526 0.6585 -170.7739 508.1122)" class="st27" cx="474.5" cy="442.2" rx="0.8" ry="0.6"/>
					<path class="st27" d="M467.5,444.7l4.6-1.2c0.2-0.1,0.4-0.3,0.4-0.5v-0.2c0-0.2-0.2-0.4-0.4-0.3l-4.6,1.2
						c-0.2,0.1-0.4,0.3-0.4,0.5v0.2C467.1,444.6,467.2,444.7,467.5,444.7z"/>
				</g>
			</g>
			<g>
				
					<radialGradient id="SVGID_00000054262757763844497400000013904667461493239195_" cx="483.747" cy="456.5938" r="52.3529" gradientUnits="userSpaceOnUse">
					<stop  offset="0.1473" style="stop-color:#FFFFFF;stop-opacity:0.3"/>
					<stop  offset="1" style="stop-color:#FFFFFF;stop-opacity:0"/>
				</radialGradient>
				<path style="fill:url(#SVGID_00000054262757763844497400000013904667461493239195_);" d="M486.6,435.2l-33.9,9.1
					c-2.8,0.7-5,3.6-5,6.4V527c0,3.5,2.8,5.5,6.3,4.6l31.5-8.4c3.5-0.9,6.3-4.5,6.3-7.9v-76.4C491.7,436.1,489.4,434.4,486.6,435.2z
					"/>
			</g>
		</g>
	</g>
	<g>
		<path class="st84" d="M505.7,31.5h-9v-9h9V31.5z"/>
		<path class="st85" d="M515.6,31.5h-9v-9h9V31.5L515.6,31.5z"/>
		<path class="st86" d="M505.7,41.4h-9v-9h9V41.4z"/>
		<path class="st87" d="M515.6,41.4h-9v-9h9V41.4L515.6,41.4z"/>
	</g>
</g>
<path class="st24" d="M612,754H0v38h612V754z"/>
</svg>
