<?xml version="1.0" encoding="UTF-8"?>
<svg id="my-svg" xmlns="http://www.w3.org/2000/svg" xmlns:xlink="http://www.w3.org/1999/xlink" version="1.1" viewBox="0 0 1920 382">
  <!-- Generator: Adobe Illustrator 29.3.1, SVG Export Plug-In . SVG Version: 2.1.0 Build 151)  -->
  <defs>
    <style>
      .st0, .st1, .st2, .st3, .st4, .st5, .st6, .st7 {
        fill: none;
      }

      .st1 {
        clip-path: url(#clippath-4);
      }

      .st2 {
        clip-path: url(#clippath-8);
      }

      .st3 {
        clip-path: url(#clippath-34);
      }

      .st4 {
        clip-path: url(#clippath-12);
      }

      .st8 {
        stroke-miterlimit: 4;
        stroke-width: 1px;
      }

      .st8, .st9, .st10, .st11 {
        stroke: #333;
      }

      .st8, .st9, .st11 {
        fill-opacity: 0;
      }

      .st9 {
        stroke-miterlimit: 4;
        stroke-width: 1px;
      }

      .st5 {
        clip-path: url(#clippath);
      }

      .st12, .st13, .st14 {
        font-size: 12px;
      }

      .st12, .st15 {
        font-family: ArialMT, Arial;
      }

      .st16 {
        fill: #ececff;
      }

      .st16, .st6 {
        stroke: #9370db;
      }

      .st14, .st17 {
        font-family: Arial-BoldMT, Arial;
        font-weight: 700;
      }

      .st7 {
        stroke: #000;
      }
    </style>
    <clipPath id="clippath">
      <polygon class="st0" points="816.3 1 817.3 1 816.3 2 816.3 1"/>
    </clipPath>
    <clipPath id="clippath-1">
      <polygon class="st5" points="814.3 -1 813.3 -1 814.3 -2 814.3 -1"/>
    </clipPath>
    <clipPath id="clippath-4">
      <polygon class="st0" points="816.3 1 817.3 1 816.3 2 816.3 1"/>
    </clipPath>
    <clipPath id="clippath-5">
      <polygon class="st1" points="814.3 -1 813.3 -1 814.3 -2 814.3 -1"/>
    </clipPath>
    <clipPath id="clippath-8">
      <polygon class="st0" points="816.3 1 817.3 1 816.3 2 816.3 1"/>
    </clipPath>
    <clipPath id="clippath-9">
      <polygon class="st2" points="814.3 -1 813.3 -1 814.3 -2 814.3 -1"/>
    </clipPath>
    <clipPath id="clippath-12">
      <polygon class="st0" points="816.3 1 817.3 1 816.3 2 816.3 1"/>
    </clipPath>
    <clipPath id="clippath-13">
      <polygon class="st4" points="814.3 -1 813.3 -1 814.3 -2 814.3 -1"/>
    </clipPath>
    <clipPath id="clippath-34">
      <polygon class="st0" points="963.4 346 964.4 346 963.4 347 963.4 346"/>
    </clipPath>
    <clipPath id="clippath-35">
      <polygon class="st3" points="961.4 344 960.4 344 961.4 343 961.4 344"/>
    </clipPath>
  </defs>
  <path class="st0" d=""/>
  <g>
    <g>
      <path class="st0" d=""/>
      <path class="st8" d="M908.1,111.6l-16.4,7.4,8.3,8.7,8.2-16.1Z"/>
      <path id="id_ILight_IBlinkingLight_1" class="st11" d="M881.5,162" marker-start="url(#my-svg_classDiagram-extensionStart)"/>
      <path class="st0" d=""/>
      <path class="st9" d="M1016.6,111.6l8.2,16.1,8.3-8.7-16.4-7.4Z"/>
      <path id="id_ILight_ITimerLight_2" class="st11" d="M1043.2,162" marker-start="url(#my-svg_classDiagram-extensionStart)"/>
      <path class="st0" d=""/>
      <path class="st11" d="M881.5,267l-6,17h12l-6-17Z"/>
      <path id="id_IBlinkingLight_OverheadLight_3" class="st11" d="M918.9,316" marker-start="url(#my-svg_classDiagram-extensionStart)"/>
      <path class="st0" d=""/>
      <path class="st11" d="M1043.2,267l-6,17h12l-6-17Z"/>
      <path id="id_ITimerLight_OverheadLight_4" class="st11" d="M1005.8,316" marker-start="url(#my-svg_classDiagram-extensionStart)"/>
    </g>
    <g>
      <g id="classId-ILight-0">
        <rect class="st16" x="908.9" y="8" width="107" height="104"/>
        <line class="st6" x1="908.9" y1="62" x2="1015.8" y2="62"/>
        <line class="st6" x1="908.9" y1="101" x2="1015.8" y2="101"/>
      </g>
      <g id="classId-IBlinkingLight-1">
        <rect class="st16" x="823.3" y="162" width="116.4" height="104"/>
        <line class="st6" x1="823.3" y1="216" x2="939.7" y2="216"/>
        <line class="st6" x1="823.3" y1="255" x2="939.7" y2="255"/>
      </g>
      <g id="classId-ITimerLight-2">
        <rect class="st16" x="989.7" y="162" width="107" height="104"/>
        <line class="st6" x1="989.7" y1="216" x2="1096.7" y2="216"/>
        <line class="st6" x1="989.7" y1="255" x2="1096.7" y2="255"/>
      </g>
      <g id="classId-OverheadLight-3">
        <rect class="st16" x="900" y="316" width="124.7" height="58"/>
        <line class="st6" x1="900" y1="347" x2="1024.7" y2="347"/>
        <line class="st6" x1="900" y1="363" x2="1024.7" y2="363"/>
      </g>
    </g>
  </g>
  <path class="st0" d=""/>
  <text class="st12" transform="translate(941.6 85.1)"><tspan x="0" y="0">Power()</tspan></text>
  <text class="st13" transform="translate(925.3 34.4)"><tspan class="st15"><tspan x="0" y="0" xml:space="preserve"> « interface »</tspan></tspan><tspan class="st17"><tspan x="18.4" y="14.4">ILight</tspan></tspan></text>
  <text class="st13" transform="translate(1008.5 185.3)"><tspan class="st15"><tspan x="0" y="0" xml:space="preserve"> « interface »</tspan></tspan><tspan class="st17"><tspan x="2" y="14.4">ITimerLight</tspan></tspan></text>
  <text class="st13" transform="translate(846.8 184.3)"><tspan class="st15"><tspan x="0" y="0" xml:space="preserve"> « interface »</tspan></tspan><tspan class="st17"><tspan x="-5.3" y="14.4">IBlinkingLight</tspan></tspan></text>
  <text class="st12" transform="translate(859.9 238.5)"><tspan x="0" y="0">Power()</tspan></text>
  <text class="st12" transform="translate(1024.8 238.5)"><tspan x="0" y="0">Power()</tspan></text>
  <text class="st14" transform="translate(920.5 330.1)"><tspan x="0" y="0">OverheadLight</tspan></text>
  <path class="st10" d="M1188.1,249.2"/>
  <path class="st7" d="M881.5,284l18.5,32-18.5-32Z"/>
  <path class="st7" d="M1024.7,316l18.5-32-18.5,32Z"/>
  <path class="st7" d="M895.4,123l-9.5,39,9.5-39Z"/>
  <path class="st7" d="M1029.3,123l22.5,39-22.5-39Z"/>
</svg>