<svg xmlns="http://www.w3.org/2000/svg" xmlns:xlink="http://www.w3.org/1999/xlink" viewBox="0 0 537.96 207.27"><defs><linearGradient id="linear-gradient" x1="261.29" x2="261.29" y1="168.33" y2="188.33" gradientUnits="userSpaceOnUse"><stop offset="0" stop-color="#5ea0ef"/><stop offset=".18" stop-color="#559cec"/><stop offset=".47" stop-color="#3c91e5"/><stop offset=".84" stop-color="#1380da"/><stop offset="1" stop-color="#0078d4"/></linearGradient><linearGradient id="linear-gradient-2" x1="314.85" x2="314.85" y1="30.2" y2="50.2" xlink:href="#linear-gradient"/><linearGradient id="linear-gradient-3" x1="117.22" x2="117.22" y1="37.62" y2="42.62" xlink:href="#linear-gradient"/><linearGradient id="linear-gradient-4" x1="128.79" x2="128.79" y1="37.62" y2="42.62" xlink:href="#linear-gradient"/><linearGradient id="linear-gradient-5" x1="140.35" x2="140.35" y1="37.62" y2="42.62" xlink:href="#linear-gradient"/><linearGradient id="linear-gradient-6" x1="151.91" x2="151.91" y1="37.62" y2="42.62" xlink:href="#linear-gradient"/><linearGradient id="linear-gradient-7" x1="163.48" x2="163.48" y1="37.62" y2="42.62" xlink:href="#linear-gradient"/><linearGradient id="linear-gradient-8" x1="175.04" x2="175.04" y1="37.62" y2="42.62" xlink:href="#linear-gradient"/><linearGradient id="linear-gradient-9" x1="186.6" x2="186.6" y1="37.62" y2="42.62" xlink:href="#linear-gradient"/><linearGradient id="linear-gradient-10" x1="198.17" x2="198.17" y1="37.62" y2="42.62" xlink:href="#linear-gradient"/><linearGradient id="linear-gradient-11" x1="209.73" x2="209.73" y1="37.62" y2="42.62" xlink:href="#linear-gradient"/><linearGradient id="linear-gradient-12" x1="221.29" x2="221.29" y1="37.62" y2="42.62" xlink:href="#linear-gradient"/><linearGradient id="linear-gradient-13" x1="232.85" x2="232.85" y1="37.62" y2="42.62" xlink:href="#linear-gradient"/><linearGradient id="linear-gradient-14" x1="244.42" x2="244.42" y1="37.62" y2="42.62" xlink:href="#linear-gradient"/><linearGradient id="linear-gradient-15" x1="255.98" x2="255.98" y1="37.62" y2="42.62" xlink:href="#linear-gradient"/><linearGradient id="linear-gradient-16" x1="267.54" x2="267.54" y1="37.62" y2="42.62" xlink:href="#linear-gradient"/><linearGradient id="linear-gradient-17" x1="279.11" x2="279.11" y1="37.62" y2="42.62" xlink:href="#linear-gradient"/><linearGradient id="linear-gradient-18" x1="290.67" x2="290.67" y1="37.62" y2="42.62" xlink:href="#linear-gradient"/><linearGradient id="linear-gradient-19" x1="302.23" x2="302.23" y1="37.62" y2="42.62" xlink:href="#linear-gradient"/><linearGradient id="linear-gradient-20" x1="313.8" x2="313.8" y1="37.62" y2="42.62" xlink:href="#linear-gradient"/><linearGradient id="linear-gradient-21" x1="325.36" x2="325.36" y1="37.62" y2="42.62" xlink:href="#linear-gradient"/><linearGradient id="linear-gradient-22" x1="336.92" x2="336.92" y1="37.62" y2="42.62" xlink:href="#linear-gradient"/><linearGradient id="linear-gradient-23" x1="348.49" x2="348.49" y1="37.62" y2="42.62" xlink:href="#linear-gradient"/><linearGradient id="linear-gradient-24" x1="360.05" x2="360.05" y1="37.62" y2="42.62" xlink:href="#linear-gradient"/><linearGradient id="linear-gradient-25" x1="371.61" x2="371.61" y1="37.62" y2="42.62" xlink:href="#linear-gradient"/><linearGradient id="linear-gradient-26" x1="383.18" x2="383.18" y1="37.62" y2="42.62" xlink:href="#linear-gradient"/><linearGradient id="linear-gradient-27" x1="394.74" x2="394.74" y1="37.62" y2="42.62" xlink:href="#linear-gradient"/><linearGradient id="linear-gradient-28" x1="406.3" x2="406.3" y1="37.62" y2="42.62" xlink:href="#linear-gradient"/><linearGradient id="linear-gradient-29" x1="417.86" x2="417.86" y1="37.62" y2="42.62" xlink:href="#linear-gradient"/><linearGradient id="linear-gradient-30" x1="429.43" x2="429.43" y1="37.62" y2="42.62" xlink:href="#linear-gradient"/><linearGradient id="linear-gradient-31" x1="440.99" x2="440.99" y1="37.62" y2="42.62" xlink:href="#linear-gradient"/><linearGradient id="linear-gradient-32" x1="452.55" x2="452.55" y1="37.62" y2="42.62" xlink:href="#linear-gradient"/><linearGradient id="linear-gradient-33" x1="464.12" x2="464.12" y1="37.62" y2="42.62" xlink:href="#linear-gradient"/><linearGradient id="linear-gradient-34" x1="475.68" x2="475.68" y1="37.62" y2="42.62" xlink:href="#linear-gradient"/><linearGradient id="linear-gradient-35" x1="487.24" x2="487.24" y1="37.62" y2="42.62" xlink:href="#linear-gradient"/><linearGradient id="linear-gradient-36" x1="498.81" x2="498.81" y1="37.62" y2="42.62" xlink:href="#linear-gradient"/><linearGradient id="linear-gradient-37" x1="510.37" x2="510.37" y1="37.62" y2="42.62" xlink:href="#linear-gradient"/><linearGradient id="linear-gradient-38" x1="247.46" x2="247.46" y1="99.19" y2="119.19" xlink:href="#linear-gradient"/><linearGradient id="linear-gradient-39" x1="49.84" x2="49.84" y1="106.61" y2="111.61" xlink:href="#linear-gradient"/><linearGradient id="linear-gradient-40" x1="61.4" x2="61.4" y1="106.61" y2="111.61" xlink:href="#linear-gradient"/><linearGradient id="linear-gradient-41" x1="72.96" x2="72.96" y1="106.61" y2="111.61" xlink:href="#linear-gradient"/><linearGradient id="linear-gradient-42" x1="84.53" x2="84.53" y1="106.61" y2="111.61" xlink:href="#linear-gradient"/><linearGradient id="linear-gradient-43" x1="96.09" x2="96.09" y1="106.61" y2="111.61" xlink:href="#linear-gradient"/><linearGradient id="linear-gradient-44" x1="107.65" x2="107.65" y1="106.61" y2="111.61" xlink:href="#linear-gradient"/><linearGradient id="linear-gradient-45" x1="119.22" x2="119.22" y1="106.61" y2="111.61" xlink:href="#linear-gradient"/><linearGradient id="linear-gradient-46" x1="130.78" x2="130.78" y1="106.61" y2="111.61" xlink:href="#linear-gradient"/><linearGradient id="linear-gradient-47" x1="142.34" x2="142.34" y1="106.61" y2="111.61" xlink:href="#linear-gradient"/><linearGradient id="linear-gradient-48" x1="153.91" x2="153.91" y1="106.61" y2="111.61" xlink:href="#linear-gradient"/><linearGradient id="linear-gradient-49" x1="165.47" x2="165.47" y1="106.61" y2="111.61" xlink:href="#linear-gradient"/><linearGradient id="linear-gradient-50" x1="177.03" x2="177.03" y1="106.61" y2="111.61" xlink:href="#linear-gradient"/><linearGradient id="linear-gradient-51" x1="188.59" x2="188.59" y1="106.61" y2="111.61" xlink:href="#linear-gradient"/><linearGradient id="linear-gradient-52" x1="200.16" x2="200.16" y1="106.61" y2="111.61" xlink:href="#linear-gradient"/><linearGradient id="linear-gradient-53" x1="211.72" x2="211.72" y1="106.61" y2="111.61" xlink:href="#linear-gradient"/><linearGradient id="linear-gradient-54" x1="223.28" x2="223.28" y1="106.61" y2="111.61" xlink:href="#linear-gradient"/><linearGradient id="linear-gradient-55" x1="234.85" x2="234.85" y1="106.61" y2="111.61" xlink:href="#linear-gradient"/><linearGradient id="linear-gradient-56" x1="246.41" x2="246.41" y1="106.61" y2="111.61" xlink:href="#linear-gradient"/><linearGradient id="linear-gradient-57" x1="257.97" x2="257.97" y1="106.61" y2="111.61" xlink:href="#linear-gradient"/><linearGradient id="linear-gradient-58" x1="269.54" x2="269.54" y1="106.61" y2="111.61" xlink:href="#linear-gradient"/><linearGradient id="linear-gradient-59" x1="281.1" x2="281.1" y1="106.61" y2="111.61" xlink:href="#linear-gradient"/><linearGradient id="linear-gradient-60" x1="292.66" x2="292.66" y1="106.61" y2="111.61" xlink:href="#linear-gradient"/><linearGradient id="linear-gradient-61" x1="304.23" x2="304.23" y1="106.61" y2="111.61" xlink:href="#linear-gradient"/><linearGradient id="linear-gradient-62" x1="315.79" x2="315.79" y1="106.61" y2="111.61" xlink:href="#linear-gradient"/><linearGradient id="linear-gradient-63" x1="327.35" x2="327.35" y1="106.61" y2="111.61" xlink:href="#linear-gradient"/><linearGradient id="linear-gradient-64" x1="338.92" x2="338.92" y1="106.61" y2="111.61" xlink:href="#linear-gradient"/><linearGradient id="linear-gradient-65" x1="350.48" x2="350.48" y1="106.61" y2="111.61" xlink:href="#linear-gradient"/><linearGradient id="linear-gradient-66" x1="362.04" x2="362.04" y1="106.61" y2="111.61" xlink:href="#linear-gradient"/><linearGradient id="linear-gradient-67" x1="373.6" x2="373.6" y1="106.61" y2="111.61" xlink:href="#linear-gradient"/><linearGradient id="linear-gradient-68" x1="385.17" x2="385.17" y1="106.61" y2="111.61" xlink:href="#linear-gradient"/><linearGradient id="linear-gradient-69" x1="396.73" x2="396.73" y1="106.61" y2="111.61" xlink:href="#linear-gradient"/><linearGradient id="linear-gradient-70" x1="408.29" x2="408.29" y1="106.61" y2="111.61" xlink:href="#linear-gradient"/><linearGradient id="linear-gradient-71" x1="419.86" x2="419.86" y1="106.61" y2="111.61" xlink:href="#linear-gradient"/><linearGradient id="linear-gradient-72" x1="431.42" x2="431.42" y1="106.61" y2="111.61" xlink:href="#linear-gradient"/><linearGradient id="linear-gradient-73" x1="442.98" x2="442.98" y1="106.61" y2="111.61" xlink:href="#linear-gradient"/><linearGradient id="linear-gradient-74" x1="176.6" x2="176.6" y1="175.83" y2="180.83" xlink:href="#linear-gradient"/><linearGradient id="linear-gradient-75" x1="185.94" x2="185.94" y1="175.83" y2="180.83" xlink:href="#linear-gradient"/><linearGradient id="linear-gradient-76" x1="195.27" x2="195.27" y1="175.83" y2="180.83" xlink:href="#linear-gradient"/><linearGradient id="linear-gradient-77" x1="204.6" x2="204.6" y1="175.83" y2="180.83" xlink:href="#linear-gradient"/><linearGradient id="linear-gradient-78" x1="213.94" x2="213.94" y1="175.83" y2="180.83" xlink:href="#linear-gradient"/><linearGradient id="linear-gradient-79" x1="223.27" x2="223.27" y1="175.83" y2="180.83" xlink:href="#linear-gradient"/><linearGradient id="linear-gradient-80" x1="232.6" x2="232.6" y1="175.83" y2="180.83" xlink:href="#linear-gradient"/><linearGradient id="linear-gradient-81" x1="241.94" x2="241.94" y1="175.83" y2="180.83" xlink:href="#linear-gradient"/><linearGradient id="linear-gradient-82" x1="251.27" x2="251.27" y1="175.83" y2="180.83" xlink:href="#linear-gradient"/><linearGradient id="linear-gradient-83" x1="260.6" x2="260.6" y1="175.83" y2="180.83" xlink:href="#linear-gradient"/><linearGradient id="linear-gradient-84" x1="269.94" x2="269.94" y1="175.83" y2="180.83" xlink:href="#linear-gradient"/><linearGradient id="linear-gradient-85" x1="279.27" x2="279.27" y1="175.83" y2="180.83" xlink:href="#linear-gradient"/><linearGradient id="linear-gradient-86" x1="288.6" x2="288.6" y1="175.83" y2="180.83" xlink:href="#linear-gradient"/><linearGradient id="linear-gradient-87" x1="297.94" x2="297.94" y1="175.83" y2="180.83" xlink:href="#linear-gradient"/><linearGradient id="linear-gradient-88" x1="307.27" x2="307.27" y1="175.83" y2="180.83" xlink:href="#linear-gradient"/><linearGradient id="linear-gradient-89" x1="316.6" x2="316.6" y1="175.83" y2="180.83" xlink:href="#linear-gradient"/><linearGradient id="linear-gradient-90" x1="325.94" x2="325.94" y1="175.83" y2="180.83" xlink:href="#linear-gradient"/><linearGradient id="linear-gradient-91" x1="335.27" x2="335.27" y1="175.83" y2="180.83" xlink:href="#linear-gradient"/><linearGradient id="linear-gradient-92" x1="344.6" x2="344.6" y1="175.83" y2="180.83" xlink:href="#linear-gradient"/><linearGradient id="linear-gradient-93" x1="447.46" x2="447.46" y1="168.33" y2="188.33" xlink:href="#linear-gradient"/><linearGradient id="linear-gradient-94" x1="362.77" x2="362.77" y1="175.83" y2="180.83" xlink:href="#linear-gradient"/><linearGradient id="linear-gradient-95" x1="372.11" x2="372.11" y1="175.83" y2="180.83" xlink:href="#linear-gradient"/><linearGradient id="linear-gradient-96" x1="381.44" x2="381.44" y1="175.83" y2="180.83" xlink:href="#linear-gradient"/><linearGradient id="linear-gradient-97" x1="390.77" x2="390.77" y1="175.83" y2="180.83" xlink:href="#linear-gradient"/><linearGradient id="linear-gradient-98" x1="400.11" x2="400.11" y1="175.83" y2="180.83" xlink:href="#linear-gradient"/><linearGradient id="linear-gradient-99" x1="409.44" x2="409.44" y1="175.83" y2="180.83" xlink:href="#linear-gradient"/><linearGradient id="linear-gradient-100" x1="418.77" x2="418.77" y1="175.83" y2="180.83" xlink:href="#linear-gradient"/><linearGradient id="linear-gradient-101" x1="428.11" x2="428.11" y1="175.83" y2="180.83" xlink:href="#linear-gradient"/><linearGradient id="linear-gradient-102" x1="437.44" x2="437.44" y1="175.83" y2="180.83" xlink:href="#linear-gradient"/><linearGradient id="linear-gradient-103" x1="446.77" x2="446.77" y1="175.83" y2="180.83" xlink:href="#linear-gradient"/><linearGradient id="linear-gradient-104" x1="456.11" x2="456.11" y1="175.83" y2="180.83" xlink:href="#linear-gradient"/><linearGradient id="linear-gradient-105" x1="465.44" x2="465.44" y1="175.83" y2="180.83" xlink:href="#linear-gradient"/><linearGradient id="linear-gradient-106" x1="474.77" x2="474.77" y1="175.83" y2="180.83" xlink:href="#linear-gradient"/><linearGradient id="linear-gradient-107" x1="484.11" x2="484.11" y1="175.83" y2="180.83" xlink:href="#linear-gradient"/><linearGradient id="linear-gradient-108" x1="493.44" x2="493.44" y1="175.83" y2="180.83" xlink:href="#linear-gradient"/><linearGradient id="linear-gradient-109" x1="502.77" x2="502.77" y1="175.83" y2="180.83" xlink:href="#linear-gradient"/><linearGradient id="linear-gradient-110" x1="512.11" x2="512.11" y1="175.83" y2="180.83" xlink:href="#linear-gradient"/><linearGradient id="linear-gradient-111" x1="521.44" x2="521.44" y1="175.83" y2="180.83" xlink:href="#linear-gradient"/><linearGradient id="linear-gradient-112" x1="530.77" x2="530.77" y1="175.83" y2="180.83" xlink:href="#linear-gradient"/></defs><g id="Shapes"><rect width="537.96" height="207.27" fill="#fff"/><rect width="180" height="20" x="171.29" y="168.33" fill="url(#linear-gradient)"/><line x1="171.72" x2="171.72" y1="203.33" y2="165.33" fill="none" stroke="#000"/><line x1="351.29" x2="351.29" y1="203.33" y2="165.33" fill="none" stroke="#000"/><rect width="400" height="20" x="114.85" y="30.2" fill="url(#linear-gradient-2)"/><g><ellipse cx="117.22" cy="40.12" fill="url(#linear-gradient-3)" rx="2.43" ry="2.5"/><ellipse cx="128.79" cy="40.12" fill="url(#linear-gradient-4)" rx="2.43" ry="2.5"/><ellipse cx="140.35" cy="40.12" fill="url(#linear-gradient-5)" rx="2.43" ry="2.5"/><ellipse cx="151.91" cy="40.12" fill="url(#linear-gradient-6)" rx="2.43" ry="2.5"/><ellipse cx="163.48" cy="40.12" fill="url(#linear-gradient-7)" rx="2.43" ry="2.5"/><ellipse cx="175.04" cy="40.12" fill="url(#linear-gradient-8)" rx="2.43" ry="2.5"/><ellipse cx="186.6" cy="40.12" fill="url(#linear-gradient-9)" rx="2.43" ry="2.5"/><ellipse cx="198.17" cy="40.12" fill="url(#linear-gradient-10)" rx="2.43" ry="2.5"/><ellipse cx="209.73" cy="40.12" fill="url(#linear-gradient-11)" rx="2.43" ry="2.5"/><ellipse cx="221.29" cy="40.12" fill="url(#linear-gradient-12)" rx="2.43" ry="2.5"/><ellipse cx="232.85" cy="40.12" fill="url(#linear-gradient-13)" rx="2.43" ry="2.5"/><ellipse cx="244.42" cy="40.12" fill="url(#linear-gradient-14)" rx="2.43" ry="2.5"/><ellipse cx="255.98" cy="40.12" fill="url(#linear-gradient-15)" rx="2.43" ry="2.5"/><ellipse cx="267.54" cy="40.12" fill="url(#linear-gradient-16)" rx="2.43" ry="2.5"/><ellipse cx="279.11" cy="40.12" fill="url(#linear-gradient-17)" rx="2.43" ry="2.5"/><ellipse cx="290.67" cy="40.12" fill="url(#linear-gradient-18)" rx="2.43" ry="2.5"/><ellipse cx="302.23" cy="40.12" fill="url(#linear-gradient-19)" rx="2.43" ry="2.5"/><ellipse cx="313.8" cy="40.12" fill="url(#linear-gradient-20)" rx="2.43" ry="2.5"/><ellipse cx="325.36" cy="40.12" fill="url(#linear-gradient-21)" rx="2.43" ry="2.5"/><ellipse cx="336.92" cy="40.12" fill="url(#linear-gradient-22)" rx="2.43" ry="2.5"/><ellipse cx="348.49" cy="40.12" fill="url(#linear-gradient-23)" rx="2.43" ry="2.5"/><ellipse cx="360.05" cy="40.12" fill="url(#linear-gradient-24)" rx="2.43" ry="2.5"/><ellipse cx="371.61" cy="40.12" fill="url(#linear-gradient-25)" rx="2.43" ry="2.5"/><ellipse cx="383.18" cy="40.12" fill="url(#linear-gradient-26)" rx="2.43" ry="2.5"/><ellipse cx="394.74" cy="40.12" fill="url(#linear-gradient-27)" rx="2.43" ry="2.5"/><ellipse cx="406.3" cy="40.12" fill="url(#linear-gradient-28)" rx="2.43" ry="2.5"/><ellipse cx="417.86" cy="40.12" fill="url(#linear-gradient-29)" rx="2.43" ry="2.5"/><ellipse cx="429.43" cy="40.12" fill="url(#linear-gradient-30)" rx="2.43" ry="2.5"/><ellipse cx="440.99" cy="40.12" fill="url(#linear-gradient-31)" rx="2.43" ry="2.5"/><ellipse cx="452.55" cy="40.12" fill="url(#linear-gradient-32)" rx="2.43" ry="2.5"/><ellipse cx="464.12" cy="40.12" fill="url(#linear-gradient-33)" rx="2.43" ry="2.5"/><ellipse cx="475.68" cy="40.12" fill="url(#linear-gradient-34)" rx="2.43" ry="2.5"/><ellipse cx="487.24" cy="40.12" fill="url(#linear-gradient-35)" rx="2.43" ry="2.5"/><ellipse cx="498.81" cy="40.12" fill="url(#linear-gradient-36)" rx="2.43" ry="2.5"/><ellipse cx="510.37" cy="40.12" fill="url(#linear-gradient-37)" rx="2.43" ry="2.5"/></g><line x1="514.85" x2="514.85" y1="65.2" y2="25.33" fill="none" stroke="#000"/><rect width="400" height="20" x="47.46" y="99.19" fill="url(#linear-gradient-38)"/><g><ellipse cx="49.84" cy="109.11" fill="url(#linear-gradient-39)" rx="2.43" ry="2.5"/><ellipse cx="61.4" cy="109.11" fill="url(#linear-gradient-40)" rx="2.43" ry="2.5"/><ellipse cx="72.96" cy="109.11" fill="url(#linear-gradient-41)" rx="2.43" ry="2.5"/><ellipse cx="84.53" cy="109.11" fill="url(#linear-gradient-42)" rx="2.43" ry="2.5"/><ellipse cx="96.09" cy="109.11" fill="url(#linear-gradient-43)" rx="2.43" ry="2.5"/><ellipse cx="107.65" cy="109.11" fill="url(#linear-gradient-44)" rx="2.43" ry="2.5"/><ellipse cx="119.22" cy="109.11" fill="url(#linear-gradient-45)" rx="2.43" ry="2.5"/><ellipse cx="130.78" cy="109.11" fill="url(#linear-gradient-46)" rx="2.43" ry="2.5"/><ellipse cx="142.34" cy="109.11" fill="url(#linear-gradient-47)" rx="2.43" ry="2.5"/><ellipse cx="153.91" cy="109.11" fill="url(#linear-gradient-48)" rx="2.43" ry="2.5"/><ellipse cx="165.47" cy="109.11" fill="url(#linear-gradient-49)" rx="2.43" ry="2.5"/><ellipse cx="177.03" cy="109.11" fill="url(#linear-gradient-50)" rx="2.43" ry="2.5"/><ellipse cx="188.59" cy="109.11" fill="url(#linear-gradient-51)" rx="2.43" ry="2.5"/><ellipse cx="200.16" cy="109.11" fill="url(#linear-gradient-52)" rx="2.43" ry="2.5"/><ellipse cx="211.72" cy="109.11" fill="url(#linear-gradient-53)" rx="2.43" ry="2.5"/><ellipse cx="223.28" cy="109.11" fill="url(#linear-gradient-54)" rx="2.43" ry="2.5"/><ellipse cx="234.85" cy="109.11" fill="url(#linear-gradient-55)" rx="2.43" ry="2.5"/><ellipse cx="246.41" cy="109.11" fill="url(#linear-gradient-56)" rx="2.43" ry="2.5"/><ellipse cx="257.97" cy="109.11" fill="url(#linear-gradient-57)" rx="2.43" ry="2.5"/><ellipse cx="269.54" cy="109.11" fill="url(#linear-gradient-58)" rx="2.43" ry="2.5"/><ellipse cx="281.1" cy="109.11" fill="url(#linear-gradient-59)" rx="2.43" ry="2.5"/><ellipse cx="292.66" cy="109.11" fill="url(#linear-gradient-60)" rx="2.43" ry="2.5"/><ellipse cx="304.23" cy="109.11" fill="url(#linear-gradient-61)" rx="2.43" ry="2.5"/><ellipse cx="315.79" cy="109.11" fill="url(#linear-gradient-62)" rx="2.43" ry="2.5"/><ellipse cx="327.35" cy="109.11" fill="url(#linear-gradient-63)" rx="2.43" ry="2.5"/><ellipse cx="338.92" cy="109.11" fill="url(#linear-gradient-64)" rx="2.43" ry="2.5"/><ellipse cx="350.48" cy="109.11" fill="url(#linear-gradient-65)" rx="2.43" ry="2.5"/><ellipse cx="362.04" cy="109.11" fill="url(#linear-gradient-66)" rx="2.43" ry="2.5"/><ellipse cx="373.6" cy="109.11" fill="url(#linear-gradient-67)" rx="2.43" ry="2.5"/><ellipse cx="385.17" cy="109.11" fill="url(#linear-gradient-68)" rx="2.43" ry="2.5"/><ellipse cx="396.73" cy="109.11" fill="url(#linear-gradient-69)" rx="2.43" ry="2.5"/><ellipse cx="408.29" cy="109.11" fill="url(#linear-gradient-70)" rx="2.43" ry="2.5"/><ellipse cx="419.86" cy="109.11" fill="url(#linear-gradient-71)" rx="2.43" ry="2.5"/><ellipse cx="431.42" cy="109.11" fill="url(#linear-gradient-72)" rx="2.43" ry="2.5"/><ellipse cx="442.98" cy="109.11" fill="url(#linear-gradient-73)" rx="2.43" ry="2.5"/></g><g><ellipse cx="176.6" cy="178.33" fill="url(#linear-gradient-74)" rx="2.43" ry="2.5"/><ellipse cx="185.94" cy="178.33" fill="url(#linear-gradient-75)" rx="2.43" ry="2.5"/><ellipse cx="195.27" cy="178.33" fill="url(#linear-gradient-76)" rx="2.43" ry="2.5"/><ellipse cx="204.6" cy="178.33" fill="url(#linear-gradient-77)" rx="2.43" ry="2.5"/><ellipse cx="213.94" cy="178.33" fill="url(#linear-gradient-78)" rx="2.43" ry="2.5"/><ellipse cx="223.27" cy="178.33" fill="url(#linear-gradient-79)" rx="2.43" ry="2.5"/><ellipse cx="232.6" cy="178.33" fill="url(#linear-gradient-80)" rx="2.43" ry="2.5"/><ellipse cx="241.94" cy="178.33" fill="url(#linear-gradient-81)" rx="2.43" ry="2.5"/><ellipse cx="251.27" cy="178.33" fill="url(#linear-gradient-82)" rx="2.43" ry="2.5"/><ellipse cx="260.6" cy="178.33" fill="url(#linear-gradient-83)" rx="2.43" ry="2.5"/><ellipse cx="269.94" cy="178.33" fill="url(#linear-gradient-84)" rx="2.43" ry="2.5"/><ellipse cx="279.27" cy="178.33" fill="url(#linear-gradient-85)" rx="2.43" ry="2.5"/><ellipse cx="288.6" cy="178.33" fill="url(#linear-gradient-86)" rx="2.43" ry="2.5"/><ellipse cx="297.94" cy="178.33" fill="url(#linear-gradient-87)" rx="2.43" ry="2.5"/><ellipse cx="307.27" cy="178.33" fill="url(#linear-gradient-88)" rx="2.43" ry="2.5"/><ellipse cx="316.6" cy="178.33" fill="url(#linear-gradient-89)" rx="2.43" ry="2.5"/><ellipse cx="325.94" cy="178.33" fill="url(#linear-gradient-90)" rx="2.43" ry="2.5"/><ellipse cx="335.27" cy="178.33" fill="url(#linear-gradient-91)" rx="2.43" ry="2.5"/><ellipse cx="344.6" cy="178.33" fill="url(#linear-gradient-92)" rx="2.43" ry="2.5"/></g><rect width="180" height="20" x="357.46" y="168.33" fill="url(#linear-gradient-93)"/><line x1="357.89" x2="357.89" y1="203.33" y2="165.33" fill="none" stroke="#000"/><line x1="537.46" x2="537.46" y1="203.33" y2="165.33" fill="none" stroke="#000"/><g><ellipse cx="362.77" cy="178.33" fill="url(#linear-gradient-94)" rx="2.43" ry="2.5"/><ellipse cx="372.11" cy="178.33" fill="url(#linear-gradient-95)" rx="2.43" ry="2.5"/><ellipse cx="381.44" cy="178.33" fill="url(#linear-gradient-96)" rx="2.43" ry="2.5"/><ellipse cx="390.77" cy="178.33" fill="url(#linear-gradient-97)" rx="2.43" ry="2.5"/><ellipse cx="400.11" cy="178.33" fill="url(#linear-gradient-98)" rx="2.43" ry="2.5"/><ellipse cx="409.44" cy="178.33" fill="url(#linear-gradient-99)" rx="2.43" ry="2.5"/><ellipse cx="418.77" cy="178.33" fill="url(#linear-gradient-100)" rx="2.43" ry="2.5"/><ellipse cx="428.11" cy="178.33" fill="url(#linear-gradient-101)" rx="2.43" ry="2.5"/><ellipse cx="437.44" cy="178.33" fill="url(#linear-gradient-102)" rx="2.43" ry="2.5"/><ellipse cx="446.77" cy="178.33" fill="url(#linear-gradient-103)" rx="2.43" ry="2.5"/><ellipse cx="456.11" cy="178.33" fill="url(#linear-gradient-104)" rx="2.43" ry="2.5"/><ellipse cx="465.44" cy="178.33" fill="url(#linear-gradient-105)" rx="2.43" ry="2.5"/><ellipse cx="474.77" cy="178.33" fill="url(#linear-gradient-106)" rx="2.43" ry="2.5"/><ellipse cx="484.11" cy="178.33" fill="url(#linear-gradient-107)" rx="2.43" ry="2.5"/><ellipse cx="493.44" cy="178.33" fill="url(#linear-gradient-108)" rx="2.43" ry="2.5"/><ellipse cx="502.77" cy="178.33" fill="url(#linear-gradient-109)" rx="2.43" ry="2.5"/><ellipse cx="512.11" cy="178.33" fill="url(#linear-gradient-110)" rx="2.43" ry="2.5"/><ellipse cx="521.44" cy="178.33" fill="url(#linear-gradient-111)" rx="2.43" ry="2.5"/><ellipse cx="530.77" cy="178.33" fill="url(#linear-gradient-112)" rx="2.43" ry="2.5"/></g><line x1="47.46" x2="47.46" y1="134.19" y2="95.33" fill="none" stroke="#000"/><line x1="447.46" x2="447.46" y1="134.19" y2="95.33" fill="none" stroke="#000"/><polyline fill="none" stroke="#000" points="403.49 15.2 490.37 15.2 510.37 26.14"/><polyline fill="none" stroke="#000" points="139.48 26.14 159.48 15.2 245.27 15.2"/><g><line x1="124.82" x2="124.82" y1="70.33" y2="88.6" fill="none" stroke="#3c3c41" stroke-miterlimit="10"/><polygon fill="#3c3c41" points="121.08 87.51 124.82 93.98 128.56 87.51 121.08 87.51"/></g><g><line x1="345.82" x2="345.82" y1="140.33" y2="158.6" fill="none" stroke="#3c3c41" stroke-miterlimit="10"/><polygon fill="#3c3c41" points="342.08 157.51 345.82 163.98 349.56 157.51 342.08 157.51"/></g><g><line x1="360.82" x2="360.82" y1="140.33" y2="158.6" fill="none" stroke="#3c3c41" stroke-miterlimit="10"/><polygon fill="#3c3c41" points="357.08 157.51 360.82 163.98 364.56 157.51 357.08 157.51"/></g><line x1="340.51" x2="340.51" y1="134.19" y2="95.33" fill="none" stroke="#000"/><line x1="368.51" x2="368.51" y1="134.19" y2="95.33" fill="none" stroke="#000"/><line x1="354.51" x2="354.51" y1="134.19" y2="95.33" fill="none" stroke="#000"/><line x1="114.85" x2="114.85" y1="65.2" y2="15.2" fill="none" stroke="#000"/><line x1="134.85" x2="134.85" y1="65.2" y2="15.2" fill="none" stroke="#000"/></g><g id="Text"><g><path fill="#1e1e1e" d="M183.12,198.94q0,3.54-3.19,3.54t-3.06-3.41v-5.14h1V199c0,1.72.72,2.58,2.18,2.58s2.1-.83,2.1-2.5v-5.16h1Z"/><path fill="#1e1e1e" d="M190.42,199.23h-2.37v2.36h-.78v-2.36h-2.36v-.79h2.36v-2.36h.78v2.36h2.37Z"/><path fill="#1e1e1e" d="M192.28,202.33v-8.4h2.32q4.44,0,4.44,4.1a4.12,4.12,0,0,1-1.23,3.12,4.55,4.55,0,0,1-3.3,1.18Zm1-7.51v6.62h1.25a3.55,3.55,0,0,0,2.57-.88,3.3,3.3,0,0,0,.92-2.51q0-3.23-3.43-3.23Z"/><path fill="#1e1e1e" d="M200.06,200a2.24,2.24,0,0,1,.11-.67,2.6,2.6,0,0,1,.3-.63,2.22,2.22,0,0,1,.49-.53,2.15,2.15,0,0,1,.66-.38,2.47,2.47,0,0,1-.87-.79,1.78,1.78,0,0,1-.32-1.05,2,2,0,0,1,.18-.86,2.08,2.08,0,0,1,.49-.68,2.34,2.34,0,0,1,.75-.45,2.85,2.85,0,0,1,.94-.16,2.62,2.62,0,0,1,.94.17,2.18,2.18,0,0,1,.75.45,1.85,1.85,0,0,1,.49.68,2,2,0,0,1,.18.85,1.86,1.86,0,0,1-.32,1.05,2.62,2.62,0,0,1-.86.79,2.22,2.22,0,0,1,.65.38,2.45,2.45,0,0,1,.49.53,2.6,2.6,0,0,1,.3.63,2.22,2.22,0,0,1,.1.67,2.4,2.4,0,0,1-.2,1,2.29,2.29,0,0,1-.56.78,2.46,2.46,0,0,1-.86.51,3.45,3.45,0,0,1-2.2,0,2.55,2.55,0,0,1-.86-.51,2.29,2.29,0,0,1-.56-.78A2.4,2.4,0,0,1,200.06,200Zm1.05-.08a2,2,0,0,0,.12.71,1.5,1.5,0,0,0,.34.54,1.38,1.38,0,0,0,.53.34,1.92,1.92,0,0,0,.69.12,1.83,1.83,0,0,0,.68-.12,1.68,1.68,0,0,0,.54-.35,1.53,1.53,0,0,0,.35-.54,1.91,1.91,0,0,0,0-1.36,1.53,1.53,0,0,0-.35-.54,1.45,1.45,0,0,0-.53-.37,1.75,1.75,0,0,0-.7-.14,1.86,1.86,0,0,0-.67.13,1.58,1.58,0,0,0-.53.35,1.53,1.53,0,0,0-.35.54A1.73,1.73,0,0,0,201.11,199.91Zm.3-3.9a1.47,1.47,0,0,0,.1.56,1.71,1.71,0,0,0,.3.44,1.37,1.37,0,0,0,.45.3,1.32,1.32,0,0,0,.53.11,1.42,1.42,0,0,0,.55-.11,1.71,1.71,0,0,0,.44-.3,1.77,1.77,0,0,0,.3-.45,1.42,1.42,0,0,0,.11-.55,1.47,1.47,0,0,0-.11-.56,1.37,1.37,0,0,0-.3-.45,1.35,1.35,0,0,0-.44-.29,1.42,1.42,0,0,0-.55-.11,1.47,1.47,0,0,0-.56.11,1.55,1.55,0,0,0-.44.3,1.31,1.31,0,0,0-.28.45A1.45,1.45,0,0,0,201.41,196Z"/><path fill="#1e1e1e" d="M212.07,198.1a8.75,8.75,0,0,1-.19,1.87,4.41,4.41,0,0,1-.55,1.37,2.37,2.37,0,0,1-2.08,1.14,2.22,2.22,0,0,1-2-1.09,4,4,0,0,1-.52-1.31,7.93,7.93,0,0,1-.18-1.78,9.3,9.3,0,0,1,.19-1.94,4.38,4.38,0,0,1,.54-1.42,2.36,2.36,0,0,1,.89-.86,2.52,2.52,0,0,1,1.21-.29Q212.08,193.79,212.07,198.1Zm-1,.09c0-2.39-.57-3.58-1.7-3.58s-1.8,1.21-1.8,3.65c0,2.27.59,3.4,1.76,3.4S211.08,200.5,211.08,198.19Z"/><path fill="#1e1e1e" d="M218.76,198.1a8.15,8.15,0,0,1-.19,1.87,4.41,4.41,0,0,1-.55,1.37,2.54,2.54,0,0,1-.88.85,2.48,2.48,0,0,1-1.2.29,2.26,2.26,0,0,1-1.13-.28,2.29,2.29,0,0,1-.83-.81,4,4,0,0,1-.52-1.31,8.61,8.61,0,0,1-.17-1.78,9.35,9.35,0,0,1,.18-1.94,4.63,4.63,0,0,1,.55-1.42,2.34,2.34,0,0,1,.88-.86,2.56,2.56,0,0,1,1.22-.29Q218.76,193.79,218.76,198.1Zm-1,.09c0-2.39-.57-3.58-1.71-3.58s-1.8,1.21-1.8,3.65c0,2.27.59,3.4,1.77,3.4S217.78,200.5,217.78,198.19Z"/></g><g><path fill="#1e1e1e" d="M311.31,198.94q0,3.54-3.19,3.54t-3.06-3.41v-5.14h1V199c0,1.72.73,2.58,2.18,2.58s2.11-.83,2.11-2.5v-5.16h1Z"/><path fill="#1e1e1e" d="M318.61,199.23h-2.37v2.36h-.78v-2.36H313.1v-.79h2.36v-2.36h.78v2.36h2.37Z"/><path fill="#1e1e1e" d="M320.47,202.33v-8.4h2.32q4.44,0,4.44,4.1a4.12,4.12,0,0,1-1.23,3.12,4.59,4.59,0,0,1-3.31,1.18Zm1-7.51v6.62h1.26a3.55,3.55,0,0,0,2.57-.88,3.34,3.34,0,0,0,.92-2.51c0-2.15-1.15-3.23-3.43-3.23Z"/><path fill="#1e1e1e" d="M328.83,202.33v-8.4h2.39a2.57,2.57,0,0,1,1.72.54,1.69,1.69,0,0,1,.64,1.38,2,2,0,0,1-1.45,2v0a2.15,2.15,0,0,1,1.36.64,2,2,0,0,1,.51,1.41,2.22,2.22,0,0,1-.77,1.75,2.92,2.92,0,0,1-2,.66Zm1-7.51v2.72h1a1.91,1.91,0,0,0,1.27-.39,1.36,1.36,0,0,0,.46-1.1c0-.82-.53-1.23-1.61-1.23Zm0,3.6v3h1.34a2,2,0,0,0,1.34-.41,1.38,1.38,0,0,0,.48-1.12c0-1-.68-1.49-2-1.49Z"/><path fill="#1e1e1e" d="M339.88,194.82H336.6v2.91h3v.88h-3v3.72h-1v-8.4h4.26Z"/><path fill="#1e1e1e" d="M345.49,194.82h-3.28v2.91h3v.88h-3v3.72h-1v-8.4h4.26Z"/></g><g><path fill="#fff" d="M192.42,182.33h-1.9v-3.42H187v3.42h-1.89v-8.4H187v3.35h3.48v-3.35h1.9Z"/><path fill="#fff" d="M195,175.38a1.07,1.07,0,0,1-.77-.28.92.92,0,0,1,0-1.36,1.16,1.16,0,0,1,.77-.26,1.14,1.14,0,0,1,.77.26.93.93,0,0,1,0,1.37A1.1,1.1,0,0,1,195,175.38Zm.91,7H194.1v-6H196Z"/><path fill="#fff" d="M203.4,181.65a3.4,3.4,0,0,1-1,2.58,3.89,3.89,0,0,1-2.8.92,4.43,4.43,0,0,1-1.92-.34v-1.56a3.66,3.66,0,0,0,1.87.54,2,2,0,0,0,1.45-.5,1.79,1.79,0,0,0,.51-1.34v-.48h0a2.07,2.07,0,0,1-1.87,1,2.25,2.25,0,0,1-1.82-.81,3.27,3.27,0,0,1-.67-2.17,3.67,3.67,0,0,1,.75-2.42,2.42,2.42,0,0,1,2-.89,1.82,1.82,0,0,1,1.64.84h0v-.7h1.86Zm-1.83-2.2V179a1.42,1.42,0,0,0-.34-1,1.09,1.09,0,0,0-.88-.41,1.12,1.12,0,0,0-1,.48,2.25,2.25,0,0,0-.35,1.36,1.9,1.9,0,0,0,.33,1.18,1.07,1.07,0,0,0,.91.44,1.13,1.13,0,0,0,.93-.44A1.82,1.82,0,0,0,201.57,179.45Z"/><path fill="#fff" d="M210.67,182.33h-1.84v-3.41q0-1.32-1-1.32a1,1,0,0,0-.8.37,1.45,1.45,0,0,0-.3.94v3.42h-1.85v-8.88h1.85v3.77h0a2.1,2.1,0,0,1,1.85-1c1.36,0,2,.82,2,2.46Z"/><path fill="#fff" d="M215.06,182.17v-1.5a3.66,3.66,0,0,0,.91.41,3,3,0,0,0,.86.14,1.79,1.79,0,0,0,.77-.14.43.43,0,0,0,.29-.41.41.41,0,0,0-.13-.29,1.08,1.08,0,0,0-.33-.2A2.85,2.85,0,0,0,217,180l-.47-.16a4.68,4.68,0,0,1-.63-.29,1.62,1.62,0,0,1-.45-.36,1.47,1.47,0,0,1-.29-.48,2,2,0,0,1-.09-.63,1.61,1.61,0,0,1,.22-.87,1.84,1.84,0,0,1,.58-.6,3.15,3.15,0,0,1,.84-.34,4.53,4.53,0,0,1,1-.1,5.52,5.52,0,0,1,.81.06,5.88,5.88,0,0,1,.81.18v1.43a2.9,2.9,0,0,0-.75-.31,3.11,3.11,0,0,0-.79-.1,1.79,1.79,0,0,0-.34,0,1.1,1.1,0,0,0-.29.09.6.6,0,0,0-.19.16.34.34,0,0,0-.07.22.4.4,0,0,0,.1.28.84.84,0,0,0,.28.2,2.72,2.72,0,0,0,.38.16l.41.13a6.16,6.16,0,0,1,.67.28,2.55,2.55,0,0,1,.51.36,1.58,1.58,0,0,1,.33.48,2,2,0,0,1-.12,1.57,1.78,1.78,0,0,1-.61.61,2.72,2.72,0,0,1-.89.35,5,5,0,0,1-1,.11A5.17,5.17,0,0,1,215.06,182.17Z"/><path fill="#fff" d="M226.49,182.33h-1.84v-.91h0a2.09,2.09,0,0,1-1.84,1.06c-1.39,0-2.08-.84-2.08-2.53v-3.62h1.84v3.46c0,.85.34,1.27,1,1.27a1,1,0,0,0,.8-.35,1.4,1.4,0,0,0,.3-.94v-3.44h1.84Z"/><path fill="#fff" d="M231.93,178a1.61,1.61,0,0,0-.78-.18,1.14,1.14,0,0,0-.94.44,1.93,1.93,0,0,0-.34,1.21v2.86H228v-6h1.85v1.12h0a1.6,1.6,0,0,1,1.58-1.22,1.14,1.14,0,0,1,.46.07Z"/><path fill="#fff" d="M236.71,178a1.66,1.66,0,0,0-.78-.18,1.15,1.15,0,0,0-1,.44,2,2,0,0,0-.34,1.21v2.86h-1.85v-6h1.85v1.12h0a1.59,1.59,0,0,1,1.58-1.22,1.14,1.14,0,0,1,.46.07Z"/><path fill="#fff" d="M240.51,182.48a3.23,3.23,0,0,1-2.36-.84,3.47,3.47,0,0,1,0-4.61,3.38,3.38,0,0,1,2.41-.84,3.2,3.2,0,0,1,2.35.84,3,3,0,0,1,.85,2.22,3.18,3.18,0,0,1-.88,2.36A3.24,3.24,0,0,1,240.51,182.48Zm.05-4.88a1.21,1.21,0,0,0-1,.46,1.92,1.92,0,0,0-.37,1.27c0,1.15.47,1.73,1.4,1.73s1.33-.59,1.33-1.77S241.45,177.6,240.56,177.6Z"/><path fill="#fff" d="M250.9,181.65a3.36,3.36,0,0,1-1,2.58,3.88,3.88,0,0,1-2.8.92,4.43,4.43,0,0,1-1.92-.34v-1.56a3.68,3.68,0,0,0,1.87.54,2,2,0,0,0,1.45-.5,1.79,1.79,0,0,0,.52-1.34v-.48h0a2.07,2.07,0,0,1-1.87,1,2.25,2.25,0,0,1-1.82-.81,3.27,3.27,0,0,1-.67-2.17,3.67,3.67,0,0,1,.75-2.42,2.44,2.44,0,0,1,2-.89A1.82,1.82,0,0,1,249,177h0v-.7h1.85Zm-1.83-2.2V179a1.42,1.42,0,0,0-.34-1,1.07,1.07,0,0,0-.87-.41,1.13,1.13,0,0,0-1,.48,2.32,2.32,0,0,0-.35,1.36,1.9,1.9,0,0,0,.33,1.18,1.08,1.08,0,0,0,.92.44,1.16,1.16,0,0,0,.93-.44A1.87,1.87,0,0,0,249.07,179.45Z"/><path fill="#fff" d="M257.46,182.33h-1.75v-.86h0a2,2,0,0,1-1.79,1,1.86,1.86,0,0,1-1.37-.5,1.79,1.79,0,0,1-.5-1.32q0-1.74,2.07-2l1.63-.22c0-.66-.36-1-1.07-1a3.7,3.7,0,0,0-2,.63v-1.39a4.67,4.67,0,0,1,1.06-.35,5.63,5.63,0,0,1,1.22-.15,2.27,2.27,0,0,1,2.57,2.56Zm-1.74-2.43v-.41l-1.09.14c-.6.08-.91.35-.91.82a.67.67,0,0,0,.22.51.84.84,0,0,0,.6.21,1.1,1.1,0,0,0,.85-.36A1.31,1.31,0,0,0,255.72,179.9Z"/><path fill="#fff" d="M262.46,182.26a2.62,2.62,0,0,1-1.23.22,1.76,1.76,0,0,1-2-2V177.7h-1v-1.37h1V175l1.84-.53v1.82h1.35v1.37h-1.35v2.42c0,.63.25.94.75.94a1.31,1.31,0,0,0,.6-.17Z"/><path fill="#fff" d="M268.89,179.86H265c.07.87.61,1.31,1.65,1.31a3.24,3.24,0,0,0,1.74-.47V182a4.56,4.56,0,0,1-2.16.45,2.79,2.79,0,0,1-3.06-3,3.2,3.2,0,0,1,.87-2.37,2.87,2.87,0,0,1,2.13-.87,2.63,2.63,0,0,1,2,.78,3,3,0,0,1,.72,2.11Zm-1.72-1.14c0-.86-.35-1.29-1-1.29a1,1,0,0,0-.77.37,1.72,1.72,0,0,0-.4.92Z"/><path fill="#fff" d="M277.85,182.12a3.72,3.72,0,0,1-1.81.36,3,3,0,0,1-2.24-.84,2.9,2.9,0,0,1-.86-2.16,3.19,3.19,0,0,1,.92-2.41,3.38,3.38,0,0,1,2.45-.88,3.14,3.14,0,0,1,1.54.28V178a2.13,2.13,0,0,0-1.3-.44,1.71,1.71,0,0,0-1.26.47,1.75,1.75,0,0,0-.47,1.29,1.71,1.71,0,0,0,.45,1.25,1.62,1.62,0,0,0,1.22.45,2.47,2.47,0,0,0,1.36-.43Z"/><path fill="#fff" d="M281.91,182.48a3.23,3.23,0,0,1-2.36-.84,3.47,3.47,0,0,1,0-4.61,3.38,3.38,0,0,1,2.41-.84,3.2,3.2,0,0,1,2.35.84,3,3,0,0,1,.85,2.22,3.18,3.18,0,0,1-.88,2.36A3.24,3.24,0,0,1,281.91,182.48Zm0-4.88a1.21,1.21,0,0,0-1,.46,1.92,1.92,0,0,0-.37,1.27c0,1.15.47,1.73,1.4,1.73s1.33-.59,1.33-1.77S282.85,177.6,282,177.6Z"/><path fill="#fff" d="M292.29,182.33h-1.86v-.82h0a2.09,2.09,0,0,1-1.86,1,2.3,2.3,0,0,1-1.81-.79,3.33,3.33,0,0,1-.68-2.22,3.62,3.62,0,0,1,.75-2.39,2.47,2.47,0,0,1,2-.89,1.67,1.67,0,0,1,1.62.83h0v-3.57h1.86Zm-1.82-2.92V179a1.4,1.4,0,0,0-.34-1,1.2,1.2,0,0,0-1.85.1,2.23,2.23,0,0,0-.34,1.32,2,2,0,0,0,.33,1.22,1.1,1.1,0,0,0,.93.43,1.13,1.13,0,0,0,.92-.45A1.92,1.92,0,0,0,290.47,179.41Z"/><path fill="#fff" d="M299.23,179.86h-3.91c.06.87.61,1.31,1.65,1.31a3.24,3.24,0,0,0,1.74-.47V182a4.56,4.56,0,0,1-2.16.45,3,3,0,0,1-2.26-.81,3,3,0,0,1-.8-2.24,3.24,3.24,0,0,1,.86-2.37,2.9,2.9,0,0,1,2.14-.87,2.63,2.63,0,0,1,2,.78,3,3,0,0,1,.71,2.11Zm-1.71-1.14c0-.86-.35-1.29-1-1.29a1,1,0,0,0-.77.37,1.72,1.72,0,0,0-.4.92Z"/><path fill="#fff" d="M305.52,181.64h0v3.45h-1.85v-8.76h1.85v.9h0a2.19,2.19,0,0,1,1.93-1,2.14,2.14,0,0,1,1.8.8,3.34,3.34,0,0,1,.64,2.17,3.71,3.71,0,0,1-.74,2.41,2.43,2.43,0,0,1-2,.91A1.87,1.87,0,0,1,305.52,181.64Zm0-2.47v.48a1.53,1.53,0,0,0,.33,1,1.06,1.06,0,0,0,.86.39,1.12,1.12,0,0,0,1-.49,2.36,2.36,0,0,0,.35-1.38q0-1.59-1.23-1.59a1.18,1.18,0,0,0-.93.43A1.73,1.73,0,0,0,305.47,179.17Z"/><path fill="#fff" d="M314,182.48a3.23,3.23,0,0,1-2.36-.84,3.47,3.47,0,0,1,0-4.61,3.37,3.37,0,0,1,2.41-.84,3.18,3.18,0,0,1,2.34.84,3,3,0,0,1,.85,2.22,3.18,3.18,0,0,1-.87,2.36A3.27,3.27,0,0,1,314,182.48Zm0-4.88a1.24,1.24,0,0,0-1,.46,2,2,0,0,0-.36,1.27c0,1.15.47,1.73,1.4,1.73s1.33-.59,1.33-1.77S314.94,177.6,314,177.6Z"/><path fill="#fff" d="M319.38,175.38a1.06,1.06,0,0,1-.77-.28.92.92,0,0,1,0-1.36,1.14,1.14,0,0,1,.77-.26,1.16,1.16,0,0,1,.77.26,1,1,0,0,1,0,1.37A1.11,1.11,0,0,1,319.38,175.38Zm.91,7h-1.85v-6h1.85Z"/><path fill="#fff" d="M327.62,182.33h-1.84V179c0-.93-.34-1.4-1-1.4a1,1,0,0,0-.79.37,1.4,1.4,0,0,0-.31.94v3.42h-1.85v-6h1.85v.95h0a2.12,2.12,0,0,1,1.93-1.09c1.33,0,2,.82,2,2.47Z"/><path fill="#fff" d="M332.65,182.26a2.7,2.7,0,0,1-1.24.22,1.76,1.76,0,0,1-2-2V177.7h-1v-1.37h1V175l1.85-.53v1.82h1.35v1.37H331.3v2.42c0,.63.25.94.74.94a1.31,1.31,0,0,0,.61-.17Z"/><path fill="#fff" d="M333.5,182.17v-1.5a3.5,3.5,0,0,0,.91.41,3,3,0,0,0,.86.14,1.83,1.83,0,0,0,.77-.14.43.43,0,0,0,.29-.41.41.41,0,0,0-.13-.29,1.08,1.08,0,0,0-.33-.2,3,3,0,0,0-.45-.16l-.46-.16a4.68,4.68,0,0,1-.63-.29,1.84,1.84,0,0,1-.46-.36,1.64,1.64,0,0,1-.28-.48,2,2,0,0,1-.09-.63,1.61,1.61,0,0,1,.22-.87,1.84,1.84,0,0,1,.58-.6,3,3,0,0,1,.84-.34,4.46,4.46,0,0,1,1-.1,5.52,5.52,0,0,1,.81.06,5.88,5.88,0,0,1,.81.18v1.43a3,3,0,0,0-.76-.31,3,3,0,0,0-.78-.1,2,2,0,0,0-.35,0,1.15,1.15,0,0,0-.28.09.51.51,0,0,0-.19.16.34.34,0,0,0-.07.22.4.4,0,0,0,.1.28.75.75,0,0,0,.28.2,3.17,3.17,0,0,0,.37.16l.42.13a7.13,7.13,0,0,1,.67.28,2.55,2.55,0,0,1,.51.36,1.58,1.58,0,0,1,.33.48,1.86,1.86,0,0,1,.11.66,1.76,1.76,0,0,1-.23.91,1.73,1.73,0,0,1-.62.61,2.66,2.66,0,0,1-.88.35,5,5,0,0,1-1,.11A5.17,5.17,0,0,1,333.5,182.17Z"/></g><g><path fill="#1e1e1e" d="M370.59,198.94q0,3.54-3.19,3.54t-3.06-3.41v-5.14h1V199c0,1.72.73,2.58,2.18,2.58s2.11-.83,2.11-2.5v-5.16h1Z"/><path fill="#1e1e1e" d="M377.89,199.23h-2.37v2.36h-.78v-2.36h-2.36v-.79h2.36v-2.36h.78v2.36h2.37Z"/><path fill="#1e1e1e" d="M379.75,202.33v-8.4h2.32q4.44,0,4.44,4.1a4.12,4.12,0,0,1-1.23,3.12,4.59,4.59,0,0,1-3.3,1.18Zm1-7.51v6.62H382a3.55,3.55,0,0,0,2.57-.88,3.34,3.34,0,0,0,.92-2.51c0-2.15-1.15-3.23-3.43-3.23Z"/><path fill="#1e1e1e" d="M393.88,202a4.89,4.89,0,0,1-2.32.5,3.75,3.75,0,0,1-2.87-1.16,4.26,4.26,0,0,1-1.08-3,4.51,4.51,0,0,1,1.21-3.26,4.16,4.16,0,0,1,3.08-1.24,4.91,4.91,0,0,1,2,.35v1.05a4,4,0,0,0-2-.51,3,3,0,0,0-2.35,1,3.62,3.62,0,0,0-.9,2.58,3.47,3.47,0,0,0,.84,2.45,2.86,2.86,0,0,0,2.21.91,4.2,4.2,0,0,0,2.19-.56Z"/><path fill="#1e1e1e" d="M400.24,198.1a8.75,8.75,0,0,1-.19,1.87,4.41,4.41,0,0,1-.55,1.37,2.37,2.37,0,0,1-2.08,1.14,2.22,2.22,0,0,1-2-1.09,4,4,0,0,1-.52-1.31,8,8,0,0,1-.17-1.78,9.35,9.35,0,0,1,.18-1.94,4.38,4.38,0,0,1,.54-1.42,2.43,2.43,0,0,1,.89-.86,2.53,2.53,0,0,1,1.22-.29Q400.24,193.79,400.24,198.1Zm-1,.09c0-2.39-.56-3.58-1.7-3.58s-1.8,1.21-1.8,3.65c0,2.27.59,3.4,1.76,3.4S399.25,200.5,399.25,198.19Z"/><path fill="#1e1e1e" d="M406.93,198.1a8.15,8.15,0,0,1-.19,1.87,4.41,4.41,0,0,1-.55,1.37,2.34,2.34,0,0,1-2.08,1.14,2.19,2.19,0,0,1-1.12-.28,2.32,2.32,0,0,1-.84-.81,3.82,3.82,0,0,1-.51-1.31,7.93,7.93,0,0,1-.18-1.78,9.35,9.35,0,0,1,.18-1.94,4.63,4.63,0,0,1,.55-1.42,2.34,2.34,0,0,1,.88-.86,2.56,2.56,0,0,1,1.22-.29Q406.93,193.79,406.93,198.1Zm-1,.09c0-2.39-.57-3.58-1.71-3.58s-1.8,1.21-1.8,3.65c0,2.27.59,3.4,1.77,3.4S406,200.5,406,198.19Z"/></g><g><path fill="#1e1e1e" d="M499.71,198.94q0,3.54-3.2,3.54t-3.06-3.41v-5.14h1V199c0,1.72.73,2.58,2.18,2.58s2.1-.83,2.1-2.5v-5.16h1Z"/><path fill="#1e1e1e" d="M507,199.23h-2.37v2.36h-.78v-2.36h-2.36v-.79h2.36v-2.36h.78v2.36H507Z"/><path fill="#1e1e1e" d="M508.86,202.33v-8.4h2.32q4.45,0,4.45,4.1a4.13,4.13,0,0,1-1.24,3.12,4.55,4.55,0,0,1-3.3,1.18Zm1-7.51v6.62h1.25a3.55,3.55,0,0,0,2.57-.88,3.3,3.3,0,0,0,.92-2.51q0-3.23-3.43-3.23Z"/><path fill="#1e1e1e" d="M521.49,194.82h-3.28v2.91h3v.88h-3v3.72h-1v-8.4h4.27Z"/><path fill="#1e1e1e" d="M527.1,194.82h-3.28v2.91h3v.88h-3v3.72h-1v-8.4h4.27Z"/><path fill="#1e1e1e" d="M532.71,194.82h-3.28v2.91h3v.88h-3v3.72h-1v-8.4h4.27Z"/></g><g><path fill="#fff" d="M378.44,182.33h-5v-8.4h1.89v6.87h3.11Z"/><path fill="#fff" d="M382.28,182.48a3.23,3.23,0,0,1-2.36-.84,3.47,3.47,0,0,1,0-4.61,3.37,3.37,0,0,1,2.41-.84,3.18,3.18,0,0,1,2.34.84,3,3,0,0,1,.85,2.22,3.18,3.18,0,0,1-.87,2.36A3.27,3.27,0,0,1,382.28,182.48Zm0-4.88a1.24,1.24,0,0,0-1,.46,2,2,0,0,0-.36,1.27c0,1.15.46,1.73,1.39,1.73s1.33-.59,1.33-1.77S383.22,177.6,382.32,177.6Z"/><path fill="#fff" d="M395.31,176.33l-1.73,6h-1.94l-.89-3.51a4.49,4.49,0,0,1-.1-.77h0a5,5,0,0,1-.12.74l-.95,3.54h-1.92l-1.69-6h1.88l.83,3.92a4.8,4.8,0,0,1,.09.66h0a3.84,3.84,0,0,1,.11-.69l1-3.89h1.76l.93,3.92a6.6,6.6,0,0,1,.08.68h0a5.06,5.06,0,0,1,.1-.68l.78-3.92Z"/><path fill="#fff" d="M399.11,182.17v-1.5a3.66,3.66,0,0,0,.91.41,3,3,0,0,0,.86.14,1.84,1.84,0,0,0,.78-.14.42.42,0,0,0,.28-.41.37.37,0,0,0-.13-.29,1,1,0,0,0-.33-.2A2.52,2.52,0,0,0,401,180l-.47-.16a6.21,6.21,0,0,1-.63-.29,1.62,1.62,0,0,1-.45-.36,1.29,1.29,0,0,1-.28-.48,1.7,1.7,0,0,1-.1-.63,1.61,1.61,0,0,1,.22-.87,1.88,1.88,0,0,1,.59-.6,3,3,0,0,1,.83-.34,4.59,4.59,0,0,1,1-.1,5.52,5.52,0,0,1,.81.06,5.3,5.3,0,0,1,.81.18v1.43a2.76,2.76,0,0,0-.75-.31,3.11,3.11,0,0,0-.79-.1,1.87,1.87,0,0,0-.34,0,1.23,1.23,0,0,0-.29.09.6.6,0,0,0-.19.16.34.34,0,0,0-.07.22.41.41,0,0,0,.11.28.79.79,0,0,0,.27.2,2.72,2.72,0,0,0,.38.16l.41.13a6.16,6.16,0,0,1,.67.28,2.55,2.55,0,0,1,.51.36,1.42,1.42,0,0,1,.33.48,1.86,1.86,0,0,1-.12,1.57,1.78,1.78,0,0,1-.61.61,2.72,2.72,0,0,1-.89.35,5,5,0,0,1-1,.11A5.17,5.17,0,0,1,399.11,182.17Z"/><path fill="#fff" d="M410.54,182.33H408.7v-.91h0a2.09,2.09,0,0,1-1.83,1.06c-1.4,0-2.09-.84-2.09-2.53v-3.62h1.85v3.46c0,.85.33,1.27,1,1.27a1,1,0,0,0,.8-.35,1.4,1.4,0,0,0,.3-.94v-3.44h1.84Z"/><path fill="#fff" d="M416,178a1.59,1.59,0,0,0-.77-.18,1.14,1.14,0,0,0-.95.44,2,2,0,0,0-.34,1.21v2.86h-1.85v-6h1.85v1.12h0a1.59,1.59,0,0,1,1.58-1.22,1.09,1.09,0,0,1,.45.07Z"/><path fill="#fff" d="M420.76,178a1.61,1.61,0,0,0-.78-.18,1.12,1.12,0,0,0-.94.44,1.93,1.93,0,0,0-.34,1.21v2.86h-1.85v-6h1.85v1.12h0a1.59,1.59,0,0,1,1.58-1.22,1.14,1.14,0,0,1,.46.07Z"/><path fill="#fff" d="M424.56,182.48a3.24,3.24,0,0,1-2.36-.84,3,3,0,0,1-.85-2.28,3,3,0,0,1,.89-2.33,3.34,3.34,0,0,1,2.4-.84A3.2,3.2,0,0,1,427,177a3,3,0,0,1,.85,2.22,3.15,3.15,0,0,1-.88,2.36A3.24,3.24,0,0,1,424.56,182.48Zm.05-4.88a1.21,1.21,0,0,0-1,.46,2,2,0,0,0-.36,1.27c0,1.15.46,1.73,1.39,1.73s1.33-.59,1.33-1.77S425.5,177.6,424.61,177.6Z"/><path fill="#fff" d="M435,181.65a3.36,3.36,0,0,1-1,2.58,3.86,3.86,0,0,1-2.8.92,4.43,4.43,0,0,1-1.92-.34v-1.56a3.68,3.68,0,0,0,1.87.54,2,2,0,0,0,1.45-.5,1.76,1.76,0,0,0,.52-1.34v-.48h0a2.09,2.09,0,0,1-1.87,1,2.26,2.26,0,0,1-1.83-.81,3.33,3.33,0,0,1-.67-2.17,3.67,3.67,0,0,1,.75-2.42,2.44,2.44,0,0,1,2-.89,1.83,1.83,0,0,1,1.64.84h0v-.7H435Zm-1.83-2.2V179a1.46,1.46,0,0,0-.33-1,1.1,1.1,0,0,0-.88-.41,1.15,1.15,0,0,0-1,.48,2.32,2.32,0,0,0-.35,1.36,1.84,1.84,0,0,0,.34,1.18,1.05,1.05,0,0,0,.91.44,1.16,1.16,0,0,0,.93-.44A1.87,1.87,0,0,0,433.12,179.45Z"/><path fill="#fff" d="M441.51,182.33h-1.75v-.86h0a2,2,0,0,1-1.78,1,1.9,1.9,0,0,1-1.38-.5,1.79,1.79,0,0,1-.5-1.32q0-1.74,2.07-2l1.63-.22c0-.66-.36-1-1.07-1a3.7,3.7,0,0,0-2,.63v-1.39a4.67,4.67,0,0,1,1.06-.35,5.7,5.7,0,0,1,1.22-.15,2.27,2.27,0,0,1,2.57,2.56Zm-1.74-2.43v-.41l-1.09.14c-.6.08-.9.35-.9.82a.64.64,0,0,0,.22.51.8.8,0,0,0,.59.21,1.1,1.1,0,0,0,.85-.36A1.31,1.31,0,0,0,439.77,179.9Z"/><path fill="#fff" d="M446.51,182.26a2.62,2.62,0,0,1-1.23.22,1.76,1.76,0,0,1-2-2V177.7h-1v-1.37h1V175l1.85-.53v1.82h1.34v1.37h-1.34v2.42c0,.63.24.94.74.94a1.24,1.24,0,0,0,.6-.17Z"/><path fill="#fff" d="M452.94,179.86H449c.07.87.62,1.31,1.65,1.31a3.24,3.24,0,0,0,1.74-.47V182a4.5,4.5,0,0,1-2.16.45,2.79,2.79,0,0,1-3.06-3,3.2,3.2,0,0,1,.87-2.37,2.9,2.9,0,0,1,2.13-.87,2.62,2.62,0,0,1,2,.78,3,3,0,0,1,.72,2.11Zm-1.72-1.14c0-.86-.35-1.29-1-1.29a1,1,0,0,0-.77.37,1.72,1.72,0,0,0-.4.92Z"/><path fill="#fff" d="M461.9,182.12a3.69,3.69,0,0,1-1.81.36,3.06,3.06,0,0,1-2.24-.84,2.9,2.9,0,0,1-.86-2.16,3.19,3.19,0,0,1,.92-2.41,3.38,3.38,0,0,1,2.45-.88,3.14,3.14,0,0,1,1.54.28V178a2.13,2.13,0,0,0-1.3-.44,1.71,1.71,0,0,0-1.26.47,1.75,1.75,0,0,0-.47,1.29,1.71,1.71,0,0,0,.45,1.25,1.64,1.64,0,0,0,1.22.45,2.43,2.43,0,0,0,1.36-.43Z"/><path fill="#fff" d="M466,182.48a3.24,3.24,0,0,1-2.36-.84,3,3,0,0,1-.85-2.28,3,3,0,0,1,.89-2.33,3.34,3.34,0,0,1,2.4-.84,3.2,3.2,0,0,1,2.35.84,3,3,0,0,1,.85,2.22,3.15,3.15,0,0,1-.88,2.36A3.24,3.24,0,0,1,466,182.48Zm.05-4.88a1.21,1.21,0,0,0-1,.46,2,2,0,0,0-.36,1.27c0,1.15.46,1.73,1.39,1.73s1.33-.59,1.33-1.77S466.9,177.6,466,177.6Z"/><path fill="#fff" d="M476.34,182.33h-1.85v-.82h0a2.08,2.08,0,0,1-1.85,1,2.29,2.29,0,0,1-1.81-.79,3.28,3.28,0,0,1-.69-2.22,3.57,3.57,0,0,1,.76-2.39,2.44,2.44,0,0,1,2-.89,1.66,1.66,0,0,1,1.61.83h0v-3.57h1.85Zm-1.82-2.92V179a1.4,1.4,0,0,0-.34-1,1.1,1.1,0,0,0-.88-.39,1.12,1.12,0,0,0-1,.49,2.22,2.22,0,0,0-.35,1.32,2,2,0,0,0,.33,1.22,1.19,1.19,0,0,0,1.85,0A1.92,1.92,0,0,0,474.52,179.41Z"/><path fill="#fff" d="M483.29,179.86h-3.92c.07.87.61,1.31,1.65,1.31a3.24,3.24,0,0,0,1.74-.47V182a4.53,4.53,0,0,1-2.16.45,2.79,2.79,0,0,1-3.06-3,3.2,3.2,0,0,1,.87-2.37,2.88,2.88,0,0,1,2.13-.87,2.63,2.63,0,0,1,2,.78,3,3,0,0,1,.72,2.11Zm-1.72-1.14c0-.86-.35-1.29-1-1.29a1,1,0,0,0-.77.37,1.72,1.72,0,0,0-.4.92Z"/><path fill="#fff" d="M489.57,181.64h0v3.45H487.7v-8.76h1.85v.9h0a2.19,2.19,0,0,1,1.93-1,2.14,2.14,0,0,1,1.8.8,3.34,3.34,0,0,1,.64,2.17,3.71,3.71,0,0,1-.74,2.41,2.41,2.41,0,0,1-2,.91A1.88,1.88,0,0,1,489.57,181.64Zm-.05-2.47v.48a1.53,1.53,0,0,0,.33,1,1.08,1.08,0,0,0,.86.39,1.12,1.12,0,0,0,1-.49,2.29,2.29,0,0,0,.35-1.38q0-1.59-1.23-1.59a1.18,1.18,0,0,0-.93.43A1.73,1.73,0,0,0,489.52,179.17Z"/><path fill="#fff" d="M498.05,182.48a3.23,3.23,0,0,1-2.36-.84,3.47,3.47,0,0,1,0-4.61,3.38,3.38,0,0,1,2.41-.84,3.2,3.2,0,0,1,2.35.84,3,3,0,0,1,.84,2.22,3.18,3.18,0,0,1-.87,2.36A3.27,3.27,0,0,1,498.05,182.48Zm.05-4.88a1.21,1.21,0,0,0-1,.46,1.92,1.92,0,0,0-.37,1.27c0,1.15.47,1.73,1.4,1.73s1.33-.59,1.33-1.77S499,177.6,498.1,177.6Z"/><path fill="#fff" d="M503.43,175.38a1.07,1.07,0,0,1-.77-.28.92.92,0,0,1,0-1.36,1.16,1.16,0,0,1,.77-.26,1.14,1.14,0,0,1,.77.26.93.93,0,0,1,0,1.37A1.1,1.1,0,0,1,503.43,175.38Zm.91,7h-1.85v-6h1.85Z"/><path fill="#fff" d="M511.68,182.33h-1.85V179c0-.93-.33-1.4-1-1.4a1,1,0,0,0-.79.37,1.46,1.46,0,0,0-.31.94v3.42h-1.85v-6h1.85v.95h0a2.11,2.11,0,0,1,1.92-1.09c1.33,0,2,.82,2,2.47Z"/><path fill="#fff" d="M516.7,182.26a2.67,2.67,0,0,1-1.24.22c-1.3,0-2-.68-2-2V177.7h-1v-1.37h1V175l1.84-.53v1.82h1.35v1.37h-1.35v2.42c0,.63.25.94.75.94a1.31,1.31,0,0,0,.6-.17Z"/><path fill="#fff" d="M517.55,182.17v-1.5a3.66,3.66,0,0,0,.91.41,3,3,0,0,0,.86.14,1.79,1.79,0,0,0,.77-.14.43.43,0,0,0,.29-.41.37.37,0,0,0-.13-.29,1.08,1.08,0,0,0-.33-.2,2.85,2.85,0,0,0-.44-.16l-.47-.16a4.68,4.68,0,0,1-.63-.29,1.62,1.62,0,0,1-.45-.36,1.29,1.29,0,0,1-.28-.48,1.7,1.7,0,0,1-.1-.63,1.61,1.61,0,0,1,.22-.87,1.84,1.84,0,0,1,.58-.6,3.15,3.15,0,0,1,.84-.34,4.53,4.53,0,0,1,1-.1,5.52,5.52,0,0,1,.81.06,5.58,5.58,0,0,1,.81.18v1.43a2.76,2.76,0,0,0-.75-.31,3.11,3.11,0,0,0-.79-.1,1.79,1.79,0,0,0-.34,0,1.1,1.1,0,0,0-.29.09.6.6,0,0,0-.19.16.34.34,0,0,0-.07.22.4.4,0,0,0,.1.28.84.84,0,0,0,.28.2,2.72,2.72,0,0,0,.38.16l.41.13a6.16,6.16,0,0,1,.67.28,2.55,2.55,0,0,1,.51.36,1.58,1.58,0,0,1,.33.48,2,2,0,0,1-.12,1.57,1.78,1.78,0,0,1-.61.61,2.72,2.72,0,0,1-.89.35,5,5,0,0,1-1,.11A5.17,5.17,0,0,1,517.55,182.17Z"/></g><g><path fill="#1e1e1e" d="M114.86,10.2V1.8h2.39a2.63,2.63,0,0,1,1.73.53,1.72,1.72,0,0,1,.64,1.39A2,2,0,0,1,119.23,5a2.07,2.07,0,0,1-1.06.75v0a2.13,2.13,0,0,1,1.36.64A2,2,0,0,1,120,7.79a2.17,2.17,0,0,1-.78,1.74,2.84,2.84,0,0,1-2,.67Zm1-7.51V5.4h1A1.91,1.91,0,0,0,118.13,5a1.34,1.34,0,0,0,.46-1.1c0-.81-.54-1.22-1.61-1.22Zm0,3.6v3h1.33a2,2,0,0,0,1.35-.41A1.4,1.4,0,0,0,119,7.78c0-1-.68-1.49-2-1.49Z"/><path fill="#1e1e1e" d="M130.22,10.2h-1V4.56c0-.44,0-1,.08-1.63h0a5.05,5.05,0,0,1-.25.81l-2.87,6.46h-.48l-2.87-6.41a5.64,5.64,0,0,1-.25-.86h0c0,.34,0,.88,0,1.65V10.2h-.95V1.8H123l2.57,5.86a7.38,7.38,0,0,1,.39,1h0c.16-.46.3-.81.4-1L129,1.8h1.23Z"/><path fill="#1e1e1e" d="M133.29,7V10.2h-1V1.8h2.31a3,3,0,0,1,2.09.66,2.34,2.34,0,0,1,.74,1.85,2.56,2.56,0,0,1-.82,2A3.15,3.15,0,0,1,134.4,7Zm0-4.34V6.13h1a2.3,2.3,0,0,0,1.55-.46,1.65,1.65,0,0,0,.54-1.32c0-1.11-.66-1.66-2-1.66Z"/></g><g><path fill="#1e1e1e" d="M76.6,59.94q0,3.54-3.2,3.54t-3.06-3.41V54.93h1V60c0,1.72.72,2.58,2.18,2.58s2.1-.83,2.1-2.5V54.93h1Z"/><path fill="#1e1e1e" d="M83.89,60.23H81.52v2.36h-.78V60.23H78.38v-.79h2.36V57.08h.78v2.36h2.37Z"/><path fill="#1e1e1e" d="M90.83,59.1A8.15,8.15,0,0,1,90.64,61a4.18,4.18,0,0,1-.55,1.37A2.34,2.34,0,0,1,88,63.48a2.2,2.2,0,0,1-1.13-.28,2.32,2.32,0,0,1-.84-.81,4,4,0,0,1-.51-1.31,7.93,7.93,0,0,1-.18-1.78,8.67,8.67,0,0,1,.19-1.94,4.38,4.38,0,0,1,.54-1.42,2.44,2.44,0,0,1,.89-.86,2.49,2.49,0,0,1,1.21-.29Q90.83,54.79,90.83,59.1Zm-1,.09c0-2.39-.57-3.58-1.7-3.58s-1.8,1.21-1.8,3.65c0,2.27.58,3.4,1.76,3.4S89.85,61.5,89.85,59.19Z"/><path fill="#1e1e1e" d="M97.53,59.1A8.15,8.15,0,0,1,97.34,61a4.41,4.41,0,0,1-.55,1.37,2.49,2.49,0,0,1-.89.85,2.44,2.44,0,0,1-1.19.29,2.22,2.22,0,0,1-2-1.09,4,4,0,0,1-.52-1.31,8,8,0,0,1-.17-1.78,9.35,9.35,0,0,1,.18-1.94,4.38,4.38,0,0,1,.54-1.42,2.36,2.36,0,0,1,2.11-1.15Q97.53,54.79,97.53,59.1Zm-1,.09c0-2.39-.56-3.58-1.7-3.58S93,56.82,93,59.26c0,2.27.59,3.4,1.76,3.4S96.54,61.5,96.54,59.19Z"/><path fill="#1e1e1e" d="M104.22,59.1A8.15,8.15,0,0,1,104,61a4.18,4.18,0,0,1-.55,1.37,2.34,2.34,0,0,1-2.08,1.14,2.19,2.19,0,0,1-1.12-.28,2.32,2.32,0,0,1-.84-.81,4,4,0,0,1-.51-1.31,7.93,7.93,0,0,1-.18-1.78,8.67,8.67,0,0,1,.19-1.94,4.38,4.38,0,0,1,.54-1.42,2.49,2.49,0,0,1,.88-.86,2.56,2.56,0,0,1,1.22-.29Q104.22,54.79,104.22,59.1Zm-1,.09c0-2.39-.57-3.58-1.71-3.58s-1.8,1.21-1.8,3.65c0,2.27.59,3.4,1.77,3.4S103.24,61.5,103.24,59.19Z"/><path fill="#1e1e1e" d="M110.92,59.1a8.75,8.75,0,0,1-.19,1.87,4.41,4.41,0,0,1-.55,1.37,2.37,2.37,0,0,1-2.08,1.14,2.22,2.22,0,0,1-2-1.09,4,4,0,0,1-.52-1.31,7.93,7.93,0,0,1-.18-1.78,9.3,9.3,0,0,1,.19-1.94,4.38,4.38,0,0,1,.54-1.42,2.36,2.36,0,0,1,2.1-1.15Q110.93,54.79,110.92,59.1Zm-1,.09c0-2.39-.57-3.58-1.7-3.58s-1.8,1.21-1.8,3.65c0,2.27.59,3.4,1.76,3.4S109.93,61.5,109.93,59.19Z"/></g><g><path fill="#1e1e1e" d="M146.66,59.94q0,3.54-3.2,3.54-3,0-3.05-3.41V54.93h1V60c0,1.72.73,2.58,2.18,2.58s2.1-.83,2.1-2.5V54.93h1Z"/><path fill="#1e1e1e" d="M154,60.23h-2.36v2.36h-.78V60.23h-2.37v-.79h2.37V57.08h.78v2.36H154Z"/><path fill="#1e1e1e" d="M160.08,55.82H156.8v2.91h3v.88h-3v3.72h-1v-8.4h4.27Z"/><path fill="#1e1e1e" d="M165.69,55.82h-3.28v2.91h3v.88h-3v3.72h-1v-8.4h4.26Z"/><path fill="#1e1e1e" d="M171.3,55.82H168v2.91h3v.88h-3v3.72h-1v-8.4h4.26Z"/><path fill="#1e1e1e" d="M176.91,55.82h-3.28v2.91h3v.88h-3v3.72h-1v-8.4h4.26Z"/></g><g><path fill="#1e1e1e" d="M468.3,59.94q0,3.54-3.19,3.54t-3.06-3.41V54.93h1V60c0,1.72.72,2.58,2.18,2.58s2.1-.83,2.1-2.5V54.93h1Z"/><path fill="#1e1e1e" d="M475.6,60.23h-2.37v2.36h-.78V60.23h-2.36v-.79h2.36V57.08h.78v2.36h2.37Z"/><path fill="#1e1e1e" d="M479.61,63.33h-1V56.08a2.3,2.3,0,0,1-.33.25,3.57,3.57,0,0,1-.48.28,4.15,4.15,0,0,1-.56.27,4.89,4.89,0,0,1-.58.19v-1a5.58,5.58,0,0,0,.68-.24q.35-.15.69-.33c.23-.13.45-.25.65-.39s.38-.27.53-.39h.36Z"/><path fill="#1e1e1e" d="M487.3,59.1a8.75,8.75,0,0,1-.19,1.87,4.41,4.41,0,0,1-.55,1.37,2.49,2.49,0,0,1-.89.85,2.44,2.44,0,0,1-1.19.29,2.22,2.22,0,0,1-2-1.09,4,4,0,0,1-.52-1.31,8,8,0,0,1-.17-1.78,9.35,9.35,0,0,1,.18-1.94,4.38,4.38,0,0,1,.54-1.42,2.36,2.36,0,0,1,2.11-1.15Q487.3,54.79,487.3,59.1Zm-1,.09c0-2.39-.56-3.58-1.7-3.58s-1.8,1.21-1.8,3.65c0,2.27.59,3.4,1.76,3.4S486.31,61.5,486.31,59.19Z"/><path fill="#1e1e1e" d="M493.21,55.82h-3.28v2.91h3v.88h-3v3.72h-1v-8.4h4.26Z"/><path fill="#1e1e1e" d="M498.82,55.82h-3.28v2.91h3v.88h-3v3.72h-1v-8.4h4.26Z"/><path fill="#1e1e1e" d="M504.44,55.82h-3.29v2.91h3v.88h-3v3.72h-1v-8.4h4.27Z"/><path fill="#1e1e1e" d="M510.05,55.82h-3.28v2.91h3v.88h-3v3.72h-1v-8.4h4.27Z"/></g><g><path fill="#1e1e1e" d="M253.05,18.52V17.36a1.91,1.91,0,0,0,.48.32,5,5,0,0,0,.58.24c.21.06.41.11.62.15a4.13,4.13,0,0,0,.57.05,2.22,2.22,0,0,0,1.36-.34,1.14,1.14,0,0,0,.45-1,1.15,1.15,0,0,0-.15-.59,1.76,1.76,0,0,0-.41-.46,4.57,4.57,0,0,0-.63-.4l-.77-.4c-.3-.15-.57-.3-.82-.45a3.54,3.54,0,0,1-.67-.5,2.47,2.47,0,0,1-.44-.63,1.88,1.88,0,0,1-.16-.82,1.93,1.93,0,0,1,.25-1,2.32,2.32,0,0,1,.66-.7,3.19,3.19,0,0,1,.94-.41,4.24,4.24,0,0,1,1.07-.13,4.08,4.08,0,0,1,1.81.3v1.11a3.24,3.24,0,0,0-1.91-.52,2.88,2.88,0,0,0-.65.07,1.78,1.78,0,0,0-.57.22,1.18,1.18,0,0,0-.41.39,1,1,0,0,0-.16.59,1.18,1.18,0,0,0,.12.55,1.31,1.31,0,0,0,.36.43,3.51,3.51,0,0,0,.57.38l.77.39c.3.15.59.31.86.47a4.46,4.46,0,0,1,.71.55,2.53,2.53,0,0,1,.48.66,1.84,1.84,0,0,1,.18.83,2.09,2.09,0,0,1-.24,1.05,2,2,0,0,1-.66.7,2.8,2.8,0,0,1-.95.39,5.24,5.24,0,0,1-1.14.12l-.49,0-.6-.09a5.47,5.47,0,0,1-.58-.15A1.91,1.91,0,0,1,253.05,18.52Z"/><path fill="#1e1e1e" d="M264.4,18.86h-1v-.95h0A2,2,0,0,1,261.56,19c-1.43,0-2.14-.85-2.14-2.55V12.86h.95V16.3c0,1.26.49,1.89,1.46,1.89a1.47,1.47,0,0,0,1.15-.51,2,2,0,0,0,.46-1.36V12.86h1Z"/><path fill="#1e1e1e" d="M267.2,18h0v3.62h-1V12.86h1v1.06h0a2.26,2.26,0,0,1,2.07-1.2,2.18,2.18,0,0,1,1.81.81,3.28,3.28,0,0,1,.65,2.16A3.72,3.72,0,0,1,271,18.1a2.45,2.45,0,0,1-2,.9A2,2,0,0,1,267.2,18Zm0-2.42v.83a1.82,1.82,0,0,0,.49,1.27,1.73,1.73,0,0,0,2.59-.15,3.09,3.09,0,0,0,.5-1.86,2.47,2.47,0,0,0-.46-1.57,1.54,1.54,0,0,0-1.26-.57,1.73,1.73,0,0,0-1.35.58A2.16,2.16,0,0,0,267.17,15.58Z"/><path fill="#1e1e1e" d="M274.2,18h0v3.62h-1V12.86h1v1.06h0a2.26,2.26,0,0,1,2.07-1.2,2.18,2.18,0,0,1,1.81.81,3.28,3.28,0,0,1,.65,2.16A3.72,3.72,0,0,1,278,18.1a2.44,2.44,0,0,1-2,.9A2,2,0,0,1,274.2,18Zm0-2.42v.83a1.81,1.81,0,0,0,.48,1.27,1.73,1.73,0,0,0,2.59-.15,3.09,3.09,0,0,0,.5-1.86,2.41,2.41,0,0,0-.46-1.57,1.54,1.54,0,0,0-1.26-.57,1.71,1.71,0,0,0-1.34.58A2.16,2.16,0,0,0,274.18,15.58Z"/><path fill="#1e1e1e" d="M281.19,18.86h-1V10h1Z"/><path fill="#1e1e1e" d="M287.91,16.1h-4.23a2.23,2.23,0,0,0,.53,1.55,1.88,1.88,0,0,0,1.42.54,3,3,0,0,0,1.87-.66v.9a3.53,3.53,0,0,1-2.1.57,2.53,2.53,0,0,1-2-.81,3.34,3.34,0,0,1-.73-2.3,3.29,3.29,0,0,1,.79-2.29,2.58,2.58,0,0,1,2-.88,2.29,2.29,0,0,1,1.83.76,3.19,3.19,0,0,1,.64,2.12Zm-1-.81a2,2,0,0,0-.4-1.3,1.4,1.4,0,0,0-1.1-.46,1.54,1.54,0,0,0-1.16.49,2.21,2.21,0,0,0-.58,1.27Z"/><path fill="#1e1e1e" d="M297.88,18.86h-1V15.42a2.62,2.62,0,0,0-.3-1.44,1.17,1.17,0,0,0-1-.45,1.27,1.27,0,0,0-1,.56,2.16,2.16,0,0,0-.44,1.35v3.42h-1V15.3c0-1.18-.45-1.77-1.36-1.77a1.27,1.27,0,0,0-1,.53,2.14,2.14,0,0,0-.41,1.38v3.42h-1v-6h1v1h0a2,2,0,0,1,1.86-1.09,1.77,1.77,0,0,1,1.07.34,1.69,1.69,0,0,1,.63.9,2.16,2.16,0,0,1,2-1.24c1.32,0,2,.82,2,2.45Z"/><path fill="#1e1e1e" d="M304.5,16.1h-4.24a2.28,2.28,0,0,0,.54,1.55,1.88,1.88,0,0,0,1.42.54,2.94,2.94,0,0,0,1.86-.66v.9A3.47,3.47,0,0,1,302,19a2.57,2.57,0,0,1-2-.81,3.39,3.39,0,0,1-.72-2.3,3.29,3.29,0,0,1,.79-2.29,2.58,2.58,0,0,1,2-.88,2.29,2.29,0,0,1,1.83.76,3.19,3.19,0,0,1,.64,2.12Zm-1-.81a2,2,0,0,0-.41-1.3,1.38,1.38,0,0,0-1.09-.46,1.54,1.54,0,0,0-1.16.49,2.21,2.21,0,0,0-.58,1.27Z"/><path fill="#1e1e1e" d="M310.93,18.86h-1V15.44c0-1.27-.46-1.91-1.39-1.91a1.5,1.5,0,0,0-1.19.54,2,2,0,0,0-.48,1.37v3.42h-1v-6h1v1h0a2.16,2.16,0,0,1,2-1.14,1.82,1.82,0,0,1,1.5.64,2.79,2.79,0,0,1,.52,1.83Z"/><path fill="#1e1e1e" d="M315.43,18.8a1.82,1.82,0,0,1-.9.19c-1,0-1.58-.58-1.58-1.76V13.68h-1v-.82h1V11.4l1-.31v1.77h1.52v.82h-1.52v3.38a1.41,1.41,0,0,0,.21.87.82.82,0,0,0,.68.25,1,1,0,0,0,.63-.2Z"/><path fill="#1e1e1e" d="M321.11,18.86h-1v-.93h0A2,2,0,0,1,318.28,19a2,2,0,0,1-1.41-.47,1.64,1.64,0,0,1-.5-1.26c0-1.12.66-1.77,2-2l1.8-.25c0-1-.42-1.53-1.24-1.53a3,3,0,0,0-2,.74v-1a3.76,3.76,0,0,1,2-.56c1.41,0,2.12.75,2.12,2.24Zm-1-3-1.45.2a2.3,2.3,0,0,0-1,.33,1,1,0,0,0-.34.84.92.92,0,0,0,.31.72,1.25,1.25,0,0,0,.84.27,1.51,1.51,0,0,0,1.18-.5,1.77,1.77,0,0,0,.47-1.26Z"/><path fill="#1e1e1e" d="M326,13.84a1.18,1.18,0,0,0-.73-.2,1.25,1.25,0,0,0-1,.58,2.74,2.74,0,0,0-.41,1.58v3.06h-1v-6h1V14.1h0a2.17,2.17,0,0,1,.63-1,1.46,1.46,0,0,1,.94-.35,1.52,1.52,0,0,1,.58.08Z"/><path fill="#1e1e1e" d="M332.28,12.86l-2.76,7c-.49,1.25-1.19,1.87-2.08,1.87a2.12,2.12,0,0,1-.62-.08v-.86a1.71,1.71,0,0,0,.57.1,1.18,1.18,0,0,0,1.09-.86l.48-1.14-2.35-6h1.07l1.62,4.62c0,.06.06.21.12.46h0q0-.15.12-.45l1.7-4.63Z"/><path fill="#1e1e1e" d="M340.69,18.59a3.19,3.19,0,0,1-1.64.41,2.72,2.72,0,0,1-2.08-.83,3.06,3.06,0,0,1-.78-2.17,3.32,3.32,0,0,1,.85-2.38,3,3,0,0,1,2.26-.9,3.1,3.1,0,0,1,1.4.3v1a2.47,2.47,0,0,0-1.43-.47,1.92,1.92,0,0,0-1.51.66,2.52,2.52,0,0,0-.59,1.73,2.4,2.4,0,0,0,.55,1.67,1.94,1.94,0,0,0,1.49.6,2.41,2.41,0,0,0,1.48-.52Z"/><path fill="#1e1e1e" d="M344.5,19a2.79,2.79,0,0,1-2.12-.84,3.11,3.11,0,0,1-.8-2.23,3.26,3.26,0,0,1,.83-2.36,3,3,0,0,1,2.23-.85,2.7,2.7,0,0,1,2.1.83,3.27,3.27,0,0,1,.75,2.29,3.23,3.23,0,0,1-.81,2.3A2.83,2.83,0,0,1,344.5,19Zm.07-5.47a1.83,1.83,0,0,0-1.46.63,2.59,2.59,0,0,0-.54,1.74,2.46,2.46,0,0,0,.54,1.68,1.86,1.86,0,0,0,1.46.61,1.79,1.79,0,0,0,1.44-.6,2.63,2.63,0,0,0,.5-1.72,2.68,2.68,0,0,0-.5-1.73A1.76,1.76,0,0,0,344.57,13.53Z"/><path fill="#1e1e1e" d="M354.15,18.86h-1v-1h0A2.2,2.2,0,0,1,351.1,19a2.27,2.27,0,0,1-1.81-.8,3.32,3.32,0,0,1-.67-2.2,3.59,3.59,0,0,1,.75-2.38,2.46,2.46,0,0,1,2-.9,1.93,1.93,0,0,1,1.8,1h0V10h1Zm-1-2.71v-.88a1.74,1.74,0,0,0-.48-1.24,1.64,1.64,0,0,0-1.22-.5,1.68,1.68,0,0,0-1.39.65,2.83,2.83,0,0,0-.5,1.78,2.53,2.53,0,0,0,.48,1.63,1.6,1.6,0,0,0,1.3.6,1.65,1.65,0,0,0,1.31-.58A2.16,2.16,0,0,0,353.19,16.15Z"/><path fill="#1e1e1e" d="M360.86,16.1h-4.24a2.28,2.28,0,0,0,.54,1.55,1.88,1.88,0,0,0,1.42.54,2.94,2.94,0,0,0,1.86-.66v.9a3.47,3.47,0,0,1-2.09.57,2.56,2.56,0,0,1-2-.81,3.39,3.39,0,0,1-.72-2.3,3.29,3.29,0,0,1,.79-2.29,2.58,2.58,0,0,1,2-.88,2.29,2.29,0,0,1,1.83.76,3.19,3.19,0,0,1,.64,2.12Zm-1-.81a2,2,0,0,0-.4-1.3,1.42,1.42,0,0,0-1.1-.46,1.54,1.54,0,0,0-1.16.49,2.15,2.15,0,0,0-.58,1.27Z"/><path fill="#1e1e1e" d="M366.58,18h0v3.62h-1V12.86h1v1.06h0a2.29,2.29,0,0,1,2.08-1.2,2.19,2.19,0,0,1,1.81.81,3.33,3.33,0,0,1,.65,2.16,3.72,3.72,0,0,1-.73,2.41,2.46,2.46,0,0,1-2,.9A2,2,0,0,1,366.58,18Zm0-2.42v.83a1.77,1.77,0,0,0,.49,1.27,1.73,1.73,0,0,0,2.59-.15,3.09,3.09,0,0,0,.5-1.86,2.41,2.41,0,0,0-.47-1.57,1.52,1.52,0,0,0-1.25-.57,1.73,1.73,0,0,0-1.35.58A2.16,2.16,0,0,0,366.56,15.58Z"/><path fill="#1e1e1e" d="M375.16,19a2.79,2.79,0,0,1-2.12-.84,3.11,3.11,0,0,1-.8-2.23,3.26,3.26,0,0,1,.83-2.36,3,3,0,0,1,2.23-.85,2.7,2.7,0,0,1,2.1.83,3.27,3.27,0,0,1,.75,2.29,3.23,3.23,0,0,1-.81,2.3A2.83,2.83,0,0,1,375.16,19Zm.07-5.47a1.83,1.83,0,0,0-1.46.63,2.59,2.59,0,0,0-.54,1.74,2.46,2.46,0,0,0,.54,1.68,1.86,1.86,0,0,0,1.46.61,1.79,1.79,0,0,0,1.44-.6,2.63,2.63,0,0,0,.5-1.72,2.68,2.68,0,0,0-.5-1.73A1.76,1.76,0,0,0,375.23,13.53Z"/><path fill="#1e1e1e" d="M380.09,11.34a.59.59,0,0,1-.44-.18.55.55,0,0,1-.19-.44.63.63,0,0,1,.63-.63.6.6,0,0,1,.44.18.58.58,0,0,1,.19.45.58.58,0,0,1-.19.44A.6.6,0,0,1,380.09,11.34Zm.46,7.52h-1v-6h1Z"/><path fill="#1e1e1e" d="M387.36,18.86h-1V15.44c0-1.27-.46-1.91-1.39-1.91a1.52,1.52,0,0,0-1.2.54,2,2,0,0,0-.47,1.37v3.42h-1v-6h1v1h0a2.17,2.17,0,0,1,2-1.14,1.83,1.83,0,0,1,1.51.64,2.79,2.79,0,0,1,.52,1.83Z"/><path fill="#1e1e1e" d="M391.85,18.8A1.76,1.76,0,0,1,391,19c-1,0-1.58-.58-1.58-1.76V13.68h-1v-.82h1V11.4l1-.31v1.77h1.51v.82h-1.51v3.38a1.41,1.41,0,0,0,.21.87.81.81,0,0,0,.68.25.94.94,0,0,0,.62-.2Z"/><path fill="#1e1e1e" d="M392.87,18.65v-1a2.82,2.82,0,0,0,1.73.58q1.26,0,1.26-.84a.7.7,0,0,0-.11-.41,1,1,0,0,0-.29-.29,1.76,1.76,0,0,0-.43-.23l-.54-.22a5.79,5.79,0,0,1-.7-.32,2,2,0,0,1-.5-.36,1.29,1.29,0,0,1-.31-.46,1.57,1.57,0,0,1-.1-.6,1.44,1.44,0,0,1,.19-.75,1.7,1.7,0,0,1,.52-.55,2.71,2.71,0,0,1,.73-.33,3.49,3.49,0,0,1,.86-.11,3.41,3.41,0,0,1,1.39.27v1a2.78,2.78,0,0,0-1.52-.43,1.88,1.88,0,0,0-.49.06,1.06,1.06,0,0,0-.37.18A.85.85,0,0,0,394,14a.69.69,0,0,0-.09.34.82.82,0,0,0,.09.4.94.94,0,0,0,.25.28,2.11,2.11,0,0,0,.4.22l.53.22a7.07,7.07,0,0,1,.72.31,2.45,2.45,0,0,1,.53.36,1.45,1.45,0,0,1,.35.47,1.54,1.54,0,0,1,.12.63,1.5,1.5,0,0,1-.2.77,1.7,1.7,0,0,1-.52.55,2.49,2.49,0,0,1-.76.32,3.71,3.71,0,0,1-.9.1A3.49,3.49,0,0,1,392.87,18.65Z"/></g><g><path fill="#fff" d="M272.15,40.56c0,2.52-1.18,3.79-3.53,3.79s-3.42-1.24-3.42-3.7V35.8h1.89v4.87c0,1.36.54,2,1.6,2s1.56-.66,1.56-2V35.8h1.9Z"/><path fill="#fff" d="M279.52,44.2h-1.84V40.87c0-.93-.34-1.4-1-1.4a1,1,0,0,0-.79.37,1.4,1.4,0,0,0-.31.94V44.2h-1.85v-6h1.85v.95h0a2.13,2.13,0,0,1,1.93-1.1c1.33,0,2,.83,2,2.48Z"/><path fill="#fff" d="M281.91,37.25a1.07,1.07,0,0,1-.77-.28.88.88,0,0,1-.3-.68.87.87,0,0,1,.3-.68,1.27,1.27,0,0,1,1.54,0,.86.86,0,0,1,.29.68.88.88,0,0,1-.29.69A1.11,1.11,0,0,1,281.91,37.25Zm.91,7H281v-6h1.85Z"/><path fill="#fff" d="M288.9,44a3.68,3.68,0,0,1-1.81.37,3.06,3.06,0,0,1-2.24-.84,2.9,2.9,0,0,1-.86-2.16,3.22,3.22,0,0,1,.92-2.42,3.42,3.42,0,0,1,2.45-.88,3.26,3.26,0,0,1,1.54.28V39.9a2.18,2.18,0,0,0-1.3-.43,1.71,1.71,0,0,0-1.26.47,1.73,1.73,0,0,0-.46,1.28,1.69,1.69,0,0,0,.44,1.25,1.63,1.63,0,0,0,1.23.46,2.43,2.43,0,0,0,1.35-.44Z"/><path fill="#fff" d="M293,44.35a3.21,3.21,0,0,1-2.36-.85,3.49,3.49,0,0,1,0-4.61,3.35,3.35,0,0,1,2.41-.84,3.19,3.19,0,0,1,2.34.84,3,3,0,0,1,.85,2.23,3.16,3.16,0,0,1-.88,2.36A3.24,3.24,0,0,1,293,44.35Zm.05-4.88a1.23,1.23,0,0,0-1,.45,2,2,0,0,0-.36,1.28c0,1.15.46,1.73,1.39,1.73s1.33-.59,1.33-1.78S293.9,39.47,293,39.47Z"/><path fill="#fff" d="M303.34,44.2h-1.85v-.83h0a2.1,2.1,0,0,1-1.86,1,2.27,2.27,0,0,1-1.81-.8,3.28,3.28,0,0,1-.69-2.22,3.54,3.54,0,0,1,.76-2.38,2.45,2.45,0,0,1,2-.9,1.7,1.7,0,0,1,1.62.83h0V35.32h1.85Zm-1.82-2.92v-.45a1.4,1.4,0,0,0-.34-1,1.1,1.1,0,0,0-.88-.39,1.12,1.12,0,0,0-1,.48,2.28,2.28,0,0,0-.35,1.33,1.91,1.91,0,0,0,.34,1.22,1.09,1.09,0,0,0,.92.43,1.12,1.12,0,0,0,.92-.45A1.92,1.92,0,0,0,301.52,41.28Z"/><path fill="#fff" d="M310.29,41.73h-3.91c.06.87.61,1.3,1.64,1.3a3.15,3.15,0,0,0,1.74-.47V43.9a4.5,4.5,0,0,1-2.16.45,2.8,2.8,0,0,1-3.06-3.06,3.19,3.19,0,0,1,.87-2.36,2.87,2.87,0,0,1,2.13-.88,2.62,2.62,0,0,1,2,.78,3,3,0,0,1,.72,2.12Zm-1.72-1.14c0-.86-.34-1.29-1-1.29a1,1,0,0,0-.77.37,1.68,1.68,0,0,0-.4.92Z"/><path fill="#fff" d="M319.25,44a3.68,3.68,0,0,1-1.81.37,3.06,3.06,0,0,1-2.24-.84,2.9,2.9,0,0,1-.86-2.16,3.22,3.22,0,0,1,.92-2.42,3.42,3.42,0,0,1,2.45-.88,3.26,3.26,0,0,1,1.54.28V39.9a2.18,2.18,0,0,0-1.3-.43,1.71,1.71,0,0,0-1.26.47,1.73,1.73,0,0,0-.46,1.28,1.69,1.69,0,0,0,.44,1.25,1.63,1.63,0,0,0,1.23.46,2.43,2.43,0,0,0,1.35-.44Z"/><path fill="#fff" d="M323.31,44.35A3.21,3.21,0,0,1,321,43.5a3.49,3.49,0,0,1,0-4.61,3.34,3.34,0,0,1,2.4-.84,3.2,3.2,0,0,1,2.35.84,3,3,0,0,1,.85,2.23,3.16,3.16,0,0,1-.88,2.36A3.24,3.24,0,0,1,323.31,44.35Zm.05-4.88a1.23,1.23,0,0,0-1,.45A2,2,0,0,0,322,41.2c0,1.15.46,1.73,1.39,1.73s1.33-.59,1.33-1.78S324.25,39.47,323.36,39.47Z"/><path fill="#fff" d="M333.69,44.2h-1.85v-.83h0a2.07,2.07,0,0,1-1.85,1,2.27,2.27,0,0,1-1.81-.8,3.28,3.28,0,0,1-.69-2.22,3.54,3.54,0,0,1,.76-2.38,2.45,2.45,0,0,1,2-.9,1.68,1.68,0,0,1,1.61.83h0V35.32h1.85Zm-1.82-2.92v-.45a1.4,1.4,0,0,0-.34-1,1.1,1.1,0,0,0-.88-.39,1.12,1.12,0,0,0-1,.48,2.28,2.28,0,0,0-.35,1.33,2,2,0,0,0,.33,1.22,1.19,1.19,0,0,0,1.85,0A1.92,1.92,0,0,0,331.87,41.28Z"/><path fill="#fff" d="M340.64,41.73h-3.92c.07.87.61,1.3,1.65,1.3a3.15,3.15,0,0,0,1.74-.47V43.9a4.53,4.53,0,0,1-2.16.45,2.8,2.8,0,0,1-3.06-3.06,3.19,3.19,0,0,1,.87-2.36,2.85,2.85,0,0,1,2.13-.88,2.63,2.63,0,0,1,2,.78,3,3,0,0,1,.72,2.12Zm-1.72-1.14c0-.86-.35-1.29-1-1.29a1,1,0,0,0-.77.37,1.68,1.68,0,0,0-.4.92Z"/><path fill="#fff" d="M346.92,43.5h0V47h-1.85V38.2h1.85v.9h0a2.36,2.36,0,0,1,3.73-.25,3.39,3.39,0,0,1,.64,2.18,3.73,3.73,0,0,1-.74,2.41,2.43,2.43,0,0,1-2,.91A1.88,1.88,0,0,1,346.92,43.5ZM346.87,41v.48a1.54,1.54,0,0,0,.33,1,1.08,1.08,0,0,0,.86.39,1.15,1.15,0,0,0,1-.49,2.32,2.32,0,0,0,.35-1.39c0-1-.41-1.58-1.23-1.58a1.15,1.15,0,0,0-.93.43A1.73,1.73,0,0,0,346.87,41Z"/><path fill="#fff" d="M355.4,44.35A3.19,3.19,0,0,1,353,43.5a3.47,3.47,0,0,1,0-4.61,3.38,3.38,0,0,1,2.41-.84,3.2,3.2,0,0,1,2.35.84,3,3,0,0,1,.85,2.23,3.2,3.2,0,0,1-.88,2.36A3.24,3.24,0,0,1,355.4,44.35Zm.05-4.88a1.23,1.23,0,0,0-1,.45,2,2,0,0,0-.37,1.28c0,1.15.47,1.73,1.4,1.73s1.33-.59,1.33-1.78S356.34,39.47,355.45,39.47Z"/><path fill="#fff" d="M360.78,37.25A1.07,1.07,0,0,1,360,37a.88.88,0,0,1-.3-.68.87.87,0,0,1,.3-.68,1.11,1.11,0,0,1,.77-.26,1.09,1.09,0,0,1,.77.26.87.87,0,0,1,.3.68.89.89,0,0,1-.3.69A1.1,1.1,0,0,1,360.78,37.25Zm.91,7h-1.85v-6h1.85Z"/><path fill="#fff" d="M369,44.2h-1.84V40.87c0-.93-.33-1.4-1-1.4a1,1,0,0,0-.79.37,1.46,1.46,0,0,0-.31.94V44.2h-1.85v-6h1.85v.95h0a2.14,2.14,0,0,1,1.93-1.1c1.33,0,2,.83,2,2.48Z"/><path fill="#fff" d="M374.05,44.13a2.83,2.83,0,0,1-1.24.22c-1.3,0-2-.68-2-2V39.56h-1V38.2h1V36.9l1.85-.52V38.2h1.35v1.36H372.7V42c0,.63.25.94.74.94a1.31,1.31,0,0,0,.61-.17Z"/><path fill="#fff" d="M374.9,44v-1.5a4.06,4.06,0,0,0,.91.41,3,3,0,0,0,.86.14,1.79,1.79,0,0,0,.77-.14.44.44,0,0,0,.29-.41.36.36,0,0,0-.13-.29,1.33,1.33,0,0,0-.33-.21l-.44-.16a3.68,3.68,0,0,1-.47-.15,4.68,4.68,0,0,1-.63-.29,2.09,2.09,0,0,1-.45-.36,1.47,1.47,0,0,1-.29-.48,2,2,0,0,1-.09-.64,1.6,1.6,0,0,1,.22-.86,1.75,1.75,0,0,1,.58-.6,2.85,2.85,0,0,1,.84-.34,4.53,4.53,0,0,1,1-.11,5.52,5.52,0,0,1,.81.06,7.84,7.84,0,0,1,.81.18v1.43a2.87,2.87,0,0,0-.75-.3,3.13,3.13,0,0,0-.79-.11,1.79,1.79,0,0,0-.34,0,1.63,1.63,0,0,0-.29.1.49.49,0,0,0-.19.16.32.32,0,0,0-.07.22.4.4,0,0,0,.1.28,1,1,0,0,0,.28.2,1.88,1.88,0,0,0,.38.15l.41.14a6.16,6.16,0,0,1,.67.28,1.94,1.94,0,0,1,.51.36,1.58,1.58,0,0,1,.33.48,1.63,1.63,0,0,1,.11.66,1.69,1.69,0,0,1-.23.91,1.87,1.87,0,0,1-.61.61,2.72,2.72,0,0,1-.89.35,5,5,0,0,1-1,.11A5.41,5.41,0,0,1,374.9,44Z"/></g><g><path fill="#1e1e1e" d="M8.25,129.6q0,3.54-3.2,3.54-3,0-3-3.4V124.6H3v5.07c0,1.72.73,2.59,2.18,2.59s2.1-.84,2.1-2.5V124.6h1Z"/><path fill="#1e1e1e" d="M15.54,129.89H13.18v2.37H12.4v-2.37H10v-.78H12.4v-2.36h.78v2.36h2.36Z"/><path fill="#1e1e1e" d="M22.49,128.76a8.62,8.62,0,0,1-.19,1.87,4.47,4.47,0,0,1-.55,1.38,2.57,2.57,0,0,1-.89.85,2.47,2.47,0,0,1-1.19.29,2.34,2.34,0,0,1-1.13-.28,2.38,2.38,0,0,1-.83-.81,4.22,4.22,0,0,1-.52-1.31A8,8,0,0,1,17,129a9.45,9.45,0,0,1,.18-2,4.32,4.32,0,0,1,.54-1.41,2.36,2.36,0,0,1,2.11-1.15Q22.49,124.46,22.49,128.76Zm-1,.1c0-2.39-.56-3.59-1.7-3.59s-1.8,1.22-1.8,3.65c0,2.27.59,3.41,1.76,3.41S21.5,131.17,21.5,128.86Z"/><path fill="#1e1e1e" d="M29.18,128.76a8,8,0,0,1-.19,1.87,4.47,4.47,0,0,1-.55,1.38,2.55,2.55,0,0,1-.88.85,2.48,2.48,0,0,1-1.2.29,2.3,2.3,0,0,1-1.12-.28,2.49,2.49,0,0,1-.84-.81,4,4,0,0,1-.51-1.31,7.93,7.93,0,0,1-.18-1.78,9.45,9.45,0,0,1,.18-2,4.56,4.56,0,0,1,.55-1.41,2.34,2.34,0,0,1,.88-.86,2.45,2.45,0,0,1,1.22-.29Q29.18,124.46,29.18,128.76Zm-1,.1c0-2.39-.57-3.59-1.71-3.59s-1.8,1.22-1.8,3.65c0,2.27.59,3.41,1.77,3.41S28.2,131.17,28.2,128.86Z"/><path fill="#1e1e1e" d="M35.88,128.76a8.62,8.62,0,0,1-.19,1.87,4.47,4.47,0,0,1-.55,1.38,2.57,2.57,0,0,1-.89.85,2.47,2.47,0,0,1-1.19.29,2.34,2.34,0,0,1-1.13-.28,2.38,2.38,0,0,1-.83-.81,4.22,4.22,0,0,1-.52-1.31A7.93,7.93,0,0,1,30.4,129a9.41,9.41,0,0,1,.19-2,4.32,4.32,0,0,1,.54-1.41,2.36,2.36,0,0,1,.89-.86,2.41,2.41,0,0,1,1.21-.29Q35.89,124.46,35.88,128.76Zm-1,.1c0-2.39-.57-3.59-1.7-3.59s-1.8,1.22-1.8,3.65c0,2.27.59,3.41,1.76,3.41S34.89,131.17,34.89,128.86Z"/><path fill="#1e1e1e" d="M42.57,128.76a8,8,0,0,1-.19,1.87,4.47,4.47,0,0,1-.55,1.38,2.57,2.57,0,0,1-.89.85,2.41,2.41,0,0,1-1.19.29,2.34,2.34,0,0,1-1.13-.28,2.46,2.46,0,0,1-.83-.81,4.22,4.22,0,0,1-.52-1.31A8.61,8.61,0,0,1,37.1,129a9.45,9.45,0,0,1,.18-2,4.83,4.83,0,0,1,.54-1.41,2.36,2.36,0,0,1,2.11-1.15Q42.57,124.46,42.57,128.76Zm-1,.1c0-2.39-.57-3.59-1.71-3.59s-1.8,1.22-1.8,3.65c0,2.27.59,3.41,1.77,3.41S41.59,131.17,41.59,128.86Z"/></g><g><path fill="#1e1e1e" d="M297.9,129.6q0,3.54-3.19,3.54t-3.06-3.4V124.6h1v5.07c0,1.73.72,2.59,2.17,2.59s2.11-.84,2.11-2.5V124.6h1Z"/><path fill="#1e1e1e" d="M305.2,129.9h-2.37v2.36h-.78V129.9h-2.36v-.79h2.36v-2.36h.78v2.36h2.37Z"/><path fill="#1e1e1e" d="M307.06,133v-8.4h2.32q4.44,0,4.44,4.09a4.14,4.14,0,0,1-1.23,3.13,4.55,4.55,0,0,1-3.3,1.18Zm1-7.51v6.62h1.26a3.59,3.59,0,0,0,2.57-.88,3.34,3.34,0,0,0,.92-2.51c0-2.16-1.14-3.23-3.43-3.23Z"/><path fill="#1e1e1e" d="M314.84,130.66A2.19,2.19,0,0,1,315,130a2.45,2.45,0,0,1,.79-1.17,2.37,2.37,0,0,1,.66-.38,2.36,2.36,0,0,1-.87-.78,1.81,1.81,0,0,1-.32-1.06,2.15,2.15,0,0,1,.17-.85,2,2,0,0,1,.5-.68,2.34,2.34,0,0,1,.75-.45,2.84,2.84,0,0,1,1.88,0,2.34,2.34,0,0,1,.75.45,1.94,1.94,0,0,1,.49.68,2,2,0,0,1,.18.85,1.89,1.89,0,0,1-.32,1.06,2.49,2.49,0,0,1-.86.78,2.35,2.35,0,0,1,1.13.92,2.06,2.06,0,0,1,.31.63,2.18,2.18,0,0,1,.1.67,2.35,2.35,0,0,1-.2,1,2.23,2.23,0,0,1-.56.79,2.6,2.6,0,0,1-.86.5,3.28,3.28,0,0,1-2.2,0,2.7,2.7,0,0,1-.86-.5,2.39,2.39,0,0,1-.57-.79A2.51,2.51,0,0,1,314.84,130.66Zm1.05-.09a2,2,0,0,0,.12.71,1.5,1.5,0,0,0,.34.54,1.4,1.4,0,0,0,.53.35,1.92,1.92,0,0,0,.69.12,1.83,1.83,0,0,0,.68-.13,1.5,1.5,0,0,0,.54-.34,1.53,1.53,0,0,0,.35-.54,2,2,0,0,0,.13-.71,1.75,1.75,0,0,0-.12-.65,1.67,1.67,0,0,0-.35-.55,1.68,1.68,0,0,0-.53-.37,1.75,1.75,0,0,0-.7-.13,1.67,1.67,0,0,0-.67.13,1.58,1.58,0,0,0-.53.35,1.7,1.7,0,0,0-.36.54A1.87,1.87,0,0,0,315.89,130.57Zm.29-3.89a1.42,1.42,0,0,0,.11.55,1.37,1.37,0,0,0,.3.45,1.9,1.9,0,0,0,.44.3,1.4,1.4,0,0,0,.54.1,1.24,1.24,0,0,0,.54-.11,1.37,1.37,0,0,0,.45-.3,1.71,1.71,0,0,0,.3-.44,1.46,1.46,0,0,0,0-1.11,1.27,1.27,0,0,0-.3-.45,1.55,1.55,0,0,0-.44-.3,1.42,1.42,0,0,0-.55-.1,1.3,1.3,0,0,0-.56.11,1.23,1.23,0,0,0-.44.3,1.34,1.34,0,0,0-.29.45A1.63,1.63,0,0,0,316.18,126.68Z"/><path fill="#1e1e1e" d="M326.85,128.76a8,8,0,0,1-.2,1.87,4.24,4.24,0,0,1-.55,1.38,2.55,2.55,0,0,1-.88.85,2.47,2.47,0,0,1-1.19.29,2.31,2.31,0,0,1-1.13-.28,2.49,2.49,0,0,1-.84-.81,4.37,4.37,0,0,1-.51-1.31,7.93,7.93,0,0,1-.18-1.78,8.77,8.77,0,0,1,.19-2,4.32,4.32,0,0,1,.54-1.41,2.36,2.36,0,0,1,.89-.86,2.41,2.41,0,0,1,1.21-.29C326,124.46,326.85,125.89,326.85,128.76Zm-1,.1c0-2.39-.57-3.59-1.7-3.59s-1.8,1.22-1.8,3.65c0,2.27.58,3.41,1.76,3.41S325.86,131.17,325.86,128.86Z"/><path fill="#1e1e1e" d="M333.54,128.76a8,8,0,0,1-.19,1.87,4.47,4.47,0,0,1-.55,1.38,2.57,2.57,0,0,1-.89.85,2.44,2.44,0,0,1-1.19.29,2.34,2.34,0,0,1-1.13-.28,2.38,2.38,0,0,1-.83-.81,4.12,4.12,0,0,1-.52-1.31,8.61,8.61,0,0,1-.17-1.78,9.45,9.45,0,0,1,.18-2,4.56,4.56,0,0,1,.54-1.41,2.36,2.36,0,0,1,2.11-1.15Q333.54,124.46,333.54,128.76Zm-1,.1c0-2.39-.57-3.59-1.71-3.59s-1.8,1.22-1.8,3.65c0,2.27.59,3.41,1.76,3.41S332.56,131.17,332.56,128.86Z"/></g><g><path fill="#1e1e1e" d="M381.69,129.6q0,3.54-3.19,3.54t-3.06-3.4V124.6h1v5.07c0,1.73.73,2.59,2.18,2.59s2.11-.84,2.11-2.5V124.6h1Z"/><path fill="#1e1e1e" d="M389,129.9h-2.36v2.36h-.78V129.9h-2.36v-.79h2.36v-2.36h.78v2.36H389Z"/><path fill="#1e1e1e" d="M390.85,133v-8.4h2.32q4.44,0,4.44,4.09a4.14,4.14,0,0,1-1.23,3.13,4.59,4.59,0,0,1-3.31,1.18Zm1-7.51v6.62h1.26a3.61,3.61,0,0,0,2.57-.88,3.34,3.34,0,0,0,.92-2.51c0-2.16-1.15-3.23-3.44-3.23Z"/><path fill="#1e1e1e" d="M403.47,125.49h-3.28v2.91h3v.88h-3V133h-1v-8.4h4.27Z"/><path fill="#1e1e1e" d="M409.08,125.49H405.8v2.91h3v.88h-3V133h-1v-8.4h4.26Z"/><path fill="#1e1e1e" d="M414.69,125.49h-3.28v2.91h3v.88h-3V133h-1v-8.4h4.26Z"/></g><g><path fill="#1e1e1e" d="M459.1,129.6q0,3.54-3.19,3.54t-3.06-3.4V124.6h1v5.07c0,1.73.72,2.59,2.18,2.59s2.1-.84,2.1-2.5V124.6h1Z"/><path fill="#1e1e1e" d="M466.4,129.9H464v2.36h-.78V129.9h-2.36v-.79h2.36v-2.36H464v2.36h2.37Z"/><path fill="#1e1e1e" d="M470.41,133h-1v-7.26a2.93,2.93,0,0,1-.33.26,5.1,5.1,0,0,1-.48.28,5.85,5.85,0,0,1-.56.26,3.63,3.63,0,0,1-.58.2v-1a4.1,4.1,0,0,0,.67-.23,6.44,6.44,0,0,0,.7-.34c.23-.12.45-.25.65-.38a6.62,6.62,0,0,0,.53-.4h.36Z"/><path fill="#1e1e1e" d="M478.1,128.76a8.62,8.62,0,0,1-.19,1.87,4.47,4.47,0,0,1-.55,1.38,2.57,2.57,0,0,1-.89.85,2.47,2.47,0,0,1-1.19.29,2.34,2.34,0,0,1-1.13-.28,2.38,2.38,0,0,1-.83-.81,4.12,4.12,0,0,1-.52-1.31,7.93,7.93,0,0,1-.18-1.78,9.41,9.41,0,0,1,.19-2,4.32,4.32,0,0,1,.54-1.41,2.43,2.43,0,0,1,.89-.86,2.41,2.41,0,0,1,1.21-.29Q478.11,124.46,478.1,128.76Zm-1,.1c0-2.39-.57-3.59-1.7-3.59s-1.8,1.22-1.8,3.65c0,2.27.59,3.41,1.76,3.41S477.11,131.17,477.11,128.86Z"/><path fill="#1e1e1e" d="M484,125.49h-3.28v2.91h3v.88h-3V133h-1v-8.4H484Z"/><path fill="#1e1e1e" d="M489.62,125.49h-3.28v2.91h3v.88h-3V133h-1v-8.4h4.26Z"/><path fill="#1e1e1e" d="M495.23,125.49H492v2.91h3v.88h-3V133h-1v-8.4h4.26Z"/><path fill="#1e1e1e" d="M500.85,125.49h-3.29v2.91h3v.88h-3V133h-1v-8.4h4.27Z"/></g><g><path fill="#fff" d="M106.31,113.19v-8.41h3.06a3.83,3.83,0,0,1,2.16.52,1.67,1.67,0,0,1,.76,1.45,1.74,1.74,0,0,1-.46,1.19,2.41,2.41,0,0,1-1.18.71v0a2.32,2.32,0,0,1,1.43.67,1.82,1.82,0,0,1,.54,1.34,2.24,2.24,0,0,1-.83,1.83,3.45,3.45,0,0,1-2.25.68Zm1.89-7v2H109a1.41,1.41,0,0,0,.93-.28,1,1,0,0,0,.33-.79c0-.61-.46-.92-1.38-.92Zm0,3.4v2.21h1a1.62,1.62,0,0,0,1-.3,1,1,0,0,0,.37-.83,1,1,0,0,0-.37-.8,1.61,1.61,0,0,0-1-.28Z"/><path fill="#fff" d="M118.87,113.19h-1.76v-.86h0a2,2,0,0,1-1.79,1,1.85,1.85,0,0,1-1.37-.49,1.79,1.79,0,0,1-.5-1.32c0-1.17.69-1.84,2.07-2l1.63-.22c0-.65-.36-1-1.07-1a3.59,3.59,0,0,0-2,.64v-1.4a4.67,4.67,0,0,1,1.06-.35,5.56,5.56,0,0,1,1.22-.15,2.27,2.27,0,0,1,2.57,2.56Zm-1.74-2.44v-.41l-1.09.15c-.61.07-.91.34-.91.81a.71.71,0,0,0,.22.52.89.89,0,0,0,.6.2,1.1,1.1,0,0,0,.85-.36A1.29,1.29,0,0,0,117.13,110.75Z"/><path fill="#fff" d="M120.05,113v-1.5a4.27,4.27,0,0,0,.91.41,3,3,0,0,0,.86.13,1.86,1.86,0,0,0,.78-.13.43.43,0,0,0,.28-.41.35.35,0,0,0-.13-.29,1,1,0,0,0-.33-.21,3.72,3.72,0,0,0-.44-.16,3.57,3.57,0,0,1-.46-.16,3.71,3.71,0,0,1-.63-.29,1.67,1.67,0,0,1-.46-.36,1.31,1.31,0,0,1-.28-.47,1.76,1.76,0,0,1-.1-.64,1.73,1.73,0,0,1,.22-.87,1.75,1.75,0,0,1,.59-.59,2.43,2.43,0,0,1,.84-.34,4.46,4.46,0,0,1,1-.11,5.73,5.73,0,0,1,.81.06,5.45,5.45,0,0,1,.8.18v1.43a2.76,2.76,0,0,0-.75-.31,3.11,3.11,0,0,0-.79-.1,1.87,1.87,0,0,0-.34,0,.77.77,0,0,0-.28.1.53.53,0,0,0-.2.15.44.44,0,0,0-.07.22.39.39,0,0,0,.11.28,1,1,0,0,0,.27.21l.38.15.41.14a4.66,4.66,0,0,1,.67.28,2.18,2.18,0,0,1,.52.36,1.23,1.23,0,0,1,.32.48,1.6,1.6,0,0,1,.12.65,1.73,1.73,0,0,1-.23.91,1.84,1.84,0,0,1-.62.62,2.65,2.65,0,0,1-.88.34,4.48,4.48,0,0,1-1,.11A5.46,5.46,0,0,1,120.05,113Z"/><path fill="#fff" d="M126.69,106.24a1.09,1.09,0,0,1-.76-.28.9.9,0,0,1-.3-.68.85.85,0,0,1,.3-.68,1.09,1.09,0,0,1,.76-.27,1.12,1.12,0,0,1,.78.27.88.88,0,0,1,.29.68.91.91,0,0,1-.29.69A1.12,1.12,0,0,1,126.69,106.24Zm.92,7h-1.85v-6h1.85Z"/><path fill="#fff" d="M133.69,113a3.69,3.69,0,0,1-1.81.36,3.08,3.08,0,0,1-2.24-.83,2.91,2.91,0,0,1-.86-2.17,3.19,3.19,0,0,1,.92-2.41,3.38,3.38,0,0,1,2.45-.88,3.14,3.14,0,0,1,1.54.28v1.57a2.12,2.12,0,0,0-1.3-.43,1.7,1.7,0,0,0-1.26.46,1.75,1.75,0,0,0-.47,1.29,1.69,1.69,0,0,0,.45,1.25,1.64,1.64,0,0,0,1.22.46,2.46,2.46,0,0,0,1.36-.44Z"/><path fill="#fff" d="M148,113.19H146.1v-5c0-.54,0-1.14.07-1.8h0a8.52,8.52,0,0,1-.26,1.11l-2,5.72h-1.55l-2-5.66a8.85,8.85,0,0,1-.27-1.17h0c0,.83.08,1.56.08,2.18v4.65h-1.71v-8.41h2.77l1.72,5a6.49,6.49,0,0,1,.3,1.21h0c.11-.47.22-.87.34-1.22l1.72-5H148Z"/><path fill="#fff" d="M155.37,113.19h-1.85v-.92h0a2.09,2.09,0,0,1-1.84,1.06c-1.39,0-2.08-.84-2.08-2.52v-3.62h1.84v3.45c0,.85.34,1.28,1,1.28a1,1,0,0,0,.8-.35,1.42,1.42,0,0,0,.29-.95v-3.43h1.85Z"/><path fill="#fff" d="M158.75,113.19H156.9V104.3h1.85Z"/><path fill="#fff" d="M163.89,113.12a2.78,2.78,0,0,1-1.23.21c-1.31,0-2-.67-2-2v-2.75h-1v-1.36h1v-1.3l1.84-.53v1.83h1.35v1.36h-1.35V111c0,.62.25.94.75.94a1.27,1.27,0,0,0,.6-.17Z"/><path fill="#fff" d="M165.94,106.24a1.12,1.12,0,0,1-.77-.28.9.9,0,0,1-.3-.68.85.85,0,0,1,.3-.68,1.11,1.11,0,0,1,.77-.27,1.1,1.1,0,0,1,.77.27.85.85,0,0,1,.3.68.89.89,0,0,1-.3.69A1.1,1.1,0,0,1,165.94,106.24Zm.91,7H165v-6h1.85Z"/><path fill="#fff" d="M170.24,113.19h-1.86V104.3h1.86Z"/><path fill="#fff" d="M172.7,106.24a1.09,1.09,0,0,1-.76-.28.9.9,0,0,1-.3-.68.85.85,0,0,1,.3-.68,1.09,1.09,0,0,1,.76-.27,1.12,1.12,0,0,1,.78.27.88.88,0,0,1,.29.68.91.91,0,0,1-.29.69A1.12,1.12,0,0,1,172.7,106.24Zm.92,7h-1.85v-6h1.85Z"/><path fill="#fff" d="M181,113.19H179.1v-3.34c0-.93-.33-1.39-1-1.39a1,1,0,0,0-.79.37,1.38,1.38,0,0,0-.31.93v3.43h-1.85v-6H177v1h0A2.12,2.12,0,0,1,179,107c1.33,0,2,.82,2,2.47Z"/><path fill="#fff" d="M188.35,112.5a3.42,3.42,0,0,1-1,2.59,3.92,3.92,0,0,1-2.8.91,4.43,4.43,0,0,1-1.92-.34V114.1a3.66,3.66,0,0,0,1.87.54,2,2,0,0,0,1.45-.5,1.78,1.78,0,0,0,.52-1.34v-.47h0a2.06,2.06,0,0,1-1.87,1,2.25,2.25,0,0,1-1.82-.81,3.25,3.25,0,0,1-.67-2.16,3.63,3.63,0,0,1,.75-2.42,2.43,2.43,0,0,1,2-.9,1.82,1.82,0,0,1,1.64.84h0v-.69h1.85Zm-1.83-2.2v-.47a1.44,1.44,0,0,0-.34-1,1.06,1.06,0,0,0-.87-.4,1.13,1.13,0,0,0-1,.48,2.21,2.21,0,0,0-.35,1.35,1.93,1.93,0,0,0,.33,1.19,1.17,1.17,0,0,0,1.84,0A1.78,1.78,0,0,0,186.52,110.3Z"/><path fill="#fff" d="M195.59,113.19h-1.84v-.92h0a2.09,2.09,0,0,1-1.83,1.06c-1.39,0-2.09-.84-2.09-2.52v-3.62h1.85v3.45c0,.85.33,1.28,1,1.28a1,1,0,0,0,.8-.35,1.42,1.42,0,0,0,.3-.95v-3.43h1.84Z"/><path fill="#fff" d="M202.16,113.19h-1.75v-.86h0a2,2,0,0,1-1.79,1,1.89,1.89,0,0,1-1.38-.49,1.79,1.79,0,0,1-.5-1.32c0-1.17.69-1.84,2.07-2l1.63-.22c0-.65-.35-1-1.07-1a3.58,3.58,0,0,0-2,.64v-1.4a4.57,4.57,0,0,1,1.05-.35,5.7,5.7,0,0,1,1.22-.15,2.26,2.26,0,0,1,2.57,2.56Zm-1.74-2.44v-.41l-1.09.15q-.9.11-.9.81a.67.67,0,0,0,.22.52.84.84,0,0,0,.59.2,1.1,1.1,0,0,0,.85-.36A1.29,1.29,0,0,0,200.42,110.75Z"/><path fill="#fff" d="M205.48,113.19h-1.85V104.3h1.85Z"/><path fill="#fff" d="M212.42,110.29v2.9h-1.89v-8.41h3c2.12,0,3.18.9,3.18,2.68a2.55,2.55,0,0,1-.91,2.05,3.63,3.63,0,0,1-2.44.78Zm0-4.05v2.62h.75c1,0,1.51-.44,1.51-1.33s-.51-1.29-1.51-1.29Z"/><path fill="#fff" d="M219.47,113.19h-1.85V104.3h1.85Z"/><path fill="#fff" d="M226.05,113.19H224.3v-.86h0a2,2,0,0,1-1.79,1,1.85,1.85,0,0,1-1.37-.49,1.75,1.75,0,0,1-.5-1.32c0-1.17.69-1.84,2.06-2l1.63-.22c0-.65-.35-1-1.06-1a3.59,3.59,0,0,0-2,.64v-1.4a4.67,4.67,0,0,1,1.06-.35,5.56,5.56,0,0,1,1.22-.15,2.26,2.26,0,0,1,2.56,2.56Zm-1.74-2.44v-.41l-1.09.15q-.9.11-.9.81a.67.67,0,0,0,.22.52.89.89,0,0,0,.6.2,1.11,1.11,0,0,0,.85-.36A1.33,1.33,0,0,0,224.31,110.75Z"/><path fill="#fff" d="M233.31,113.19h-1.84v-3.34c0-.93-.33-1.39-1-1.39a1,1,0,0,0-.79.37,1.38,1.38,0,0,0-.31.93v3.43h-1.85v-6h1.85v1h0a2.13,2.13,0,0,1,1.93-1.1c1.33,0,2,.82,2,2.47Z"/><path fill="#fff" d="M240.2,110.71h-3.91c.06.87.61,1.31,1.64,1.31a3.24,3.24,0,0,0,1.74-.47v1.34a4.63,4.63,0,0,1-2.16.44,2.78,2.78,0,0,1-3.06-3,3.22,3.22,0,0,1,.87-2.37,2.9,2.9,0,0,1,2.13-.87,2.62,2.62,0,0,1,2,.78,3,3,0,0,1,.72,2.11Zm-1.72-1.13c0-.86-.35-1.29-1-1.29a1,1,0,0,0-.77.37,1.65,1.65,0,0,0-.4.92Z"/><path fill="#fff" d="M248.16,115.1h-1.51a7.36,7.36,0,0,1-1.89-5.13,7.83,7.83,0,0,1,1.89-5.19h1.5a8.44,8.44,0,0,0-1.77,5.19A8.14,8.14,0,0,0,248.16,115.1Z"/><path fill="#fff" d="M249.12,113.19v-8.41h3.06a3.87,3.87,0,0,1,2.16.52,1.66,1.66,0,0,1,.75,1.45,1.69,1.69,0,0,1-.46,1.19,2.34,2.34,0,0,1-1.17.71v0a2.35,2.35,0,0,1,1.43.67,1.82,1.82,0,0,1,.54,1.34,2.24,2.24,0,0,1-.83,1.83,3.45,3.45,0,0,1-2.25.68Zm1.89-7v2h.83a1.37,1.37,0,0,0,.92-.28,1,1,0,0,0,.34-.79c0-.61-.46-.92-1.38-.92Zm0,3.4v2.21h1a1.57,1.57,0,0,0,1-.3,1,1,0,0,0,.38-.83,1,1,0,0,0-.37-.8,1.63,1.63,0,0,0-1-.28Z"/><path fill="#fff" d="M266.37,113.19H264.5v-5c0-.54,0-1.14.07-1.8h-.05a8.52,8.52,0,0,1-.26,1.11l-2,5.72h-1.55l-2-5.66a11,11,0,0,1-.27-1.17h-.05c.05.83.08,1.56.08,2.18v4.65h-1.71v-8.41h2.77l1.72,5a6.49,6.49,0,0,1,.3,1.21h0c.11-.47.22-.87.34-1.22l1.72-5h2.7Z"/><path fill="#fff" d="M270.08,110.29v2.9h-1.89v-8.41h3c2.12,0,3.18.9,3.18,2.68a2.55,2.55,0,0,1-.91,2.05,3.63,3.63,0,0,1-2.44.78Zm0-4.05v2.62h.75c1,0,1.51-.44,1.51-1.33s-.51-1.29-1.51-1.29Z"/><path fill="#fff" d="M276,115.1h-1.5a8.11,8.11,0,0,0,1.8-5.13,8.39,8.39,0,0,0-1.8-5.19H276a7.87,7.87,0,0,1,1.89,5.19A7.35,7.35,0,0,1,276,115.1Z"/></g></g></svg>