<svg xmlns="http://www.w3.org/2000/svg" xmlns:xlink="http://www.w3.org/1999/xlink" viewBox="0 0 448 68.27"><defs><linearGradient id="linear-gradient" x1="247.5" x2="247.5" y1="30.2" y2="50.2" gradientUnits="userSpaceOnUse"><stop offset="0" stop-color="#5ea0ef"/><stop offset=".18" stop-color="#559cec"/><stop offset=".47" stop-color="#3c91e5"/><stop offset=".84" stop-color="#1380da"/><stop offset="1" stop-color="#0078d4"/></linearGradient><linearGradient id="linear-gradient-2" x1="49.88" x2="49.88" y1="37.62" y2="42.62" xlink:href="#linear-gradient"/><linearGradient id="linear-gradient-3" x1="61.44" x2="61.44" y1="37.62" y2="42.62" xlink:href="#linear-gradient"/><linearGradient id="linear-gradient-4" x1="73" x2="73" y1="37.62" y2="42.62" xlink:href="#linear-gradient"/><linearGradient id="linear-gradient-5" x1="84.57" x2="84.57" y1="37.62" y2="42.62" xlink:href="#linear-gradient"/><linearGradient id="linear-gradient-6" x1="96.13" x2="96.13" y1="37.62" y2="42.62" xlink:href="#linear-gradient"/><linearGradient id="linear-gradient-7" x1="107.69" x2="107.69" y1="37.62" y2="42.62" xlink:href="#linear-gradient"/><linearGradient id="linear-gradient-8" x1="119.26" x2="119.26" y1="37.62" y2="42.62" xlink:href="#linear-gradient"/><linearGradient id="linear-gradient-9" x1="130.82" x2="130.82" y1="37.62" y2="42.62" xlink:href="#linear-gradient"/><linearGradient id="linear-gradient-10" x1="142.38" x2="142.38" y1="37.62" y2="42.62" xlink:href="#linear-gradient"/><linearGradient id="linear-gradient-11" x1="153.94" x2="153.94" y1="37.62" y2="42.62" xlink:href="#linear-gradient"/><linearGradient id="linear-gradient-12" x1="165.51" x2="165.51" y1="37.62" y2="42.62" xlink:href="#linear-gradient"/><linearGradient id="linear-gradient-13" x1="177.07" x2="177.07" y1="37.62" y2="42.62" xlink:href="#linear-gradient"/><linearGradient id="linear-gradient-14" x1="188.63" x2="188.63" y1="37.62" y2="42.62" xlink:href="#linear-gradient"/><linearGradient id="linear-gradient-15" x1="200.2" x2="200.2" y1="37.62" y2="42.62" xlink:href="#linear-gradient"/><linearGradient id="linear-gradient-16" x1="211.76" x2="211.76" y1="37.62" y2="42.62" xlink:href="#linear-gradient"/><linearGradient id="linear-gradient-17" x1="223.32" x2="223.32" y1="37.62" y2="42.62" xlink:href="#linear-gradient"/><linearGradient id="linear-gradient-18" x1="234.89" x2="234.89" y1="37.62" y2="42.62" xlink:href="#linear-gradient"/><linearGradient id="linear-gradient-19" x1="246.45" x2="246.45" y1="37.62" y2="42.62" xlink:href="#linear-gradient"/><linearGradient id="linear-gradient-20" x1="258.01" x2="258.01" y1="37.62" y2="42.62" xlink:href="#linear-gradient"/><linearGradient id="linear-gradient-21" x1="269.58" x2="269.58" y1="37.62" y2="42.62" xlink:href="#linear-gradient"/><linearGradient id="linear-gradient-22" x1="281.14" x2="281.14" y1="37.62" y2="42.62" xlink:href="#linear-gradient"/><linearGradient id="linear-gradient-23" x1="292.7" x2="292.7" y1="37.62" y2="42.62" xlink:href="#linear-gradient"/><linearGradient id="linear-gradient-24" x1="304.27" x2="304.27" y1="37.62" y2="42.62" xlink:href="#linear-gradient"/><linearGradient id="linear-gradient-25" x1="315.83" x2="315.83" y1="37.62" y2="42.62" xlink:href="#linear-gradient"/><linearGradient id="linear-gradient-26" x1="327.39" x2="327.39" y1="37.62" y2="42.62" xlink:href="#linear-gradient"/><linearGradient id="linear-gradient-27" x1="338.95" x2="338.95" y1="37.62" y2="42.62" xlink:href="#linear-gradient"/><linearGradient id="linear-gradient-28" x1="350.52" x2="350.52" y1="37.62" y2="42.62" xlink:href="#linear-gradient"/><linearGradient id="linear-gradient-29" x1="362.08" x2="362.08" y1="37.62" y2="42.62" xlink:href="#linear-gradient"/><linearGradient id="linear-gradient-30" x1="373.64" x2="373.64" y1="37.62" y2="42.62" xlink:href="#linear-gradient"/><linearGradient id="linear-gradient-31" x1="385.21" x2="385.21" y1="37.62" y2="42.62" xlink:href="#linear-gradient"/><linearGradient id="linear-gradient-32" x1="396.77" x2="396.77" y1="37.62" y2="42.62" xlink:href="#linear-gradient"/><linearGradient id="linear-gradient-33" x1="408.33" x2="408.33" y1="37.62" y2="42.62" xlink:href="#linear-gradient"/><linearGradient id="linear-gradient-34" x1="419.9" x2="419.9" y1="37.62" y2="42.62" xlink:href="#linear-gradient"/><linearGradient id="linear-gradient-35" x1="431.46" x2="431.46" y1="37.62" y2="42.62" xlink:href="#linear-gradient"/><linearGradient id="linear-gradient-36" x1="443.02" x2="443.02" y1="37.62" y2="42.62" xlink:href="#linear-gradient"/></defs><g id="Shapes"><rect width="448" height="68.27" fill="#fff"/><rect width="400" height="20" x="47.5" y="30.2" fill="url(#linear-gradient)"/><g><ellipse cx="49.88" cy="40.12" fill="url(#linear-gradient-2)" rx="2.43" ry="2.5"/><ellipse cx="61.44" cy="40.12" fill="url(#linear-gradient-3)" rx="2.43" ry="2.5"/><ellipse cx="73" cy="40.12" fill="url(#linear-gradient-4)" rx="2.43" ry="2.5"/><ellipse cx="84.57" cy="40.12" fill="url(#linear-gradient-5)" rx="2.43" ry="2.5"/><ellipse cx="96.13" cy="40.12" fill="url(#linear-gradient-6)" rx="2.43" ry="2.5"/><ellipse cx="107.69" cy="40.12" fill="url(#linear-gradient-7)" rx="2.43" ry="2.5"/><ellipse cx="119.26" cy="40.12" fill="url(#linear-gradient-8)" rx="2.43" ry="2.5"/><ellipse cx="130.82" cy="40.12" fill="url(#linear-gradient-9)" rx="2.43" ry="2.5"/><ellipse cx="142.38" cy="40.12" fill="url(#linear-gradient-10)" rx="2.43" ry="2.5"/><ellipse cx="153.94" cy="40.12" fill="url(#linear-gradient-11)" rx="2.43" ry="2.5"/><ellipse cx="165.51" cy="40.12" fill="url(#linear-gradient-12)" rx="2.43" ry="2.5"/><ellipse cx="177.07" cy="40.12" fill="url(#linear-gradient-13)" rx="2.43" ry="2.5"/><ellipse cx="188.63" cy="40.12" fill="url(#linear-gradient-14)" rx="2.43" ry="2.5"/><ellipse cx="200.2" cy="40.12" fill="url(#linear-gradient-15)" rx="2.43" ry="2.5"/><ellipse cx="211.76" cy="40.12" fill="url(#linear-gradient-16)" rx="2.43" ry="2.5"/><ellipse cx="223.32" cy="40.12" fill="url(#linear-gradient-17)" rx="2.43" ry="2.5"/><ellipse cx="234.89" cy="40.12" fill="url(#linear-gradient-18)" rx="2.43" ry="2.5"/><ellipse cx="246.45" cy="40.12" fill="url(#linear-gradient-19)" rx="2.43" ry="2.5"/><ellipse cx="258.01" cy="40.12" fill="url(#linear-gradient-20)" rx="2.43" ry="2.5"/><ellipse cx="269.58" cy="40.12" fill="url(#linear-gradient-21)" rx="2.43" ry="2.5"/><ellipse cx="281.14" cy="40.12" fill="url(#linear-gradient-22)" rx="2.43" ry="2.5"/><ellipse cx="292.7" cy="40.12" fill="url(#linear-gradient-23)" rx="2.43" ry="2.5"/><ellipse cx="304.27" cy="40.12" fill="url(#linear-gradient-24)" rx="2.43" ry="2.5"/><ellipse cx="315.83" cy="40.12" fill="url(#linear-gradient-25)" rx="2.43" ry="2.5"/><ellipse cx="327.39" cy="40.12" fill="url(#linear-gradient-26)" rx="2.43" ry="2.5"/><ellipse cx="338.95" cy="40.12" fill="url(#linear-gradient-27)" rx="2.43" ry="2.5"/><ellipse cx="350.52" cy="40.12" fill="url(#linear-gradient-28)" rx="2.43" ry="2.5"/><ellipse cx="362.08" cy="40.12" fill="url(#linear-gradient-29)" rx="2.43" ry="2.5"/><ellipse cx="373.64" cy="40.12" fill="url(#linear-gradient-30)" rx="2.43" ry="2.5"/><ellipse cx="385.21" cy="40.12" fill="url(#linear-gradient-31)" rx="2.43" ry="2.5"/><ellipse cx="396.77" cy="40.12" fill="url(#linear-gradient-32)" rx="2.43" ry="2.5"/><ellipse cx="408.33" cy="40.12" fill="url(#linear-gradient-33)" rx="2.43" ry="2.5"/><ellipse cx="419.9" cy="40.12" fill="url(#linear-gradient-34)" rx="2.43" ry="2.5"/><ellipse cx="431.46" cy="40.12" fill="url(#linear-gradient-35)" rx="2.43" ry="2.5"/><ellipse cx="443.02" cy="40.12" fill="url(#linear-gradient-36)" rx="2.43" ry="2.5"/></g><line x1="447.5" x2="447.5" y1="65.2" y2="25.33" fill="none" stroke="#000"/><polyline fill="none" stroke="#000" points="336.15 15.2 423.02 15.2 443.02 26.14"/><polyline fill="none" stroke="#000" points="72.13 26.14 92.13 15.2 177.93 15.2"/><line x1="47.5" x2="47.5" y1="65.2" y2="15.2" fill="none" stroke="#000"/><line x1="67.5" x2="67.5" y1="65.2" y2="15.2" fill="none" stroke="#000"/></g><g id="Text"><g><path fill="#1e1e1e" d="M47.52,10.2V1.8h2.39a2.67,2.67,0,0,1,1.73.53,1.74,1.74,0,0,1,.63,1.39A2,2,0,0,1,51.89,5a2.14,2.14,0,0,1-1.07.75v0a2.1,2.1,0,0,1,1.36.64,2,2,0,0,1,.51,1.41,2.19,2.19,0,0,1-.77,1.74,2.87,2.87,0,0,1-2,.67Zm1-7.51V5.4h1A1.91,1.91,0,0,0,50.78,5a1.34,1.34,0,0,0,.46-1.1c0-.81-.53-1.22-1.61-1.22Zm0,3.6v3h1.34a2,2,0,0,0,1.34-.41,1.4,1.4,0,0,0,.48-1.12c0-1-.68-1.49-2-1.49Z"/><path fill="#1e1e1e" d="M62.87,10.2h-1V4.56c0-.44,0-1,.08-1.63h0a4.19,4.19,0,0,1-.25.81L58.83,10.2h-.48L55.49,3.79a4.54,4.54,0,0,1-.26-.86h0c0,.34,0,.88,0,1.65V10.2h-.95V1.8h1.3l2.58,5.86a6,6,0,0,1,.38,1h0c.17-.46.3-.81.4-1L61.64,1.8h1.23Z"/><path fill="#1e1e1e" d="M66,7V10.2H65V1.8h2.31a3,3,0,0,1,2.09.66,2.34,2.34,0,0,1,.74,1.85,2.52,2.52,0,0,1-.82,2A3.14,3.14,0,0,1,67.06,7Zm0-4.34V6.13h1a2.28,2.28,0,0,0,1.55-.46,1.65,1.65,0,0,0,.54-1.32c0-1.11-.66-1.66-2-1.66Z"/></g><g><path fill="#1e1e1e" d="M7.25,59.94q0,3.54-3.2,3.54-3,0-3-3.41V54.93H2V60c0,1.72.73,2.58,2.18,2.58s2.1-.83,2.1-2.5V54.93h1Z"/><path fill="#1e1e1e" d="M14.54,60.23H12.18v2.36H11.4V60.23H9v-.79H11.4V57.08h.78v2.36h2.36Z"/><path fill="#1e1e1e" d="M21.49,59.1A8.75,8.75,0,0,1,21.3,61a4.41,4.41,0,0,1-.55,1.37,2.37,2.37,0,0,1-2.08,1.14,2.22,2.22,0,0,1-2-1.09,4,4,0,0,1-.52-1.31A8,8,0,0,1,16,59.3a9.35,9.35,0,0,1,.18-1.94,4.38,4.38,0,0,1,.54-1.42,2.36,2.36,0,0,1,2.11-1.15Q21.49,54.79,21.49,59.1Zm-1,.09c0-2.39-.56-3.58-1.7-3.58S17,56.82,17,59.26c0,2.27.59,3.4,1.76,3.4S20.5,61.5,20.5,59.19Z"/><path fill="#1e1e1e" d="M28.18,59.1A8.15,8.15,0,0,1,28,61a4.41,4.41,0,0,1-.55,1.37,2.34,2.34,0,0,1-2.08,1.14,2.19,2.19,0,0,1-1.12-.28,2.32,2.32,0,0,1-.84-.81,3.82,3.82,0,0,1-.51-1.31,7.93,7.93,0,0,1-.18-1.78,9.35,9.35,0,0,1,.18-1.94,4.63,4.63,0,0,1,.55-1.42,2.41,2.41,0,0,1,.88-.86,2.56,2.56,0,0,1,1.22-.29Q28.18,54.79,28.18,59.1Zm-1,.09c0-2.39-.57-3.58-1.71-3.58s-1.8,1.21-1.8,3.65c0,2.27.59,3.4,1.77,3.4S27.2,61.5,27.2,59.19Z"/><path fill="#1e1e1e" d="M34.88,59.1A8.75,8.75,0,0,1,34.69,61a4.41,4.41,0,0,1-.55,1.37,2.37,2.37,0,0,1-2.08,1.14,2.22,2.22,0,0,1-2-1.09,4,4,0,0,1-.52-1.31,7.93,7.93,0,0,1-.18-1.78,9.3,9.3,0,0,1,.19-1.94,4.38,4.38,0,0,1,.54-1.42,2.44,2.44,0,0,1,.89-.86,2.52,2.52,0,0,1,1.21-.29Q34.89,54.79,34.88,59.1Zm-1,.09c0-2.39-.57-3.58-1.7-3.58s-1.8,1.21-1.8,3.65c0,2.27.59,3.4,1.76,3.4S33.89,61.5,33.89,59.19Z"/><path fill="#1e1e1e" d="M41.57,59.1A8.15,8.15,0,0,1,41.38,61a4.41,4.41,0,0,1-.55,1.37,2.49,2.49,0,0,1-.89.85,2.41,2.41,0,0,1-1.19.29,2.23,2.23,0,0,1-1.13-.28,2.29,2.29,0,0,1-.83-.81,4,4,0,0,1-.52-1.31,8.61,8.61,0,0,1-.17-1.78,9.35,9.35,0,0,1,.18-1.94,4.9,4.9,0,0,1,.54-1.42,2.52,2.52,0,0,1,.89-.86,2.56,2.56,0,0,1,1.22-.29Q41.57,54.79,41.57,59.1Zm-1,.09c0-2.39-.57-3.58-1.71-3.58s-1.8,1.21-1.8,3.65c0,2.27.59,3.4,1.77,3.4S40.59,61.5,40.59,59.19Z"/></g><g><path fill="#1e1e1e" d="M79.31,59.94q0,3.54-3.19,3.54t-3.06-3.41V54.93h1V60c0,1.72.73,2.58,2.18,2.58s2.11-.83,2.11-2.5V54.93h1Z"/><path fill="#1e1e1e" d="M86.61,60.23H84.24v2.36h-.78V60.23H81.1v-.79h2.36V57.08h.78v2.36h2.37Z"/><path fill="#1e1e1e" d="M92.73,55.82H89.45v2.91h3v.88h-3v3.72h-1v-8.4h4.26Z"/><path fill="#1e1e1e" d="M98.34,55.82H95.06v2.91h3v.88h-3v3.72h-1v-8.4h4.26Z"/><path fill="#1e1e1e" d="M104,55.82h-3.29v2.91h3v.88h-3v3.72h-1v-8.4H104Z"/><path fill="#1e1e1e" d="M109.57,55.82h-3.28v2.91h3v.88h-3v3.72h-1v-8.4h4.27Z"/></g><g><path fill="#1e1e1e" d="M402,59.94q0,3.54-3.2,3.54c-2,0-3.05-1.14-3.05-3.41V54.93h1V60c0,1.72.73,2.58,2.18,2.58s2.1-.83,2.1-2.5V54.93h1Z"/><path fill="#1e1e1e" d="M409.25,60.23h-2.37v2.36h-.78V60.23h-2.36v-.79h2.36V57.08h.78v2.36h2.37Z"/><path fill="#1e1e1e" d="M413.26,63.33h-1V56.08a2.78,2.78,0,0,1-.32.25,5.5,5.5,0,0,1-.48.28,5,5,0,0,1-.57.27,4.76,4.76,0,0,1-.57.19v-1a6.12,6.12,0,0,0,.67-.24c.23-.1.47-.21.7-.33s.44-.25.64-.39a5.23,5.23,0,0,0,.53-.39h.36Z"/><path fill="#1e1e1e" d="M421,59.1a8.15,8.15,0,0,1-.19,1.87,4.41,4.41,0,0,1-.55,1.37,2.54,2.54,0,0,1-.88.85,2.48,2.48,0,0,1-1.2.29A2.23,2.23,0,0,1,417,63.2a2.29,2.29,0,0,1-.83-.81,4,4,0,0,1-.52-1.31,8.61,8.61,0,0,1-.17-1.78,9.35,9.35,0,0,1,.18-1.94,4.63,4.63,0,0,1,.55-1.42,2.41,2.41,0,0,1,.88-.86,2.56,2.56,0,0,1,1.22-.29Q421,54.79,421,59.1Zm-1,.09c0-2.39-.57-3.58-1.71-3.58s-1.8,1.21-1.8,3.65c0,2.27.59,3.4,1.77,3.4S420,61.5,420,59.19Z"/><path fill="#1e1e1e" d="M426.87,55.82h-3.29v2.91h3v.88h-3v3.72h-1v-8.4h4.27Z"/><path fill="#1e1e1e" d="M432.48,55.82H429.2v2.91h3v.88h-3v3.72h-1v-8.4h4.27Z"/><path fill="#1e1e1e" d="M438.09,55.82h-3.28v2.91h3v.88h-3v3.72h-1v-8.4h4.27Z"/><path fill="#1e1e1e" d="M443.7,55.82h-3.28v2.91h3v.88h-3v3.72h-1v-8.4h4.27Z"/></g><g><path fill="#1e1e1e" d="M185.7,18.52V17.36a1.91,1.91,0,0,0,.48.32,5,5,0,0,0,.58.24l.62.15a4.13,4.13,0,0,0,.58.05,2.2,2.2,0,0,0,1.35-.34,1.14,1.14,0,0,0,.45-1,1.15,1.15,0,0,0-.15-.59,1.6,1.6,0,0,0-.41-.46,4.43,4.43,0,0,0-.62-.4l-.78-.4c-.29-.15-.57-.3-.82-.45a3.17,3.17,0,0,1-.66-.5,2.28,2.28,0,0,1-.45-.63,2.15,2.15,0,0,1,.09-1.82,2.24,2.24,0,0,1,.67-.7,3,3,0,0,1,.93-.41,4.29,4.29,0,0,1,1.07-.13,4.08,4.08,0,0,1,1.81.3v1.11a3.22,3.22,0,0,0-1.91-.52,2.79,2.79,0,0,0-.64.07,1.75,1.75,0,0,0-.58.22,1.27,1.27,0,0,0-.41.39,1.1,1.1,0,0,0-.16.59,1.18,1.18,0,0,0,.12.55,1.31,1.31,0,0,0,.36.43,4.69,4.69,0,0,0,.57.38q.33.18.78.39c.3.15.58.31.85.47a4,4,0,0,1,.71.55,2.32,2.32,0,0,1,.48.66,1.84,1.84,0,0,1,.18.83,2.09,2.09,0,0,1-.24,1.05,1.93,1.93,0,0,1-.66.7,2.8,2.8,0,0,1-.95.39,5.24,5.24,0,0,1-1.14.12l-.49,0-.6-.09a4.74,4.74,0,0,1-.57-.15A2,2,0,0,1,185.7,18.52Z"/><path fill="#1e1e1e" d="M197.05,18.86h-1v-.95h0A2,2,0,0,1,194.21,19c-1.42,0-2.14-.85-2.14-2.55V12.86h1V16.3c0,1.26.48,1.89,1.45,1.89a1.5,1.5,0,0,0,1.16-.51,2,2,0,0,0,.45-1.36V12.86h1Z"/><path fill="#1e1e1e" d="M199.85,18h0v3.62h-1V12.86h1v1.06h0a2.28,2.28,0,0,1,2.08-1.2,2.2,2.2,0,0,1,1.81.81,3.33,3.33,0,0,1,.65,2.16,3.73,3.73,0,0,1-.74,2.41,2.42,2.42,0,0,1-2,.9A2,2,0,0,1,199.85,18Zm0-2.42v.83a1.81,1.81,0,0,0,.48,1.27,1.75,1.75,0,0,0,2.6-.15,3.09,3.09,0,0,0,.49-1.86,2.41,2.41,0,0,0-.46-1.57,1.53,1.53,0,0,0-1.25-.57,1.73,1.73,0,0,0-1.35.58A2.16,2.16,0,0,0,199.83,15.58Z"/><path fill="#1e1e1e" d="M206.85,18h0v3.62h-1V12.86h1v1.06h0a2.28,2.28,0,0,1,2.08-1.2,2.2,2.2,0,0,1,1.81.81,3.33,3.33,0,0,1,.65,2.16,3.73,3.73,0,0,1-.74,2.41,2.42,2.42,0,0,1-2,.9A2,2,0,0,1,206.85,18Zm0-2.42v.83a1.81,1.81,0,0,0,.48,1.27,1.75,1.75,0,0,0,2.6-.15,3.09,3.09,0,0,0,.49-1.86,2.41,2.41,0,0,0-.46-1.57,1.53,1.53,0,0,0-1.25-.57,1.73,1.73,0,0,0-1.35.58A2.16,2.16,0,0,0,206.83,15.58Z"/><path fill="#1e1e1e" d="M213.84,18.86h-1V10h1Z"/><path fill="#1e1e1e" d="M220.56,16.1h-4.23a2.19,2.19,0,0,0,.54,1.55,1.85,1.85,0,0,0,1.42.54,3,3,0,0,0,1.86-.66v.9a3.52,3.52,0,0,1-2.09.57,2.54,2.54,0,0,1-2-.81,3.34,3.34,0,0,1-.73-2.3,3.29,3.29,0,0,1,.8-2.29,2.56,2.56,0,0,1,2-.88,2.28,2.28,0,0,1,1.82.76,3.19,3.19,0,0,1,.64,2.12Zm-1-.81a2,2,0,0,0-.4-1.3,1.39,1.39,0,0,0-1.1-.46,1.52,1.52,0,0,0-1.15.49,2.16,2.16,0,0,0-.59,1.27Z"/><path fill="#1e1e1e" d="M230.54,18.86h-1V15.42a2.61,2.61,0,0,0-.31-1.44,1.17,1.17,0,0,0-1-.45,1.28,1.28,0,0,0-1,.56,2.16,2.16,0,0,0-.43,1.35v3.42h-1V15.3c0-1.18-.46-1.77-1.37-1.77a1.27,1.27,0,0,0-1,.53,2.2,2.2,0,0,0-.41,1.38v3.42h-1v-6h1v1h0a2.06,2.06,0,0,1,1.87-1.09,1.8,1.8,0,0,1,1.07.34,1.73,1.73,0,0,1,.62.9,2.16,2.16,0,0,1,2-1.24c1.32,0,2,.82,2,2.45Z"/><path fill="#1e1e1e" d="M237.15,16.1h-4.23a2.19,2.19,0,0,0,.54,1.55,1.85,1.85,0,0,0,1.41.54,3,3,0,0,0,1.87-.66v.9a3.52,3.52,0,0,1-2.09.57,2.54,2.54,0,0,1-2-.81,3.34,3.34,0,0,1-.73-2.3,3.34,3.34,0,0,1,.79-2.29,2.58,2.58,0,0,1,2-.88,2.28,2.28,0,0,1,1.82.76,3.19,3.19,0,0,1,.64,2.12Zm-1-.81a2,2,0,0,0-.4-1.3,1.4,1.4,0,0,0-1.1-.46,1.56,1.56,0,0,0-1.16.49,2.21,2.21,0,0,0-.58,1.27Z"/><path fill="#1e1e1e" d="M243.59,18.86h-1V15.44c0-1.27-.47-1.91-1.4-1.91a1.5,1.5,0,0,0-1.19.54,2,2,0,0,0-.47,1.37v3.42h-1v-6h1v1h0a2.16,2.16,0,0,1,2-1.14,1.79,1.79,0,0,1,1.5.64,2.79,2.79,0,0,1,.53,1.83Z"/><path fill="#1e1e1e" d="M248.08,18.8a1.82,1.82,0,0,1-.9.19c-1.05,0-1.57-.58-1.57-1.76V13.68h-1v-.82h1V11.4l1-.31v1.77h1.51v.82h-1.51v3.38a1.41,1.41,0,0,0,.2.87.82.82,0,0,0,.68.25,1,1,0,0,0,.63-.2Z"/><path fill="#1e1e1e" d="M253.76,18.86h-1v-.93h0A2,2,0,0,1,250.93,19a2,2,0,0,1-1.41-.47,1.68,1.68,0,0,1-.5-1.26c0-1.12.66-1.77,2-2l1.8-.25c0-1-.41-1.53-1.24-1.53a3,3,0,0,0-2,.74v-1a3.76,3.76,0,0,1,2-.56c1.41,0,2.12.75,2.12,2.24Zm-1-3-1.45.2a2.3,2.3,0,0,0-1,.33,1,1,0,0,0-.34.84.93.93,0,0,0,.32.72,1.2,1.2,0,0,0,.83.27,1.51,1.51,0,0,0,1.18-.5,1.77,1.77,0,0,0,.47-1.26Z"/><path fill="#1e1e1e" d="M258.63,13.84a1.18,1.18,0,0,0-.73-.2,1.22,1.22,0,0,0-1,.58,2.67,2.67,0,0,0-.42,1.58v3.06h-1v-6h1V14.1h0a2.08,2.08,0,0,1,.62-1,1.47,1.47,0,0,1,.95-.35,1.44,1.44,0,0,1,.57.08Z"/><path fill="#1e1e1e" d="M264.93,12.86l-2.76,7c-.49,1.25-1.18,1.87-2.07,1.87a2.25,2.25,0,0,1-.63-.08v-.86a1.8,1.8,0,0,0,.57.1,1.17,1.17,0,0,0,1.09-.86l.48-1.14-2.35-6h1.07L262,17.48c0,.06.06.21.13.46h0q0-.15.12-.45l1.7-4.63Z"/><path fill="#1e1e1e" d="M273.34,18.59a3.19,3.19,0,0,1-1.64.41,2.68,2.68,0,0,1-2.07-.83,3,3,0,0,1-.79-2.17,3.32,3.32,0,0,1,.85-2.38,3,3,0,0,1,2.27-.9,3.09,3.09,0,0,1,1.39.3v1a2.47,2.47,0,0,0-1.43-.47,1.93,1.93,0,0,0-1.51.66,2.52,2.52,0,0,0-.59,1.73,2.41,2.41,0,0,0,.56,1.67,1.91,1.91,0,0,0,1.48.6,2.39,2.39,0,0,0,1.48-.52Z"/><path fill="#1e1e1e" d="M277.16,19a2.79,2.79,0,0,1-2.13-.84,3.1,3.1,0,0,1-.79-2.23,3.26,3.26,0,0,1,.82-2.36,3,3,0,0,1,2.24-.85,2.69,2.69,0,0,1,2.09.83,3.27,3.27,0,0,1,.75,2.29,3.23,3.23,0,0,1-.81,2.3A2.81,2.81,0,0,1,277.16,19Zm.07-5.47a1.84,1.84,0,0,0-1.47.63,2.59,2.59,0,0,0-.54,1.74,2.41,2.41,0,0,0,.55,1.68,1.85,1.85,0,0,0,1.46.61,1.77,1.77,0,0,0,1.43-.6,2.63,2.63,0,0,0,.5-1.72,2.68,2.68,0,0,0-.5-1.73A1.74,1.74,0,0,0,277.23,13.53Z"/><path fill="#1e1e1e" d="M286.8,18.86h-1v-1h0A2.22,2.22,0,0,1,283.75,19a2.25,2.25,0,0,1-1.8-.8,3.27,3.27,0,0,1-.68-2.2,3.59,3.59,0,0,1,.75-2.38,2.46,2.46,0,0,1,2-.9,2,2,0,0,1,1.8,1h0V10h1Zm-1-2.71v-.88a1.74,1.74,0,0,0-.48-1.24,1.77,1.77,0,0,0-2.6.15,2.77,2.77,0,0,0-.51,1.78,2.48,2.48,0,0,0,.49,1.63,1.57,1.57,0,0,0,1.29.6,1.65,1.65,0,0,0,1.31-.58A2.16,2.16,0,0,0,285.84,16.15Z"/><path fill="#1e1e1e" d="M293.51,16.1h-4.23a2.19,2.19,0,0,0,.54,1.55,1.85,1.85,0,0,0,1.41.54,3,3,0,0,0,1.87-.66v.9A3.52,3.52,0,0,1,291,19a2.54,2.54,0,0,1-2-.81,3.34,3.34,0,0,1-.73-2.3,3.34,3.34,0,0,1,.79-2.29,2.58,2.58,0,0,1,2-.88,2.28,2.28,0,0,1,1.82.76,3.19,3.19,0,0,1,.64,2.12Zm-1-.81a2,2,0,0,0-.4-1.3,1.4,1.4,0,0,0-1.1-.46,1.56,1.56,0,0,0-1.16.49,2.21,2.21,0,0,0-.58,1.27Z"/><path fill="#1e1e1e" d="M299.24,18h0v3.62h-1V12.86h1v1.06h0a2.26,2.26,0,0,1,2.07-1.2,2.18,2.18,0,0,1,1.81.81,3.28,3.28,0,0,1,.65,2.16A3.72,3.72,0,0,1,303,18.1a2.45,2.45,0,0,1-2,.9A2,2,0,0,1,299.24,18Zm0-2.42v.83a1.82,1.82,0,0,0,.49,1.27,1.73,1.73,0,0,0,2.59-.15,3.09,3.09,0,0,0,.5-1.86,2.47,2.47,0,0,0-.46-1.57,1.54,1.54,0,0,0-1.26-.57,1.73,1.73,0,0,0-1.35.58A2.16,2.16,0,0,0,299.21,15.58Z"/><path fill="#1e1e1e" d="M307.82,19a2.79,2.79,0,0,1-2.13-.84,3.1,3.1,0,0,1-.79-2.23,3.26,3.26,0,0,1,.82-2.36,3,3,0,0,1,2.24-.85,2.69,2.69,0,0,1,2.09.83,3.27,3.27,0,0,1,.75,2.29,3.23,3.23,0,0,1-.81,2.3A2.81,2.81,0,0,1,307.82,19Zm.07-5.47a1.84,1.84,0,0,0-1.47.63,2.59,2.59,0,0,0-.54,1.74,2.41,2.41,0,0,0,.55,1.68,1.85,1.85,0,0,0,1.46.61,1.75,1.75,0,0,0,1.43-.6,2.63,2.63,0,0,0,.5-1.72,2.68,2.68,0,0,0-.5-1.73A1.73,1.73,0,0,0,307.89,13.53Z"/><path fill="#1e1e1e" d="M312.74,11.34a.6.6,0,0,1-.44-.18.57.57,0,0,1-.18-.44.61.61,0,0,1,.18-.45.6.6,0,0,1,.44-.18.64.64,0,0,1,.45.18.61.61,0,0,1,.18.45.6.6,0,0,1-.18.44A.64.64,0,0,1,312.74,11.34Zm.47,7.52h-1v-6h1Z"/><path fill="#1e1e1e" d="M320,18.86h-1V15.44c0-1.27-.46-1.91-1.39-1.91a1.5,1.5,0,0,0-1.19.54,2,2,0,0,0-.48,1.37v3.42h-1v-6h1v1h0a2.16,2.16,0,0,1,2-1.14,1.82,1.82,0,0,1,1.5.64,2.79,2.79,0,0,1,.52,1.83Z"/><path fill="#1e1e1e" d="M324.51,18.8a1.82,1.82,0,0,1-.9.19c-1.05,0-1.58-.58-1.58-1.76V13.68h-1v-.82h1V11.4l1-.31v1.77h1.52v.82H323v3.38a1.41,1.41,0,0,0,.21.87.82.82,0,0,0,.68.25,1,1,0,0,0,.63-.2Z"/><path fill="#1e1e1e" d="M325.52,18.65v-1a2.82,2.82,0,0,0,1.73.58c.84,0,1.27-.28,1.27-.84a.78.78,0,0,0-.11-.41,1,1,0,0,0-.3-.29,1.59,1.59,0,0,0-.43-.23l-.54-.22a6.6,6.6,0,0,1-.7-.32,2.14,2.14,0,0,1-.5-.36,1.26,1.26,0,0,1-.3-.46,1.57,1.57,0,0,1-.11-.6,1.45,1.45,0,0,1,.2-.75,1.78,1.78,0,0,1,.51-.55,2.77,2.77,0,0,1,.74-.33,3.56,3.56,0,0,1,2.24.16v1a2.76,2.76,0,0,0-1.52-.43,1.88,1.88,0,0,0-.49.06,1.16,1.16,0,0,0-.37.18.85.85,0,0,0-.24.26.81.81,0,0,0-.08.34,1,1,0,0,0,.08.4.94.94,0,0,0,.25.28,2.11,2.11,0,0,0,.4.22l.53.22a6.21,6.21,0,0,1,.72.31,2.82,2.82,0,0,1,.54.36,1.41,1.41,0,0,1,.34.47,1.54,1.54,0,0,1,.12.63,1.5,1.5,0,0,1-.2.77,1.7,1.7,0,0,1-.52.55,2.49,2.49,0,0,1-.76.32,3.68,3.68,0,0,1-.89.1A3.51,3.51,0,0,1,325.52,18.65Z"/></g><g><path fill="#fff" d="M207.58,40.56c0,2.52-1.17,3.79-3.53,3.79s-3.42-1.24-3.42-3.7V35.8h1.9v4.87q0,2,1.59,2c1,0,1.57-.66,1.57-2V35.8h1.89Z"/><path fill="#fff" d="M215,44.2h-1.85V40.87c0-.93-.33-1.4-1-1.4a1,1,0,0,0-.8.37,1.46,1.46,0,0,0-.31.94V44.2h-1.85v-6H211v.95h0a2.12,2.12,0,0,1,1.93-1.1c1.32,0,2,.83,2,2.48Z"/><path fill="#fff" d="M217.34,37.25a1,1,0,0,1-.76-.28.88.88,0,0,1-.3-.68.87.87,0,0,1,.3-.68,1.26,1.26,0,0,1,1.53,0,.87.87,0,0,1,.3.68.89.89,0,0,1-.3.69A1.08,1.08,0,0,1,217.34,37.25Zm.92,7h-1.85v-6h1.85Z"/><path fill="#fff" d="M224.33,44a3.65,3.65,0,0,1-1.81.37,3,3,0,0,1-2.23-.84,2.9,2.9,0,0,1-.86-2.16,3.22,3.22,0,0,1,.92-2.42,3.42,3.42,0,0,1,2.45-.88,3.19,3.19,0,0,1,1.53.28V39.9a2.13,2.13,0,0,0-1.29-.43,1.71,1.71,0,0,0-1.26.47,1.74,1.74,0,0,0-.47,1.28,1.69,1.69,0,0,0,.45,1.25,1.59,1.59,0,0,0,1.22.46,2.43,2.43,0,0,0,1.35-.44Z"/><path fill="#fff" d="M228.4,44.35A3.19,3.19,0,0,1,226,43.5a3.47,3.47,0,0,1,0-4.61,3.38,3.38,0,0,1,2.41-.84,3.16,3.16,0,0,1,2.34.84,3,3,0,0,1,.85,2.23,3.19,3.19,0,0,1-.87,2.36A3.27,3.27,0,0,1,228.4,44.35Zm0-4.88a1.23,1.23,0,0,0-1,.45,2,2,0,0,0-.37,1.28c0,1.15.47,1.73,1.4,1.73s1.33-.59,1.33-1.78S229.34,39.47,228.45,39.47Z"/><path fill="#fff" d="M238.78,44.2h-1.86v-.83h0a2.08,2.08,0,0,1-1.86,1,2.28,2.28,0,0,1-1.81-.8,3.33,3.33,0,0,1-.68-2.22A3.59,3.59,0,0,1,233.3,39a2.48,2.48,0,0,1,2-.9,1.69,1.69,0,0,1,1.62.83h0V35.32h1.86ZM237,41.28v-.45a1.4,1.4,0,0,0-.34-1,1.2,1.2,0,0,0-1.85.09,2.28,2.28,0,0,0-.34,1.33,2,2,0,0,0,.33,1.22,1.18,1.18,0,0,0,1.84,0A1.87,1.87,0,0,0,237,41.28Z"/><path fill="#fff" d="M245.72,41.73h-3.91c.06.87.61,1.3,1.65,1.3a3.15,3.15,0,0,0,1.74-.47V43.9a4.56,4.56,0,0,1-2.16.45A2.8,2.8,0,0,1,240,41.29a3.23,3.23,0,0,1,.86-2.36,2.87,2.87,0,0,1,2.14-.88,2.63,2.63,0,0,1,2,.78,3,3,0,0,1,.71,2.12ZM244,40.59q0-1.29-1-1.29a1,1,0,0,0-.77.37,1.75,1.75,0,0,0-.39.92Z"/><path fill="#fff" d="M254.68,44a3.65,3.65,0,0,1-1.81.37,3.08,3.08,0,0,1-2.24-.84,2.89,2.89,0,0,1-.85-2.16,3.18,3.18,0,0,1,.92-2.42,3.42,3.42,0,0,1,2.45-.88,3.19,3.19,0,0,1,1.53.28V39.9a2.13,2.13,0,0,0-1.29-.43,1.71,1.71,0,0,0-1.26.47,1.74,1.74,0,0,0-.47,1.28,1.69,1.69,0,0,0,.45,1.25,1.59,1.59,0,0,0,1.22.46,2.43,2.43,0,0,0,1.35-.44Z"/><path fill="#fff" d="M258.75,44.35a3.19,3.19,0,0,1-2.36-.85,3.47,3.47,0,0,1,0-4.61,3.38,3.38,0,0,1,2.41-.84,3.16,3.16,0,0,1,2.34.84,3,3,0,0,1,.85,2.23,3.19,3.19,0,0,1-.87,2.36A3.27,3.27,0,0,1,258.75,44.35Zm0-4.88a1.26,1.26,0,0,0-1,.45,2,2,0,0,0-.36,1.28c0,1.15.47,1.73,1.4,1.73s1.33-.59,1.33-1.78S259.69,39.47,258.79,39.47Z"/><path fill="#fff" d="M269.12,44.2h-1.85v-.83h0a2.08,2.08,0,0,1-1.86,1,2.28,2.28,0,0,1-1.81-.8,3.28,3.28,0,0,1-.68-2.22,3.59,3.59,0,0,1,.75-2.38,2.48,2.48,0,0,1,2-.9,1.69,1.69,0,0,1,1.62.83h0V35.32h1.85Zm-1.81-2.92v-.45a1.45,1.45,0,0,0-.34-1,1.2,1.2,0,0,0-1.85.09,2.28,2.28,0,0,0-.34,1.33,2,2,0,0,0,.33,1.22,1.18,1.18,0,0,0,1.84,0A1.87,1.87,0,0,0,267.31,41.28Z"/><path fill="#fff" d="M276.07,41.73h-3.91c.06.87.61,1.3,1.65,1.3a3.15,3.15,0,0,0,1.74-.47V43.9a4.57,4.57,0,0,1-2.17.45,2.79,2.79,0,0,1-3.05-3.06,3.19,3.19,0,0,1,.86-2.36,2.87,2.87,0,0,1,2.14-.88,2.63,2.63,0,0,1,2,.78,3.05,3.05,0,0,1,.71,2.12Zm-1.71-1.14q0-1.29-1.05-1.29a1,1,0,0,0-.77.37,1.67,1.67,0,0,0-.39.92Z"/><path fill="#fff" d="M282.36,43.5h0V47h-1.85V38.2h1.85v.9h0a2.36,2.36,0,0,1,3.73-.25,3.45,3.45,0,0,1,.64,2.18,3.68,3.68,0,0,1-.75,2.41,2.43,2.43,0,0,1-2,.91A1.88,1.88,0,0,1,282.36,43.5ZM282.31,41v.48a1.54,1.54,0,0,0,.33,1,1.05,1.05,0,0,0,.86.39,1.15,1.15,0,0,0,1-.49,2.4,2.4,0,0,0,.35-1.39c0-1-.41-1.58-1.23-1.58a1.15,1.15,0,0,0-.93.43A1.73,1.73,0,0,0,282.31,41Z"/><path fill="#fff" d="M290.84,44.35a3.19,3.19,0,0,1-2.36-.85,3,3,0,0,1-.86-2.28,3.07,3.07,0,0,1,.89-2.33,3.37,3.37,0,0,1,2.41-.84,3.19,3.19,0,0,1,2.34.84,3,3,0,0,1,.85,2.23,3.16,3.16,0,0,1-.88,2.36A3.23,3.23,0,0,1,290.84,44.35Zm0-4.88a1.23,1.23,0,0,0-1,.45,2,2,0,0,0-.36,1.28c0,1.15.46,1.73,1.39,1.73s1.33-.59,1.33-1.78S291.78,39.47,290.88,39.47Z"/><path fill="#fff" d="M296.21,37.25a1.05,1.05,0,0,1-.76-.28.88.88,0,0,1-.3-.68.87.87,0,0,1,.3-.68,1.26,1.26,0,0,1,1.53,0,.87.87,0,0,1,.3.68.89.89,0,0,1-.3.69A1.08,1.08,0,0,1,296.21,37.25Zm.92,7h-1.85v-6h1.85Z"/><path fill="#fff" d="M304.46,44.2h-1.85V40.87c0-.93-.33-1.4-1-1.4a1,1,0,0,0-.79.37,1.4,1.4,0,0,0-.31.94V44.2h-1.85v-6h1.85v.95h0a2.12,2.12,0,0,1,1.93-1.1c1.33,0,2,.83,2,2.48Z"/><path fill="#fff" d="M309.48,44.13a2.75,2.75,0,0,1-1.23.22c-1.31,0-2-.68-2-2V39.56h-1V38.2h1V36.9l1.85-.52V38.2h1.34v1.36h-1.34V42c0,.63.24.94.74.94a1.24,1.24,0,0,0,.6-.17Z"/><path fill="#fff" d="M310.33,44v-1.5a4.13,4.13,0,0,0,.92.41,3,3,0,0,0,.85.14,1.84,1.84,0,0,0,.78-.14.43.43,0,0,0,.28-.41.38.38,0,0,0-.12-.29,1.23,1.23,0,0,0-.34-.21,3.72,3.72,0,0,0-.44-.16,3.53,3.53,0,0,1-.46-.15,4.68,4.68,0,0,1-.63-.29,2.16,2.16,0,0,1-.46-.36,1.64,1.64,0,0,1-.28-.48,2,2,0,0,1-.1-.64,1.69,1.69,0,0,1,.22-.86,1.88,1.88,0,0,1,.59-.6,2.64,2.64,0,0,1,.84-.34,4.46,4.46,0,0,1,1-.11,5.73,5.73,0,0,1,.81.06,7.84,7.84,0,0,1,.81.18v1.43a2.94,2.94,0,0,0-.76-.3,3.06,3.06,0,0,0-.78-.11,1.9,1.9,0,0,0-.35,0,1.51,1.51,0,0,0-.28.1.53.53,0,0,0-.2.16.38.38,0,0,0-.07.22.41.41,0,0,0,.11.28.88.88,0,0,0,.28.2,1.79,1.79,0,0,0,.37.15l.42.14a6,6,0,0,1,.66.28,2.18,2.18,0,0,1,.52.36,1.58,1.58,0,0,1,.33.48,1.82,1.82,0,0,1,.11.66,1.78,1.78,0,0,1-.23.91,1.9,1.9,0,0,1-.62.61,2.66,2.66,0,0,1-.88.35,5.1,5.1,0,0,1-1,.11A5.51,5.51,0,0,1,310.33,44Z"/></g></g></svg>