<svg xmlns="http://www.w3.org/2000/svg" xmlns:xlink="http://www.w3.org/1999/xlink" viewBox="0 0 548 217">
  <defs>
    <linearGradient id="linear-gradient" x1="266.309" y1="173.2" x2="266.309" y2="193.2" gradientUnits="userSpaceOnUse">
      <stop offset="0" stop-color="#5ea0ef"/>
      <stop offset="0.18" stop-color="#559cec"/>
      <stop offset="0.47" stop-color="#3c91e5"/>
      <stop offset="0.84" stop-color="#1380da"/>
      <stop offset="1" stop-color="#0078d4"/>
    </linearGradient>
    <linearGradient id="linear-gradient-2" x1="319.866" y1="35.067" x2="319.866" y2="55.067" xlink:href="#linear-gradient"/>
    <linearGradient id="linear-gradient-3" x1="122.244" y1="42.487" x2="122.244" y2="47.487" xlink:href="#linear-gradient"/>
    <linearGradient id="linear-gradient-4" x1="133.807" y1="42.487" x2="133.807" y2="47.487" xlink:href="#linear-gradient"/>
    <linearGradient id="linear-gradient-5" x1="145.37" y1="42.487" x2="145.37" y2="47.487" xlink:href="#linear-gradient"/>
    <linearGradient id="linear-gradient-6" x1="156.933" y1="42.487" x2="156.933" y2="47.487" xlink:href="#linear-gradient"/>
    <linearGradient id="linear-gradient-7" x1="168.496" y1="42.487" x2="168.496" y2="47.487" xlink:href="#linear-gradient"/>
    <linearGradient id="linear-gradient-8" x1="180.06" y1="42.487" x2="180.06" y2="47.487" xlink:href="#linear-gradient"/>
    <linearGradient id="linear-gradient-9" x1="191.623" y1="42.487" x2="191.623" y2="47.487" xlink:href="#linear-gradient"/>
    <linearGradient id="linear-gradient-10" x1="203.186" y1="42.487" x2="203.186" y2="47.487" xlink:href="#linear-gradient"/>
    <linearGradient id="linear-gradient-11" x1="214.749" y1="42.487" x2="214.749" y2="47.487" xlink:href="#linear-gradient"/>
    <linearGradient id="linear-gradient-12" x1="226.312" y1="42.487" x2="226.312" y2="47.487" xlink:href="#linear-gradient"/>
    <linearGradient id="linear-gradient-13" x1="237.875" y1="42.487" x2="237.875" y2="47.487" xlink:href="#linear-gradient"/>
    <linearGradient id="linear-gradient-14" x1="249.438" y1="42.487" x2="249.438" y2="47.487" xlink:href="#linear-gradient"/>
    <linearGradient id="linear-gradient-15" x1="261.002" y1="42.487" x2="261.002" y2="47.487" xlink:href="#linear-gradient"/>
    <linearGradient id="linear-gradient-16" x1="272.565" y1="42.487" x2="272.565" y2="47.487" xlink:href="#linear-gradient"/>
    <linearGradient id="linear-gradient-17" x1="284.128" y1="42.487" x2="284.128" y2="47.487" xlink:href="#linear-gradient"/>
    <linearGradient id="linear-gradient-18" x1="295.691" y1="42.487" x2="295.691" y2="47.487" xlink:href="#linear-gradient"/>
    <linearGradient id="linear-gradient-19" x1="307.254" y1="42.487" x2="307.254" y2="47.487" xlink:href="#linear-gradient"/>
    <linearGradient id="linear-gradient-20" x1="318.817" y1="42.487" x2="318.817" y2="47.487" xlink:href="#linear-gradient"/>
    <linearGradient id="linear-gradient-21" x1="330.38" y1="42.487" x2="330.38" y2="47.487" xlink:href="#linear-gradient"/>
    <linearGradient id="linear-gradient-22" x1="341.943" y1="42.487" x2="341.943" y2="47.487" xlink:href="#linear-gradient"/>
    <linearGradient id="linear-gradient-23" x1="353.507" y1="42.487" x2="353.507" y2="47.487" xlink:href="#linear-gradient"/>
    <linearGradient id="linear-gradient-24" x1="365.07" y1="42.487" x2="365.07" y2="47.487" xlink:href="#linear-gradient"/>
    <linearGradient id="linear-gradient-25" x1="376.633" y1="42.487" x2="376.633" y2="47.487" xlink:href="#linear-gradient"/>
    <linearGradient id="linear-gradient-26" x1="388.196" y1="42.487" x2="388.196" y2="47.487" xlink:href="#linear-gradient"/>
    <linearGradient id="linear-gradient-27" x1="399.759" y1="42.487" x2="399.759" y2="47.487" xlink:href="#linear-gradient"/>
    <linearGradient id="linear-gradient-28" x1="411.322" y1="42.487" x2="411.322" y2="47.487" xlink:href="#linear-gradient"/>
    <linearGradient id="linear-gradient-29" x1="422.885" y1="42.487" x2="422.885" y2="47.487" xlink:href="#linear-gradient"/>
    <linearGradient id="linear-gradient-30" x1="434.448" y1="42.487" x2="434.448" y2="47.487" xlink:href="#linear-gradient"/>
    <linearGradient id="linear-gradient-31" x1="446.012" y1="42.487" x2="446.012" y2="47.487" xlink:href="#linear-gradient"/>
    <linearGradient id="linear-gradient-32" x1="457.575" y1="42.487" x2="457.575" y2="47.487" xlink:href="#linear-gradient"/>
    <linearGradient id="linear-gradient-33" x1="469.138" y1="42.487" x2="469.138" y2="47.487" xlink:href="#linear-gradient"/>
    <linearGradient id="linear-gradient-34" x1="480.701" y1="42.487" x2="480.701" y2="47.487" xlink:href="#linear-gradient"/>
    <linearGradient id="linear-gradient-35" x1="492.264" y1="42.487" x2="492.264" y2="47.487" xlink:href="#linear-gradient"/>
    <linearGradient id="linear-gradient-36" x1="503.827" y1="42.487" x2="503.827" y2="47.487" xlink:href="#linear-gradient"/>
    <linearGradient id="linear-gradient-37" x1="515.39" y1="42.487" x2="515.39" y2="47.487" xlink:href="#linear-gradient"/>
    <linearGradient id="linear-gradient-38" x1="252.48" y1="104.054" x2="252.48" y2="124.054" xlink:href="#linear-gradient"/>
    <linearGradient id="linear-gradient-39" x1="54.858" y1="111.474" x2="54.858" y2="116.474" xlink:href="#linear-gradient"/>
    <linearGradient id="linear-gradient-40" x1="66.421" y1="111.474" x2="66.421" y2="116.474" xlink:href="#linear-gradient"/>
    <linearGradient id="linear-gradient-41" x1="77.984" y1="111.474" x2="77.984" y2="116.474" xlink:href="#linear-gradient"/>
    <linearGradient id="linear-gradient-42" x1="89.547" y1="111.474" x2="89.547" y2="116.474" xlink:href="#linear-gradient"/>
    <linearGradient id="linear-gradient-43" x1="101.11" y1="111.474" x2="101.11" y2="116.474" xlink:href="#linear-gradient"/>
    <linearGradient id="linear-gradient-44" x1="112.673" y1="111.474" x2="112.673" y2="116.474" xlink:href="#linear-gradient"/>
    <linearGradient id="linear-gradient-45" x1="124.236" y1="111.474" x2="124.236" y2="116.474" xlink:href="#linear-gradient"/>
    <linearGradient id="linear-gradient-46" x1="135.799" y1="111.474" x2="135.799" y2="116.474" xlink:href="#linear-gradient"/>
    <linearGradient id="linear-gradient-47" x1="147.363" y1="111.474" x2="147.363" y2="116.474" xlink:href="#linear-gradient"/>
    <linearGradient id="linear-gradient-48" x1="158.926" y1="111.474" x2="158.926" y2="116.474" xlink:href="#linear-gradient"/>
    <linearGradient id="linear-gradient-49" x1="170.489" y1="111.474" x2="170.489" y2="116.474" xlink:href="#linear-gradient"/>
    <linearGradient id="linear-gradient-50" x1="182.052" y1="111.474" x2="182.052" y2="116.474" xlink:href="#linear-gradient"/>
    <linearGradient id="linear-gradient-51" x1="193.615" y1="111.474" x2="193.615" y2="116.474" xlink:href="#linear-gradient"/>
    <linearGradient id="linear-gradient-52" x1="205.178" y1="111.474" x2="205.178" y2="116.474" xlink:href="#linear-gradient"/>
    <linearGradient id="linear-gradient-53" x1="216.741" y1="111.474" x2="216.741" y2="116.474" xlink:href="#linear-gradient"/>
    <linearGradient id="linear-gradient-54" x1="228.304" y1="111.474" x2="228.304" y2="116.474" xlink:href="#linear-gradient"/>
    <linearGradient id="linear-gradient-55" x1="239.868" y1="111.474" x2="239.868" y2="116.474" xlink:href="#linear-gradient"/>
    <linearGradient id="linear-gradient-56" x1="251.431" y1="111.474" x2="251.431" y2="116.474" xlink:href="#linear-gradient"/>
    <linearGradient id="linear-gradient-57" x1="262.994" y1="111.474" x2="262.994" y2="116.474" xlink:href="#linear-gradient"/>
    <linearGradient id="linear-gradient-58" x1="274.557" y1="111.474" x2="274.557" y2="116.474" xlink:href="#linear-gradient"/>
    <linearGradient id="linear-gradient-59" x1="286.12" y1="111.474" x2="286.12" y2="116.474" xlink:href="#linear-gradient"/>
    <linearGradient id="linear-gradient-60" x1="297.683" y1="111.474" x2="297.683" y2="116.474" xlink:href="#linear-gradient"/>
    <linearGradient id="linear-gradient-61" x1="309.246" y1="111.474" x2="309.246" y2="116.474" xlink:href="#linear-gradient"/>
    <linearGradient id="linear-gradient-62" x1="320.809" y1="111.474" x2="320.809" y2="116.474" xlink:href="#linear-gradient"/>
    <linearGradient id="linear-gradient-63" x1="332.373" y1="111.474" x2="332.373" y2="116.474" xlink:href="#linear-gradient"/>
    <linearGradient id="linear-gradient-64" x1="343.936" y1="111.474" x2="343.936" y2="116.474" xlink:href="#linear-gradient"/>
    <linearGradient id="linear-gradient-65" x1="355.499" y1="111.474" x2="355.499" y2="116.474" xlink:href="#linear-gradient"/>
    <linearGradient id="linear-gradient-66" x1="367.062" y1="111.474" x2="367.062" y2="116.474" xlink:href="#linear-gradient"/>
    <linearGradient id="linear-gradient-67" x1="378.625" y1="111.474" x2="378.625" y2="116.474" xlink:href="#linear-gradient"/>
    <linearGradient id="linear-gradient-68" x1="390.188" y1="111.474" x2="390.188" y2="116.474" xlink:href="#linear-gradient"/>
    <linearGradient id="linear-gradient-69" x1="401.751" y1="111.474" x2="401.751" y2="116.474" xlink:href="#linear-gradient"/>
    <linearGradient id="linear-gradient-70" x1="413.314" y1="111.474" x2="413.314" y2="116.474" xlink:href="#linear-gradient"/>
    <linearGradient id="linear-gradient-71" x1="424.878" y1="111.474" x2="424.878" y2="116.474" xlink:href="#linear-gradient"/>
    <linearGradient id="linear-gradient-72" x1="436.441" y1="111.474" x2="436.441" y2="116.474" xlink:href="#linear-gradient"/>
    <linearGradient id="linear-gradient-73" x1="448.004" y1="111.474" x2="448.004" y2="116.474" xlink:href="#linear-gradient"/>
    <linearGradient id="linear-gradient-74" x1="181.624" y1="180.7" x2="181.624" y2="185.7" xlink:href="#linear-gradient"/>
    <linearGradient id="linear-gradient-75" x1="190.957" y1="180.7" x2="190.957" y2="185.7" xlink:href="#linear-gradient"/>
    <linearGradient id="linear-gradient-76" x1="200.291" y1="180.7" x2="200.291" y2="185.7" xlink:href="#linear-gradient"/>
    <linearGradient id="linear-gradient-77" x1="209.624" y1="180.7" x2="209.624" y2="185.7" xlink:href="#linear-gradient"/>
    <linearGradient id="linear-gradient-78" x1="218.957" y1="180.7" x2="218.957" y2="185.7" xlink:href="#linear-gradient"/>
    <linearGradient id="linear-gradient-79" x1="228.291" y1="180.7" x2="228.291" y2="185.7" xlink:href="#linear-gradient"/>
    <linearGradient id="linear-gradient-80" x1="237.624" y1="180.7" x2="237.624" y2="185.7" xlink:href="#linear-gradient"/>
    <linearGradient id="linear-gradient-81" x1="246.957" y1="180.7" x2="246.957" y2="185.7" xlink:href="#linear-gradient"/>
    <linearGradient id="linear-gradient-82" x1="256.291" y1="180.7" x2="256.291" y2="185.7" xlink:href="#linear-gradient"/>
    <linearGradient id="linear-gradient-83" x1="265.624" y1="180.7" x2="265.624" y2="185.7" xlink:href="#linear-gradient"/>
    <linearGradient id="linear-gradient-84" x1="274.957" y1="180.7" x2="274.957" y2="185.7" xlink:href="#linear-gradient"/>
    <linearGradient id="linear-gradient-85" x1="284.291" y1="180.7" x2="284.291" y2="185.7" xlink:href="#linear-gradient"/>
    <linearGradient id="linear-gradient-86" x1="293.624" y1="180.7" x2="293.624" y2="185.7" xlink:href="#linear-gradient"/>
    <linearGradient id="linear-gradient-87" x1="302.957" y1="180.7" x2="302.957" y2="185.7" xlink:href="#linear-gradient"/>
    <linearGradient id="linear-gradient-88" x1="312.291" y1="180.7" x2="312.291" y2="185.7" xlink:href="#linear-gradient"/>
    <linearGradient id="linear-gradient-89" x1="321.624" y1="180.7" x2="321.624" y2="185.7" xlink:href="#linear-gradient"/>
    <linearGradient id="linear-gradient-90" x1="330.957" y1="180.7" x2="330.957" y2="185.7" xlink:href="#linear-gradient"/>
    <linearGradient id="linear-gradient-91" x1="340.291" y1="180.7" x2="340.291" y2="185.7" xlink:href="#linear-gradient"/>
    <linearGradient id="linear-gradient-92" x1="349.624" y1="180.7" x2="349.624" y2="185.7" xlink:href="#linear-gradient"/>
    <linearGradient id="linear-gradient-93" x1="452.48" y1="173.2" x2="452.48" y2="193.2" xlink:href="#linear-gradient"/>
    <linearGradient id="linear-gradient-94" x1="367.795" y1="180.7" x2="367.795" y2="185.7" xlink:href="#linear-gradient"/>
    <linearGradient id="linear-gradient-95" x1="377.128" y1="180.7" x2="377.128" y2="185.7" xlink:href="#linear-gradient"/>
    <linearGradient id="linear-gradient-96" x1="386.462" y1="180.7" x2="386.462" y2="185.7" xlink:href="#linear-gradient"/>
    <linearGradient id="linear-gradient-97" x1="395.795" y1="180.7" x2="395.795" y2="185.7" xlink:href="#linear-gradient"/>
    <linearGradient id="linear-gradient-98" x1="405.128" y1="180.7" x2="405.128" y2="185.7" xlink:href="#linear-gradient"/>
    <linearGradient id="linear-gradient-99" x1="414.462" y1="180.7" x2="414.462" y2="185.7" xlink:href="#linear-gradient"/>
    <linearGradient id="linear-gradient-100" x1="423.795" y1="180.7" x2="423.795" y2="185.7" xlink:href="#linear-gradient"/>
    <linearGradient id="linear-gradient-101" x1="433.128" y1="180.7" x2="433.128" y2="185.7" xlink:href="#linear-gradient"/>
    <linearGradient id="linear-gradient-102" x1="442.462" y1="180.7" x2="442.462" y2="185.7" xlink:href="#linear-gradient"/>
    <linearGradient id="linear-gradient-103" x1="451.795" y1="180.7" x2="451.795" y2="185.7" xlink:href="#linear-gradient"/>
    <linearGradient id="linear-gradient-104" x1="461.128" y1="180.7" x2="461.128" y2="185.7" xlink:href="#linear-gradient"/>
    <linearGradient id="linear-gradient-105" x1="470.462" y1="180.7" x2="470.462" y2="185.7" xlink:href="#linear-gradient"/>
    <linearGradient id="linear-gradient-106" x1="479.795" y1="180.7" x2="479.795" y2="185.7" xlink:href="#linear-gradient"/>
    <linearGradient id="linear-gradient-107" x1="489.128" y1="180.7" x2="489.128" y2="185.7" xlink:href="#linear-gradient"/>
    <linearGradient id="linear-gradient-108" x1="498.462" y1="180.7" x2="498.462" y2="185.7" xlink:href="#linear-gradient"/>
    <linearGradient id="linear-gradient-109" x1="507.795" y1="180.7" x2="507.795" y2="185.7" xlink:href="#linear-gradient"/>
    <linearGradient id="linear-gradient-110" x1="517.128" y1="180.7" x2="517.128" y2="185.7" xlink:href="#linear-gradient"/>
    <linearGradient id="linear-gradient-111" x1="526.462" y1="180.7" x2="526.462" y2="185.7" xlink:href="#linear-gradient"/>
    <linearGradient id="linear-gradient-112" x1="535.795" y1="180.7" x2="535.795" y2="185.7" xlink:href="#linear-gradient"/>
  </defs>
  <g id="Shapes">
    <rect width="548" height="217" fill="#fff"/>
    <rect x="176.309" y="173.2" width="180" height="20" fill="url(#linear-gradient)"/>
    <line x1="176.744" y1="208.2" x2="176.744" y2="170.201" fill="none" stroke="#000"/>
    <line x1="356.308" y1="208.2" x2="356.308" y2="170.201" fill="none" stroke="#000"/>
    <rect x="119.866" y="35.067" width="400" height="20" fill="url(#linear-gradient-2)"/>
    <g>
      <ellipse cx="122.244" cy="44.987" rx="2.427" ry="2.5" fill="url(#linear-gradient-3)"/>
      <ellipse cx="133.807" cy="44.987" rx="2.427" ry="2.5" fill="url(#linear-gradient-4)"/>
      <ellipse cx="145.37" cy="44.987" rx="2.427" ry="2.5" fill="url(#linear-gradient-5)"/>
      <ellipse cx="156.933" cy="44.987" rx="2.427" ry="2.5" fill="url(#linear-gradient-6)"/>
      <ellipse cx="168.496" cy="44.987" rx="2.427" ry="2.5" fill="url(#linear-gradient-7)"/>
      <ellipse cx="180.06" cy="44.987" rx="2.427" ry="2.5" fill="url(#linear-gradient-8)"/>
      <ellipse cx="191.623" cy="44.987" rx="2.427" ry="2.5" fill="url(#linear-gradient-9)"/>
      <ellipse cx="203.186" cy="44.987" rx="2.427" ry="2.5" fill="url(#linear-gradient-10)"/>
      <ellipse cx="214.749" cy="44.987" rx="2.427" ry="2.5" fill="url(#linear-gradient-11)"/>
      <ellipse cx="226.312" cy="44.987" rx="2.427" ry="2.5" fill="url(#linear-gradient-12)"/>
      <ellipse cx="237.875" cy="44.987" rx="2.427" ry="2.5" fill="url(#linear-gradient-13)"/>
      <ellipse cx="249.438" cy="44.987" rx="2.427" ry="2.5" fill="url(#linear-gradient-14)"/>
      <ellipse cx="261.002" cy="44.987" rx="2.427" ry="2.5" fill="url(#linear-gradient-15)"/>
      <ellipse cx="272.565" cy="44.987" rx="2.427" ry="2.5" fill="url(#linear-gradient-16)"/>
      <ellipse cx="284.128" cy="44.987" rx="2.427" ry="2.5" fill="url(#linear-gradient-17)"/>
      <ellipse cx="295.691" cy="44.987" rx="2.427" ry="2.5" fill="url(#linear-gradient-18)"/>
      <ellipse cx="307.254" cy="44.987" rx="2.427" ry="2.5" fill="url(#linear-gradient-19)"/>
      <ellipse cx="318.817" cy="44.987" rx="2.427" ry="2.5" fill="url(#linear-gradient-20)"/>
      <ellipse cx="330.38" cy="44.987" rx="2.427" ry="2.5" fill="url(#linear-gradient-21)"/>
      <ellipse cx="341.943" cy="44.987" rx="2.427" ry="2.5" fill="url(#linear-gradient-22)"/>
      <ellipse cx="353.507" cy="44.987" rx="2.427" ry="2.5" fill="url(#linear-gradient-23)"/>
      <ellipse cx="365.07" cy="44.987" rx="2.427" ry="2.5" fill="url(#linear-gradient-24)"/>
      <ellipse cx="376.633" cy="44.987" rx="2.427" ry="2.5" fill="url(#linear-gradient-25)"/>
      <ellipse cx="388.196" cy="44.987" rx="2.427" ry="2.5" fill="url(#linear-gradient-26)"/>
      <ellipse cx="399.759" cy="44.987" rx="2.427" ry="2.5" fill="url(#linear-gradient-27)"/>
      <ellipse cx="411.322" cy="44.987" rx="2.427" ry="2.5" fill="url(#linear-gradient-28)"/>
      <ellipse cx="422.885" cy="44.987" rx="2.427" ry="2.5" fill="url(#linear-gradient-29)"/>
      <ellipse cx="434.448" cy="44.987" rx="2.427" ry="2.5" fill="url(#linear-gradient-30)"/>
      <ellipse cx="446.012" cy="44.987" rx="2.427" ry="2.5" fill="url(#linear-gradient-31)"/>
      <ellipse cx="457.575" cy="44.987" rx="2.427" ry="2.5" fill="url(#linear-gradient-32)"/>
      <ellipse cx="469.138" cy="44.987" rx="2.427" ry="2.5" fill="url(#linear-gradient-33)"/>
      <ellipse cx="480.701" cy="44.987" rx="2.427" ry="2.5" fill="url(#linear-gradient-34)"/>
      <ellipse cx="492.264" cy="44.987" rx="2.427" ry="2.5" fill="url(#linear-gradient-35)"/>
      <ellipse cx="503.827" cy="44.987" rx="2.427" ry="2.5" fill="url(#linear-gradient-36)"/>
      <ellipse cx="515.39" cy="44.987" rx="2.427" ry="2.5" fill="url(#linear-gradient-37)"/>
    </g>
    <line x1="519.866" y1="70.067" x2="519.866" y2="30.201" fill="none" stroke="#000"/>
    <rect x="52.48" y="104.054" width="400" height="20" fill="url(#linear-gradient-38)"/>
    <g>
      <ellipse cx="54.858" cy="113.974" rx="2.427" ry="2.5" fill="url(#linear-gradient-39)"/>
      <ellipse cx="66.421" cy="113.974" rx="2.427" ry="2.5" fill="url(#linear-gradient-40)"/>
      <ellipse cx="77.984" cy="113.974" rx="2.427" ry="2.5" fill="url(#linear-gradient-41)"/>
      <ellipse cx="89.547" cy="113.974" rx="2.427" ry="2.5" fill="url(#linear-gradient-42)"/>
      <ellipse cx="101.11" cy="113.974" rx="2.427" ry="2.5" fill="url(#linear-gradient-43)"/>
      <ellipse cx="112.673" cy="113.974" rx="2.427" ry="2.5" fill="url(#linear-gradient-44)"/>
      <ellipse cx="124.236" cy="113.974" rx="2.427" ry="2.5" fill="url(#linear-gradient-45)"/>
      <ellipse cx="135.799" cy="113.974" rx="2.427" ry="2.5" fill="url(#linear-gradient-46)"/>
      <ellipse cx="147.363" cy="113.974" rx="2.427" ry="2.5" fill="url(#linear-gradient-47)"/>
      <ellipse cx="158.926" cy="113.974" rx="2.427" ry="2.5" fill="url(#linear-gradient-48)"/>
      <ellipse cx="170.489" cy="113.974" rx="2.427" ry="2.5" fill="url(#linear-gradient-49)"/>
      <ellipse cx="182.052" cy="113.974" rx="2.427" ry="2.5" fill="url(#linear-gradient-50)"/>
      <ellipse cx="193.615" cy="113.974" rx="2.427" ry="2.5" fill="url(#linear-gradient-51)"/>
      <ellipse cx="205.178" cy="113.974" rx="2.427" ry="2.5" fill="url(#linear-gradient-52)"/>
      <ellipse cx="216.741" cy="113.974" rx="2.427" ry="2.5" fill="url(#linear-gradient-53)"/>
      <ellipse cx="228.304" cy="113.974" rx="2.427" ry="2.5" fill="url(#linear-gradient-54)"/>
      <ellipse cx="239.868" cy="113.974" rx="2.427" ry="2.5" fill="url(#linear-gradient-55)"/>
      <ellipse cx="251.431" cy="113.974" rx="2.427" ry="2.5" fill="url(#linear-gradient-56)"/>
      <ellipse cx="262.994" cy="113.974" rx="2.427" ry="2.5" fill="url(#linear-gradient-57)"/>
      <ellipse cx="274.557" cy="113.974" rx="2.427" ry="2.5" fill="url(#linear-gradient-58)"/>
      <ellipse cx="286.12" cy="113.974" rx="2.427" ry="2.5" fill="url(#linear-gradient-59)"/>
      <ellipse cx="297.683" cy="113.974" rx="2.427" ry="2.5" fill="url(#linear-gradient-60)"/>
      <ellipse cx="309.246" cy="113.974" rx="2.427" ry="2.5" fill="url(#linear-gradient-61)"/>
      <ellipse cx="320.809" cy="113.974" rx="2.427" ry="2.5" fill="url(#linear-gradient-62)"/>
      <ellipse cx="332.373" cy="113.974" rx="2.427" ry="2.5" fill="url(#linear-gradient-63)"/>
      <ellipse cx="343.936" cy="113.974" rx="2.427" ry="2.5" fill="url(#linear-gradient-64)"/>
      <ellipse cx="355.499" cy="113.974" rx="2.427" ry="2.5" fill="url(#linear-gradient-65)"/>
      <ellipse cx="367.062" cy="113.974" rx="2.427" ry="2.5" fill="url(#linear-gradient-66)"/>
      <ellipse cx="378.625" cy="113.974" rx="2.427" ry="2.5" fill="url(#linear-gradient-67)"/>
      <ellipse cx="390.188" cy="113.974" rx="2.427" ry="2.5" fill="url(#linear-gradient-68)"/>
      <ellipse cx="401.751" cy="113.974" rx="2.427" ry="2.5" fill="url(#linear-gradient-69)"/>
      <ellipse cx="413.314" cy="113.974" rx="2.427" ry="2.5" fill="url(#linear-gradient-70)"/>
      <ellipse cx="424.878" cy="113.974" rx="2.427" ry="2.5" fill="url(#linear-gradient-71)"/>
      <ellipse cx="436.441" cy="113.974" rx="2.427" ry="2.5" fill="url(#linear-gradient-72)"/>
      <ellipse cx="448.004" cy="113.974" rx="2.427" ry="2.5" fill="url(#linear-gradient-73)"/>
    </g>
    <g>
      <ellipse cx="181.624" cy="183.2" rx="2.427" ry="2.5" fill="url(#linear-gradient-74)"/>
      <ellipse cx="190.957" cy="183.2" rx="2.427" ry="2.5" fill="url(#linear-gradient-75)"/>
      <ellipse cx="200.291" cy="183.2" rx="2.427" ry="2.5" fill="url(#linear-gradient-76)"/>
      <ellipse cx="209.624" cy="183.2" rx="2.427" ry="2.5" fill="url(#linear-gradient-77)"/>
      <ellipse cx="218.957" cy="183.2" rx="2.427" ry="2.5" fill="url(#linear-gradient-78)"/>
      <ellipse cx="228.291" cy="183.2" rx="2.427" ry="2.5" fill="url(#linear-gradient-79)"/>
      <ellipse cx="237.624" cy="183.2" rx="2.427" ry="2.5" fill="url(#linear-gradient-80)"/>
      <ellipse cx="246.957" cy="183.2" rx="2.427" ry="2.5" fill="url(#linear-gradient-81)"/>
      <ellipse cx="256.291" cy="183.2" rx="2.427" ry="2.5" fill="url(#linear-gradient-82)"/>
      <ellipse cx="265.624" cy="183.2" rx="2.427" ry="2.5" fill="url(#linear-gradient-83)"/>
      <ellipse cx="274.957" cy="183.2" rx="2.427" ry="2.5" fill="url(#linear-gradient-84)"/>
      <ellipse cx="284.291" cy="183.2" rx="2.427" ry="2.5" fill="url(#linear-gradient-85)"/>
      <ellipse cx="293.624" cy="183.2" rx="2.427" ry="2.5" fill="url(#linear-gradient-86)"/>
      <ellipse cx="302.957" cy="183.2" rx="2.427" ry="2.5" fill="url(#linear-gradient-87)"/>
      <ellipse cx="312.291" cy="183.2" rx="2.427" ry="2.5" fill="url(#linear-gradient-88)"/>
      <ellipse cx="321.624" cy="183.2" rx="2.427" ry="2.5" fill="url(#linear-gradient-89)"/>
      <ellipse cx="330.957" cy="183.2" rx="2.427" ry="2.5" fill="url(#linear-gradient-90)"/>
      <ellipse cx="340.291" cy="183.2" rx="2.427" ry="2.5" fill="url(#linear-gradient-91)"/>
      <ellipse cx="349.624" cy="183.2" rx="2.427" ry="2.5" fill="url(#linear-gradient-92)"/>
    </g>
    <rect x="362.48" y="173.2" width="180" height="20" fill="url(#linear-gradient-93)"/>
    <line x1="362.915" y1="208.2" x2="362.915" y2="170.201" fill="none" stroke="#000"/>
    <line x1="542.479" y1="208.2" x2="542.479" y2="170.201" fill="none" stroke="#000"/>
    <g>
      <ellipse cx="367.795" cy="183.2" rx="2.427" ry="2.5" fill="url(#linear-gradient-94)"/>
      <ellipse cx="377.128" cy="183.2" rx="2.427" ry="2.5" fill="url(#linear-gradient-95)"/>
      <ellipse cx="386.462" cy="183.2" rx="2.427" ry="2.5" fill="url(#linear-gradient-96)"/>
      <ellipse cx="395.795" cy="183.2" rx="2.427" ry="2.5" fill="url(#linear-gradient-97)"/>
      <ellipse cx="405.128" cy="183.2" rx="2.427" ry="2.5" fill="url(#linear-gradient-98)"/>
      <ellipse cx="414.462" cy="183.2" rx="2.427" ry="2.5" fill="url(#linear-gradient-99)"/>
      <ellipse cx="423.795" cy="183.2" rx="2.427" ry="2.5" fill="url(#linear-gradient-100)"/>
      <ellipse cx="433.128" cy="183.2" rx="2.427" ry="2.5" fill="url(#linear-gradient-101)"/>
      <ellipse cx="442.462" cy="183.2" rx="2.427" ry="2.5" fill="url(#linear-gradient-102)"/>
      <ellipse cx="451.795" cy="183.2" rx="2.427" ry="2.5" fill="url(#linear-gradient-103)"/>
      <ellipse cx="461.128" cy="183.2" rx="2.427" ry="2.5" fill="url(#linear-gradient-104)"/>
      <ellipse cx="470.462" cy="183.2" rx="2.427" ry="2.5" fill="url(#linear-gradient-105)"/>
      <ellipse cx="479.795" cy="183.2" rx="2.427" ry="2.5" fill="url(#linear-gradient-106)"/>
      <ellipse cx="489.128" cy="183.2" rx="2.427" ry="2.5" fill="url(#linear-gradient-107)"/>
      <ellipse cx="498.462" cy="183.2" rx="2.427" ry="2.5" fill="url(#linear-gradient-108)"/>
      <ellipse cx="507.795" cy="183.2" rx="2.427" ry="2.5" fill="url(#linear-gradient-109)"/>
      <ellipse cx="517.128" cy="183.2" rx="2.427" ry="2.5" fill="url(#linear-gradient-110)"/>
      <ellipse cx="526.462" cy="183.2" rx="2.427" ry="2.5" fill="url(#linear-gradient-111)"/>
      <ellipse cx="535.795" cy="183.2" rx="2.427" ry="2.5" fill="url(#linear-gradient-112)"/>
    </g>
    <line x1="52.48" y1="139.054" x2="52.48" y2="100.201" fill="none" stroke="#000"/>
    <line x1="452.48" y1="139.054" x2="452.48" y2="100.201" fill="none" stroke="#000"/>
    <polyline points="408.515 20.067 495.39 20.067 515.39 31.004" fill="none" stroke="#000"/>
    <polyline points="144.5 31.004 164.5 20.067 250.293 20.067" fill="none" stroke="#000"/>
    <g>
      <line x1="129.842" y1="75.201" x2="129.842" y2="93.466" fill="none" stroke="#3c3c41" stroke-miterlimit="10"/>
      <polygon points="126.102 92.372 129.842 98.848 133.581 92.372 126.102 92.372" fill="#3c3c41"/>
    </g>
    <g>
      <line x1="350.842" y1="145.201" x2="350.842" y2="163.466" fill="none" stroke="#3c3c41" stroke-miterlimit="10"/>
      <polygon points="347.102 162.372 350.842 168.848 354.581 162.372 347.102 162.372" fill="#3c3c41"/>
    </g>
    <g>
      <line x1="365.842" y1="145.201" x2="365.842" y2="163.466" fill="none" stroke="#3c3c41" stroke-miterlimit="10"/>
      <polygon points="362.102 162.372 365.842 168.848 369.581 162.372 362.102 162.372" fill="#3c3c41"/>
    </g>
    <line x1="345.527" y1="139.054" x2="345.527" y2="100.201" fill="none" stroke="#000"/>
    <line x1="373.527" y1="139.054" x2="373.527" y2="100.201" fill="none" stroke="#000"/>
    <line x1="359.527" y1="139.054" x2="359.527" y2="100.201" fill="none" stroke="#000"/>
    <line x1="119.866" y1="70.067" x2="119.866" y2="20.067" fill="none" stroke="#000"/>
    <line x1="139.866" y1="70.067" x2="139.866" y2="20.067" fill="none" stroke="#000"/>
  </g>
  <g id="Text">
    <g>
      <path d="M188.145,203.8q0,3.539-3.193,3.539-3.058,0-3.059-3.4V198.8h.985v5.074q0,2.584,2.179,2.584,2.1,0,2.1-2.5V198.8h.984Z" fill="#1e1e1e"/>
      <path d="M195.44,204.1h-2.368v2.361h-.779V204.1h-2.361v-.785h2.361v-2.362h.779v2.362h2.368Z" fill="#1e1e1e"/>
      <path d="M197.3,207.2v-8.4h2.321q4.442,0,4.441,4.1a4.128,4.128,0,0,1-1.233,3.126,4.577,4.577,0,0,1-3.3,1.18Zm.985-7.511v6.621h1.254a3.558,3.558,0,0,0,2.572-.885,3.318,3.318,0,0,0,.92-2.508q0-3.228-3.434-3.228Z" fill="#1e1e1e"/>
      <path d="M205.085,204.857a2.241,2.241,0,0,1,.1-.671,2.406,2.406,0,0,1,.3-.63,2.511,2.511,0,0,1,.486-.533,2.324,2.324,0,0,1,.659-.381,2.5,2.5,0,0,1-.867-.782,1.85,1.85,0,0,1-.322-1.058,2.021,2.021,0,0,1,.179-.855,2.052,2.052,0,0,1,.5-.68,2.272,2.272,0,0,1,.75-.448,2.787,2.787,0,0,1,1.881,0,2.313,2.313,0,0,1,.75.451,2.036,2.036,0,0,1,.492.679,2.06,2.06,0,0,1,.176.85,1.851,1.851,0,0,1-.323,1.058,2.528,2.528,0,0,1-.855.782,2.3,2.3,0,0,1,.65.381,2.528,2.528,0,0,1,.484.533,2.435,2.435,0,0,1,.3.63,2.211,2.211,0,0,1,.106.671,2.512,2.512,0,0,1-.2,1.008,2.266,2.266,0,0,1-.56.782,2.591,2.591,0,0,1-.861.507,3.222,3.222,0,0,1-1.1.181,3.186,3.186,0,0,1-1.1-.181,2.632,2.632,0,0,1-.861-.507,2.266,2.266,0,0,1-.565-.782A2.463,2.463,0,0,1,205.085,204.857Zm1.043-.082a1.99,1.99,0,0,0,.12.709,1.525,1.525,0,0,0,.34.539,1.482,1.482,0,0,0,.533.342,1.9,1.9,0,0,0,.694.121,1.832,1.832,0,0,0,.68-.123,1.6,1.6,0,0,0,.536-.346,1.563,1.563,0,0,0,.351-.539,1.888,1.888,0,0,0,.126-.7,1.8,1.8,0,0,0-.12-.66,1.663,1.663,0,0,0-.342-.542,1.625,1.625,0,0,0-.534-.369,1.865,1.865,0,0,0-1.368-.008,1.606,1.606,0,0,0-.533.351,1.642,1.642,0,0,0-.355.539A1.814,1.814,0,0,0,206.128,204.775Zm.3-3.9a1.408,1.408,0,0,0,.109.554,1.4,1.4,0,0,0,.741.744,1.389,1.389,0,0,0,1.081,0,1.394,1.394,0,0,0,.442-.3,1.457,1.457,0,0,0,.3-.445,1.36,1.36,0,0,0,.112-.548,1.44,1.44,0,0,0-.109-.562,1.374,1.374,0,0,0-.3-.446,1.441,1.441,0,0,0-1.555-.293,1.379,1.379,0,0,0-.44.3,1.321,1.321,0,0,0-.284.448A1.527,1.527,0,0,0,206.426,200.878Z" fill="#1e1e1e"/>
      <path d="M217.088,202.964a8.249,8.249,0,0,1-.191,1.869,4.337,4.337,0,0,1-.551,1.374,2.479,2.479,0,0,1-.884.85,2.43,2.43,0,0,1-1.193.29,2.267,2.267,0,0,1-1.128-.278,2.369,2.369,0,0,1-.835-.812,4.119,4.119,0,0,1-.515-1.309,8.056,8.056,0,0,1-.176-1.779,9.168,9.168,0,0,1,.184-1.945,4.451,4.451,0,0,1,.542-1.415,2.417,2.417,0,0,1,.888-.861,2.488,2.488,0,0,1,1.216-.291Q217.088,198.657,217.088,202.964Zm-.985.094q0-3.587-1.705-3.586-1.8,0-1.8,3.65,0,3.4,1.764,3.4Q216.1,206.527,216.1,203.058Z" fill="#1e1e1e"/>
      <path d="M223.782,202.964a8.249,8.249,0,0,1-.191,1.869,4.361,4.361,0,0,1-.55,1.374,2.489,2.489,0,0,1-.885.85,2.428,2.428,0,0,1-1.193.29,2.266,2.266,0,0,1-1.127-.278,2.353,2.353,0,0,1-.835-.812,4.1,4.1,0,0,1-.516-1.309,8.117,8.117,0,0,1-.176-1.779,9.163,9.163,0,0,1,.185-1.945,4.428,4.428,0,0,1,.542-1.415,2.407,2.407,0,0,1,.887-.861,2.488,2.488,0,0,1,1.216-.291Q223.782,198.657,223.782,202.964Zm-.985.094q0-3.587-1.7-3.586-1.8,0-1.8,3.65,0,3.4,1.763,3.4Q222.8,206.527,222.8,203.058Z" fill="#1e1e1e"/>
    </g>
    <g>
      <path d="M316.332,203.8q0,3.539-3.194,3.539-3.058,0-3.058-3.4V198.8h.984v5.074q0,2.584,2.18,2.584,2.1,0,2.1-2.5V198.8h.985Z" fill="#1e1e1e"/>
      <path d="M323.627,204.1h-2.368v2.361h-.779V204.1h-2.361v-.785h2.361v-2.362h.779v2.362h2.368Z" fill="#1e1e1e"/>
      <path d="M325.489,207.2v-8.4h2.32q4.441,0,4.442,4.1a4.128,4.128,0,0,1-1.234,3.126,4.575,4.575,0,0,1-3.3,1.18Zm.984-7.511v6.621h1.254a3.556,3.556,0,0,0,2.572-.885,3.315,3.315,0,0,0,.92-2.508q0-3.228-3.433-3.228Z" fill="#1e1e1e"/>
      <path d="M333.846,207.2v-8.4h2.391a2.614,2.614,0,0,1,1.728.533,1.725,1.725,0,0,1,.639,1.389,2.04,2.04,0,0,1-.387,1.242,2.076,2.076,0,0,1-1.066.75v.024a2.135,2.135,0,0,1,1.359.641,1.974,1.974,0,0,1,.51,1.409,2.2,2.2,0,0,1-.773,1.746,2.876,2.876,0,0,1-1.951.668Zm.985-7.511V202.4h1.007a1.913,1.913,0,0,0,1.272-.39,1.356,1.356,0,0,0,.463-1.1q0-1.224-1.611-1.224Zm0,3.6v3.024h1.336a2,2,0,0,0,1.344-.41,1.4,1.4,0,0,0,.478-1.125q0-1.489-2.027-1.489Z" fill="#1e1e1e"/>
      <path d="M344.9,199.689h-3.281V202.6h3.035v.885h-3.035v3.72h-.985v-8.4H344.9Z" fill="#1e1e1e"/>
      <path d="M350.514,199.689h-3.281V202.6h3.035v.885h-3.035v3.72h-.984v-8.4h4.265Z" fill="#1e1e1e"/>
    </g>
    <g>
      <path d="M197.441,187.2h-1.9v-3.421h-3.48V187.2h-1.893v-8.4h1.893v3.352h3.48V178.8h1.9Z" fill="#fff"/>
      <path d="M200.061,180.249a1.083,1.083,0,0,1-.768-.278.9.9,0,0,1-.3-.683.864.864,0,0,1,.3-.679,1.252,1.252,0,0,1,1.538,0,.868.868,0,0,1,.3.679.9.9,0,0,1-.3.692A1.1,1.1,0,0,1,200.061,180.249Zm.914,6.949h-1.852v-6h1.852Z" fill="#fff"/>
      <path d="M208.416,186.513a3.393,3.393,0,0,1-.967,2.587,3.918,3.918,0,0,1-2.8.917,4.429,4.429,0,0,1-1.922-.346v-1.558a3.683,3.683,0,0,0,1.869.539,2.01,2.01,0,0,0,1.453-.5,1.775,1.775,0,0,0,.516-1.344v-.475h-.024a2.068,2.068,0,0,1-1.869,1.008,2.247,2.247,0,0,1-1.822-.809,3.273,3.273,0,0,1-.674-2.168,3.654,3.654,0,0,1,.75-2.42,2.449,2.449,0,0,1,1.974-.9,1.821,1.821,0,0,1,1.641.844h.024v-.7h1.851Zm-1.828-2.2v-.475a1.458,1.458,0,0,0-.337-.97,1.092,1.092,0,0,0-.876-.4,1.134,1.134,0,0,0-.967.48,2.265,2.265,0,0,0-.351,1.354,1.9,1.9,0,0,0,.334,1.186,1.088,1.088,0,0,0,.914.437,1.13,1.13,0,0,0,.928-.442A1.811,1.811,0,0,0,206.588,184.316Z" fill="#fff"/>
      <path d="M215.7,187.2H213.85v-3.41q0-1.319-.961-1.318a.984.984,0,0,0-.8.369,1.426,1.426,0,0,0-.305.938V187.2h-1.851v-8.882h1.851v3.773h.024a2.1,2.1,0,0,1,1.845-1.037q2.04,0,2.039,2.461Z" fill="#fff"/>
      <path d="M220.078,187.04v-1.5a3.908,3.908,0,0,0,.911.41,3.019,3.019,0,0,0,.859.135,1.835,1.835,0,0,0,.776-.135.433.433,0,0,0,.284-.41.38.38,0,0,0-.129-.293,1.208,1.208,0,0,0-.331-.205,3.843,3.843,0,0,0-.442-.158q-.24-.071-.463-.158a4.547,4.547,0,0,1-.63-.29,1.838,1.838,0,0,1-.457-.361,1.4,1.4,0,0,1-.281-.474,1.884,1.884,0,0,1-.1-.639,1.638,1.638,0,0,1,.22-.867,1.8,1.8,0,0,1,.586-.595,2.7,2.7,0,0,1,.838-.34,4.376,4.376,0,0,1,.981-.108,5.456,5.456,0,0,1,.809.062,6.035,6.035,0,0,1,.808.178v1.43a2.924,2.924,0,0,0-.753-.308,3.187,3.187,0,0,0-.788-.1,1.774,1.774,0,0,0-.342.032,1.109,1.109,0,0,0-.285.094.516.516,0,0,0-.193.158.363.363,0,0,0-.07.22.407.407,0,0,0,.1.281.927.927,0,0,0,.276.2,2.656,2.656,0,0,0,.378.152c.138.045.276.091.413.138a5.527,5.527,0,0,1,.668.281,2.13,2.13,0,0,1,.512.358,1.4,1.4,0,0,1,.328.48,1.917,1.917,0,0,1-.117,1.568,1.845,1.845,0,0,1-.615.615,2.815,2.815,0,0,1-.885.346,4.918,4.918,0,0,1-1.04.108A5.367,5.367,0,0,1,220.078,187.04Z" fill="#fff"/>
      <path d="M231.512,187.2h-1.845v-.914h-.03a2.094,2.094,0,0,1-1.834,1.061q-2.085,0-2.086-2.525V181.2h1.846v3.458q0,1.27,1.008,1.271a1,1,0,0,0,.8-.349,1.4,1.4,0,0,0,.3-.946V181.2h1.845Z" fill="#fff"/>
      <path d="M236.952,182.868a1.6,1.6,0,0,0-.779-.181,1.121,1.121,0,0,0-.943.442,1.927,1.927,0,0,0-.34,1.2V187.2h-1.852v-6h1.852v1.114h.023a1.6,1.6,0,0,1,1.582-1.219,1.187,1.187,0,0,1,.457.07Z" fill="#fff"/>
      <path d="M241.728,182.868a1.61,1.61,0,0,0-.78-.181,1.123,1.123,0,0,0-.943.442,1.927,1.927,0,0,0-.34,1.2V187.2h-1.851v-6h1.851v1.114h.024a1.6,1.6,0,0,1,1.582-1.219,1.194,1.194,0,0,1,.457.07Z" fill="#fff"/>
      <path d="M245.53,187.345a3.222,3.222,0,0,1-2.358-.841,3.478,3.478,0,0,1,.032-4.611,3.364,3.364,0,0,1,2.408-.841,3.185,3.185,0,0,1,2.344.841,2.986,2.986,0,0,1,.85,2.223,3.173,3.173,0,0,1-.876,2.362A3.262,3.262,0,0,1,245.53,187.345Zm.047-4.875a1.234,1.234,0,0,0-1.019.451,1.992,1.992,0,0,0-.364,1.277q0,1.73,1.4,1.729,1.331,0,1.33-1.775Q246.919,182.471,245.577,182.47Z" fill="#fff"/>
      <path d="M255.919,186.513a3.4,3.4,0,0,1-.967,2.587,3.92,3.92,0,0,1-2.8.917,4.432,4.432,0,0,1-1.922-.346v-1.558a3.683,3.683,0,0,0,1.869.539,2.008,2.008,0,0,0,1.453-.5,1.775,1.775,0,0,0,.516-1.344v-.475h-.023a2.068,2.068,0,0,1-1.87,1.008,2.249,2.249,0,0,1-1.822-.809,3.279,3.279,0,0,1-.674-2.168,3.654,3.654,0,0,1,.75-2.42,2.451,2.451,0,0,1,1.975-.9,1.823,1.823,0,0,1,1.641.844h.023v-.7h1.852Zm-1.829-2.2v-.475a1.462,1.462,0,0,0-.336-.97,1.092,1.092,0,0,0-.876-.4,1.132,1.132,0,0,0-.967.48,2.258,2.258,0,0,0-.352,1.354,1.91,1.91,0,0,0,.334,1.186,1.09,1.09,0,0,0,.914.437,1.132,1.132,0,0,0,.929-.442A1.817,1.817,0,0,0,254.09,184.316Z" fill="#fff"/>
      <path d="M262.478,187.2h-1.752v-.861H260.7a1.955,1.955,0,0,1-1.787,1.008,1.87,1.87,0,0,1-1.374-.5,1.774,1.774,0,0,1-.5-1.321q0-1.746,2.068-2.016l1.629-.217q0-.984-1.066-.984a3.643,3.643,0,0,0-2.039.638v-1.394a4.592,4.592,0,0,1,1.058-.352,5.585,5.585,0,0,1,1.221-.152,2.267,2.267,0,0,1,2.567,2.561Zm-1.741-2.437v-.4l-1.089.14q-.9.117-.9.815a.669.669,0,0,0,.22.518.843.843,0,0,0,.6.2,1.1,1.1,0,0,0,.849-.36A1.3,1.3,0,0,0,260.737,184.761Z" fill="#fff"/>
      <path d="M267.482,187.128a2.729,2.729,0,0,1-1.236.217q-1.957,0-1.957-2.033v-2.748h-.973V181.2h.973V179.9l1.845-.528V181.2h1.348v1.366h-1.348v2.426q0,.938.745.937a1.257,1.257,0,0,0,.6-.17Z" fill="#fff"/>
      <path d="M273.907,184.726h-3.914q.094,1.307,1.647,1.306a3.218,3.218,0,0,0,1.74-.468V186.9a4.57,4.57,0,0,1-2.162.445,2.793,2.793,0,0,1-3.059-3.053,3.211,3.211,0,0,1,.867-2.367,2.892,2.892,0,0,1,2.133-.873,2.626,2.626,0,0,1,2.031.779,3.005,3.005,0,0,1,.717,2.116Zm-1.716-1.137q0-1.288-1.043-1.289a1,1,0,0,0-.771.369,1.668,1.668,0,0,0-.395.92Z" fill="#fff"/>
      <path d="M282.866,186.982a3.661,3.661,0,0,1-1.81.363,3.063,3.063,0,0,1-2.239-.838,2.9,2.9,0,0,1-.855-2.162,3.188,3.188,0,0,1,.917-2.411,3.388,3.388,0,0,1,2.452-.882,3.151,3.151,0,0,1,1.535.281V182.9a2.109,2.109,0,0,0-1.295-.434,1.7,1.7,0,0,0-1.262.466,1.735,1.735,0,0,0-.466,1.286,1.71,1.71,0,0,0,.445,1.251,1.636,1.636,0,0,0,1.225.454,2.442,2.442,0,0,0,1.353-.434Z" fill="#fff"/>
      <path d="M286.93,187.345a3.222,3.222,0,0,1-2.358-.841,3.475,3.475,0,0,1,.032-4.611,3.364,3.364,0,0,1,2.408-.841,3.185,3.185,0,0,1,2.344.841,2.99,2.99,0,0,1,.85,2.223,3.173,3.173,0,0,1-.876,2.362A3.262,3.262,0,0,1,286.93,187.345Zm.047-4.875a1.234,1.234,0,0,0-1.019.451,1.986,1.986,0,0,0-.364,1.277q0,1.73,1.395,1.729,1.33,0,1.33-1.775Q288.319,182.471,286.977,182.47Z" fill="#fff"/>
      <path d="M297.306,187.2h-1.851v-.826h-.024a2.075,2.075,0,0,1-1.857.973,2.277,2.277,0,0,1-1.811-.794,3.287,3.287,0,0,1-.685-2.218,3.578,3.578,0,0,1,.756-2.385,2.467,2.467,0,0,1,1.98-.9,1.683,1.683,0,0,1,1.617.832h.024v-3.568h1.851Zm-1.816-2.917v-.452a1.417,1.417,0,0,0-.34-.972,1.2,1.2,0,0,0-1.846.1,2.252,2.252,0,0,0-.345,1.328,1.938,1.938,0,0,0,.334,1.218,1.186,1.186,0,0,0,1.843-.023A1.876,1.876,0,0,0,295.49,184.281Z" fill="#fff"/>
      <path d="M304.255,184.726h-3.914q.094,1.307,1.647,1.306a3.218,3.218,0,0,0,1.74-.468V186.9a4.57,4.57,0,0,1-2.162.445,2.793,2.793,0,0,1-3.059-3.053,3.208,3.208,0,0,1,.868-2.367,2.888,2.888,0,0,1,2.132-.873,2.629,2.629,0,0,1,2.032.779,3,3,0,0,1,.716,2.116Zm-1.716-1.137q0-1.288-1.043-1.289a1,1,0,0,0-.77.369,1.676,1.676,0,0,0-.4.92Z" fill="#fff"/>
      <path d="M310.543,186.5h-.024v3.457h-1.851V181.2h1.851v.9h.024a2.356,2.356,0,0,1,3.73-.249,3.4,3.4,0,0,1,.635,2.177,3.692,3.692,0,0,1-.74,2.408,2.422,2.422,0,0,1-1.973.908A1.865,1.865,0,0,1,310.543,186.5Zm-.053-2.461v.481a1.523,1.523,0,0,0,.328,1.013,1.068,1.068,0,0,0,.861.393,1.139,1.139,0,0,0,.983-.489,2.366,2.366,0,0,0,.347-1.386q0-1.582-1.23-1.582a1.154,1.154,0,0,0-.928.431A1.718,1.718,0,0,0,310.49,184.04Z" fill="#fff"/>
      <path d="M319.017,187.345a3.22,3.22,0,0,1-2.357-.841,3.474,3.474,0,0,1,.031-4.611,3.364,3.364,0,0,1,2.408-.841,3.185,3.185,0,0,1,2.344.841,2.99,2.99,0,0,1,.85,2.223,3.172,3.172,0,0,1-.875,2.362A3.265,3.265,0,0,1,319.017,187.345Zm.047-4.875a1.234,1.234,0,0,0-1.019.451,1.986,1.986,0,0,0-.364,1.277q0,1.73,1.4,1.729,1.331,0,1.33-1.775Q320.406,182.471,319.064,182.47Z" fill="#fff"/>
      <path d="M324.4,180.249a1.087,1.087,0,0,1-.768-.278.9.9,0,0,1-.3-.683.863.863,0,0,1,.3-.679,1.253,1.253,0,0,1,1.539,0,.867.867,0,0,1,.3.679.894.894,0,0,1-.3.692A1.106,1.106,0,0,1,324.4,180.249Zm.914,6.949H323.46v-6h1.851Z" fill="#fff"/>
      <path d="M332.643,187.2H330.8v-3.333q0-1.4-1-1.4a.989.989,0,0,0-.791.369,1.407,1.407,0,0,0-.31.938V187.2h-1.852v-6H328.7v.95h.023a2.122,2.122,0,0,1,1.928-1.1q1.992,0,1.992,2.473Z" fill="#fff"/>
      <path d="M337.667,187.128a2.734,2.734,0,0,1-1.237.217q-1.956,0-1.957-2.033v-2.748H333.5V181.2h.972V179.9l1.846-.528V181.2h1.348v1.366h-1.348v2.426q0,.938.744.937a1.26,1.26,0,0,0,.6-.17Z" fill="#fff"/>
      <path d="M338.516,187.04v-1.5a3.908,3.908,0,0,0,.911.41,3.019,3.019,0,0,0,.859.135,1.835,1.835,0,0,0,.776-.135.433.433,0,0,0,.284-.41.38.38,0,0,0-.129-.293,1.208,1.208,0,0,0-.331-.205,3.843,3.843,0,0,0-.442-.158c-.16-.047-.315-.1-.463-.158a4.547,4.547,0,0,1-.63-.29,1.838,1.838,0,0,1-.457-.361,1.4,1.4,0,0,1-.281-.474,1.884,1.884,0,0,1-.1-.639,1.638,1.638,0,0,1,.22-.867,1.8,1.8,0,0,1,.586-.595,2.7,2.7,0,0,1,.838-.34,4.376,4.376,0,0,1,.981-.108,5.456,5.456,0,0,1,.809.062,6.035,6.035,0,0,1,.808.178v1.43a2.924,2.924,0,0,0-.753-.308,3.187,3.187,0,0,0-.788-.1,1.774,1.774,0,0,0-.342.032,1.109,1.109,0,0,0-.285.094.516.516,0,0,0-.193.158.363.363,0,0,0-.07.22.407.407,0,0,0,.105.281.927.927,0,0,0,.276.2,2.656,2.656,0,0,0,.378.152c.138.045.276.091.413.138a5.527,5.527,0,0,1,.668.281,2.13,2.13,0,0,1,.512.358,1.4,1.4,0,0,1,.328.48,1.917,1.917,0,0,1-.117,1.568,1.845,1.845,0,0,1-.615.615,2.815,2.815,0,0,1-.885.346,4.918,4.918,0,0,1-1.04.108A5.367,5.367,0,0,1,338.516,187.04Z" fill="#fff"/>
    </g>
    <g>
      <path d="M375.612,203.8q0,3.539-3.193,3.539-3.06,0-3.059-3.4V198.8h.984v5.074q0,2.584,2.18,2.584,2.1,0,2.1-2.5V198.8h.984Z" fill="#1e1e1e"/>
      <path d="M382.907,204.1H380.54v2.361h-.78V204.1H377.4v-.785h2.361v-2.362h.78v2.362h2.367Z" fill="#1e1e1e"/>
      <path d="M384.769,207.2v-8.4h2.32q4.442,0,4.442,4.1a4.125,4.125,0,0,1-1.234,3.126,4.573,4.573,0,0,1-3.3,1.18Zm.985-7.511v6.621h1.253a3.56,3.56,0,0,0,2.573-.885,3.318,3.318,0,0,0,.92-2.508q0-3.228-3.434-3.228Z" fill="#1e1e1e"/>
      <path d="M398.9,206.849a4.93,4.93,0,0,1-2.32.492,3.741,3.741,0,0,1-2.871-1.154,4.261,4.261,0,0,1-1.079-3.03,4.466,4.466,0,0,1,1.213-3.257,4.118,4.118,0,0,1,3.076-1.243A4.941,4.941,0,0,1,398.9,199v1.049a4.018,4.018,0,0,0-1.992-.5,3.057,3.057,0,0,0-2.347.967,3.64,3.64,0,0,0-.9,2.584,3.467,3.467,0,0,0,.84,2.446,2.86,2.86,0,0,0,2.207.911,4.138,4.138,0,0,0,2.191-.562Z" fill="#1e1e1e"/>
      <path d="M405.258,202.964a8.253,8.253,0,0,1-.19,1.869,4.361,4.361,0,0,1-.551,1.374,2.473,2.473,0,0,1-.885.85,2.424,2.424,0,0,1-1.192.29,2.267,2.267,0,0,1-1.128-.278,2.369,2.369,0,0,1-.835-.812,4.119,4.119,0,0,1-.515-1.309,8.056,8.056,0,0,1-.176-1.779,9.168,9.168,0,0,1,.184-1.945,4.451,4.451,0,0,1,.542-1.415,2.41,2.41,0,0,1,.888-.861,2.488,2.488,0,0,1,1.216-.291Q405.259,198.657,405.258,202.964Zm-.984.094q0-3.587-1.7-3.586-1.8,0-1.8,3.65,0,3.4,1.764,3.4Q404.274,206.527,404.274,203.058Z" fill="#1e1e1e"/>
      <path d="M411.953,202.964a8.249,8.249,0,0,1-.191,1.869,4.361,4.361,0,0,1-.55,1.374,2.489,2.489,0,0,1-.885.85,2.428,2.428,0,0,1-1.193.29,2.272,2.272,0,0,1-1.128-.278,2.369,2.369,0,0,1-.835-.812,4.119,4.119,0,0,1-.515-1.309,8.117,8.117,0,0,1-.176-1.779,9.163,9.163,0,0,1,.185-1.945,4.428,4.428,0,0,1,.542-1.415,2.407,2.407,0,0,1,.887-.861,2.488,2.488,0,0,1,1.216-.291Q411.953,198.657,411.953,202.964Zm-.985.094q0-3.587-1.705-3.586-1.8,0-1.8,3.65,0,3.4,1.764,3.4Q410.968,206.527,410.968,203.058Z" fill="#1e1e1e"/>
    </g>
    <g>
      <path d="M504.727,203.8q0,3.539-3.193,3.539-3.058,0-3.059-3.4V198.8h.985v5.074q0,2.584,2.179,2.584,2.1,0,2.1-2.5V198.8h.984Z" fill="#1e1e1e"/>
      <path d="M512.022,204.1h-2.367v2.361h-.779V204.1h-2.362v-.785h2.362v-2.362h.779v2.362h2.367Z" fill="#1e1e1e"/>
      <path d="M513.884,207.2v-8.4h2.321q4.442,0,4.441,4.1a4.128,4.128,0,0,1-1.233,3.126,4.577,4.577,0,0,1-3.3,1.18Zm.985-7.511v6.621h1.254a3.558,3.558,0,0,0,2.572-.885,3.318,3.318,0,0,0,.92-2.508q0-3.228-3.434-3.228Z" fill="#1e1e1e"/>
      <path d="M526.507,199.689h-3.281V202.6h3.035v.885h-3.035v3.72h-.984v-8.4h4.265Z" fill="#1e1e1e"/>
      <path d="M532.119,199.689h-3.281V202.6h3.035v.885h-3.035v3.72h-.985v-8.4h4.266Z" fill="#1e1e1e"/>
      <path d="M537.73,199.689h-3.281V202.6h3.035v.885h-3.035v3.72h-.985v-8.4h4.266Z" fill="#1e1e1e"/>
    </g>
    <g>
      <path d="M383.463,187.2h-5v-8.4h1.892v6.867h3.112Z" fill="#fff"/>
      <path d="M387.3,187.345a3.222,3.222,0,0,1-2.358-.841,3.478,3.478,0,0,1,.032-4.611,3.365,3.365,0,0,1,2.409-.841,3.182,3.182,0,0,1,2.343.841,2.986,2.986,0,0,1,.85,2.223,3.173,3.173,0,0,1-.876,2.362A3.262,3.262,0,0,1,387.3,187.345Zm.047-4.875a1.234,1.234,0,0,0-1.019.451,1.991,1.991,0,0,0-.363,1.277q0,1.73,1.394,1.729,1.331,0,1.33-1.775Q388.685,182.471,387.343,182.47Z" fill="#fff"/>
      <path d="M400.334,181.2l-1.729,6H396.66l-.885-3.515a3.569,3.569,0,0,1-.1-.768h-.035a4.519,4.519,0,0,1-.117.744l-.949,3.539h-1.922l-1.693-6h1.886l.826,3.915a4.831,4.831,0,0,1,.088.668h.036a3.648,3.648,0,0,1,.1-.692l1.031-3.891H396.7l.926,3.915a6.529,6.529,0,0,1,.082.679h.041a6.593,6.593,0,0,1,.094-.679l.779-3.915Z" fill="#fff"/>
      <path d="M404.13,187.04v-1.5a3.9,3.9,0,0,0,.912.41,3.007,3.007,0,0,0,.858.135,1.835,1.835,0,0,0,.776-.135.434.434,0,0,0,.285-.41.38.38,0,0,0-.129-.293,1.223,1.223,0,0,0-.331-.205,3.93,3.93,0,0,0-.443-.158q-.24-.071-.463-.158a4.547,4.547,0,0,1-.63-.29,1.838,1.838,0,0,1-.457-.361,1.413,1.413,0,0,1-.281-.474,1.909,1.909,0,0,1-.1-.639,1.647,1.647,0,0,1,.22-.867,1.81,1.81,0,0,1,.586-.595,2.706,2.706,0,0,1,.838-.34,4.383,4.383,0,0,1,.981-.108,5.446,5.446,0,0,1,.809.062,6.049,6.049,0,0,1,.809.178v1.43a2.954,2.954,0,0,0-.753-.308,3.2,3.2,0,0,0-.788-.1,1.784,1.784,0,0,0-.343.032,1.1,1.1,0,0,0-.284.094.52.52,0,0,0-.194.158.363.363,0,0,0-.07.22.407.407,0,0,0,.105.281.94.94,0,0,0,.276.2,2.656,2.656,0,0,0,.378.152c.138.045.276.091.413.138a5.46,5.46,0,0,1,.668.281,2.157,2.157,0,0,1,.513.358,1.416,1.416,0,0,1,.328.48,1.923,1.923,0,0,1-.118,1.568,1.845,1.845,0,0,1-.615.615,2.815,2.815,0,0,1-.885.346,4.911,4.911,0,0,1-1.04.108A5.367,5.367,0,0,1,404.13,187.04Z" fill="#fff"/>
      <path d="M415.565,187.2h-1.846v-.914h-.029a2.094,2.094,0,0,1-1.834,1.061q-2.087,0-2.086-2.525V181.2h1.846v3.458q0,1.27,1.008,1.271a1,1,0,0,0,.8-.349,1.4,1.4,0,0,0,.3-.946V181.2h1.846Z" fill="#fff"/>
      <path d="M421.005,182.868a1.6,1.6,0,0,0-.779-.181,1.121,1.121,0,0,0-.943.442,1.927,1.927,0,0,0-.34,1.2V187.2h-1.852v-6h1.852v1.114h.023a1.6,1.6,0,0,1,1.582-1.219,1.187,1.187,0,0,1,.457.07Z" fill="#fff"/>
      <path d="M425.781,182.868a1.609,1.609,0,0,0-.779-.181,1.123,1.123,0,0,0-.944.442,1.933,1.933,0,0,0-.34,1.2V187.2h-1.851v-6h1.851v1.114h.024a1.6,1.6,0,0,1,1.582-1.219,1.194,1.194,0,0,1,.457.07Z" fill="#fff"/>
      <path d="M429.583,187.345a3.225,3.225,0,0,1-2.359-.841,3.478,3.478,0,0,1,.032-4.611,3.365,3.365,0,0,1,2.409-.841,3.182,3.182,0,0,1,2.343.841,2.986,2.986,0,0,1,.85,2.223,3.173,3.173,0,0,1-.876,2.362A3.262,3.262,0,0,1,429.583,187.345Zm.046-4.875a1.234,1.234,0,0,0-1.019.451,1.991,1.991,0,0,0-.363,1.277q0,1.73,1.394,1.729,1.33,0,1.33-1.775Q430.971,182.471,429.629,182.47Z" fill="#fff"/>
      <path d="M439.971,186.513A3.393,3.393,0,0,1,439,189.1a3.918,3.918,0,0,1-2.8.917,4.429,4.429,0,0,1-1.922-.346v-1.558a3.683,3.683,0,0,0,1.869.539,2.01,2.01,0,0,0,1.453-.5,1.775,1.775,0,0,0,.516-1.344v-.475H438.1a2.068,2.068,0,0,1-1.869,1.008,2.249,2.249,0,0,1-1.822-.809,3.279,3.279,0,0,1-.674-2.168,3.654,3.654,0,0,1,.75-2.42,2.45,2.45,0,0,1,1.975-.9,1.82,1.82,0,0,1,1.64.844h.024v-.7h1.851Zm-1.828-2.2v-.475a1.458,1.458,0,0,0-.337-.97,1.089,1.089,0,0,0-.876-.4,1.134,1.134,0,0,0-.967.48,2.265,2.265,0,0,0-.351,1.354,1.9,1.9,0,0,0,.334,1.186,1.089,1.089,0,0,0,.914.437,1.134,1.134,0,0,0,.929-.442A1.817,1.817,0,0,0,438.143,184.316Z" fill="#fff"/>
      <path d="M446.531,187.2h-1.752v-.861h-.024a1.955,1.955,0,0,1-1.787,1.008,1.87,1.87,0,0,1-1.374-.5,1.774,1.774,0,0,1-.5-1.321q0-1.746,2.069-2.016l1.629-.217q0-.984-1.067-.984a3.646,3.646,0,0,0-2.039.638v-1.394a4.609,4.609,0,0,1,1.058-.352,5.585,5.585,0,0,1,1.221-.152,2.267,2.267,0,0,1,2.567,2.561Zm-1.74-2.437v-.4l-1.09.14q-.9.117-.9.815a.673.673,0,0,0,.22.518.845.845,0,0,0,.6.2,1.1,1.1,0,0,0,.85-.36A1.3,1.3,0,0,0,444.791,184.761Z" fill="#fff"/>
      <path d="M451.535,187.128a2.734,2.734,0,0,1-1.237.217q-1.956,0-1.957-2.033v-2.748h-.972V181.2h.972V179.9l1.846-.528V181.2h1.348v1.366h-1.348v2.426q0,.938.744.937a1.257,1.257,0,0,0,.6-.17Z" fill="#fff"/>
      <path d="M457.96,184.726h-3.914q.093,1.307,1.646,1.306a3.218,3.218,0,0,0,1.74-.468V186.9a4.567,4.567,0,0,1-2.162.445,2.792,2.792,0,0,1-3.058-3.053,3.211,3.211,0,0,1,.867-2.367,2.889,2.889,0,0,1,2.133-.873,2.624,2.624,0,0,1,2.03.779,3.006,3.006,0,0,1,.718,2.116Zm-1.717-1.137q0-1.288-1.043-1.289a1,1,0,0,0-.771.369,1.682,1.682,0,0,0-.395.92Z" fill="#fff"/>
      <path d="M466.919,186.982a3.666,3.666,0,0,1-1.811.363,3.059,3.059,0,0,1-2.238-.838,2.892,2.892,0,0,1-.856-2.162,3.188,3.188,0,0,1,.917-2.411,3.39,3.39,0,0,1,2.452-.882,3.158,3.158,0,0,1,1.536.281V182.9a2.114,2.114,0,0,0-1.295-.434,1.7,1.7,0,0,0-1.263.466,1.735,1.735,0,0,0-.466,1.286,1.714,1.714,0,0,0,.445,1.251,1.637,1.637,0,0,0,1.225.454,2.448,2.448,0,0,0,1.354-.434Z" fill="#fff"/>
      <path d="M470.983,187.345a3.222,3.222,0,0,1-2.358-.841,3.475,3.475,0,0,1,.032-4.611,3.363,3.363,0,0,1,2.408-.841,3.186,3.186,0,0,1,2.344.841,2.989,2.989,0,0,1,.849,2.223,3.173,3.173,0,0,1-.876,2.362A3.26,3.26,0,0,1,470.983,187.345Zm.047-4.875a1.236,1.236,0,0,0-1.02.451,1.991,1.991,0,0,0-.363,1.277q0,1.73,1.395,1.729,1.329,0,1.33-1.775Q472.372,182.471,471.03,182.47Z" fill="#fff"/>
      <path d="M481.359,187.2h-1.852v-.826h-.023a2.075,2.075,0,0,1-1.857.973,2.277,2.277,0,0,1-1.811-.794,3.287,3.287,0,0,1-.686-2.218,3.578,3.578,0,0,1,.756-2.385,2.467,2.467,0,0,1,1.981-.9,1.685,1.685,0,0,1,1.617.832h.023v-3.568h1.852Zm-1.816-2.917v-.452a1.422,1.422,0,0,0-.34-.972,1.2,1.2,0,0,0-1.846.1,2.252,2.252,0,0,0-.346,1.328,1.945,1.945,0,0,0,.334,1.218,1.186,1.186,0,0,0,1.843-.023A1.882,1.882,0,0,0,479.543,184.281Z" fill="#fff"/>
      <path d="M488.308,184.726h-3.914q.094,1.307,1.647,1.306a3.218,3.218,0,0,0,1.74-.468V186.9a4.573,4.573,0,0,1-2.162.445,2.793,2.793,0,0,1-3.059-3.053,3.211,3.211,0,0,1,.867-2.367,2.889,2.889,0,0,1,2.133-.873,2.623,2.623,0,0,1,2.03.779,3,3,0,0,1,.718,2.116Zm-1.717-1.137q0-1.288-1.043-1.289a1,1,0,0,0-.77.369,1.676,1.676,0,0,0-.4.92Z" fill="#fff"/>
      <path d="M494.6,186.5h-.023v3.457H492.72V181.2h1.852v.9h.023a2.356,2.356,0,0,1,3.73-.249,3.4,3.4,0,0,1,.636,2.177,3.693,3.693,0,0,1-.742,2.408,2.417,2.417,0,0,1-1.971.908A1.868,1.868,0,0,1,494.6,186.5Zm-.052-2.461v.481a1.523,1.523,0,0,0,.328,1.013,1.067,1.067,0,0,0,.861.393,1.134,1.134,0,0,0,.981-.489,2.358,2.358,0,0,0,.349-1.386q0-1.582-1.23-1.582a1.156,1.156,0,0,0-.929.431A1.718,1.718,0,0,0,494.543,184.04Z" fill="#fff"/>
      <path d="M503.07,187.345a3.222,3.222,0,0,1-2.358-.841,3.475,3.475,0,0,1,.032-4.611,3.363,3.363,0,0,1,2.408-.841,3.186,3.186,0,0,1,2.344.841,2.989,2.989,0,0,1,.849,2.223,3.173,3.173,0,0,1-.876,2.362A3.26,3.26,0,0,1,503.07,187.345Zm.047-4.875a1.234,1.234,0,0,0-1.02.451,1.991,1.991,0,0,0-.363,1.277q0,1.73,1.4,1.729,1.329,0,1.33-1.775Q504.459,182.471,503.117,182.47Z" fill="#fff"/>
      <path d="M508.45,180.249a1.083,1.083,0,0,1-.768-.278.9.9,0,0,1-.3-.683.864.864,0,0,1,.3-.679,1.252,1.252,0,0,1,1.538,0,.864.864,0,0,1,.3.679.891.891,0,0,1-.3.692A1.1,1.1,0,0,1,508.45,180.249Zm.914,6.949h-1.852v-6h1.852Z" fill="#fff"/>
      <path d="M516.7,187.2H514.85v-3.333q0-1.4-1-1.4a.989.989,0,0,0-.791.369,1.407,1.407,0,0,0-.31.938V187.2H510.9v-6h1.852v.95h.023a2.121,2.121,0,0,1,1.928-1.1q1.992,0,1.992,2.473Z" fill="#fff"/>
      <path d="M521.719,187.128a2.727,2.727,0,0,1-1.236.217q-1.957,0-1.957-2.033v-2.748h-.973V181.2h.973V179.9l1.846-.528V181.2h1.347v1.366h-1.347v2.426q0,.938.744.937a1.257,1.257,0,0,0,.6-.17Z" fill="#fff"/>
      <path d="M522.569,187.04v-1.5a3.889,3.889,0,0,0,.911.41,3.018,3.018,0,0,0,.858.135,1.84,1.84,0,0,0,.777-.135.435.435,0,0,0,.284-.41.38.38,0,0,0-.129-.293,1.208,1.208,0,0,0-.331-.205,3.912,3.912,0,0,0-.442-.158c-.16-.047-.315-.1-.463-.158a4.547,4.547,0,0,1-.63-.29,1.82,1.82,0,0,1-.457-.361,1.4,1.4,0,0,1-.281-.474,1.884,1.884,0,0,1-.1-.639,1.638,1.638,0,0,1,.22-.867,1.791,1.791,0,0,1,.586-.595,2.7,2.7,0,0,1,.838-.34,4.376,4.376,0,0,1,.981-.108,5.456,5.456,0,0,1,.809.062,6.035,6.035,0,0,1,.808.178v1.43a2.924,2.924,0,0,0-.753-.308,3.187,3.187,0,0,0-.788-.1,1.792,1.792,0,0,0-.343.032,1.114,1.114,0,0,0-.284.094.516.516,0,0,0-.193.158.364.364,0,0,0-.071.22.408.408,0,0,0,.106.281.922.922,0,0,0,.275.2,2.755,2.755,0,0,0,.378.152c.139.045.277.091.413.138a5.46,5.46,0,0,1,.668.281,2.137,2.137,0,0,1,.513.358,1.4,1.4,0,0,1,.328.48,1.927,1.927,0,0,1-.117,1.568,1.845,1.845,0,0,1-.615.615,2.815,2.815,0,0,1-.885.346,4.925,4.925,0,0,1-1.04.108A5.363,5.363,0,0,1,522.569,187.04Z" fill="#fff"/>
    </g>
    <g>
      <path d="M119.884,15.067v-8.4h2.391A2.616,2.616,0,0,1,124,7.2a1.724,1.724,0,0,1,.638,1.389,2.044,2.044,0,0,1-.387,1.242,2.088,2.088,0,0,1-1.066.75V10.6a2.141,2.141,0,0,1,1.359.642,1.972,1.972,0,0,1,.51,1.409,2.2,2.2,0,0,1-.773,1.746,2.881,2.881,0,0,1-1.951.668Zm.985-7.512v2.713h1.008a1.917,1.917,0,0,0,1.271-.389,1.356,1.356,0,0,0,.463-1.1q0-1.224-1.611-1.225Zm0,3.6v3.024h1.336a2,2,0,0,0,1.344-.411,1.4,1.4,0,0,0,.478-1.125q0-1.488-2.027-1.488Z" fill="#1e1e1e"/>
      <path d="M135.242,15.067h-.979V9.43q0-.668.082-1.634h-.023a5.262,5.262,0,0,1-.252.814L131.2,15.067h-.481l-2.865-6.41A5.059,5.059,0,0,1,127.6,7.8h-.023q.046.5.047,1.646v5.625h-.95v-8.4h1.3l2.578,5.859a7.433,7.433,0,0,1,.387,1.008h.035q.252-.692.4-1.031l2.631-5.836h1.231Z" fill="#1e1e1e"/>
      <path d="M138.315,11.891v3.176h-.984v-8.4h2.308a3.049,3.049,0,0,1,2.089.656,2.345,2.345,0,0,1,.741,1.852,2.547,2.547,0,0,1-.823,1.957,3.149,3.149,0,0,1-2.224.761Zm0-4.336V11h1.031a2.308,2.308,0,0,0,1.556-.466,1.651,1.651,0,0,0,.536-1.316q0-1.663-1.969-1.664Z" fill="#1e1e1e"/>
    </g>
    <g>
      <path d="M81.616,64.8q0,3.54-3.194,3.54-3.059,0-3.058-3.405V59.8h.984v5.074q0,2.583,2.18,2.584,2.1,0,2.1-2.5V59.8h.985Z" fill="#1e1e1e"/>
      <path d="M88.91,65.1H86.543v2.362h-.78V65.1H83.4V64.31h2.361V61.949h.78V64.31H88.91Z" fill="#1e1e1e"/>
      <path d="M95.855,63.965a8.253,8.253,0,0,1-.19,1.869,4.361,4.361,0,0,1-.551,1.374,2.47,2.47,0,0,1-.885.849,2.416,2.416,0,0,1-1.192.29,2.257,2.257,0,0,1-1.128-.278,2.358,2.358,0,0,1-.835-.811,4.1,4.1,0,0,1-.516-1.31,8.108,8.108,0,0,1-.176-1.778,9.173,9.173,0,0,1,.185-1.946,4.461,4.461,0,0,1,.542-1.415A2.4,2.4,0,0,1,92,59.948a2.493,2.493,0,0,1,1.216-.29Q95.855,59.658,95.855,63.965Zm-.984.093q0-3.585-1.7-3.586-1.8,0-1.8,3.651,0,3.4,1.763,3.4Q94.872,67.527,94.871,64.058Z" fill="#1e1e1e"/>
      <path d="M102.549,63.965a8.253,8.253,0,0,1-.19,1.869,4.361,4.361,0,0,1-.551,1.374,2.47,2.47,0,0,1-.885.849,2.413,2.413,0,0,1-1.192.29,2.257,2.257,0,0,1-1.128-.278,2.366,2.366,0,0,1-.835-.811,4.125,4.125,0,0,1-.515-1.31,8.047,8.047,0,0,1-.176-1.778,9.178,9.178,0,0,1,.184-1.946,4.461,4.461,0,0,1,.542-1.415,2.417,2.417,0,0,1,.888-.861,2.5,2.5,0,0,1,1.216-.29Q102.55,59.658,102.549,63.965Zm-.984.093q0-3.585-1.7-3.586-1.8,0-1.8,3.651,0,3.4,1.764,3.4Q101.565,67.527,101.565,64.058Z" fill="#1e1e1e"/>
      <path d="M109.244,63.965a8.249,8.249,0,0,1-.191,1.869,4.361,4.361,0,0,1-.55,1.374,2.486,2.486,0,0,1-.885.849,2.417,2.417,0,0,1-1.193.29,2.262,2.262,0,0,1-1.128-.278,2.355,2.355,0,0,1-.834-.811,4.1,4.1,0,0,1-.516-1.31,8.108,8.108,0,0,1-.176-1.778,9.173,9.173,0,0,1,.185-1.946,4.437,4.437,0,0,1,.542-1.415,2.407,2.407,0,0,1,.887-.861,2.5,2.5,0,0,1,1.216-.29Q109.244,59.658,109.244,63.965Zm-.985.093q0-3.585-1.7-3.586-1.8,0-1.8,3.651,0,3.4,1.764,3.4Q108.259,67.527,108.259,64.058Z" fill="#1e1e1e"/>
      <path d="M115.938,63.965a8.253,8.253,0,0,1-.19,1.869,4.361,4.361,0,0,1-.551,1.374,2.47,2.47,0,0,1-.885.849,2.413,2.413,0,0,1-1.192.29,2.257,2.257,0,0,1-1.128-.278,2.358,2.358,0,0,1-.835-.811,4.1,4.1,0,0,1-.516-1.31,8.108,8.108,0,0,1-.176-1.778,9.173,9.173,0,0,1,.185-1.946,4.461,4.461,0,0,1,.542-1.415,2.4,2.4,0,0,1,.888-.861,2.493,2.493,0,0,1,1.216-.29Q115.938,59.658,115.938,63.965Zm-.984.093q0-3.585-1.7-3.586-1.8,0-1.8,3.651,0,3.4,1.763,3.4Q114.955,67.527,114.954,64.058Z" fill="#1e1e1e"/>
    </g>
    <g>
      <path d="M151.678,64.8q0,3.54-3.193,3.54-3.059,0-3.059-3.405V59.8h.985v5.074q0,2.583,2.179,2.584,2.1,0,2.1-2.5V59.8h.984Z" fill="#1e1e1e"/>
      <path d="M158.973,65.1h-2.367v2.362h-.779V65.1h-2.362V64.31h2.362V61.949h.779V64.31h2.367Z" fill="#1e1e1e"/>
      <path d="M165.1,60.689H161.82V63.6h3.035v.885H161.82V68.2h-.984V59.8H165.1Z" fill="#1e1e1e"/>
      <path d="M170.713,60.689h-3.282V63.6h3.035v.885h-3.035V68.2h-.984V59.8h4.266Z" fill="#1e1e1e"/>
      <path d="M176.323,60.689h-3.281V63.6h3.035v.885h-3.035V68.2h-.985V59.8h4.266Z" fill="#1e1e1e"/>
      <path d="M181.934,60.689h-3.281V63.6h3.035v.885h-3.035V68.2h-.984V59.8h4.265Z" fill="#1e1e1e"/>
    </g>
    <g>
      <path d="M473.325,64.8q0,3.54-3.194,3.54-3.058,0-3.058-3.405V59.8h.984v5.074q0,2.583,2.18,2.584,2.1,0,2.1-2.5V59.8h.985Z" fill="#1e1e1e"/>
      <path d="M480.619,65.1h-2.367v2.362h-.78V65.1h-2.361V64.31h2.361V61.949h.78V64.31h2.367Z" fill="#1e1e1e"/>
      <path d="M484.631,68.2h-.96v-7.26a2.3,2.3,0,0,1-.326.255,5.166,5.166,0,0,1-.48.284c-.178.094-.365.182-.563.264a4.071,4.071,0,0,1-.577.193v-.972a5.576,5.576,0,0,0,.671-.238c.236-.1.469-.211.7-.334s.445-.252.648-.386a5.119,5.119,0,0,0,.527-.4h.363Z" fill="#1e1e1e"/>
      <path d="M492.319,63.965a8.31,8.31,0,0,1-.19,1.869,4.361,4.361,0,0,1-.551,1.374,2.47,2.47,0,0,1-.885.849,2.416,2.416,0,0,1-1.192.29,2.257,2.257,0,0,1-1.128-.278,2.358,2.358,0,0,1-.835-.811,4.1,4.1,0,0,1-.516-1.31,8.108,8.108,0,0,1-.176-1.778,9.173,9.173,0,0,1,.185-1.946,4.461,4.461,0,0,1,.542-1.415,2.4,2.4,0,0,1,.888-.861,2.492,2.492,0,0,1,1.215-.29Q492.319,59.658,492.319,63.965Zm-.984.093q0-3.585-1.706-3.586-1.8,0-1.8,3.651,0,3.4,1.763,3.4Q491.334,67.527,491.335,64.058Z" fill="#1e1e1e"/>
      <path d="M498.234,60.689h-3.281V63.6h3.035v.885h-3.035V68.2h-.985V59.8h4.266Z" fill="#1e1e1e"/>
      <path d="M503.845,60.689h-3.281V63.6H503.6v.885h-3.035V68.2h-.984V59.8h4.265Z" fill="#1e1e1e"/>
      <path d="M509.456,60.689h-3.282V63.6h3.036v.885h-3.036V68.2h-.984V59.8h4.266Z" fill="#1e1e1e"/>
      <path d="M515.067,60.689h-3.281V63.6h3.035v.885h-3.035V68.2H510.8V59.8h4.266Z" fill="#1e1e1e"/>
    </g>
    <g>
      <path d="M258.069,23.389v-1.16a2.284,2.284,0,0,0,.477.316,3.819,3.819,0,0,0,.586.237,4.606,4.606,0,0,0,.619.15,3.46,3.46,0,0,0,.574.053,2.253,2.253,0,0,0,1.356-.337,1.266,1.266,0,0,0,.3-1.562,1.69,1.69,0,0,0-.413-.46,4.178,4.178,0,0,0-.624-.4q-.36-.191-.776-.4-.439-.222-.821-.451a3.535,3.535,0,0,1-.662-.5,2.087,2.087,0,0,1-.442-.624,2.127,2.127,0,0,1,.091-1.816,2.151,2.151,0,0,1,.662-.7,2.971,2.971,0,0,1,.934-.41,4.276,4.276,0,0,1,1.07-.135,4.084,4.084,0,0,1,1.81.3v1.107a3.28,3.28,0,0,0-1.91-.516,3.141,3.141,0,0,0-.645.068,1.819,1.819,0,0,0-.574.22,1.271,1.271,0,0,0-.41.392,1.047,1.047,0,0,0-.158.586,1.211,1.211,0,0,0,.12.557,1.346,1.346,0,0,0,.355.427,3.487,3.487,0,0,0,.571.375c.224.122.483.254.776.4s.586.3.856.469a3.887,3.887,0,0,1,.709.545,2.4,2.4,0,0,1,.483.662,1.861,1.861,0,0,1,.179.832,2.108,2.108,0,0,1-.243,1.051,2,2,0,0,1-.657.7,2.868,2.868,0,0,1-.952.389,5.216,5.216,0,0,1-1.137.12,4.511,4.511,0,0,1-.492-.032c-.195-.021-.394-.053-.6-.094a4.777,4.777,0,0,1-.578-.152A1.784,1.784,0,0,1,258.069,23.389Z" fill="#1e1e1e"/>
      <path d="M269.419,23.729h-.961V22.78h-.024a1.972,1.972,0,0,1-1.851,1.089q-2.145,0-2.145-2.554V17.729h.955v3.433q0,1.9,1.453,1.9A1.471,1.471,0,0,0,268,22.542a1.986,1.986,0,0,0,.454-1.356V17.729h.961Z" fill="#1e1e1e"/>
      <path d="M272.219,22.862H272.2v3.627h-.961v-8.76h.961v1.054h.024a2.274,2.274,0,0,1,2.074-1.2,2.2,2.2,0,0,1,1.811.806,3.34,3.34,0,0,1,.65,2.159,3.719,3.719,0,0,1-.732,2.411,2.439,2.439,0,0,1-2,.905A2.008,2.008,0,0,1,272.219,22.862Zm-.024-2.42v.838a1.783,1.783,0,0,0,.484,1.262,1.724,1.724,0,0,0,2.6-.149,3.066,3.066,0,0,0,.5-1.858,2.422,2.422,0,0,0-.463-1.57,1.533,1.533,0,0,0-1.254-.568,1.7,1.7,0,0,0-1.348.583A2.139,2.139,0,0,0,272.2,20.442Z" fill="#1e1e1e"/>
      <path d="M279.22,22.862H279.2v3.627h-.961v-8.76h.961v1.054h.024a2.273,2.273,0,0,1,2.074-1.2,2.2,2.2,0,0,1,1.811.806,3.34,3.34,0,0,1,.65,2.159,3.719,3.719,0,0,1-.732,2.411,2.439,2.439,0,0,1-2,.905A2.008,2.008,0,0,1,279.22,22.862Zm-.024-2.42v.838a1.783,1.783,0,0,0,.484,1.262,1.723,1.723,0,0,0,2.595-.149,3.059,3.059,0,0,0,.5-1.858,2.422,2.422,0,0,0-.463-1.57,1.533,1.533,0,0,0-1.254-.568,1.7,1.7,0,0,0-1.348.583A2.139,2.139,0,0,0,279.2,20.442Z" fill="#1e1e1e"/>
      <path d="M286.208,23.729h-.961V14.846h.961Z" fill="#1e1e1e"/>
      <path d="M292.932,20.969H288.7a2.245,2.245,0,0,0,.539,1.547,1.859,1.859,0,0,0,1.418.545,2.948,2.948,0,0,0,1.863-.668v.9a3.479,3.479,0,0,1-2.092.574,2.537,2.537,0,0,1-2-.817,3.348,3.348,0,0,1-.726-2.3,3.278,3.278,0,0,1,.794-2.282,2.544,2.544,0,0,1,1.971-.882,2.256,2.256,0,0,1,1.823.762,3.18,3.18,0,0,1,.644,2.115Zm-.984-.814a1.953,1.953,0,0,0-.4-1.3,1.364,1.364,0,0,0-1.1-.463,1.552,1.552,0,0,0-1.154.486,2.2,2.2,0,0,0-.586,1.272Z" fill="#1e1e1e"/>
      <path d="M302.9,23.729h-.961V20.283a2.6,2.6,0,0,0-.308-1.441A1.165,1.165,0,0,0,300.6,18.4a1.28,1.28,0,0,0-1.046.562,2.152,2.152,0,0,0-.43,1.348v3.422h-.961V20.166q0-1.769-1.366-1.769a1.265,1.265,0,0,0-1.043.53,2.195,2.195,0,0,0-.41,1.38v3.422h-.961v-6h.961v.949h.024a2.038,2.038,0,0,1,1.863-1.09,1.734,1.734,0,0,1,1.7,1.242,2.142,2.142,0,0,1,1.992-1.242q1.982,0,1.981,2.443Z" fill="#1e1e1e"/>
      <path d="M309.521,20.969h-4.236a2.24,2.24,0,0,0,.539,1.547,1.859,1.859,0,0,0,1.418.545,2.948,2.948,0,0,0,1.863-.668v.9a3.481,3.481,0,0,1-2.092.574,2.537,2.537,0,0,1-2-.817,3.348,3.348,0,0,1-.726-2.3,3.278,3.278,0,0,1,.793-2.282,2.546,2.546,0,0,1,1.972-.882,2.258,2.258,0,0,1,1.823.762,3.18,3.18,0,0,1,.644,2.115Zm-.984-.814a1.953,1.953,0,0,0-.4-1.3,1.363,1.363,0,0,0-1.1-.463,1.555,1.555,0,0,0-1.155.486,2.214,2.214,0,0,0-.586,1.272Z" fill="#1e1e1e"/>
      <path d="M315.955,23.729h-.961V20.307q0-1.911-1.4-1.91a1.512,1.512,0,0,0-1.193.542,2,2,0,0,0-.471,1.368v3.422h-.961v-6h.961v1h.024a2.165,2.165,0,0,1,1.968-1.137,1.834,1.834,0,0,1,1.506.636,2.83,2.83,0,0,1,.522,1.837Z" fill="#1e1e1e"/>
      <path d="M320.446,23.67a1.853,1.853,0,0,1-.9.188q-1.575,0-1.576-1.758V18.549h-1.031v-.82h1.031V16.264l.961-.311v1.776h1.512v.82h-1.512V21.93a1.406,1.406,0,0,0,.2.861.82.82,0,0,0,.68.258,1.01,1.01,0,0,0,.627-.2Z" fill="#1e1e1e"/>
      <path d="M326.127,23.729h-.961v-.938h-.024a2.011,2.011,0,0,1-1.846,1.078,1.977,1.977,0,0,1-1.4-.474,1.645,1.645,0,0,1-.506-1.26q0-1.682,1.981-1.957l1.8-.252q0-1.53-1.237-1.529a2.955,2.955,0,0,0-1.957.738v-.984a3.72,3.72,0,0,1,2.039-.563q2.115,0,2.116,2.238Zm-.961-3.035-1.448.2a2.341,2.341,0,0,0-1.007.331.953.953,0,0,0-.34.841.912.912,0,0,0,.312.717,1.212,1.212,0,0,0,.836.279,1.541,1.541,0,0,0,1.18-.5,1.794,1.794,0,0,0,.467-1.269Z" fill="#1e1e1e"/>
      <path d="M331,18.7a1.181,1.181,0,0,0-.727-.193,1.223,1.223,0,0,0-1.027.58,2.678,2.678,0,0,0-.414,1.582v3.059h-.961v-6h.961v1.236h.023a2.1,2.1,0,0,1,.627-.987,1.427,1.427,0,0,1,.943-.355A1.589,1.589,0,0,1,331,17.7Z" fill="#1e1e1e"/>
      <path d="M337.3,17.729l-2.759,6.961q-.74,1.863-2.075,1.863a2.18,2.18,0,0,1-.626-.076v-.862a1.761,1.761,0,0,0,.568.106,1.178,1.178,0,0,0,1.09-.867l.48-1.137-2.344-5.988H332.7l1.623,4.617c.019.059.06.211.123.457h.035c.02-.094.059-.242.117-.445l1.705-4.629Z" fill="#1e1e1e"/>
      <path d="M345.707,23.453a3.117,3.117,0,0,1-1.641.416,2.717,2.717,0,0,1-2.072-.835,3.021,3.021,0,0,1-.787-2.165,3.325,3.325,0,0,1,.849-2.381,2.973,2.973,0,0,1,2.268-.9,3.158,3.158,0,0,1,1.394.293v.984a2.445,2.445,0,0,0-1.429-.468,1.931,1.931,0,0,0-1.51.659,2.5,2.5,0,0,0-.588,1.731,2.382,2.382,0,0,0,.553,1.664,1.908,1.908,0,0,0,1.486.61,2.407,2.407,0,0,0,1.477-.522Z" fill="#1e1e1e"/>
      <path d="M349.523,23.869a2.784,2.784,0,0,1-2.124-.84,3.117,3.117,0,0,1-.794-2.23,3.242,3.242,0,0,1,.826-2.361,2.969,2.969,0,0,1,2.233-.85,2.693,2.693,0,0,1,2.094.826,3.277,3.277,0,0,1,.753,2.291,3.223,3.223,0,0,1-.811,2.3A2.845,2.845,0,0,1,349.523,23.869Zm.07-5.472a1.826,1.826,0,0,0-1.464.63,2.584,2.584,0,0,0-.54,1.737,2.45,2.45,0,0,0,.545,1.682,1.854,1.854,0,0,0,1.459.615,1.756,1.756,0,0,0,1.433-.6,2.617,2.617,0,0,0,.5-1.717,2.662,2.662,0,0,0-.5-1.734A1.75,1.75,0,0,0,349.593,18.4Z" fill="#1e1e1e"/>
      <path d="M359.168,23.729h-.961v-1.02h-.024a2.217,2.217,0,0,1-2.062,1.16,2.241,2.241,0,0,1-1.808-.8,3.307,3.307,0,0,1-.677-2.2,3.593,3.593,0,0,1,.75-2.384,2.473,2.473,0,0,1,2-.9,1.922,1.922,0,0,1,1.8.973h.024V14.846h.961Zm-.961-2.713v-.885a1.718,1.718,0,0,0-.481-1.23,1.61,1.61,0,0,0-1.219-.5,1.659,1.659,0,0,0-1.382.644,2.827,2.827,0,0,0-.5,1.782,2.54,2.54,0,0,0,.483,1.637,1.578,1.578,0,0,0,1.3.6,1.644,1.644,0,0,0,1.3-.58A2.162,2.162,0,0,0,358.207,21.016Z" fill="#1e1e1e"/>
      <path d="M365.88,20.969h-4.236a2.245,2.245,0,0,0,.539,1.547,1.861,1.861,0,0,0,1.418.545,2.948,2.948,0,0,0,1.863-.668v.9a3.478,3.478,0,0,1-2.091.574,2.534,2.534,0,0,1-2-.817,3.344,3.344,0,0,1-.727-2.3,3.284,3.284,0,0,1,.795-2.282,2.544,2.544,0,0,1,1.971-.882,2.255,2.255,0,0,1,1.822.762,3.174,3.174,0,0,1,.644,2.115Zm-.984-.814a1.958,1.958,0,0,0-.4-1.3,1.369,1.369,0,0,0-1.1-.463,1.552,1.552,0,0,0-1.154.486,2.2,2.2,0,0,0-.586,1.272Z" fill="#1e1e1e"/>
      <path d="M371.605,22.862h-.023v3.627h-.961v-8.76h.961v1.054h.023a2.274,2.274,0,0,1,2.074-1.2,2.2,2.2,0,0,1,1.811.806,3.34,3.34,0,0,1,.65,2.159,3.719,3.719,0,0,1-.732,2.411,2.436,2.436,0,0,1-2,.905A2.009,2.009,0,0,1,371.605,22.862Zm-.023-2.42v.838a1.783,1.783,0,0,0,.484,1.262,1.724,1.724,0,0,0,2.6-.149,3.066,3.066,0,0,0,.494-1.858,2.416,2.416,0,0,0-.463-1.57,1.533,1.533,0,0,0-1.254-.568,1.7,1.7,0,0,0-1.348.583A2.143,2.143,0,0,0,371.582,20.442Z" fill="#1e1e1e"/>
      <path d="M380.183,23.869a2.781,2.781,0,0,1-2.123-.84,3.118,3.118,0,0,1-.8-2.23,3.246,3.246,0,0,1,.826-2.361,2.969,2.969,0,0,1,2.233-.85,2.7,2.7,0,0,1,2.1.826,3.281,3.281,0,0,1,.751,2.291,3.223,3.223,0,0,1-.81,2.3A2.847,2.847,0,0,1,380.183,23.869Zm.071-5.472a1.826,1.826,0,0,0-1.465.63,2.583,2.583,0,0,0-.539,1.737,2.445,2.445,0,0,0,.545,1.682,1.851,1.851,0,0,0,1.459.615,1.756,1.756,0,0,0,1.433-.6,2.617,2.617,0,0,0,.5-1.717,2.662,2.662,0,0,0-.5-1.734A1.75,1.75,0,0,0,380.254,18.4Z" fill="#1e1e1e"/>
      <path d="M385.106,16.2a.607.607,0,0,1-.439-.175.6.6,0,0,1-.182-.446.616.616,0,0,1,.621-.627.62.62,0,0,1,.448.179.625.625,0,0,1,0,.888A.614.614,0,0,1,385.106,16.2Zm.469,7.524h-.961v-6h.961Z" fill="#1e1e1e"/>
      <path d="M392.381,23.729h-.96V20.307q0-1.911-1.395-1.91a1.51,1.51,0,0,0-1.192.542,2.005,2.005,0,0,0-.472,1.368v3.422H387.4v-6h.961v1h.023a2.166,2.166,0,0,1,1.969-1.137,1.836,1.836,0,0,1,1.506.636,2.83,2.83,0,0,1,.521,1.837Z" fill="#1e1e1e"/>
      <path d="M396.874,23.67a1.856,1.856,0,0,1-.9.188q-1.577,0-1.576-1.758V18.549H393.37v-.82H394.4V16.264l.961-.311v1.776h1.512v.82h-1.512V21.93a1.4,1.4,0,0,0,.2.861.818.818,0,0,0,.68.258,1.01,1.01,0,0,0,.627-.2Z" fill="#1e1e1e"/>
      <path d="M397.889,23.512V22.481a2.851,2.851,0,0,0,1.729.58q1.266,0,1.265-.844a.733.733,0,0,0-.108-.407,1.069,1.069,0,0,0-.293-.3,2.291,2.291,0,0,0-.434-.232c-.166-.068-.344-.139-.536-.213a6.93,6.93,0,0,1-.7-.32,2.105,2.105,0,0,1-.5-.363,1.342,1.342,0,0,1-.3-.46,1.613,1.613,0,0,1-.1-.6,1.435,1.435,0,0,1,.193-.748,1.715,1.715,0,0,1,.516-.544,2.416,2.416,0,0,1,.735-.332,3.278,3.278,0,0,1,.853-.111,3.436,3.436,0,0,1,1.394.27v.972a2.716,2.716,0,0,0-1.523-.433,1.775,1.775,0,0,0-.486.061,1.185,1.185,0,0,0-.372.173.794.794,0,0,0-.241.267.7.7,0,0,0-.085.342.828.828,0,0,0,.085.393.866.866,0,0,0,.249.281,1.914,1.914,0,0,0,.4.223c.156.066.334.139.533.217a7.36,7.36,0,0,1,.715.313,2.477,2.477,0,0,1,.539.364,1.422,1.422,0,0,1,.343.465,1.505,1.505,0,0,1,.12.627,1.48,1.48,0,0,1-.2.774,1.682,1.682,0,0,1-.524.545,2.411,2.411,0,0,1-.756.322,3.746,3.746,0,0,1-.9.105A3.41,3.41,0,0,1,397.889,23.512Z" fill="#1e1e1e"/>
    </g>
    <g>
      <path d="M277.166,45.427q0,3.785-3.527,3.785-3.422,0-3.422-3.7V40.663h1.9v4.875q0,2.038,1.594,2.039,1.565,0,1.565-1.969V40.663h1.892Z" fill="#fff"/>
      <path d="M284.543,49.065H282.7V45.731q0-1.394-1-1.394a.987.987,0,0,0-.791.369,1.405,1.405,0,0,0-.311.937v3.422h-1.851v-6H280.6v.949h.024a2.121,2.121,0,0,1,1.927-1.1q1.993,0,1.993,2.472Z" fill="#fff"/>
      <path d="M286.928,42.116a1.083,1.083,0,0,1-.767-.278.9.9,0,0,1-.3-.683.867.867,0,0,1,.3-.68,1.256,1.256,0,0,1,1.538,0,.871.871,0,0,1,.3.68.893.893,0,0,1-.3.691A1.1,1.1,0,0,1,286.928,42.116Zm.914,6.949h-1.851v-6h1.851Z" fill="#fff"/>
      <path d="M293.92,48.848a3.653,3.653,0,0,1-1.811.364,3.063,3.063,0,0,1-2.238-.838,2.893,2.893,0,0,1-.856-2.162,3.187,3.187,0,0,1,.918-2.411,3.387,3.387,0,0,1,2.451-.882,3.146,3.146,0,0,1,1.536.281v1.57a2.113,2.113,0,0,0-1.3-.433,1.7,1.7,0,0,0-1.262.465,1.74,1.74,0,0,0-.467,1.287,1.714,1.714,0,0,0,.445,1.251,1.64,1.64,0,0,0,1.225.454,2.448,2.448,0,0,0,1.354-.434Z" fill="#fff"/>
      <path d="M297.984,49.212a3.226,3.226,0,0,1-2.358-.841,3.475,3.475,0,0,1,.032-4.611,3.363,3.363,0,0,1,2.408-.841,3.186,3.186,0,0,1,2.344.841,2.987,2.987,0,0,1,.849,2.223,3.172,3.172,0,0,1-.876,2.361A3.256,3.256,0,0,1,297.984,49.212Zm.047-4.875a1.236,1.236,0,0,0-1.02.451,1.99,1.99,0,0,0-.363,1.277q0,1.73,1.395,1.729,1.329,0,1.33-1.776Q299.373,44.337,298.031,44.337Z" fill="#fff"/>
      <path d="M308.361,49.065h-1.852v-.826h-.023a2.077,2.077,0,0,1-1.857.973,2.277,2.277,0,0,1-1.811-.794,3.289,3.289,0,0,1-.686-2.218,3.578,3.578,0,0,1,.756-2.385,2.467,2.467,0,0,1,1.981-.9,1.685,1.685,0,0,1,1.617.832h.023V40.182h1.852Zm-1.816-2.918V45.7a1.423,1.423,0,0,0-.34-.973,1.2,1.2,0,0,0-1.846.1,2.248,2.248,0,0,0-.346,1.327,1.946,1.946,0,0,0,.334,1.219,1.185,1.185,0,0,0,1.842-.023A1.886,1.886,0,0,0,306.545,46.147Z" fill="#fff"/>
      <path d="M315.31,46.593H311.4q.094,1.306,1.647,1.306a3.21,3.21,0,0,0,1.74-.469v1.336a4.572,4.572,0,0,1-2.162.446,2.793,2.793,0,0,1-3.059-3.053,3.211,3.211,0,0,1,.867-2.367,2.889,2.889,0,0,1,2.133-.873,2.617,2.617,0,0,1,2.029.779,3,3,0,0,1,.719,2.115Zm-1.717-1.137q0-1.29-1.043-1.289a1,1,0,0,0-.771.369,1.675,1.675,0,0,0-.395.92Z" fill="#fff"/>
      <path d="M324.269,48.848a3.649,3.649,0,0,1-1.81.364,3.067,3.067,0,0,1-2.239-.838,2.9,2.9,0,0,1-.855-2.162,3.186,3.186,0,0,1,.916-2.411,3.391,3.391,0,0,1,2.453-.882,3.139,3.139,0,0,1,1.535.281v1.57a2.11,2.11,0,0,0-1.3-.433,1.708,1.708,0,0,0-1.263.465,1.738,1.738,0,0,0-.465,1.287,1.71,1.71,0,0,0,.445,1.251,1.64,1.64,0,0,0,1.225.454,2.442,2.442,0,0,0,1.353-.434Z" fill="#fff"/>
      <path d="M328.333,49.212a3.229,3.229,0,0,1-2.359-.841,3.478,3.478,0,0,1,.032-4.611,3.365,3.365,0,0,1,2.409-.841,3.182,3.182,0,0,1,2.343.841,2.984,2.984,0,0,1,.85,2.223,3.172,3.172,0,0,1-.876,2.361A3.258,3.258,0,0,1,328.333,49.212Zm.046-4.875a1.234,1.234,0,0,0-1.019.451A1.99,1.99,0,0,0,327,46.065q0,1.73,1.394,1.729,1.33,0,1.33-1.776Q329.721,44.337,328.379,44.337Z" fill="#fff"/>
      <path d="M338.709,49.065h-1.852v-.826h-.023a2.078,2.078,0,0,1-1.858.973,2.275,2.275,0,0,1-1.81-.794,3.289,3.289,0,0,1-.686-2.218,3.578,3.578,0,0,1,.756-2.385,2.467,2.467,0,0,1,1.98-.9,1.685,1.685,0,0,1,1.618.832h.023V40.182h1.852Zm-1.817-2.918V45.7a1.418,1.418,0,0,0-.34-.973,1.2,1.2,0,0,0-1.845.1,2.241,2.241,0,0,0-.346,1.327,1.939,1.939,0,0,0,.334,1.219,1.187,1.187,0,0,0,1.844-.023A1.885,1.885,0,0,0,336.892,46.147Z" fill="#fff"/>
      <path d="M345.658,46.593h-3.914q.093,1.306,1.646,1.306a3.21,3.21,0,0,0,1.74-.469v1.336a4.567,4.567,0,0,1-2.162.446,2.793,2.793,0,0,1-3.058-3.053,3.211,3.211,0,0,1,.867-2.367,2.889,2.889,0,0,1,2.133-.873,2.621,2.621,0,0,1,2.031.779,3,3,0,0,1,.717,2.115Zm-1.717-1.137q0-1.29-1.043-1.289a.992.992,0,0,0-.769.369,1.677,1.677,0,0,0-.4.92Z" fill="#fff"/>
      <path d="M351.945,48.368h-.024v3.457H350.07v-8.76h1.851v.9h.024a2.356,2.356,0,0,1,3.73-.249,3.4,3.4,0,0,1,.635,2.176,3.69,3.69,0,0,1-.74,2.408,2.417,2.417,0,0,1-1.973.909A1.87,1.87,0,0,1,351.945,48.368Zm-.053-2.461v.48a1.531,1.531,0,0,0,.328,1.014,1.069,1.069,0,0,0,.862.393,1.134,1.134,0,0,0,.982-.49,2.364,2.364,0,0,0,.348-1.385q0-1.582-1.231-1.582a1.151,1.151,0,0,0-.927.43A1.714,1.714,0,0,0,351.892,45.907Z" fill="#fff"/>
      <path d="M360.421,49.212a3.229,3.229,0,0,1-2.359-.841,3.478,3.478,0,0,1,.032-4.611,3.365,3.365,0,0,1,2.409-.841,3.182,3.182,0,0,1,2.343.841,2.984,2.984,0,0,1,.85,2.223,3.172,3.172,0,0,1-.876,2.361A3.258,3.258,0,0,1,360.421,49.212Zm.046-4.875a1.234,1.234,0,0,0-1.019.451,1.99,1.99,0,0,0-.363,1.277q0,1.73,1.394,1.729,1.33,0,1.33-1.776Q361.809,44.337,360.467,44.337Z" fill="#fff"/>
      <path d="M365.8,42.116a1.083,1.083,0,0,1-.767-.278.9.9,0,0,1-.3-.683.867.867,0,0,1,.3-.68,1.256,1.256,0,0,1,1.538,0,.871.871,0,0,1,.3.68.893.893,0,0,1-.3.691A1.1,1.1,0,0,1,365.8,42.116Zm.914,6.949h-1.851v-6h1.851Z" fill="#fff"/>
      <path d="M374.046,49.065H372.2V45.731q0-1.394-1-1.394a.987.987,0,0,0-.791.369,1.405,1.405,0,0,0-.311.937v3.422h-1.851v-6H370.1v.949h.024a2.121,2.121,0,0,1,1.927-1.1q1.992,0,1.993,2.472Z" fill="#fff"/>
      <path d="M379.069,49a2.743,2.743,0,0,1-1.236.217q-1.958,0-1.957-2.034V44.43H374.9V43.065h.973V41.77l1.845-.527v1.822h1.348V44.43h-1.348v2.426q0,.938.744.938a1.257,1.257,0,0,0,.6-.17Z" fill="#fff"/>
      <path d="M379.919,48.907v-1.5a3.912,3.912,0,0,0,.911.41,3.012,3.012,0,0,0,.858.135,1.835,1.835,0,0,0,.776-.135.435.435,0,0,0,.285-.41.38.38,0,0,0-.129-.293,1.223,1.223,0,0,0-.331-.2,3.743,3.743,0,0,0-.443-.158q-.24-.07-.463-.158a4.366,4.366,0,0,1-.629-.291,1.818,1.818,0,0,1-.458-.36,1.433,1.433,0,0,1-.281-.474,1.91,1.91,0,0,1-.1-.639,1.647,1.647,0,0,1,.219-.867,1.792,1.792,0,0,1,.586-.6,2.682,2.682,0,0,1,.838-.34,4.392,4.392,0,0,1,.982-.108,5.44,5.44,0,0,1,.808.061,6.052,6.052,0,0,1,.809.179v1.43a2.918,2.918,0,0,0-.753-.308,3.2,3.2,0,0,0-.788-.1,1.706,1.706,0,0,0-.343.033,1.114,1.114,0,0,0-.284.093.522.522,0,0,0-.194.159.367.367,0,0,0-.07.219.406.406,0,0,0,.106.282.922.922,0,0,0,.275.2,2.78,2.78,0,0,0,.378.152c.139.045.276.091.413.138a5.308,5.308,0,0,1,.668.281,2.183,2.183,0,0,1,.513.357,1.41,1.41,0,0,1,.328.481,1.925,1.925,0,0,1-.117,1.567,1.87,1.87,0,0,1-.616.616,2.785,2.785,0,0,1-.884.345,4.86,4.86,0,0,1-1.04.109A5.359,5.359,0,0,1,379.919,48.907Z" fill="#fff"/>
    </g>
    <g>
      <path d="M13.269,134.468q0,3.539-3.194,3.539-3.058,0-3.058-3.405v-5.138H8v5.074q0,2.583,2.18,2.584,2.1,0,2.1-2.5v-5.162h.985Z" fill="#1e1e1e"/>
      <path d="M20.563,134.76H18.2v2.362h-.779V134.76H15.055v-.785h2.362v-2.361H18.2v2.361h2.367Z" fill="#1e1e1e"/>
      <path d="M27.508,133.63a8.253,8.253,0,0,1-.19,1.869,4.361,4.361,0,0,1-.551,1.374,2.47,2.47,0,0,1-.885.849,2.413,2.413,0,0,1-1.192.29,2.257,2.257,0,0,1-1.128-.278,2.366,2.366,0,0,1-.835-.811,4.125,4.125,0,0,1-.515-1.31,8.047,8.047,0,0,1-.176-1.778,9.178,9.178,0,0,1,.184-1.946,4.461,4.461,0,0,1,.542-1.415,2.418,2.418,0,0,1,.888-.861,2.5,2.5,0,0,1,1.216-.29Q27.509,129.323,27.508,133.63Zm-.984.093q0-3.585-1.705-3.586-1.8,0-1.8,3.651,0,3.4,1.764,3.4Q26.524,137.192,26.524,133.723Z" fill="#1e1e1e"/>
      <path d="M34.2,133.63a8.249,8.249,0,0,1-.191,1.869,4.361,4.361,0,0,1-.55,1.374,2.486,2.486,0,0,1-.885.849,2.417,2.417,0,0,1-1.193.29,2.262,2.262,0,0,1-1.128-.278,2.366,2.366,0,0,1-.835-.811,4.125,4.125,0,0,1-.515-1.31,8.108,8.108,0,0,1-.176-1.778,9.173,9.173,0,0,1,.185-1.946,4.437,4.437,0,0,1,.542-1.415,2.415,2.415,0,0,1,.887-.861,2.5,2.5,0,0,1,1.216-.29Q34.2,129.323,34.2,133.63Zm-.985.093q0-3.585-1.705-3.586-1.8,0-1.8,3.651,0,3.4,1.764,3.4Q33.218,137.192,33.218,133.723Z" fill="#1e1e1e"/>
      <path d="M40.9,133.63a8.253,8.253,0,0,1-.19,1.869,4.361,4.361,0,0,1-.551,1.374,2.47,2.47,0,0,1-.885.849,2.416,2.416,0,0,1-1.192.29,2.257,2.257,0,0,1-1.128-.278,2.358,2.358,0,0,1-.835-.811,4.1,4.1,0,0,1-.516-1.31,8.108,8.108,0,0,1-.176-1.778,9.173,9.173,0,0,1,.185-1.946,4.461,4.461,0,0,1,.542-1.415,2.41,2.41,0,0,1,.888-.861,2.492,2.492,0,0,1,1.215-.29Q40.9,129.323,40.9,133.63Zm-.984.093q0-3.585-1.7-3.586-1.8,0-1.8,3.651,0,3.4,1.763,3.4Q39.914,137.192,39.913,133.723Z" fill="#1e1e1e"/>
      <path d="M47.591,133.63a8.253,8.253,0,0,1-.19,1.869,4.361,4.361,0,0,1-.551,1.374,2.47,2.47,0,0,1-.885.849,2.413,2.413,0,0,1-1.192.29,2.257,2.257,0,0,1-1.128-.278,2.366,2.366,0,0,1-.835-.811,4.125,4.125,0,0,1-.515-1.31,8.047,8.047,0,0,1-.176-1.778,9.178,9.178,0,0,1,.184-1.946,4.461,4.461,0,0,1,.542-1.415,2.418,2.418,0,0,1,.888-.861,2.5,2.5,0,0,1,1.216-.29Q47.592,129.323,47.591,133.63Zm-.984.093q0-3.585-1.7-3.586-1.8,0-1.8,3.651,0,3.4,1.764,3.4Q46.607,137.192,46.607,133.723Z" fill="#1e1e1e"/>
    </g>
    <g>
      <path d="M302.923,134.468q0,3.539-3.193,3.539-3.059,0-3.059-3.4v-5.139h.985v5.074q0,2.584,2.18,2.584,2.1,0,2.1-2.5v-5.162h.984Z" fill="#1e1e1e"/>
      <path d="M310.217,134.761H307.85v2.361h-.779v-2.361H304.71v-.785h2.361v-2.361h.779v2.361h2.367Z" fill="#1e1e1e"/>
      <path d="M312.081,137.866v-8.4h2.32q4.442,0,4.441,4.1a4.128,4.128,0,0,1-1.233,3.126,4.575,4.575,0,0,1-3.3,1.18Zm.984-7.511v6.621h1.254a3.556,3.556,0,0,0,2.572-.885,3.318,3.318,0,0,0,.92-2.508q0-3.228-3.433-3.228Z" fill="#1e1e1e"/>
      <path d="M319.863,135.523a2.241,2.241,0,0,1,.105-.671,2.438,2.438,0,0,1,.3-.63,2.511,2.511,0,0,1,.486-.533,2.343,2.343,0,0,1,.66-.381,2.491,2.491,0,0,1-.868-.782,1.858,1.858,0,0,1-.322-1.058,2.043,2.043,0,0,1,.674-1.535,2.272,2.272,0,0,1,.75-.448,2.66,2.66,0,0,1,.938-.162,2.632,2.632,0,0,1,.943.165,2.313,2.313,0,0,1,.75.451,2.022,2.022,0,0,1,.492.679,2.06,2.06,0,0,1,.176.85,1.858,1.858,0,0,1-.322,1.058,2.522,2.522,0,0,1-.856.782,2.3,2.3,0,0,1,.65.381,2.528,2.528,0,0,1,.484.533,2.438,2.438,0,0,1,.3.63,2.241,2.241,0,0,1,.105.671,2.5,2.5,0,0,1-.2,1.008,2.253,2.253,0,0,1-.56.782,2.591,2.591,0,0,1-.861.507,3.22,3.22,0,0,1-1.1.181,3.178,3.178,0,0,1-1.1-.181,2.647,2.647,0,0,1-.862-.507,2.279,2.279,0,0,1-.565-.782A2.463,2.463,0,0,1,319.863,135.523Zm1.043-.082a1.99,1.99,0,0,0,.12.709,1.525,1.525,0,0,0,.34.539,1.482,1.482,0,0,0,.533.342,1.9,1.9,0,0,0,.694.121,1.832,1.832,0,0,0,.68-.123,1.587,1.587,0,0,0,.536-.346,1.551,1.551,0,0,0,.352-.539,1.888,1.888,0,0,0,.126-.7,1.8,1.8,0,0,0-.12-.66,1.65,1.65,0,0,0-.343-.541,1.609,1.609,0,0,0-.533-.37,1.867,1.867,0,0,0-1.369-.008,1.616,1.616,0,0,0-.533.351,1.64,1.64,0,0,0-.354.539A1.8,1.8,0,0,0,320.906,135.441Zm.3-3.9a1.407,1.407,0,0,0,.108.554,1.4,1.4,0,0,0,.741.744,1.355,1.355,0,0,0,.539.108,1.341,1.341,0,0,0,.542-.111,1.4,1.4,0,0,0,.443-.3,1.475,1.475,0,0,0,.3-.445,1.356,1.356,0,0,0,.111-.548,1.422,1.422,0,0,0-.109-.562,1.372,1.372,0,0,0-.3-.446,1.408,1.408,0,0,0-2,.009,1.337,1.337,0,0,0-.284.448A1.526,1.526,0,0,0,321.205,131.544Z" fill="#1e1e1e"/>
      <path d="M331.866,133.63a8.249,8.249,0,0,1-.191,1.869,4.361,4.361,0,0,1-.55,1.374,2.489,2.489,0,0,1-.885.85,2.428,2.428,0,0,1-1.193.29,2.266,2.266,0,0,1-1.127-.278,2.353,2.353,0,0,1-.835-.812,4.1,4.1,0,0,1-.516-1.309,8.117,8.117,0,0,1-.176-1.779,9.163,9.163,0,0,1,.185-1.945,4.428,4.428,0,0,1,.542-1.415,2.407,2.407,0,0,1,.887-.861,2.488,2.488,0,0,1,1.216-.291Q331.866,129.323,331.866,133.63Zm-.985.094q0-3.587-1.7-3.586-1.8,0-1.8,3.65,0,3.4,1.763,3.405Q330.881,137.193,330.881,133.724Z" fill="#1e1e1e"/>
      <path d="M338.56,133.63a8.253,8.253,0,0,1-.19,1.869,4.361,4.361,0,0,1-.551,1.374,2.473,2.473,0,0,1-.885.85,2.424,2.424,0,0,1-1.192.29,2.267,2.267,0,0,1-1.128-.278,2.361,2.361,0,0,1-.835-.812,4.1,4.1,0,0,1-.516-1.309,8.121,8.121,0,0,1-.175-1.779,9.168,9.168,0,0,1,.184-1.945,4.451,4.451,0,0,1,.542-1.415,2.4,2.4,0,0,1,.888-.861,2.485,2.485,0,0,1,1.216-.291Q338.559,129.323,338.56,133.63Zm-.984.094q0-3.587-1.705-3.586-1.8,0-1.8,3.65,0,3.4,1.764,3.405Q337.576,137.193,337.576,133.724Z" fill="#1e1e1e"/>
    </g>
    <g>
      <path d="M386.711,134.468q0,3.539-3.194,3.539-3.058,0-3.058-3.4v-5.139h.984v5.074q0,2.584,2.18,2.584,2.1,0,2.1-2.5v-5.162h.985Z" fill="#1e1e1e"/>
      <path d="M394.005,134.761h-2.367v2.361h-.779v-2.361H388.5v-.785h2.361v-2.361h.779v2.361h2.367Z" fill="#1e1e1e"/>
      <path d="M395.868,137.866v-8.4h2.32q4.442,0,4.441,4.1a4.128,4.128,0,0,1-1.233,3.126,4.575,4.575,0,0,1-3.3,1.18Zm.984-7.511v6.621h1.254a3.556,3.556,0,0,0,2.572-.885,3.315,3.315,0,0,0,.92-2.508q0-3.228-3.433-3.228Z" fill="#1e1e1e"/>
      <path d="M408.491,130.355H405.21v2.906h3.035v.885H405.21v3.72h-.985v-8.4h4.266Z" fill="#1e1e1e"/>
      <path d="M414.1,130.355h-3.281v2.906h3.035v.885h-3.035v3.72h-.984v-8.4H414.1Z" fill="#1e1e1e"/>
      <path d="M419.713,130.355h-3.281v2.906h3.035v.885h-3.035v3.72h-.984v-8.4h4.265Z" fill="#1e1e1e"/>
    </g>
    <g>
      <path d="M464.124,134.468q0,3.539-3.194,3.539-3.058,0-3.058-3.4v-5.139h.984v5.074q0,2.584,2.18,2.584,2.1,0,2.1-2.5v-5.162h.985Z" fill="#1e1e1e"/>
      <path d="M471.418,134.761H469.05v2.361h-.779v-2.361H465.91v-.785h2.361v-2.361h.779v2.361h2.368Z" fill="#1e1e1e"/>
      <path d="M477.546,130.355h-3.281v2.906H477.3v.885h-3.035v3.72h-.984v-8.4h4.265Z" fill="#1e1e1e"/>
      <path d="M483.157,130.355h-3.281v2.906h3.035v.885h-3.035v3.72h-.985v-8.4h4.266Z" fill="#1e1e1e"/>
      <path d="M488.768,130.355h-3.281v2.906h3.035v.885h-3.035v3.72H484.5v-8.4h4.265Z" fill="#1e1e1e"/>
      <path d="M494.379,130.355H491.1v2.906h3.035v.885H491.1v3.72h-.984v-8.4h4.266Z" fill="#1e1e1e"/>
    </g>
    <g>
      <path d="M111.33,118.052v-8.4h3.058a3.816,3.816,0,0,1,2.162.516,1.658,1.658,0,0,1,.756,1.453,1.716,1.716,0,0,1-.46,1.189,2.4,2.4,0,0,1-1.175.709v.024a2.327,2.327,0,0,1,1.433.662,1.848,1.848,0,0,1,.536,1.342,2.242,2.242,0,0,1-.826,1.831,3.459,3.459,0,0,1-2.256.676Zm1.892-7.007v1.992h.832a1.388,1.388,0,0,0,.923-.284.97.97,0,0,0,.337-.783q0-.925-1.383-.925Zm0,3.4v2.215h1.026a1.579,1.579,0,0,0,1.028-.305,1.017,1.017,0,0,0,.372-.832.951.951,0,0,0-.366-.791,1.623,1.623,0,0,0-1.023-.287Z" fill="#fff"/>
      <path d="M123.886,118.052h-1.752v-.861h-.023a1.955,1.955,0,0,1-1.787,1.008,1.87,1.87,0,0,1-1.374-.5,1.774,1.774,0,0,1-.5-1.321q0-1.746,2.068-2.016l1.629-.217q0-.984-1.066-.984a3.643,3.643,0,0,0-2.039.638V112.41a4.582,4.582,0,0,1,1.057-.352,5.6,5.6,0,0,1,1.222-.152,2.266,2.266,0,0,1,2.566,2.561Zm-1.74-2.437v-.4l-1.09.14q-.9.117-.9.815a.669.669,0,0,0,.22.518.84.84,0,0,0,.594.2,1.1,1.1,0,0,0,.85-.36A1.3,1.3,0,0,0,122.146,115.615Z" fill="#fff"/>
      <path d="M125.073,117.894v-1.5a3.889,3.889,0,0,0,.911.41,3.018,3.018,0,0,0,.858.135,1.84,1.84,0,0,0,.777-.135.435.435,0,0,0,.284-.41.38.38,0,0,0-.129-.293,1.208,1.208,0,0,0-.331-.2,3.912,3.912,0,0,0-.442-.158q-.242-.07-.463-.158a4.441,4.441,0,0,1-.63-.29,1.82,1.82,0,0,1-.457-.361,1.4,1.4,0,0,1-.281-.474,1.884,1.884,0,0,1-.1-.639,1.638,1.638,0,0,1,.22-.867,1.791,1.791,0,0,1,.586-.595,2.7,2.7,0,0,1,.837-.34,4.392,4.392,0,0,1,.982-.108,5.443,5.443,0,0,1,.808.062,6.049,6.049,0,0,1,.809.178v1.43a2.924,2.924,0,0,0-.753-.308,3.187,3.187,0,0,0-.788-.1,1.792,1.792,0,0,0-.343.032,1.114,1.114,0,0,0-.284.094.516.516,0,0,0-.193.158.364.364,0,0,0-.071.22.408.408,0,0,0,.106.281.922.922,0,0,0,.275.2,2.755,2.755,0,0,0,.378.152c.139.045.277.091.413.138a5.46,5.46,0,0,1,.668.281,2.157,2.157,0,0,1,.513.358,1.4,1.4,0,0,1,.328.48,1.927,1.927,0,0,1-.117,1.568,1.845,1.845,0,0,1-.615.615,2.815,2.815,0,0,1-.885.346,4.925,4.925,0,0,1-1.04.108A5.363,5.363,0,0,1,125.073,117.894Z" fill="#fff"/>
      <path d="M131.715,111.1a1.083,1.083,0,0,1-.767-.278.9.9,0,0,1-.3-.683.864.864,0,0,1,.3-.679,1.252,1.252,0,0,1,1.538,0,.868.868,0,0,1,.3.679.9.9,0,0,1-.3.692A1.1,1.1,0,0,1,131.715,111.1Zm.914,6.949h-1.851v-6h1.851Z" fill="#fff"/>
      <path d="M138.708,117.836a3.666,3.666,0,0,1-1.811.363,3.059,3.059,0,0,1-2.238-.838,2.892,2.892,0,0,1-.856-2.162,3.188,3.188,0,0,1,.917-2.411,3.39,3.39,0,0,1,2.452-.882,3.158,3.158,0,0,1,1.536.281v1.571a2.114,2.114,0,0,0-1.295-.434,1.7,1.7,0,0,0-1.263.466,1.735,1.735,0,0,0-.466,1.286,1.714,1.714,0,0,0,.445,1.251,1.637,1.637,0,0,0,1.225.454,2.448,2.448,0,0,0,1.354-.434Z" fill="#fff"/>
      <path d="M152.987,118.052h-1.869v-5.027q0-.815.07-1.8h-.047a8.805,8.805,0,0,1-.263,1.114l-1.969,5.712h-1.547l-2-5.654a10.84,10.84,0,0,1-.264-1.172h-.052q.075,1.242.076,2.18v4.646h-1.7v-8.4h2.771l1.717,4.981a7.006,7.006,0,0,1,.3,1.2h.035a12.03,12.03,0,0,1,.334-1.213l1.717-4.969h2.7Z" fill="#fff"/>
      <path d="M160.391,118.052h-1.845v-.914h-.03a2.094,2.094,0,0,1-1.834,1.061q-2.085,0-2.086-2.525v-3.622h1.846v3.458q0,1.27,1.008,1.271a1,1,0,0,0,.8-.349,1.4,1.4,0,0,0,.3-.946v-3.434h1.845Z" fill="#fff"/>
      <path d="M163.768,118.052h-1.852V109.17h1.852Z" fill="#fff"/>
      <path d="M168.913,117.982a2.734,2.734,0,0,1-1.237.217q-1.956,0-1.957-2.033v-2.748h-.972v-1.366h.972v-1.294l1.846-.528v1.822h1.348v1.366h-1.348v2.426q0,.938.744.937a1.26,1.26,0,0,0,.6-.17Z" fill="#fff"/>
      <path d="M170.961,111.1a1.083,1.083,0,0,1-.768-.278.9.9,0,0,1-.3-.683.864.864,0,0,1,.3-.679,1.252,1.252,0,0,1,1.538,0,.868.868,0,0,1,.3.679.9.9,0,0,1-.3.692A1.1,1.1,0,0,1,170.961,111.1Zm.914,6.949h-1.852v-6h1.852Z" fill="#fff"/>
      <path d="M175.257,118.052h-1.852V109.17h1.852Z" fill="#fff"/>
      <path d="M177.725,111.1a1.083,1.083,0,0,1-.767-.278.9.9,0,0,1-.3-.683.86.86,0,0,1,.3-.679,1.252,1.252,0,0,1,1.538,0,.868.868,0,0,1,.3.679.9.9,0,0,1-.3.692A1.1,1.1,0,0,1,177.725,111.1Zm.914,6.949h-1.851v-6h1.851Z" fill="#fff"/>
      <path d="M185.971,118.052h-1.845v-3.333q0-1.395-1-1.395a.99.99,0,0,0-.791.369,1.407,1.407,0,0,0-.31.938v3.421h-1.852v-6h1.852V113h.023a2.122,2.122,0,0,1,1.928-1.1q1.992,0,1.992,2.473Z" fill="#fff"/>
      <path d="M193.367,117.367a3.393,3.393,0,0,1-.967,2.587,3.918,3.918,0,0,1-2.8.917,4.429,4.429,0,0,1-1.922-.346v-1.558a3.683,3.683,0,0,0,1.869.539,2.01,2.01,0,0,0,1.453-.5,1.775,1.775,0,0,0,.516-1.344v-.475h-.024a2.068,2.068,0,0,1-1.869,1.008,2.249,2.249,0,0,1-1.822-.809,3.279,3.279,0,0,1-.674-2.168,3.654,3.654,0,0,1,.75-2.42,2.45,2.45,0,0,1,1.975-.9,1.82,1.82,0,0,1,1.64.844h.024v-.7h1.851Zm-1.828-2.2V114.7a1.458,1.458,0,0,0-.337-.97,1.089,1.089,0,0,0-.876-.4,1.134,1.134,0,0,0-.967.48,2.265,2.265,0,0,0-.351,1.354,1.9,1.9,0,0,0,.334,1.186,1.089,1.089,0,0,0,.914.437,1.134,1.134,0,0,0,.929-.442A1.817,1.817,0,0,0,191.539,115.17Z" fill="#fff"/>
      <path d="M200.615,118.052H198.77v-.914h-.03a2.094,2.094,0,0,1-1.834,1.061q-2.085,0-2.086-2.525v-3.622h1.846v3.458q0,1.27,1.008,1.271a1,1,0,0,0,.8-.349,1.4,1.4,0,0,0,.3-.946v-3.434h1.845Z" fill="#fff"/>
      <path d="M207.182,118.052H205.43v-.861h-.024a1.955,1.955,0,0,1-1.787,1.008,1.87,1.87,0,0,1-1.374-.5,1.774,1.774,0,0,1-.5-1.321q0-1.746,2.069-2.016l1.629-.217q0-.984-1.067-.984a3.646,3.646,0,0,0-2.039.638V112.41a4.592,4.592,0,0,1,1.058-.352,5.585,5.585,0,0,1,1.221-.152,2.267,2.267,0,0,1,2.567,2.561Zm-1.74-2.437v-.4l-1.09.14q-.9.117-.9.815a.673.673,0,0,0,.22.518.845.845,0,0,0,.595.2,1.1,1.1,0,0,0,.849-.36A1.3,1.3,0,0,0,205.442,115.615Z" fill="#fff"/>
      <path d="M210.5,118.052h-1.851V109.17H210.5Z" fill="#fff"/>
      <path d="M217.442,115.158v2.894h-1.893v-8.4h2.965q3.175,0,3.176,2.678a2.569,2.569,0,0,1-.912,2.048,3.611,3.611,0,0,1-2.434.782Zm0-4.055v2.619h.744q1.511,0,1.511-1.324,0-1.294-1.511-1.3Z" fill="#fff"/>
      <path d="M224.5,118.052h-1.852V109.17H224.5Z" fill="#fff"/>
      <path d="M231.074,118.052h-1.752v-.861H229.3a1.955,1.955,0,0,1-1.787,1.008,1.87,1.87,0,0,1-1.374-.5,1.774,1.774,0,0,1-.5-1.321q0-1.746,2.068-2.016l1.629-.217q0-.984-1.066-.984a3.643,3.643,0,0,0-2.039.638V112.41a4.582,4.582,0,0,1,1.057-.352,5.594,5.594,0,0,1,1.222-.152,2.266,2.266,0,0,1,2.566,2.561Zm-1.74-2.437v-.4l-1.09.14q-.9.117-.9.815a.669.669,0,0,0,.22.518.84.84,0,0,0,.594.2,1.1,1.1,0,0,0,.85-.36A1.3,1.3,0,0,0,229.334,115.615Z" fill="#fff"/>
      <path d="M238.334,118.052h-1.846v-3.333q0-1.395-1-1.395a.989.989,0,0,0-.791.369,1.407,1.407,0,0,0-.31.938v3.421h-1.852v-6h1.852V113h.023a2.122,2.122,0,0,1,1.928-1.1q1.992,0,1.992,2.473Z" fill="#fff"/>
      <path d="M245.22,115.58h-3.914q.093,1.306,1.646,1.306a3.218,3.218,0,0,0,1.74-.468v1.336a4.567,4.567,0,0,1-2.162.445,2.793,2.793,0,0,1-3.058-3.053,3.211,3.211,0,0,1,.867-2.367,2.889,2.889,0,0,1,2.133-.873,2.623,2.623,0,0,1,2.03.779,3,3,0,0,1,.718,2.116Zm-1.717-1.137q0-1.288-1.043-1.289a.994.994,0,0,0-.77.369,1.676,1.676,0,0,0-.4.92Z" fill="#fff"/>
      <path d="M253.183,119.963h-1.512a7.351,7.351,0,0,1-1.893-5.127,7.821,7.821,0,0,1,1.893-5.186h1.5a8.418,8.418,0,0,0-1.775,5.186A8.144,8.144,0,0,0,253.183,119.963Z" fill="#fff"/>
      <path d="M254.138,118.052v-8.4H257.2a3.814,3.814,0,0,1,2.162.516,1.658,1.658,0,0,1,.756,1.453,1.716,1.716,0,0,1-.46,1.189,2.407,2.407,0,0,1-1.174.709v.024a2.327,2.327,0,0,1,1.432.662,1.848,1.848,0,0,1,.536,1.342,2.242,2.242,0,0,1-.826,1.831,3.459,3.459,0,0,1-2.256.676Zm1.892-7.007v1.992h.832a1.388,1.388,0,0,0,.923-.284.97.97,0,0,0,.337-.783q0-.925-1.383-.925Zm0,3.4v2.215h1.026a1.579,1.579,0,0,0,1.028-.305,1.017,1.017,0,0,0,.372-.832.951.951,0,0,0-.366-.791,1.623,1.623,0,0,0-1.023-.287Z" fill="#fff"/>
      <path d="M271.387,118.052h-1.869v-5.027q0-.815.07-1.8h-.046a8.945,8.945,0,0,1-.264,1.114l-1.969,5.712h-1.547l-2-5.654a11.212,11.212,0,0,1-.263-1.172h-.053q.077,1.242.076,2.18v4.646h-1.7v-8.4h2.772l1.716,4.981a6.915,6.915,0,0,1,.3,1.2h.035a12.3,12.3,0,0,1,.334-1.213l1.717-4.969h2.7Z" fill="#fff"/>
      <path d="M275.1,115.158v2.894H273.21v-8.4h2.964q3.177,0,3.176,2.678a2.571,2.571,0,0,1-.911,2.048,3.612,3.612,0,0,1-2.435.782Zm0-4.055v2.619h.744q1.512,0,1.512-1.324,0-1.294-1.512-1.3Z" fill="#fff"/>
      <path d="M280.975,119.963h-1.5a8.1,8.1,0,0,0,1.793-5.127,8.4,8.4,0,0,0-1.793-5.186h1.511a7.821,7.821,0,0,1,1.9,5.186A7.369,7.369,0,0,1,280.975,119.963Z" fill="#fff"/>
    </g>
  </g>
</svg>
