<svg xmlns="http://www.w3.org/2000/svg" xmlns:xlink="http://www.w3.org/1999/xlink" viewBox="0 0 448 100.87"><defs><linearGradient id="linear-gradient" x1="247.5" x2="247.5" y1="41.43" y2="61.43" gradientUnits="userSpaceOnUse"><stop offset="0" stop-color="#5ea0ef"/><stop offset=".18" stop-color="#559cec"/><stop offset=".47" stop-color="#3c91e5"/><stop offset=".84" stop-color="#1380da"/><stop offset="1" stop-color="#0078d4"/></linearGradient><linearGradient id="linear-gradient-2" x1="49.88" x2="49.88" y1="48.85" y2="53.85" xlink:href="#linear-gradient"/><linearGradient id="linear-gradient-3" x1="61.44" x2="61.44" y1="48.85" y2="53.85" xlink:href="#linear-gradient"/><linearGradient id="linear-gradient-4" x1="73" x2="73" y1="48.85" y2="53.85" xlink:href="#linear-gradient"/><linearGradient id="linear-gradient-5" x1="84.57" x2="84.57" y1="48.85" y2="53.85" xlink:href="#linear-gradient"/><linearGradient id="linear-gradient-6" x1="96.13" x2="96.13" y1="48.85" y2="53.85" xlink:href="#linear-gradient"/><linearGradient id="linear-gradient-7" x1="107.69" x2="107.69" y1="48.85" y2="53.85" xlink:href="#linear-gradient"/><linearGradient id="linear-gradient-8" x1="119.26" x2="119.26" y1="48.85" y2="53.85" xlink:href="#linear-gradient"/><linearGradient id="linear-gradient-9" x1="130.82" x2="130.82" y1="48.85" y2="53.85" xlink:href="#linear-gradient"/><linearGradient id="linear-gradient-10" x1="142.38" x2="142.38" y1="48.85" y2="53.85" xlink:href="#linear-gradient"/><linearGradient id="linear-gradient-11" x1="153.94" x2="153.94" y1="48.85" y2="53.85" xlink:href="#linear-gradient"/><linearGradient id="linear-gradient-12" x1="165.51" x2="165.51" y1="48.85" y2="53.85" xlink:href="#linear-gradient"/><linearGradient id="linear-gradient-13" x1="177.07" x2="177.07" y1="48.85" y2="53.85" xlink:href="#linear-gradient"/><linearGradient id="linear-gradient-14" x1="188.63" x2="188.63" y1="48.85" y2="53.85" xlink:href="#linear-gradient"/><linearGradient id="linear-gradient-15" x1="200.2" x2="200.2" y1="48.85" y2="53.85" xlink:href="#linear-gradient"/><linearGradient id="linear-gradient-16" x1="211.76" x2="211.76" y1="48.85" y2="53.85" xlink:href="#linear-gradient"/><linearGradient id="linear-gradient-17" x1="223.32" x2="223.32" y1="48.85" y2="53.85" xlink:href="#linear-gradient"/><linearGradient id="linear-gradient-18" x1="234.89" x2="234.89" y1="48.85" y2="53.85" xlink:href="#linear-gradient"/><linearGradient id="linear-gradient-19" x1="246.45" x2="246.45" y1="48.85" y2="53.85" xlink:href="#linear-gradient"/><linearGradient id="linear-gradient-20" x1="258.01" x2="258.01" y1="48.85" y2="53.85" xlink:href="#linear-gradient"/><linearGradient id="linear-gradient-21" x1="269.58" x2="269.58" y1="48.85" y2="53.85" xlink:href="#linear-gradient"/><linearGradient id="linear-gradient-22" x1="281.14" x2="281.14" y1="48.85" y2="53.85" xlink:href="#linear-gradient"/><linearGradient id="linear-gradient-23" x1="292.7" x2="292.7" y1="48.85" y2="53.85" xlink:href="#linear-gradient"/><linearGradient id="linear-gradient-24" x1="304.27" x2="304.27" y1="48.85" y2="53.85" xlink:href="#linear-gradient"/><linearGradient id="linear-gradient-25" x1="315.83" x2="315.83" y1="48.85" y2="53.85" xlink:href="#linear-gradient"/><linearGradient id="linear-gradient-26" x1="327.39" x2="327.39" y1="48.85" y2="53.85" xlink:href="#linear-gradient"/><linearGradient id="linear-gradient-27" x1="338.95" x2="338.95" y1="48.85" y2="53.85" xlink:href="#linear-gradient"/><linearGradient id="linear-gradient-28" x1="350.52" x2="350.52" y1="48.85" y2="53.85" xlink:href="#linear-gradient"/><linearGradient id="linear-gradient-29" x1="362.08" x2="362.08" y1="48.85" y2="53.85" xlink:href="#linear-gradient"/><linearGradient id="linear-gradient-30" x1="373.64" x2="373.64" y1="48.85" y2="53.85" xlink:href="#linear-gradient"/><linearGradient id="linear-gradient-31" x1="385.21" x2="385.21" y1="48.85" y2="53.85" xlink:href="#linear-gradient"/><linearGradient id="linear-gradient-32" x1="396.77" x2="396.77" y1="48.85" y2="53.85" xlink:href="#linear-gradient"/><linearGradient id="linear-gradient-33" x1="408.33" x2="408.33" y1="48.85" y2="53.85" xlink:href="#linear-gradient"/><linearGradient id="linear-gradient-34" x1="419.9" x2="419.9" y1="48.85" y2="53.85" xlink:href="#linear-gradient"/><linearGradient id="linear-gradient-35" x1="431.46" x2="431.46" y1="48.85" y2="53.85" xlink:href="#linear-gradient"/><linearGradient id="linear-gradient-36" x1="443.02" x2="443.02" y1="48.85" y2="53.85" xlink:href="#linear-gradient"/></defs><g id="Shapes"><rect width="448" height="100.87" fill="#fff"/><rect width="400" height="20" x="47.5" y="41.43" fill="url(#linear-gradient)"/><g><ellipse cx="49.88" cy="51.35" fill="url(#linear-gradient-2)" rx="2.43" ry="2.5"/><ellipse cx="61.44" cy="51.35" fill="url(#linear-gradient-3)" rx="2.43" ry="2.5"/><ellipse cx="73" cy="51.35" fill="url(#linear-gradient-4)" rx="2.43" ry="2.5"/><ellipse cx="84.57" cy="51.35" fill="url(#linear-gradient-5)" rx="2.43" ry="2.5"/><ellipse cx="96.13" cy="51.35" fill="url(#linear-gradient-6)" rx="2.43" ry="2.5"/><ellipse cx="107.69" cy="51.35" fill="url(#linear-gradient-7)" rx="2.43" ry="2.5"/><ellipse cx="119.26" cy="51.35" fill="url(#linear-gradient-8)" rx="2.43" ry="2.5"/><ellipse cx="130.82" cy="51.35" fill="url(#linear-gradient-9)" rx="2.43" ry="2.5"/><ellipse cx="142.38" cy="51.35" fill="url(#linear-gradient-10)" rx="2.43" ry="2.5"/><ellipse cx="153.94" cy="51.35" fill="url(#linear-gradient-11)" rx="2.43" ry="2.5"/><ellipse cx="165.51" cy="51.35" fill="url(#linear-gradient-12)" rx="2.43" ry="2.5"/><ellipse cx="177.07" cy="51.35" fill="url(#linear-gradient-13)" rx="2.43" ry="2.5"/><ellipse cx="188.63" cy="51.35" fill="url(#linear-gradient-14)" rx="2.43" ry="2.5"/><ellipse cx="200.2" cy="51.35" fill="url(#linear-gradient-15)" rx="2.43" ry="2.5"/><ellipse cx="211.76" cy="51.35" fill="url(#linear-gradient-16)" rx="2.43" ry="2.5"/><ellipse cx="223.32" cy="51.35" fill="url(#linear-gradient-17)" rx="2.43" ry="2.5"/><ellipse cx="234.89" cy="51.35" fill="url(#linear-gradient-18)" rx="2.43" ry="2.5"/><ellipse cx="246.45" cy="51.35" fill="url(#linear-gradient-19)" rx="2.43" ry="2.5"/><ellipse cx="258.01" cy="51.35" fill="url(#linear-gradient-20)" rx="2.43" ry="2.5"/><ellipse cx="269.58" cy="51.35" fill="url(#linear-gradient-21)" rx="2.43" ry="2.5"/><ellipse cx="281.14" cy="51.35" fill="url(#linear-gradient-22)" rx="2.43" ry="2.5"/><ellipse cx="292.7" cy="51.35" fill="url(#linear-gradient-23)" rx="2.43" ry="2.5"/><ellipse cx="304.27" cy="51.35" fill="url(#linear-gradient-24)" rx="2.43" ry="2.5"/><ellipse cx="315.83" cy="51.35" fill="url(#linear-gradient-25)" rx="2.43" ry="2.5"/><ellipse cx="327.39" cy="51.35" fill="url(#linear-gradient-26)" rx="2.43" ry="2.5"/><ellipse cx="338.95" cy="51.35" fill="url(#linear-gradient-27)" rx="2.43" ry="2.5"/><ellipse cx="350.52" cy="51.35" fill="url(#linear-gradient-28)" rx="2.43" ry="2.5"/><ellipse cx="362.08" cy="51.35" fill="url(#linear-gradient-29)" rx="2.43" ry="2.5"/><ellipse cx="373.64" cy="51.35" fill="url(#linear-gradient-30)" rx="2.43" ry="2.5"/><ellipse cx="385.21" cy="51.35" fill="url(#linear-gradient-31)" rx="2.43" ry="2.5"/><ellipse cx="396.77" cy="51.35" fill="url(#linear-gradient-32)" rx="2.43" ry="2.5"/><ellipse cx="408.33" cy="51.35" fill="url(#linear-gradient-33)" rx="2.43" ry="2.5"/><ellipse cx="419.9" cy="51.35" fill="url(#linear-gradient-34)" rx="2.43" ry="2.5"/><ellipse cx="431.46" cy="51.35" fill="url(#linear-gradient-35)" rx="2.43" ry="2.5"/><ellipse cx="443.02" cy="51.35" fill="url(#linear-gradient-36)" rx="2.43" ry="2.5"/></g><line x1="447.5" x2="447.5" y1="76.43" y2="24.07" fill="none" stroke="#000"/><polyline fill="none" stroke="#000" points="336.15 26.43 423.02 26.43 443.02 37.37"/><polyline fill="none" stroke="#000" points="177.57 26.43 90.69 26.43 70.69 37.37"/><g><line x1="50.5" x2="51.38" y1="19.07" y2="18.59" fill="none" stroke="#000"/><polyline fill="none" stroke="#000" stroke-dasharray="2.02 3.03" points="54.04 17.14 70.5 8.13 206.91 8.13"/><line x1="208.43" x2="209.43" y1="8.13" y2="8.13" fill="none" stroke="#000"/></g><g><line x1="444.46" x2="443.59" y1="19.07" y2="18.59" fill="none" stroke="#000"/><polyline fill="none" stroke="#000" stroke-dasharray="2.03 3.04" points="440.92 17.13 424.46 8.13 307.98 8.13"/><line x1="306.46" x2="305.46" y1="8.13" y2="8.13" fill="none" stroke="#000"/></g><line x1="47.5" x2="47.5" y1="76.43" y2="24.07" fill="none" stroke="#000"/><line x1="67.5" x2="67.5" y1="76.43" y2="34.58" fill="none" stroke="#000"/><rect width="4" height="20" x="58.5" y="41.43" fill="#fff"/><line x1="62.5" x2="62.5" y1="96.43" y2="41.43" fill="none" stroke="#000"/><line x1="58.5" x2="58.5" y1="96.43" y2="41.43" fill="none" stroke="#000"/></g><g id="Text"><g><path fill="#1e1e1e" d="M50.22,31.07v-7h2a2.23,2.23,0,0,1,1.44.44,1.47,1.47,0,0,1,.53,1.16A1.67,1.67,0,0,1,53,27.33v0a1.76,1.76,0,0,1,1.13.54,1.65,1.65,0,0,1,.43,1.17,1.82,1.82,0,0,1-.65,1.45,2.35,2.35,0,0,1-1.62.56ZM51,24.81v2.26h.84a1.62,1.62,0,0,0,1.06-.32,1.13,1.13,0,0,0,.39-.92c0-.68-.45-1-1.34-1Zm0,3v2.52h1.12A1.67,1.67,0,0,0,53.28,30a1.19,1.19,0,0,0,.4-.94c0-.83-.57-1.24-1.69-1.24Z"/><path fill="#1e1e1e" d="M63.11,31.07H62.3v-4.7c0-.37,0-.82.06-1.36h0a3.08,3.08,0,0,1-.21.68l-2.39,5.38h-.4L57,25.73a7.14,7.14,0,0,1-.21-.72h0c0,.28,0,.74,0,1.37v4.69H56v-7h1.09L59.21,29a8.23,8.23,0,0,1,.32.84h0c.14-.38.25-.67.33-.86l2.2-4.86h1Z"/><path fill="#1e1e1e" d="M65.76,28.42v2.65h-.82v-7h1.92a2.55,2.55,0,0,1,1.75.55,2,2,0,0,1,.61,1.54,2.14,2.14,0,0,1-.68,1.63,2.65,2.65,0,0,1-1.86.63Zm0-3.61v2.87h.86a1.92,1.92,0,0,0,1.3-.39,1.37,1.37,0,0,0,.44-1.09c0-.93-.54-1.39-1.64-1.39Z"/></g><g><path fill="#1e1e1e" d="M7.25,71.17q0,3.52-3.2,3.53-3,0-3-3.4V66.16H2v5.08c0,1.72.73,2.58,2.18,2.58s2.1-.83,2.1-2.5V66.16h1Z"/><path fill="#1e1e1e" d="M14.54,71.46H12.18v2.36H11.4V71.46H9v-.79H11.4V68.31h.78v2.36h2.36Z"/><path fill="#1e1e1e" d="M21.49,70.33a8.75,8.75,0,0,1-.19,1.87,4.41,4.41,0,0,1-.55,1.37,2.37,2.37,0,0,1-2.08,1.14,2.22,2.22,0,0,1-2-1.09,4.12,4.12,0,0,1-.52-1.31A8,8,0,0,1,16,70.53a9.35,9.35,0,0,1,.18-1.94,4.3,4.3,0,0,1,.54-1.42,2.43,2.43,0,0,1,.89-.86A2.53,2.53,0,0,1,18.85,66Q21.49,66,21.49,70.33Zm-1,.09c0-2.39-.56-3.59-1.7-3.59S17,68.05,17,70.49c0,2.26.59,3.4,1.76,3.4S20.5,72.73,20.5,70.42Z"/><path fill="#1e1e1e" d="M28.18,70.33A8.15,8.15,0,0,1,28,72.2a4.41,4.41,0,0,1-.55,1.37,2.34,2.34,0,0,1-2.08,1.14,2.19,2.19,0,0,1-1.12-.28,2.32,2.32,0,0,1-.84-.81,3.9,3.9,0,0,1-.51-1.31,7.93,7.93,0,0,1-.18-1.78,9.35,9.35,0,0,1,.18-1.94,4.53,4.53,0,0,1,.55-1.42,2.34,2.34,0,0,1,.88-.86A2.56,2.56,0,0,1,25.54,66Q28.18,66,28.18,70.33Zm-1,.09c0-2.39-.57-3.59-1.71-3.59s-1.8,1.22-1.8,3.66c0,2.26.59,3.4,1.77,3.4S27.2,72.73,27.2,70.42Z"/><path fill="#1e1e1e" d="M34.88,70.33a8.75,8.75,0,0,1-.19,1.87,4.41,4.41,0,0,1-.55,1.37,2.37,2.37,0,0,1-2.08,1.14,2.22,2.22,0,0,1-2-1.09,4.12,4.12,0,0,1-.52-1.31,7.93,7.93,0,0,1-.18-1.78,9.3,9.3,0,0,1,.19-1.94,4.3,4.3,0,0,1,.54-1.42,2.36,2.36,0,0,1,.89-.86A2.52,2.52,0,0,1,32.23,66Q34.89,66,34.88,70.33Zm-1,.09c0-2.39-.57-3.59-1.7-3.59s-1.8,1.22-1.8,3.66c0,2.26.59,3.4,1.76,3.4S33.89,72.73,33.89,70.42Z"/><path fill="#1e1e1e" d="M41.57,70.33a8.15,8.15,0,0,1-.19,1.87,4.41,4.41,0,0,1-.55,1.37,2.49,2.49,0,0,1-.89.85,2.41,2.41,0,0,1-1.19.29,2.23,2.23,0,0,1-1.13-.28,2.29,2.29,0,0,1-.83-.81,4.12,4.12,0,0,1-.52-1.31,8.61,8.61,0,0,1-.17-1.78,9.35,9.35,0,0,1,.18-1.94,4.79,4.79,0,0,1,.54-1.42,2.43,2.43,0,0,1,.89-.86A2.56,2.56,0,0,1,38.93,66Q41.57,66,41.57,70.33Zm-1,.09c0-2.39-.57-3.59-1.71-3.59s-1.8,1.22-1.8,3.66c0,2.26.59,3.4,1.77,3.4S40.59,72.73,40.59,70.42Z"/></g><g><path fill="#1e1e1e" d="M73.67,95.94H69.22V87.53h4.26v.89H70.2v2.8h3v.88h-3v3h3.47Z"/><path fill="#1e1e1e" d="M79.76,89.94l-2,3,2,3H78.6l-1.18-2c-.07-.12-.16-.27-.26-.46h0l-.28.46-1.2,2H74.55l2-2.94-2-3.06h1.12l1.16,2c.09.15.17.31.25.47h0l1.5-2.52Z"/><path fill="#1e1e1e" d="M84.77,95.66a3.1,3.1,0,0,1-1.64.42,2.69,2.69,0,0,1-2.07-.84,3,3,0,0,1-.79-2.16,3.29,3.29,0,0,1,.85-2.38,3,3,0,0,1,2.27-.9,3.06,3.06,0,0,1,1.39.29v1a2.45,2.45,0,0,0-1.43-.47,2,2,0,0,0-1.51.66A2.53,2.53,0,0,0,81.25,93a2.38,2.38,0,0,0,.56,1.66,1.89,1.89,0,0,0,1.48.61,2.45,2.45,0,0,0,1.48-.52Z"/><path fill="#1e1e1e" d="M87,95.94h-1V87.05h1Z"/><path fill="#1e1e1e" d="M93.75,95.94h-1V95h0a2,2,0,0,1-1.85,1.09c-1.43,0-2.14-.85-2.14-2.56V89.94h1v3.43c0,1.27.49,1.9,1.45,1.9a1.46,1.46,0,0,0,1.16-.52,2,2,0,0,0,.46-1.36V89.94h1Z"/><path fill="#1e1e1e" d="M100.76,95.94h-1v-1h0a2.21,2.21,0,0,1-2.06,1.16,2.26,2.26,0,0,1-1.81-.81,3.31,3.31,0,0,1-.67-2.19A3.6,3.6,0,0,1,96,90.69a2.45,2.45,0,0,1,2-.89,1.9,1.9,0,0,1,1.79,1h0V87.05h1Zm-1-2.72v-.88a1.7,1.7,0,0,0-.48-1.23,1.61,1.61,0,0,0-1.22-.51,1.64,1.64,0,0,0-1.38.65A2.79,2.79,0,0,0,96.21,93a2.51,2.51,0,0,0,.49,1.64,1.57,1.57,0,0,0,1.29.6,1.65,1.65,0,0,0,1.31-.58A2.2,2.2,0,0,0,99.8,93.22Z"/><path fill="#1e1e1e" d="M107.47,93.18h-4.23a2.22,2.22,0,0,0,.53,1.54,1.85,1.85,0,0,0,1.42.55,2.94,2.94,0,0,0,1.87-.67v.9a3.46,3.46,0,0,1-2.1.58,2.54,2.54,0,0,1-2-.82,3.33,3.33,0,0,1-.73-2.3,3.28,3.28,0,0,1,.79-2.28,2.55,2.55,0,0,1,2-.88,2.25,2.25,0,0,1,1.82.76,3.17,3.17,0,0,1,.64,2.11Zm-1-.82a2,2,0,0,0-.4-1.29,1.38,1.38,0,0,0-1.1-.47,1.58,1.58,0,0,0-1.16.49,2.24,2.24,0,0,0-.58,1.27Z"/><path fill="#1e1e1e" d="M108.55,95.72v-1a2.81,2.81,0,0,0,1.72.58c.85,0,1.27-.28,1.27-.85a.72.72,0,0,0-.11-.4,1.17,1.17,0,0,0-.29-.3,2.86,2.86,0,0,0-.43-.23l-.54-.21c-.27-.11-.5-.22-.7-.32a2,2,0,0,1-.5-.37,1.21,1.21,0,0,1-.31-.46,1.57,1.57,0,0,1-.1-.6,1.44,1.44,0,0,1,.19-.75,1.67,1.67,0,0,1,.52-.54,2.21,2.21,0,0,1,.73-.33,3.05,3.05,0,0,1,.85-.11,3.46,3.46,0,0,1,1.4.27v1a2.71,2.71,0,0,0-1.52-.44,1.81,1.81,0,0,0-.49.07,1.05,1.05,0,0,0-.37.17.62.62,0,0,0-.24.27.64.64,0,0,0-.09.34.78.78,0,0,0,.09.39.74.74,0,0,0,.25.28,1.81,1.81,0,0,0,.39.22l.54.22a6.81,6.81,0,0,1,.71.32,2.12,2.12,0,0,1,.54.36,1.38,1.38,0,0,1,.34.46,1.54,1.54,0,0,1,.12.63,1.44,1.44,0,0,1-.19.77,1.74,1.74,0,0,1-.53.55,2.43,2.43,0,0,1-.75.32,3.82,3.82,0,0,1-.9.11A3.34,3.34,0,0,1,108.55,95.72Z"/><path fill="#1e1e1e" d="M116.93,95.72v-1a2.79,2.79,0,0,0,1.72.58c.85,0,1.27-.28,1.27-.85a.72.72,0,0,0-.11-.4,1.17,1.17,0,0,0-.29-.3,2.56,2.56,0,0,0-.44-.23l-.53-.21c-.27-.11-.5-.22-.7-.32a2.23,2.23,0,0,1-.51-.37,1.31,1.31,0,0,1-.3-.46,1.57,1.57,0,0,1-.1-.6,1.44,1.44,0,0,1,.19-.75,1.67,1.67,0,0,1,.52-.54,2.21,2.21,0,0,1,.73-.33,3.05,3.05,0,0,1,.85-.11,3.46,3.46,0,0,1,1.4.27v1a2.72,2.72,0,0,0-1.53-.44,1.79,1.79,0,0,0-.48.07,1,1,0,0,0-.37.17.62.62,0,0,0-.24.27.64.64,0,0,0-.09.34.78.78,0,0,0,.09.39.74.74,0,0,0,.25.28,1.59,1.59,0,0,0,.39.22l.54.22a6.81,6.81,0,0,1,.71.32,2.12,2.12,0,0,1,.54.36,1.38,1.38,0,0,1,.34.46,1.54,1.54,0,0,1,.12.63,1.44,1.44,0,0,1-.19.77,1.74,1.74,0,0,1-.53.55,2.54,2.54,0,0,1-.75.32,3.82,3.82,0,0,1-.9.11A3.34,3.34,0,0,1,116.93,95.72Z"/><path fill="#1e1e1e" d="M127.14,95.94h-1V95h0a2,2,0,0,1-1.85,1.09c-1.43,0-2.15-.85-2.15-2.56V89.94h1v3.43c0,1.27.48,1.9,1.45,1.9a1.47,1.47,0,0,0,1.16-.52,2,2,0,0,0,.45-1.36V89.94h1Z"/><path fill="#1e1e1e" d="M132.09,90.91a1.18,1.18,0,0,0-.73-.19,1.23,1.23,0,0,0-1,.58,2.7,2.7,0,0,0-.41,1.58v3.06h-1v-6h1v1.23h0a2.09,2.09,0,0,1,.63-1,1.42,1.42,0,0,1,.94-.36,1.75,1.75,0,0,1,.58.08Z"/><path fill="#1e1e1e" d="M136.29,90.91a1.18,1.18,0,0,0-.73-.19,1.2,1.2,0,0,0-1,.58,2.62,2.62,0,0,0-.42,1.58v3.06h-1v-6h1v1.23h0a2,2,0,0,1,.62-1,1.43,1.43,0,0,1,.95-.36,1.65,1.65,0,0,1,.57.08Z"/><path fill="#1e1e1e" d="M139.85,96.08a2.79,2.79,0,0,1-2.12-.84,3.12,3.12,0,0,1-.79-2.23,3.23,3.23,0,0,1,.82-2.36A3,3,0,0,1,140,89.8a2.69,2.69,0,0,1,2.1.82,3.29,3.29,0,0,1,.75,2.29,3.21,3.21,0,0,1-.81,2.3A2.84,2.84,0,0,1,139.85,96.08Zm.07-5.48a1.83,1.83,0,0,0-1.46.63,2.59,2.59,0,0,0-.54,1.74,2.41,2.41,0,0,0,.55,1.68,1.83,1.83,0,0,0,1.45.62,1.77,1.77,0,0,0,1.44-.6,2.67,2.67,0,0,0,.5-1.72,2.71,2.71,0,0,0-.5-1.74A1.78,1.78,0,0,0,139.92,90.6Z"/><path fill="#1e1e1e" d="M149.5,95.46q0,3.3-3.17,3.3a4.23,4.23,0,0,1-1.94-.42v-1a4,4,0,0,0,1.93.56c1.48,0,2.22-.78,2.22-2.36v-.65h0a2.42,2.42,0,0,1-3.86.35,3.19,3.19,0,0,1-.68-2.15,3.73,3.73,0,0,1,.73-2.43,2.46,2.46,0,0,1,2-.9,2,2,0,0,1,1.79,1h0v-.83h1Zm-1-2.24v-.88a1.7,1.7,0,0,0-.49-1.23,1.58,1.58,0,0,0-1.2-.51,1.66,1.66,0,0,0-1.39.65,2.88,2.88,0,0,0-.51,1.82,2.45,2.45,0,0,0,.49,1.6,1.55,1.55,0,0,0,1.28.6,1.66,1.66,0,0,0,1.31-.58A2.12,2.12,0,0,0,148.54,93.22Z"/><path fill="#1e1e1e" d="M155.64,95.94h-1V95h0a2,2,0,0,1-1.85,1.08,2,2,0,0,1-1.4-.48,1.62,1.62,0,0,1-.51-1.26q0-1.68,2-2l1.8-.26q0-1.53-1.23-1.53a3,3,0,0,0-2,.74v-1a3.68,3.68,0,0,1,2-.56c1.41,0,2.11.74,2.11,2.23Zm-1-3-1.45.2a2.25,2.25,0,0,0-1,.33,1,1,0,0,0-.34.84.91.91,0,0,0,.31.72,1.2,1.2,0,0,0,.84.28,1.56,1.56,0,0,0,1.18-.5,1.8,1.8,0,0,0,.46-1.27Z"/><path fill="#1e1e1e" d="M160.16,95.88a1.94,1.94,0,0,1-.9.19c-1,0-1.57-.59-1.57-1.76V90.76h-1v-.82h1V88.47l1-.31v1.78h1.51v.82h-1.51v3.38a1.45,1.45,0,0,0,.2.86.84.84,0,0,0,.68.26,1.05,1.05,0,0,0,.63-.2Z"/><path fill="#1e1e1e" d="M166.16,93.18h-4.23a2.18,2.18,0,0,0,.54,1.54,1.82,1.82,0,0,0,1.41.55,2.94,2.94,0,0,0,1.87-.67v.9a3.45,3.45,0,0,1-2.09.58,2.55,2.55,0,0,1-2-.82,3.83,3.83,0,0,1,.06-4.58,2.55,2.55,0,0,1,2-.88,2.25,2.25,0,0,1,1.82.76,3.17,3.17,0,0,1,.64,2.11Zm-1-.82a2,2,0,0,0-.4-1.29,1.38,1.38,0,0,0-1.1-.47,1.6,1.6,0,0,0-1.16.49,2.24,2.24,0,0,0-.58,1.27Z"/><path fill="#1e1e1e" d="M175,95.66a3.08,3.08,0,0,1-1.64.42,2.72,2.72,0,0,1-2.07-.84,3,3,0,0,1-.79-2.16,3.33,3.33,0,0,1,.85-2.38,3,3,0,0,1,2.27-.9,3.06,3.06,0,0,1,1.39.29v1a2.44,2.44,0,0,0-1.42-.47,1.92,1.92,0,0,0-1.51.66,2.48,2.48,0,0,0-.59,1.74,2.38,2.38,0,0,0,.55,1.66,1.91,1.91,0,0,0,1.49.61,2.44,2.44,0,0,0,1.47-.52Z"/><path fill="#1e1e1e" d="M178.81,96.08a2.77,2.77,0,0,1-2.12-.84,3.12,3.12,0,0,1-.8-2.23,3.23,3.23,0,0,1,.83-2.36A3,3,0,0,1,179,89.8a2.71,2.71,0,0,1,2.1.82,3.29,3.29,0,0,1,.75,2.29,3.21,3.21,0,0,1-.81,2.3A2.84,2.84,0,0,1,178.81,96.08Zm.07-5.48a1.8,1.8,0,0,0-1.46.63,2.59,2.59,0,0,0-.54,1.74,2.46,2.46,0,0,0,.54,1.68,1.85,1.85,0,0,0,1.46.62,1.75,1.75,0,0,0,1.43-.6,2.61,2.61,0,0,0,.5-1.72,2.65,2.65,0,0,0-.5-1.74A1.76,1.76,0,0,0,178.88,90.6Z"/><path fill="#1e1e1e" d="M188.45,95.94h-1v-1h0a2.42,2.42,0,0,1-3.87.35,3.32,3.32,0,0,1-.68-2.19,3.6,3.6,0,0,1,.75-2.39,2.47,2.47,0,0,1,2-.89,1.91,1.91,0,0,1,1.8,1h0V87.05h1Zm-1-2.72v-.88a1.7,1.7,0,0,0-.48-1.23,1.59,1.59,0,0,0-1.22-.51,1.67,1.67,0,0,0-1.38.65,2.85,2.85,0,0,0-.5,1.78,2.56,2.56,0,0,0,.48,1.64,1.59,1.59,0,0,0,1.3.6,1.63,1.63,0,0,0,1.3-.58A2.15,2.15,0,0,0,187.49,93.22Z"/><path fill="#1e1e1e" d="M195.17,93.18h-4.24a2.27,2.27,0,0,0,.54,1.54,1.84,1.84,0,0,0,1.42.55,2.91,2.91,0,0,0,1.86-.67v.9a3.41,3.41,0,0,1-2.09.58,2.56,2.56,0,0,1-2-.82,3.37,3.37,0,0,1-.72-2.3,3.28,3.28,0,0,1,.79-2.28,2.54,2.54,0,0,1,2-.88,2.24,2.24,0,0,1,1.82.76,3.17,3.17,0,0,1,.65,2.11Zm-1-.82a1.9,1.9,0,0,0-.4-1.29,1.36,1.36,0,0,0-1.1-.47,1.57,1.57,0,0,0-1.15.49,2.25,2.25,0,0,0-.59,1.27Z"/><path fill="#1e1e1e" d="M200.89,95.07h0V98.7h-1V89.94h1v1h0A2.28,2.28,0,0,1,203,89.8a2.2,2.2,0,0,1,1.81.8,3.37,3.37,0,0,1,.65,2.16,3.76,3.76,0,0,1-.73,2.41,2.44,2.44,0,0,1-2,.91A2,2,0,0,1,200.89,95.07Zm0-2.42v.84a1.8,1.8,0,0,0,.48,1.26,1.73,1.73,0,0,0,2.6-.15,3,3,0,0,0,.49-1.86,2.43,2.43,0,0,0-.46-1.57,1.53,1.53,0,0,0-1.25-.57,1.71,1.71,0,0,0-1.35.59A2.13,2.13,0,0,0,200.87,92.65Z"/><path fill="#1e1e1e" d="M209.47,96.08a2.77,2.77,0,0,1-2.12-.84,3.12,3.12,0,0,1-.8-2.23,3.23,3.23,0,0,1,.83-2.36,3,3,0,0,1,2.23-.85,2.71,2.71,0,0,1,2.1.82,3.29,3.29,0,0,1,.75,2.29,3.21,3.21,0,0,1-.81,2.3A2.84,2.84,0,0,1,209.47,96.08Zm.07-5.48a1.81,1.81,0,0,0-1.46.63,2.59,2.59,0,0,0-.54,1.74,2.46,2.46,0,0,0,.54,1.68,1.87,1.87,0,0,0,1.46.62,1.75,1.75,0,0,0,1.43-.6,2.61,2.61,0,0,0,.51-1.72,2.65,2.65,0,0,0-.51-1.74A1.76,1.76,0,0,0,209.54,90.6Z"/><path fill="#1e1e1e" d="M214.39,88.41a.64.64,0,0,1-.44-.17.65.65,0,0,1,0-.9.6.6,0,0,1,.44-.17.6.6,0,0,1,.45.17.62.62,0,0,1,0,.89A.61.61,0,0,1,214.39,88.41Zm.47,7.53h-1v-6h1Z"/><path fill="#1e1e1e" d="M221.67,95.94h-1V92.51c0-1.27-.47-1.91-1.4-1.91a1.53,1.53,0,0,0-1.19.55,2,2,0,0,0-.47,1.36v3.43h-1v-6h1v1h0a2.16,2.16,0,0,1,2-1.13,1.85,1.85,0,0,1,1.51.63,2.84,2.84,0,0,1,.52,1.84Z"/><path fill="#1e1e1e" d="M226.16,95.88a1.91,1.91,0,0,1-.9.19c-1,0-1.57-.59-1.57-1.76V90.76h-1v-.82h1V88.47l1-.31v1.78h1.51v.82h-1.51v3.38a1.45,1.45,0,0,0,.2.86.84.84,0,0,0,.68.26,1,1,0,0,0,.63-.2Z"/><path fill="#1e1e1e" d="M227.18,95.72v-1a2.81,2.81,0,0,0,1.72.58c.85,0,1.27-.28,1.27-.85a.72.72,0,0,0-.11-.4,1.17,1.17,0,0,0-.29-.3,2.86,2.86,0,0,0-.43-.23l-.54-.21c-.27-.11-.5-.22-.7-.32a2,2,0,0,1-.5-.37,1.21,1.21,0,0,1-.31-.46,1.57,1.57,0,0,1-.1-.6,1.44,1.44,0,0,1,.19-.75,1.67,1.67,0,0,1,.52-.54,2.21,2.21,0,0,1,.73-.33,3.05,3.05,0,0,1,.85-.11,3.46,3.46,0,0,1,1.4.27v1a2.71,2.71,0,0,0-1.52-.44,1.81,1.81,0,0,0-.49.07,1.05,1.05,0,0,0-.37.17.62.62,0,0,0-.24.27.64.64,0,0,0-.09.34.78.78,0,0,0,.09.39.74.74,0,0,0,.25.28,1.81,1.81,0,0,0,.39.22l.54.22a6.81,6.81,0,0,1,.71.32,2.12,2.12,0,0,1,.54.36,1.38,1.38,0,0,1,.34.46,1.54,1.54,0,0,1,.12.63,1.44,1.44,0,0,1-.19.77,1.74,1.74,0,0,1-.53.55,2.43,2.43,0,0,1-.75.32,3.82,3.82,0,0,1-.9.11A3.34,3.34,0,0,1,227.18,95.72Z"/><path fill="#1e1e1e" d="M242.19,92.54q0,3.54-3.19,3.54t-3.06-3.41V87.53h1v5.08c0,1.72.72,2.58,2.18,2.58s2.1-.83,2.1-2.49V87.53h1Z"/><path fill="#1e1e1e" d="M249.49,92.83h-2.37v2.36h-.78V92.83H244v-.78h2.36V89.68h.78v2.37h2.37Z"/><path fill="#1e1e1e" d="M251.35,95.94V87.53h2.32q4.44,0,4.44,4.1a4.14,4.14,0,0,1-1.23,3.13,4.6,4.6,0,0,1-3.3,1.18Zm1-7.52v6.63h1.25a3.55,3.55,0,0,0,2.57-.89,3.32,3.32,0,0,0,.92-2.51q0-3.23-3.43-3.23Z"/><path fill="#1e1e1e" d="M259.13,93.59a2.29,2.29,0,0,1,.11-.67,2.6,2.6,0,0,1,.3-.63,2.43,2.43,0,0,1,.49-.53,2.15,2.15,0,0,1,.66-.38,2.54,2.54,0,0,1-.87-.78,1.84,1.84,0,0,1-.32-1.06,2,2,0,0,1,.18-.86,1.94,1.94,0,0,1,.49-.68,2.34,2.34,0,0,1,.75-.45,2.85,2.85,0,0,1,.94-.16,2.62,2.62,0,0,1,.94.17,2.34,2.34,0,0,1,.75.45,1.94,1.94,0,0,1,.49.68,2,2,0,0,1,.18.85,1.91,1.91,0,0,1-.32,1.06,2.7,2.7,0,0,1-.86.78,2.22,2.22,0,0,1,.65.38,3.05,3.05,0,0,1,.49.53,2.6,2.6,0,0,1,.3.63,2.27,2.27,0,0,1,.1.67,2.37,2.37,0,0,1-.2,1,2.11,2.11,0,0,1-.56.78,2.46,2.46,0,0,1-.86.51,3.45,3.45,0,0,1-2.2,0,2.55,2.55,0,0,1-.86-.51,2.11,2.11,0,0,1-.56-.78A2.37,2.37,0,0,1,259.13,93.59Zm1.05-.08a2,2,0,0,0,.12.71,1.5,1.5,0,0,0,.34.54,1.38,1.38,0,0,0,.53.34,1.92,1.92,0,0,0,.69.12,1.83,1.83,0,0,0,.68-.12,1.54,1.54,0,0,0,.89-.89,1.75,1.75,0,0,0,.13-.7,1.84,1.84,0,0,0-.12-.66,1.73,1.73,0,0,0-.35-.54,1.45,1.45,0,0,0-.53-.37,1.75,1.75,0,0,0-.7-.13,1.85,1.85,0,0,0-.67.12,1.75,1.75,0,0,0-.53.35,1.53,1.53,0,0,0-.35.54A1.73,1.73,0,0,0,260.18,93.51Zm.3-3.9a1.47,1.47,0,0,0,.1.56,1.55,1.55,0,0,0,.3.44,1.43,1.43,0,0,0,.44.3,1.41,1.41,0,0,0,1.09,0,1.71,1.71,0,0,0,.44-.3,1.77,1.77,0,0,0,.3-.45,1.42,1.42,0,0,0,.11-.55,1.47,1.47,0,0,0-.11-.56,1.43,1.43,0,0,0-.74-.74,1.42,1.42,0,0,0-.55-.11,1.47,1.47,0,0,0-.56.11,1.4,1.4,0,0,0-.44.31,1.35,1.35,0,0,0-.29.44A1.71,1.71,0,0,0,260.48,89.61Z"/><path fill="#1e1e1e" d="M271.14,91.7a8.68,8.68,0,0,1-.19,1.87,4.41,4.41,0,0,1-.55,1.37,2.48,2.48,0,0,1-.89.85,2.36,2.36,0,0,1-1.19.29,2.23,2.23,0,0,1-1.13-.28,2.32,2.32,0,0,1-.84-.81,4.26,4.26,0,0,1-.51-1.31,7.84,7.84,0,0,1-.18-1.77,9.33,9.33,0,0,1,.19-2,4.48,4.48,0,0,1,.54-1.42,2.44,2.44,0,0,1,.89-.86,2.52,2.52,0,0,1,1.21-.29Q271.15,87.39,271.14,91.7Zm-1,.09c0-2.39-.57-3.58-1.7-3.58s-1.8,1.21-1.8,3.65c0,2.27.59,3.4,1.76,3.4S270.15,94.11,270.15,91.79Z"/><path fill="#1e1e1e" d="M277.83,91.7a8.09,8.09,0,0,1-.19,1.87,4.41,4.41,0,0,1-.55,1.37,2.4,2.4,0,0,1-.89.85,2.33,2.33,0,0,1-1.19.29,2.23,2.23,0,0,1-1.13-.28,2.29,2.29,0,0,1-.83-.81,4,4,0,0,1-.52-1.31,8.5,8.5,0,0,1-.17-1.77,9.38,9.38,0,0,1,.18-2,5,5,0,0,1,.54-1.42,2.52,2.52,0,0,1,.89-.86,2.56,2.56,0,0,1,1.22-.29Q277.83,87.39,277.83,91.7Zm-1,.09c0-2.39-.57-3.58-1.71-3.58s-1.8,1.21-1.8,3.65c0,2.27.59,3.4,1.77,3.4S276.85,94.11,276.85,91.79Z"/><path fill="#1e1e1e" d="M279.54,96.07a.61.61,0,0,1-.46-.2.62.62,0,0,1-.19-.46.64.64,0,0,1,.19-.47.65.65,0,0,1,.92,0,.65.65,0,0,1,.2.47.63.63,0,0,1-.2.46A.61.61,0,0,1,279.54,96.07Z"/><path fill="#1e1e1e" d="M282,96.07a.63.63,0,0,1-.46-.2.66.66,0,0,1-.19-.46.68.68,0,0,1,.19-.47.62.62,0,0,1,.46-.19.63.63,0,0,1,.47.19.65.65,0,0,1,.2.47.68.68,0,0,1-.67.66Z"/><path fill="#1e1e1e" d="M284.55,96.07a.63.63,0,0,1-.46-.2.62.62,0,0,1-.19-.46.64.64,0,0,1,.19-.47.62.62,0,0,1,.46-.19.65.65,0,0,1,.66.66.62.62,0,0,1-.19.46A.65.65,0,0,1,284.55,96.07Z"/><path fill="#1e1e1e" d="M292.86,92.54q0,3.54-3.2,3.54-3,0-3.05-3.41V87.53h1v5.08c0,1.72.73,2.58,2.18,2.58s2.1-.83,2.1-2.49V87.53h1Z"/><path fill="#1e1e1e" d="M300.15,92.83h-2.36v2.36H297V92.83h-2.36v-.78H297V89.68h.78v2.37h2.36Z"/><path fill="#1e1e1e" d="M302,95.94V87.53h2.32q4.44,0,4.44,4.1a4.11,4.11,0,0,1-1.24,3.13,4.6,4.6,0,0,1-3.3,1.18Zm1-7.52v6.63h1.25a3.59,3.59,0,0,0,2.58-.89,3.32,3.32,0,0,0,.92-2.51q0-3.23-3.44-3.23Z"/><path fill="#1e1e1e" d="M314.64,88.42h-3.28v2.91h3v.89h-3v3.72h-1V87.53h4.27Z"/><path fill="#1e1e1e" d="M320.25,88.42H317v2.91h3v.89h-3v3.72h-1V87.53h4.27Z"/><path fill="#1e1e1e" d="M325.86,88.42h-3.28v2.91h3v.89h-3v3.72h-1V87.53h4.27Z"/></g><g><path fill="#1e1e1e" d="M402,71.17q0,3.52-3.2,3.53-3,0-3.05-3.4V66.16h1v5.08c0,1.72.73,2.58,2.18,2.58s2.1-.83,2.1-2.5V66.16h1Z"/><path fill="#1e1e1e" d="M409.25,71.46h-2.37v2.36h-.78V71.46h-2.36v-.79h2.36V68.31h.78v2.36h2.37Z"/><path fill="#1e1e1e" d="M413.26,74.56h-1V67.3a2,2,0,0,1-.32.26,5.1,5.1,0,0,1-.48.28c-.18.1-.37.18-.56.27a4.89,4.89,0,0,1-.58.19v-1a6.12,6.12,0,0,0,.67-.24c.24-.1.47-.21.7-.33l.64-.39a5.2,5.2,0,0,0,.53-.4h.36Z"/><path fill="#1e1e1e" d="M421,70.33a8.15,8.15,0,0,1-.19,1.87,4.41,4.41,0,0,1-.55,1.37,2.34,2.34,0,0,1-2.08,1.14,2.19,2.19,0,0,1-1.12-.28,2.32,2.32,0,0,1-.84-.81,4.12,4.12,0,0,1-.52-1.31,8.61,8.61,0,0,1-.17-1.78,9.35,9.35,0,0,1,.18-1.94,4.53,4.53,0,0,1,.55-1.42,2.34,2.34,0,0,1,.88-.86,2.56,2.56,0,0,1,1.22-.29Q421,66,421,70.33Zm-1,.09c0-2.39-.57-3.59-1.71-3.59s-1.8,1.22-1.8,3.66c0,2.26.59,3.4,1.77,3.4S420,72.73,420,70.42Z"/><path fill="#1e1e1e" d="M426.87,67.05h-3.28V70h3v.88h-3v3.72h-1v-8.4h4.27Z"/><path fill="#1e1e1e" d="M432.48,67.05H429.2V70h3v.88h-3v3.72h-1v-8.4h4.27Z"/><path fill="#1e1e1e" d="M438.09,67.05h-3.28V70h3v.88h-3v3.72h-1v-8.4h4.27Z"/><path fill="#1e1e1e" d="M443.7,67.05h-3.28V70h3v.88h-3v3.72h-1v-8.4h4.27Z"/></g><g><path fill="#1e1e1e" d="M185.7,29.75V28.59a2.23,2.23,0,0,0,.48.32,4.54,4.54,0,0,0,.59.24,4.47,4.47,0,0,0,.61.14,3.09,3.09,0,0,0,.58.06,2.18,2.18,0,0,0,1.35-.34,1.26,1.26,0,0,0,.3-1.56,1.6,1.6,0,0,0-.41-.46,4.43,4.43,0,0,0-.62-.4l-.78-.4c-.29-.15-.57-.3-.82-.45a3.13,3.13,0,0,1-.66-.51,2.1,2.1,0,0,1-.45-.62,2,2,0,0,1-.16-.82,1.93,1.93,0,0,1,.26-1,2.1,2.1,0,0,1,.66-.7,3,3,0,0,1,.93-.41,4.29,4.29,0,0,1,1.07-.13,4.08,4.08,0,0,1,1.81.3V23a3.22,3.22,0,0,0-1.91-.52,2.79,2.79,0,0,0-.64.07,1.75,1.75,0,0,0-.58.22,1.38,1.38,0,0,0-.41.39,1.08,1.08,0,0,0-.16.59,1.18,1.18,0,0,0,.12.55,1.31,1.31,0,0,0,.36.43,3.75,3.75,0,0,0,.57.37c.23.13.48.26.78.4s.58.31.85.47a4,4,0,0,1,.71.55,2.32,2.32,0,0,1,.48.66,1.84,1.84,0,0,1,.18.83,2.12,2.12,0,0,1-.24,1.05,1.93,1.93,0,0,1-.66.7,2.8,2.8,0,0,1-.95.39,5.22,5.22,0,0,1-1.13.12l-.5,0-.59-.09a4.43,4.43,0,0,1-.58-.16A1.65,1.65,0,0,1,185.7,29.75Z"/><path fill="#1e1e1e" d="M197.05,30.09h-1v-.95h0a2,2,0,0,1-1.85,1.09c-1.43,0-2.15-.85-2.15-2.55V24.09h1v3.44c0,1.26.48,1.89,1.45,1.89a1.5,1.5,0,0,0,1.16-.51,2,2,0,0,0,.45-1.36V24.09h1Z"/><path fill="#1e1e1e" d="M199.85,29.22h0v3.63h-1V24.09h1v1.06h0a2.28,2.28,0,0,1,2.08-1.2,2.2,2.2,0,0,1,1.81.81,3.33,3.33,0,0,1,.65,2.16,3.73,3.73,0,0,1-.74,2.41,2.42,2.42,0,0,1-2,.9A2,2,0,0,1,199.85,29.22Zm0-2.42v.84a1.81,1.81,0,0,0,.48,1.27,1.75,1.75,0,0,0,2.6-.15,3.09,3.09,0,0,0,.49-1.86,2.41,2.41,0,0,0-.46-1.57,1.53,1.53,0,0,0-1.25-.57,1.7,1.7,0,0,0-1.35.58A2.15,2.15,0,0,0,199.83,26.8Z"/><path fill="#1e1e1e" d="M206.85,29.22h0v3.63h-1V24.09h1v1.06h0a2.28,2.28,0,0,1,2.08-1.2,2.2,2.2,0,0,1,1.81.81,3.33,3.33,0,0,1,.65,2.16,3.73,3.73,0,0,1-.74,2.41,2.42,2.42,0,0,1-2,.9A2,2,0,0,1,206.85,29.22Zm0-2.42v.84a1.81,1.81,0,0,0,.48,1.27,1.75,1.75,0,0,0,2.6-.15,3.09,3.09,0,0,0,.49-1.86,2.41,2.41,0,0,0-.46-1.57,1.53,1.53,0,0,0-1.25-.57,1.7,1.7,0,0,0-1.35.58A2.15,2.15,0,0,0,206.83,26.8Z"/><path fill="#1e1e1e" d="M213.84,30.09h-1V21.21h1Z"/><path fill="#1e1e1e" d="M220.56,27.33h-4.23a2.19,2.19,0,0,0,.54,1.55,1.85,1.85,0,0,0,1.42.54,3,3,0,0,0,1.86-.66v.9a3.52,3.52,0,0,1-2.09.57,2.54,2.54,0,0,1-2-.81,3.34,3.34,0,0,1-.73-2.3,3.29,3.29,0,0,1,.8-2.29,2.56,2.56,0,0,1,2-.88,2.28,2.28,0,0,1,1.82.76,3.19,3.19,0,0,1,.64,2.12Zm-1-.81a2,2,0,0,0-.4-1.3,1.36,1.36,0,0,0-1.1-.46,1.52,1.52,0,0,0-1.15.49,2.13,2.13,0,0,0-.59,1.27Z"/><path fill="#1e1e1e" d="M230.54,30.09h-1V26.65a2.61,2.61,0,0,0-.31-1.44,1.17,1.17,0,0,0-1-.45,1.28,1.28,0,0,0-1,.56,2.16,2.16,0,0,0-.43,1.35v3.42h-1V26.53c0-1.18-.46-1.77-1.37-1.77a1.27,1.27,0,0,0-1,.53,2.2,2.2,0,0,0-.41,1.38v3.42h-1v-6h1V25h0A2,2,0,0,1,224.87,24a1.8,1.8,0,0,1,1.07.34,1.73,1.73,0,0,1,.62.9,2.16,2.16,0,0,1,2-1.24c1.32,0,2,.82,2,2.44Z"/><path fill="#1e1e1e" d="M237.15,27.33h-4.23a2.19,2.19,0,0,0,.54,1.55,1.85,1.85,0,0,0,1.41.54,3,3,0,0,0,1.87-.66v.9a3.52,3.52,0,0,1-2.09.57,2.54,2.54,0,0,1-2-.81,3.34,3.34,0,0,1-.73-2.3,3.34,3.34,0,0,1,.79-2.29,2.58,2.58,0,0,1,2-.88,2.28,2.28,0,0,1,1.82.76,3.19,3.19,0,0,1,.64,2.12Zm-1-.81a2,2,0,0,0-.4-1.3,1.37,1.37,0,0,0-1.1-.46,1.56,1.56,0,0,0-1.16.49,2.18,2.18,0,0,0-.58,1.27Z"/><path fill="#1e1e1e" d="M243.59,30.09h-1V26.67c0-1.27-.47-1.91-1.4-1.91a1.5,1.5,0,0,0-1.19.54,2,2,0,0,0-.47,1.37v3.42h-1v-6h1v1h0a2.16,2.16,0,0,1,2-1.14,1.79,1.79,0,0,1,1.5.64,2.79,2.79,0,0,1,.53,1.83Z"/><path fill="#1e1e1e" d="M248.08,30a1.82,1.82,0,0,1-.9.19c-1.05,0-1.57-.59-1.57-1.76V24.91h-1v-.82h1V22.63l1-.31v1.77h1.51v.82h-1.51v3.38a1.43,1.43,0,0,0,.2.86.81.81,0,0,0,.68.26,1,1,0,0,0,.63-.2Z"/><path fill="#1e1e1e" d="M253.76,30.09h-1v-.94h0a2.2,2.2,0,0,1-3.25.61,1.68,1.68,0,0,1-.5-1.26c0-1.12.66-1.78,2-2l1.8-.25c0-1-.41-1.53-1.24-1.53a3,3,0,0,0-2,.74v-1a3.76,3.76,0,0,1,2-.56c1.41,0,2.12.75,2.12,2.24Zm-1-3-1.45.2a2.3,2.3,0,0,0-1,.33,1,1,0,0,0-.34.84.93.93,0,0,0,.32.72,1.2,1.2,0,0,0,.83.27,1.51,1.51,0,0,0,1.18-.5,1.78,1.78,0,0,0,.47-1.27Z"/><path fill="#1e1e1e" d="M258.63,25.06a1.25,1.25,0,0,0-.73-.19,1.2,1.2,0,0,0-1,.58,2.67,2.67,0,0,0-.42,1.58v3.06h-1v-6h1v1.24h0a2.08,2.08,0,0,1,.62-1,1.42,1.42,0,0,1,.95-.35,1.44,1.44,0,0,1,.57.08Z"/><path fill="#1e1e1e" d="M264.93,24.09l-2.76,7c-.49,1.24-1.18,1.87-2.07,1.87a2.25,2.25,0,0,1-.63-.08V32a1.8,1.8,0,0,0,.57.1,1.18,1.18,0,0,0,1.09-.86l.48-1.14-2.35-6h1.07L262,28.71c0,.06.06.21.13.46h0q0-.15.12-.45l1.7-4.63Z"/><path fill="#1e1e1e" d="M273.34,29.82a3.19,3.19,0,0,1-1.64.41,2.72,2.72,0,0,1-2.07-.83,3,3,0,0,1-.79-2.17,3.3,3.3,0,0,1,.85-2.38A3,3,0,0,1,272,24a3.23,3.23,0,0,1,1.39.29v1a2.47,2.47,0,0,0-1.43-.47,1.93,1.93,0,0,0-1.51.66,2.52,2.52,0,0,0-.59,1.73,2.36,2.36,0,0,0,.56,1.66,1.89,1.89,0,0,0,1.48.61,2.39,2.39,0,0,0,1.48-.52Z"/><path fill="#1e1e1e" d="M277.16,30.23a2.79,2.79,0,0,1-2.13-.84,3.1,3.1,0,0,1-.79-2.23,3.24,3.24,0,0,1,.82-2.36A3,3,0,0,1,277.3,24a2.69,2.69,0,0,1,2.09.83,3.27,3.27,0,0,1,.75,2.29,3.23,3.23,0,0,1-.81,2.3A2.85,2.85,0,0,1,277.16,30.23Zm.07-5.47a1.84,1.84,0,0,0-1.47.63,2.59,2.59,0,0,0-.54,1.74,2.41,2.41,0,0,0,.55,1.68,1.85,1.85,0,0,0,1.46.61,1.77,1.77,0,0,0,1.43-.6,2.63,2.63,0,0,0,.5-1.72,2.68,2.68,0,0,0-.5-1.73A1.74,1.74,0,0,0,277.23,24.76Z"/><path fill="#1e1e1e" d="M286.8,30.09h-1v-1h0a2.22,2.22,0,0,1-2.07,1.16,2.25,2.25,0,0,1-1.8-.8,3.27,3.27,0,0,1-.68-2.2,3.59,3.59,0,0,1,.75-2.38,2.48,2.48,0,0,1,2-.9,2,2,0,0,1,1.8,1h0V21.21h1Zm-1-2.71v-.89a1.73,1.73,0,0,0-.48-1.23,1.78,1.78,0,0,0-2.6.14,2.82,2.82,0,0,0-.51,1.79,2.48,2.48,0,0,0,.49,1.63,1.57,1.57,0,0,0,1.29.6,1.65,1.65,0,0,0,1.31-.58A2.16,2.16,0,0,0,285.84,27.38Z"/><path fill="#1e1e1e" d="M293.51,27.33h-4.23a2.19,2.19,0,0,0,.54,1.55,1.85,1.85,0,0,0,1.41.54,3,3,0,0,0,1.87-.66v.9a3.52,3.52,0,0,1-2.09.57,2.54,2.54,0,0,1-2-.81,3.34,3.34,0,0,1-.73-2.3,3.34,3.34,0,0,1,.79-2.29,2.58,2.58,0,0,1,2-.88,2.28,2.28,0,0,1,1.82.76,3.19,3.19,0,0,1,.64,2.12Zm-1-.81a2,2,0,0,0-.4-1.3,1.37,1.37,0,0,0-1.1-.46,1.56,1.56,0,0,0-1.16.49,2.18,2.18,0,0,0-.58,1.27Z"/><path fill="#1e1e1e" d="M299.24,29.22h0v3.63h-1V24.09h1v1.06h0a2.26,2.26,0,0,1,2.07-1.2,2.18,2.18,0,0,1,1.81.81,3.28,3.28,0,0,1,.65,2.16,3.72,3.72,0,0,1-.73,2.41,2.45,2.45,0,0,1-2,.9A2,2,0,0,1,299.24,29.22Zm0-2.42v.84a1.82,1.82,0,0,0,.49,1.27,1.73,1.73,0,0,0,2.59-.15,3.09,3.09,0,0,0,.5-1.86,2.47,2.47,0,0,0-.46-1.57,1.54,1.54,0,0,0-1.26-.57,1.7,1.7,0,0,0-1.35.58A2.15,2.15,0,0,0,299.21,26.8Z"/><path fill="#1e1e1e" d="M307.82,30.23a2.79,2.79,0,0,1-2.13-.84,3.1,3.1,0,0,1-.79-2.23,3.24,3.24,0,0,1,.82-2.36A3,3,0,0,1,308,24a2.69,2.69,0,0,1,2.09.83,3.27,3.27,0,0,1,.75,2.29,3.23,3.23,0,0,1-.81,2.3A2.85,2.85,0,0,1,307.82,30.23Zm.07-5.47a1.84,1.84,0,0,0-1.47.63,2.59,2.59,0,0,0-.54,1.74,2.41,2.41,0,0,0,.55,1.68,1.85,1.85,0,0,0,1.46.61,1.77,1.77,0,0,0,1.43-.6,2.63,2.63,0,0,0,.5-1.72,2.68,2.68,0,0,0-.5-1.73A1.74,1.74,0,0,0,307.89,24.76Z"/><path fill="#1e1e1e" d="M312.74,22.57a.6.6,0,0,1-.44-.18.57.57,0,0,1-.18-.44.61.61,0,0,1,.18-.45.6.6,0,0,1,.44-.18.64.64,0,0,1,.45.18.61.61,0,0,1,.18.45.6.6,0,0,1-.18.44A.64.64,0,0,1,312.74,22.57Zm.47,7.52h-1v-6h1Z"/><path fill="#1e1e1e" d="M320,30.09h-1V26.67c0-1.27-.46-1.91-1.39-1.91a1.5,1.5,0,0,0-1.19.54,2,2,0,0,0-.48,1.37v3.42h-1v-6h1v1h0A2.16,2.16,0,0,1,318,24a1.81,1.81,0,0,1,1.5.64,2.79,2.79,0,0,1,.52,1.83Z"/><path fill="#1e1e1e" d="M324.51,30a1.82,1.82,0,0,1-.9.19c-1.05,0-1.58-.59-1.58-1.76V24.91h-1v-.82h1V22.63l1-.31v1.77h1.52v.82H323v3.38a1.35,1.35,0,0,0,.21.86.8.8,0,0,0,.68.26,1,1,0,0,0,.63-.2Z"/><path fill="#1e1e1e" d="M325.52,29.88v-1a2.84,2.84,0,0,0,1.73.58c.84,0,1.27-.28,1.27-.84a.76.76,0,0,0-.11-.41.93.93,0,0,0-.3-.29,1.59,1.59,0,0,0-.43-.23l-.53-.22a6,6,0,0,1-.71-.32,2.47,2.47,0,0,1-.5-.36,1.35,1.35,0,0,1-.3-.46,1.57,1.57,0,0,1-.11-.6,1.42,1.42,0,0,1,.2-.75,1.78,1.78,0,0,1,.51-.55,2.77,2.77,0,0,1,.74-.33,3.41,3.41,0,0,1,.85-.11,3.5,3.5,0,0,1,1.4.27v1a2.74,2.74,0,0,0-1.53-.43,1.75,1.75,0,0,0-.48.06,1.33,1.33,0,0,0-.38.17,1,1,0,0,0-.24.27.77.77,0,0,0-.08.34,1,1,0,0,0,.08.4.94.94,0,0,0,.25.28,2.11,2.11,0,0,0,.4.22l.53.22a6.21,6.21,0,0,1,.72.31,2.82,2.82,0,0,1,.54.36,1.41,1.41,0,0,1,.34.47,1.51,1.51,0,0,1,.12.63,1.41,1.41,0,0,1-.2.77,1.58,1.58,0,0,1-.52.54,2.28,2.28,0,0,1-.76.33,3.68,3.68,0,0,1-.89.1A3.54,3.54,0,0,1,325.52,29.88Z"/></g><g><path fill="#1e1e1e" d="M215.92,11.53V9.34a4.44,4.44,0,0,0,1.29.75,4.37,4.37,0,0,0,1.41.25,3.13,3.13,0,0,0,.73-.08,1.66,1.66,0,0,0,.52-.21.92.92,0,0,0,.31-.31.77.77,0,0,0,.1-.4.84.84,0,0,0-.16-.51,1.63,1.63,0,0,0-.45-.41,3.8,3.8,0,0,0-.67-.37l-.84-.37a4.13,4.13,0,0,1-1.71-1.17,2.52,2.52,0,0,1-.57-1.66,2.63,2.63,0,0,1,.31-1.32,2.42,2.42,0,0,1,.84-.9,3.64,3.64,0,0,1,1.22-.53,6.45,6.45,0,0,1,1.48-.17,9.11,9.11,0,0,1,1.36.1,5.11,5.11,0,0,1,1.09.28v2a4.68,4.68,0,0,0-.54-.3,5.29,5.29,0,0,0-.6-.21,4.42,4.42,0,0,0-.61-.13,3.86,3.86,0,0,0-.58,0,2.84,2.84,0,0,0-.68.07,2,2,0,0,0-.52.2,1,1,0,0,0-.33.32.69.69,0,0,0-.11.4.74.74,0,0,0,.13.44,1.39,1.39,0,0,0,.36.37,3.54,3.54,0,0,0,.59.34,8.21,8.21,0,0,0,.77.35,8.56,8.56,0,0,1,1.05.52,4.05,4.05,0,0,1,.81.63,2.55,2.55,0,0,1,.51.79,2.82,2.82,0,0,1,.18,1.05,2.86,2.86,0,0,1-.31,1.37,2.48,2.48,0,0,1-.85.91,3.62,3.62,0,0,1-1.24.49,7.17,7.17,0,0,1-1.49.15,8.49,8.49,0,0,1-1.54-.13A5.18,5.18,0,0,1,215.92,11.53Z"/><path fill="#1e1e1e" d="M229.31,11.65a4.28,4.28,0,0,1-2.11.42,3.55,3.55,0,0,1-2.61-1,3.39,3.39,0,0,1-1-2.52,3.73,3.73,0,0,1,1.07-2.81,4,4,0,0,1,2.86-1,3.64,3.64,0,0,1,1.79.33V6.89a2.44,2.44,0,0,0-1.51-.51,2,2,0,0,0-1.47.55,2,2,0,0,0-.54,1.5,2,2,0,0,0,.52,1.46,1.9,1.9,0,0,0,1.42.53,2.82,2.82,0,0,0,1.58-.51Z"/><path fill="#1e1e1e" d="M236.65,11.9h-2v-1h0a2.29,2.29,0,0,1-2.09,1.17,2.15,2.15,0,0,1-1.6-.58,2,2,0,0,1-.58-1.54c0-1.35.8-2.14,2.41-2.35l1.9-.25c0-.77-.41-1.15-1.24-1.15A4.21,4.21,0,0,0,231,7V5.32a5.17,5.17,0,0,1,1.23-.41,6.42,6.42,0,0,1,1.43-.18,2.65,2.65,0,0,1,3,3Zm-2-2.84V8.59l-1.27.16c-.7.09-1,.41-1,.95a.79.79,0,0,0,.25.61,1,1,0,0,0,.7.23,1.29,1.29,0,0,0,1-.42A1.53,1.53,0,0,0,234.62,9.06Z"/><path fill="#1e1e1e" d="M240.51,11.9h-2.16V1.54h2.16Z"/><path fill="#1e1e1e" d="M248.17,11.9h-2v-1h0A2.28,2.28,0,0,1,244,12.07a2.18,2.18,0,0,1-1.61-.58,2,2,0,0,1-.58-1.54c0-1.35.8-2.14,2.41-2.35l1.9-.25c0-.77-.41-1.15-1.24-1.15a4.21,4.21,0,0,0-2.38.75V5.32a5.17,5.17,0,0,1,1.23-.41,6.49,6.49,0,0,1,1.43-.18,2.64,2.64,0,0,1,3,3Zm-2-2.84V8.59l-1.27.16c-.7.09-1.05.41-1.05.95a.79.79,0,0,0,.25.61,1.05,1.05,0,0,0,.7.23,1.29,1.29,0,0,0,1-.42A1.48,1.48,0,0,0,246.14,9.06Z"/><path fill="#1e1e1e" d="M254.44,6.85a1.91,1.91,0,0,0-.91-.21,1.31,1.31,0,0,0-1.1.51,2.25,2.25,0,0,0-.4,1.41V11.9h-2.16v-7H252V6.2h0a1.86,1.86,0,0,1,1.84-1.42,1.54,1.54,0,0,1,.54.08Z"/><path fill="#1e1e1e" d="M266,4.9l-2.61,7H260.9l-2.48-7h2.31L262,9.21a6.72,6.72,0,0,1,.24,1.25h0a6.44,6.44,0,0,1,.25-1.2l1.24-4.36Z"/><path fill="#1e1e1e" d="M272.62,11.9h-2v-1h0a2.28,2.28,0,0,1-2.08,1.17,2.18,2.18,0,0,1-1.61-.58,2.08,2.08,0,0,1-.58-1.54c0-1.35.8-2.14,2.41-2.35l1.9-.25c0-.77-.41-1.15-1.24-1.15A4.24,4.24,0,0,0,267,7V5.32a5.17,5.17,0,0,1,1.23-.41,6.49,6.49,0,0,1,1.43-.18,2.64,2.64,0,0,1,3,3Zm-2-2.84V8.59l-1.27.16c-.7.09-1.05.41-1.05.95a.77.77,0,0,0,.26.61,1,1,0,0,0,.69.23,1.26,1.26,0,0,0,1-.42A1.48,1.48,0,0,0,270.59,9.06Z"/><path fill="#1e1e1e" d="M276.48,11.9h-2.16V1.54h2.16Z"/><path fill="#1e1e1e" d="M284.94,11.9h-2.15V10.83h0a2.42,2.42,0,0,1-2.14,1.24q-2.43,0-2.43-2.94V4.9h2.15v4c0,1,.4,1.49,1.18,1.49a1.16,1.16,0,0,0,.93-.41,1.65,1.65,0,0,0,.35-1.1v-4h2.15Z"/><path fill="#1e1e1e" d="M293.05,9h-4.57c.07,1,.71,1.52,1.92,1.52a3.7,3.7,0,0,0,2-.55v1.56a5.27,5.27,0,0,1-2.52.52,3.53,3.53,0,0,1-2.63-.94,3.52,3.52,0,0,1-.94-2.62,3.76,3.76,0,0,1,1-2.76,3.39,3.39,0,0,1,2.49-1,3.05,3.05,0,0,1,2.37.91,3.51,3.51,0,0,1,.84,2.47Zm-2-1.33c0-1-.41-1.5-1.22-1.5a1.14,1.14,0,0,0-.9.43,1.9,1.9,0,0,0-.46,1.07Z"/><path fill="#1e1e1e" d="M294,11.72V10a5,5,0,0,0,1.06.48,3.68,3.68,0,0,0,1,.15,2.3,2.3,0,0,0,.91-.15.52.52,0,0,0,.33-.48.43.43,0,0,0-.15-.34,1.08,1.08,0,0,0-.39-.24,5.19,5.19,0,0,0-.52-.19L295.74,9a6.28,6.28,0,0,1-.73-.34,2,2,0,0,1-.53-.42,1.51,1.51,0,0,1-.33-.56A2.06,2.06,0,0,1,294,7a1.92,1.92,0,0,1,.25-1,2,2,0,0,1,.69-.7,3,3,0,0,1,1-.39,4.83,4.83,0,0,1,1.15-.13,6,6,0,0,1,.94.07A7.13,7.13,0,0,1,299,5V6.68a3.33,3.33,0,0,0-.87-.36,3.75,3.75,0,0,0-.92-.12,1.7,1.7,0,0,0-.4,0,1,1,0,0,0-.33.11.62.62,0,0,0-.23.18.47.47,0,0,0-.08.26.5.5,0,0,0,.12.33,1,1,0,0,0,.32.23,2.89,2.89,0,0,0,.44.18l.49.16a6.14,6.14,0,0,1,.77.33,2.28,2.28,0,0,1,.6.42,1.57,1.57,0,0,1,.39.56,2.15,2.15,0,0,1,.13.76,2,2,0,0,1-.27,1.06,2.07,2.07,0,0,1-.72.72,3.27,3.27,0,0,1-1,.41,6,6,0,0,1-1.21.12A6.4,6.4,0,0,1,294,11.72Z"/></g></g></svg>